<?xml version="1.0" encoding="UTF-8" standalone="no"?>
<!-- Created with Inkscape (http://www.inkscape.org/) -->

<svg
   width="109.80212mm"
   height="47.352821mm"
   viewBox="0 0 109.80212 47.352821"
   version="1.1"
   id="svg1"
   xml:space="preserve"
   inkscape:version="1.4 (e7c3feb1, 2024-10-09)"
   sodipodi:docname="ch'ak-ka-ja-u-k'ab.svg"
   xmlns:inkscape="http://www.inkscape.org/namespaces/inkscape"
   xmlns:sodipodi="http://sodipodi.sourceforge.net/DTD/sodipodi-0.dtd"
   xmlns="http://www.w3.org/2000/svg"
   xmlns:svg="http://www.w3.org/2000/svg"><sodipodi:namedview
     id="namedview1"
     pagecolor="#ffffff"
     bordercolor="#666666"
     borderopacity="1.0"
     inkscape:showpageshadow="2"
     inkscape:pageopacity="0.0"
     inkscape:pagecheckerboard="0"
     inkscape:deskcolor="#d1d1d1"
     inkscape:document-units="mm"
     inkscape:zoom="1"
     inkscape:cx="83.5"
     inkscape:cy="65.5"
     inkscape:window-width="2560"
     inkscape:window-height="1296"
     inkscape:window-x="1440"
     inkscape:window-y="25"
     inkscape:window-maximized="1"
     inkscape:current-layer="layer1" /><defs
     id="defs1" /><g
     inkscape:label="Layer 1"
     inkscape:groupmode="layer"
     id="layer1"
     transform="translate(-46.932086,-34.81451)"><g
       id="g78"><path
         id="path1"
         style="opacity:1;fill:#000000;stroke-width:0.3"
         d="m 53.44325,40.099361 c -6.096793,4.84e-4 -7.682275,10.085025 -2.627699,10.547165 1.334166,1.567886 1.574065,3.691648 1.991673,5.629623 0.209472,2.800692 0.08846,5.615908 0.216235,8.421454 0.01255,3.2181 0.08368,6.440854 -0.232767,9.647458 0.02748,1.544316 -0.213111,3.132398 0.140451,4.648055 1.088323,1.466548 3.338501,0.834922 4.848283,0.540999 1.927363,-1.108909 1.855132,-3.594023 1.875884,-5.531962 0.225378,-3.718123 0.251919,-7.448465 0.124585,-11.172183 0.03864,-2.547404 -0.09434,-5.087847 -0.188747,-7.631317 -0.09056,-3.059241 0.121028,-6.129797 -0.141658,-9.180838 -0.676001,-4.114818 -3.745833,-5.840455 -6.00624,-5.918454 z m 4.276742,3.123355 c 1.356926,1.786161 1.378623,4.099007 1.320315,6.237862 -0.01839,3.374272 -6.96e-4,6.749343 0.188843,10.117729 -0.01261,4.652525 0.266426,9.312799 -0.104145,13.958321 -0.07375,1.826389 0.231744,4.110283 -1.372525,5.39657 -1.288008,0.4088 -3.235612,0.876777 -4.333064,-0.147312 -0.282506,-1.725218 -0.09424,-3.50595 -0.05202,-5.249902 0.342459,-3.57378 0.178231,-7.173028 0.148947,-10.757426 -0.167523,-3.040231 0.240947,-6.163949 -0.738159,-9.109204 -0.471468,-5.005139 -3.673088,-2.300216 -4.150038,-6.016345 -1.334908,-3.769609 3.730339,-10.859183 9.091846,-4.430293 z"
         sodipodi:nodetypes="ccccccccccccccccccccccc" /><path
         style="opacity:1;fill:#000000;stroke-width:0.3"
         id="path2"
         d="m 50.683421,46.163507 c 1.495015,0.894418 3.389566,2.469571 3.870033,4.50485 1.294618,4.144296 0.927045,8.527725 0.985877,12.805168 -0.02644,3.970398 0.05429,7.944545 -0.03995,11.912573 -0.05297,1.330036 -0.06217,2.871952 -0.1736,4.198654 0.644008,0.14692 0.678756,-4.912492 0.613781,-8.753093 -0.0345,-5.051728 0.07966,-10.106503 -0.0832,-15.156 -0.294587,-2.549503 -0.542288,-5.283547 -2.035326,-7.456788 -0.783373,-1.003159 -2.909885,-2.300567 -3.061357,-2.137473 z"
         sodipodi:nodetypes="ccccccccsc" /><path
         style="opacity:1;fill:#000000;stroke-width:0.3"
         id="path3"
         d="m 59.54909,55.257733 c 0.07764,-0.236923 0.310533,-0.619463 0.523437,-0.778668 0.309198,-0.264768 0.730408,-0.33576 1.122614,-0.378428 0.430079,-0.02694 0.784938,0.303821 0.959291,0.669859 0.197497,0.352925 0.394798,0.735536 0.364213,1.152858 -0.02415,0.510939 -0.07378,1.040469 -0.303218,1.505499 -0.188882,0.289247 -0.381118,0.594676 -0.668333,0.796283 -0.246753,0.150881 -0.542169,0.233075 -0.83025,0.170071 -0.338766,-0.04334 -0.813872,-0.228668 -1.104634,-0.41242 -0.0852,0.101867 -0.03811,0.302954 -0.123317,0.404821 0.246865,0.180434 0.548236,0.275009 0.842339,0.347179 0.37876,0.07489 0.789293,0.14135 1.151649,-0.03571 0.486511,-0.17071 0.783907,-0.620104 1.055466,-1.029993 0.286206,-0.519193 0.351346,-1.126647 0.380238,-1.709223 0.03262,-0.448111 -0.131099,-0.879084 -0.349025,-1.262175 -0.155534,-0.329018 -0.37778,-0.634907 -0.695912,-0.822655 -0.354621,-0.226687 -0.797902,-0.195325 -1.189735,-0.101331 -0.453832,0.09104 -0.912531,0.319733 -1.147871,0.735358 -0.0439,0.145978 -0.221033,0.403024 -0.130904,0.51053 0.108617,0.0408 0.03533,0.197345 0.143952,0.238145 z"
         sodipodi:nodetypes="cccccccccccccccccccc" /><path
         style="opacity:1;fill:#000000;stroke-width:0.3"
         id="path4"
         d="m 59.529924,54.339265 c 0.0049,-0.385561 0.167585,-0.856255 0.338931,-1.205173 0.26553,-0.412151 0.642172,-0.811018 1.152308,-0.879604 0.607307,-0.09786 1.291948,-0.08551 1.815651,0.274424 0.573042,0.474781 0.676544,1.27053 0.684588,1.96968 -0.0089,1.330983 0.02584,2.675902 -0.222725,3.98958 -0.106691,0.469973 -0.357309,0.912898 -0.71398,1.235952 -0.330862,0.283935 -0.76893,0.439702 -1.205086,0.37419 -0.496791,-0.03825 -0.949051,-0.297066 -1.337266,-0.59301 -0.141557,-0.148652 -0.242532,-0.415345 -0.427234,-0.176647 -0.319387,0.122904 0.116636,0.380003 0.221369,0.526064 0.544606,0.40798 1.212038,0.713963 1.907802,0.646307 0.521746,-0.02894 1.00762,-0.329218 1.340992,-0.718627 0.447032,-0.508774 0.648186,-1.175636 0.707148,-1.839502 0.148536,-1.248596 0.137695,-2.509497 0.124327,-3.764623 -0.04927,-0.733137 -0.247616,-1.52777 -0.867331,-1.991123 -0.611194,-0.413693 -1.40508,-0.447102 -2.112312,-0.326248 -0.648368,0.09741 -1.141103,0.60396 -1.45646,1.147546 -0.166357,0.396065 -0.237227,0.835423 -0.232561,1.26444 z"
         sodipodi:nodetypes="cccccccccccccccccccc" /><path
         style="opacity:1;fill:#000000;stroke-width:0.3"
         id="path5"
         d="m 51.469848,51.526945 c -0.956277,0.554855 -2.003091,0.987789 -2.841633,1.722208 -0.65636,0.695903 -1.18818,1.529626 -1.505101,2.433838 -0.343815,1.800028 -0.15342,3.644803 0.0268,5.453073 0.155987,1.017853 0.230479,2.114794 0.819037,2.99426 0.349189,0.547068 1.012658,0.77524 1.636273,0.704868 0.866811,-0.09432 1.569115,-0.667458 2.365642,-0.971248 0.35898,-0.195547 0.976225,-0.398842 1.140481,-0.663766 -0.08844,-0.126352 0.07867,-0.629465 -0.141817,-0.469041 -0.819038,0.502421 -1.847838,0.896179 -2.687977,1.360355 -0.569475,0.280301 -1.401181,0.369725 -1.824836,-0.201599 -0.5007,-0.683204 -0.583306,-1.566362 -0.711704,-2.37927 -0.172675,-1.358367 -0.288563,-2.730171 -0.262931,-4.10028 0.06323,-0.770165 0.02467,-1.593925 0.458457,-2.27231 0.437244,-0.777325 0.943674,-1.584634 1.762679,-2.006184 0.651254,-0.42148 1.35978,-0.742476 2.024329,-1.140924 l -0.257698,-0.46398 z"
         sodipodi:nodetypes="sccccccccccccccccs" /><path
         style="opacity:1;fill:#000000;stroke-width:0.3"
         id="path6"
         d="m 63.360063,45.618906 c 1.163192,-0.124857 2.338053,0.162069 3.437749,0.522388 0.790377,0.235902 0.873873,1.163964 1.094005,1.83037 0.523629,2.090117 0.451995,4.266106 0.51209,6.40314 -0.05824,1.476941 0.05388,2.97207 -0.200384,4.433642 -0.153976,0.958544 -0.816384,1.721267 -1.342354,2.502646 -0.720341,0.870601 -1.893227,1.118646 -2.943388,1.34818 -0.976881,0.09541 -1.946494,0.355873 -2.933,0.290923 -0.510649,0.153309 -1.218419,-0.693729 -1.494983,-0.07888 -0.202107,0.431053 0.919808,0.472923 1.274588,0.588435 1.089115,0.137269 2.165342,-0.173893 3.244273,-0.274485 1.269258,-0.259218 2.69036,-0.62753 3.449262,-1.777573 0.567982,-0.829479 1.198133,-1.674695 1.315764,-2.704264 0.199911,-1.562956 0.126654,-3.145906 0.166375,-4.717987 -0.07281,-2.483529 0.01947,-5.068297 -0.937634,-7.412598 -0.382753,-0.968854 -1.532569,-1.098104 -2.411024,-1.323361 -1.094555,-0.228847 -2.30997,-0.385023 -3.328134,0.195708 -0.903385,0.414133 -1.866804,0.827989 -2.441186,1.684743 -0.182975,0.316335 -1.020647,1.186984 -0.43395,1.320961 0.09155,0.0183 0.100994,-0.05725 0.192546,-0.03895 0,-0.631762 1.533016,-2.217835 3.779385,-2.793039 z"
         sodipodi:nodetypes="cccccccccccccccccccsc" /><path
         id="path7"
         style="opacity:1;fill:#000000;stroke-width:0.3"
         d="m 60.276566,47.817879 c -0.21218,0.170435 -0.423826,0.371621 -0.491163,0.645666 -0.09345,0.310732 -0.02237,0.651157 0.122068,0.934478 0.134887,0.243854 0.377289,0.420223 0.650108,0.476312 0.32323,0.07919 0.682483,0.08282 0.980631,-0.08289 0.268366,-0.135942 0.512794,-0.333909 0.662529,-0.598588 0.135866,-0.22484 0.226755,-0.501655 0.141265,-0.761574 -0.09746,-0.283753 -0.310819,-0.523019 -0.568033,-0.673425 -0.273976,-0.14868 -0.950828,-0.428684 -1.497405,0.06002 z m 0.829789,0.150964 c 0.203062,-0.004 0.398665,0.08455 0.563531,0.196631 0.153241,0.131466 0.3156,0.304832 0.305655,0.521144 -0.03491,0.19056 -0.139969,0.364695 -0.270474,0.505438 -0.171204,0.153658 -0.373775,0.292553 -0.605105,0.32936 -0.199565,0.01878 -0.406333,-0.0065 -0.591937,-0.083 -0.200513,-0.08487 -0.305754,-0.296593 -0.344548,-0.500554 -0.0603,-0.230622 0.0028,-0.496208 0.187847,-0.653492 0.325393,-0.334155 0.480464,-0.344033 0.755031,-0.315527 z"
         sodipodi:nodetypes="ccccccccccccccsscc" /><path
         id="path8"
         style="opacity:1;fill:#000000;stroke-width:0.3"
         d="m 63.948551,48.460091 c -0.222947,0.0087 -0.445996,0.0581 -0.652317,0.142857 -0.229272,0.103737 -0.393509,0.329968 -0.423103,0.579846 -0.05214,0.377743 0.08703,0.760077 0.301878,1.066679 0.205583,0.276011 0.537241,0.453828 0.882462,0.461943 0.388464,0.0089 0.797782,-0.128092 1.05486,-0.429254 0.205152,-0.248773 0.29344,-0.598203 0.192653,-0.909205 -0.05587,-0.221469 -0.119,-0.463425 -0.299797,-0.617918 -0.186418,-0.132835 -0.555405,-0.238664 -0.697246,-0.258759 -0.118891,-0.0191 -0.238871,-0.03586 -0.35939,-0.03619 z m 0.0041,0.399459 c 0.464307,0.02323 0.784292,0.09557 0.950472,0.547298 0.04267,0.142103 0.07129,0.298473 0.0066,0.43916 -0.08066,0.229477 -0.303182,0.373668 -0.530729,0.42995 -0.240537,0.06601 -0.518279,0.05091 -0.721576,-0.106142 -0.192668,-0.137451 -0.297539,-0.364211 -0.36307,-0.584982 -0.04302,-0.173017 -0.06522,-0.379692 0.05023,-0.529699 0.127389,-0.140404 0.332471,-0.150972 0.506318,-0.188666 0.03363,-0.005 0.06802,-0.0073 0.101763,-0.0069 z"
         sodipodi:nodetypes="cccccccccccccccccccc" /><path
         id="path9"
         style="opacity:1;fill:#000000;stroke-width:0.3"
         d="m 66.11121,51.25992 c -0.27329,0.0051 -0.548542,0.03124 -0.814421,0.09574 -0.284246,0.09313 -0.586094,0.219957 -0.753192,0.482977 -0.179649,0.239224 -0.232589,0.546123 -0.235981,0.838455 0.0135,0.226083 0.04091,0.455112 0.140183,0.661821 0.151103,0.35794 0.515768,0.586925 0.890268,0.647649 0.374931,0.05647 0.766985,-0.02408 1.102036,-0.197389 0.330021,-0.181619 0.574835,-0.490497 0.725149,-0.83125 0.107971,-0.318752 0.06668,-0.668329 -0.02268,-0.986333 -0.0666,-0.221614 -0.188789,-0.446288 -0.410092,-0.544332 -0.201964,-0.110594 -0.391652,-0.151509 -0.62127,-0.167337 z m -0.01033,0.399976 c 0.04516,-2.32e-4 0.511297,0.06269 0.599434,0.271807 0.109976,0.250112 0.15631,0.534045 0.113624,0.805066 -0.04188,0.169388 -0.151254,0.313853 -0.257217,0.449413 -0.256326,0.306854 -0.672825,0.430845 -1.061543,0.418279 -0.288708,-0.02256 -0.59791,-0.175874 -0.697937,-0.464195 -0.07497,-0.168029 -0.08454,-0.355264 -0.0906,-0.53632 0.01824,-0.196422 0.04762,-0.403149 0.180093,-0.559337 0.120034,-0.169412 0.329876,-0.236558 0.517046,-0.303466 0.227001,-0.05528 0.464347,-0.07203 0.697103,-0.08125 z"
         sodipodi:nodetypes="scccccccccsssccccccccss" /><path
         id="path10"
         style="opacity:1;fill:#000000;stroke-width:0.3"
         d="m 66.122579,54.597184 c -0.280536,-0.0081 -0.569334,0.02987 -0.81487,0.174711 -0.235342,0.122447 -0.443087,0.304043 -0.591352,0.524087 -0.12881,0.221312 -0.173595,0.482707 -0.183522,0.735483 0.0068,0.453315 0.248129,0.915737 0.661915,1.122576 0.308741,0.177857 0.684572,0.245059 1.032244,0.15678 0.402187,-0.101408 0.802934,-0.278725 1.088368,-0.588084 0.167101,-0.177827 0.238102,-0.429481 0.204366,-0.669478 -0.03119,-0.282722 -0.09678,-0.56727 -0.227944,-0.821306 -0.130745,-0.258334 -0.388504,-0.414798 -0.64006,-0.537061 -0.233053,-0.103141 -0.501347,-0.08235 -0.52914,-0.09771 z m -0.130225,0.399976 c 0.121667,-0.0089 0.210658,0.01832 0.328144,0.0186 0.185438,0.01857 0.342656,0.135182 0.489204,0.24081 0.196323,0.176266 0.242888,0.452479 0.295738,0.698679 0.02962,0.165464 0.05044,0.361333 -0.07939,0.492413 -0.23353,0.251381 -0.561825,0.390959 -0.888989,0.474413 -0.316891,0.08489 -0.655413,-0.02539 -0.908958,-0.220254 -0.252741,-0.228156 -0.350537,-0.599032 -0.265603,-0.925924 0.0243,-0.166199 0.102305,-0.322084 0.231401,-0.430906 0.159263,-0.15859 0.36322,-0.278897 0.583544,-0.326495 0.07077,-0.01383 0.143058,-0.01759 0.214907,-0.02134 z"
         sodipodi:nodetypes="scccccccccssscccccccccss" /><path
         id="path11"
         style="opacity:1;fill:#000000;stroke-width:0.3"
         d="m 65.01567,58.081726 c -0.259223,0.01133 -0.512859,0.08611 -0.754057,0.178173 -0.251822,0.0973 -0.464923,0.288915 -0.574167,0.537323 -0.104049,0.230557 -0.125918,0.486312 -0.167288,0.733022 -0.03762,0.315626 0.01721,0.669951 0.257842,0.89769 0.187206,0.192696 0.452717,0.280125 0.714937,0.30368 0.232652,0.02164 0.467686,0.03934 0.701156,0.02505 0.338029,-0.04634 0.640951,-0.239273 0.856405,-0.499384 0.228073,-0.254044 0.368296,-0.596482 0.348201,-0.940245 -0.03382,-0.587084 -0.520939,-1.161934 -1.253899,-1.2312 -0.04299,-0.0023 -0.08626,-0.003 -0.12913,-0.0041 z m -0.0083,0.398942 c 0.338967,-0.03438 1.097398,0.347366 0.983542,1.036149 -0.05779,0.304917 -0.271032,0.560678 -0.525091,0.728123 -0.16573,0.104329 -0.365283,0.134506 -0.557583,0.114653 -0.242717,-0.01517 -0.500838,-0.0055 -0.72295,-0.118203 -0.162729,-0.08569 -0.265701,-0.25711 -0.27337,-0.43977 -0.01498,-0.240658 0.04641,-0.477512 0.09258,-0.711645 0.04865,-0.197896 0.187229,-0.373377 0.379551,-0.447424 0.197098,-0.08373 0.410431,-0.141195 0.623317,-0.161883 z"
         sodipodi:nodetypes="scccccccccssscccccccss" /><path
         id="path12"
         style="opacity:1;fill:#000000;stroke-width:0.3"
         d="m 61.59624,60.2387 c -0.139453,-0.0015 -0.279024,0.0093 -0.415995,0.03152 -0.37331,0.07601 -0.67787,0.34458 -0.898653,0.643372 -0.176681,0.255261 -0.281145,0.553652 -0.347783,0.854728 -0.04491,0.270017 0.0047,0.553827 0.154513,0.784965 0.156014,0.271498 0.37131,0.562518 0.698665,0.626318 0.33603,0.0757 0.6889,0.0711 1.021127,-0.02119 0.425396,-0.108399 0.839147,-0.30053 1.155485,-0.610816 0.241322,-0.213941 0.436659,-0.508531 0.446484,-0.839742 0.01698,-0.357749 -0.150494,-0.700978 -0.375688,-0.96945 -0.209888,-0.231208 -0.503262,-0.370069 -0.803051,-0.441316 -0.08747,-0.007 -0.250984,-0.05289 -0.201022,0.08423 -0.02137,0.01973 -0.03999,0.04112 -0.05581,0.06408 0.01211,-0.0545 0.02457,-0.108798 0.03669,-0.163297 -0.136116,-0.0277 -0.275509,-0.0419 -0.414962,-0.04341 z m -0.04858,0.399459 c 0.120292,-2.12e-4 0.241183,0.0106 0.359152,0.0279 0.0021,-5.59e-4 0.0033,-0.0022 0.0052,-0.0031 7.3e-5,0.0012 -8.6e-5,0.0024 0,0.0036 0.186629,-0.01373 0.496372,0.110546 0.656291,0.192753 0.232697,0.158947 0.384384,0.422221 0.437699,0.695565 0.04193,0.243716 -0.07964,0.482395 -0.256315,0.643888 -0.194072,0.202178 -0.431515,0.357886 -0.692464,0.459404 -0.343769,0.136737 -0.722151,0.221991 -1.091406,0.149862 -0.167491,-0.0066 -0.302577,-0.112919 -0.396358,-0.24443 -0.145364,-0.197736 -0.290356,-0.430827 -0.247014,-0.687813 0.03741,-0.223166 0.117387,-0.441963 0.227376,-0.639754 0.148051,-0.244007 0.368641,-0.46142 0.641305,-0.558106 0.116724,-0.0282 0.236276,-0.03958 0.356567,-0.03979 z" /><path
         id="path13"
         style="opacity:1;fill:#000000;stroke-width:0.3"
         d="m 89.998124,44.83964 c -1.672312,0.07237 -3.577928,0.178859 -4.910811,1.30794 -0.744244,0.349096 -2.481696,-0.35434 -3.65456,0.175226 -2.791928,0.840222 -5.55056,1.963455 -7.984009,3.589445 -2.999914,2.306791 -5.199886,6.411839 -5.498884,10.225216 -0.234384,3.051552 -0.37483,6.109675 -0.620734,9.161643 -0.28976,5.963176 2.09625,9.98458 12.179222,10.209806 2.237502,0.02695 11.24959,-1.509748 16.504422,-6.38154 1.019015,-1.29011 1.638981,-2.799664 1.9942,-4.383739 0.803944,-2.411675 0.801826,-4.991365 0.96999,-7.501351 0.01118,-2.740914 0.20383,-5.733133 -0.32514,-8.538975 -0.381173,-1.792215 -0.847987,-3.678812 -1.611262,-5.300471 -1.621182,-2.104303 -4.554931,-2.522685 -7.042434,-2.5632 z m 5.17e-4,0.536918 c 2.299755,0.03997 4.943265,0.374003 6.524665,2.226751 0.853355,1.712665 1.280202,3.652432 1.654191,5.52991 0.466677,2.8103 0.278562,5.742865 0.24973,8.493008 -0.161712,2.532224 -0.222417,5.123283 -1.09673,7.537007 -0.339768,1.521465 -1.074414,3.020956 -2.220023,4.091189 -4.981719,4.038533 -13.198202,5.995229 -16.668275,5.694773 -6.046118,-0.485083 -11.260992,-1.805742 -10.532934,-10.279329 0.293318,-3.001651 0.462089,-6.021379 0.780843,-9.019237 0.312803,-3.608782 2.153898,-8.614879 9.896305,-11.759399 1.790432,-0.784138 3.703433,-1.420878 5.68593,-1.178881 0.673003,0.252678 0.610657,1.463276 0.101357,1.926514 -1.69156,1.666716 -4.240644,1.978115 -5.985296,3.590894 -1.864472,1.328047 -3.037448,3.34587 -3.866299,5.433361 -1.446808,2.851596 -1.784095,7.214662 0.481599,9.130752 1.377181,1.223706 3.354802,1.146661 5.082377,1.315671 3.743872,0.204006 7.337723,-1.504934 10.209196,-3.784284 2.314999,-1.901549 2.140953,-5.148928 2.005081,-7.84655 -0.222861,-2.214656 -0.949213,-4.637999 -2.955372,-5.87406 -1.027441,-0.838101 -2.576631,-0.34158 -3.556368,-1.200429 -0.627017,-0.635972 -0.37439,-1.279235 -0.49085,-2.108395 -0.07592,-1.468368 1.893073,-1.508362 2.916622,-1.792133 0.587759,-0.106983 1.189071,-0.117415 1.784251,-0.127133 z m -4.935616,3.218925 c 0.06525,-0.01781 -0.02729,0.03222 0,0 z m -0.205156,0.294039 c 0.395171,1.13605 1.542474,1.623338 2.676847,1.63711 2.092896,0.25631 3.510663,2.216228 3.901564,4.167716 0.510911,2.135222 0.52907,4.414236 0.12861,6.571175 -0.592766,2.625595 -3.243341,3.876563 -5.407939,5.019332 -6.64523,2.783641 -13.723064,1.194742 -12.121793,-5.498418 0.388539,-1.979173 1.347245,-3.791731 2.27997,-5.556767 1.458963,-2.27943 3.83248,-3.759093 6.293156,-4.754232 0.823424,-0.408938 1.639029,-0.885163 2.249585,-1.585916 z"
         sodipodi:nodetypes="ccccccccccccccccccccccccccccccccccccccccccccccc" /><path
         id="path20"
         style="opacity:1;fill:#000000;stroke-width:0.3"
         d="m 86.80297,47.570223 c -0.25552,1.091614 4.92687,0.587891 6.77323,3.817338 1.331238,2.076471 0.984679,4.66435 1.007174,7.006291 -0.06544,6.519451 -5.221553,9.935615 -9.401493,10.72751 -2.996779,0.672255 -6.096119,0.413512 -9.139494,0.341582 -6.95752,-0.511486 -5.162766,-7.015148 -3.608049,-12.512415 1.66602,-3.440421 3.998449,-6.012338 7.528223,-7.443473 1.20589,-0.481295 3.865319,-1.161819 3.57529,-1.50267 0,0 -2.601083,0.688793 -3.897756,1.206564 -2.94645,1.021559 -4.714572,2.90875 -6.410583,5.386589 -0.503236,0.853279 -1.105898,1.951844 -1.428732,2.861486 -0.03007,0.06894 -3.567802,9.976119 1.526522,11.885579 2.244319,0.78639 4.667231,0.529503 7.002157,0.620118 3.323038,0.0426 6.822753,-0.456919 9.621635,-2.371432 0.710653,-0.499083 1.463937,-1.123713 2.041219,-1.648478 2.153223,-2.122699 3.035666,-5.190905 3.000333,-8.18348 0.02462,-2.346433 0.19583,-4.97713 -1.3255,-6.945312 -1.368447,-1.971837 -3.876638,-2.434275 -6.032707,-3.06958 -0.274784,-0.06933 -0.551212,-0.13385 -0.831474,-0.176217 z"
         sodipodi:nodetypes="cccccccccccccccccccc" /><path
         style="opacity:1;fill:#000000;stroke-width:0.3"
         id="path24"
         d="m 75.346133,69.455828 c -0.589073,0.294236 -1.198136,0.696128 -1.415482,1.352844 -0.243238,0.736619 -0.13661,1.591983 0.319797,2.226119 0.646911,1.189249 1.86179,1.371432 3.113717,1.307974 1.741038,-0.178019 2.293396,-1.294741 2.341125,-1.862077 0.04584,-0.45031 -0.02968,-0.908791 -0.148655,-1.342766 -0.114895,-0.343698 -0.247852,-0.685765 -0.425376,-1.002093 -0.123812,-0.149162 -0.274389,-0.44894 -0.454807,-0.449486 -0.0575,0.108149 -0.208553,0.07598 -0.266058,0.184132 0.323133,0.253591 0.538605,0.805947 0.692674,1.170911 0.159277,0.427543 0.231638,0.891479 0.212216,1.346939 -0.02645,0.366463 -0.214454,0.701864 -0.49365,0.936873 -0.357184,0.348261 -0.835469,0.537812 -1.325619,0.595614 -0.53367,0.08006 -1.081707,0.02752 -1.608972,-0.07284 -0.777066,-0.123378 -1.182914,-0.776227 -1.521506,-1.423301 -0.202349,-0.489984 -0.220533,-1.064384 -0.02806,-1.560104 0.208006,-0.516541 0.717981,-0.806159 1.186463,-1.052751 -0.05927,-0.118661 -0.118535,-0.237323 -0.177802,-0.355984 z"
         sodipodi:nodetypes="sccccccccccccccccss" /><path
         style="opacity:1;fill:#000000;stroke-width:0.3"
         id="path25"
         d="m 82.892491,69.569972 c -0.636382,0.02368 -1.161682,0.475301 -1.513589,0.972506 -0.432932,0.664225 -0.367369,1.589476 0.122381,2.206289 0.307203,0.400727 0.730368,0.748834 1.24405,0.824349 0.451911,0.0955 0.920928,0.08896 1.370365,-0.01699 0.559062,-0.14315 1.125393,-0.416111 1.439438,-0.922987 0.274683,-0.400852 0.318682,-0.91399 0.229285,-1.381337 -0.08352,-0.531006 -0.406913,-0.991354 -0.785695,-1.358116 -0.259964,-0.240878 -0.612695,-0.362306 -0.962418,-0.387037 -0.01329,0.132174 -0.233276,0.132055 -0.246566,0.264229 0.346478,0.01549 0.890924,0.306905 1.102003,0.58572 0.267159,0.30426 0.484909,0.671316 0.516371,1.083356 0.06305,0.383882 -0.01917,0.796689 -0.275126,1.097549 -0.293348,0.367262 -0.756028,0.550071 -1.202939,0.647476 -0.471603,0.0984 -0.972651,0.0681 -1.425615,-0.09623 -0.379163,-0.183936 -0.683446,-0.513884 -0.871575,-0.888593 -0.253942,-0.536183 -0.169352,-1.228701 0.25444,-1.655718 0.258957,-0.293543 0.625725,-0.650235 1.030062,-0.675696 l -0.02487,-0.298773 z"
         sodipodi:nodetypes="sccccccccccccccccccs" /><path
         id="path26"
         style="opacity:1;fill:#000000;stroke-width:0.3"
         d="m 85.476436,52.396802 c -0.387542,0.182041 -0.754573,0.448056 -0.993691,0.807446 -0.363669,0.708901 -0.19751,1.617602 0.299024,2.220398 0.306154,0.317077 0.69311,0.561401 1.108648,0.707175 0.517053,0.1747 1.068609,0.119003 1.604236,0.131494 0.733728,0.01182 1.458433,-0.268189 2.017801,-0.737298 0.308242,-0.265889 0.598145,-0.596614 0.651667,-1.016114 0.06136,-0.446769 0.08008,-0.925014 -0.133943,-1.337863 -0.24073,-0.475167 -0.601593,-0.957928 -1.142052,-1.100249 -0.426098,-0.115833 -0.868771,-0.04774 -1.303181,-0.04887 -0.08072,-0.02001 -1.54099,0.08867 -2.108509,0.373881 z m 2.250509,0.01971 c 0.465344,0.0046 0.985432,-0.09982 1.387151,0.201307 0.329089,0.284653 0.597952,0.671731 0.67618,1.106107 0.03594,0.280176 0.01179,0.567725 -0.04806,0.842554 -0.09163,0.332355 -0.378124,0.564149 -0.63638,0.770784 -0.467314,0.338686 -1.040524,0.536177 -1.620082,0.526163 -0.576506,-0.01418 -1.191751,0.06037 -1.722542,-0.214997 -0.370333,-0.196056 -0.749805,-0.447537 -0.908817,-0.854733 -0.203018,-0.454719 -0.255152,-1.028911 0.02259,-1.463766 0.519941,-0.601858 1.330067,-0.840745 2.097161,-0.909805 0.269232,-0.0074 0.752799,-0.0036 0.752799,-0.0036 z"
         sodipodi:nodetypes="cccccccccccccccccccccc" /><path
         id="path27"
         style="opacity:1;fill:#000000;stroke-width:0.3"
         d="m 82.895715,57.229582 c -0.612774,0.02725 -1.209823,0.2353 -1.718263,0.57603 -0.412568,0.242343 -0.735254,0.694517 -0.694895,1.189894 0.008,0.55318 0.222226,1.127225 0.676453,1.466098 0.447426,0.34446 1.042709,0.427174 1.589705,0.347265 0.560014,-0.04317 1.052996,-0.348897 1.489938,-0.679548 0.427385,-0.31713 0.747312,-0.815517 0.73755,-1.361356 0.01259,-0.457946 -0.206209,-0.925045 -0.603594,-1.166972 -0.357026,-0.225833 -1.218651,-0.369096 -1.476894,-0.371415 z m 0.516691,0.475692 c 0.327658,0.08174 0.707588,0.116628 0.93765,0.395921 0.282709,0.322295 0.28997,0.824102 0.09813,1.193781 -0.222323,0.414701 -0.639744,0.671047 -1.036528,0.897538 -0.357514,0.205024 -0.782916,0.257343 -1.188348,0.238595 -0.492268,-0.01435 -0.986414,-0.290184 -1.192134,-0.748983 -0.120418,-0.283096 -0.177275,-0.601952 -0.138091,-0.908057 0.117323,-0.579994 1.31471,-1.295578 2.519321,-1.068795 z"
         sodipodi:nodetypes="scccccccsscccccccc" /><path
         id="path28"
         style="opacity:1;fill:#000000;stroke-width:0.3"
         d="m 78.518722,61.827751 c -0.816167,-0.0036 -1.612534,0.335817 -2.235492,0.851433 -0.313338,0.268057 -0.546803,0.643608 -0.6135,1.052414 -0.05281,0.496848 0.220624,0.963013 0.544194,1.3172 0.450041,0.434081 1.05643,0.717552 1.687246,0.722812 0.463422,0.03384 0.939734,-0.03997 1.36593,-0.227093 0.407699,-0.214018 0.786197,-0.506246 1.057009,-0.881551 0.316235,-0.505541 0.341257,-1.176874 0.0725,-1.708692 -0.250273,-0.540681 -0.781946,-0.923532 -1.353754,-1.059835 -0.188188,-0.01248 -0.349756,-0.07072 -0.524138,-0.06669 z m 0.706095,0.545868 c 0.42519,0.175977 0.779424,0.534837 0.901704,0.984685 0.111052,0.366883 0.05749,0.790519 -0.153468,1.112009 -0.254683,0.314535 -0.583447,0.577596 -0.952546,0.744839 -0.403336,0.155872 -0.844735,0.195967 -1.272775,0.145326 -0.512218,-0.04156 -0.995296,-0.310659 -1.336998,-0.688339 -0.2182,-0.28817 -0.435088,-0.658369 -0.31468,-1.030903 0.13191,-0.404306 0.451334,-0.709255 0.809338,-0.921301 0.35585,-0.220115 1.720658,-0.69479 2.319425,-0.346316 z"
         sodipodi:nodetypes="sccccccccssccccccccc" /><path
         id="path29"
         style="opacity:1;fill:#000000;stroke-width:0.3"
         d="m 88.742387,68.171549 c -0.135085,0.02026 -0.354184,-0.0024 -0.413074,0.102667 -0.406664,0.191726 -0.753237,0.493221 -1.061152,0.81658 -0.269436,0.299884 -0.450969,0.679646 -0.481653,1.084322 -0.06503,0.515078 0.02921,1.063094 0.337426,1.489689 0.214935,0.315028 0.558716,0.52613 0.932518,0.592229 0.459624,0.08991 0.947066,0.103896 1.391959,-0.06275 0.767654,-0.234123 1.482366,-0.752821 1.805711,-1.505046 0.177325,-0.437 0.249164,-0.969892 -0.01914,-1.387281 C 90.98405,68.830604 90.491528,68.566988 90.006544,68.39527 89.691965,68.280865 89.366866,68.18759 89.029343,68.1834 88.933763,68.178 88.838071,68.1741 88.742384,68.17155 Z m -0.01189,0.398426 c 0.337031,0.007 0.679281,0.02576 0.996019,0.151887 0.433305,0.145887 0.908755,0.332383 1.145861,0.751731 0.187399,0.259447 0.160509,0.596976 0.07444,0.887993 -0.21956,0.712324 -0.867878,1.205331 -1.554661,1.429117 -0.300281,0.111585 -0.622033,0.161931 -0.941122,0.118867 -0.343635,-0.02379 -0.716483,-0.111422 -0.93981,-0.396243 -0.38058,-0.454453 -0.412522,-1.102182 -0.254539,-1.651465 0.182288,-0.481104 0.60313,-0.812571 1.009901,-1.099897 0.142817,-0.08414 0.294656,-0.182296 0.463911,-0.19199 z" /><path
         id="path30"
         style="opacity:1;fill:#000000;stroke-width:0.3"
         d="m 94.339978,48.594981 c 1.437813,0.970511 2.236767,2.590193 2.517671,4.262789 0.0786,0.975343 0.345691,2.269239 0.25117,3.381754 0.122462,4.111863 0.100121,6.934864 -1.14515,10.797276 -4.565908,13.403918 -24.610226,10.858022 -23.643464,4.649256 0.767643,-1.610447 2.398812,-2.157658 1.463479,-2.381769 -9.801545,7.234702 18.071867,14.745644 22.919033,-3.291232 1.039054,-3.366873 0.662776,-5.876938 0.807777,-8.812382 2.33e-4,-2.621235 -0.0016,-5.475994 -1.617584,-7.678584 -1.372485,-1.555637 -2.20068,-1.998185 -5.236373,-3.248901 -3.446454,-0.553327 1.607131,0.836803 3.683441,2.321793 z"
         sodipodi:nodetypes="ccccccccccc" /><path
         style="opacity:1;fill:#000000;stroke-width:0.3"
         id="path33"
         d="m 75.10152,48.880572 c -1.568968,-0.261421 -3.042094,-1.044588 -4.079256,-2.211765 -0.893789,-1.325294 -0.467832,-3.215053 0.496371,-4.386535 1.610494,-1.580631 3.803238,-2.357186 5.840019,-3.229941 3.057509,-1.261043 6.339203,-1.862425 9.632502,-2.030024 3.287119,-0.200325 6.653431,-0.528662 9.877408,0.35048 1.896047,0.425913 2.924594,2.911686 1.784002,4.516702 -0.766299,1.295499 -1.768341,2.651905 -3.150873,3.32622 -1.528563,0.781282 -1.055536,1.216424 -0.134259,0.54883 1.253882,-0.63892 2.502442,-1.845209 3.232029,-3.049269 0.762742,-0.990302 1.237605,-2.330087 0.718623,-3.541497 -0.418669,-1.447079 -1.877123,-2.231143 -3.282858,-2.416578 -3.316866,-0.678698 -6.714169,-0.288101 -10.057552,-0.08205 -4.30056,0.23246 -8.460865,1.606471 -12.271348,3.563775 -1.470175,0.758326 -3.027987,1.794829 -3.405983,3.527186 -0.371912,1.307709 -0.173087,2.896703 0.97844,3.761675 1.056129,0.890689 2.321616,1.668662 3.73644,1.741224 0.02876,-0.129478 0.241925,-0.362502 0.111095,-0.384301 z"
         sodipodi:nodetypes="sccccccccccccccccss" /><path
         style="opacity:1;fill:#000000;stroke-width:0.3"
         id="path34"
         d="m 73.205903,50.107053 c -1.418172,-0.517395 -2.699208,-1.144034 -3.870511,-2.129637 -2.528841,-3.615187 0.412486,-7.337541 3.845167,-9.217209 7.547321,-3.138006 23.602998,-5.171674 26.928581,-1.566566 1.01118,1.226583 1.7978,2.835588 1.23416,4.430266 -0.4669,1.602131 -1.11299,3.290186 -2.67216,4.119106 -0.495934,0.289635 -3.038279,1.048442 -2.259096,1.565417 1.233824,-0.592309 3.162528,-1.006702 3.965706,-2.254677 4.4846,-6.95439 -1.451706,-9.462626 -2.313493,-9.669006 -4.746615,-1.482162 -20.393698,-0.01057 -26.600697,3.665528 -2.533329,1.829281 -3.203691,3.359634 -3.682183,5.508768 -0.434714,3.633469 1.906797,5.070711 5.28496,5.920571 0.04652,-0.124187 0.09304,-0.248374 0.139566,-0.372561 z"
         sodipodi:nodetypes="ccccccccccccc" /><path
         style="opacity:1;fill:#000000;stroke-width:0.3"
         id="path35"
         d="m 75.470085,42.044914 c -0.463068,0.763516 -0.809898,1.618949 -0.897495,2.512868 -0.04265,1.18715 0.04789,2.448248 0.69319,3.480565 0.155951,0.183322 0.40937,0.533261 0.610852,0.512296 0.06424,-0.09448 0.257107,-0.08957 0.321349,-0.184052 -0.313083,-0.210776 -0.683475,-0.610628 -0.816591,-0.964849 -0.3968,-0.887978 -0.433651,-1.88677 -0.400498,-2.844374 0.09412,-0.867794 0.445624,-1.696401 0.916659,-2.425543 0.531919,-0.821485 1.613068,-1.341271 2.281803,-1.731592 -0.1635,-0.287869 -2.135879,0.682387 -2.709269,1.644681 z"
         sodipodi:nodetypes="cccccccccc" /><path
         style="opacity:1;fill:#000000;stroke-width:0.3"
         id="path38"
         d="m 79.632966,40.853092 c -0.801334,0.78854 -1.162716,1.895065 -1.437509,2.957103 -0.260854,1.141055 -0.451336,2.361949 -0.08478,3.502371 0.02401,0.218619 0.122045,0.305245 0.302599,0.174476 0.278685,-0.02937 0.05146,-0.268974 0.03597,-0.441 -0.290366,-1.079194 -0.07462,-2.208604 0.17499,-3.272883 0.277884,-1.012248 0.630379,-2.08092 1.456441,-2.784914 0.426422,-0.351324 1.036029,-0.740767 1.383051,-0.916435 -0.175203,-0.252788 -1.322386,0.327948 -1.830762,0.781282 z"
         sodipodi:nodetypes="ccccccccc" /><path
         style="opacity:1;fill:#000000;stroke-width:0.3"
         id="path39"
         d="m 85.687846,39.309407 c -0.525438,0.08456 -0.964369,0.425683 -1.379926,0.736582 -0.614412,0.525788 -1.11732,1.165219 -1.64602,1.773496 -0.397059,0.494418 -0.778763,1.024121 -0.939676,1.647652 -0.283171,0.909076 -0.236611,1.919754 0.16818,2.785262 0.02434,0.181019 0.190543,-0.0024 0.292762,-0.02198 0.245501,-0.0603 -0.07471,-0.33526 -0.06891,-0.500149 -0.316778,-0.932629 -0.178903,-1.989407 0.286204,-2.847396 1.510338,-2.462878 3.290891,-2.911858 3.287386,-3.573467 z"
         sodipodi:nodetypes="scccccccs" /><path
         style="opacity:1;fill:#000000;stroke-width:0.3"
         id="path40"
         d="m 87.276771,40.66196 c -0.743933,0.65218 -1.367815,1.531575 -1.453334,2.543342 -0.06224,0.786731 0.242954,1.551194 0.654238,2.207116 0.113261,-0.06939 0.2844,-0.0809 0.397661,-0.150286 -0.41378,-0.65906 -0.781278,-1.513169 -0.611709,-2.299722 0.174376,-0.852211 0.756151,-1.553505 1.404979,-2.102337 0.687239,-0.626618 1.780681,-1.120307 2.410042,-1.345762 -0.167683,-0.419258 -2.045064,0.43329 -2.801877,1.147649 z"
         sodipodi:nodetypes="cccccccc" /><path
         style="opacity:1;fill:#000000;stroke-width:0.3"
         id="path41"
         d="m 91.544502,40.584236 c -0.426709,0.35997 -0.814903,0.766177 -1.166244,1.199193 -0.235054,0.383493 -0.415004,0.802256 -0.550504,1.230898 -0.161225,0.567531 -0.277053,1.193346 -0.08083,1.766899 0.02421,0.160392 0.12284,0.201564 0.264499,0.157044 0.07656,-0.02381 0.194316,0.01305 0.240563,-0.06024 -0.140835,-0.209006 -0.218249,-0.454682 -0.205975,-0.709443 -0.0015,-0.750836 0.283882,-1.470707 0.640203,-2.120089 0.260888,-0.337878 0.564093,-0.643936 0.873922,-0.937435 0.658256,-0.578063 1.368331,-1.117532 2.17097,-1.478722 -0.481634,-0.370615 -1.824636,0.677529 -2.186604,0.951895 z"
         sodipodi:nodetypes="ccccccccccc" /><path
         style="opacity:1;fill:#000000;stroke-width:0.3"
         id="path42"
         d="m 94.377326,42.046745 c -0.701825,0.424317 -1.407619,0.89601 -1.882066,1.580301 -0.293368,0.414015 -0.463476,0.914886 -0.464848,1.423446 0.132765,0.0051 0.26553,0.01019 0.398295,0.01529 -0.0054,-0.540294 0.234394,-1.054419 0.588074,-1.453493 0.452877,-0.526171 1.048377,-0.901898 1.639924,-1.253385 0.677645,-0.372123 1.37804,-0.706442 2.104072,-0.973407 -0.101929,-0.292757 -1.668253,0.258188 -2.383451,0.661248 z"
         sodipodi:nodetypes="cccccccc" /></g><g
       id="g77"><path
         id="path43"
         style="opacity:1;fill:#000000;stroke-width:0.3"
         d="m 129.92127,53.046891 c -2.26116,-0.04107 -4.51955,0.04691 -6.7753,0.133299 -1.54984,-0.03416 -3.40327,0.160439 -5.06377,0.21615 -3.52238,0.51445 -6.92584,1.937595 -9.74862,4.11092 -2.76676,1.821179 -4.08962,5.0265 -4.76517,8.146964 -0.74811,2.694711 -0.72307,5.573931 0.25273,8.206497 0.84511,2.786649 1.72221,6.228735 4.72788,7.411434 3.03389,1.322959 6.43336,0.717167 9.64179,0.881096 5.03083,-0.02873 10.10137,0.234703 15.0766,-0.683747 4.27991,-0.661186 8.66147,-0.944805 12.82144,-2.199332 1.98038,-0.59765 2.88672,-3.249005 1.46811,-4.834878 -0.22898,-0.90867 -3.24974,-1.700127 -1.10483,-1.548749 1.88018,-0.152608 4.40255,-0.145575 5.44877,-2.006604 0.74419,-1.627025 -0.76445,-3.099503 -2.2175,-3.557922 -1.01808,-0.443188 -2.54608,-0.301185 -0.59325,-0.768422 2.18304,-0.313138 4.31857,-2.816551 2.24898,-4.665865 -0.57654,-0.820733 -3.04212,-0.807621 -2.86701,-1.196302 1.65389,-0.465187 1.22886,-2.586702 0.10644,-3.38274 -2.31971,-1.446137 -5.2557,-1.642934 -7.92368,-1.352182 -1.31784,0.05559 -3.85208,1.242633 -4.60193,0.505751 0.37964,-1.646149 -1.54006,-2.679543 -2.85058,-3.103689 -1.05252,-0.369016 -2.18559,-0.30395 -3.2811,-0.311679 z m 0.7183,0.533301 c 1.81108,-0.06357 4.07575,0.449208 4.93565,2.215401 0.0196,1.574909 -2.02809,2.005148 -3.27526,2.161106 -0.7685,0.399328 -3.57759,-0.282119 -2.97239,0.764824 2.13101,-0.152091 4.63268,0.0035 6.29319,-1.566859 2.10352,0.361692 4.3236,-0.822384 6.5164,-0.78492 2.07723,-0.0018 4.30134,0.235057 6.09575,1.344059 0.82183,0.582005 1.31623,2.200351 -0.0144,2.509921 -2.72637,0.994467 -5.70388,0.456475 -8.54418,0.67385 -2.30377,0.03379 -4.67803,0.06747 -6.84821,0.93637 0.51591,1.121246 2.57697,-0.699837 3.72434,-0.282685 3.34909,-0.248899 6.72023,-0.0313 10.0645,-0.33588 1.47269,0.237429 3.90198,0.06138 4.84368,1.700148 0.96509,2.221981 -2.01903,2.948563 -3.55484,3.457675 -2.55441,0.61861 -5.23708,0.33546 -7.84138,0.26818 -2.11583,-0.156461 -4.21439,0.353678 -6.33812,0.23828 -0.94165,1.001145 2.27093,0.361585 2.97449,0.44446 2.79992,-0.43669 5.62375,0.128152 8.44238,-0.06723 1.48418,0.379768 3.78664,-0.159184 5.28598,1.037103 1.26563,0.531124 1.55068,2.439061 0.30432,3.157946 -2.89693,1.356525 -6.20278,0.791922 -9.29865,0.971981 -2.41427,0.0038 -4.89781,0.0044 -7.34161,0.0037 0.31463,1.275619 3.04203,0.139937 4.23902,0.533301 1.81922,-0.0018 3.6013,-0.0013 5.4218,-0.0217 1.22353,0.255868 2.89375,0.852155 3.59714,2.141474 0.56517,0.843983 0.41525,1.795657 -0.0386,2.605995 -1.14806,1.591731 -3.39797,1.497289 -5.11543,1.954395 -4.50564,0.710219 -9.02509,1.360714 -13.55801,1.86058 -5.42705,0.213777 -10.86403,0.108338 -16.29345,0.04927 -2.58529,-0.0164 -5.46012,-1.117806 -6.50538,-3.670948 -1.05642,-2.341704 -1.83063,-4.844581 -2.24442,-7.381063 -0.11186,-3.473362 0.81761,-7.012338 2.52437,-10.028845 1.61456,-2.191364 3.99053,-3.725272 6.41873,-4.874121 2.61429,-1.169869 5.43013,-1.913638 8.31216,-1.790632 1.60593,-0.237216 3.01547,-0.0087 4.62711,-0.197959 1.72081,-0.03805 3.44235,-0.02081 5.16339,-0.02713 z" /><path
         style="opacity:1;fill:#000000;stroke-width:0.3"
         id="path50"
         d="m 128.78891,53.227602 c -0.55282,0.34275 -0.82578,1.075492 -0.60037,1.691341 0.11921,0.447018 0.47072,0.807849 0.90518,0.959662 0.43099,0.17271 0.90771,0.181248 1.36569,0.192641 0.67162,-0.01927 1.34079,-0.104442 1.99317,-0.265867 0.72065,-0.16286 1.43988,-0.356949 2.10949,-0.675146 0.12425,-0.08556 0.44201,-0.09334 0.2901,-0.290629 -0.0504,-0.06034 -0.0454,-0.253637 -0.13712,-0.214709 -0.47589,0.223471 -0.96129,0.426775 -1.46834,0.569296 -0.55828,0.148677 -1.12082,0.291315 -1.69194,0.381568 -0.72263,0.100659 -1.4707,0.156127 -2.1865,-0.01917 -0.32963,-0.101778 -0.65343,-0.312719 -0.76443,-0.655997 -0.17417,-0.384558 -0.1031,-0.866269 0.19787,-1.167456 0.12141,-0.11279 0.29034,-0.183758 0.11596,-0.325611 -0.0429,-0.05997 -0.0858,-0.119946 -0.12876,-0.179919 z" /><path
         style="opacity:1;fill:#000000;stroke-width:0.3"
         id="path51"
         d="m 135.85651,67.876512 c 0.26523,0.309056 0.50273,0.643071 0.67981,1.010804 0.16107,0.317814 0.24601,0.670804 0.28566,1.023216 0.0175,0.327266 -0.0152,0.666144 -0.16506,0.962353 -0.0988,0.227049 -0.21439,0.44714 -0.34738,0.656136 0.11413,0.06797 0.22827,0.135938 0.3424,0.203907 0.20124,-0.322144 0.37496,-0.664383 0.4949,-1.025171 0.10343,-0.409164 0.10696,-0.844018 0.005,-1.253897 -0.0678,-0.342461 -0.20287,-0.666851 -0.37529,-0.969271 -0.16949,-0.3131 -0.3874,-0.596552 -0.61759,-0.867038 -0.1007,0.08632 -0.2014,0.172641 -0.3021,0.258961 z" /><path
         style="opacity:1;fill:#000000;stroke-width:0.3"
         id="path52"
         d="m 138.38046,67.819584 c 0.25779,0.279088 0.48758,0.60039 0.56939,0.978096 0.0812,0.380069 0.11355,0.774454 0.0639,1.160992 -0.0666,0.391845 -0.20354,0.776486 -0.42608,1.107402 -0.0838,0.06453 -0.0571,0.113064 0.021,0.157255 0.0746,0.05975 0.14919,0.119503 0.22379,0.179254 0.22697,-0.283631 0.37584,-0.623403 0.48082,-0.968818 0.0929,-0.300567 0.1347,-0.615374 0.1209,-0.929729 -0.005,-0.31284 -0.0448,-0.627479 -0.13132,-0.928615 -0.11375,-0.397263 -0.3614,-0.739389 -0.64115,-1.037146 -0.0937,0.09377 -0.18749,0.187539 -0.28124,0.281309 z" /><path
         style="opacity:1;fill:#000000;stroke-width:0.3"
         id="path53"
         d="m 144.66431,68.216459 c 0.16403,0.170037 0.29947,0.37222 0.36291,0.601693 0.0903,0.257308 0.15437,0.52685 0.166,0.799823 -4.8e-4,0.220616 -0.10803,0.421007 -0.22798,0.599441 -0.0737,0.111839 -0.15648,0.217603 -0.23863,0.32338 0.10429,0.08252 0.20858,0.165049 0.31287,0.247573 0.18872,-0.243499 0.38265,-0.493303 0.48578,-0.787053 0.0783,-0.217479 0.0809,-0.453535 0.0392,-0.678871 -0.0456,-0.300494 -0.13284,-0.594561 -0.25141,-0.874033 -0.0925,-0.190179 -0.22001,-0.362342 -0.36767,-0.51326 -0.0937,0.09377 -0.18739,0.187538 -0.28108,0.281307 z" /><path
         style="opacity:1;fill:#000000;stroke-width:0.3"
         id="path54"
         d="m 146.73978,68.102543 c 0.16963,0.275978 0.29487,0.581895 0.33872,0.904272 0.0465,0.324777 0.0887,0.65646 0.0343,0.982953 -0.0486,0.22464 -0.13904,0.443453 -0.29558,0.615007 -0.0477,0.05504 -0.13216,0.110486 -0.0377,0.156988 0.08,0.07205 0.16001,0.144091 0.24002,0.216136 0.18934,-0.199358 0.35157,-0.431556 0.4268,-0.698916 0.0855,-0.23474 0.0939,-0.487384 0.091,-0.734425 -0.0306,-0.420896 -0.0728,-0.850495 -0.24421,-1.241144 -0.0539,-0.132038 -0.12285,-0.257367 -0.19727,-0.378812 -0.11872,0.05931 -0.23744,0.118627 -0.35616,0.177941 z" /><path
         style="opacity:1;fill:#000000;stroke-width:0.3"
         id="path55"
         d="m 134.62328,62.406032 c 0.18057,0.132852 0.34765,0.285431 0.47349,0.472261 0.14392,0.200061 0.23198,0.434085 0.27457,0.675897 0.0755,0.398375 0.12796,0.807524 0.0819,1.212651 -0.044,0.236211 -0.1807,0.440837 -0.32241,0.629714 0.10587,0.08044 0.21173,0.160884 0.3176,0.241326 0.2241,-0.289519 0.41526,-0.631573 0.41757,-1.007447 0.0202,-0.411074 -0.0326,-0.822335 -0.11641,-1.224163 -0.0861,-0.445474 -0.33613,-0.851061 -0.67423,-1.150076 -0.0747,-0.02855 -0.16781,-0.212612 -0.23139,-0.10682 -0.0736,0.08555 -0.14715,0.171105 -0.22072,0.256657 z" /><path
         style="opacity:1;fill:#000000;stroke-width:0.3"
         id="path56"
         d="m 137.03437,62.372549 c 0.21127,0.32022 0.37502,0.673676 0.47504,1.044283 0.0507,0.231151 0.0871,0.467584 0.0901,0.704289 -0.002,0.264607 -0.0547,0.530029 -0.15112,0.776354 -0.0531,0.123018 -0.11271,0.243808 -0.1884,0.354688 0.1114,0.07252 0.22279,0.145044 0.33419,0.217566 0.1942,-0.290117 0.32056,-0.623032 0.37165,-0.968155 0.0657,-0.340151 0.0234,-0.688611 -0.0362,-1.026272 -0.0694,-0.368748 -0.21795,-0.718592 -0.39544,-1.047494 -0.0576,-0.09139 -0.11326,-0.227391 -0.18763,-0.278441 -0.10406,0.07439 -0.20813,0.148788 -0.31219,0.223182 z" /><path
         style="opacity:1;fill:#000000;stroke-width:0.3"
         id="path57"
         d="m 146.38886,62.370146 c 0.0671,0.227193 0.11728,0.461865 0.12534,0.699099 0.005,0.232705 -0.003,0.466048 -0.0425,0.695813 -0.0327,0.221891 -0.0736,0.44458 -0.16309,0.65163 -0.0888,0.200978 -0.20607,0.38851 -0.3303,0.56932 0.11084,0.07345 0.22169,0.146891 0.33253,0.220337 0.14833,-0.218458 0.29124,-0.444426 0.38735,-0.691361 0.12266,-0.303027 0.16142,-0.630727 0.20245,-0.952535 0.0164,-0.217672 0.0195,-0.437163 0.003,-0.654851 -0.025,-0.210822 -0.0611,-0.421566 -0.12718,-0.623767 -0.12929,0.02877 -0.25857,0.05754 -0.38786,0.08631 z" /><path
         style="opacity:1;fill:#000000;stroke-width:0.3"
         id="path58"
         d="m 132.20572,59.065257 c 0.1429,0.202804 0.2824,0.408569 0.41025,0.621217 0.0841,0.15745 0.15304,0.32228 0.20632,0.492646 0.0873,0.242997 0.13844,0.499393 0.1543,0.756635 -0.005,0.05653 -0.0163,0.111018 0.0558,0.100508 0.11172,0.01372 0.22343,0.02745 0.33515,0.04117 0.0243,-0.215059 -0.0186,-0.430359 -0.0582,-0.640964 -0.048,-0.227971 -0.12738,-0.447945 -0.21045,-0.665031 -0.0757,-0.175612 -0.16439,-0.345503 -0.2733,-0.502939 -0.0964,-0.146359 -0.19199,-0.29351 -0.29613,-0.434487 -0.10793,0.07708 -0.21587,0.154165 -0.3238,0.231248 z" /><path
         style="opacity:1;fill:#000000;stroke-width:0.3"
         id="path59"
         d="m 134.47785,58.493022 c 0.18953,0.17615 0.33928,0.402434 0.3954,0.657414 0.0425,0.177733 0.079,0.360972 0.0543,0.54431 -0.0147,0.182973 -0.0306,0.367128 -0.0822,0.544165 -0.0276,0.0596 -0.0246,0.101183 0.0445,0.09997 0.10825,0.02356 0.21651,0.04711 0.32476,0.07067 0.0487,-0.186189 0.0889,-0.375434 0.0999,-0.568048 0.0222,-0.192406 0.0309,-0.388475 -0.01,-0.579171 -0.0454,-0.268026 -0.12752,-0.535724 -0.29089,-0.756734 -0.073,-0.10733 -0.15855,-0.206297 -0.25434,-0.29388 -0.0938,0.09377 -0.18766,0.18754 -0.28149,0.28131 z" /><path
         style="opacity:1;fill:#000000;stroke-width:0.3"
         id="path60"
         d="m 142.33066,57.086618 c 0.1297,0.196761 0.26628,0.389846 0.36788,0.603451 0.11951,0.234448 0.22795,0.477957 0.2704,0.739629 0.0563,0.326259 0.10791,0.655776 0.1,0.9879 0.0148,0.101403 -0.0251,0.248795 0.01,0.319937 0.12638,0.01019 0.25277,0.02038 0.37915,0.03057 0.0208,-0.23481 0.0107,-0.471347 0.002,-0.706501 -0.0503,-0.454509 -0.0973,-0.922318 -0.30125,-1.338644 -0.12656,-0.280769 -0.27949,-0.549025 -0.45848,-0.79966 -0.0278,-0.07343 -0.0665,-0.08286 -0.11615,-0.02655 -0.0843,0.06329 -0.16858,0.126581 -0.25287,0.189871 z" /><path
         style="opacity:1;fill:#000000;stroke-width:0.3"
         id="path61"
         d="m 103.78332,71.684469 c -0.018,-0.876608 0.56674,-1.668116 1.20884,-2.209766 1.36289,-0.97187 2.9707,-1.544691 4.62158,-1.775184 2.09084,-0.344685 4.30191,-0.255694 6.2962,0.499761 1.29064,0.562218 2.51234,1.574292 2.83271,3.00726 0.39224,1.387734 0.39728,2.939228 -0.33172,4.22142 -1.2039,2.168931 -3.22866,3.745713 -5.34581,4.963425 -0.99395,0.493787 -2.11843,0.533585 -3.17516,0.81039 0.0207,0.654442 0.65453,0.18128 1.05576,0.181012 1.27356,-0.137179 2.49547,-0.609409 3.51897,-1.381737 1.86178,-1.232903 3.60974,-2.813903 4.53344,-4.885667 0.68293,-1.569369 0.46549,-3.416027 -0.22058,-4.944244 -0.78497,-1.484302 -2.38622,-2.382424 -3.98077,-2.744543 -2.18829,-0.503137 -4.47656,-0.387448 -6.64511,0.155693 -1.33048,0.343452 -2.62199,0.943123 -3.68973,1.813607 -0.57101,0.625506 -1.11663,1.403312 -1.07686,2.288503 0.13275,2.3e-5 0.26549,4.7e-5 0.39824,7e-5 z" /><path
         id="path62"
         style="opacity:1;fill:#000000;stroke-width:0.3"
         d="m 110.74466,71.883468 c -0.3898,-0.01363 -0.7917,0.03563 -1.13585,0.23203 -0.38045,0.200356 -0.65573,0.570071 -0.78237,0.976207 -0.1,0.420003 0.0113,0.895171 0.32056,1.203471 0.23129,0.243589 0.52953,0.411618 0.82675,0.56144 0.28642,0.124655 0.60554,0.17695 0.91693,0.162069 0.52063,-0.06029 1.04985,-0.239913 1.42822,-0.61649 0.17697,-0.15617 0.31323,-0.358625 0.36315,-0.591591 0.0577,-0.233428 0.0441,-0.482902 -0.008,-0.716398 -0.22758,-0.513887 -0.59871,-0.942403 -1.14389,-1.103737 -0.25877,-0.05368 -0.52088,-0.101393 -0.78575,-0.107001 z m -0.0165,0.399975 c 0.30124,0.01144 0.60228,0.06271 0.89169,0.146202 0.4362,0.274269 0.69965,0.690494 0.6952,1.199388 -0.0264,0.194199 -0.12662,0.369988 -0.27951,0.492519 -0.31337,0.309659 -0.75273,0.446669 -1.18039,0.500278 -0.32992,0.0097 -0.66679,-0.06786 -0.94492,-0.250223 -0.28009,-0.166223 -0.59048,-0.36679 -0.67926,-0.701177 -0.0744,-0.233715 -0.0514,-0.495968 0.0809,-0.704307 0.15538,-0.314683 0.45996,-0.53594 0.79587,-0.624766 0.20033,-0.05891 0.41597,-0.05915 0.62039,-0.05791 z"
         sodipodi:nodetypes="ccccccccccccsccccccccss" /><path
         style="opacity:1;fill:#000000;stroke-width:0.3"
         id="path63"
         d="m 111.84922,55.740831 c -1.58795,-1.269896 -1.67956,-3.534759 -1.65355,-5.407985 0.058,-2.433116 2.25758,-4.156935 4.4167,-4.805479 2.71103,-0.946894 5.51232,-1.606602 8.28121,-2.358988 4.09148,-0.875161 8.25798,-1.405462 12.44502,-1.4553 3.26298,-0.03244 6.57513,-0.207739 9.79713,0.409622 2.59664,0.516326 4.98444,2.953128 4.68552,5.712711 -0.34194,1.855281 -1.42057,3.461987 -2.8305,4.680799 -1.22595,1.272512 -2.51169,2.572714 -4.17778,3.252181 0.63818,0.823629 2.11405,-0.953912 2.84643,-1.386881 1.5582,-1.594952 3.50103,-3.017774 4.1942,-5.236824 1.27764,-2.735478 -0.71513,-5.944733 -3.32531,-6.972768 -2.57231,-1.051456 -5.43687,-0.824887 -8.15751,-0.909691 -4.38011,-0.0067 -8.77553,0.195665 -13.08621,1.021951 -3.19283,0.506737 -6.27097,1.534549 -9.38183,2.381117 -2.08265,0.61824 -4.29651,1.470081 -5.46715,3.430813 -1.06075,1.944355 -0.72178,4.365375 -0.0452,6.382366 0.21129,0.395523 0.98622,2.056592 1.45878,1.262356 z" /><path
         style="opacity:1;fill:#000000;stroke-width:0.3"
         id="path64"
         d="m 109.40183,56.07156 c -2.13204,-2.798007 -2.33043,-6.867192 -0.75924,-9.965472 1.16385,-1.929752 3.22025,-3.088305 5.38575,-3.52612 3.48115,-0.931506 7.07493,-1.369918 10.63284,-1.904229 6.29178,-0.551352 12.61463,-1.00645 18.93188,-0.684522 3.49652,0.271584 7.36127,1.974448 8.6834,5.457962 1.02645,2.260058 0.61772,5.174414 -1.3861,6.775101 -1.59659,1.656111 -3.68583,2.654769 -5.62285,3.837207 -1.01678,1.282136 6.92189,-2.828678 7.83722,-6.724358 0.62197,-3.377698 -1.41888,-6.901203 -4.48344,-8.343804 -3.68118,-1.990966 -7.97898,-1.422766 -11.99738,-1.481526 -4.41956,0.125645 -8.8407,0.426988 -13.23348,0.921276 -4.07289,0.707266 -8.2874,1.042933 -12.12766,2.671508 -2.18602,1.179246 -3.74497,3.401583 -3.93901,5.896573 -0.3689,2.549698 0.17077,5.313797 1.79733,7.351794 0.0936,-0.0938 0.18716,-0.187593 0.28074,-0.28139 z"
         sodipodi:nodetypes="cccccccccccccccc" /><path
         style="opacity:1;fill:#000000;stroke-width:0.3"
         id="path65"
         d="m 108.98364,56.14799 c 0.0172,0.02543 0.0355,0.05007 0.054,0.07457 0.0174,0.02585 0.0356,0.05117 0.0544,0.07595 0.0209,0.02946 0.0431,0.05754 0.0677,0.08398 0.0184,0.01841 0.0351,0.03823 0.0529,0.05724 0.0215,0.02185 0.0438,0.04283 0.0662,0.06378 0.0195,0.01783 0.0383,0.03632 0.0583,0.05364 0.017,0.01376 0.034,0.02745 0.0502,0.04213 0.0209,0.01908 0.0425,0.03739 0.0647,0.055 0.0253,0.01937 0.0525,0.03608 0.0797,0.05256 0.0154,0.01006 0.0305,0.02027 0.0452,0.03134 0.0182,0.01339 0.036,0.02713 0.0541,0.04063 0,0 0.23491,-0.321482 0.23491,-0.321482 v 0 c -0.0169,-0.01296 -0.0326,-0.02405 -0.049,-0.03691 -0.0232,-0.01754 -0.0472,-0.03374 -0.0715,-0.04969 -0.0153,-0.0095 -0.0308,-0.01873 -0.0459,-0.02855 -0.0162,-0.01278 -0.0319,-0.02593 -0.047,-0.03999 -0.018,-0.0159 -0.0371,-0.03213 -0.0544,-0.0458 -0.0171,-0.0149 -0.033,-0.03093 -0.0498,-0.04618 -0.0157,-0.01299 -0.0296,-0.02845 -0.0445,-0.04233 -0.0197,-0.02111 -0.0383,-0.04321 -0.0589,-0.06357 -0.003,-0.0038 -0.0291,-0.03772 -0.0382,-0.05037 -0.0189,-0.02204 -0.0328,-0.04818 -0.0507,-0.07107 -0.0164,-0.02191 -0.0327,-0.04395 -0.0488,-0.06612 z" /><path
         id="path66"
         style="opacity:1;fill:#000000;stroke-width:0.3"
         d="m 111.14823,40.423604 c -10.07908,3.653173 -8.05635,16.111664 -3.63804,18.026552 0.97007,-0.616844 -1.73539,-1.950476 -2.1961,-3.692514 -0.27799,-0.703063 -3.16291,-8.557492 4.78314,-13.076491 1.3855,-0.550146 9.79887,-3.715568 21.71082,-4.323771 23.68329,-3.804223 29.26186,9.927465 19.42586,17.823724 -1.87122,1.418835 -3.87053,1.955685 -2.79431,2.468144 1.20194,-0.383293 2.84227,-1.600729 3.90998,-2.45729 8.14268,-7.646999 5.8263,-19.258639 -14.46037,-19.160099 0,0 -13.67793,0.36107 -26.74098,4.391745 z"
         sodipodi:nodetypes="cccccccccc" /><path
         style="opacity:1;fill:#000000;stroke-width:0.3"
         id="path68"
         d="m 117.42842,44.649003 c 1.55395,-0.117624 3.11427,-0.145667 4.67219,-0.114849 1.30842,0.06257 2.61714,0.427693 3.73522,1.116649 0.94241,0.696457 1.22419,1.91548 1.34271,3.018066 0.11408,0.961672 0.0292,2.017493 -0.60718,2.795266 -0.44092,0.580556 -0.95553,1.10306 -1.49664,1.590198 0.16273,0.209688 0.32797,0.409884 0.51373,0.07026 0.82189,-0.813151 1.75067,-1.678966 1.95812,-2.873325 0.17217,-1.090635 0.0198,-2.22005 -0.31013,-3.267047 -0.28445,-0.828755 -0.84893,-1.59553 -1.67061,-1.95129 -1.34324,-0.68954 -2.86917,-0.968128 -4.3717,-0.91122 -1.25645,-0.0016 -2.51345,0.02441 -3.76589,0.12917 6e-5,0.132707 1.2e-4,0.265413 1.8e-4,0.39812 z" /><path
         id="path70"
         style="opacity:1;fill:#000000;stroke-width:0.3"
         d="m 118.06359,48.348987 c -0.14128,-0.0087 -0.24011,0.04449 -0.3793,0.07768 -0.30283,0.09452 -0.57019,0.276782 -0.8169,0.471793 -0.17819,0.160104 -0.34957,0.349314 -0.41863,0.583443 -0.0777,0.270937 0.0544,0.545512 0.20093,0.767502 0.17058,0.263863 0.45157,0.435695 0.74634,0.529411 0.3701,0.14851 0.79016,0.103226 1.15309,-0.04427 0.36267,-0.143279 0.68744,-0.391038 0.91082,-0.711504 0.15275,-0.247874 0.17242,-0.558633 0.0876,-0.833771 -0.0536,-0.259076 -0.25069,-0.469075 -0.49138,-0.569681 -0.3067,-0.152534 -0.6457,-0.27586 -0.99256,-0.270598 z m 0.0553,0.398942 c 0.29821,0.01341 0.5812,0.133644 0.84226,0.27079 0.1825,0.08869 0.22031,0.304723 0.2389,0.486698 0.0108,0.177675 -0.0802,0.342416 -0.20622,0.461919 -0.29568,0.30119 -0.70765,0.505825 -1.13454,0.503946 -0.21447,-0.007 -0.41725,-0.09284 -0.60634,-0.187565 -0.18083,-0.107849 -0.3147,-0.280336 -0.38904,-0.47594 -0.0979,-0.160694 0.003,-0.33643 0.11469,-0.457087 0.18473,-0.209853 0.42818,-0.359459 0.67458,-0.486567 0.14716,-0.06289 0.30832,-0.11013 0.46571,-0.116194 z" /><path
         id="path71"
         style="opacity:1;fill:#000000;stroke-width:0.3"
         d="m 140.66583,47.954179 c -0.44395,0.0034 -0.89332,0.125017 -1.26382,0.37299 -0.26541,0.189023 -0.48038,0.458158 -0.56401,0.77689 -0.0924,0.27801 0.004,0.586104 0.18829,0.80401 0.22297,0.27856 0.55829,0.441991 0.89349,0.543324 0.28246,0.06786 0.58402,0.04674 0.85172,-0.06774 0.3035,-0.114913 0.57763,-0.312849 0.77794,-0.568233 0.22437,-0.3184 0.32053,-0.734479 0.21875,-1.114817 -0.12247,-0.570863 -0.57908,-0.713888 -1.10236,-0.746421 z m -0.0114,0.399459 c 1.03554,0.02761 0.74713,0.857282 0.69565,0.986974 -0.0811,0.261247 -0.30187,0.446827 -0.5295,0.581239 -0.22865,0.12538 -0.49546,0.209236 -0.75705,0.152216 -0.21657,-0.05031 -0.42281,-0.15248 -0.60016,-0.285895 -0.15545,-0.134002 -0.30405,-0.331554 -0.25344,-0.548226 0.0506,-0.172392 0.13397,-0.337462 0.27013,-0.458483 0.2421,-0.243542 0.58459,-0.353166 0.91566,-0.409188 0.0858,-0.01012 0.17261,-0.01661 0.25867,-0.01864 z"
         sodipodi:nodetypes="scccccccssscccccccss" /><path
         style="opacity:1;fill:#000000;stroke-width:0.3"
         id="path72"
         d="m 126.31874,46.034528 c 0.55507,0.769437 1.04716,1.618062 1.21433,2.563866 0.0868,1.080779 0.0344,2.182278 0.3271,3.237566 0.12864,0.528869 0.33098,1.121254 0.86322,1.368673 0.54998,0.285508 1.21269,0.229888 1.79319,0.0772 0.82633,-0.379197 1.28998,-1.241443 1.5162,-2.084506 0.31125,-0.999205 0.50706,-2.030036 0.81463,-3.029686 0.27319,-0.578042 0.62225,-1.125702 1.04163,-1.609456 -0.10096,-0.08642 0.005,-0.462224 -0.0962,-0.548642 -0.43928,0.507159 -1.01307,1.369468 -1.30096,1.974816 -0.29815,0.904716 -0.47356,1.845096 -0.74086,2.759465 -0.2022,0.744659 -0.46369,1.546701 -1.12185,2.015007 -0.34854,0.267711 -0.82319,0.248983 -1.23927,0.235027 -0.4286,-0.02928 -0.8421,-0.30038 -0.97327,-0.719585 -0.33458,-0.871434 -0.40208,-1.815771 -0.43122,-2.74004 -0.0213,-0.61179 -0.0332,-1.238247 -0.27738,-1.811296 -0.24686,-0.694835 -0.77615,-1.415825 -1.20597,-2.010828 -0.10797,0.07716 -0.0754,0.245262 -0.18336,0.322417 z"
         sodipodi:nodetypes="sccccccccccccccccss" /><path
         id="path73"
         style="opacity:1;fill:#000000;stroke-width:0.3"
         d="m 142.39131,43.122432 c -1.87144,0.06688 -3.80307,0.221092 -5.50406,1.077971 -4.05814,1.689657 -2.96023,2.222398 -3.61525,2.626192 -0.82871,1.081124 -0.69248,2.531199 -0.52489,3.799404 0.24307,1.024583 0.4552,2.094095 1.01141,3.002196 0.68732,1.0505 2.04598,1.245405 3.19371,1.39538 1.71425,0.105912 3.43658,0.08701 5.15246,0.05312 1.08554,-0.109914 2.19795,-0.217467 3.22565,-0.60102 0.52873,-0.08476 0.61765,-0.759893 -0.3116,-0.300235 -1.59715,0.465022 -3.27409,0.572922 -4.9307,0.52444 -1.79106,-0.0417 -3.69688,0.150015 -5.35133,-0.67364 -1.02826,-0.634679 -1.1704,-1.952497 -1.49599,-3.009324 -0.22979,-1.050343 -0.33167,-2.17832 -0.039,-3.224244 0.35302,-0.657832 0.64666,-1.315411 1.20388,-1.786293 0.99819,-0.870904 2.30126,-1.254896 3.48717,-1.794673 1.55354,-0.560976 3.23353,-0.660461 4.87101,-0.681344 1.71133,0.20283 3.39515,0.720312 4.93084,1.502419 0.77226,0.446628 1.53255,0.959764 2.05722,1.696024 0.59693,-0.195645 0.0383,-0.574796 -0.21531,-0.852536 -1.42454,-1.356995 -3.34778,-2.025618 -5.22506,-2.48525 -0.63095,-0.14336 -1.26827,-0.293534 -1.92014,-0.268587 z"
         sodipodi:nodetypes="scccccccccccccccccccss" /><path
         style="opacity:1;fill:#000000;stroke-width:0.3"
         id="path75"
         d="m 138.7895,74.759179 c 0.0977,0.264041 0.15255,0.541481 0.17362,0.821849 0.0378,0.382479 0.0217,0.768549 -0.0107,1.150838 -0.0294,0.368067 -0.11473,0.732288 -0.26515,1.070055 0.12216,0.05292 0.24431,0.10583 0.36647,0.158745 0.18077,-0.40296 0.27443,-0.839797 0.30541,-1.279177 0.0353,-0.458038 0.0413,-0.920436 -0.0241,-1.37618 -0.0275,-0.230066 -0.09,-0.454106 -0.16744,-0.671971 -0.12606,0.04195 -0.25211,0.08389 -0.37817,0.125841 z" /><path
         style="opacity:1;fill:#000000;stroke-width:0.3"
         id="path76"
         d="m 140.78666,74.717126 c 0.14956,0.2376 0.22563,0.511405 0.25615,0.788488 0.0442,0.314833 0.0606,0.633653 0.0304,0.950593 -0.0435,0.475487 -0.11185,0.958344 -0.30625,1.398433 -0.0461,0.126637 -0.16135,0.261357 -0.18926,0.369392 0.10804,0.06778 0.21608,0.135551 0.32412,0.203327 0.29307,-0.428406 0.4398,-0.936923 0.51105,-1.446236 0.0716,-0.456033 0.10399,-0.922178 0.044,-1.381571 -0.0361,-0.368798 -0.11252,-0.743471 -0.3145,-1.060387 -0.11857,0.05932 -0.23713,0.118641 -0.3557,0.177961 z" /></g></g></svg>
