<?xml version="1.0" encoding="UTF-8" standalone="no"?>
<!-- Created with Inkscape (http://www.inkscape.org/) -->

<svg
   width="43.680664mm"
   height="23.523287mm"
   viewBox="0 0 43.680664 23.523287"
   version="1.1"
   id="svg733"
   xml:space="preserve"
   sodipodi:docname="chak-balam.svg"
   inkscape:version="1.2.2 (b0a84865, 2022-12-01)"
   xmlns:inkscape="http://www.inkscape.org/namespaces/inkscape"
   xmlns:sodipodi="http://sodipodi.sourceforge.net/DTD/sodipodi-0.dtd"
   xmlns="http://www.w3.org/2000/svg"
   xmlns:svg="http://www.w3.org/2000/svg"><sodipodi:namedview
     id="namedview735"
     pagecolor="#ffffff"
     bordercolor="#666666"
     borderopacity="1.0"
     inkscape:showpageshadow="2"
     inkscape:pageopacity="0.0"
     inkscape:pagecheckerboard="0"
     inkscape:deskcolor="#d1d1d1"
     inkscape:document-units="mm"
     showgrid="false"
     inkscape:zoom="4"
     inkscape:cx="105.75"
     inkscape:cy="57"
     inkscape:window-width="2560"
     inkscape:window-height="1298"
     inkscape:window-x="0"
     inkscape:window-y="25"
     inkscape:window-maximized="0"
     inkscape:current-layer="layer1" /><defs
     id="defs730" /><g
     inkscape:label="Layer 1"
     inkscape:groupmode="layer"
     id="layer1"
     transform="translate(-95.712573,-122.89898)"><path
       style="fill:#000000;stroke-width:1.06847"
       id="path3698-3-81"
       sodipodi:type="arc"
       sodipodi:cx="120.58385"
       sodipodi:cy="138.54245"
       sodipodi:rx="0.46697229"
       sodipodi:ry="0.48897216"
       sodipodi:start="6.2319055"
       sodipodi:end="6.20932"
       sodipodi:arc-type="arc"
       d="m 121.05021,138.51739 a 0.46697229,0.48897216 0 0 1 -0.43979,0.51324 0.46697229,0.48897216 0 0 1 -0.49263,-0.4576 0.46697229,0.48897216 0 0 1 0.43423,-0.51841 0.46697229,0.48897216 0 0 1 0.49753,0.45174"
       sodipodi:open="true" /><path
       style="fill:#000000;stroke-width:1.06847"
       id="path3698-3-5"
       sodipodi:type="arc"
       sodipodi:cx="121.21224"
       sodipodi:cy="138.74089"
       sodipodi:rx="0.46697229"
       sodipodi:ry="0.48897216"
       sodipodi:start="6.2319055"
       sodipodi:end="6.20932"
       sodipodi:arc-type="arc"
       d="m 121.6786,138.71583 a 0.46697229,0.48897216 0 0 1 -0.43979,0.51324 0.46697229,0.48897216 0 0 1 -0.49263,-0.4576 0.46697229,0.48897216 0 0 1 0.43423,-0.51841 0.46697229,0.48897216 0 0 1 0.49753,0.45175"
       sodipodi:open="true" /><path
       style="fill:#000000;stroke-width:1.06847"
       id="path3698-3-3"
       sodipodi:type="arc"
       sodipodi:cx="121.70834"
       sodipodi:cy="139.03854"
       sodipodi:rx="0.46697229"
       sodipodi:ry="0.48897216"
       sodipodi:start="6.2319055"
       sodipodi:end="6.20932"
       sodipodi:arc-type="arc"
       d="m 122.1747,139.01348 a 0.46697229,0.48897216 0 0 1 -0.43979,0.51324 0.46697229,0.48897216 0 0 1 -0.49262,-0.4576 0.46697229,0.48897216 0 0 1 0.43422,-0.51841 0.46697229,0.48897216 0 0 1 0.49753,0.45175"
       sodipodi:open="true" /><path
       style="fill:#000000;stroke-width:1.06847"
       id="path3698-3-54"
       sodipodi:type="arc"
       sodipodi:cx="122.00599"
       sodipodi:cy="139.23698"
       sodipodi:rx="0.46697229"
       sodipodi:ry="0.48897216"
       sodipodi:start="6.2319055"
       sodipodi:end="6.20932"
       sodipodi:arc-type="arc"
       d="m 122.47235,139.21192 a 0.46697229,0.48897216 0 0 1 -0.43979,0.51324 0.46697229,0.48897216 0 0 1 -0.49263,-0.4576 0.46697229,0.48897216 0 0 1 0.43423,-0.51841 0.46697229,0.48897216 0 0 1 0.49753,0.45175"
       sodipodi:open="true" /><path
       style="fill:#000000;stroke-width:1.06847"
       id="path3698-3-36"
       sodipodi:type="arc"
       sodipodi:cx="122.36979"
       sodipodi:cy="139.50156"
       sodipodi:rx="0.46697229"
       sodipodi:ry="0.48897216"
       sodipodi:start="6.2319055"
       sodipodi:end="6.20932"
       sodipodi:arc-type="arc"
       d="m 122.83615,139.47649 a 0.46697229,0.48897216 0 0 1 -0.43979,0.51325 0.46697229,0.48897216 0 0 1 -0.49263,-0.45761 0.46697229,0.48897216 0 0 1 0.43423,-0.51841 0.46697229,0.48897216 0 0 1 0.49753,0.45175"
       sodipodi:open="true" /><path
       style="fill:#000000;stroke-width:1.06847"
       id="path3698-3-59"
       sodipodi:type="arc"
       sodipodi:cx="122.6013"
       sodipodi:cy="139.7"
       sodipodi:rx="0.46697229"
       sodipodi:ry="0.48897216"
       sodipodi:start="6.2319055"
       sodipodi:end="6.20932"
       sodipodi:arc-type="arc"
       d="m 123.06766,139.67493 a 0.46697229,0.48897216 0 0 1 -0.43979,0.51325 0.46697229,0.48897216 0 0 1 -0.49263,-0.45761 0.46697229,0.48897216 0 0 1 0.43423,-0.51841 0.46697229,0.48897216 0 0 1 0.49753,0.45175"
       sodipodi:open="true" /><path
       style="fill:#000000;stroke-width:1.06847"
       id="path3698-3-549"
       sodipodi:type="arc"
       sodipodi:cx="122.76666"
       sodipodi:cy="139.89844"
       sodipodi:rx="0.46697229"
       sodipodi:ry="0.48897216"
       sodipodi:start="6.2319055"
       sodipodi:end="6.20932"
       sodipodi:arc-type="arc"
       d="m 123.23302,139.87337 a 0.46697229,0.48897216 0 0 1 -0.43979,0.51325 0.46697229,0.48897216 0 0 1 -0.49263,-0.45761 0.46697229,0.48897216 0 0 1 0.43423,-0.51841 0.46697229,0.48897216 0 0 1 0.49753,0.45175"
       sodipodi:open="true" /><path
       style="fill:#000000;stroke-width:1.06847"
       id="path3698-3-1"
       sodipodi:type="arc"
       sodipodi:cx="122.93203"
       sodipodi:cy="140.12994"
       sodipodi:rx="0.46697229"
       sodipodi:ry="0.48897216"
       sodipodi:start="6.2319055"
       sodipodi:end="6.20932"
       sodipodi:arc-type="arc"
       d="m 123.39839,140.10488 a 0.46697229,0.48897216 0 0 1 -0.43979,0.51324 0.46697229,0.48897216 0 0 1 -0.49263,-0.4576 0.46697229,0.48897216 0 0 1 0.43423,-0.51841 0.46697229,0.48897216 0 0 1 0.49753,0.45175"
       sodipodi:open="true" /><path
       style="fill:#000000;stroke-width:1.06847"
       id="path3698-3-75"
       sodipodi:type="arc"
       sodipodi:cx="123.0974"
       sodipodi:cy="140.62604"
       sodipodi:rx="0.46697229"
       sodipodi:ry="0.48897216"
       sodipodi:start="6.2319055"
       sodipodi:end="6.20932"
       sodipodi:arc-type="arc"
       d="m 123.56376,140.60097 a 0.46697229,0.48897216 0 0 1 -0.43979,0.51325 0.46697229,0.48897216 0 0 1 -0.49263,-0.45761 0.46697229,0.48897216 0 0 1 0.43423,-0.51841 0.46697229,0.48897216 0 0 1 0.49753,0.45175"
       sodipodi:open="true" /><path
       style="fill:#000000;stroke-width:1.06847"
       id="path3698-3-541"
       sodipodi:type="arc"
       sodipodi:cx="123.06432"
       sodipodi:cy="141.05598"
       sodipodi:rx="0.46697229"
       sodipodi:ry="0.48897216"
       sodipodi:start="6.2319055"
       sodipodi:end="6.20932"
       sodipodi:arc-type="arc"
       d="m 123.53068,141.03092 a 0.46697229,0.48897216 0 0 1 -0.43979,0.51324 0.46697229,0.48897216 0 0 1 -0.49262,-0.4576 0.46697229,0.48897216 0 0 1 0.43422,-0.51841 0.46697229,0.48897216 0 0 1 0.49753,0.45175"
       sodipodi:open="true" /><path
       style="fill:#000000;stroke-width:1.06847"
       id="path3698-3-88"
       sodipodi:type="arc"
       sodipodi:cx="123.03125"
       sodipodi:cy="141.41978"
       sodipodi:rx="0.46697229"
       sodipodi:ry="0.48897216"
       sodipodi:start="6.2319055"
       sodipodi:end="6.20932"
       sodipodi:arc-type="arc"
       d="m 123.49761,141.39472 a 0.46697229,0.48897216 0 0 1 -0.43979,0.51324 0.46697229,0.48897216 0 0 1 -0.49263,-0.4576 0.46697229,0.48897216 0 0 1 0.43423,-0.51841 0.46697229,0.48897216 0 0 1 0.49753,0.45175"
       sodipodi:open="true" /><path
       style="fill:#000000;stroke-width:1.06847"
       id="path3698-3-35"
       sodipodi:type="arc"
       sodipodi:cx="122.9651"
       sodipodi:cy="141.71745"
       sodipodi:rx="0.46697229"
       sodipodi:ry="0.48897216"
       sodipodi:start="6.2319055"
       sodipodi:end="6.20932"
       sodipodi:arc-type="arc"
       d="m 123.43146,141.69239 a 0.46697229,0.48897216 0 0 1 -0.43979,0.51324 0.46697229,0.48897216 0 0 1 -0.49263,-0.4576 0.46697229,0.48897216 0 0 1 0.43423,-0.51841 0.46697229,0.48897216 0 0 1 0.49753,0.45175"
       sodipodi:open="true" /><path
       style="fill:#000000;stroke-width:1.06847"
       id="path3698-3-2"
       sodipodi:type="arc"
       sodipodi:cx="122.33672"
       sodipodi:cy="144.29713"
       sodipodi:rx="0.46697229"
       sodipodi:ry="0.48897216"
       sodipodi:start="6.2319055"
       sodipodi:end="6.20932"
       sodipodi:arc-type="arc"
       d="m 122.80308,144.27207 a 0.46697229,0.48897216 0 0 1 -0.43979,0.51324 0.46697229,0.48897216 0 0 1 -0.49263,-0.4576 0.46697229,0.48897216 0 0 1 0.43423,-0.51841 0.46697229,0.48897216 0 0 1 0.49753,0.45175"
       sodipodi:open="true" /><path
       style="fill:#000000;stroke-width:1.06847"
       id="path3698-3-26"
       sodipodi:type="arc"
       sodipodi:cx="122.2375"
       sodipodi:cy="144.56172"
       sodipodi:rx="0.46697229"
       sodipodi:ry="0.48897216"
       sodipodi:start="6.2319055"
       sodipodi:end="6.20932"
       sodipodi:arc-type="arc"
       d="m 122.70386,144.53666 a 0.46697229,0.48897216 0 0 1 -0.43979,0.51324 0.46697229,0.48897216 0 0 1 -0.49263,-0.4576 0.46697229,0.48897216 0 0 1 0.43423,-0.51841 0.46697229,0.48897216 0 0 1 0.49753,0.45175"
       sodipodi:open="true" /><path
       style="fill:#000000;stroke-width:1.06847"
       id="path3698-3-6"
       sodipodi:type="arc"
       sodipodi:cx="122.07214"
       sodipodi:cy="144.85938"
       sodipodi:rx="0.46697229"
       sodipodi:ry="0.48897216"
       sodipodi:start="6.2319055"
       sodipodi:end="6.20932"
       sodipodi:arc-type="arc"
       d="m 122.5385,144.83431 a 0.46697229,0.48897216 0 0 1 -0.43979,0.51325 0.46697229,0.48897216 0 0 1 -0.49262,-0.45761 0.46697229,0.48897216 0 0 1 0.43422,-0.51841 0.46697229,0.48897216 0 0 1 0.49753,0.45175"
       sodipodi:open="true" /><path
       style="fill:#000000;stroke-width:1.06847"
       id="path3698-3-78"
       sodipodi:type="arc"
       sodipodi:cx="121.8737"
       sodipodi:cy="145.09088"
       sodipodi:rx="0.46697229"
       sodipodi:ry="0.48897216"
       sodipodi:start="6.2319055"
       sodipodi:end="6.20932"
       sodipodi:arc-type="arc"
       d="m 122.34006,145.06582 a 0.46697229,0.48897216 0 0 1 -0.43979,0.51324 0.46697229,0.48897216 0 0 1 -0.49263,-0.4576 0.46697229,0.48897216 0 0 1 0.43423,-0.51841 0.46697229,0.48897216 0 0 1 0.49753,0.45175"
       sodipodi:open="true" /><path
       style="fill:#000000;stroke-width:1.06847"
       id="path3698-3-4"
       sodipodi:type="arc"
       sodipodi:cx="121.5099"
       sodipodi:cy="145.58698"
       sodipodi:rx="0.46697229"
       sodipodi:ry="0.48897216"
       sodipodi:start="6.2319055"
       sodipodi:end="6.20932"
       sodipodi:arc-type="arc"
       d="m 121.97626,145.56191 a 0.46697229,0.48897216 0 0 1 -0.43979,0.51325 0.46697229,0.48897216 0 0 1 -0.49263,-0.45761 0.46697229,0.48897216 0 0 1 0.43423,-0.51841 0.46697229,0.48897216 0 0 1 0.49753,0.45175"
       sodipodi:open="true" /><path
       style="fill:#000000;stroke-width:1.06847"
       id="path3698-3-17"
       sodipodi:type="arc"
       sodipodi:cx="120.25313"
       sodipodi:cy="136.16119"
       sodipodi:rx="0.46697229"
       sodipodi:ry="0.48897216"
       sodipodi:start="6.2319055"
       sodipodi:end="6.20932"
       sodipodi:arc-type="arc"
       d="m 120.71949,136.13613 a 0.46697229,0.48897216 0 0 1 -0.43979,0.51324 0.46697229,0.48897216 0 0 1 -0.49263,-0.4576 0.46697229,0.48897216 0 0 1 0.43423,-0.51841 0.46697229,0.48897216 0 0 1 0.49753,0.45175"
       sodipodi:open="true" /><path
       style="fill:#000000;stroke-width:1.06847"
       id="path3698-3-18"
       sodipodi:type="arc"
       sodipodi:cx="120.78229"
       sodipodi:cy="136.29349"
       sodipodi:rx="0.46697229"
       sodipodi:ry="0.48897216"
       sodipodi:start="6.2319055"
       sodipodi:end="6.20932"
       sodipodi:arc-type="arc"
       d="m 121.24865,136.26842 a 0.46697229,0.48897216 0 0 1 -0.43979,0.51325 0.46697229,0.48897216 0 0 1 -0.49263,-0.45761 0.46697229,0.48897216 0 0 1 0.43423,-0.51841 0.46697229,0.48897216 0 0 1 0.49753,0.45175"
       sodipodi:open="true" /><path
       style="fill:#000000;stroke-width:1.06847"
       id="path3698-3-787"
       sodipodi:type="arc"
       sodipodi:cx="121.24532"
       sodipodi:cy="136.42578"
       sodipodi:rx="0.46697229"
       sodipodi:ry="0.48897216"
       sodipodi:start="6.2319055"
       sodipodi:end="6.20932"
       sodipodi:arc-type="arc"
       d="m 121.71168,136.40072 a 0.46697229,0.48897216 0 0 1 -0.43979,0.51324 0.46697229,0.48897216 0 0 1 -0.49263,-0.4576 0.46697229,0.48897216 0 0 1 0.43423,-0.51841 0.46697229,0.48897216 0 0 1 0.49753,0.45175"
       sodipodi:open="true" /><path
       style="fill:#000000;stroke-width:1.06847"
       id="path3698-3-74"
       sodipodi:type="arc"
       sodipodi:cx="121.74141"
       sodipodi:cy="136.62422"
       sodipodi:rx="0.46697229"
       sodipodi:ry="0.48897216"
       sodipodi:start="6.2319055"
       sodipodi:end="6.20932"
       sodipodi:arc-type="arc"
       d="m 122.20777,136.59916 a 0.46697229,0.48897216 0 0 1 -0.43979,0.51324 0.46697229,0.48897216 0 0 1 -0.49263,-0.4576 0.46697229,0.48897216 0 0 1 0.43423,-0.51841 0.46697229,0.48897216 0 0 1 0.49753,0.45175"
       sodipodi:open="true" /><path
       style="fill:#000000;stroke-width:1.06847"
       id="path3698-3-49"
       sodipodi:type="arc"
       sodipodi:cx="122.00599"
       sodipodi:cy="136.78958"
       sodipodi:rx="0.46697229"
       sodipodi:ry="0.48897216"
       sodipodi:start="6.2319055"
       sodipodi:end="6.20932"
       sodipodi:arc-type="arc"
       d="m 122.47235,136.76452 a 0.46697229,0.48897216 0 0 1 -0.43979,0.51324 0.46697229,0.48897216 0 0 1 -0.49263,-0.4576 0.46697229,0.48897216 0 0 1 0.43423,-0.51841 0.46697229,0.48897216 0 0 1 0.49753,0.45175"
       sodipodi:open="true" /><path
       style="fill:#000000;stroke-width:1.06847"
       id="path3698-3-15"
       sodipodi:type="arc"
       sodipodi:cx="122.30364"
       sodipodi:cy="136.88881"
       sodipodi:rx="0.46697229"
       sodipodi:ry="0.48897216"
       sodipodi:start="6.2319055"
       sodipodi:end="6.20932"
       sodipodi:arc-type="arc"
       d="m 122.77,136.86375 a 0.46697229,0.48897216 0 0 1 -0.43979,0.51324 0.46697229,0.48897216 0 0 1 -0.49263,-0.4576 0.46697229,0.48897216 0 0 1 0.43423,-0.51842 0.46697229,0.48897216 0 0 1 0.49753,0.45175"
       sodipodi:open="true" /><path
       style="fill:#000000;stroke-width:1.06847"
       id="path3698-3-83"
       sodipodi:type="arc"
       sodipodi:cx="119.22786"
       sodipodi:cy="138.01328"
       sodipodi:rx="0.46697229"
       sodipodi:ry="0.48897216"
       sodipodi:start="6.2319055"
       sodipodi:end="6.20932"
       sodipodi:arc-type="arc"
       d="m 119.69422,137.98821 a 0.46697229,0.48897216 0 0 1 -0.43979,0.51325 0.46697229,0.48897216 0 0 1 -0.49263,-0.45761 0.46697229,0.48897216 0 0 1 0.43423,-0.51841 0.46697229,0.48897216 0 0 1 0.49753,0.45175"
       sodipodi:open="true" /><path
       style="fill:#000000;stroke-width:1.06847"
       id="path3698-3-8"
       sodipodi:type="arc"
       sodipodi:cx="117.44193"
       sodipodi:cy="137.98021"
       sodipodi:rx="0.46697229"
       sodipodi:ry="0.48897216"
       sodipodi:start="6.2319055"
       sodipodi:end="6.20932"
       sodipodi:arc-type="arc"
       d="m 117.90829,137.95515 a 0.46697229,0.48897216 0 0 1 -0.43979,0.51324 0.46697229,0.48897216 0 0 1 -0.49263,-0.4576 0.46697229,0.48897216 0 0 1 0.43423,-0.51842 0.46697229,0.48897216 0 0 1 0.49753,0.45175"
       sodipodi:open="true" /><path
       style="fill:#000000;stroke-width:1.06847"
       id="path3698-3-7"
       sodipodi:type="arc"
       sodipodi:cx="115.8875"
       sodipodi:cy="138.54245"
       sodipodi:rx="0.46697229"
       sodipodi:ry="0.48897216"
       sodipodi:start="6.2319055"
       sodipodi:end="6.20932"
       sodipodi:arc-type="arc"
       d="m 116.35386,138.51739 a 0.46697229,0.48897216 0 0 1 -0.43979,0.51324 0.46697229,0.48897216 0 0 1 -0.49263,-0.4576 0.46697229,0.48897216 0 0 1 0.43423,-0.51841 0.46697229,0.48897216 0 0 1 0.49753,0.45174"
       sodipodi:open="true" /><path
       style="fill:#000000;stroke-width:1.06847"
       id="path3698-3"
       sodipodi:type="arc"
       sodipodi:cx="114.6142"
       sodipodi:cy="138.77396"
       sodipodi:rx="0.46697229"
       sodipodi:ry="0.48897216"
       sodipodi:start="6.2319055"
       sodipodi:end="6.20932"
       sodipodi:arc-type="arc"
       d="m 115.08056,138.74889 a 0.46697229,0.48897216 0 0 1 -0.43979,0.51325 0.46697229,0.48897216 0 0 1 -0.49263,-0.45761 0.46697229,0.48897216 0 0 1 0.43423,-0.51841 0.46697229,0.48897216 0 0 1 0.49753,0.45175"
       sodipodi:open="true" /><path
       style="opacity:1;fill:#000000;stroke-width:1.3"
       id="path3698-4"
       sodipodi:type="arc"
       sodipodi:cx="105.34822"
       sodipodi:cy="137.49681"
       sodipodi:rx="0.51658165"
       sodipodi:ry="0.65433675"
       sodipodi:start="6.2319055"
       sodipodi:end="6.20932"
       sodipodi:arc-type="arc"
       d="m 105.86412,137.46327 a 0.51658165,0.65433675 0 0 1 -0.48651,0.68682 0.51658165,0.65433675 0 0 1 -0.54496,-0.61236 0.51658165,0.65433675 0 0 1 0.48036,-0.69373 0.51658165,0.65433675 0 0 1 0.55038,0.60452"
       sodipodi:open="true" /><path
       style="opacity:1;fill:#000000;stroke-width:1.3"
       id="path3698-1"
       sodipodi:type="arc"
       sodipodi:cx="105.36543"
       sodipodi:cy="135.53381"
       sodipodi:rx="0.51658165"
       sodipodi:ry="0.65433675"
       sodipodi:start="6.2319055"
       sodipodi:end="6.20932"
       sodipodi:arc-type="arc"
       d="m 105.88134,135.50027 a 0.51658165,0.65433675 0 0 1 -0.48652,0.68682 0.51658165,0.65433675 0 0 1 -0.54496,-0.61236 0.51658165,0.65433675 0 0 1 0.48036,-0.69373 0.51658165,0.65433675 0 0 1 0.55039,0.60452"
       sodipodi:open="true" /><path
       id="path2180"
       style="opacity:1;fill:#000000;stroke-width:1.3"
       d="m 101.88112,124.49783 c -1.30683,0.008 -2.610744,0.58039 -3.530017,1.49913 -1.381625,1.66501 -1.706567,3.88794 -2.134754,5.93917 -0.481461,3.13503 -0.661106,6.33716 -0.347265,9.49761 0.18917,1.5401 0.617774,3.27503 2.037601,4.1367 1.552198,1.03301 3.562745,0.97231 5.321635,0.62115 1.44324,-0.36472 2.80415,-1.18811 3.75171,-2.33939 1.14068,-1.60064 1.12414,-3.67178 1.24024,-5.54953 -0.0519,-2.38969 -0.48496,-4.75913 -0.45062,-7.1546 -0.0106,-1.43157 0.14016,-2.96415 -0.65577,-4.24005 -0.52032,-0.97708 -1.31814,-1.88161 -2.4443,-2.12391 -0.66755,-0.13938 -1.46294,-0.29797 -2.13372,-0.24184 -0.21718,-0.0312 -0.43595,-0.0459 -0.65474,-0.0444 z m 0.42375,0.93586 c 0.21435,3.2e-4 0.28478,-0.008 0.79065,0.12454 1.05363,0.0503 2.26203,0.30678 2.80138,1.32085 0.80055,1.00234 0.94004,2.31959 0.85576,3.55585 -0.0234,2.40563 0.24681,4.79703 0.44235,7.19026 0.0108,1.60287 -0.0564,3.25124 -0.56896,4.78266 -0.51021,1.34697 -1.84185,2.14515 -3.11506,2.6572 -1.43939,0.42573 -3.05083,0.51088 -4.474141,-0.0165 -0.866812,-0.36786 -1.56672,-1.09644 -1.796273,-2.02313 -0.649776,-2.19123 -0.524344,-4.51419 -0.449068,-6.77323 0.152324,-2.58232 0.464338,-5.17939 1.210779,-7.66258 0.393908,-1.14594 1.054706,-2.33666 2.273243,-2.74919 0.60216,-0.37624 1.36788,-0.3547 2.02934,-0.40669 z"
       sodipodi:nodetypes="scccccccccccsccccccccccccc" /><path
       style="opacity:1;fill:#000000;stroke-width:1.3"
       id="path2182"
       d="m 107.38027,130.17772 c -0.80937,-0.0919 -1.58708,0.316 -2.21599,0.788 -0.9312,0.80793 -1.60592,1.91792 -1.85401,3.12938 -0.30007,1.39672 -0.3952,2.8622 -0.10714,4.26929 0.19958,1.02926 0.90029,1.97691 1.9003,2.34376 0.83038,0.33724 1.78885,0.20623 2.57393,-0.19203 0.13736,-0.15665 -0.10765,-0.61486 -0.32007,-0.50036 -0.7773,0.38319 -1.76607,0.4296 -2.50006,-0.0785 -0.7604,-0.46429 -1.10914,-1.35865 -1.19735,-2.2098 -0.15408,-1.31552 -0.036,-2.65648 0.26713,-3.94205 0.26219,-0.96808 0.84013,-1.83958 1.57475,-2.51427 0.52605,-0.39695 1.16263,-0.7131 1.8374,-0.68253 0.0137,-0.13697 0.0274,-0.27394 0.0411,-0.4109 z" /><path
       style="opacity:1;fill:#000000;stroke-width:1.3"
       id="path2186"
       d="m 101.01672,124.91677 c -0.0941,0.33238 -0.1467,0.67603 -0.19696,1.01761 -0.0456,0.46863 -0.0888,0.93748 -0.13157,1.40637 -0.0438,0.39211 -0.0765,0.79247 0.0155,1.18077 0.0979,0.4921 0.32175,0.99717 0.76062,1.27359 0.27167,0.16962 0.62279,0.1474 0.89361,-0.0114 0.32574,-0.17019 0.50375,-0.52364 0.54668,-0.8767 0.0529,-0.37834 0.0181,-0.76152 -0.0347,-1.13742 -0.0438,-0.56964 -0.15231,-1.1315 -0.19487,-1.70139 -0.0261,-0.30396 -0.0599,-0.61218 -0.007,-0.91462 0.006,-0.0789 -0.16905,-0.0786 -0.24476,-0.12438 -0.23894,-0.0708 -0.12284,0.31148 -0.17489,0.4569 0.0138,0.466 0.0484,0.93126 0.10172,1.39435 0.0103,0.38041 0.057,0.75908 0.0727,1.1394 0.025,0.38121 0.0743,0.78919 -0.0936,1.14583 -0.11176,0.20961 -0.3713,0.33672 -0.60295,0.28526 -0.32338,-0.10553 -0.50725,-0.43801 -0.59765,-0.74654 -0.11085,-0.34322 -0.14039,-0.70841 -0.0921,-1.06541 0.0455,-0.44568 0.0797,-0.89231 0.12275,-1.33821 0.0313,-0.43273 0.0786,-0.86511 0.17381,-1.28892 -0.10548,-0.0317 -0.21123,-0.0633 -0.31655,-0.0951 z" /><path
       style="opacity:1;fill:#000000;stroke-width:1.3"
       id="path2188"
       d="m 100.5071,145.36468 c -0.03,-0.4703 -0.10673,-0.93668 -0.1556,-1.40538 -0.036,-0.3862 -0.048,-0.77677 -0.0157,-1.16357 0.0349,-0.28554 0.14044,-0.56283 0.32245,-0.78768 0.15103,-0.21146 0.3829,-0.35682 0.62696,-0.43678 0.21207,0.005 0.278,0.27425 0.34541,0.43603 0.13855,0.42498 0.23029,0.86618 0.27591,1.31062 0.0598,0.4903 0.0417,0.98639 -0.0266,1.47479 -0.0197,0.26721 -0.0584,0.53699 -0.0101,0.80337 -0.0448,0.15991 0.14011,0.0835 0.23148,0.0853 0.25774,0.032 0.0485,-0.25467 0.1203,-0.39355 0.0324,-0.49976 0.13583,-0.99523 0.11094,-1.49803 -0.0163,-0.40469 -0.0911,-0.80468 -0.1682,-1.20145 -0.0931,-0.40051 -0.19014,-0.82029 -0.44435,-1.15327 -0.14306,-0.1831 -0.40415,-0.26095 -0.61949,-0.16086 -0.3154,0.12203 -0.59669,0.33457 -0.77612,0.62374 -0.28319,0.39465 -0.356766,0.89554 -0.339245,1.37058 -0.011,0.64852 0.113635,1.28765 0.182365,1.93007 0.002,0.12597 0.0202,0.23721 0.16197,0.18352 0.0585,-0.006 0.12241,-0.0127 0.17757,-0.0174 z" /><path
       style="opacity:1;fill:#000000;stroke-width:1.3"
       id="path2190"
       d="m 96.998384,131.64935 c 0.07056,0.0381 0.142568,0.0729 0.216823,0.10305 0.08664,0.0402 0.176157,0.0728 0.267219,0.10129 0.09927,0.0301 0.200491,0.0526 0.302101,0.0731 0.103148,0.0204 0.207285,0.035 0.311489,0.0487 0.100261,0.0131 0.20089,0.0231 0.30158,0.0323 0.100751,0.009 0.201729,0.0157 0.302707,0.0219 0.09912,0.0109 0.198541,0.0201 0.297217,0.0346 0.10785,0.0165 0.215953,0.0307 0.323358,0.05 0.101849,0.0166 0.20257,0.0384 0.303427,0.0599 0.08896,0.0196 0.175233,0.0445 0.257542,0.0835 0.07114,0.035 0.138453,0.0774 0.198673,0.12894 0.0555,0.0505 0.10159,0.11042 0.1432,0.1726 0.0465,0.0646 0.0694,0.14009 0.0999,0.21256 0.0331,0.0766 0.0479,0.15833 0.0699,0.23837 0.0219,0.0779 0.0359,0.15759 0.0495,0.23726 10e-4,0.0522 0.004,0.10205 -0.0117,0.15226 -0.02,0.0637 -0.058,0.11845 -0.0974,0.17158 -0.0508,0.0697 -0.11628,0.12584 -0.18292,0.1797 -0.0755,0.0533 -0.154168,0.1029 -0.241613,0.13361 -0.09686,0.0438 -0.194799,0.0847 -0.294568,0.12132 -0.103929,0.0365 -0.210426,0.0651 -0.316376,0.095 -0.109672,0.0312 -0.220525,0.058 -0.332618,0.0788 -0.101651,0.0233 -0.205431,0.0339 -0.30911,0.0431 -0.09703,0.01 -0.194773,0.007 -0.29214,0.007 -0.09447,1e-4 -0.18864,-0.01 -0.282694,-0.0177 -0.09278,-0.007 -0.185616,-0.0143 -0.27853,-0.0199 -0.08318,-0.005 -0.166404,-0.009 -0.249637,-0.0134 -0.07767,-0.005 -0.155471,-0.008 -0.233264,-0.0112 -0.06256,-0.003 -0.125167,-0.004 -0.187762,-0.006 -0.06329,-0.003 -0.126219,-0.004 -0.189354,0.002 -0.06227,0.005 -0.123412,0.016 -0.184065,0.0307 -0.05772,0.0132 -0.112827,0.0351 -0.167868,0.0565 -0.08529,0.0318 -0.07946,0.003 -0.100714,0.11695 0,0 0.135038,0.2807 0.135038,0.2807 v 0 c 0.0053,0.0226 0.0047,0.0475 0.01596,0.0678 0.0047,0.008 0.100422,-0.0277 0.113546,-0.0332 0.03664,-0.0135 0.07319,-0.0282 0.11122,-0.0372 0.03983,-0.009 0.07958,-0.0172 0.120515,-0.0199 0.04374,-0.005 0.08755,-5.3e-4 0.131482,1.8e-4 0.06179,0.002 0.123568,0.004 0.185357,0.006 0.07613,0.003 0.152259,0.005 0.228414,0.007 0.08057,0.004 0.161105,0.008 0.241554,0.0136 0.09024,0.006 0.180502,0.0121 0.270643,0.0196 0.104963,0.008 0.20996,0.0188 0.315304,0.0199 0.112061,0.002 0.224459,0.005 0.336267,-0.005 0.122314,-0.01 0.244721,-0.0202 0.364413,-0.0489 0.122515,-0.0276 0.245226,-0.0546 0.365884,-0.0897 0.116808,-0.0338 0.234363,-0.0655 0.349091,-0.10604 0.113065,-0.0417 0.224388,-0.0878 0.332505,-0.14116 0.11093,-0.0644 0.22766,-0.12049 0.32436,-0.20656 0.0949,-0.0786 0.18667,-0.16188 0.25889,-0.26265 0.0737,-0.10235 0.13802,-0.21093 0.16676,-0.33526 0.0222,-0.11008 0.0254,-0.2218 -0.004,-0.33117 -0.0203,-0.0886 -0.0426,-0.1767 -0.0658,-0.26457 -0.0274,-0.0968 -0.0637,-0.1904 -0.10102,-0.28388 -0.0416,-0.0962 -0.0964,-0.18406 -0.15326,-0.27209 -0.0661,-0.0929 -0.1361,-0.18331 -0.22984,-0.25029 -0.0918,-0.0644 -0.18393,-0.13098 -0.29013,-0.17001 -0.104334,-0.0346 -0.208879,-0.0683 -0.3164,-0.0919 -0.104609,-0.0222 -0.20918,-0.0442 -0.314662,-0.062 -0.112442,-0.0201 -0.225525,-0.0355 -0.338645,-0.0513 -0.10755,-0.0133 -0.215336,-0.0251 -0.32322,-0.0353 -0.0973,-0.005 -0.194588,-0.0116 -0.291645,-0.0204 -0.09609,-0.009 -0.192104,-0.0184 -0.287848,-0.0304 -0.09636,-0.0127 -0.192559,-0.0266 -0.288158,-0.0442 -0.09022,-0.0184 -0.180237,-0.0378 -0.268454,-0.0644 -0.08273,-0.0254 -0.163902,-0.055 -0.242787,-0.0907 -0.07052,-0.0271 -0.138301,-0.0596 -0.206473,-0.092 0,0 -0.136851,0.30792 -0.136851,0.30792 z" /><path
       style="opacity:1;fill:#000000;stroke-width:1.3"
       id="path2192"
       d="m 96.448948,136.05023 c 0.557906,0.0346 1.120319,-0.0141 1.675075,0.0727 0.411409,0.0598 0.825073,0.10009 1.238069,0.1448 0.444039,0.0613 0.793168,0.42079 0.937328,0.8317 0.0995,0.25915 0.19673,0.57529 0.0263,0.82777 -0.19163,0.36666 -0.61894,0.50048 -0.994902,0.58994 -0.604058,0.14772 -1.232168,0.10698 -1.847205,0.16342 -0.264364,0.0235 -0.530333,0.0163 -0.795005,0.0344 -0.125204,0.0615 -0.445922,-0.0337 -0.439242,0.15115 0.02757,0.0994 -0.01181,0.23813 0.05462,0.31257 0.243522,10e-4 0.483061,-0.0572 0.727386,-0.0409 0.430087,0.007 0.860367,0.0282 1.29064,7.4e-4 0.447285,-0.0136 0.898051,-0.0428 1.328827,-0.17304 0.389761,-0.1009 0.779781,-0.28685 1.011951,-0.62944 0.14871,-0.2063 0.25029,-0.45036 0.235,-0.70938 -0.005,-0.38057 -0.16663,-0.74256 -0.36303,-1.06138 -0.22736,-0.33815 -0.576182,-0.60525 -0.987052,-0.66312 -0.42763,-0.0729 -0.864724,-0.0522 -1.292243,-0.12893 -0.544481,-0.0841 -1.09572,-0.0401 -1.643793,-0.0425 -0.151352,-0.035 -0.184301,0.0446 -0.162728,0.17264 3.8e-5,0.0486 -7.7e-5,0.0999 5.9e-5,0.14678 z" /><path
       style="opacity:1;fill:#000000;stroke-width:1.3"
       id="path3698"
       sodipodi:type="arc"
       sodipodi:cx="105.83035"
       sodipodi:cy="133.38138"
       sodipodi:rx="0.51658165"
       sodipodi:ry="0.65433675"
       sodipodi:start="6.2319055"
       sodipodi:end="6.20932"
       sodipodi:arc-type="arc"
       d="m 106.34626,133.34784 a 0.51658165,0.65433675 0 0 1 -0.48652,0.68681 0.51658165,0.65433675 0 0 1 -0.54496,-0.61236 0.51658165,0.65433675 0 0 1 0.48036,-0.69373 0.51658165,0.65433675 0 0 1 0.55039,0.60453"
       sodipodi:open="true" /><path
       style="opacity:1;fill:#000000;stroke-width:1.3"
       id="path5288"
       d="m 117.56833,144.39158 c 1.71583,1.20893 3.74206,2.06987 5.8766,1.97398 2.63809,-0.0515 5.32608,-0.11544 7.8846,-0.81666 2.87802,-1.02376 5.4088,-3.27026 6.27685,-6.26364 1.18566,-3.04199 1.48006,-6.31434 1.75568,-9.53827 0.26563,-2.66274 -1.17659,-5.75524 -3.92896,-6.45472 -5.09049,-1.13594 -10.20878,0.4628 -15.20507,1.3409 -2.98944,0.63193 -6.1486,1.37201 -8.4376,3.53903 -1.45512,1.36026 -2.78149,2.89829 -3.77558,4.62626 -0.88971,1.65872 -0.34279,3.51971 -0.0677,5.25219 0.23658,1.42479 0.41142,2.79139 0.51503,4.20521 1.26769,1.06293 0.51077,-1.41271 0.64534,-2.28272 -0.038,-1.67596 -0.49725,-3.30613 -0.637,-4.96572 -0.0195,-2.06838 1.64008,-3.52474 2.82606,-5.01907 1.57586,-1.75986 3.64098,-3.06798 5.9541,-3.60102 3.02021,-0.82523 6.12722,-1.27103 9.19173,-1.89801 3.03779,-0.5433 6.25413,-0.92017 9.25896,-0.021 2.06367,0.91344 2.89305,3.43877 2.61788,5.55078 -0.29367,3.0908 -0.60342,6.22273 -1.76383,9.13314 -1.09003,3.49764 -4.65165,5.77313 -8.2157,5.95351 -2.34467,0.18031 -4.71751,0.65074 -7.06479,0.28465 -1.25497,-0.10108 -2.40844,-1.26582 -3.4105,-1.31714 -0.056,0.12105 -0.0921,0.0202 -0.16613,0.12837 z"
       sodipodi:nodetypes="ccccccccccccccccccccccsc" /><path
       style="opacity:1;fill:#000000;stroke-width:1.3"
       id="path5290"
       d="m 112.33835,129.08827 c 0.45526,-0.20398 0.97224,-0.12161 1.42786,0.0376 0.48065,0.1403 0.97768,0.35197 1.25969,0.79076 0.18783,0.25185 0.2756,0.63945 0.0565,0.89936 -0.30865,0.42008 -0.83779,0.58083 -1.31389,0.72936 -0.56631,0.14878 -1.17964,0.26462 -1.75241,0.0882 -0.44446,-0.17461 -0.84402,-0.53963 -0.97263,-1.00947 -0.0452,-0.22772 0.0415,-0.45427 0.10348,-0.66695 -0.15267,-0.0254 -0.29468,-0.0906 -0.44882,-0.1109 -0.15044,-0.0527 -0.31382,-0.2075 -0.31363,0.0604 -0.17041,0.36838 -0.17937,0.80163 -0.0173,1.17473 0.24982,0.58031 0.73772,1.0607 1.32203,1.30247 0.80906,0.31345 1.71038,0.17466 2.51513,-0.0813 0.64174,-0.20998 1.31153,-0.53511 1.6488,-1.15252 0.27008,-0.52588 0.14514,-1.18013 -0.19266,-1.64529 -0.30264,-0.43409 -0.74285,-0.7619 -1.24321,-0.93292 -0.49548,-0.17787 -1.03093,-0.26983 -1.55742,-0.22831 -0.27855,0.0479 -0.58453,0.0761 -0.81181,0.26041 0.0967,0.16149 0.19413,0.3229 0.29037,0.48444 z" /><path
       style="opacity:1;fill:#000000;stroke-width:1.3"
       id="path5292"
       d="m 108.63998,133.85684 c 0.22025,-0.0241 0.45143,-0.11483 0.68603,-0.14483 0.58601,-0.0668 1.21075,-0.0607 1.7554,0.19167 0.52669,0.23908 0.90097,0.78064 0.91312,1.36239 0.0233,0.27827 -0.0639,0.55705 -0.24948,0.7667 -0.31033,0.44146 -0.79887,0.70795 -1.28141,0.92129 -0.35996,0.15214 -0.75341,0.22002 -1.14289,0.17388 -0.30344,-0.021 -0.59186,-0.12065 -0.88103,-0.20499 -0.0622,0.12958 -0.0631,0.28831 -0.15331,0.40901 -0.0881,0.20064 -0.10335,0.37127 0.15863,0.38378 0.76046,0.26261 1.6306,0.28106 2.36111,-0.0857 0.48704,-0.23619 0.99131,-0.49617 1.32918,-0.93406 0.28409,-0.32506 0.53863,-0.71169 0.55685,-1.15683 0.0531,-0.62116 -0.16678,-1.26293 -0.60409,-1.71027 -0.46646,-0.52108 -1.18085,-0.74226 -1.86431,-0.74451 -0.56135,-0.0243 -1.13484,0.026 -1.65894,0.2413 -0.17593,0.0413 -0.16802,0.14943 -0.073,0.26511 0.0493,0.0883 0.0994,0.1796 0.14811,0.26607 z" /><path
       id="path5294"
       style="opacity:1;fill:#000000;stroke-width:1.3"
       d="m 118.04602,140.2147 c -0.0857,5e-5 -0.17218,0.006 -0.25838,0.0196 -1.62145,0.16751 -3.2016,0.60932 -4.74596,1.12138 -0.96532,0.29704 -1.93282,0.67846 -2.96106,0.64544 -0.36793,0.0474 -0.90535,-0.30342 -1.15859,-0.0605 2e-5,0.0954 -9e-5,0.19377 0,0.28732 0.51906,0.0802 1.02169,0.31368 1.55908,0.25011 1.05972,-0.0404 2.0468,-0.45886 3.05098,-0.75447 1.4491,-0.45332 2.93036,-0.89843 4.45916,-0.92708 0.92131,-0.0238 1.67693,0.97462 1.43712,1.85777 -0.0846,0.44564 -0.45564,0.76748 -0.85783,0.93586 -0.30282,0.17319 -0.63856,0.34748 -0.86455,0.60203 0.14711,0.0836 0.24231,0.42226 0.4284,0.3266 0.52751,-0.40497 1.27513,-0.553 1.6061,-1.18339 0.4964,-0.70015 0.39388,-1.69504 -0.14934,-2.33681 -0.37153,-0.46883 -0.94542,-0.78429 -1.54513,-0.78393 z" /><path
       style="opacity:1;fill:#000000;stroke-width:1.3"
       id="path5298"
       d="m 112.41883,138.26917 c -0.27663,-0.0175 -0.55024,0.0972 -0.76229,0.26984 -0.24829,0.22032 -0.4252,0.52726 -0.47832,0.85598 -0.0396,0.31124 0.0629,0.63318 0.24767,0.88318 0.20269,0.27565 0.54142,0.39095 0.85832,0.47676 0.19338,0.0493 0.39996,0.0364 0.58273,-0.0458 0.3485,-0.14888 0.60434,-0.46575 0.7202,-0.82194 0.0959,-0.26996 0.17234,-0.56364 0.10055,-0.84921 -0.0581,-0.24777 -0.17476,-0.50546 -0.39547,-0.64795 -0.15675,-0.0884 -0.33224,-0.16151 -0.51427,-0.16696 -0.20226,-0.002 -0.38418,0.10164 -0.55583,0.19617 -0.11569,0.009 -0.0496,0.16251 -0.0334,0.2391 0.0305,0.0775 0.0251,0.22789 0.12813,0.22121 0.16769,-0.0443 0.30519,-0.17615 0.47994,-0.19211 0.15878,0.0353 0.32449,0.10676 0.40009,0.26127 0.11423,0.17973 0.11902,0.40859 0.0525,0.60661 -0.0695,0.27994 -0.19995,0.56787 -0.4594,0.71899 -0.13926,0.0942 -0.31752,0.10992 -0.47465,0.0544 -0.23308,-0.0683 -0.49802,-0.15635 -0.61263,-0.39112 -0.0818,-0.14977 -0.12058,-0.3257 -0.076,-0.49341 0.0456,-0.21318 0.16362,-0.41247 0.3246,-0.55874 0.14095,-0.12069 0.32597,-0.16207 0.50225,-0.19985 -0.0116,-0.13882 -0.0231,-0.27764 -0.0347,-0.41645 z" /><path
       id="path5302"
       style="opacity:1;fill:#000000;stroke-width:1.3"
       d="m 125.25695,134.32875 c -0.20814,0.005 -0.41362,0.0719 -0.56637,0.21963 -0.12187,0.21284 -0.33577,0.35194 -0.53485,0.52245 -0.29834,0.28342 -0.54598,0.65826 -0.57258,1.079 0.002,0.42837 0.24149,0.8327 0.56896,1.09761 0.38056,0.29647 0.89105,0.4842 1.37253,0.3576 0.42458,-0.10413 0.7891,-0.41446 0.98753,-0.80047 0.18514,-0.36416 0.20281,-0.79335 0.13643,-1.19011 -0.11021,-0.58611 -0.5488,-1.13846 -1.14928,-1.264 -0.0791,-0.016 -0.16092,-0.0236 -0.24237,-0.0217 z m -0.004,0.70642 c 0.0172,-8.4e-4 0.0374,0.002 0.062,0.009 0.28876,0.0354 0.49883,0.29376 0.59376,0.55294 0.0904,0.31936 0.0861,0.69109 -0.10025,0.97669 -0.17697,0.25785 -0.49905,0.42622 -0.81339,0.3607 -0.36318,-0.0685 -0.68976,-0.36316 -0.75085,-0.73432 0.0163,-0.25727 0.2017,-0.45915 0.34158,-0.66146 0.21063,-0.2551 0.39633,-0.37098 0.66714,-0.50333 z"
       sodipodi:nodetypes="cccccccccscccccccccc" /><path
       style="opacity:1;fill:#000000;stroke-width:1.3"
       id="path5304"
       d="m 137.05069,139.01811 c -0.14484,-0.44831 -0.50059,-0.81692 -0.94353,-0.97732 -0.47955,-0.21179 -1.03176,-0.10631 -1.49976,0.0619 -0.36335,0.13152 -0.35533,0.13341 -0.66048,0.30718 -0.67789,0.39058 -1.32867,0.90664 -1.66125,1.63388 -0.396,0.78119 -0.53382,1.67657 -0.48314,2.54526 0.0758,0.53969 0.22234,1.08684 0.51387,1.55189 0.0938,0.20896 0.26111,0.30401 0.39874,0.0947 0.19284,-0.17989 -0.21389,-0.38531 -0.20872,-0.61819 -0.25579,-0.61305 -0.36389,-1.28757 -0.27051,-1.94801 0.0792,-0.80954 0.37652,-1.62983 0.9586,-2.21352 0.31766,-0.30274 0.68917,-0.56343 1.06948,-0.76653 0.43625,-0.18735 0.40171,-0.2035 0.5936,-0.25112 0.42334,-0.14899 0.94476,-0.20458 1.31473,0.10203 0.24356,0.14787 0.40493,0.38862 0.54482,0.62959 0.11116,-0.0506 0.2225,-0.10104 0.33355,-0.15167 z"
       sodipodi:nodetypes="scccccccccccccccs" /><path
       style="opacity:1;fill:#000000;stroke-width:1.3"
       id="path5306"
       d="m 136.59579,140.01752 c -0.14441,-0.3874 -0.59585,-0.55989 -0.98106,-0.58021 -0.6743,-0.019 -1.27092,0.39155 -1.73887,0.83838 -0.56579,0.5786 -0.76492,1.4369 -0.66826,2.22358 0.0952,0.43774 0.31666,0.87374 0.69231,1.13368 0.10292,-0.0693 0.21038,-0.17405 0.25275,-0.29037 -0.1378,-0.21703 -0.35995,-0.4706 -0.4306,-0.75629 -0.11826,-0.38272 -0.0554,-0.79629 0.0138,-1.18284 0.16635,-0.68962 0.76808,-1.17919 1.39072,-1.4556 0.36161,-0.15307 0.81448,-0.0994 1.09047,0.18949 0.086,0.038 0.18855,-0.0621 0.28151,-0.0801 0.0315,-0.0131 0.069,-0.0266 0.0973,-0.0397 z" /><path
       style="opacity:1;fill:#000000;stroke-width:1.3"
       id="path5308"
       d="m 138.49424,127.15728 c -0.64575,0.001 -1.21524,0.37865 -1.71323,0.75326 -0.8735,0.70479 -1.47399,1.71753 -1.76549,2.79429 -0.21712,0.82061 -0.26684,1.74143 0.16523,2.50457 0.3596,0.64777 0.97228,1.08869 1.59342,1.46299 0.40469,0.26755 0.86149,0.44503 1.28719,0.66524 0.0884,-0.11082 0.16911,-0.2378 0.2303,-0.36582 -0.2742,-0.2272 -0.56363,-0.44597 -0.8757,-0.62402 -0.64448,-0.4162 -1.37668,-0.80482 -1.73379,-1.52164 -0.36015,-0.76665 -0.19405,-1.65685 0.0732,-2.42452 0.39385,-1.03858 1.1144,-1.98802 2.12742,-2.48371 0.20142,-0.13455 0.52419,-0.17274 0.67525,-0.31308 -0.0212,-0.14917 -0.0428,-0.29849 -0.0638,-0.44756 z" /><path
       style="opacity:1;fill:#000000;stroke-width:1.3"
       id="path5310"
       d="m 117.97231,125.78672 c -0.11044,0.36884 -0.0631,0.7703 0.10784,1.11485 0.2262,0.53326 0.76228,0.89718 1.33717,0.93219 0.75804,0.0765 1.51374,-0.10897 2.21209,-0.39288 0.56377,-0.24031 1.1712,-0.34584 1.77363,-0.43882 0.51685,-0.075 1.02065,-0.30618 1.34998,-0.72233 0.30274,-0.3069 0.37258,-0.75233 0.35009,-1.16574 0.018,-0.29414 -0.0967,-0.57171 -0.156,-0.85253 -0.13765,0.002 -0.52774,0.0735 -0.37355,0.27506 0.1251,0.44385 0.23781,0.97357 -0.0296,1.38925 -0.27817,0.39708 -0.71651,0.67587 -1.20188,0.72866 -0.75637,0.10561 -1.5071,0.27249 -2.2194,0.55118 -0.53847,0.17622 -1.11357,0.25457 -1.67938,0.21994 -0.46,-0.0168 -0.87478,-0.32966 -1.03113,-0.75984 -0.14011,-0.24912 -0.0844,-0.59584 -0.14678,-0.82038 -0.0977,-0.0195 -0.19541,-0.0392 -0.29313,-0.0586 z" /><path
       style="opacity:1;fill:#000000;stroke-width:1.3"
       id="path5312"
       d="m 126.78985,124.1794 c 0.1296,0.47615 0.36991,0.91791 0.61423,1.34437 0.46307,0.70991 1.13986,1.35288 2.00176,1.50767 0.67434,0.13077 1.3494,0.4128 2.04642,0.27094 0.89256,-0.1302 1.63221,-0.696 2.35648,-1.19222 0.73087,-0.4985 1.28338,-1.23837 1.58561,-2.06674 0.21459,-0.17711 -0.46827,-0.33401 -0.3473,-0.0587 -0.3292,0.77946 -0.90603,1.44213 -1.60121,1.92016 -0.55661,0.39041 -1.12765,0.79998 -1.78837,0.98977 -0.51537,0.12789 -1.06662,0.0909 -1.56254,-0.0957 -0.5607,-0.14 -1.17932,-0.2117 -1.61632,-0.63108 -0.63597,-0.52731 -1.03336,-1.27621 -1.31816,-2.03807 -0.0573,-0.0787 -0.23096,0.0381 -0.33693,0.0412 -0.009,-0.008 -0.0242,0.015 -0.0337,0.008 z" /><path
       id="path5314"
       style="opacity:1;fill:#000000;stroke-width:1.3"
       d="m 122.36411,129.7311 c -0.84414,0.59177 -1.6832,1.22242 -2.30219,2.05879 -0.34445,0.44329 -0.68466,0.93072 -0.77566,1.49603 -0.0437,0.46182 0.32383,0.84037 0.72502,1.00304 0.63262,0.28222 1.34848,0.2334 2.0221,0.18294 0.78787,-0.0773 1.58633,-0.24998 2.26136,-0.68265 0.57452,-0.34457 1.10123,-0.84923 1.27589,-1.51567 0.12085,-0.51226 0.0777,-1.06154 -0.10594,-1.55339 -0.12843,-0.45529 -0.39272,-0.88284 -0.80512,-1.1312 -0.3021,-0.22579 -0.6954,-0.34169 -1.06866,-0.29197 -0.34617,-0.11038 -0.91749,0.23975 -1.2268,0.43408 z m 1.39991,0.19585 c 0.43797,-0.008 0.8733,0.28502 1.01596,0.70745 0.21031,0.50432 0.26635,1.08867 0.11059,1.61593 -0.24483,0.60495 -0.83876,0.97055 -1.40767,1.22834 -0.67147,0.28325 -1.41014,0.36073 -2.13217,0.38551 -0.4648,-0.006 -0.9787,-0.0389 -1.35237,-0.34623 -0.22142,-0.26681 0.11742,-0.55824 0.25993,-0.77928 0.53345,-0.7472 1.21841,-1.36968 1.95596,-1.91048 0.44321,-0.34204 0.89812,-0.68747 1.4242,-0.89038 0.0416,-0.006 0.0837,-0.0101 0.12557,-0.0109 z"
       sodipodi:nodetypes="ccccccccccccccccccccc" /><path
       id="path5316"
       style="opacity:1;fill:#000000;stroke-width:1.3"
       d="m 122.57598,130.26182 c -0.16032,0.005 -0.31759,0.0644 -0.43408,0.1788 -0.24909,0.13911 -0.21313,0.22364 -0.23669,0.3576 -0.23735,0.26939 -0.43869,0.58082 -0.53382,0.92914 -0.0865,0.36096 -0.0296,0.76917 0.21239,1.05988 0.14705,0.20267 0.40606,0.31046 0.65371,0.27699 0.31766,-0.0269 0.60518,-0.19525 0.84129,-0.40049 0.27005,-0.24886 0.46946,-0.57649 0.55604,-0.9338 0.0607,-0.28559 -7.4e-4,-0.58624 -0.14573,-0.83715 -0.1347,-0.26009 -0.36731,-0.45956 -0.62993,-0.58343 -0.0899,-0.0347 -0.187,-0.0508 -0.28319,-0.0475 z m 0.0248,0.62683 c 0.19035,0.0135 0.34508,0.16759 0.42426,0.33435 0.10084,0.20795 0.10503,0.4634 -0.0134,0.66559 -0.11635,0.23588 -0.30548,0.43095 -0.51779,0.58291 -0.13137,0.0829 -0.30071,0.14955 -0.45424,0.0925 -0.12922,-0.0932 -0.18256,-0.26084 -0.20154,-0.41289 -0.0225,-0.26247 0.12537,-0.49262 0.25942,-0.70435 0.0856,-0.12932 0.18351,-0.24388 0.26614,-0.34625 0.0652,-0.0999 0.16368,-0.15407 0.2372,-0.21187 z"
       sodipodi:nodetypes="ccccccccccsccccccccccc" /><path
       style="opacity:1;fill:#000000;stroke-width:1.3"
       id="path5320"
       d="m 125.24717,130.36003 c 1.10596,-0.49029 2.4648,-0.44283 3.50793,0.19677 0.80361,0.49333 1.4601,1.22694 1.88304,2.06647 0.25931,0.60294 0.35426,1.26604 0.41119,1.91524 0.0301,0.95485 -0.3787,1.89083 -1.06261,2.55076 -0.29746,0.36389 -0.63061,0.68582 -0.9908,0.98674 -0.52213,0.41381 -1.01724,0.87064 -1.60324,1.19365 -0.47096,0.18942 -0.13818,0.5578 0.17431,0.29346 0.73107,-0.40333 1.3366,-0.98852 1.95492,-1.5414 0.32455,-0.35852 0.73825,-0.62787 1.03144,-1.0195 0.69701,-0.72206 0.97633,-1.76682 0.88616,-2.75176 -0.0416,-0.74081 -0.25612,-1.46876 -0.5451,-2.14825 -0.69075,-1.38413 -2.10021,-2.39369 -3.63528,-2.5954 -0.74605,-0.0741 -1.55675,0.0188 -2.18198,0.46007 -0.1649,0.11518 0.11609,0.26264 0.17003,0.393 z"
       sodipodi:nodetypes="cccccccccccccccc" /><path
       style="opacity:1;fill:#000000;stroke-width:1.3"
       id="path5322"
       d="m 125.41238,131.33694 c 0.17144,-0.0413 0.34626,-0.0614 0.52274,-0.0527 0.4323,-0.001 0.86835,0.01 1.2907,0.11157 0.63147,0.14025 1.26047,0.39629 1.72861,0.85522 0.10185,0.07 0.13847,0.28881 0.29822,0.21129 0.0641,-0.0303 0.15102,-0.0366 0.16259,-0.12358 0.0218,-0.14423 -0.13557,-0.23236 -0.21253,-0.33498 -0.2915,-0.29321 -0.65239,-0.50842 -1.02263,-0.68671 -0.55722,-0.23022 -1.14673,-0.41092 -1.75462,-0.41619 -0.35075,-0.008 -0.71694,-0.0139 -1.0483,0.11772 -0.11484,0.0115 -0.053,0.0938 -0.0281,0.16006 0.0211,0.0528 0.0422,0.10555 0.0633,0.15834 z" /><path
       style="opacity:1;fill:#000000;stroke-width:1.3"
       id="path5324"
       d="m 124.78295,142.63371 c -0.16667,0.77959 -0.52511,1.50163 -0.98026,2.15158 -0.26491,0.40295 -0.55613,0.79449 -0.74118,1.2426 0.0966,0.13903 0.34419,0.2478 0.49502,0.20437 0.40432,-0.74439 0.99109,-1.38032 1.34885,-2.15394 0.34067,-0.72332 0.52969,-1.51288 0.61823,-2.30515 -0.0118,-0.27763 0.17424,-0.69897 -0.0958,-0.77137 -0.50291,0.30682 -0.53671,1.15224 -0.64486,1.63191 z"
       sodipodi:nodetypes="cccccccc" /><path
       style="opacity:1;fill:#000000;stroke-width:1.3"
       id="path5326"
       d="m 126.25395,143.29589 c -0.27322,0.70146 -0.52875,1.41187 -0.72075,2.13932 -0.25681,0.28131 0.45838,0.51682 0.41458,0.1357 0.22242,-0.65348 0.45862,-1.30413 0.68806,-1.95609 0.22478,-0.71473 0.738,-2.10333 0.53104,-2.18255 -0.58039,0.17152 -0.46755,0.57931 -0.91293,1.86362 z"
       sodipodi:nodetypes="cccccc" /><path
       style="opacity:1;fill:#000000;stroke-width:1.3"
       id="path5328"
       d="m 127.85841,143.62742 c -0.17859,0.55596 -0.47634,1.06285 -0.80245,1.54409 -0.13955,0.15437 -0.21322,0.37098 0.0278,0.4543 0.27496,0.0751 0.37944,-0.39032 0.56148,-0.55553 0.3435,-0.51282 0.58162,-1.08841 0.78105,-1.66932 0.26861,-0.76613 0.61644,-2.24889 0.30026,-2.41019 -0.54996,0.96365 -0.63158,1.9067 -0.86814,2.63665 z"
       sodipodi:nodetypes="ccccccc" /><path
       style="opacity:1;fill:#000000;stroke-width:1.3"
       id="path5330"
       d="m 129.58641,142.83231 c -0.27453,0.80004 -0.61413,1.58357 -1.08697,2.28811 -0.18028,0.15066 -0.29176,0.3207 -0.042,0.4534 0.24981,0.21926 0.35737,-0.32098 0.52013,-0.45448 0.34754,-0.59624 0.65596,-1.21569 0.94539,-1.84158 0.2644,-0.70087 0.60863,-1.98895 0.39816,-2.21608 -0.58792,0.31006 -0.51716,1.19724 -0.73471,1.77063 z"
       sodipodi:nodetypes="ccccccc" /><path
       style="opacity:1;fill:#000000;stroke-width:1.3"
       id="path5332"
       d="m 115.28242,141.2339 c 0.0987,0.23707 0.099,0.55761 -0.20768,0.62463 -0.48109,0.22571 -1.01502,0.31294 -1.4903,0.54939 -0.64838,0.31947 -0.96141,1.24095 -0.51807,1.8454 0.2776,0.37034 0.72197,0.56007 1.15714,0.67281 0.0312,-0.0227 -0.40179,0.23856 -0.58692,0.23936 -0.62664,0.13771 -1.31534,-0.044 -1.76509,-0.50934 -0.26395,-0.23048 -0.45869,-0.52696 -0.70551,-0.77155 -0.30732,-0.22014 -0.49204,0.19311 -0.52381,0.44207 -0.10361,0.38476 -0.17894,0.8133 -0.46834,1.10689 -0.192,0.21137 -0.43316,0.20921 -0.56347,-0.0656 -0.28337,-0.2926 -0.58123,-0.6049 -0.64819,-1.02482 -0.0835,-0.43501 -0.19504,-0.89253 -0.0436,-1.32687 0.006,-0.2958 0.3529,-0.61513 0.29183,-0.84314 -0.16208,-0.17041 -0.32158,-0.13789 -0.38446,0.0986 -0.31275,0.50728 -0.4477,1.13717 -0.32172,1.72502 0.0631,0.51282 0.22391,1.03717 0.60622,1.40454 0.24827,0.20662 0.43872,0.59904 0.80854,0.5765 0.4612,-0.0733 0.74648,-0.4954 0.88148,-0.91014 0.12315,-0.29743 0.14629,-0.6233 0.24688,-0.92678 -0.2334,0.0161 0.24208,0.36632 0.30912,0.51929 0.4475,0.55735 1.12299,0.96187 1.85412,0.94283 0.43847,-0.022 0.92753,-0.11156 1.24769,-0.43785 0.34014,-0.35311 -0.14916,-0.6002 -0.45683,-0.64153 -0.37998,-0.15732 -0.83976,-0.44615 -0.80046,-0.91777 0.004,-0.3975 0.27097,-0.75921 0.64082,-0.89794 0.53044,-0.21802 1.11539,-0.31784 1.60683,-0.62538 0.30125,-0.19031 0.26896,-0.62313 0.12591,-0.90287 -0.0553,-0.17452 -0.29553,-0.0717 -0.39132,-0.045 z"
       sodipodi:nodetypes="cccccccccccccccccccccccccccccc" /><path
       style="opacity:1;fill:#000000;stroke-width:1.3"
       id="path5578"
       d="m 123.60588,129.39257 c -0.38349,-0.22324 -0.84561,-0.34084 -1.2996,-0.3409 -0.91271,0.008 -1.85834,0.25504 -2.54685,0.88211 -0.46381,0.43606 -1.04505,0.69986 -1.61286,0.96957 -0.95996,0.494 -1.87607,1.12779 -2.55898,1.97306 -0.39662,0.48132 -0.60288,1.11052 -0.52571,1.73334 0.0611,0.39326 0.10966,0.87365 0.46177,1.12123 0.34928,0.19379 0.67784,-0.15987 0.86837,-0.41908 0.49888,-0.64826 0.74663,-1.49399 1.43717,-1.98519 0.60216,-0.48755 1.3758,-0.8301 2.16157,-0.76767 -0.12189,-0.10781 0.2696,-0.36694 -0.075,-0.35029 -0.56976,-0.11096 -1.15398,0.096 -1.66414,0.34219 -0.66048,0.35921 -1.24527,0.8773 -1.60712,1.54317 -0.27608,0.42676 -0.53523,0.94225 -0.89823,1.256 -0.122,-0.1349 -0.2009,-0.49115 -0.22909,-0.72864 -0.0675,-0.49766 0.056,-1.02441 0.40618,-1.39642 0.57766,-0.69769 1.35739,-1.19361 2.1307,-1.64773 0.64087,-0.35037 1.3452,-0.59885 1.90445,-1.08417 0.47105,-0.40733 1.03409,-0.72405 1.66172,-0.7948 0.58878,-0.11456 1.19404,-0.0553 1.77517,0.0631 0.17039,0.0316 0.13489,-0.2164 0.20004,-0.3337 -1.8e-4,-0.0124 0.01,-0.023 0.0104,-0.0352 z" /><path
       style="opacity:1;fill:#000000;stroke-width:1.3"
       id="path5580"
       d="m 133.32364,128.56422 c -0.031,0.13982 -0.18206,0.18897 -0.30455,0.21725 -0.25543,0.0595 -0.52451,0.13294 -0.71227,0.32832 -0.21477,0.21314 -0.35215,0.50173 -0.60572,0.67585 -0.11461,0.0719 -0.30625,0.0855 -0.36337,0.21604 -0.0176,0.066 -0.0656,0.11334 -0.0148,0.17678 0.0501,0.0519 0.17539,0.10477 0.25154,0.0523 0.10059,-0.0449 0.20108,-0.0922 0.28374,-0.1664 0.24929,-0.15903 0.41527,-0.40755 0.59362,-0.63643 0.10963,-0.14809 0.27535,-0.2428 0.45373,-0.28107 0.21779,-0.0629 0.4744,-0.0936 0.62018,-0.28851 0.15976,-0.20242 0.16335,-0.48624 0.10532,-0.72664 -0.10972,-0.3223 -0.13706,-0.37791 -0.337,-0.20029 -0.0513,0.0439 0.0424,0.4245 0.0296,0.6328 z"
       sodipodi:nodetypes="cccccccccccccc" /><path
       style="opacity:1;fill:#000000;stroke-width:0.169561"
       d="m 97.971949,134.24406 c -0.170026,-0.0146 -0.475299,-0.0296 -0.678385,-0.0336 l -0.369249,-0.007 v -0.0987 c 0,-0.24936 0.281214,-2.30361 0.320822,-2.3436 0.0072,-0.007 0.05742,0.004 0.111559,0.0245 0.186368,0.0715 0.563393,0.13635 1.103898,0.18981 1.081301,0.10696 1.467209,0.20572 1.692496,0.43312 0.21878,0.22085 0.3985,0.82239 0.31008,1.03788 -0.11224,0.27353 -0.54596,0.52664 -1.187771,0.69319 -0.52288,0.13567 -0.738073,0.15294 -1.30345,0.10454 z"
       id="path5644" /><path
       style="opacity:1;fill:#000000;stroke-width:0.0597934"
       d="m 96.678639,138.4315 c 0.01633,-0.87743 0.06005,-2.32136 0.07257,-2.39702 l 0.0069,-0.0417 0.399077,0.008 c 0.48902,0.0103 0.67347,0.0228 1.006473,0.0689 0.330852,0.0459 0.490473,0.0652 0.853962,0.10405 0.162071,0.0172 0.329857,0.0371 0.372857,0.0441 0.324329,0.0527 0.624762,0.27226 0.820792,0.59981 0.0663,0.11077 0.1667,0.36443 0.21076,0.53244 0.0429,0.16371 0.0443,0.36638 0.003,0.47404 -0.15806,0.41323 -0.539429,0.64743 -1.283539,0.78824 -0.259777,0.0491 -0.557883,0.0743 -1.170348,0.0986 -0.102534,0.004 -0.29197,0.0151 -0.420965,0.0246 -0.128998,0.009 -0.340082,0.0203 -0.46908,0.0241 -0.128996,0.004 -0.273793,0.0103 -0.321773,0.0133 l -0.08724,0.006 z"
       id="path6372" /><path
       style="opacity:1;fill:#000000;stroke-width:0.177571"
       d="m 112.2119,131.87343 c -0.47315,-0.0871 -0.96454,-0.4799 -1.18261,-0.94538 -0.18171,-0.38788 -0.16419,-0.52365 0.11121,-0.86205 0.35968,-0.44196 1.07793,-1.17185 1.10601,-1.12393 0.0196,0.0334 0.0719,0.0294 0.21553,-0.0165 0.72469,-0.23144 2.14753,0.25337 2.60029,0.886 0.18251,0.25502 0.25147,0.43872 0.25348,0.67525 0.002,0.22891 -0.0727,0.3777 -0.30029,0.59908 -0.21725,0.21128 -0.43169,0.33365 -0.87011,0.49657 -0.68891,0.25601 -1.47805,0.37475 -1.93351,0.29093 z"
       id="path6502" /><path
       style="opacity:1;fill:#000000;stroke-width:0.170522"
       d="m 109.28529,137.21873 c -0.0663,-0.007 -0.22357,-0.0372 -0.34961,-0.0674 l -0.22916,-0.0548 -0.0379,-0.21573 c -0.2368,-1.34784 -0.2879,-2.28674 -0.15356,-2.82123 l 0.0656,-0.26069 0.32653,-0.0838 c 0.43819,-0.11253 1.40218,-0.13035 1.75484,-0.0324 0.60124,0.16694 0.99043,0.46974 1.22557,0.95352 0.11397,0.23448 0.13201,0.30627 0.14468,0.57586 0.0186,0.39523 -0.0423,0.58809 -0.28499,0.90193 -0.40206,0.52003 -1.23506,0.99186 -1.92847,1.09232 -0.24021,0.0348 -0.30537,0.0363 -0.53347,0.0125 z"
       id="path6504" /><path
       style="opacity:1;fill:#000000;stroke-width:0.17323"
       d="m 119.12736,127.49462 c -0.3392,-0.0914 -0.63725,-0.35646 -0.7925,-0.70467 -0.0918,-0.20584 -0.18654,-0.61893 -0.1507,-0.65695 0.1139,-0.12087 6.48165,-1.44666 6.53211,-1.36001 0.0474,0.0814 0.0679,0.49538 0.0339,0.68557 -0.0754,0.42208 -0.37869,0.8001 -0.83296,1.03832 -0.19015,0.0998 -0.34429,0.14626 -0.66551,0.20096 -0.73299,0.12482 -1.24096,0.25327 -1.87477,0.47409 -0.3396,0.11834 -0.73234,0.23997 -0.87277,0.27029 -0.30908,0.0667 -1.19801,0.10057 -1.37678,0.0523 z"
       id="path6506" /><path
       style="opacity:1;fill:#000000;stroke-width:0.168972"
       d="m 130.4909,126.97388 c -0.11999,-0.0277 -0.28907,-0.0727 -0.37573,-0.10028 -0.0867,-0.0276 -0.32962,-0.0913 -0.53991,-0.14152 -0.46764,-0.11186 -0.73295,-0.21478 -0.97714,-0.37909 -0.24434,-0.1644 -0.68665,-0.63409 -0.90252,-0.95836 -0.24293,-0.36495 -0.57187,-1.03889 -0.52223,-1.06998 0.0439,-0.0275 0.77221,-0.13976 1.57166,-0.24225 1.83018,-0.23463 3.52808,-0.26336 4.95277,-0.0838 0.39652,0.05 1.25876,0.20522 1.28444,0.23126 0.0215,0.0218 -0.25654,0.45261 -0.467,0.72347 -0.35089,0.45156 -0.74257,0.78661 -1.55182,1.32741 -0.44456,0.2971 -0.83786,0.50228 -1.20319,0.62772 -0.33212,0.11403 -0.92529,0.14459 -1.26933,0.0655 z"
       id="path6508" /><path
       style="opacity:1;fill:#000000;stroke-width:0.170708"
       d="m 137.6138,134.55743 c -0.0681,-0.0432 -0.38635,-0.24465 -0.70727,-0.44769 -1.01683,-0.64329 -1.37363,-1.07929 -1.50778,-1.84245 -0.0515,-0.29256 -0.0541,-0.39207 -0.0186,-0.70181 0.0918,-0.80108 0.37919,-1.55554 0.85883,-2.25405 0.25131,-0.36602 0.85568,-0.97073 1.18033,-1.18102 0.28766,-0.18634 0.78934,-0.4371 0.81838,-0.40906 0.0468,0.0452 0.1171,0.49504 0.15833,1.01349 0.0393,0.49416 0.0358,0.59214 -0.0533,1.48484 -0.17942,1.7968 -0.45401,4.00494 -0.54015,4.3436 -0.0238,0.0934 -0.0328,0.0932 -0.1887,-0.006 z"
       id="path6510" /></g></svg>
