<?xml version="1.0" encoding="UTF-8" standalone="no"?>
<!-- Created with Inkscape (http://www.inkscape.org/) -->

<svg
   width="145.68704mm"
   height="114.21412mm"
   viewBox="0 0 145.68704 114.21412"
   version="1.1"
   id="svg5"
   xml:space="preserve"
   inkscape:version="1.2.2 (b0a84865, 2022-12-01)"
   sodipodi:docname="chichen-itza-monjas-lintel-2-kakupakal.svg"
   xmlns:inkscape="http://www.inkscape.org/namespaces/inkscape"
   xmlns:sodipodi="http://sodipodi.sourceforge.net/DTD/sodipodi-0.dtd"
   xmlns="http://www.w3.org/2000/svg"
   xmlns:svg="http://www.w3.org/2000/svg"><sodipodi:namedview
     id="namedview7"
     pagecolor="#ffffff"
     bordercolor="#666666"
     borderopacity="1.0"
     inkscape:showpageshadow="2"
     inkscape:pageopacity="0.0"
     inkscape:pagecheckerboard="0"
     inkscape:deskcolor="#d1d1d1"
     inkscape:document-units="mm"
     showgrid="false"
     inkscape:zoom="0.68032243"
     inkscape:cx="985.56209"
     inkscape:cy="283.68901"
     inkscape:window-width="2560"
     inkscape:window-height="1296"
     inkscape:window-x="0"
     inkscape:window-y="25"
     inkscape:window-maximized="1"
     inkscape:current-layer="layer1" /><defs
     id="defs2" /><g
     inkscape:label="Layer 1"
     inkscape:groupmode="layer"
     id="layer1"
     transform="translate(-23.550076,-33.348549)"><g
       id="g5052"><path
         id="path2382"
         style="opacity:1;fill:#000000;stroke:#000000;stroke-width:1.3"
         d="m 86.609701,95.235014 c -2.383524,-0.01877 -4.782372,0.50012 -7.019727,1.26969 -1.122361,0.565869 -2.864779,0.654443 -3.744358,1.274152 1.26971,0.278481 2.867209,-0.708263 4.186708,-1.015253 3.237253,-1.00297 6.808551,-1.61332 10.121346,-0.606682 1.837363,0.697106 3.931141,2.172179 3.718636,4.392499 -0.224316,2.3604 -1.390817,4.61955 -3.023071,6.31537 -3.751776,3.15313 -7.945078,6.05371 -12.774931,7.22127 -3.885656,0.87463 -8.003832,0.88088 -11.865425,-0.11834 -2.036587,-0.55244 -3.801709,-1.97883 -4.678785,-3.91036 -1.118648,-1.94039 -1.081742,-4.58952 0.527617,-6.24923 2.509564,-2.79532 6.108996,-4.30508 9.708451,-5.11648 1.52573,-0.362339 2.90678,-0.630565 4.460846,-0.845905 -0.01093,-0.109354 0.379425,-0.38894 0.368505,-0.498293 -3.068241,0.477027 -6.40336,1.201113 -9.284893,2.387029 -2.496749,1.163239 -5.057157,2.710289 -6.413562,5.197619 -1.233215,2.63084 0.09621,5.69061 2.011764,7.6171 2.469802,2.21501 5.984316,2.43387 9.137426,2.55282 4.854247,0.16637 9.710091,-1.2891 13.710275,-4.03438 2.037972,-1.30574 4.036676,-2.71848 5.774324,-4.40697 1.568864,-1.92762 2.867958,-4.37641 2.687175,-6.930323 -0.355054,-2.15322 -2.470157,-3.465519 -4.384229,-4.109827 -1.060403,-0.257609 -2.140673,-0.376976 -3.224092,-0.385506 z"
         sodipodi:nodetypes="scccccccccccccccccccccs" /><path
         style="opacity:1;fill:#000000;stroke:#000000;stroke-width:1.3"
         id="path2384"
         d="m 69.279966,108.31725 c 0.01583,-1.86918 1.195066,-3.51545 2.638454,-4.58538 1.800957,-1.3408 3.974104,-2.05302 6.151887,-2.50001 2.256045,-0.53841 4.563221,-0.85351 6.873435,-1.0315 0.435532,0.0836 1.315969,-0.516439 0.436443,-0.402014 -0.887212,0.185839 -1.811818,0.136653 -2.71343,0.256884 -2.461054,0.26241 -4.898322,0.76899 -7.265762,1.48825 -1.963158,0.68072 -3.882189,1.72249 -5.228114,3.3397 -0.775855,0.95681 -1.337492,2.13264 -1.329936,3.38542 -0.0731,0.55909 0.437251,0.21871 0.437023,0.0486 z"
         sodipodi:nodetypes="ccccccccccc" /><path
         style="opacity:1;fill:#000000;stroke:#000000;stroke-width:1.3"
         id="path2386"
         d="m 28.146015,118.93839 c 2.705008,-0.17689 5.437016,-0.13132 8.096934,-0.74099 3.698911,-0.83484 7.418458,-1.61694 11.061485,-2.67925 2.901496,-0.93567 5.826691,-2.21031 8.022122,-4.37943 1.744591,-1.92073 2.126618,-4.89154 1.064601,-7.2289 -1.230688,-2.03263 -3.769795,-2.62615 -5.964298,-2.92894 -3.727322,-0.29865 -7.469617,0.14668 -11.201882,-0.0647 -2.697364,-0.22029 -5.621926,0.0161 -7.831677,1.74543 -2.847089,1.98542 -5.15145,4.87723 -6.145506,8.2263 -0.459051,1.76746 -0.255002,3.70389 0.786709,5.23708 0.684426,0.97341 1.616028,2.57198 2.700928,2.71825 0.504072,-0.30538 -1.859521,-1.76632 -2.366074,-2.91018 -1.393376,-2.00356 -1.146044,-4.66392 -0.0707,-6.74173 1.495878,-3.02038 3.911857,-5.61963 6.931734,-7.14565 2.960464,-1.3357 6.23656,-0.49844 9.352445,-0.67859 3.695586,0.069 7.562004,-0.5944 11.091338,0.824 1.377879,0.52747 2.665656,1.60544 2.81507,3.16583 0.539119,2.54997 -0.561821,5.36543 -2.814627,6.72904 -4.569775,3.34867 -10.345575,4.02951 -15.686898,5.41077 -2.868342,0.74175 -5.825625,1.03039 -8.78184,1.0666 -0.297587,0.15161 -1.291636,-0.2195 -1.059864,0.37503 z"
         sodipodi:nodetypes="ccccccccccccccccccscsc" /><path
         style="opacity:1;fill:#000000;stroke:#000000;stroke-width:1.3"
         id="path2388"
         d="m 33.122528,113.70785 c -0.21744,-1.30468 0.0472,-2.51544 0.777001,-3.49123 1.390829,-2.06226 3.601807,-3.50882 6.010067,-4.08485 2.851326,-0.79808 5.835619,-0.90783 8.775642,-1.04616 0.332906,0.0304 1.644163,0.19709 1.037892,-0.38566 -2.252416,-0.0534 -4.507496,0.14715 -6.743605,0.41212 -2.50204,0.34602 -5.080532,0.95124 -7.125706,2.51171 -1.288548,1.02045 -2.394684,2.31936 -3.05237,3.83344 -0.304136,0.75991 -0.304561,1.84268 0.0453,2.59466 0.0183,0.20932 0.424415,0.54778 0.310158,-0.13778 z"
         sodipodi:nodetypes="sccccccccss" /><path
         style="opacity:1;fill:#000000;stroke:#000000;stroke-width:1.3"
         id="path2390"
         d="m 27.849883,118.47661 c -2.908877,5.0412 -1.935789,11.13164 -1.389763,16.64257 0.76023,3.83746 2.774555,7.79174 6.262791,9.80334 4.179398,2.35165 9.073183,2.10836 13.683916,1.77974 8.101143,-0.52005 16.203134,-1.09217 24.328414,-1.00931 4.618804,0.24664 9.23459,-0.58565 13.436037,-2.5377 5.726989,-2.36782 11.165685,-6.89095 12.579891,-13.17948 1.411858,-5.48002 2.762879,-11.40162 1.195141,-16.99091 -1.008799,-2.83826 -2.819342,-5.3895 -5.142453,-7.30163 0.225206,1.77537 3.787816,4.04991 4.292749,6.65976 2.04571,5.3036 0.67611,11.14847 -0.475248,16.49967 -0.813624,4.26832 -3.311271,8.03022 -6.79007,10.6012 -3.86387,3.01717 -8.653441,4.76349 -13.434825,5.64515 -7.406322,0.54843 -14.867169,0.0436 -22.276693,0.69288 -4.922649,0.2938 -9.86045,0.72264 -14.790704,0.6098 -4.181261,-0.39409 -8.667522,-2.20395 -10.523505,-6.24186 -2.474249,-3.91809 -2.256887,-8.73089 -2.545905,-13.17752 0.04889,-2.8292 0.406647,-5.80132 1.892885,-8.26897 -0.100597,-0.0748 -0.202291,-0.1526 -0.302658,-0.22673 z" /><path
         style="opacity:1;fill:#000000;stroke:#000000;stroke-width:1.3"
         id="path2394"
         d="m 38.066636,117.78136 c 0.10005,3.2477 -0.245511,6.5325 0.22557,9.75452 0.594555,2.7262 2.834813,5.00504 5.632175,5.42264 4.143713,0.72972 8.41585,0.92188 12.58814,0.29079 5.296832,-0.75715 10.605238,-1.46278 15.947666,-1.80615 4.422629,-0.68577 9.369127,-0.46286 13.105438,-3.30093 2.6647,-2.35676 3.208531,-6.19607 3.14934,-9.56515 -0.248013,-2.78537 -1.09839,-5.50909 -2.296679,-8.02427 -0.930153,0.7062 1.094448,2.78098 1.049248,4.05922 1.129116,3.47915 1.157562,7.3435 -0.215725,10.75546 -1.389846,3.38258 -5.231731,4.49578 -8.523726,5.01057 -4.045416,0.58066 -8.117832,0.90097 -12.18595,1.26048 -4.782956,0.46101 -9.51976,1.37625 -14.318272,1.65261 -3.334326,-0.0876 -6.785604,-0.044 -9.961455,-1.18634 -2.900344,-1.25125 -4.126468,-4.62193 -3.87571,-7.59689 -1.4e-4,-2.24229 0.0021,-4.48459 -0.0036,-6.72688 -0.105349,1.7e-4 -0.212152,-3.5e-4 -0.31649,3.2e-4 z" /><path
         style="opacity:1;fill:#000000;stroke:#000000;stroke-width:1.3"
         id="path2398"
         d="m 34.220404,118.29511 c -1.543848,3.40322 -2.078477,7.43229 -0.984036,11.04695 1.628497,3.71214 4.602999,7.42136 8.859532,8.03034 5.855492,1.25526 11.804003,0.0368 17.688912,-0.2534 4.105705,-0.5167 8.198297,-1.18999 12.341662,-1.3219 4.04763,-0.56831 8.039771,-1.48613 12.100592,-1.96869 4.622692,-0.67363 7.432329,-5.24555 8.2565,-9.5011 1.018032,-3.85183 0.544164,-7.92678 -0.271089,-11.76893 -0.489775,-1.26368 -1.229866,-4.84374 -2.660061,-4.27848 2.705618,3.51964 2.907269,8.24429 3.00692,12.51581 -0.378207,4.46735 -1.81632,9.54413 -6.045113,11.8286 -3.285338,1.38516 -6.961841,1.24484 -10.376393,2.18819 -3.99809,1.00523 -8.152127,0.66857 -12.186424,1.41475 -4.610926,0.66472 -9.268047,0.8242 -13.898123,1.31528 -3.668646,0.0935 -7.572758,0.0894 -10.947061,-1.53032 -2.649001,-1.69517 -4.735352,-4.37135 -5.742634,-7.34679 -0.812967,-3.41295 -0.391145,-6.68002 0.937635,-9.88631 0.434067,-0.45628 1.38762,-0.56965 0.701207,-0.57864 z"
         sodipodi:nodetypes="ccccccccccccccccccc" /><path
         style="opacity:1;fill:#000000;stroke:#000000;stroke-width:1.3"
         id="path2402"
         d="m 53.735506,113.15446 c 1.745407,-0.17866 3.487805,-0.25035 5.20908,-0.57645 0.933166,-0.16683 1.876213,-0.27258 2.804028,-0.46933 0.307361,0.12477 0.578831,-0.38715 0.159717,-0.39608 -0.470207,0.13727 -0.941098,0.30048 -1.436994,0.31222 -1.071449,0.12044 -2.125877,0.36092 -3.201628,0.44927 -1.199725,0.10202 -3.184735,0.20084 -4.364241,0.46787 0.01943,0.0972 -0.04028,0.30159 0.0583,0.2915 z"
         sodipodi:nodetypes="sccccccss" /><path
         style="opacity:1;fill:#000000;stroke:#000000;stroke-width:1.3"
         id="path2404"
         d="m 38.969852,127.3734 c 4.010349,-3.71923 8.697074,-6.59569 13.130965,-9.76802 2.179741,-1.47125 4.343464,-2.97214 6.569725,-4.36954 -1.328383,0.0296 -3.259091,1.98075 -4.770133,2.69335 -4.57477,3.11458 -9.230031,6.1452 -13.509548,9.66243 -0.290008,0.47968 -2.059795,1.30682 -1.421009,1.78178 z" /><path
         style="opacity:1;fill:#000000;stroke:#000000;stroke-width:1.3"
         id="path2406"
         d="m 42.556186,131.86431 c 3.47242,-2.55089 6.302929,-5.86669 9.83101,-8.35657 4.174176,-3.02811 8.099326,-6.37733 12.215494,-9.47918 -1.234754,-0.0543 -3.126441,2.16056 -4.533306,2.99254 -5.052169,4.07843 -10.516502,7.66303 -15.116274,12.28071 -0.42849,0.82255 -3.064192,1.76651 -2.396924,2.5625 z" /><path
         style="opacity:1;fill:#000000;stroke:#000000;stroke-width:1.3"
         id="path2410"
         d="m 52.138696,132.90766 c 5.997839,-4.3459 11.384519,-9.45487 17.210233,-14.01976 1.388762,-1.22081 2.72712,-2.53325 3.957489,-3.89274 -0.940492,-0.17618 -1.948468,1.98485 -3.032045,2.51656 -3.896053,3.33969 -7.970498,6.47314 -11.797562,9.89713 -2.124528,1.81233 -4.32458,3.5313 -6.535331,5.23595 0.06573,0.0876 0.131566,0.17551 0.197216,0.26286 z" /><path
         style="opacity:1;fill:#000000;stroke:#000000;stroke-width:1.3"
         id="path2412"
         d="m 62.594182,132.06201 c 6.362646,-4.80251 11.90637,-10.61873 18.419101,-15.23051 2.097813,-1.38725 4.205011,-2.78318 6.327477,-4.11629 -0.09751,-0.53515 -3.214904,1.95753 -4.675699,2.56484 -6.008418,3.86182 -11.071819,8.95305 -16.596776,13.43951 -1.136278,1.07057 -3.992507,3.22509 -3.474103,3.34245 z"
         sodipodi:nodetypes="cccccc" /><path
         style="opacity:1;fill:#000000;stroke:#000000;stroke-width:1.3"
         id="path2414"
         d="m 74.174164,130.88946 c 2.499462,-2.15842 4.531214,-5.49703 7.120211,-7.57304 2.183598,-1.91772 4.529275,-3.64105 6.702569,-5.57136 -0.515105,-0.90372 -2.113587,1.69931 -3.037244,2.05875 -3.416358,2.551 -6.549243,5.47107 -9.209604,8.80878 -0.119285,0.52485 -2.328362,1.85113 -1.575932,2.27687 z"
         sodipodi:nodetypes="cccccc" /><path
         style="opacity:1;fill:#000000;stroke:#000000;stroke-width:1.3"
         id="path2416"
         d="m 38.48038,122.56308 c 2.199393,1.86366 4.149187,4.02198 6.490444,5.72833 1.925488,1.526 3.679748,3.28985 5.600589,4.79748 0.420634,-0.25177 -2.405762,-2.31855 -3.366813,-3.42531 -2.539809,-2.18673 -5.250847,-4.17978 -7.555629,-6.62861 -0.328877,-0.1239 -0.950718,-1.17198 -1.168591,-0.47189 z"
         sodipodi:nodetypes="cccccc" /><path
         style="opacity:1;fill:#000000;stroke:#000000;stroke-width:1.3"
         id="path2424"
         d="m 42.009065,117.35669 c 2.305093,2.51874 4.459189,5.18381 7.003194,7.47972 3.042653,2.96223 6.660275,4.88919 9.592995,7.96876 0.944065,-0.0737 -2.147765,-2.18747 -3.122672,-3.2268 -3.148781,-2.40777 -6.270283,-4.86894 -8.946961,-7.81154 -1.306042,-0.36814 -4.075912,-4.13895 -4.440611,-4.56475 z"
         sodipodi:nodetypes="ccccccc" /><path
         style="opacity:1;fill:#000000;stroke:#000000;stroke-width:1.3"
         id="path2428"
         d="m 48.6065,114.82808 c 2.943327,3.52465 6.381576,6.60948 9.717194,9.75719 2.364205,2.28372 4.951453,4.33679 7.162032,6.77515 0.491165,-0.36114 -2.360216,-2.6346 -3.290137,-3.69085 -4.492656,-4.16665 -9.076509,-8.26412 -13.188426,-12.8121 -0.08214,-0.41884 -0.257321,-0.10112 -0.400663,-0.0294 z"
         sodipodi:nodetypes="sccccss" /><path
         style="opacity:1;fill:#000000;stroke:#000000;stroke-width:1.3"
         id="path2430"
         d="m 55.484627,112.95605 c 4.730829,4.18421 8.842092,9.1792 14.431502,12.30052 2.564643,1.50096 5.382011,2.74493 7.301951,5.10445 0.709738,-0.56564 -1.752681,-2.15464 -2.445828,-2.75324 -3.423916,-2.07963 -7.06773,-3.85029 -10.049124,-6.58226 -3.150832,-2.61897 -5.914047,-5.86987 -9.080883,-8.47097 -0.08697,0.0994 -0.07064,0.3021 -0.157618,0.4015 z"
         sodipodi:nodetypes="ccccccc" /><path
         style="opacity:1;fill:#000000;stroke:#000000;stroke-width:1.3"
         id="path2432"
         d="m 66.994451,114.79271 c 4.367512,2.94304 8.81931,5.98129 13.307194,8.73488 2.06942,1.13519 4.015957,1.97989 5.49148,3.87223 0.643514,-0.98555 -1.796056,-2.06668 -2.758132,-2.80039 -3.063107,-1.75819 -6.068694,-3.61226 -8.982916,-5.61204 -2.282875,-1.42574 -4.486176,-2.97247 -6.743966,-4.43652 -0.0845,0.12072 -0.229159,0.12112 -0.31366,0.24184 z"
         sodipodi:nodetypes="ccccccc" /><path
         style="opacity:1;fill:#000000;stroke:#000000;stroke-width:1.3"
         id="path2434"
         d="m 78.646972,114.61844 c 3.225136,1.87963 6.183339,4.20257 8.901363,6.75374 1.57966,1.02284 -0.69759,-1.41485 -1.267074,-1.74087 -2.358718,-1.9483 -4.749634,-3.88777 -7.449235,-5.35212 -0.06169,0.11308 -0.123363,0.22618 -0.185054,0.33925 z" /></g><g
       id="g9973"><path
         style="opacity:1;fill:#000000;stroke:#000000;stroke-width:1.3"
         id="path6606"
         d="m 105.14268,92.224105 c -3.07019,0.02601 -5.491277,2.696466 -7.188098,4.990939 -1.738604,3.915496 0.08835,8.825636 3.561828,11.169826 2.84995,2.35771 6.3911,3.8222 10.10844,3.88206 4.53401,0.16801 9.0698,-0.44009 13.60505,-0.0193 9.07977,0.41026 18.27543,0.54013 27.23947,-1.16729 4.7928,-1.16376 9.6622,-3.1346 12.93141,-6.9841 2.89613,-2.75479 1.68942,-7.246412 -0.035,-10.295662 -1.59604,-2.146109 -4.48823,-4.439465 -7.05024,-4.314327 2.01674,0.981987 4.81079,2.093405 6.26947,4.240663 1.46314,2.565325 2.70426,6.069865 1.15456,8.856816 -3.02799,4.50323 -8.28787,6.72854 -13.37894,7.98634 -10.12271,1.92821 -20.49368,1.46198 -30.7317,1.02451 -5.80756,-0.18593 -12.20792,1.38515 -17.42116,-1.98463 -3.18458,-1.75826 -6.237658,-4.64633 -6.362343,-8.51627 -0.509607,-2.861073 1.364969,-5.299783 3.520263,-6.940857 0.9418,-1.169553 2.92659,-1.275532 3.77698,-1.928718 z" /><path
         style="opacity:1;fill:#000000;stroke:#000000;stroke-width:1.3"
         id="path6608"
         d="m 108.07613,92.661017 c -2.35137,1.134141 -3.27438,4.613833 -1.89968,6.832756 2.18679,3.825517 6.80093,5.095647 10.78406,6.124167 6.29741,1.36801 12.74111,0.11815 19.09061,-0.0864 6.5427,-0.6711 13.65092,0.88465 19.62205,-2.60036 2.86966,-1.35986 4.93722,-4.692109 3.86136,-7.866507 -0.008,-1.362601 -2.64741,-5.668556 -3.11782,-4.350827 2.55546,2.397615 4.08324,6.938693 1.49212,9.862574 -4.0067,4.2388 -10.30417,4.3886 -15.74774,4.3251 -7.3468,-0.092 -14.66521,1.26251 -22.00866,0.78847 -4.21126,-0.5293 -8.60102,-1.63445 -11.97352,-4.32777 -2.28824,-1.743187 -3.09624,-5.138144 -1.15749,-7.44095 0.15438,-0.551139 1.40409,-0.724731 1.05471,-1.260243 z" /><path
         style="opacity:1;fill:#000000;stroke:#000000;stroke-width:1.3"
         id="path7336"
         d="m 114.90071,94.478998 c -1.80856,2.573779 -2.94625,5.674132 -5.46487,7.710702 0.71572,0.38308 3.27957,-3.264804 4.26206,-4.891247 0.18036,-0.804141 1.36098,-3.111659 1.20281,-2.819455 z"
         sodipodi:nodetypes="cccc" /><path
         style="opacity:1;fill:#000000;stroke:#000000;stroke-width:1.3"
         id="path7338"
         d="m 120.68499,96.374724 c -1.77332,3.027338 -4.37836,5.378666 -6.84425,7.730576 1.20244,0.30725 3.64772,-3.43937 4.75425,-4.486145 0.42659,-0.565377 2.22122,-3.469413 2.09,-3.244431 z"
         sodipodi:nodetypes="cccc" /><path
         style="opacity:1;fill:#000000;stroke:#000000;stroke-width:1.3"
         id="path7340"
         d="m 136.06538,95.815715 c -0.95574,3.754032 -3.02779,6.733585 -5.76295,9.447665 1.57245,-0.25734 3.13015,-3.16826 4.20582,-4.69849 0.63229,-1.420438 1.7086,-5.234031 1.55713,-4.749175 z"
         sodipodi:nodetypes="cccc" /><path
         style="opacity:1;fill:#000000;stroke:#000000;stroke-width:1.3"
         id="path7342"
         d="m 146.32421,95.117556 c -1.90081,3.358596 -4.24282,6.491564 -7.33253,8.854434 -2.21142,2.28415 1.97024,-0.77985 2.45443,-1.57404 2.17479,-2.0408 3.87474,-4.536255 5.23003,-7.174798 0.1136,-0.363352 -0.21032,-0.362042 -0.35193,-0.105596 z"
         sodipodi:nodetypes="ccccc" /><path
         style="opacity:1;fill:#000000;stroke:#000000;stroke-width:1.3"
         id="path7344"
         d="m 153.03939,94.612247 c -2.24314,4.032177 -5.7193,7.164333 -9.07932,10.244603 1.61645,0.0638 3.3019,-2.75799 4.80149,-3.8942 1.82825,-1.836877 3.4933,-3.866349 4.66626,-6.188541 0.19866,-0.272721 -0.29542,-0.387415 -0.38843,-0.161862 z"
         sodipodi:nodetypes="ccccc" /><path
         style="opacity:1;fill:#000000;stroke:#000000;stroke-width:1.3"
         id="path7346"
         d="m 129.05081,96.216786 c -2.23664,3.292094 -4.45917,6.760164 -7.84311,9.012644 -2.22045,1.98359 1.93469,-0.43622 2.44752,-1.29599 2.33583,-2.11121 4.13324,-4.731836 5.62803,-7.484172 0.0806,-0.442142 -0.11861,-0.385826 -0.23244,-0.232482 z"
         sodipodi:nodetypes="ccccc" /></g><g
       id="g9987"><path
         style="opacity:1;fill:#000000;stroke:#000000;stroke-width:1.3"
         id="path9682"
         d="m 116.32237,113.9266 c -3.15253,-0.47164 -6.35738,1.6334 -7.44485,4.58318 -0.86575,2.23681 -0.40512,4.90388 1.09375,6.76833 1.17369,1.73756 3.29787,2.41802 5.29634,2.56928 2.54887,0.44184 5.29531,-0.11296 7.32165,-1.76507 1.86912,-1.4206 2.70751,-3.83928 2.6753,-6.12534 -0.10455,-1.66245 -0.90578,-3.28421 -2.1007,-4.43272 -1.90127,-1.5079 -4.44923,-1.56264 -6.76292,-1.65698 -0.45812,0.9957 1.42324,0.41204 1.99726,0.66145 1.96148,0.16196 4.23345,0.64235 5.2869,2.49877 0.89449,1.37121 1.27774,3.07908 0.86404,4.68123 -0.27608,1.82613 -1.36218,3.48728 -2.9469,4.44267 -1.89045,1.28059 -4.27462,1.5843 -6.49399,1.20996 -1.87862,-0.14429 -3.85764,-0.84914 -4.91666,-2.50498 -1.55514,-2.0164 -1.76479,-4.97468 -0.44032,-7.15992 1.26834,-2.25042 3.91668,-3.67169 6.49503,-3.38914 0.0253,-0.12691 0.0508,-0.25381 0.0761,-0.38072 z" /><path
         id="path9686"
         style="opacity:1;fill:#000000;stroke:#000000;stroke-width:1.3"
         d="m 117.03523,117.51066 c -1.4075,-0.21884 -2.80115,1.2654 -2.59312,2.75745 -0.078,1.0342 0.74584,1.88579 1.73891,2.02107 1.31012,0.20991 2.998,-0.56637 3.01274,-2.06138 0.16178,-1.10819 -0.60225,-2.21654 -1.64641,-2.52904 -0.25468,0.47127 1.12606,0.86177 1.18649,1.96164 0.21488,0.91971 -0.34799,1.89825 -1.27899,2.12028 -0.995,0.43177 -2.55621,0.017 -2.63447,-1.22835 -0.24876,-1.09426 0.42297,-2.24577 1.50534,-2.55126 0.37009,-0.23346 2.45415,-0.31916 0.92087,-0.48059 -0.0706,-0.006 -0.14087,-0.01 -0.21136,-0.01 z"
         sodipodi:nodetypes="cccccccccccc" /><path
         style="opacity:1;fill:#000000;stroke:#000000;stroke-width:1.3"
         id="path9690"
         d="m 110.49378,116.26124 c -1.95784,-1.27452 -4.60447,-0.56605 -6.09786,1.10637 -2.92611,3.40614 -4.12705,7.99892 -4.25898,12.41267 0.0879,3.29787 0.43391,6.62849 1.3485,9.80517 0.64374,2.38417 2.35727,4.49977 4.76711,5.24427 4.04772,1.53316 8.48172,1.54076 12.70653,0.86704 2.3902,-0.44019 5.29409,-0.39752 6.97227,-2.45004 2.62133,-3.52269 3.64613,-7.89575 4.51071,-12.12074 0.66339,-3.98841 1.776,-8.37482 -0.17243,-12.18757 -0.7645,-1.73099 -2.14803,-3.50557 -4.20994,-3.56177 -0.58457,0.004 -2.94732,-0.10767 -2.12274,0.77559 1.65019,-0.3235 3.66443,-0.23286 4.67406,1.33832 1.80157,2.40863 2.3429,5.51492 1.96934,8.45525 -0.63419,4.74284 -1.4192,9.55038 -3.35463,13.96065 -0.95575,1.73279 -1.88905,3.89751 -4.02356,4.39522 -2.9603,0.78518 -6.04274,1.08834 -9.09345,1.26555 -3.25615,-0.0523 -6.67534,-0.49415 -9.49496,-2.23242 -2.51661,-1.89139 -3.00204,-5.25809 -3.43585,-8.16321 -0.54818,-3.47201 -0.69924,-7.06476 0.24649,-10.48466 0.72118,-2.67977 1.77598,-5.44167 3.83803,-7.3776 1.32487,-1.27103 3.37606,-1.49623 4.99553,-0.69356 0.0785,-0.11823 0.15811,-0.23607 0.23583,-0.35453 z" /><path
         style="opacity:1;fill:#000000;stroke:#000000;stroke-width:1.3"
         id="path9692"
         d="m 113.44898,127.33286 c 0.80195,1.432 0.60477,3.15038 0.60705,4.73101 0.14945,0.93802 -0.52444,2.24475 -0.0762,2.95463 0.22988,0.40613 0.37967,-2.03044 0.6275,-3.02064 0.29976,-1.46823 0.68466,-3.04728 1.88947,-4.04997 -0.5957,-0.62045 -1.22308,1.00953 -1.57665,1.51 -0.63977,1.45058 -0.79047,3.03966 -0.91613,4.59995 -0.43957,0.76573 0.32139,0.90448 0.23717,0.0389 0.2376,-1.73515 0.33431,-3.51334 0.14673,-5.25814 -0.1458,-0.46987 -0.27417,-2.06433 -0.93703,-1.50697 l -0.002,10e-4 z"
         sodipodi:nodetypes="sccccccccccs" /><path
         id="path9694"
         style="opacity:1;fill:#000000;stroke:#000000;stroke-width:1.3"
         d="m 107.55829,130.03082 c -0.8817,0.002 -1.7705,0.36703 -2.03863,1.27744 -0.3724,1.10317 0.18176,2.41927 1.30844,2.80914 1.22998,0.67059 2.97643,0.0698 3.33055,-1.33739 0.26041,-1.08895 -0.44382,-2.46418 -1.58337,-2.65979 -0.44576,0.78071 1.25271,0.84892 1.09503,1.81643 0.35426,1.30742 -1.19055,2.43959 -2.37867,1.92443 -0.95629,-0.20822 -1.66107,-1.13387 -1.47071,-2.11977 0.0788,-1.0676 1.29209,-1.49134 2.20658,-1.26865 0.40337,0.0987 0.40937,0.0519 0.45527,-0.31006 -0.28729,-0.0854 -0.60557,-0.13254 -0.92449,-0.13178 z" /><path
         id="path9696"
         style="opacity:1;fill:#000000;stroke:#000000;stroke-width:1.3"
         d="m 120.87531,131.33359 c -1.06839,-0.10689 -2.04074,0.87482 -2.11822,1.97404 -0.24978,1.5358 1.65338,2.65439 2.95228,1.93011 1.1021,-0.48277 1.56434,-1.95277 0.80512,-2.92592 -0.12212,-0.60704 -1.32478,-1.28276 -0.9749,-0.54026 0.90633,0.48713 1.14862,2.26586 0.21629,2.84193 -0.92948,0.84217 -2.77549,0.0804 -2.56626,-1.24334 0.005,-1.13366 1.31139,-1.75951 2.11476,-1.81517 0.0186,-0.093 -0.0486,-0.083 -0.0301,-0.17592 -0.13361,-0.0294 -0.0436,-0.01 -0.39894,-0.0455 z"
         sodipodi:nodetypes="sccccccccs" /><path
         style="opacity:1;fill:#000000;stroke:#000000;stroke-width:1.3"
         id="path9817"
         d="m 148.3023,112.99542 c -1.87464,0.2259 -3.97263,0.54476 -5.38843,1.89937 -1.63203,2.05968 -1.79624,4.92182 -1.35861,7.41493 0.46583,1.94409 2.05028,3.51279 4.02844,3.87229 3.27366,0.58513 6.82779,0.2288 9.77617,-1.36623 2.45634,-1.48823 2.67815,-4.78545 1.92221,-7.28679 -0.65056,-2.19158 -2.32432,-4.22905 -4.70397,-4.54851 -1.47755,-0.21648 -3.6773,-0.76765 -4.73657,0.31814 1.36475,0.0294 3.11631,-0.22469 4.5964,0.24871 2.92425,0.42301 4.56527,3.44845 4.68861,6.17411 0.27576,2.16559 -0.89961,4.50064 -3.05087,5.18765 -2.92865,1.08782 -6.26733,1.44672 -9.28372,0.51926 -2.23796,-0.72882 -3.14428,-3.24425 -2.99103,-5.409 0.0305,-1.89163 0.42981,-4.0819 2.00642,-5.2976 1.36733,-0.84104 2.98366,-1.12682 4.54698,-1.36115 -0.0173,-0.12159 -0.0351,-0.24482 -0.052,-0.36518 z" /><path
         style="opacity:1;fill:#000000;stroke:#000000;stroke-width:1.3"
         id="path9821"
         d="m 149.62164,116.29754 c -0.86739,-0.0394 -1.76098,0.4031 -2.18503,1.17479 -0.38014,0.63298 -0.56745,1.43011 -0.28081,2.13732 0.21823,0.61629 0.73896,1.08791 1.35269,1.29606 0.94065,0.37073 2.06983,0.13607 2.82368,-0.52374 0.52625,-0.48693 0.90592,-1.18786 0.83531,-1.92074 -0.0616,-0.79381 -0.59469,-1.48251 -1.24254,-1.90754 -0.4329,-0.26583 -0.94851,-0.34363 -1.44586,-0.37164 -0.12162,0.0695 -0.0217,0.24139 -0.0366,0.35954 0.0864,0.19467 0.51339,0.0726 0.72496,0.18536 0.59702,0.13108 1.07667,0.58873 1.36015,1.11376 0.25197,0.46815 0.25185,1.04352 0.0172,1.5186 -0.28338,0.61966 -0.84274,1.12045 -1.51987,1.25773 -0.74547,0.19741 -1.60805,0.007 -2.16173,-0.54011 -0.50119,-0.52726 -0.62649,-1.35349 -0.31997,-2.01134 0.22319,-0.58937 0.6874,-1.09635 1.30091,-1.28076 0.213,-0.14189 0.63244,-0.0225 0.74895,-0.20533 0.01,-0.0938 0.0186,-0.18888 0.0285,-0.28196 z" /><path
         style="opacity:1;fill:#000000;stroke:#000000;stroke-width:1.3"
         id="path9825"
         d="m 148.148,126.34953 c 1.32678,1.92699 1.04116,4.48118 0.59225,6.64987 -0.0861,1.40127 -1.63865,2.76742 -1.68991,3.80229 0.097,0.60773 1.77765,-2.52559 2.58114,-3.64103 0.84066,-2.12213 1.33848,-4.419 1.37038,-6.70326 -1.12901,-0.10051 -0.3121,2.41951 -0.90645,3.21788 -0.3499,2.0854 -1.16531,4.05411 -2.40732,5.76707 -0.74141,0.48181 -0.88015,2.32984 0.0401,0.94335 1.8488,-2.41854 2.22447,-5.72892 1.63704,-8.64532 -0.1565,-0.35525 -0.70651,-2.14095 -1.21725,-1.39085 z"
         sodipodi:nodetypes="sccccccccss" /><path
         style="opacity:1;fill:#000000;stroke:#000000;stroke-width:1.3"
         id="path9827"
         d="m 143.57578,129.26473 c -2.20443,-0.4499 -3.85647,2.0453 -2.9403,3.98624 0.55043,1.90947 3.32529,2.2679 4.45103,0.70127 1.08724,-1.38783 1.10669,-3.84148 -0.68502,-4.67586 -1.00991,-0.78614 -1.68311,0.78045 -0.38751,0.45844 2.21332,0.8857 1.34228,4.79602 -1.03288,4.69177 -2.34333,0.0657 -2.8502,-3.84031 -0.68691,-4.51953 0.4878,-0.36368 1.51333,0.25504 1.28159,-0.64233 z" /><path
         style="opacity:1;fill:#000000;stroke:#000000;stroke-width:1.3"
         id="path9831"
         d="m 157.38204,129.27657 c -2.29301,-0.20958 -4.28048,2.93882 -2.47319,4.68791 1.51801,1.61734 4.6279,0.57403 4.62624,-1.71874 0.39341,-1.27102 -1.49432,-3.90589 -2.31931,-2.81545 1.01284,0.57233 2.16499,1.86942 1.669,3.29737 -0.46256,1.875 -3.37924,1.9516 -4.05047,0.19683 -0.72949,-1.89199 1.63029,-2.87245 2.54765,-3.47155 v -0.0945 -0.0819 z" /><path
         style="opacity:1;fill:#000000;stroke:#000000;stroke-width:1.3"
         id="path9835"
         d="m 141.86698,116.16876 c -2.17726,-0.72086 -4.88963,-0.97973 -6.69577,0.73306 -1.78103,1.82298 -2.01738,4.52989 -2.51121,6.90819 -0.50675,3.90673 -0.41628,7.88578 0.0906,11.78563 0.50673,2.69213 1.56566,5.74234 4.28756,6.91939 4.76126,2.16332 10.13933,1.77323 15.22415,1.51209 3.24185,0.0192 6.85121,-0.24289 9.31187,-2.62316 2.80614,-2.75847 2.92375,-6.94163 3.25589,-10.61499 0.27339,-3.43128 0.1803,-6.93862 -0.63526,-10.29362 -0.72544,-2.24002 -1.66879,-4.77192 -4.05966,-5.69845 -0.88829,-0.77699 -4.20098,-0.34637 -3.58637,0.66098 1.542,-0.92016 3.40867,-0.36257 4.67624,0.75793 2.15755,2.25139 2.72796,5.50692 2.90241,8.51191 0.33865,3.87278 -0.0335,7.77975 -0.68341,11.59997 -0.45117,2.57485 -1.99648,5.0771 -4.52634,6.0252 -3.09192,1.37884 -6.55082,0.79638 -9.82235,1.14413 -4.0581,0.24823 -8.35071,0.102 -12.07506,-1.69665 -2.70034,-1.42394 -3.46627,-4.6976 -3.85531,-7.47967 -0.40494,-5.16615 -0.51123,-10.54039 1.32733,-15.46579 0.75742,-2.07118 3.14145,-3.09441 5.22629,-2.65877 0.56987,-0.16402 2.19255,0.91029 2.14838,-0.0274 z" /></g><g
       id="g12352"><path
         id="path5833"
         style="opacity:1;fill:#000000;stroke:#000000;stroke-width:1.3"
         d="m 132.05189,38.223507 c -3.01366,-0.01106 -6.01882,0.320459 -8.98808,0.917773 -5.33788,0.438741 -10.65446,1.771779 -15.45692,4.250297 -1.50563,0.920174 0.76846,-0.573971 -2.08775,1.469767 -3.6879,2.424426 -5.993848,6.758394 -7.312731,10.87944 -1.388559,3.493204 -1.901691,7.207006 -2.108916,10.941451 -1.068796,6.442591 -0.316468,13.312324 2.461349,19.255155 1.623338,3.143192 4.227038,6.433292 8.091498,6.516398 7.04918,1.074622 14.14697,-0.774265 21.19302,0.238745 7.92496,0.531528 16.03412,1.356717 23.81715,-0.739489 4.68892,-1.292055 9.87891,-3.111246 12.29486,-7.703406 3.07616,-4.902785 3.12813,-10.839246 4.0752,-16.37006 0.76837,-4.591377 0.90932,-9.361456 -0.68161,-13.802775 -1.71848,-5.923463 -7.09085,-9.719595 -12.13208,-12.720154 -5.88924,-2.949871 -12.72383,-1.958985 -19.05258,-2.898531 -1.37063,-0.153918 -2.74257,-0.229583 -4.11241,-0.234611 z m -0.12403,0.486275 c 0.97847,0.0036 1.95986,0.06439 2.94504,0.204122 5.84397,0.680612 11.84265,0.372919 17.55966,1.90686 4.30223,1.619353 8.01392,4.591678 11.17606,7.873421 3.17682,3.692464 4.31143,8.780491 4.31808,13.540776 -0.49403,5.897553 -1.23984,11.817676 -2.57814,17.582906 -1.34431,4.34407 -4.22766,8.550386 -8.76742,9.931694 -6.22471,2.7061 -13.11411,3.36946 -19.83341,3.008085 -6.65077,-0.135463 -13.28332,-1.42773 -19.9316,-0.555005 -4.40505,0.06037 -9.03426,0.537893 -13.23589,-1.034562 -5.226878,-3.544997 -6.792733,-10.229404 -7.447607,-16.147335 -0.386964,-4.840048 0.537933,-9.625924 1.006141,-14.424959 1.457114,-5.973712 3.567946,-12.665441 9.062016,-16.098496 0.27794,-0.199688 2.39771,-1.431967 1.67845,-1.070735 -0.36244,0.131236 -1.24643,0.787716 -0.98648,0.581918 3.67094,-2.332108 8.10239,-3.331363 12.37851,-3.927714 4.22914,-0.331567 8.41658,-1.386658 12.65659,-1.370976 z m -23.75644,4.579273 c -0.10754,-0.121822 -0.49879,0.0742 -0.26259,-0.04762 0.22054,-0.102771 0.4533,-0.03921 0.26259,0.04762 z"
         sodipodi:nodetypes="sccccccccccccccsscccccccccccccccsccc" /><path
         style="opacity:1;fill:#000000;stroke:#000000;stroke-width:1.3"
         id="path11507"
         d="m 125.46347,47.188114 c -2.48756,0.378807 -4.84987,1.41575 -7.18747,2.289154 -5.11111,2.113729 -8.28414,7.302323 -9.57816,12.481293 -1.05024,4.842393 -1.25395,10.170815 1.15643,14.663369 1.77287,3.880013 4.3806,8.200962 8.93546,9.038511 5.97842,0.990827 12.08525,0.665797 18.09806,1.377057 5.16266,0.365385 10.91851,1.180807 15.48705,-1.86164 5.77361,-4.242548 8.70567,-11.76289 8.19334,-18.812172 -0.5859,-6.2643 -5.099,-11.442029 -10.2535,-14.661001 -5.60986,-3.311886 -12.17826,-4.408175 -18.5578,-5.130299 -2.99126,0.01742 -4.70143,0.161051 -7.26057,1.040868 -3.17298,0.899347 4.1152,-0.497077 6.20651,-0.484074 4.33026,0.232185 8.63565,1.086296 12.80306,2.272876 6.5334,1.873119 12.55723,6.328286 15.35378,12.632789 2.51913,6.27227 0.74571,13.610648 -3.06529,18.971899 -2.28505,3.336094 -6.02795,5.653259 -10.12658,5.769481 -6.01336,0.357189 -11.98283,-0.829046 -17.99185,-0.89883 -3.97541,-0.380861 -8.27636,0.08943 -11.88328,-1.934545 -3.69998,-2.762572 -5.65096,-7.244437 -7.00836,-11.523761 -1.16288,-6.883126 0.40478,-14.544105 5.36556,-19.67427 0.74182,-1.834229 14.32221,-6.081781 11.31361,-5.556705 z"
         sodipodi:nodetypes="ccccccccccccccccccccc" /><path
         style="opacity:1;fill:#000000;stroke:#000000;stroke-width:1.3"
         id="path11509"
         d="m 112.43995,69.584003 c 2.73907,-3.044787 6.06559,-5.511697 9.10433,-8.2524 3.59859,-2.991693 7.09586,-6.10264 10.59901,-9.20326 0.62874,-0.677143 -2.34359,1.835089 -3.3142,2.350198 -5.28743,4.79587 -11.01223,9.125359 -16.01934,14.22055 0.0449,0.202157 -0.91154,1.153535 -0.3698,0.884912 z"
         sodipodi:nodetypes="cccccc" /><path
         style="opacity:1;fill:#000000;stroke:#000000;stroke-width:1.3"
         id="path11511"
         d="m 114.18308,75.524269 c 3.74003,-4.39511 7.86353,-8.471613 12.04223,-12.45381 3.61508,-3.332115 7.42792,-6.442238 11.30454,-9.462043 1.65776,-2.064279 -2.27579,1.048289 -2.9202,1.664457 -7.41637,5.830871 -14.21584,12.424179 -20.42868,19.515104 -0.21325,0.369656 -0.59033,0.575301 0.002,0.736292 z" /><path
         style="opacity:1;fill:#000000;stroke:#000000;stroke-width:1.3"
         id="path11513"
         d="m 144.0447,54.903208 c 1.41402,-2.023013 -2.47523,1.320481 -3.30074,1.890042 -8.57373,6.592967 -23.69428,22.841118 -23.3347,22.449108 6.86715,-5.2463 18.0503,-17.95386 26.63544,-24.33915 z"
         sodipodi:nodetypes="cccc" /><path
         style="opacity:1;fill:#000000;stroke:#000000;stroke-width:1.3"
         id="path11515"
         d="m 122.57873,81.567778 c 3.41335,-3.814087 7.35532,-7.130562 11.08992,-10.625967 5.0413,-4.568647 10.54218,-8.607434 15.70259,-13.020318 0.77276,-0.38303 -3.30415,2.427343 -4.80067,3.372031 -7.66541,6.024179 -15.06603,12.416874 -21.84767,19.426798 -0.32772,0.368037 -0.76311,1.335153 -0.14417,0.847456 z"
         sodipodi:nodetypes="cccccc" /><path
         style="opacity:1;fill:#000000;stroke:#000000;stroke-width:1.3"
         id="path11517"
         d="m 129.56233,81.717805 c 3.99098,-3.804432 8.17411,-7.416426 12.244,-11.140979 3.06359,-2.662315 6.23402,-5.223046 9.26574,-7.90623 0.61654,-0.801639 -2.50111,1.762027 -3.26207,2.253319 -6.07051,4.963929 -11.83502,10.282933 -17.61879,15.573383 -0.49588,0.548155 -1.32723,1.732922 -0.62888,1.220507 z"
         sodipodi:nodetypes="cccccc" /><path
         style="opacity:1;fill:#000000;stroke:#000000;stroke-width:1.3"
         id="path11519"
         d="m 137.93587,82.019798 c 4.85807,-4.493217 10.00968,-8.665381 14.7651,-13.274756 1.11638,-0.475922 1.29924,-1.9909 0.0585,-0.65764 -4.72205,4.649567 -9.89481,8.803739 -14.7476,13.307673 -0.76355,0.294883 -0.34769,0.873106 -0.076,0.624723 z"
         sodipodi:nodetypes="ccccc" /><circle
         id="path12247"
         style="fill:#000000;stroke:#000000;stroke-width:0.264583"
         cx="146.16249"
         cy="65.037498"
         r="0.022497164" /><path
         style="opacity:1;fill:#000000;stroke:#000000;stroke-width:1.3"
         id="path12249"
         d="m 124.23016,52.223264 c -1.22272,-0.486445 6.95983,3.72268 10.3431,5.680561 6.44086,3.774643 12.08324,8.685155 17.84132,13.393768 0.48327,0.566193 3.8135,3.019397 2.09015,1.135603 -6.49765,-5.216222 -12.69555,-10.884458 -19.93139,-15.093262 -1.51183,-0.674406 -10.92057,-6.222092 -10.34318,-5.11667 z"
         sodipodi:nodetypes="cccccc" /><path
         style="opacity:1;fill:#000000;stroke:#000000;stroke-width:1.3"
         id="path12251"
         d="m 137.8414,68.638071 c 4.33436,3.750791 8.83863,7.299373 13.41119,10.749655 1.17534,-0.331073 -2.18103,-1.859911 -2.62215,-2.596222 -7.53391,-5.6706 -14.40253,-12.176658 -22.08982,-17.652985 -1.9113,-1.281751 -5.86255,-4.385733 -5.42522,-4.020371 2.87011,2.733301 12.63417,9.937349 16.726,13.519923 z"
         sodipodi:nodetypes="cccccc" /><path
         style="opacity:1;fill:#000000;stroke:#000000;stroke-width:1.3"
         id="path12253"
         d="m 116.64846,58.473903 c 6.01613,4.570592 11.1284,10.190885 17.06033,14.865976 3.45271,3.06146 6.85339,6.204653 10.75619,8.700548 0.82181,1.00609 2.06369,0.666106 0.53525,-0.190154 -3.70576,-2.485928 -7.08793,-5.3892 -10.36938,-8.402063 -5.24658,-4.182683 -9.96804,-8.961989 -15.11089,-13.263765 -0.84319,-0.363187 -3.52737,-2.374112 -2.8715,-1.710542 z"
         sodipodi:nodetypes="ccccccc" /><path
         style="opacity:1;fill:#000000;stroke:#000000;stroke-width:1.3"
         id="path12255"
         d="m 112.28863,63.682898 c 6.44361,4.662711 12.58688,9.72965 18.59326,14.941714 1.7616,0.93494 6.13641,4.290465 5.23573,3.513198 -2.15896,-1.90606 -4.69521,-3.561314 -6.85527,-5.5513 -5.40148,-4.608652 -10.81317,-9.266885 -16.77835,-13.138049 -0.39823,-0.269459 -0.34899,0.125664 -0.19537,0.234437 z"
         sodipodi:nodetypes="cccccc" /><path
         style="opacity:1;fill:#000000;stroke:#000000;stroke-width:1.3"
         id="path12257"
         d="m 110.65269,67.979149 c 5.65924,3.292281 9.94455,8.395599 14.13149,13.320496 0.42111,0.86328 3.51785,3.17957 1.63187,1.097079 -3.46819,-3.694639 -6.48971,-7.826718 -10.41574,-11.079519 -2.29782,-1.282204 -5.83793,-3.433808 -5.34766,-3.338056 z"
         sodipodi:nodetypes="sccccs" /></g><g
       id="g12474"><path
         style="fill:#000000;stroke:#000000;stroke-width:1.3"
         id="path290"
         d="m 84.588614,66.468637 c -0.58576,-5.256509 -1.062808,-10.530723 -0.819966,-15.822341 -0.150265,-3.784956 0.320575,-8.311149 3.870265,-10.505161 2.829331,-3.001027 9.812208,-3.913927 9.578866,1.874213 -0.167668,3.982848 -1.612736,7.808993 -1.493309,11.836409 -0.450977,6.600817 -2.550347,13.041556 -1.979342,19.711208 -0.04043,4.132466 0.761187,8.440709 -0.503845,12.442626 -2.566199,5.55329 -9.147061,7.048767 -14.551682,8.374408 -6.509392,1.091008 -12.558101,4.238186 -19.239816,4.366633 -4.078298,0.377694 -8.044891,-0.6987 -12.015976,-1.366697 -5.662443,-0.444645 -11.109973,2.934905 -16.751656,1.145441 -3.563587,-0.632852 -6.804297,-4.185814 -5.364619,-7.914139 1.100369,-2.353277 0.454852,-2.316787 -0.525731,-0.164885 -1.214071,3.713841 1.674457,7.770426 5.396832,8.435619 4.715648,1.664719 9.552643,-0.292511 14.22427,-0.998861 5.547184,-0.279177 10.913284,2.19182 16.482861,1.275283 6.692758,-0.616989 12.871683,-3.574883 19.474414,-4.682522 4.658112,-1.197188 9.874976,-2.776681 12.678381,-6.979243 2.727396,-5.581852 0.620451,-11.924528 1.149532,-17.838199 0.297378,-5.881061 1.890622,-11.601917 2.030867,-17.495147 0.214335,-3.315351 1.020187,-6.552524 1.546138,-9.811946 0.339142,-4.432693 -4.592253,-6.567251 -7.935127,-4.095168 -4.218702,1.820696 -7.260122,6.389006 -6.529742,11.048418 -0.105444,5.341076 -0.222154,10.754841 0.926081,16.004039 0.07231,0.254985 -0.318518,1.375708 0.352304,1.160012 z"
         sodipodi:nodetypes="cccccccccccccccccccccccccccccccccccccccccccccccccccccccccccccccccccccccccccccccccccccccccccccccccccccccccccsccccccccccccccccccccccccccccccccccccccccccccccccccccccccccccccccccccccccccccccccccccccccccccccccccccccccccc" /><path
         style="fill:#000000;stroke:#000000;stroke-width:1.3"
         id="path292"
         d="m 26.514414,87.841091 c -0.78258,-1.632335 -1.608744,-3.344092 -1.538648,-5.202855 -0.0062,-1.94657 0.640165,-3.950039 2.041521,-5.342617 1.307792,-1.335201 3.032818,-2.169302 4.827444,-2.628634 1.325869,-0.334393 2.764271,-0.714128 4.105856,-0.270957 1.603519,0.666688 2.557739,2.301896 3.072762,3.888048 0.625252,2.070363 1.085663,4.342056 0.382977,6.451863 -0.09166,0.661774 -0.76062,1.382547 -0.719713,1.925029 0.686743,0.113758 0.710192,-1.23394 1.032017,-1.701709 0.798618,-2.20926 0.320842,-4.615994 -0.346058,-6.795211 -0.532434,-1.646641 -1.53836,-3.301163 -3.165601,-4.040878 -1.303631,-0.522092 -2.749015,-0.190035 -4.06607,0.117005 -1.882019,0.45224 -3.729616,1.235034 -5.13112,2.605798 -1.22189,1.135603 -1.991457,2.692759 -2.243206,4.334877 -0.341178,1.82303 -0.04394,3.730806 0.7678,5.3929 0.322727,0.361232 0.365249,1.644705 0.957532,1.278606 l 0.02252,-0.01126 z" /><path
         style="fill:#000000;stroke:#000000;stroke-width:1.3"
         id="path296"
         d="m 26.764496,88.682837 c 5.071219,-0.149673 9.92867,-1.909453 14.983277,-2.26124 8.431648,-1.234615 16.580105,-3.856679 24.63649,-6.560343 2.819727,-0.966484 5.70256,-2.233619 7.894197,-4.237678 0.843997,-0.774537 -3.094952,2.065486 -4.80152,2.617338 -4.662274,2.060002 -9.603397,3.392961 -14.453712,4.928703 -5.362619,1.511746 -10.807298,2.822227 -16.362476,3.364373 -3.977547,0.545065 -7.863753,1.771041 -11.896256,1.883171 z"
         sodipodi:nodetypes="ccccccccc" /><path
         style="fill:#000000;stroke:#000000;stroke-width:1.3"
         id="path300"
         d="m 31.445242,87.51585 c -0.622196,-0.638002 -1.169844,-1.373651 -1.440234,-2.233021 -0.207144,-0.624265 -0.392481,-1.26747 -0.434965,-1.9267 -0.07968,-0.695559 0.145648,-1.40352 0.579986,-1.947781 0.199058,-0.07772 0.387512,-0.529706 0.07296,-0.501036 -0.356856,0.135813 -0.513737,0.539205 -0.707308,0.842306 -0.282346,0.541501 -0.395372,1.159166 -0.336089,1.76619 0.07485,0.79333 0.277941,1.576345 0.571008,2.316738 0.302353,0.760301 0.821759,1.409082 1.390263,1.987696 0.101457,-0.101462 0.202946,-0.202938 0.304383,-0.304392 z" /><path
         style="fill:#000000;stroke:#000000;stroke-width:1.3"
         id="path302"
         d="m 27.35445,75.426209 c -3.270944,-4.116781 -3.115614,-9.786315 -1.719014,-14.592017 1.599731,-6.013433 4.11333,-12.037038 8.823524,-16.292843 6.210464,-6.09455 14.880955,-8.858149 23.365026,-9.76728 6.471777,-0.65651 13.41007,-0.529703 19.327688,2.484348 2.797393,1.593464 5.166118,3.807503 7.512675,5.982899 0.204537,-1.369467 -2.929987,-2.863071 -4.014982,-4.150116 -5.644215,-4.799633 -13.49008,-5.363776 -20.572948,-5.002904 -8.547628,0.684122 -17.329244,2.89579 -24.082347,8.431985 -4.340583,3.493717 -7.593858,8.224321 -9.354165,13.507703 -1.944513,5.505769 -3.781882,11.856669 -1.059441,17.433188 0.408731,0.394224 1.129262,2.804766 1.773984,1.965037 z" /><path
         style="fill:#000000;stroke:#000000;stroke-width:1.3"
         id="path304"
         d="m 34.235323,61.726492 c -0.827511,-1.980636 -1.297459,-4.320547 -0.178999,-6.293688 1.847525,-3.842074 5.527045,-6.389221 9.16619,-8.373238 4.694208,-2.653921 9.981492,-4.067241 15.279984,-4.880684 3.71719,-0.330828 7.658629,-0.314356 11.139233,1.19509 3.345103,1.708565 5.535489,5.174697 6.091973,8.8428 0.589915,2.936406 1.217778,5.936576 0.851261,8.944623 0.691906,0.423098 0.449228,-2.108623 0.480614,-2.86359 -0.326611,-3.212787 -0.794793,-6.465215 -1.926092,-9.503338 -1.497893,-3.516045 -4.79594,-6.296912 -8.643492,-6.773975 -5.308978,-0.96103 -10.721501,-0.006 -15.820233,1.547667 -4.180273,1.220809 -8.148687,3.208572 -11.684708,5.743974 -2.708382,2.085219 -5.418459,4.773613 -5.941527,8.303817 -0.06965,1.292972 0.13017,3.785342 1.185806,4.110535 z" /><path
         style="fill:#000000;stroke:#000000;stroke-width:1.3"
         id="path306"
         d="m 38.625592,61.685503 c -0.413352,-0.916597 -1.295111,-4.475149 0.273637,-6.138033 2.57813,-3.262604 6.492626,-4.988369 10.234161,-6.542442 4.881521,-1.943369 10.361952,-2.570804 15.514543,-1.438194 3.018485,0.695697 6.00976,2.582762 7.064439,5.629381 1.094161,2.801828 1.479535,6.032754 0.383394,8.890889 0.611015,0.962175 0.856512,-1.40164 1.009414,-1.914634 0.386546,-2.962227 -0.300645,-6.055819 -1.742915,-8.65782 -1.895148,-3.036418 -5.552332,-4.394468 -8.971132,-4.743814 -5.106224,-0.579659 -10.323847,0.380419 -14.978745,2.526596 -3.333942,1.469556 -6.711538,3.220302 -8.962025,6.185853 -1.531164,1.794949 -1.394945,4.51652 -0.173583,6.434762 0.322518,0.524053 0.593494,0.119964 0.348812,-0.232544 z"
         sodipodi:nodetypes="ccccccccccccc" /><path
         style="fill:#000000;stroke:#000000;stroke-width:1.3"
         id="path322"
         d="m 52.898426,48.134211 c -1.887947,3.584583 -3.515988,7.380453 -4.048611,11.428408 -0.134672,0.40655 -0.372504,2.967665 0.01729,1.497757 0.458304,-4.528759 2.302979,-8.767626 4.319365,-12.798076 -0.096,-0.0427 -0.192152,-0.08533 -0.288049,-0.128089 z" /><path
         style="fill:#000000;stroke:#000000;stroke-width:1.3"
         id="path324"
         d="m 58.653457,47.836634 c -1.771866,3.428652 -3.320458,7.029399 -4.121961,10.817852 -0.170597,0.497437 -0.495991,2.969325 0.05508,1.562139 0.695414,-4.230722 2.391215,-8.233988 4.295487,-12.049903 0.264397,-0.198154 -0.139052,-0.231467 -0.228608,-0.330088 z" /><path
         style="fill:#000000;stroke:#000000;stroke-width:1.3"
         id="path326"
         d="m 64.984063,48.59797 c -2.169064,3.05778 -3.548343,6.632452 -4.452448,10.255237 0.08486,0.530585 -0.857489,2.161616 -0.237043,2.063614 1.044074,-4.219491 2.400554,-8.483301 4.957447,-12.050891 -0.08931,-0.08931 -0.178677,-0.178665 -0.267956,-0.26796 z" /><path
         style="fill:#000000;stroke:#000000;stroke-width:1.3"
         id="path328"
         d="m 70.216206,51.6407 c -2.086841,2.033109 -3.042818,4.902506 -3.885518,7.621068 -0.287807,0.436448 -0.413343,2.356798 0.08901,1.122256 0.677199,-2.764416 1.641884,-5.562079 3.402873,-7.835451 0.138628,-0.341932 0.920984,-0.574227 0.393631,-0.907873 z" /><path
         style="fill:#000000;stroke:#000000;stroke-width:1.3"
         id="path332"
         d="m 45.724302,50.590232 c -1.647177,3.366872 -2.344317,7.121975 -2.727459,10.825243 -0.240949,0.528992 0.297563,1.939215 0.341271,0.687434 0.202845,-3.463789 0.932555,-6.917775 2.166966,-10.163921 -0.02041,-0.441447 0.926137,-1.16686 0.219222,-1.348756 z" /><path
         style="fill:#000000;stroke:#000000;stroke-width:1.3"
         id="path334"
         d="m 92.775772,38.049596 c 0.03798,2.262713 -0.62475,4.455193 -0.872718,6.689733 -0.207885,1.520955 -0.506301,3.042161 -0.498653,4.582422 0.03244,0.988149 0.473584,1.995874 1.290309,2.581926 0.742955,0.548812 1.610399,0.898865 2.434742,1.300767 0.432451,-0.517848 -0.696589,-0.487025 -0.9526,-0.817265 -0.89158,-0.430903 -1.876655,-0.965423 -2.209539,-1.968238 -0.44283,-1.064483 -0.159282,-2.239042 -0.05429,-3.341961 0.254274,-1.889163 0.541113,-3.773931 0.904488,-5.645407 0.184997,-1.129403 0.376892,-2.269583 0.322972,-3.418447 -0.121563,0.01216 -0.243196,0.02432 -0.364715,0.03647 z" /><path
         style="fill:#000000;stroke:#000000;stroke-width:1.3"
         id="path340"
         d="m 69.984082,78.802573 c 1.094747,3.26566 0.0645,6.932396 -2.09346,9.535515 -1.003929,1.164747 0.999101,-1.124796 1.384498,-1.67777 0.344524,-0.434355 1.969438,-5.941193 0.88526,-7.950026 -0.07902,0.02873 -0.09728,0.06355 -0.176298,0.09228 z"
         sodipodi:nodetypes="scccs" /><path
         style="fill:#000000;stroke:#000000;stroke-width:1.3"
         id="path342"
         d="m 80.916546,76.217925 c -0.637652,2.171396 -0.82115,4.429777 -0.677281,6.680486 -0.26454,2.228922 -2.06025,3.948511 -2.549324,6.069562 -0.223752,0.815248 1.968752,-3.315179 2.792974,-4.923783 0.517265,-1.942306 -0.210078,-4.007291 0.410316,-5.964279 0.08923,-0.490239 0.898289,-1.937666 0.02331,-1.861986 z"
         sodipodi:nodetypes="sccccss" /><path
         style="opacity:1;fill:#000000;stroke:#000000;stroke-width:1.3"
         id="path12451"
         d="m 43.733423,85.999798 c -0.574116,1.053562 -0.7677,2.296551 -0.765697,3.485999 -0.0067,0.653485 0.44907,1.56006 1.229285,1.340621 0.982575,-0.300497 1.686358,-1.176092 2.137534,-2.05975 0.342802,-1.046779 0.578597,-2.129803 0.734878,-3.219453 -0.538416,-0.07059 -0.275048,1.053877 -0.542806,1.456928 -0.200214,0.940121 -0.44887,1.915655 -1.154311,2.616705 -0.424196,0.443106 -1.228821,1.276794 -1.822966,0.678741 -0.500181,-0.843191 -0.17916,-1.876668 -0.04398,-2.7812 -0.0888,-0.5153 0.755543,-1.218517 0.227952,-1.518557 z" /><path
         style="opacity:1;fill:#000000;stroke:#000000;stroke-width:1.3"
         id="path12455"
         d="m 57.253846,82.793405 c -0.752777,0.969009 -1.024109,2.213788 -1.340167,3.377341 -0.185181,0.866977 -0.559373,1.974139 0.183647,2.678423 0.788947,0.635866 1.96724,0.291974 2.574586,-0.435146 1.084408,-1.083222 1.455457,-2.634016 1.897092,-4.050481 0.243776,-0.874577 0.400492,-1.771257 0.532433,-2.667945 -0.682319,-0.343846 -0.342812,0.962189 -0.58912,1.35354 -0.322527,1.510453 -0.752789,3.027929 -1.502567,4.386238 -0.491634,0.738746 -1.257341,1.589061 -2.24483,1.364883 -0.845855,-0.113191 -0.923358,-1.132371 -0.733637,-1.790706 0.303436,-1.404643 0.658483,-2.831345 1.402703,-4.076066 -0.06005,-0.04668 -0.120081,-0.09344 -0.18014,-0.140081 z" /></g></g></svg>
