<?xml version="1.0" encoding="UTF-8" standalone="no"?>
<!-- Created with Inkscape (http://www.inkscape.org/) -->

<svg
   width="99.519577mm"
   height="83.630562mm"
   viewBox="0 0 99.519564 83.630561"
   version="1.1"
   id="svg23279"
   xml:space="preserve"
   inkscape:version="1.2.2 (b0a84865, 2022-12-01)"
   sodipodi:docname="grapheme-KIN.svg"
   xmlns:inkscape="http://www.inkscape.org/namespaces/inkscape"
   xmlns:sodipodi="http://sodipodi.sourceforge.net/DTD/sodipodi-0.dtd"
   xmlns="http://www.w3.org/2000/svg"
   xmlns:svg="http://www.w3.org/2000/svg"><sodipodi:namedview
     id="namedview23281"
     pagecolor="#ffffff"
     bordercolor="#666666"
     borderopacity="1.0"
     inkscape:showpageshadow="2"
     inkscape:pageopacity="0.0"
     inkscape:pagecheckerboard="0"
     inkscape:deskcolor="#d1d1d1"
     inkscape:document-units="mm"
     showgrid="false"
     inkscape:zoom="1.9171156"
     inkscape:cx="163.26611"
     inkscape:cy="99.107221"
     inkscape:window-width="2560"
     inkscape:window-height="1296"
     inkscape:window-x="0"
     inkscape:window-y="25"
     inkscape:window-maximized="0"
     inkscape:current-layer="layer1" /><defs
     id="defs23276" /><g
     inkscape:label="Layer 1"
     inkscape:groupmode="layer"
     id="layer1"
     transform="translate(-14.025925,-26.605606)"><g
       id="g24173"><path
         id="path24138"
         style="opacity:1;fill:#000000;stroke:#000000;stroke-width:2.05"
         d="m 60.713607,45.743461 c -4.677728,0.140261 -9.914147,0.182358 -13.711825,3.300576 -1.988906,1.889802 -4.426044,3.385235 -5.857244,5.821331 -2.426965,4.044861 -3.398135,8.777705 -4.182662,13.369512 -0.502619,4.135312 0.692661,8.425086 2.927943,11.899859 2.561285,3.745554 6.909272,5.585402 11.204341,6.494856 6.325754,1.564783 12.942671,2.24013 19.409658,1.168638 4.11017,-0.376413 8.068389,-1.656765 12.005393,-2.818404 4.9372,-1.651327 9.309397,-5.482661 10.637111,-10.645225 1.315583,-5.711246 1.823345,-12.256145 -1.43254,-17.438335 -2.840057,-4.29894 -7.060844,-7.858163 -12.18321,-8.983304 C 73.388964,46.46717 67.024537,45.732457 60.713607,45.743461 Z m -0.0041,1.015959 c 6.378912,0.0055 12.791941,0.718798 18.984298,2.256203 5.317133,1.307121 9.662446,5.369185 12.105935,10.164795 2.008907,4.818868 1.497391,10.2943 0.257719,15.237796 -1.408227,5.021357 -5.897205,8.522827 -10.751447,9.946788 -4.147288,1.165562 -8.306158,2.397944 -12.632399,2.665432 -7.162844,0.95065 -14.441771,-0.339073 -21.290885,-2.440489 -4.483086,-1.452366 -7.90455,-5.351332 -8.982976,-9.907153 -1.732491,-5.092373 0.07908,-10.455864 1.529588,-15.384591 0.991776,-3.216936 2.992822,-6.202554 5.691642,-8.148344 1.694423,-0.203647 3.110534,-2.951698 5.319051,-3.163271 3.128964,-1.027048 6.498388,-1.187989 9.769474,-1.227166 z" /><path
         style="opacity:1;fill:#000000;stroke:#000000;stroke-width:2.05"
         id="path24140"
         d="m 62.851796,46.700754 c 1.121094,0.862544 1.764694,2.153981 2.285487,3.435744 0.8964,2.023561 1.390427,4.245464 1.243055,6.463768 0.02398,0.344064 -0.199321,1.409185 0.335727,0.843636 -0.04932,-1.925924 0.521613,-3.839117 1.565863,-5.453873 0.919888,-1.44768 2.082387,-2.756916 3.452499,-3.792075 0.350485,-0.08757 0.905913,-0.700589 0.320725,-0.683254 -1.501566,1.018457 -2.766432,2.358683 -3.823756,3.825844 -1.246742,1.796449 -2.061601,3.97905 -1.878367,6.190143 0.672431,0.41817 0.296362,-0.781221 0.433642,-1.148582 0.176532,-2.433011 -0.490398,-4.841401 -1.514633,-7.029591 -0.479398,-1.135153 -1.153663,-2.229585 -2.167871,-2.960259 -0.0841,0.102825 -0.168356,0.205712 -0.252371,0.308499 z" /><path
         style="opacity:1;fill:#000000;stroke:#000000;stroke-width:2.05"
         id="path24142"
         d="m 92.421127,61.86892 c -1.576528,1.689842 -3.485432,3.042095 -5.500344,4.15833 -0.922972,0.519939 -1.927076,0.865647 -2.888477,1.30189 -1.97e-4,0.86634 1.050303,0.18467 1.595559,0.306732 1.179581,0.113556 2.260582,0.67453 3.309004,1.189718 1.260193,0.628445 2.422955,1.466151 3.343722,2.53759 0.455334,0.05401 0.496706,-0.549706 0.05141,-0.707488 -1.47843,-1.585231 -3.484821,-2.566173 -5.508417,-3.262773 -0.734912,-0.268787 -1.535057,-0.300615 -2.291942,-0.109557 -0.500196,-0.115058 -0.340089,0.763391 0.09175,0.316844 1.457134,-0.539415 2.884126,-1.180207 4.167127,-2.065558 1.265456,-0.87451 2.496013,-1.822999 3.553115,-2.94508 0.276622,-0.259816 0.495822,-0.511706 0.07749,-0.720577 z" /><path
         style="opacity:1;fill:#000000;stroke:#000000;stroke-width:2.05"
         id="path24144"
         d="m 61.463388,87.328504 c 1.5922,-1.857067 2.710583,-4.082905 3.461706,-6.402085 0.242491,-0.683629 0.475922,-1.372919 0.708233,-2.058169 0.325309,-0.298291 -0.379935,-0.184689 -0.05693,0.132446 0.731971,1.48977 1.712675,2.846458 2.796877,4.099381 0.701523,0.875169 1.469962,1.699715 2.36555,2.37915 0.323704,0.213218 0.827505,1.031553 1.205209,0.605453 0.321564,-0.445094 -0.556778,-0.713726 -0.818513,-0.951532 -1.307511,-0.853761 -2.204807,-2.171957 -3.209887,-3.338676 -0.740157,-0.939469 -1.425902,-1.932675 -1.971851,-2.998155 -0.09609,-0.684622 -0.668127,-0.375352 -0.729473,0.145651 -0.769328,1.896175 -1.34213,3.88794 -2.39996,5.656349 -0.489841,0.860828 -1.0668,1.667278 -1.666665,2.453943 0.105236,0.09208 0.210473,0.184163 0.315709,0.276244 z" /><path
         style="opacity:1;fill:#000000;stroke:#000000;stroke-width:2.05"
         id="path24146"
         d="m 38.774716,62.228271 c 0.56983,1.261801 1.287958,2.481862 2.328794,3.413765 1.299812,1.30448 2.935975,2.195676 4.592031,2.964106 0.495408,0.169443 -0.3032,0.174129 -0.472547,0.471889 -1.80337,1.155027 -3.40769,2.595849 -4.931781,4.092576 -0.570864,0.602498 -1.11081,1.23767 -1.59544,1.911728 -0.139117,0.690927 0.718665,0.346819 0.794541,-0.122895 1.459695,-1.801863 3.239576,-3.315156 5.068088,-4.728514 0.554877,-0.44258 1.236147,-0.732095 1.722886,-1.25387 0.395788,-0.725704 -0.687014,-0.83821 -1.115429,-1.12261 -1.896532,-0.886474 -3.659649,-2.148743 -4.913106,-3.841855 -0.418538,-0.627845 -0.768668,-1.297729 -1.14835,-1.949159 -0.109895,0.05495 -0.219798,0.109904 -0.329687,0.164839 z" /><path
         id="path24150"
         style="opacity:1;fill:#000000;stroke:#000000;stroke-width:2.05"
         d="m 65.885901,65.355184 c -0.973963,0.109133 -1.760388,0.788802 -2.361103,1.516037 -0.472899,0.617461 -0.841695,1.436628 -0.583092,2.218625 0.181162,0.538254 0.605261,0.971603 1.07073,1.281001 1.005422,0.620241 2.302093,0.656515 3.391334,0.245742 1.112022,-0.474344 1.705078,-1.840647 1.365862,-2.988691 -0.396358,-2.499293 -3.049051,-2.363232 -2.098419,-2.332775 0.785817,0.240875 1.502514,1.929214 1.61757,2.737997 0.192063,1.003203 -0.493017,2.09874 -1.510234,2.295934 -0.94364,0.235426 -2.000784,0.06833 -2.791427,-0.507794 -0.468082,-0.3468 -0.809555,-0.928224 -0.687476,-1.524226 0.09255,-0.54046 0.450088,-0.991715 0.80554,-1.390289 0.508579,-0.520268 1.112136,-1.009717 1.849956,-1.135052 l -0.06924,-0.41651 z"
         sodipodi:nodetypes="scccccccccccccs" /><path
         id="path24154"
         style="opacity:1;fill:#000000;stroke:#000000;stroke-width:2.05"
         d="m 72.532096,39.782502 c -6.786511,0.156804 -14.855506,1.072075 -21.656559,1.527039 -0.972155,0.258837 -2.100233,0.40256 -3.088184,1.0604 -2.743304,1.162281 -6.349777,2.807134 -7.696687,3.644739 -3.894815,2.721438 -6.532733,7.017382 -8.089429,11.438061 -1.388834,5.902248 -2.041322,12.151504 -0.375688,18.072799 1.608397,4.968463 3.242702,10.502961 7.794873,13.598653 4.745625,3.597197 10.792466,4.935088 16.666167,4.650879 6.859872,-0.324433 13.758072,0.475923 20.592541,-0.33383 C 85.545836,92.228664 94.20041,87.050863 98.186861,78.851435 101.3186,71.240765 100.17707,62.598069 97.750712,54.95987 95.340063,47.662274 88.025508,43.720763 81.305204,41.085265 78.522288,39.990136 75.488739,39.83031 72.532096,39.782502 Z m -0.966349,0.680579 c 3.353014,-0.02961 6.673658,0.242945 9.851595,1.461926 6.368728,2.590543 13.352577,6.327949 15.649174,13.284977 2.388935,7.461179 3.520674,15.908048 0.496611,23.359298 -3.823166,7.872222 -12.060825,12.968775 -20.582207,14.216703 -6.745621,0.909778 -13.573203,0.05362 -20.351729,0.379822 -5.648616,0.26249 -11.500259,-0.750971 -16.193844,-4.071069 -3.481644,-2.149353 -5.54772,-5.803935 -6.814571,-9.589079 -2.323514,-5.516572 -2.946837,-11.657817 -1.859318,-17.539498 0.377169,-5.242876 3.019653,-10.026284 6.556189,-13.806909 2.740116,-2.403648 6.910271,-3.856339 10.304798,-5.638416 2.928204,-0.935551 10.872665,-1.453141 12.896887,-1.706355 3.30791,0.01038 6.693401,-0.321786 10.046415,-0.3514 z"
         sodipodi:nodetypes="cccccccccccccscccccccccccs" /><path
         id="path24158"
         style="opacity:1;fill:#000000;stroke:#000000;stroke-width:2.85;stroke-dasharray:none"
         d="m 69.671716,28.034465 c -6.779445,0.104126 -13.825221,0.316994 -20.328473,1.836584 -8.061027,1.262636 -16.801614,3.761098 -22.039153,10.494741 -5.002146,5.492818 -9.162203,12.009743 -10.29324,19.481725 -1.706876,10.975593 -3.117325,22.930455 2.131134,33.209859 2.76496,5.885142 7.7241,10.915556 14.230667,12.379986 13.203672,4.1056 27.24722,3.6943 40.880698,2.72293 10.161976,-1.03243 20.805815,-4.24247 27.716601,-12.215018 5.92666,-5.553352 9.11103,-13.447796 9.59633,-21.477067 0.72961,-9.390473 1.10376,-19.064086 -1.30366,-28.252553 C 108.14783,39.718326 102.60476,34.603666 96.386365,32.019751 87.785424,29.367128 78.680236,27.946482 69.671716,28.034465 Z m -0.0021,0.817004 c 8.929495,-0.07986 17.890856,1.314543 26.419059,3.928448 7.110475,2.930715 13.221585,9.329348 14.273385,17.157597 1.49332,10.440368 1.41082,21.215601 -0.71533,31.558938 -2.12966,8.56341 -8.54553,15.493715 -15.774059,20.208128 -12.685863,7.07253 -27.776741,6.44125 -41.825772,6.23724 C 43.788507,107.4409 35.28058,106.17752 27.833414,102.40923 19.624439,96.822503 16.221534,86.340411 16.11471,76.782474 16.619781,66.586657 16.815996,55.42333 23.047307,46.807193 c 3.795252,-5.309281 7.987451,-10.932002 14.406564,-13.16136 3.310278,-1.38328 7.069447,-2.475979 10.436164,-2.899817 3.41125,-0.100047 7.899417,-1.682332 11.816333,-1.525482 3.317823,-0.229547 6.636895,-0.359971 9.963248,-0.369065 z" /></g></g></svg>
