<?xml version="1.0" encoding="UTF-8" standalone="no"?>
<!-- Created with Inkscape (http://www.inkscape.org/) -->

<svg
   width="83.688141mm"
   height="75.221764mm"
   viewBox="0 0 83.688141 75.221764"
   version="1.1"
   id="svg19225"
   xml:space="preserve"
   inkscape:version="1.2.2 (b0a84865, 2022-12-01)"
   sodipodi:docname="grapheme-CHAN.svg"
   xmlns:inkscape="http://www.inkscape.org/namespaces/inkscape"
   xmlns:sodipodi="http://sodipodi.sourceforge.net/DTD/sodipodi-0.dtd"
   xmlns="http://www.w3.org/2000/svg"
   xmlns:svg="http://www.w3.org/2000/svg"><sodipodi:namedview
     id="namedview19227"
     pagecolor="#ffffff"
     bordercolor="#666666"
     borderopacity="1.0"
     inkscape:showpageshadow="2"
     inkscape:pageopacity="0.0"
     inkscape:pagecheckerboard="0"
     inkscape:deskcolor="#d1d1d1"
     inkscape:document-units="mm"
     showgrid="false"
     inkscape:zoom="1.9171156"
     inkscape:cx="260.28686"
     inkscape:cy="140.31496"
     inkscape:window-width="2560"
     inkscape:window-height="1296"
     inkscape:window-x="0"
     inkscape:window-y="25"
     inkscape:window-maximized="0"
     inkscape:current-layer="layer1" /><defs
     id="defs19222" /><g
     inkscape:label="Layer 1"
     inkscape:groupmode="layer"
     id="layer1"
     transform="translate(-55.515707,-99.8726)"><path
       id="path20200"
       style="opacity:1;fill:#000000;fill-opacity:1;stroke:#000000;stroke-width:1.75;stroke-dasharray:none;stroke-opacity:1"
       d="m 96.020496,100.79747 c -7.209078,0.12616 -14.449723,0.33885 -21.6054,1.20968 -2.874858,0.56073 -6.296818,1.90741 -8.377783,3.25768 -5.945695,4.76936 -7.810588,12.67168 -9.034974,19.8463 -1.433575,9.89625 0.06185,19.89399 0.468784,29.81362 -0.0041,4.23167 0.925507,8.65916 4.113739,11.67071 2.861552,3.69063 7.476867,5.06331 11.906767,5.71696 11.294412,1.89726 22.800721,1.66823 34.212401,1.8991 6.74864,0.0916 13.79488,-0.59521 19.82685,-3.82713 6.49788,-4.35571 9.31647,-12.42421 9.76852,-19.94853 0.79925,-10.27775 2.02487,-20.82012 -0.41317,-30.96236 -1.70142,-6.57726 -6.32784,-12.48548 -12.8663,-14.76113 -7.57187,-3.35092 -15.92861,-4.20456 -24.125758,-3.91079 -1.291051,-0.002 -2.58359,-0.003 -3.873676,-0.004 z m -5.17e-4,1.01027 c 7.938771,-0.0203 16.077441,-0.35223 23.671021,2.39697 5.94325,1.72685 11.88514,5.08117 14.45268,11.00729 4.17991,8.68983 3.11731,18.6696 2.71318,27.99811 -0.60756,7.87296 -0.72251,16.49007 -6.06079,22.86875 -3.84158,5.27328 -10.83445,6.21084 -16.82869,6.99943 -10.29252,0.40585 -20.607148,-0.0422 -30.888359,-0.55055 -5.824696,-0.63132 -11.96247,-0.87931 -17.316741,-3.47078 -3.871285,-2.70519 -7.297546,-6.82935 -7.194785,-11.80969 -0.468035,-9.64122 -1.68009,-19.30488 -1.01854,-28.95999 0.913017,-7.35139 2.325856,-15.20158 7.412984,-20.92844 2.528783,-1.41236 5.552375,-3.23627 8.586039,-4.14029 5.111012,-1.08199 10.426353,-0.91163 15.630571,-1.26094 2.280026,-0.063 4.561398,-0.13203 6.84143,-0.14987 z"
       sodipodi:nodetypes="ccccccccccccccccccccccccccccc" /><path
       style="opacity:1;fill:#000000;fill-opacity:1;stroke:#000000;stroke-width:0.649999;stroke-opacity:1"
       id="path20204"
       d="m 57.092587,129.02199 c 7.006125,-0.0603 14.017474,0.36482 21.028131,0.3804 11.075249,0.38184 22.139562,-0.53856 33.205492,-0.76536 5.45067,0.11025 10.90012,0.22499 16.34842,0.31202 3.46102,0.12632 7.0382,0.698 10.41854,0.64189 -0.62622,-1.68197 -4.76603,-0.53737 -6.66301,-1.19608 -5.51259,-0.53001 -11.04975,-0.22699 -16.57454,-0.49499 -9.12976,-0.21708 -18.242194,0.65369 -27.370243,0.75961 -9.721024,0.20286 -19.444065,-0.2935 -29.164892,-0.31253 -0.525135,0.21004 -1.683533,-0.29253 -1.227898,0.67504 z" /><path
       style="opacity:1;fill:#000000;fill-opacity:1;stroke:#000000;stroke-width:0.649999;stroke-opacity:1"
       id="path20217"
       d="m 56.663833,134.09187 c 6.229466,0.0813 12.454618,0.11499 18.680709,-0.17011 12.196865,-0.28939 24.386823,1.17888 36.580528,0.3097 7.74146,-0.46421 15.49102,-0.14788 23.22907,0.18804 1.03831,0.17386 4.16826,0.23308 1.75315,-0.91509 -8.4755,-0.13214 -15.28957,-0.79693 -23.76672,-0.2725 -10.37716,0.72603 -20.765046,0.0328 -31.141681,-0.271 -7.897354,-0.12838 -15.782999,0.52629 -23.680882,0.29448 -0.733438,0.18309 -2.084811,-0.40114 -1.654174,0.83648 z"
       sodipodi:nodetypes="ccccccccc" /><path
       style="opacity:1;fill:#000000;fill-opacity:1;stroke:#000000;stroke-width:0.649999;stroke-opacity:1"
       id="path20221"
       d="m 83.731927,133.06315 c -2.114212,0.81583 -3.535591,3.45897 -2.421757,5.58194 1.405575,2.20879 4.294672,2.66821 6.710104,2.41951 1.833889,-0.19821 4.049361,-0.84409 4.675805,-2.80876 0.571882,-1.88503 -0.56195,-3.90661 -2.270307,-4.74678 -1.297113,0.86708 0.652721,1.13082 1.032457,2.02181 0.933487,1.29324 0.569659,3.37135 -0.988675,3.996 -2.035789,0.93481 -4.481577,1.05238 -6.592263,0.29502 -1.435598,-0.47997 -2.687941,-1.93585 -2.175776,-3.51848 0.03067,-1.37636 1.788713,-2.11712 2.206204,-2.88864 -0.05857,-0.11717 -0.117316,-0.23457 -0.175792,-0.35162 z" /><path
       style="opacity:1;fill:#000000;fill-opacity:1;stroke:#000000;stroke-width:0.649999;stroke-opacity:1"
       id="path20225"
       d="m 96.874202,133.89616 c -2.241893,0.52508 -3.969358,2.66328 -4.077895,4.94302 0.139512,1.84542 2.167427,2.65807 3.769646,2.81541 2.292216,0.1452 4.778937,-0.001 6.749557,-1.30161 1.73075,-1.19219 1.49501,-3.75552 0.25185,-5.21412 -0.34905,-0.72691 -2.08835,-1.81131 -1.97093,-0.43191 1.75952,0.65969 2.91793,3.24673 1.5762,4.7955 -1.70407,1.43516 -4.102472,1.52656 -6.230821,1.48932 -1.351381,-0.095 -3.279583,-0.57452 -3.483974,-2.17016 0.116812,-1.9066 1.516293,-3.66911 3.338158,-4.2537 0.526866,-0.085 0.130245,-0.37659 0.07821,-0.67175 z" /><path
       style="opacity:1;fill:#000000;fill-opacity:1;stroke:#000000;stroke-width:0.649999;stroke-opacity:1"
       id="path20227"
       d="m 108.09519,133.83142 c -1.68348,0.44362 -3.43933,1.59286 -3.91346,3.35399 -0.38865,1.62415 1.22229,2.70238 2.46944,3.32723 2.65737,1.42369 6.21623,1.66704 8.76076,-0.12688 1.65318,-1.33167 1.19188,-4.05242 -0.26144,-5.36034 -0.62832,-0.64754 -2.83862,-2.36437 -2.73864,-0.59375 1.80945,0.50343 3.53461,2.29166 3.05507,4.2938 -0.55615,1.58521 -2.53203,1.96348 -4.01454,2.08617 -2.30146,0.14869 -4.72768,-0.59287 -6.3404,-2.28371 -0.85266,-1.2392 0.38072,-2.58584 1.39257,-3.23958 0.51479,-0.6563 2.12561,-0.38386 1.59064,-1.45693 z" /><path
       style="opacity:1;fill:#000000;fill-opacity:1;stroke:#000000;stroke-width:0.649999;stroke-opacity:1"
       id="path20229"
       d="m 57.534899,144.75685 c 3.112105,-0.68075 6.397303,0.26634 9.231307,1.56699 3.793397,1.90604 5.244833,6.11192 7.400553,9.45011 2.02552,3.42615 5.944937,4.5891 9.690917,4.80856 4.766551,0.28777 9.553494,0.22711 14.326052,0.39974 5.125152,-0.34569 10.242062,-0.83427 15.376542,-1.03433 4.39103,-0.20391 7.84823,-3.4465 9.83358,-7.14025 2.13955,-3.69758 5.7362,-7.47865 10.367,-7.08702 0.88289,0.15388 4.15523,1.31029 3.13014,-0.20058 -2.68138,-0.87338 -5.6713,-0.99931 -8.18917,0.45472 -3.99552,2.0801 -5.78101,6.36112 -8.48054,9.6879 -2.44238,2.9345 -6.39382,3.63921 -10.01846,3.56879 -5.7551,0.17091 -11.4766,1.23226 -17.24422,0.72776 -5.232917,-0.28374 -10.892061,0.6698 -15.683497,-1.9229 -3.998738,-3.09578 -4.665454,-8.84519 -9.003345,-11.63837 -2.845766,-1.87443 -6.41719,-2.71833 -9.791882,-2.46589 -0.544868,0.25148 -1.432553,-0.0365 -0.944977,0.82477 z" /><path
       style="opacity:1;fill:#000000;fill-opacity:1;stroke:#000000;stroke-width:0.649999;stroke-opacity:1"
       id="path20231"
       d="m 65.993499,146.10116 c 1.79261,3.36514 0.901438,7.44607 2.522233,10.89974 1.184061,3.15216 3.75408,5.86777 7.162824,6.49837 6.440151,1.63358 13.153816,1.67438 19.75888,1.81972 5.947044,-0.0841 11.892394,-0.39279 17.835234,-0.46427 5.58308,-0.39609 11.45415,-3.39748 13.37367,-8.96164 0.96313,-2.07011 1.38064,-6.49378 -0.16284,-7.7028 -0.9847,1.5806 0.81404,4.75234 -0.51222,6.77761 -1.48819,4.92648 -6.27664,8.11752 -11.23058,8.71639 -4.06606,0.54124 -8.1954,0.25379 -12.28591,0.56626 -7.976839,0.24501 -16.019047,0.25574 -23.919356,-0.9868 -3.13327,-0.55784 -6.666781,-1.48896 -8.282791,-4.5314 -2.335006,-3.36901 -1.918984,-7.63461 -2.911888,-11.41862 -0.330659,-0.54207 -0.523378,-2.14021 -1.347256,-1.21256 z" /><path
       style="opacity:1;fill:#000000;fill-opacity:1;stroke:#000000;stroke-width:0.649999;stroke-opacity:1"
       id="path20233"
       d="m 78.487954,149.23905 c -0.15999,2.76173 -1.652315,5.41425 -3.682766,7.08698 1.622427,1.05333 3.367543,-2.98405 3.883403,-4.41323 -0.0055,-0.62003 1.175494,-3.07131 -0.200637,-2.67375 z" /><path
       style="opacity:1;fill:#000000;fill-opacity:1;stroke:#000000;stroke-width:0.649999;stroke-opacity:1"
       id="path20235"
       d="m 87.735091,149.54009 c 0.428303,4.02786 -2.130983,7.68913 -4.766867,10.45755 1.815755,0.94581 3.301415,-3.29972 4.30955,-4.65814 0.655524,-1.41336 2.393556,-5.44059 0.457317,-5.79941 z" /><path
       style="opacity:1;fill:#000000;fill-opacity:1;stroke:#000000;stroke-width:0.649999;stroke-opacity:1"
       id="path20237"
       d="m 97.106178,150.57557 c 0.603366,3.31844 0.08571,7.10306 -2.338732,9.61455 1.90606,1.22245 3.058196,-3.79539 3.314025,-5.32532 -0.01404,-0.94239 0.661396,-5.09136 -0.975293,-4.28923 z" /><path
       style="opacity:1;fill:#000000;fill-opacity:1;stroke:#000000;stroke-width:0.649999;stroke-opacity:1"
       id="path20239"
       d="m 107.15398,150.79111 c 0.1016,3.14208 -0.6775,6.23057 -2.25288,8.95452 1.68618,1.3998 2.12028,-3.45774 2.78784,-4.52154 -0.0508,-1.07992 1.18216,-4.68884 -0.53496,-4.43298 z" /><path
       style="opacity:1;fill:#000000;fill-opacity:1;stroke:#000000;stroke-width:0.649999;stroke-opacity:1"
       id="path20241"
       d="m 115.2815,151.0332 c -0.0691,2.75603 -0.0379,5.93542 -2.15541,8.01492 2.02107,1.3228 2.78362,-3.74028 2.91038,-5.30381 -0.2198,-0.75973 0.68984,-3.16618 -0.75497,-2.71111 z" /><path
       style="opacity:1;fill:#000000;fill-opacity:1;stroke:#000000;stroke-width:0.649999;stroke-opacity:1"
       id="path20243"
       d="m 71.410594,128.30546 c -0.113067,-3.43228 1.382385,-6.72316 4.251558,-8.7032 6.126491,-4.66472 14.259874,-4.96326 21.635752,-4.39239 5.698306,0.38578 11.428116,0.14583 17.118536,0.56053 2.90262,0.4656 5.85155,2.17058 6.68348,5.16395 1.1384,2.39925 1.94505,4.98058 2.10759,7.63665 2.00395,0.0125 0.13087,-3.44695 -0.0317,-4.74183 -1.1172,-2.91325 -2.10689,-6.45738 -5.28401,-7.75507 -3.88903,-1.97308 -8.35812,-1.06129 -12.54276,-1.40679 -8.06777,0.11616 -16.396235,-1.67171 -24.203089,1.17445 -4.297672,1.46364 -8.762065,4.3243 -10.113423,8.89934 0.193142,0.86803 -1.098853,3.81785 0.378046,3.56436 z" /><path
       style="opacity:1;fill:#000000;fill-opacity:1;stroke:#000000;stroke-width:0.649999;stroke-opacity:1"
       id="path20245"
       d="m 67.842322,128.44347 c -0.09574,-5.97292 3.16753,-12.50685 9.1732,-14.38052 6.393245,-2.08525 13.170472,-3.03171 19.886703,-3.1085 6.415985,0.33465 12.850785,0.31692 19.260145,0.7356 4.59147,0.84922 9.72513,3.61196 10.45835,8.6714 0.4192,2.79309 0.35731,5.63416 0.48556,8.44089 1.86657,0.15344 0.30841,-3.13227 0.76962,-4.27856 -0.0498,-3.58932 -0.6016,-7.53987 -3.54829,-9.96345 -3.22381,-2.66424 -7.44162,-4.04617 -11.61623,-3.8939 -6.12543,-0.0943 -12.2453,-0.57177 -18.370017,-0.51654 -6.311633,0.46419 -12.73812,1.24296 -18.661172,3.57487 -5.689264,2.31847 -8.836605,8.79473 -8.546583,14.7186 0.235166,9e-5 0.47705,-1.6e-4 0.708714,1.1e-4 z" /><path
       style="opacity:1;fill:#000000;fill-opacity:1;stroke:#000000;stroke-width:0.649999;stroke-opacity:1"
       id="path20247"
       d="m 102.41328,115.04579 c -4.234866,3.19822 -6.84911,8.40117 -6.641368,13.73147 1.983367,0.003 0.362075,-4.29649 1.771891,-5.72431 0.915428,-3.04724 3.129917,-5.36634 5.330057,-7.54666 -0.15353,-0.15349 -0.30705,-0.30714 -0.46058,-0.4605 z" /><path
       style="opacity:1;fill:#000000;fill-opacity:1;stroke:#000000;stroke-width:0.649999;stroke-opacity:1"
       id="path20249"
       d="m 109.59561,114.62934 c -3.88729,3.3412 -5.5991,8.59946 -6.0625,13.56979 1.93228,0.64998 0.75973,-3.90255 1.86644,-5.11864 0.90621,-2.9838 2.44211,-5.77913 4.65323,-7.99396 -0.15238,-0.15239 -0.30487,-0.30485 -0.45717,-0.45719 z" /><path
       style="opacity:1;fill:#000000;fill-opacity:1;stroke:#000000;stroke-width:0.649999;stroke-opacity:1"
       id="path20255"
       d="m 95.816657,114.48667 c -4.309131,3.26531 -5.616927,9.0277 -5.750003,14.16064 1.449196,2.08339 0.811049,-2.97146 1.327645,-4.01729 0.63805,-3.58204 1.952917,-7.25271 4.810754,-9.66865 -0.129467,-0.15823 -0.258922,-0.31648 -0.388396,-0.4747 z" /></g></svg>
