<?xml version="1.0" encoding="UTF-8" standalone="no"?>
<!-- Created with Inkscape (http://www.inkscape.org/) -->

<svg
   width="55.804066mm"
   height="54.291012mm"
   viewBox="0 0 55.804065 54.291012"
   version="1.1"
   id="svg27160"
   xml:space="preserve"
   inkscape:version="1.2.2 (b0a84865, 2022-12-01)"
   sodipodi:docname="grapheme-KAB.svg"
   xmlns:inkscape="http://www.inkscape.org/namespaces/inkscape"
   xmlns:sodipodi="http://sodipodi.sourceforge.net/DTD/sodipodi-0.dtd"
   xmlns="http://www.w3.org/2000/svg"
   xmlns:svg="http://www.w3.org/2000/svg"><sodipodi:namedview
     id="namedview27162"
     pagecolor="#ffffff"
     bordercolor="#666666"
     borderopacity="1.0"
     inkscape:showpageshadow="2"
     inkscape:pageopacity="0.0"
     inkscape:pagecheckerboard="0"
     inkscape:deskcolor="#d1d1d1"
     inkscape:document-units="mm"
     showgrid="false"
     inkscape:zoom="5.1864729"
     inkscape:cx="105.56307"
     inkscape:cy="102.57453"
     inkscape:window-width="2560"
     inkscape:window-height="1296"
     inkscape:window-x="0"
     inkscape:window-y="25"
     inkscape:window-maximized="0"
     inkscape:current-layer="layer1" /><defs
     id="defs27157" /><g
     inkscape:label="Layer 1"
     inkscape:groupmode="layer"
     id="layer1"
     transform="translate(-76.259502,-122.96017)"><path
       id="path28019"
       style="opacity:1;fill:#000000;stroke:#000000;stroke-width:1.25;stroke-dasharray:none"
       d="m 99.096794,123.83534 c -4.970975,0.2617 -14.27771,1.12817 -14.883846,1.40099 -1.809129,0.88376 -2.708633,1.52114 -3.40549,3.08805 -3.33412,5.56649 -2.673175,12.33042 -3.43127,18.53036 -0.505978,6.61697 -0.337195,13.44201 1.700066,19.80532 0.931673,3.25148 3.13131,6.11289 6.260154,7.50101 5.26857,2.15795 11.107131,1.91497 16.702662,2.1851 5.56011,0.0739 11.17974,0.0818 16.67245,-0.87163 3.70047,-0.64872 7.18885,-2.72448 9.03582,-6.0662 3.62658,-6.02677 3.52414,-13.33653 3.39193,-20.13647 -0.30896,-6.29129 0.70295,-13.25384 -3.05304,-18.74839 -1.78316,-2.81744 -4.87188,-4.41935 -8.10513,-4.90156 -6.85078,-1.45773 -13.90038,-1.73389 -20.884306,-1.78658 z m -0.0093,0.83767 c 7.981346,0.12166 16.126786,0.29013 23.821896,2.61866 4.79506,1.93664 6.89606,7.40607 7.12247,12.24351 0.2029,6.2261 0.48425,12.47121 0.16937,18.69892 -0.56037,5.4631 -2.0726,11.60361 -6.99033,14.7483 -5.11347,2.75111 -11.10691,2.35015 -16.72621,2.635 -6.42821,-0.0893 -12.981217,0.12452 -19.251901,-1.48868 -3.504116,-0.98915 -6.354869,-3.80257 -7.362364,-7.30873 -1.79438,-5.167 -2.187182,-10.74548 -2.050901,-16.18225 0.290184,-4.85917 0.619112,-9.72224 1.100016,-14.56534 0.492491,-3.42475 1.447262,-7.04712 4.00167,-9.5292 3.80824,-1.37013 7.962458,-1.17992 11.943078,-1.6464 1.406711,-0.0896 2.812678,-0.22986 4.223206,-0.22379 z"
       sodipodi:nodetypes="cccccccccccccccccccccccccc" /><path
       style="opacity:1;fill:#000000;stroke:#000000;stroke-width:0.85;stroke-dasharray:none"
       id="path28021"
       d="m 77.786427,147.74423 c 2.516871,2.06165 6.566991,0.4661 7.52424,-2.49857 0.900986,-2.46247 1.290688,-5.10393 2.534532,-7.44739 2.263947,-3.85792 6.63511,-6.04689 10.887128,-6.94553 3.810943,-0.80604 7.794133,-0.80925 11.529523,0.37304 4.30642,0.99041 8.31354,3.79087 10.28219,7.79675 1.41973,4.28101 2.03479,8.84631 1.80761,13.35588 -0.18823,3.26789 0.2315,6.55123 -0.0899,9.80685 -0.31138,2.5933 -1.26805,5.29502 -3.55601,6.78381 -2.59777,2.09465 -6.51239,2.92424 -9.40612,0.91512 -2.59283,-1.48484 -3.97793,-4.76089 -2.91738,-7.61217 0.96255,-3.71236 4.77683,-5.54167 8.18039,-6.45501 3.11944,-0.95235 6.4114,-1.64429 8.4455,-4.05043 -0.0706,-0.85095 -2.8001,1.6289 -4.26423,1.99054 -4.03097,1.46744 -8.85118,1.92495 -11.70936,5.51227 -2.13988,2.77769 -2.55824,7.18607 0.10126,9.7906 2.34215,2.69695 6.43492,3.44711 9.63308,1.90639 2.87327,-1.21075 5.36257,-3.65701 5.90266,-6.82403 0.9515,-3.72455 0.16866,-7.58152 0.42651,-11.36896 0.23819,-4.61544 -0.39614,-9.26557 -1.74595,-13.6773 -1.48825,-3.44472 -4.5627,-6.12359 -7.97482,-7.59222 -4.36257,-1.72712 -9.1797,-2.50981 -13.814997,-1.499 -4.771477,0.87107 -9.762845,3.17034 -12.286239,7.50721 -1.188549,2.27116 -1.640916,4.8009 -2.417157,7.214 -0.732463,2.64468 -4.078391,4.48949 -6.51764,2.86373 -0.31193,-0.51675 -0.395328,-0.006 -0.55478,0.15442 z"
       sodipodi:nodetypes="cccccccccccccccccccccccccsc" /><path
       style="opacity:1;fill:#000000;stroke:#000000;stroke-width:0.85;stroke-dasharray:none"
       id="path28023"
       d="m 85.966224,141.40492 c 0.785089,1.23497 1.84697,2.07583 2.848571,3.1256 1.049235,1.06152 2.237603,2.07872 3.733758,2.41363 2.305175,0.54871 4.734812,-0.17735 6.736758,-1.34464 1.944789,-1.19922 3.308759,-3.29476 3.726409,-5.531 0.24237,-1.87282 0.0149,-3.80338 -0.51872,-5.60888 -0.51863,-1.59189 -1.35417,-3.06167 -2.28067,-4.4484 -1.156148,0.19503 0.0803,1.17992 0.28652,1.77718 1.09063,1.81555 1.76166,3.87109 1.89126,5.98807 0.25403,1.90454 -0.25834,3.872 -1.41207,5.40881 -1.583942,2.24906 -4.403169,3.37517 -7.090768,3.41704 -1.683471,-0.0145 -3.227803,-0.89109 -4.366669,-2.08596 -1.030174,-0.61046 -3.101879,-4.54922 -3.554379,-3.11145 z"
       sodipodi:nodetypes="ccccccccccccc" /><path
       style="opacity:1;fill:#000000;stroke:#000000;stroke-width:0.85;stroke-dasharray:none"
       id="path28025"
       d="m 103.40998,130.30373 c 1.89014,1.07873 3.24284,2.9486 4.19832,4.86346 1.22978,3.0362 0.9958,6.55294 -0.51882,9.44497 -1.08281,2.60375 -3.38734,4.45128 -5.90325,5.58667 -2.579953,1.42604 -5.528011,2.67232 -7.11652,5.30167 -0.748313,1.41243 0.319233,2.78397 1.199633,3.8179 1.087522,1.29163 1.245512,3.28031 0.108576,4.59737 -1.133436,1.43108 -2.025769,3.39722 -1.159982,5.18414 -0.02529,0.67093 1.825655,2.83638 1.654065,1.55183 -1.359917,-1.25779 -1.96938,-3.53569 -0.832655,-5.14057 0.858911,-1.32795 2.066081,-2.74377 1.62518,-4.45191 -0.245179,-1.56251 -1.582612,-2.57812 -2.201574,-3.95226 -0.38448,-1.82865 1.607568,-2.95512 2.801892,-3.94752 2.955885,-2.07564 6.754895,-3.02274 8.994745,-6.02132 1.84189,-2.53269 3.00113,-5.69745 2.68907,-8.86144 -0.17963,-3.16232 -2.0267,-6.03465 -4.50177,-7.92112 -0.39187,-0.19937 -0.99311,-0.85943 -1.03691,-0.0519 z" /><path
       style="opacity:1;fill:#000000;stroke:#000000;stroke-width:0.85;stroke-dasharray:none"
       id="path28027"
       d="m 94.272583,131.75782 c 0.742571,1.48052 2.027801,2.59579 3.111251,3.82316 1.634909,1.75164 3.315516,3.46031 4.961046,5.20091 0.94239,0.0908 -0.25937,-0.95881 -0.50979,-1.28659 -2.302931,-2.59766 -4.829178,-4.99642 -7.020412,-7.69204 -0.127853,-0.37097 -0.295759,-0.0957 -0.542095,-0.0454 z" /><path
       style="opacity:1;fill:#000000;stroke:#000000;stroke-width:0.85;stroke-dasharray:none"
       id="path28029"
       d="m 89.741593,134.72338 c 0.98861,0.99406 2.018197,1.95041 3.021947,2.93071 1.848009,1.64448 3.788518,3.18514 5.560413,4.91502 0.59462,0.57362 1.26593,1.09554 1.766687,1.74933 0.75608,-0.1869 -0.180621,-0.81779 -0.424049,-1.13194 -1.96134,-1.93924 -4.018821,-3.77567 -6.120178,-5.56103 -1.147855,-1.06645 -2.287448,-2.14277 -3.489393,-3.14712 -0.105037,0.0815 -0.210918,0.16445 -0.315427,0.24503 z" /><path
       style="opacity:1;fill:#000000;stroke:#000000;stroke-width:0.85;stroke-dasharray:none"
       id="path28031"
       d="m 87.37874,137.56957 c 1.218317,1.57403 2.774634,2.84234 4.251092,4.16383 1.674046,1.4687 3.575753,2.65189 5.202039,4.17699 0.238161,0.26934 0.21452,0.78123 1.012462,0.37624 -2.008361,-2.09015 -4.483886,-3.6465 -6.584349,-5.63686 -1.199313,-1.09226 -2.442416,-2.14598 -3.524304,-3.35783 -0.118978,0.0925 -0.237973,0.18508 -0.35694,0.27763 z"
       sodipodi:nodetypes="ccccccc" /><path
       style="opacity:1;fill:#000000;stroke:#000000;stroke-width:0.85;stroke-dasharray:none"
       id="path28035"
       d="m 101.21896,131.8833 c -1.03364,1.02553 -1.861259,2.2423 -2.795299,3.35808 -1.111642,1.47106 -2.291302,2.88713 -3.584692,4.20289 -1.709886,1.80599 -3.485451,3.55096 -5.090621,5.45363 -0.46221,0.57211 0.547931,0.6955 0.660526,0.0827 2.052656,-2.39245 4.386182,-4.52408 6.448515,-6.90748 1.521289,-1.92114 2.996814,-3.88197 4.576511,-5.75513 0.22241,-0.10607 -0.16593,-0.30844 -0.21494,-0.4347 z" /><path
       style="opacity:1;fill:#000000;stroke:#000000;stroke-width:0.85;stroke-dasharray:none"
       id="path28037"
       d="m 102.19019,136.26274 c -2.527247,2.694 -4.628722,5.75502 -7.071578,8.52392 -0.697654,0.71841 -1.40181,1.43811 -2.181751,2.06687 0.839114,0.5416 1.15834,-0.44021 1.569296,-0.70144 2.265725,-2.19389 4.023546,-4.83789 6.076693,-7.2202 0.64996,-0.75258 1.24594,-1.55032 1.91014,-2.29061 -0.10093,-0.12618 -0.2019,-0.25235 -0.3028,-0.37854 z"
       sodipodi:nodetypes="ccccccc" /><path
       style="opacity:1;fill:#000000;stroke:#000000;stroke-width:0.85;stroke-dasharray:none"
       id="path28043"
       d="m 97.498261,130.80369 c -0.888579,1.34297 -1.592202,2.52449 -2.736216,3.68272 -1.3123,1.34717 -2.563625,2.75109 -3.769737,4.1939 -1.02776,1.13133 -1.85828,2.41841 -2.828531,3.59506 -0.261383,0.24831 -0.952367,0.91711 -0.241345,0.93019 1.126157,-1.08101 1.9086,-2.45362 2.945932,-3.61356 1.34924,-1.59245 2.706015,-3.18033 4.170924,-4.66866 1.138388,-1.25652 1.992602,-2.73883 2.782977,-4.22879 -0.102231,-0.0614 -0.221879,0.17059 -0.324004,0.10914 z"
       sodipodi:nodetypes="ccccccccc" /><path
       style="opacity:1;fill:#000000;stroke:#000000;stroke-width:0.85;stroke-dasharray:none"
       id="path28045"
       d="m 116.0916,155.22849 c 1.08398,1.20921 2.46256,2.10951 3.72937,3.11501 0.87773,0.72275 1.92814,1.19744 2.81471,1.90083 0.63408,-0.53224 -0.87633,-0.79693 -1.15608,-1.23772 -1.53792,-1.06763 -2.97674,-2.27061 -4.43553,-3.44277 -0.3897,-0.22947 -0.56073,-0.89676 -0.95247,-0.33535 z" /><path
       style="opacity:1;fill:#000000;stroke:#000000;stroke-width:0.85;stroke-dasharray:none"
       id="path28047"
       d="m 111.76152,156.64059 c 1.81906,0.93579 3.37079,2.32393 4.60434,3.94847 1.22514,1.4439 2.62971,2.7345 4.12039,3.8986 0.38385,0.12449 1.39159,1.43192 1.47457,0.62002 -1.25169,-0.86054 -2.28549,-1.9904 -3.42645,-2.98827 -1.47311,-1.34402 -2.50325,-3.10945 -4.10691,-4.31951 -0.73629,-0.623 -1.57864,-1.10135 -2.44079,-1.52519 -0.0751,0.12196 -0.15011,0.24392 -0.22515,0.36588 z" /><path
       style="opacity:1;fill:#000000;stroke:#000000;stroke-width:0.85;stroke-dasharray:none"
       id="path28049"
       d="m 108.00662,158.92384 c 0.78519,0.91015 1.90509,1.45043 2.72717,2.32987 2.04406,2.2286 4.60549,3.87378 6.91289,5.80383 0.76164,0.39252 1.47361,1.4846 2.1828,1.581 -0.11071,-0.64685 -1.18957,-1.26824 -1.69426,-1.86374 -1.98286,-1.72062 -4.20709,-3.15626 -6.09826,-4.98277 -1.0758,-1.23345 -2.39601,-2.20776 -3.74672,-3.1163 -0.0945,0.0827 -0.18905,0.16549 -0.28362,0.24811 z" /><path
       style="opacity:1;fill:#000000;stroke:#000000;stroke-width:0.85;stroke-dasharray:none"
       id="path28051"
       d="m 105.85011,162.18599 c 1.21339,1.22365 2.76344,2.04721 4.04981,3.19092 2.18383,1.82229 4.30915,3.71632 6.35988,5.68595 0.67915,-0.37335 -0.68823,-1.00684 -0.8506,-1.45513 -1.30088,-1.35312 -2.7404,-2.56142 -4.13533,-3.8145 -1.5518,-1.34173 -3.20178,-2.56138 -4.87515,-3.74456 -0.27832,-0.36531 -0.3225,-0.0221 -0.54861,0.13732 z" /><path
       style="opacity:1;fill:#000000;stroke:#000000;stroke-width:0.85;stroke-dasharray:none"
       id="path28053"
       d="m 122.29379,158.11102 c -1.0555,0.93934 -1.85069,2.13459 -2.77327,3.20078 -2.07778,2.66996 -4.25716,5.27538 -6.76768,7.55309 -0.70336,0.7048 -1.44662,1.40434 -2.06049,2.17349 0.36735,0.87614 1.07361,-0.62245 1.51124,-0.84002 1.74794,-1.72922 3.59005,-3.37031 5.13729,-5.29104 1.80966,-2.08703 3.39955,-4.35905 5.2608,-6.40044 -0.10263,-0.13195 -0.20526,-0.26391 -0.30789,-0.39586 z" /><path
       style="opacity:1;fill:#000000;stroke:#000000;stroke-width:0.85;stroke-dasharray:none"
       id="path28055"
       d="m 120.00077,153.69893 c -1.38911,2.13873 -3.08657,4.05616 -4.69504,6.02995 -1.75042,1.98289 -3.31745,4.12013 -5.08288,6.08877 -1.03362,1.104 -2.23824,2.02776 -3.31603,3.08483 0.43373,0.97884 1.20702,-0.51475 1.74912,-0.76494 1.80225,-1.48411 3.27062,-3.30687 4.69345,-5.14411 2.31546,-2.82975 4.75699,-5.57096 6.81695,-8.59782 0.3729,-0.48172 0.22922,-0.44577 -0.16557,-0.69668 z" /><path
       style="opacity:1;fill:#000000;stroke:#000000;stroke-width:0.85;stroke-dasharray:none"
       id="path28057"
       d="m 114.95162,155.41106 c -1.03237,0.91414 -1.70605,2.15741 -2.62943,3.17644 -1.73115,2.14252 -3.3974,4.38766 -5.60259,6.07685 -0.30643,0.51156 -1.64924,0.83419 -1.31357,1.47605 0.57871,0.36049 1.1481,-0.79194 1.70252,-1.01094 2.5298,-1.95216 4.36106,-4.60279 6.37249,-7.04588 0.56998,-0.78588 1.28253,-1.61705 1.78131,-2.36177 -0.10355,-0.10357 -0.2073,-0.20725 -0.31073,-0.31075 z" /></g></svg>
