<?xml version="1.0" encoding="UTF-8" standalone="no"?>
<!-- Created with Inkscape (http://www.inkscape.org/) -->

<svg
   width="158.24127mm"
   height="27.515198mm"
   viewBox="0 0 158.24127 27.515198"
   version="1.1"
   id="svg5"
   xml:space="preserve"
   inkscape:version="1.2.2 (b0a84865, 2022-12-01)"
   sodipodi:docname="grapheme-u-allographs.svg"
   xmlns:inkscape="http://www.inkscape.org/namespaces/inkscape"
   xmlns:sodipodi="http://sodipodi.sourceforge.net/DTD/sodipodi-0.dtd"
   xmlns="http://www.w3.org/2000/svg"
   xmlns:svg="http://www.w3.org/2000/svg"><sodipodi:namedview
     id="namedview7"
     pagecolor="#ffffff"
     bordercolor="#666666"
     borderopacity="1.0"
     inkscape:showpageshadow="2"
     inkscape:pageopacity="0.0"
     inkscape:pagecheckerboard="0"
     inkscape:deskcolor="#d1d1d1"
     inkscape:document-units="mm"
     showgrid="false"
     inkscape:zoom="1.3556054"
     inkscape:cx="94.053916"
     inkscape:cy="102.53721"
     inkscape:window-width="2560"
     inkscape:window-height="1296"
     inkscape:window-x="0"
     inkscape:window-y="25"
     inkscape:window-maximized="1"
     inkscape:current-layer="layer1" /><defs
     id="defs2" /><g
     inkscape:label="Layer 1"
     inkscape:groupmode="layer"
     id="layer1"
     transform="translate(-24.42064,-2.0517579)"><g
       id="g1925"
       transform="translate(0,1.7565951)"><path
         d="M 26.219685,25.258531 C 25.838635,25.051453 25.302854,24.431142 25.029061,23.880063 24.587502,22.991314 24.521007,22.085853 24.44057,15.86664 24.307335,5.5653352 24.80286,3.1021762 27.124882,2.5234332 c 1.277642,-0.318441 2.391814,0.410977 2.515254,1.646666 0.06877,0.68844 -0.05042,0.887221 -0.748448,1.248184 -0.473064,0.24463 -0.99202,0.816515 -1.206278,1.329307 -0.536694,1.28449 -0.469399,1.519509 0.292206,1.020486 0.625756,-0.410011 0.701448,-0.407791 1.190625,0.03491 0.670155,0.606481 0.667246,1.568798 -0.0068,2.2428228 -0.691816,0.691816 -0.910402,0.668404 -1.568297,-0.1679728 l -0.54837,-0.69714 v 1.3382978 c 0,1.516665 0.816173,2.781847 1.983595,3.074852 0.364231,0.09142 0.662239,0.282625 0.662239,0.424908 0,0.142283 -0.61331,0.849848 -1.362911,1.572367 l -1.362911,1.313672 0.165184,2.142063 c 0.09085,1.178134 0.320449,2.462597 0.510218,2.854362 0.294945,0.608895 0.509672,0.712299 1.479139,0.712299 1.369259,0 1.75676,0.482346 1.342404,1.67097 -0.445051,1.276674 -2.722795,1.799681 -4.242067,0.974046 z m 3.484759,-0.947578 c 0.314675,-0.509154 0.122432,-0.598348 -0.533278,-0.247423 -1.037772,0.5554 -2.355199,-0.120262 -3.014316,-1.545937 -0.535659,-1.158636 -0.567263,-1.624992 -0.567263,-8.370745 0,-6.1709748 0.06307,-7.3071278 0.463146,-8.3435478 0.429939,-1.113774 1.50955,-2.107493 2.289656,-2.107493 0.488805,0 0.322271,0.388974 -0.284652,0.664864 -0.950606,0.432119 -1.544297,1.50441 -1.684836,3.043054 l -0.132575,1.451457 0.41205,-1.448603 c 0.415447,-1.460549 1.259398,-2.652439 1.878133,-2.652439 0.537474,0 0.675725,-0.464655 0.311688,-1.04757 -0.335871,-0.537816 -1.10337,-0.688117 -1.91784,-0.375575 -1.317156,0.50544 -1.765932,3.536511 -1.737101,11.7325168 0.0247,7.021465 0.164102,8.177681 1.107839,9.188459 0.535616,0.573665 0.787638,0.645166 1.902381,0.539724 0.706735,-0.06685 1.384871,-0.283183 1.506968,-0.480742 z m -1.64856,-1.044296 c -0.535308,-0.282754 -1.052194,-0.762715 -1.148637,-1.06658 -0.09644,-0.303865 -0.240139,-0.487694 -0.319325,-0.408509 -0.242004,0.242004 0.716063,1.497271 1.332193,1.74545 1.045835,0.421265 1.129549,0.254561 0.135769,-0.270361 z M 26.431786,20.57953 c -0.08446,-0.211066 -0.147157,-0.148372 -0.159853,0.159853 -0.01149,0.278915 0.05105,0.435184 0.138965,0.347266 0.08792,-0.08792 0.09732,-0.316123 0.02089,-0.507119 z m -0.255464,-5.436856 c -0.06082,-0.402183 -0.112199,-0.13593 -0.114186,0.591674 -0.002,0.727604 0.04777,1.056663 0.110574,0.731242 0.0628,-0.325421 0.06443,-0.920733 0.0036,-1.322916 z m 1.912676,-0.361554 c 0.68165,-0.567314 0.667587,-0.599106 -0.581182,-1.313899 -0.408262,-0.233688 -0.463021,-0.138768 -0.463021,0.80261 0,1.207851 0.130487,1.271743 1.044203,0.511289 z m 1.072464,-5.7936458 c 0,-0.255406 -0.175626,-0.61013 -0.39028,-0.788277 -0.566404,-0.470073 -1.174961,0.838949 -0.671848,1.445162 0.406601,0.4899248 1.062128,0.08451 1.062128,-0.656885 z M 28.011844,19.880702 c -1.020303,-1.127421 -0.0082,-3.039678 1.25667,-2.37437 1.091321,0.574019 1.257921,1.493251 0.422115,2.329058 -0.656956,0.656955 -1.11409,0.669293 -1.678785,0.04531 z m 1.517732,-0.727228 c 0.241828,-0.630195 -0.13251,-1.203647 -0.729816,-1.118011 -0.643896,0.09232 -0.882329,0.860496 -0.434552,1.400035 0.348969,0.420482 0.950721,0.27473 1.164368,-0.282024 z"
         style="fill:#000000;stroke-width:0.264583"
         id="path1745" /></g><g
       id="g1922"
       transform="translate(78.050414,1.7565948)"><path
         d="m 48.428101,24.408327 c -2.12113,-0.241215 -3.231467,-0.850124 -4.043693,-2.217558 -0.628391,-1.057934 -0.65237,-1.283637 -0.737169,-6.938494 -0.106309,-7.0892195 0.01135,-7.6863315 1.85883,-9.4326975 2.381362,-2.251038 6.559479,-2.954809 10.435182,-1.757725 3.660362,1.13057 4.475768,3.138096 4.262625,10.4945495 -0.221483,7.644305 -1.229818,9.198926 -6.385793,9.845432 -2.315127,0.290293 -2.88832,0.290984 -5.389982,0.0065 z m 2.57683,-1.922 c 1.296816,-2.955441 1.705324,-8.845669 0.940422,-13.5598955 -0.468839,-2.889541 -0.836972,-4.007033 -1.389933,-4.219223 -0.694915,-0.266663 -3.186311,0.608777 -4.156353,1.460484 -1.59558,1.400937 -1.872295,2.737831 -1.857983,8.9764475 0.01336,5.81969 0.111736,6.322321 1.483773,7.580357 0.741039,0.679468 1.229741,0.815108 3.082723,0.855618 l 1.40394,0.03069 z m -4.873789,-6.342726 c -0.672211,-0.959716 -0.523295,-2.251663 0.361522,-3.13648 0.95441,-0.954413 1.936728,-0.997741 2.810502,-0.123965 1.471146,1.471144 0.418039,3.848484 -1.704787,3.848484 -0.790642,0 -1.158669,-0.1475 -1.467237,-0.588039 z M 48.54256,15.73275 c 0.593442,-0.377494 0.713592,-1.630047 0.209764,-2.18677 -0.94394,-1.043043 -2.239309,-0.50119 -2.239309,0.936701 0,0.451115 0.142875,0.963084 0.3175,1.137709 0.354865,0.354864 1.239539,0.412924 1.712045,0.11236 z m 8.084258,7.11545 c 1.698969,-0.728265 2.292072,-2.060387 2.635922,-5.92034 0.280474,-3.148518 0.120179,-7.3017645 -0.349417,-9.0532955 -0.547378,-2.041647 -2.094232,-2.958357 -5.85187,-3.467979 -1.381109,-0.187309 -1.508813,-0.01397 -0.991727,1.34606 0.145775,0.383416 0.388255,1.552025 0.538845,2.596912 0.432948,3.0040555 0.464664,3.0904155 1.134955,3.0904155 1.098797,0 1.608889,0.614217 1.566836,1.886667 -0.02101,0.635823 -0.04055,1.649619 -0.04341,2.252879 -0.006,1.256097 -0.539488,1.945871 -1.505098,1.945871 -0.357976,0 -0.693416,0.148828 -0.745428,0.330729 -0.05201,0.181901 -0.334452,1.34276 -0.627647,2.579687 -0.293193,1.236927 -0.624184,2.476487 -0.735534,2.754577 -0.191892,0.479238 -0.09852,0.496836 1.789445,0.337244 1.095544,-0.09261 2.528401,-0.398349 3.184128,-0.679427 z m -2.308595,-7.042602 c 0,-0.61736 -0.117592,-0.79375 -0.529167,-0.79375 -0.406267,0 -0.548782,0.204541 -0.613626,0.880697 -0.07564,0.78875 -0.0204,0.87162 0.529166,0.79375 0.486097,-0.06888 0.613627,-0.251912 0.613627,-0.880697 z m -0.02164,-1.615808 c 0.881422,-0.338232 0.210894,-2.22065 -0.791007,-2.22065 -0.261843,0 -0.377974,0.311621 -0.377974,1.014235 0,1.326782 0.23183,1.566037 1.168983,1.206415 z"
         style="fill:#000000;stroke-width:0.264583"
         id="path1768" /></g><g
       id="g1931"
       transform="translate(-32.239056,1.7565951)"><path
         d="m 98.774436,24.121097 c -1.660364,-0.902454 -2.353032,-3.614416 -2.352966,-9.212386 7.9e-5,-6.4686867 0.882571,-9.3121657 3.318251,-10.6917297 1.370699,-0.776359 3.749489,-0.8302 4.644909,-0.105131 0.56784,0.459803 0.61752,0.715033 0.66756,3.429171 0.0436,2.367667 -0.0368,3.1106947 -0.41797,3.8582417 -0.39275,0.770355 -0.42421,1.104971 -0.18735,1.992386 0.21535,0.806809 0.20179,1.295756 -0.0557,2.007795 -0.27587,0.762911 -0.27647,1.01825 -0.003,1.34759 0.18882,0.227508 0.3231,1.007846 0.30511,1.773122 -0.0177,0.751734 0.0862,1.844903 0.23073,2.429264 0.55832,2.256862 -0.82525,3.572428 -3.73996,3.556151 -0.96475,-0.0054 -2.022587,-0.17418 -2.409487,-0.384474 z m 4.656204,-0.830318 c 0.51588,-0.197964 0.97462,-1.25543 0.77278,-1.781405 -0.0785,-0.204708 -0.6641,-0.425543 -1.32622,-0.500174 -0.65207,-0.0735 -1.42164,-0.347263 -1.71016,-0.608368 -0.92276,-0.83509 -1.336792,-2.911962 -1.174936,-5.893777 0.277746,-5.1168127 0.896036,-6.6621767 2.899296,-7.2465887 1.19767,-0.349397 1.45758,-0.605795 1.46347,-1.443684 0.007,-0.966883 -0.69013,-1.407961 -2.22468,-1.407961 -1.77773,0 -2.980453,0.757038 -3.783749,2.381632 -1.241275,2.510373 -1.376381,13.0806837 -0.196358,15.3625967 0.577395,1.11656 1.774097,1.613709 3.474357,1.443357 0.7516,-0.07531 1.56439,-0.212836 1.8062,-0.305628 z m -2.50731,-1.08914 c -0.52418,-0.262988 -1.178781,-0.919293 -1.517003,-1.520944 -0.532257,-0.946813 -0.594855,-1.420771 -0.594058,-4.497916 0.0016,-6.2329837 0.727056,-8.9478827 2.653581,-9.9307237 1.06503,-0.543333 2.09933,-0.685623 2.09933,-0.288807 0,0.127331 -0.33059,0.297627 -0.73463,0.378436 -1.09451,0.218901 -2.16967,1.183997 -2.70167,2.425083 -0.548092,1.2786567 -0.980913,7.8953357 -0.66616,10.1838697 0.275434,2.002632 1.23249,3.007842 2.94562,3.093805 0.70902,0.03558 1.34866,0.07253 1.42142,0.08213 0.0728,0.0096 -0.0463,0.132855 -0.26458,0.273919 -0.60432,0.390538 -1.61939,0.314134 -2.64185,-0.198849 z m 2.85378,-3.547007 c 0.0668,-1.032778 -0.0177,-1.300536 -0.52189,-1.653646 -1.00138,-0.701391 -2.61357,-0.489029 -2.45487,0.32336 0.3043,1.557651 0.42886,1.908627 0.81403,2.293803 0.26069,0.260686 0.7548,0.398032 1.25638,0.349231 0.78263,-0.07615 0.83095,-0.146133 0.90635,-1.312748 z m -2.19631,0.04169 c -0.2398,-0.388001 0.0918,-0.79375 0.64877,-0.79375 0.49027,0 0.90371,0.608285 0.61182,0.900175 -0.25275,0.252752 -1.08187,0.182754 -1.26059,-0.106425 z m 1.68582,-3.001779 c 0.16248,-0.19577 0.36547,-0.706235 0.4511,-1.134365 0.2072,-1.036016 -0.51373,-1.848888 -1.80619,-2.036535 -0.91452,-0.132776 -0.99219,-0.09358 -0.99219,0.500773 0,0.371314 0.1546,0.644823 0.36448,0.644823 0.20046,0 0.50439,0.168581 0.67539,0.374624 0.24982,0.301021 0.19121,0.411994 -0.29833,0.564828 -0.72456,0.226203 -1.00759,0.600945 -0.82104,1.087076 0.17885,0.466068 2.03974,0.465129 2.42678,-0.0012 z m 0.43613,-4.412395 c 0.59742,-0.660134 0.7905,-2.3822327 0.33523,-2.9897597 -0.87714,-1.170461 -2.85405,0.592663 -2.85405,2.5454077 0,0.773538 0.10675,0.959222 0.59531,1.035499 0.85693,0.133789 1.42562,-0.04098 1.92351,-0.591147 z m -1.60848,-1.077882 c -0.23325,-0.3774167 0.53893,-1.1495997 0.91635,-0.9163427 0.50422,0.311626 0.3384,1.2063157 -0.22358,1.2063157 -0.28245,0 -0.5942,-0.130488 -0.69277,-0.289973 z"
         style="fill:#000000;stroke-width:0.264583"
         id="path1791" /></g><g
       id="g1937"
       transform="translate(-60.562295,1.7565952)"><path
         d="m 147.23278,24.072216 c -0.46365,-0.28271 -0.97939,-0.768845 -1.14607,-1.080301 -0.28683,-0.535949 -0.61766,-6.15109 -0.5139,-8.722451 0.0617,-1.52956 0.0273,-2.802002 -0.14656,-5.4239575 -0.12401,-1.869694 -0.0702,-2.238433 0.46097,-3.160256 0.89758,-1.557636 1.89648,-2.021468 4.57775,-2.125664 2.1662,-0.08418 2.28842,-0.05893 2.55584,0.527988 0.37152,0.81539 0.0696,2.318498 -0.58457,2.910531 -0.78717,0.712382 -0.67139,1.771198 0.26976,2.467023 0.82859,0.6126005 1.01141,1.3058485 0.48357,1.8336885 -0.2372,0.237192 -0.19226,0.529174 0.19097,1.240778 0.46995,0.87265 0.47411,0.976364 0.0669,1.665744 -0.31064,0.525872 -0.36041,0.867121 -0.17484,1.198728 0.29466,0.526528 0.0671,1.51123 -0.34928,1.51123 -0.17151,0 -0.2114,0.345425 -0.10524,0.911301 0.15061,0.802819 0.0754,0.981973 -0.63201,1.504966 -1.01024,0.7469 -1.01255,1.092782 -0.01,1.471266 0.97774,0.369056 1.21333,0.921815 0.80895,1.898064 -0.70132,1.693138 -3.95321,2.468361 -5.7524,1.371322 z m 2.56281,-0.435345 c 0,-0.08668 -0.24543,-0.502264 -0.5454,-0.923528 -0.69337,-0.973754 -1.02992,-2.750514 -0.48717,-2.572005 0.20411,0.06713 0.41041,0.470065 0.45844,0.895405 0.0974,0.862349 0.98639,1.963972 1.58492,1.963972 0.25998,0 0.16027,-0.212347 -0.3,-0.638908 -1.05711,-0.979698 -1.0866,-1.639422 -0.19607,-4.386856 0.46318,-1.429002 0.80856,-3.06273 0.80906,-3.827054 7.9e-4,-1.208011 -0.83118,-5.3109175 -1.34344,-6.6253075 -0.11343,-0.291041 -0.26507,-0.70776 -0.33698,-0.926041 -0.10724,-0.325506 -0.13451,-0.318702 -0.15164,0.03784 -0.0225,0.468043 -0.81464,0.920818 -0.81464,0.46563 0,-0.544754 0.57629,-1.332117 1.14177,-1.559955 0.54347,-0.218968 0.53453,-0.23389 -0.14958,-0.249659 -0.78199,-0.01803 -1.78594,0.790579 -1.78594,1.438437 0,0.218282 -0.11906,0.396875 -0.26458,0.396875 -0.76273,0 0.19795,-1.846777 1.18421,-2.27649 0.78018,-0.339925 0.78346,-0.348889 0.13143,-0.358987 -0.91931,-0.01424 -1.82927,0.681587 -2.26963,1.735517 -0.43493,1.040916 -0.48184,3.142935 -0.0949,4.2528535 0.23674,0.679129 0.38117,0.770296 1.06202,0.670369 1.06553,-0.156386 2.23484,0.36853 2.5984,1.166444 0.1644,0.360814 0.2989,1.237984 0.2989,1.949268 0,2.282874 -0.78622,3.469448 -2.4456,3.690916 l -1.12627,0.150317 -0.0783,1.946121 c -0.0574,1.427289 0.0324,2.11503 0.33683,2.579688 0.5613,0.856653 0.99262,0.827213 0.66096,-0.04512 -0.33156,-0.872068 -0.33392,-2.045279 -0.004,-1.841193 0.13988,0.08645 0.33348,0.579069 0.43021,1.094702 0.0967,0.515633 0.42145,1.1663 0.7216,1.445928 0.53807,0.501293 0.9751,0.658527 0.9751,0.350819 z m 2.30959,-1.589759 c -0.0879,-0.08792 -0.31613,-0.09732 -0.50712,-0.02089 -0.21107,0.08446 -0.14837,0.147157 0.15985,0.159853 0.27892,0.01149 0.43519,-0.05105 0.34727,-0.138965 z m 0.0676,-4.022951 c -0.003,-0.38557 -0.0395,-0.392554 -0.26053,-0.05053 -0.33485,0.518153 -0.33485,0.868411 0,0.661459 0.14552,-0.08994 0.26276,-0.364854 0.26053,-0.610929 z m -3.04545,-1.624891 c 0.54981,-1.063204 0.52992,-3.403843 -0.0342,-4.027202 -0.96819,-1.069841 -2.56462,-0.276481 -2.42068,1.202979 0.0594,0.610098 0.21341,0.827003 0.58793,0.827831 0.27912,6.08e-4 0.55693,0.149445 0.61736,0.330729 0.0688,0.20638 -0.14567,0.329607 -0.57364,0.329607 -0.59825,0 -0.6835,0.110006 -0.6835,0.881944 0,1.097961 0.136,1.234723 1.22792,1.234723 0.70152,0 0.95525,-0.154881 1.27882,-0.780611 z m 3.49483,-0.591915 c -0.0845,-0.211067 -0.14716,-0.148372 -0.15985,0.159852 -0.0115,0.278915 0.051,0.435184 0.13896,0.347266 0.0879,-0.08792 0.0973,-0.316122 0.0209,-0.507118 z m 0.38389,-2.769163 c -0.24893,-0.42826 -0.28495,-0.392241 -0.292,0.292001 -0.006,0.569205 0.071,0.701466 0.28395,0.48852 0.20927,-0.209271 0.21155,-0.430408 0.008,-0.780521 z m -1.17764,-1.464171 c -0.0845,-0.211066 -0.14716,-0.148372 -0.15985,0.159853 -0.0115,0.278915 0.051,0.435184 0.13896,0.347265 0.0879,-0.08792 0.0973,-0.316122 0.0209,-0.507118 z m 0.87759,-1.141015 c 0,-0.218281 -0.11906,-0.396875 -0.26458,-0.396875 -0.14552,0 -0.26458,0.178594 -0.26458,0.396875 0,0.218281 0.11906,0.396875 0.26458,0.396875 0.14552,0 0.26458,-0.178594 0.26458,-0.396875 z m -1.39457,-4.7900605 c -0.0879,-0.08792 -0.31613,-0.09732 -0.50712,-0.02089 -0.21107,0.08446 -0.14837,0.147157 0.15985,0.159853 0.27892,0.01149 0.43519,-0.05105 0.34727,-0.138965 z"
         style="fill:#000000;stroke-width:0.264583"
         id="path1814" /></g><g
       id="g1940"
       transform="translate(35.741288,-29.471764)"><path
         d="m 111.57165,58.353743 c -0.66968,-0.563499 -0.81375,-0.880232 -0.81231,-1.785938 0.001,-0.642681 0.2152,-1.42476 0.51453,-1.87885 l 0.51277,-0.777888 -0.89378,-0.989322 c -1.21153,-1.341025 -1.45531,-2.422031 -1.4547,-6.450734 5.3e-4,-4.164593 0.34787,-6.504791 1.18886,-8.012253 l 0.63211,-1.133086 -0.64764,-0.954356 c -1.8053,-2.660268 0.22766,-4.843808 4.51348,-4.847787 1.9611,-0.0018 3.20113,0.337358 4.00937,1.09666 0.84445,0.79332 0.82391,2.155258 -0.0498,3.300723 l -0.66887,0.876931 0.80116,1.10597 0.80116,1.105969 -0.002,5.450406 c -0.002,5.830632 -0.16992,6.969005 -1.21414,8.209992 -0.53702,0.638207 -0.61197,0.892837 -0.38671,1.313739 0.44079,0.82363 0.32514,2.463032 -0.23903,3.38831 -0.74709,1.225426 -1.79146,1.666491 -3.94591,1.666491 -1.5988,0 -1.95353,-0.09138 -2.65897,-0.684977 z m 4.09859,-0.296717 c 0.62426,-0.624263 1.17278,-2.017342 1.17278,-2.978558 0,-0.62586 -0.11635,-0.802249 -0.52916,-0.802249 -0.43453,0 -0.52974,0.177452 -0.53236,0.992188 -0.002,0.560661 -0.28282,1.481252 -0.64612,2.116667 -0.6804,1.190017 -0.37139,1.578216 0.53486,0.671952 z m -3.55636,-1.010276 c -0.40331,-1.123238 -0.40075,-1.249659 0.0411,-2.020211 0.53116,-0.926423 0.38605,-1.382047 -0.19068,-0.598713 -0.55691,0.756433 -0.74508,2.136768 -0.38459,2.821249 0.25155,0.4776 0.70895,0.964865 0.93109,0.991845 0.0183,0.0021 -0.16024,-0.535149 -0.39688,-1.19417 z m 0.89948,0.41761 c -0.22202,-0.429336 -0.40367,-0.97103 -0.40367,-1.203765 0,-0.232735 0.18165,-0.774429 0.40367,-1.203765 0.44254,-0.855786 0.25741,-1.051811 -0.29994,-0.31759 -0.62227,0.819733 -0.25857,3.50573 0.4747,3.50573 0.1259,0 0.0473,-0.351274 -0.17476,-0.78061 z m 4.09715,-0.343869 c 0.57055,-0.935774 0.6793,-2.216176 0.24157,-2.844272 -0.20665,-0.296524 -0.23495,-0.184868 -0.11192,0.441584 0.11461,0.58361 -0.001,1.163448 -0.38082,1.907689 -0.30002,0.588077 -0.54548,1.133505 -0.54548,1.212062 0,0.356328 0.31514,0.07267 0.79665,-0.717063 z m -2.81027,-1.587501 c 0.22244,-1.18969 -0.35865,-1.406173 -0.85433,-0.318279 -0.37938,0.832652 -0.38001,0.961333 -0.009,1.888556 l 0.2979,0.744828 0.19004,-0.661458 c 0.10452,-0.363802 0.27351,-1.107944 0.37554,-1.653647 z m 0.57191,1.26527 c 0.43152,-1.032769 0.50786,-2.257457 0.14071,-2.257457 -0.20789,0 -0.81567,2.178317 -0.81567,2.92344 0,0.520697 0.30479,0.219964 0.67496,-0.665983 z m 3.1547,-0.12765 c 0.5088,-0.983902 0.51417,-1.882572 0.0152,-2.542258 -0.46242,-0.611352 -0.51699,-0.386764 -0.11854,0.487736 0.22045,0.483828 0.18986,0.861249 -0.1323,1.632262 -0.45485,1.088609 -0.48274,1.20287 -0.29355,1.20287 0.069,0 0.30715,-0.351275 0.52916,-0.78061 z m -1.24148,-3.908979 0.98369,-0.456255 -1.3794,-0.0864 c -0.75867,-0.04752 -2.06837,-0.04825 -2.91042,-0.0016 l -1.53101,0.08477 0.92604,0.447525 c 1.1995,0.579677 2.67739,0.584204 3.9111,0.01198 z m -0.47249,-1.79166 c 0.67794,-0.721641 0.54851,-1.226706 -0.16304,-0.636175 -0.32207,0.267293 -1.07479,0.343343 -2.78452,0.281331 -1.48551,-0.05388 -2.34313,0.01471 -2.34313,0.187406 0,0.532925 0.9521,0.811874 2.79815,0.819807 1.65955,0.0071 1.94255,-0.06694 2.49254,-0.652369 z m 2.24167,0.113593 c 0.40368,-0.402898 0.53004,-11.293128 0.13949,-12.022871 -0.16774,-0.313432 -0.64145,-0.768629 -1.05268,-1.011549 -0.97387,-0.575278 -3.71258,-0.590109 -4.80342,-0.02601 -1.00389,0.519133 -1.7156,2.070898 -1.96331,4.280694 l -0.18537,1.653645 h 0.82792 c 0.82793,10e-7 0.82793,10e-7 0.29875,-0.529166 -1.15614,-1.156149 -0.29054,-2.59805 1.91642,-3.192324 1.9514,-0.525458 4.23639,0.358076 3.80867,1.472694 -0.093,0.242287 0.004,0.479782 0.2325,0.567328 0.60864,0.233554 0.46386,0.486684 -0.30379,0.531152 -0.77136,0.04468 -1.1457,0.469691 -1.15182,1.307747 -0.006,0.856562 -0.8809,1.48625 -1.93791,1.395183 -1.11314,-0.0959 -1.92713,0.453171 -1.47659,0.996033 0.22514,0.271282 0.21855,0.460196 -0.0263,0.755276 -0.44109,0.531463 -0.146,1.193994 0.53178,1.193994 0.30316,0 1.01861,-0.26789 1.58989,-0.595312 1.08132,-0.619745 1.78912,-0.500194 2.06999,0.349632 0.0977,0.295643 0.0435,0.311737 -0.24884,0.07388 -0.4443,-0.361484 -1.70167,-0.263223 -2.22869,0.174168 -0.24102,0.200021 -1.01443,0.267565 -2.17018,0.189525 -1.7683,-0.119401 -1.77956,-0.116042 -0.73738,0.219967 1.28964,0.415796 2.95255,0.477234 3.175,0.117303 0.0899,-0.145521 0.36158,-0.264583 0.60365,-0.264583 0.34711,0 0.31585,0.08705 -0.14791,0.411878 -0.63722,0.446326 -0.80404,1.440205 -0.24173,1.440205 0.68961,0 1.3281,-0.697438 1.17488,-1.283351 -0.0818,-0.312803 -0.0408,-0.568732 0.0911,-0.568732 0.13189,0 0.23981,0.139453 0.23981,0.309895 0,0.170443 0.18146,0.510412 0.40325,0.755487 0.39936,0.441282 0.28838,1.315868 -0.16698,1.315868 -0.12995,0 -0.23627,0.133945 -0.23627,0.297656 0,0.352644 1.55553,0.10444 1.97611,-0.315312 z m -2.6361,-5.01105 c 0.2642,-0.291934 0.53774,-0.473404 0.60788,-0.403269 0.17778,0.177783 -0.48213,0.934058 -0.81504,0.934058 -0.15026,0 -0.057,-0.238855 0.20716,-0.530789 z m -4.15587,-6.380226 c 0.42708,-0.453816 4.91031,-0.659389 5.87419,-0.269353 0.52944,0.214237 0.23316,0.271007 -1.48442,0.284431 -1.18024,0.0092 -2.72805,0.09174 -3.43959,0.18336 -1.09336,0.140791 -1.2405,0.110062 -0.95018,-0.198438 z m -0.21528,9.755286 c 0.002,-0.109141 -0.17454,-0.198438 -0.39282,-0.198438 -0.40515,0 -0.54209,0.560343 -0.21651,0.885921 0.17766,0.177659 0.60143,-0.300464 0.60933,-0.687483 z m 0.79781,0.167207 c 0,-0.218281 -0.11907,-0.32329 -0.26459,-0.233353 -0.14552,0.08994 -0.26458,0.342115 -0.26458,0.560396 0,0.218282 0.11906,0.323291 0.26458,0.233354 0.14552,-0.08994 0.26459,-0.342115 0.26459,-0.560397 z m 2.11666,0.290968 c 0,-0.271044 -0.24943,-0.365379 -0.83956,-0.317522 -1.16884,0.09479 -1.24352,0.624818 -0.0941,0.668027 0.6575,0.02472 0.9337,-0.07897 0.9337,-0.350505 z m -1.98991,-2.448546 c 0.10219,-0.407168 0.0631,-0.746513 -0.0919,-0.798191 -0.14832,-0.04944 -0.20713,-0.290564 -0.13066,-0.535824 0.12517,-0.401501 0.10102,-0.399798 -0.24247,0.01709 -0.54909,0.666427 -0.93163,0.569701 -0.78478,-0.198438 0.0738,-0.386119 0.003,-0.661458 -0.16899,-0.661458 -0.18006,0 -0.29522,0.542412 -0.29491,1.389062 5.3e-4,1.344122 0.0254,1.390794 0.76824,1.442556 0.63195,0.04403 0.79916,-0.07177 0.94549,-0.654801 z m 0.35567,-2.353329 c -0.047,-0.242603 -0.22501,-0.487527 -0.39547,-0.544275 -0.19713,-0.06564 -0.25811,0.09487 -0.16757,0.441095 0.16912,0.646695 0.68685,0.741572 0.56304,0.10318 z m -1.0116,-0.211053 c 0,-0.06764 -0.23813,-0.250424 -0.52916,-0.406185 -0.3189,-0.170664 -0.52916,-0.182073 -0.52916,-0.02871 0,0.139971 0.20835,0.308942 0.46302,0.375492 0.25466,0.06655 0.49278,0.134812 0.52916,0.151692 0.0364,0.01688 0.0661,-0.02465 0.0661,-0.09229 z m 2.47039,-0.358522 c -0.1636,-0.625594 0.5494,-1.208301 1.25326,-1.024236 0.41446,0.108382 0.51342,0.04503 0.39829,-0.254996 -0.0842,-0.219565 -0.15319,-0.449003 -0.15319,-0.509862 0,-0.06086 -0.37757,-0.110652 -0.83905,-0.110652 -0.9971,0 -1.80677,0.650739 -1.80677,1.452118 0,0.696541 0.20353,0.929132 0.81307,0.929132 0.31485,0 0.42051,-0.15215 0.33439,-0.481504 z m -1.14896,-1.766018 c 0.7396,-0.70858 1.50356,-0.861966 2.80361,-0.5629 0.92294,0.212319 1.55116,-0.273323 1.27717,-0.987333 -0.43245,-1.12694 -3.89211,-1.007598 -5.07477,0.175054 -0.60384,0.603846 -0.65046,0.770421 -0.3811,1.361609 0.38088,0.835956 0.51532,0.837282 1.37509,0.01357 z m -0.52768,-1.456644 c 0,-0.145521 0.11906,-0.264584 0.26458,-0.264584 0.14552,0 0.26459,0.119063 0.26459,0.264584 0,0.14552 -0.11907,0.264583 -0.26459,0.264583 -0.14552,0 -0.26458,-0.119063 -0.26458,-0.264583 z m 1.32292,-0.264584 c 0,-0.145521 0.11906,-0.264583 0.26458,-0.264583 0.14552,0 0.26458,0.119062 0.26458,0.264583 0,0.145521 -0.11906,0.264584 -0.26458,0.264584 -0.14552,0 -0.26458,-0.119063 -0.26458,-0.264584 z m 4.39876,-5.649036 c 0.79478,-0.923981 0.79057,-1.356527 -0.0211,-2.168198 -0.85097,-0.850979 -1.40108,-0.836982 -1.40108,0.03565 0,0.980752 -0.61361,1.461354 -1.88824,1.478945 -1.36907,0.01889 -2.24983,-0.658607 -2.02432,-1.557139 0.0842,-0.335415 0.0317,-0.606888 -0.11731,-0.606888 -0.14829,0 -0.26962,0.338734 -0.26962,0.752743 0,2.047331 3.76303,2.579363 4.5342,0.641064 0.18456,-0.463877 0.33974,-0.601055 0.42332,-0.3742 0.19982,0.542421 -0.79269,1.701934 -1.66815,1.948826 -0.91946,0.2593 -2.21495,0.07326 -2.88094,-0.413724 -0.26249,-0.191937 -0.5528,-0.813763 -0.64514,-1.381836 l -0.16789,-1.03286 -0.59145,0.591452 c -0.72857,0.728568 -0.74945,1.377564 -0.072,2.23877 0.50004,0.635699 0.62472,0.658808 3.34042,0.619107 2.72909,-0.0399 2.84147,-0.06504 3.44932,-0.771712 z"
         style="fill:#000000;stroke-width:0.264583"
         id="path1837" /></g><g
       id="g1934"
       transform="translate(45.811351,1.7565949)"><path
         d="m 121.29868,22.204121 c -1.77516,-0.353691 -3.93734,-1.279944 -3.93734,-1.686718 0,-0.122383 -0.29607,-0.16592 -0.65793,-0.09674 -0.57652,0.110209 -0.72579,-0.03255 -1.20641,-1.15379 -0.68199,-1.591022 -0.76258,-3.980706 -0.165,-4.89273 0.38226,-0.583393 0.386,-0.780693 0.0368,-1.940986 -0.61596,-2.046674 -0.51034,-3.8160641 0.29888,-5.0069381 1.03487,-1.522944 3.54142,-2.321536 4.32462,-1.377836 0.27206,0.327803 0.46393,0.320661 1.42146,-0.05289 0.82112,-0.320339 2.02929,-0.435274 4.67883,-0.445103 3.56601,-0.01323 3.57491,-0.01172 5.4152,0.912791 2.14687,1.078537 3.13131,2.386348 3.58494,4.7625001 0.40053,2.09804 0.35878,5.338749 -0.0823,6.385943 -0.55158,1.309621 -2.42486,3.103285 -3.98197,3.812728 -2.5187,1.147565 -6.34485,1.454204 -9.72981,0.779776 z m 7.06042,-0.420594 c 1.95302,-0.360836 2.17207,-0.493003 1.55946,-0.940948 -0.26814,-0.196069 -0.36952,-0.356489 -0.22529,-0.356489 0.14423,0 0.40188,0.139644 0.57256,0.310322 0.23532,0.23532 0.47193,0.236691 0.97896,0.0057 0.77641,-0.353756 0.86951,-0.966449 0.20561,-1.353135 -0.25466,-0.148328 -0.32094,-0.273306 -0.14729,-0.27773 0.17365,-0.0044 0.48256,0.230142 0.68647,0.521263 0.37015,0.528461 0.37153,0.528437 0.86315,-0.01479 0.40557,-0.448146 0.43616,-0.634193 0.17343,-1.054886 -0.46236,-0.740354 -0.39141,-0.9301 0.16088,-0.430284 0.37016,0.334989 0.55162,0.362509 0.79375,0.120383 0.44926,-0.449262 0.3929,-0.74817 -0.28143,-1.492644 l -0.59531,-0.657238 0.65419,0.441746 c 0.84566,0.571052 1.0656,0.556971 1.0656,-0.06821 0,-0.28048 -0.31371,-0.75673 -0.69714,-1.058334 -0.72696,-0.57183 -0.43661,-0.74895 0.44995,-0.274478 0.43679,0.233764 0.51135,0.185311 0.50886,-0.33073 -0.002,-0.332541 -0.0789,-1.064902 -0.17188,-1.62747 -0.14488,-0.877009 -0.32366,-1.093102 -1.25386,-1.515544 -1.60553,-0.729139 -3.9457,-0.658585 -6.22912,0.187799 -1.6071,0.595693 -1.86722,0.781174 -1.86722,1.331415 0,0.351615 -0.16647,1.037717 -0.36994,1.524672 -0.46563,1.114414 -2.25135,1.88741 -3.86131,1.671468 -1.18407,-0.158816 -1.21197,0.203139 -0.0356,0.46152 1.13257,0.248754 3.13981,-0.351046 3.74362,-1.118658 0.28677,-0.364575 0.63932,-1.100772 0.78344,-1.636001 0.19496,-0.724011 0.52614,-1.121571 1.29369,-1.552958 1.0822,-0.60823 2.15023,-0.76481 2.15023,-0.315238 0,0.145521 -0.23408,0.264583 -0.52019,0.264583 -0.2861,0 -0.93655,0.198552 -1.44545,0.441225 -0.70956,0.338367 -1.01982,0.718754 -1.33089,1.631714 -0.44918,1.318265 -1.09141,2.160395 -1.64757,2.160395 -0.20029,0 -0.42991,0.171317 -0.51026,0.380706 -0.2317,0.603782 -1.6439,0.800804 -2.19101,0.305678 -0.72045,-0.651997 -1.19502,-0.50473 -1.49855,0.465021 -0.21549,0.688478 -0.19316,1.01395 0.0998,1.455209 0.33516,0.504782 0.62086,0.568385 2.55307,0.568385 1.83967,0 2.24964,-0.08173 2.65457,-0.529166 0.30278,-0.334566 0.78004,-0.515917 1.29778,-0.493136 0.71868,0.03162 0.73794,0.0505 0.15743,0.154249 -0.3638,0.06502 -1.02647,0.467617 -1.4726,0.894663 -0.44613,0.427045 -0.89891,0.688683 -1.00617,0.581419 -0.10727,-0.107262 -0.10902,0.03947 -0.004,0.326078 0.18835,0.513513 0.18278,0.513762 -0.38289,0.01707 -0.54488,-0.478427 -0.59969,-0.480806 -1.07924,-0.04682 -0.47934,0.433797 -0.51914,0.432509 -0.77727,-0.02514 -0.21794,-0.386379 -0.33851,-0.416544 -0.60605,-0.151614 -0.40565,0.401709 -1.02189,0.434634 -1.02189,0.0546 0,-0.151874 -0.28821,-0.586952 -0.64046,-0.966841 -0.59399,-0.640588 -0.7003,-0.665919 -1.46518,-0.349096 -0.4536,0.187886 -0.78296,0.466889 -0.73192,0.620011 0.51775,1.55326 6.43995,2.520078 10.66032,1.740326 z m 4.03388,-5.71151 c 0.191,-0.07643 0.4192,-0.06703 0.50712,0.02088 0.0879,0.08792 -0.0684,0.150453 -0.34726,0.138964 -0.30823,-0.0127 -0.37092,-0.07539 -0.15986,-0.15985 z m 0.26459,-1.322916 c 0.19099,-0.07643 0.4192,-0.06703 0.50711,0.02088 0.0879,0.08792 -0.0684,0.150453 -0.34726,0.138965 -0.30823,-0.0127 -0.37092,-0.07539 -0.15985,-0.159851 z m -2.72852,-2.729677 c 0.0899,-0.145521 0.21603,-0.264584 0.2802,-0.264584 0.0642,0 0.11668,0.119063 0.11668,0.264584 0,0.145521 -0.12609,0.264583 -0.2802,0.264583 -0.15411,0 -0.20662,-0.119062 -0.11668,-0.264583 z m -11.51607,6.907275 c 1.30124,-0.559781 1.32929,-0.59582 1.31468,-1.68911 -0.0209,-1.561827 -0.52147,-2.826933 -1.36649,-3.4534 -0.59826,-0.443534 -0.8309,-0.483203 -1.37633,-0.234688 -1.09944,0.500933 -1.56644,1.755918 -1.38329,3.717279 0.17624,1.887273 0.86582,3.332618 1.25674,2.634086 0.12379,-0.221199 0.8234,-0.659574 1.55469,-0.974167 z m -0.21611,-3.203109 c 0,-0.363802 0.0601,-0.51263 0.13345,-0.330729 0.0734,0.181901 0.0734,0.479557 0,0.661458 -0.0734,0.181901 -0.13345,0.03307 -0.13345,-0.330729 z m -0.68766,-1.199038 c -0.28247,-0.213654 -0.38635,-0.388462 -0.23083,-0.388462 0.15551,0 0.43097,0.178594 0.61213,0.396875 0.41201,0.496443 0.2824,0.493583 -0.3813,-0.0084 z m 4.72802,1.312431 c 0.49518,-0.495173 0.53772,-1.208538 0.0983,-1.647976 -0.24694,-0.246944 -0.22931,-0.3175 0.0794,-0.3175 0.57867,0 1.03188,0.546177 1.03188,1.243542 0,0.748672 0.36189,0.775816 1.05833,0.07937 0.78004,-0.780034 0.71842,-2.480636 -0.12026,-3.319317 -0.87332,-0.873316 -2.11184,-0.849019 -3.52796,0.06921 -1.41713,0.918884 -1.69865,1.713534 -1.06886,3.017051 0.60591,1.254096 1.68498,1.639869 2.44922,0.875618 z m 0.94495,-0.834562 c 0,-0.829358 -0.12674,-0.733409 -0.37027,0.280318 -0.11813,0.491776 -0.0854,0.69125 0.0951,0.579697 0.15135,-0.09354 0.27519,-0.48055 0.27519,-0.860015 z m -7.2276,-2.768023 c -0.0845,-0.211066 -0.14715,-0.148373 -0.15985,0.159853 -0.0115,0.278913 0.0511,0.435184 0.13897,0.347266 0.0879,-0.08792 0.0973,-0.316125 0.0209,-0.507119 z m 1.11016,-4.1837241 c 0.1995,-0.363802 0.60673,-0.929349 0.90495,-1.256771 0.29823,-0.327422 0.42316,-0.595312 0.27764,-0.595312 -0.43025,0 -1.3592,1.12436 -1.7994,2.177925 -0.44802,1.072251 -0.51817,2.2940281 -0.21107,3.6759811 0.16359,0.73616 0.22186,0.521276 0.3318,-1.223698 0.0733,-1.1641671 0.29658,-2.4143231 0.49608,-2.7781251 z m 1.54052,3.3421871 c 0.57203,-2.3177761 0.70489,-1.7372591 0.18882,0.825 -0.13693,0.67986 0.52926,0.85085 0.77903,0.199951 0.28103,-0.732348 1.83481,-1.4547 3.13129,-1.455732 0.92733,-7.94e-4 1.42735,0.158427 1.97349,0.628197 0.48257,0.415089 0.87023,0.558446 1.13924,0.421291 2.01133,-1.025496 6.14189,-1.370179 7.85284,-0.655296 l 0.9458,0.395182 -0.18205,-0.725369 c -0.10013,-0.398952 -0.20215,-0.735327 -0.2267,-0.747498 -0.0246,-0.01217 -0.33902,-0.220776 -0.69882,-0.4635631 -0.51782,-0.349414 -0.55724,-0.441434 -0.18913,-0.441434 0.84329,0 0.0171,-0.97959 -1.06947,-1.267999 -0.94436,-0.250669 -0.95608,-0.266269 -0.21946,-0.292156 0.74234,-0.02609 0.75452,-0.04524 0.26458,-0.415806 -0.28247,-0.213651 -0.84804,-0.392244 -1.25681,-0.396875 -0.40877,-0.0046 -0.67361,-0.121039 -0.58854,-0.258691 0.21599,-0.349467 -1.49853,-0.80383 -3.69532,-0.979294 -2.90942,-0.232386 -6.57878,0.822285 -8.29398,2.383909 -1.72062,1.566563 -2.23983,4.8291461 -0.73432,4.6143381 0.4298,-0.06132 0.63625,-0.382468 0.87951,-1.368155 z m 0.95449,-5.1777681 c -0.14187,-0.176956 -2.46374,2.171655 -2.45768,2.485982 0.003,0.151601 0.57799,-0.319672 1.27792,-1.047276 0.69992,-0.727604 1.23082,-1.375021 1.17976,-1.438706 z m -2.85299,0.711864 c 0.0942,-0.182319 -0.0745,-0.03383 -0.37491,0.329967 -0.30043,0.363802 -0.54815,0.840052 -0.55049,1.058333 -0.004,0.348023 0.13733,0.136398 0.9254,-1.3883 z"
         style="fill:#000000;stroke-width:0.264583"
         id="path1860" /></g><g
       id="g1928"
       transform="translate(-28.323229,1.7565952)"><path
         d="m 73.968377,24.28335 c -1.433375,-1.127491 -1.478169,-1.422879 -1.40693,-9.277447 0.06503,-7.1698836 0.07187,-7.2490886 0.753034,-8.7142926 0.724662,-1.558775 1.593363,-2.27596 3.492952,-2.883722 0.871265,-0.278756 1.165736,-0.258595 2.050521,0.140387 1.196311,0.539461 1.29128,0.829644 0.384368,1.174452 -1.185733,0.450815 -1.570651,1.665608 -1.586164,5.005886 l -0.01402,3.0166926 0.851374,0.290599 c 0.468257,0.159829 1.052176,0.491817 1.297598,0.73775 0.418582,0.419451 0.417894,0.490389 -0.01106,1.145073 -0.251513,0.383856 -0.796637,0.816216 -1.211387,0.960799 -0.905007,0.315487 -1.093258,1.113416 -1.121857,4.755192 -0.01931,2.458773 0.129908,2.856431 1.206505,3.215299 0.151067,0.05035 0.197448,0.292772 0.103074,0.538707 -0.274706,0.715878 -3.843816,0.637328 -4.788008,-0.105375 z m 2.904924,-9.120431 c 0.05084,-6.5863546 0.142782,-8.4061976 0.470427,-9.3108946 0.345823,-0.954895 0.35071,-1.124479 0.03241,-1.124479 -0.50669,0 -1.431313,1.027508 -1.661898,1.846819 -0.103201,0.366697 -0.16334,1.619223 -0.133644,2.783389 0.0297,1.1641666 0.06212,4.6678126 0.07205,7.7858796 0.01765,5.539695 0.158165,6.538805 0.885597,6.296328 0.176464,-0.05882 0.294053,-2.963597 0.335063,-8.277042 z m 1.814732,-0.159094 c 0.37065,-0.168879 0.673907,-0.383191 0.673907,-0.47625 0,-0.336863 -0.645768,-0.804197 -1.11125,-0.804197 -0.352777,0 -0.47625,0.205787 -0.47625,0.79375 0,0.902032 0.0011,0.902531 0.913593,0.486697 z m -0.281241,6.015149 c -0.245573,-0.639951 0.08418,-1.210179 0.699836,-1.210179 0.449053,0 0.539057,0.13851 0.471323,0.725341 -0.09392,0.813695 -0.914593,1.15344 -1.171159,0.484838 z M 78.640474,8.3769144 c -0.412038,-0.510821 0.06883,-1.532702 0.721244,-1.532702 0.653997,0 0.983313,0.69872 0.609282,1.292734 -0.350694,0.556954 -0.982869,0.67097 -1.330526,0.239968 z"
         style="fill:#000000;stroke-width:0.264583"
         id="path1883" /></g><path
       d="m 107.87451,26.596254 c -0.30291,-0.129135 -0.88205,-0.62852 -1.28697,-1.109744 -0.65009,-0.772588 -0.71854,-1.024245 -0.58509,-2.15103 0.261,-2.203787 1.74666,-3.638626 3.76749,-3.638626 0.77979,0 1.15748,0.194453 1.89349,0.974855 0.87397,0.926674 0.91386,1.051567 0.80714,2.526987 -0.0971,1.342428 -0.23498,1.674007 -1.02046,2.454176 -0.97309,0.966512 -2.54718,1.381815 -3.5756,0.943382 z m 2.75101,-1.161924 c 0.57235,-0.452026 1.10703,-1.687808 1.10703,-2.558646 0,-1.461694 -1.43341,-2.895245 -2.48968,-2.489918 -0.30309,0.116308 -0.25134,0.330962 0.26229,1.087833 0.8736,1.287329 0.85246,2.692523 -0.0568,3.773079 l -0.69665,0.827923 0.76279,-0.182647 c 0.41954,-0.100457 0.91948,-0.306387 1.11098,-0.457624 z m -2.24902,-0.220835 c 0.81655,-0.429796 0.96615,-0.736775 0.97075,-1.992013 0.01,-2.69403 -2.35662,-2.454804 -2.46125,0.248805 -0.0259,0.669415 0.11027,1.363316 0.31625,1.611514 0.43052,0.518735 0.43746,0.519514 1.17425,0.131694 z m -1.38725,-7.007531 c -0.71418,-0.907931 -0.69693,-1.029268 0.24538,-1.725946 0.93158,-0.688748 0.98479,-1.026179 0.26459,-1.677956 -0.71169,-0.644062 -0.66614,-1.08868 0.16747,-1.63488 0.68454,-0.448529 0.70732,-0.443059 1.3118,0.315041 l 0.61517,0.771496 0.62348,-0.585724 c 0.84518,-0.794007 1.42402,-0.736176 1.90303,0.190132 0.38801,0.750323 0.37344,0.803626 -0.4426,1.619667 -0.8429,0.842897 -0.84331,0.844684 -0.38079,1.650569 0.44928,0.782825 0.4464,0.823078 -0.0969,1.356895 l -0.55989,0.550138 -0.63487,-0.786196 -0.63487,-0.786195 -0.75157,0.720049 c -0.41336,0.396028 -0.82571,0.72005 -0.91633,0.72005 -0.0906,0 -0.41152,-0.313713 -0.71312,-0.69714 z m 3.94955,-0.246296 c 0,-0.416473 -0.58809,-1.168046 -0.80774,-1.032292 -0.2996,0.185158 0.16633,1.181978 0.55246,1.181978 0.1404,0 0.25528,-0.06736 0.25528,-0.149686 z m -0.9827,-1.848888 c 1.235,-1.1371 1.67494,-1.70631 1.5167,-1.962345 -0.17286,-0.279698 -0.5102,-0.119157 -1.50292,0.715242 -1.84198,1.548213 -2.55226,2.370425 -2.34185,2.71089 0.2554,0.413234 0.36278,0.345716 2.32807,-1.463787 z m -0.86938,-1.400002 c 0,-0.122967 -0.22631,-0.428379 -0.5029,-0.678694 -0.59277,-0.536444 -1.05597,-0.09771 -0.54582,0.516985 0.34596,0.416855 1.04872,0.525218 1.04872,0.161709 z m -1.29078,-2.610088 c -2.39334,-1.179037 -2.46794,-4.8321372 -0.13613,-6.6663262 1.55129,-1.220246 4.23408,-0.440793 5.02872,1.461033 0.80024,1.915251 0.16195,3.7817792 -1.72901,5.0560982 -1.05417,0.710405 -1.93961,0.752163 -3.16358,0.149195 z m 2.78731,-0.896046 c 1.56572,-0.967665 2.08036,-2.6631312 1.27885,-4.2130862 -0.49702,-0.961141 -1.14133,-1.31762 -2.38147,-1.31762 h -0.96379 l 0.80405,0.804044 c 0.44222,0.442225 0.87864,1.201667 0.96981,1.68765 0.20393,1.087047 -0.4303,2.4353242 -1.34071,2.8501322 -0.35224,0.160492 -0.57761,0.393455 -0.50082,0.517696 0.24317,0.393457 1.20528,0.245216 2.13408,-0.328816 z m -1.6168,-1.153055 c 0.40937,-0.4093732 0.64943,-0.9517282 0.64943,-1.4672352 0,-0.801443 -0.97515,-2.116666 -1.56937,-2.116666 -0.41081,0 -1.01624,1.075225 -1.2134,2.154952 -0.3469,1.8997922 0.85646,2.7058252 2.13334,1.4289492 z"
       style="fill:#000000;stroke-width:0.264583"
       id="path1906" /></g></svg>
