<?xml version="1.0" encoding="UTF-8" standalone="no"?>
<!-- Created with Inkscape (http://www.inkscape.org/) -->

<svg
   width="60.660027mm"
   height="66.527069mm"
   viewBox="0 0 60.660027 66.527069"
   version="1.1"
   id="svg5"
   xml:space="preserve"
   inkscape:version="1.2.2 (b0a84865, 2022-12-01)"
   sodipodi:docname="grapheme-pas.svg"
   xmlns:inkscape="http://www.inkscape.org/namespaces/inkscape"
   xmlns:sodipodi="http://sodipodi.sourceforge.net/DTD/sodipodi-0.dtd"
   xmlns="http://www.w3.org/2000/svg"
   xmlns:svg="http://www.w3.org/2000/svg"><sodipodi:namedview
     id="namedview7"
     pagecolor="#ffffff"
     bordercolor="#666666"
     borderopacity="1.0"
     inkscape:showpageshadow="2"
     inkscape:pageopacity="0.0"
     inkscape:pagecheckerboard="0"
     inkscape:deskcolor="#d1d1d1"
     inkscape:document-units="mm"
     showgrid="false"
     inkscape:zoom="1.3362795"
     inkscape:cx="50.513386"
     inkscape:cy="223.00724"
     inkscape:window-width="2560"
     inkscape:window-height="1296"
     inkscape:window-x="0"
     inkscape:window-y="25"
     inkscape:window-maximized="1"
     inkscape:current-layer="layer1" /><defs
     id="defs2" /><g
     inkscape:label="Layer 1"
     inkscape:groupmode="layer"
     id="layer1"
     transform="translate(-19.563806,-17.799171)"><path
       id="path970"
       style="opacity:1;fill:#000000;stroke:#000000;stroke-width:0.799999"
       d="m 62.759993,49.127234 c -5.860409,0.130025 -11.876811,0.705231 -17.209285,3.337784 -2.610778,1.066815 -5.391742,0.94863 -7.918428,2.234555 -3.54129,1.432728 -7.143902,2.981406 -9.839709,5.791377 -3.939951,3.462526 -6.728194,8.74234 -5.897259,14.096907 0.610948,5.087363 5.493591,8.621786 10.371826,9.028695 7.651879,1.104977 15.237358,-1.091681 22.858012,-1.493828 5.94595,-0.650085 12.212891,0.246034 17.834174,-2.252057 2.359289,-0.842725 4.02159,-2.854175 4.74113,-5.211418 1.722489,-4.953584 1.238106,-10.351063 0.456022,-15.437968 -0.495734,-3.104104 -1.96153,-6.151693 -4.685502,-7.884273 -3.089877,-2.159952 -7.103471,-2.068078 -10.710981,-2.209774 z m -0.0021,1.014925 c 3.836213,0.133992 8.219551,0.03573 11.202417,2.863909 3.004436,2.608934 3.389452,6.861638 3.717086,10.570931 0.344783,4.643965 0.366055,9.835231 -2.561256,13.729702 -3.333199,2.828686 -7.960411,3.226197 -12.163397,3.439272 -7.398824,-0.02341 -14.721258,1.125272 -22.052401,1.953888 -4.2682,0.340254 -8.842176,0.519964 -12.809554,-1.341059 -3.505713,-1.594886 -5.690915,-5.448717 -5.299594,-9.276668 0.195326,-5.103493 3.621925,-9.423647 7.503037,-12.435301 3.032268,-2.327902 6.710971,-3.645157 10.276424,-4.921547 2.733192,-0.417712 5.392203,-1.180236 7.886228,-2.386949 4.544033,-1.736186 9.485401,-2.052634 14.30101,-2.196178 z" /><path
       style="opacity:1;fill:#000000;stroke:#000000;stroke-width:0.799999"
       id="path3995"
       d="m 70.798332,50.736412 c 2.818327,-0.520581 4.865692,-2.792339 5.942015,-5.340144 2.024372,-4.202131 3.739618,-8.909035 2.834724,-13.640634 C 79.100012,27.630198 77.65441,23.14148 73.952604,20.82364 68.918813,18.107839 62.976336,18.267309 57.412396,18.199268 51.61602,18.431222 45.823597,18.8986 40.01597,18.810617 c -4.137617,0.163533 -8.269069,0.751422 -12.306302,1.660103 -3.017225,0.799306 -5.86087,2.872256 -6.752815,5.981075 -1.939396,4.701161 -0.89106,10.206211 1.917375,14.314029 2.822107,3.353297 7.567357,3.470771 11.561294,4.200383 4.081826,0.515428 7.750063,2.51444 11.601552,3.829663 2.266847,0.877673 3.988527,1.554243 6.360075,2.122486 1.184189,-1.290782 -0.939234,-0.98868 -2.118322,-1.561339 -4.305955,-1.643998 -8.562772,-3.44101 -12.942393,-4.875741 -4.231583,-1.082688 -8.985084,-0.786328 -12.701101,-3.37506 -2.441162,-2.26136 -3.343543,-5.75547 -3.668448,-8.969701 0.01736,-3.800238 1.24066,-8.334755 5.080491,-9.945029 3.354206,-1.500494 7.114056,-1.595246 10.699034,-2.149909 4.52463,-0.383429 9.07685,-0.131895 13.608869,-0.440381 6.549399,-0.456508 13.254682,-0.807098 19.691741,0.742761 3.338403,0.703919 6.257589,3.124063 7.283747,6.421181 1.099572,2.884708 1.552303,6.053827 1.408078,9.133407 -0.513774,4.049813 -2.110725,7.951907 -4.275602,11.390302 -0.423814,1.96507 -4.270628,1.561313 -3.713374,3.285884 l 0.03993,0.133089 0.0086,0.0285 z"
       sodipodi:nodetypes="ccccccccccccccccccccccccccc" /><path
       style="opacity:1;fill:#000000;stroke:#000000;stroke-width:0.799999"
       id="path4008"
       d="m 29.123296,21.121952 c 2.714839,1.226311 5.794527,1.261597 8.544382,2.418095 5.824211,1.936857 11.756683,3.538785 17.554979,5.559865 6.063358,1.868208 12.434712,2.377806 18.53061,4.113035 1.903544,0.449102 3.822244,0.970199 5.696638,1.450249 C 78.346124,33.789795 76.182551,33.680714 74.663183,33.175939 70.426494,31.99525 66.096611,31.240084 61.775271,30.45153 55.982089,29.412287 50.500355,27.214411 44.851345,25.631583 41.507004,24.713013 38.235102,23.560262 34.914838,22.568881 32.995229,22.077878 30.96658,21.926264 29.165241,21.045053 l -0.04194,0.0769 z" /><path
       style="opacity:1;fill:#000000;stroke:#000000;stroke-width:0.799999"
       id="path4010"
       d="m 49.709561,19.431153 c -0.478512,0.554661 -0.78382,1.232908 -1.097864,1.888442 -0.57219,1.210731 -1.053711,2.461702 -1.612407,3.678288 -0.195501,0.356791 -0.333726,0.740834 -0.506697,1.106606 -0.199677,0.07165 0.03584,0.258228 0.08455,0.153016 0.03637,-0.349445 0.202838,-0.508119 0.373147,-0.807811 0.435273,-0.850941 0.783483,-1.742446 1.17039,-2.61571 0.474514,-1.085454 0.900899,-2.209782 1.586985,-3.184345 0.102273,-0.12052 0.115071,-0.122628 0.0019,-0.218486 z"
       sodipodi:nodetypes="scccccccss" /><path
       style="opacity:1;fill:#000000;stroke:#000000;stroke-width:0.799999"
       id="path4012"
       d="m 54.299625,19.058724 c -0.506901,0.678775 -0.914796,1.430479 -1.268693,2.198943 -0.666844,1.637361 -1.513611,3.193662 -2.442321,4.695832 -0.249258,0.403375 -0.460103,0.729489 -0.70095,1.136362 -0.240607,0.178919 0.202448,0.353085 0.16089,0.05036 0.575418,-0.839001 1.06564,-1.668133 1.579966,-2.546184 0.677734,-1.152095 1.196512,-2.385333 1.752995,-3.597667 0.31915,-0.621483 0.657346,-1.238924 1.075412,-1.800003 -0.05243,-0.04588 -0.104877,-0.09176 -0.157299,-0.13764 z"
       sodipodi:nodetypes="ccccccccc" /><path
       style="opacity:1;fill:#000000;stroke:#000000;stroke-width:0.799999"
       id="path4014"
       d="m 71.112035,20.269725 c -1.204986,1.737082 -2.557934,3.362971 -3.868467,5.020515 -1.330521,1.741946 -2.45229,3.630528 -3.672161,5.447029 -0.192384,0.54886 0.631234,-0.588391 0.791092,-0.834128 1.272833,-1.826774 2.40643,-3.754577 3.848721,-5.459725 1.065197,-1.315311 2.085477,-2.666176 3.030905,-4.069703 -0.04335,-0.03459 -0.08676,-0.06956 -0.13009,-0.103988 z" /><path
       style="opacity:1;fill:#000000;stroke:#000000;stroke-width:0.799999"
       id="path4016"
       d="m 73.755482,22.012527 c -1.61932,2.546786 -3.798255,4.682329 -5.392857,7.247556 -0.430647,0.751821 -0.974676,1.285697 -1.289429,2.027575 0.531513,-0.17879 0.817894,-1.062545 1.280299,-1.581153 1.266848,-2.024371 2.838344,-3.825565 4.28958,-5.714701 0.366647,-0.605814 1.21497,-1.374133 1.156573,-1.949843 l -0.04252,-0.02834 -0.0016,-0.0011 z"
       sodipodi:nodetypes="ccccccccc" /><path
       style="opacity:1;fill:#000000;stroke:#000000;stroke-width:0.799999"
       id="path4018"
       d="m 53.365503,21.717222 c 1.752927,0.290551 3.482115,0.787986 5.142403,1.42352 1.193551,0.512997 2.601457,1.176223 2.954725,2.550361 0.146429,1.497075 -0.589317,2.902663 -1.221312,4.209671 0.176984,0.588026 0.695732,-0.806871 0.859507,-1.095625 0.428124,-1.080554 0.929657,-2.296715 0.574819,-3.464385 -0.658187,-1.590721 -2.455677,-2.143311 -3.929666,-2.705314 -1.435531,-0.440338 -2.882486,-0.932604 -4.380497,-1.090493 2e-5,0.05742 -3.6e-5,0.11486 2.1e-5,0.172265 z" /><path
       style="opacity:1;fill:#000000;stroke:#000000;stroke-width:0.799999"
       id="path4020"
       d="m 52.355604,23.480003 c 1.728752,0.724686 3.596895,1.038611 5.338863,1.715453 0.894319,0.423071 1.004255,1.539474 0.724917,2.380702 -0.09121,0.675909 -0.692726,1.426502 -0.713987,1.978879 0.514498,-0.07973 0.619581,-1.213772 0.898463,-1.692984 0.356747,-0.94836 0.343045,-2.254506 -0.656179,-2.807829 -1.314929,-0.645301 -2.80197,-0.810496 -4.173359,-1.30967 -0.333386,0.03468 -1.340299,-0.714479 -1.418718,-0.264551 z" /><path
       style="opacity:1;fill:#000000;stroke:#000000;stroke-width:0.799999"
       id="path4022"
       d="m 28.205189,24.263892 c 7.431169,2.368288 15.080031,3.932456 22.612728,5.925918 3.602413,0.954884 7.169002,2.04187 10.758047,3.037574 2.90101,0.505778 5.589219,1.712392 8.356134,2.657167 1.36747,0.267326 3.171506,1.062068 4.334791,0.891048 C 72.930433,35.948161 70.768376,35.991094 69.192886,35.277098 66.469861,34.16478 63.675852,33.226347 60.77538,32.699541 52.757933,30.201291 44.555303,28.371332 36.414731,26.3308 c -2.729237,-0.715965 -5.445926,-1.48218 -8.151472,-2.279799 -0.01937,0.07094 -0.03869,0.141973 -0.05807,0.212891 z" /><path
       style="opacity:1;fill:#000000;stroke:#000000;stroke-width:0.799999"
       id="path4024"
       d="m 40.504054,27.734905 c -0.862056,1.148734 -0.389917,2.933451 0.774751,3.699648 1.725974,1.33267 4.684774,0.602173 5.382051,-1.528188 0.301273,-0.265893 0.07247,-0.946313 -0.165279,-0.475952 -0.288803,1.648888 -2.129888,2.615983 -3.699507,2.323199 -1.331311,-0.163967 -2.56417,-1.304054 -2.495954,-2.706198 -0.195266,-0.451567 0.579498,-1.082537 0.203938,-1.312509 z" /><path
       style="opacity:1;fill:#000000;stroke:#000000;stroke-width:0.799999"
       id="path4026"
       d="m 46.721633,29.190206 c -0.429473,1.283784 -0.767642,2.897148 0.212539,4.020672 1.03502,1.066162 2.738551,1.41082 4.132696,0.925467 1.40943,-0.514156 2.134615,-1.982811 2.519735,-3.333209 -0.658794,-0.335403 -0.546133,1.048062 -0.958989,1.387679 -0.538496,1.183925 -1.83423,1.912017 -3.123386,1.785793 -1.205036,0.01126 -2.618921,-0.600309 -2.893141,-1.890089 -0.249364,-0.954709 0.05976,-1.927079 0.319624,-2.844068 -0.06968,-0.0174 -0.139456,-0.03489 -0.209078,-0.05224 z" /><path
       style="opacity:1;fill:#000000;stroke:#000000;stroke-width:0.799999"
       id="path4028"
       d="m 53.786171,31.02229 c -0.721337,1.091541 -1.444025,2.421968 -1.042046,3.766542 0.257409,1.153965 1.412425,1.749111 2.489975,1.926158 1.474491,0.358761 3.306586,-0.0358 4.099364,-1.442416 0.458767,-0.785945 0.744092,-1.674447 0.872136,-2.573622 -0.603378,-0.419811 -0.44331,0.872232 -0.707858,1.223642 -0.315396,1.097122 -1.074758,2.190317 -2.26741,2.401958 -1.223119,0.275992 -2.616213,0.06209 -3.61692,-0.714735 -0.760874,-0.820895 -0.892949,-2.141792 -0.356738,-3.12031 0.02683,-0.444942 1.000089,-1.166392 0.529497,-1.467217 z" /><path
       style="opacity:1;fill:#000000;stroke:#000000;stroke-width:0.799999"
       id="path4030"
       d="m 23.530209,29.065325 c 2.566907,1.010659 4.073248,3.543117 5.497599,5.759571 1.951708,2.304814 4.721301,3.736314 7.402955,5.018763 3.821265,1.42682 7.848709,2.182732 11.757161,3.323154 2.992634,0.318352 5.872729,1.243076 8.860854,1.595408 3.349421,0.49419 7.119018,0.595846 9.983274,-1.503559 1.92932,-0.966129 4.092392,-2.693049 6.361252,-1.85314 0.621691,0.50935 2.016942,1.203893 0.786432,0.04394 -2.301786,-1.492154 -4.925768,0.19307 -6.976909,1.32353 -2.000572,1.466571 -4.462999,2.055664 -6.919782,1.933913 C 56.867034,44.634563 53.537242,43.785043 50.208891,43.099198 46.86907,42.744495 43.713065,41.501627 40.445183,40.778681 37.949781,40.129017 35.454544,39.371818 33.291282,37.92612 31.248559,36.771152 29.268157,35.322209 28.197995,33.168666 26.986026,31.475605 25.592042,29.641446 23.56604,28.91012 l -0.02465,0.10683 -0.01118,0.04844 z" /><path
       style="opacity:1;fill:#000000;stroke:#000000;stroke-width:0.799999"
       id="path4032"
       d="m 25.529996,33.380698 c 0.722488,2.103133 2.678859,3.459054 4.422099,4.679437 2.674945,1.788695 5.590219,3.199068 8.688204,4.083369 4.650333,1.460578 9.387958,2.611566 14.152281,3.629418 2.658495,0.628621 5.364717,1.195087 8.095053,1.314547 3.311731,-0.207036 6.437927,-1.560231 9.350176,-3.065617 -0.83348,-0.4972 -2.628788,1.224484 -3.882107,1.365959 -2.501035,1.045025 -5.267557,1.725151 -7.970171,1.145413 -3.503988,-0.478148 -6.933876,-1.376491 -10.378065,-2.157778 -3.931612,-0.892898 -7.821003,-1.993741 -11.631725,-3.307873 -2.787506,-0.986136 -5.342334,-2.52347 -7.74246,-4.230942 -1.12473,-1.023126 -2.433715,-2.011866 -2.904093,-3.528319 -0.06631,0.024 -0.132954,0.0485 -0.199192,0.07239 z" /><path
       style="opacity:1;fill:#000000;stroke:#000000;stroke-width:0.799999"
       id="path4034"
       d="m 37.009027,33.529016 c -0.482101,0.426716 -0.845065,0.965589 -1.289525,1.4288 -0.581319,0.653987 -1.280974,1.191796 -2.022159,1.652084 -0.344766,0.21559 -0.705191,0.407207 -1.059565,0.604149 -0.257454,-0.02343 -0.179745,0.381622 0.0251,0.212782 0.357229,-0.207843 0.735247,-0.382069 1.08567,-0.604223 0.777605,-0.457466 1.53085,-0.978961 2.12982,-1.660986 0.449027,-0.4676 0.819521,-1.004572 1.283248,-1.458226 -0.05086,-0.05812 -0.101749,-0.116296 -0.152589,-0.17438 z" /><path
       style="opacity:1;fill:#000000;stroke:#000000;stroke-width:0.799999"
       id="path4036"
       d="m 38.339887,35.565775 c -0.401899,0.360904 -0.80657,0.718868 -1.217116,1.07014 -0.702515,0.614552 -1.441951,1.188434 -2.21218,1.714767 -0.127094,0.02224 -0.423384,0.200782 -0.199625,0.30387 0.267953,-0.05272 0.493863,-0.286279 0.741473,-0.41502 0.551851,-0.361503 1.064319,-0.780455 1.572652,-1.199917 0.49146,-0.431458 1.001663,-0.842587 1.461662,-1.308594 -0.04895,-0.05508 -0.09794,-0.110152 -0.146866,-0.165246 z" /><path
       style="opacity:1;fill:#000000;stroke:#000000;stroke-width:0.799999"
       id="path4038"
       d="m 46.103907,37.537773 c -0.571442,0.691287 -1.123128,1.400582 -1.750911,2.042866 -0.406958,0.440724 -0.815109,0.880664 -1.24704,1.297269 -0.06619,0.130617 -0.490739,0.301027 -0.238462,0.427124 0.192405,-0.09369 0.329404,-0.279292 0.499006,-0.412514 0.458059,-0.427892 0.871593,-0.900607 1.32047,-1.33799 0.559641,-0.59524 1.065434,-1.238006 1.580685,-1.871196 -0.05457,-0.04851 -0.109215,-0.09708 -0.163748,-0.145559 z" /><path
       style="opacity:1;fill:#000000;stroke:#000000;stroke-width:0.799999"
       id="path4040"
       d="m 47.849287,38.250106 c -0.341971,0.525396 -0.626192,1.087826 -0.996913,1.595047 -0.400657,0.570501 -0.825127,1.127077 -1.301816,1.636322 -0.08031,0.122151 -0.365906,0.235431 -0.250016,0.39426 0.15047,0.125621 0.281728,-0.158725 0.40463,-0.234809 0.352394,-0.36398 0.671042,-0.760108 0.977985,-1.162888 0.470316,-0.614511 0.87076,-1.277352 1.252744,-1.949144 0.106668,-0.107914 0.101456,-0.188903 -0.03214,-0.242477 -0.01816,-0.0121 -0.03631,-0.02422 -0.05448,-0.03631 z" /><path
       style="opacity:1;fill:#000000;stroke:#000000;stroke-width:0.799999"
       id="path4042"
       d="m 59.593784,40.496577 c -0.366859,0.581241 -0.817786,1.105186 -1.271107,1.620156 -0.420107,0.478654 -0.904004,0.893402 -1.379817,1.31414 -0.197031,0.184809 -0.405348,0.365287 -0.638844,0.50104 -0.14673,0.10669 0.147042,0.339458 0.213142,0.118872 0.260624,-0.159918 0.499497,-0.353516 0.734451,-0.548445 0.587383,-0.505489 1.14932,-1.042986 1.639729,-1.644636 0.32476,-0.399069 0.664964,-0.793504 0.916112,-1.244588 -0.07122,-0.03884 -0.142472,-0.07771 -0.213666,-0.116539 z" /><path
       style="opacity:1;fill:#000000;stroke:#000000;stroke-width:0.799999"
       id="path4044"
       d="m 61.219664,41.470066 c -0.426611,0.528678 -0.831141,1.076532 -1.295564,1.573687 -0.439061,0.488042 -0.919694,0.937574 -1.415177,1.36698 -0.0568,0.183529 0.212797,0.239442 0.281844,0.0625 0.896235,-0.751542 1.663882,-1.642025 2.372045,-2.56938 0.05696,-0.104751 0.243972,-0.234343 0.210399,-0.331436 -0.05118,-0.03411 -0.102384,-0.06827 -0.153547,-0.102347 z" /><path
       style="opacity:1;fill:#000000;stroke:#000000;stroke-width:0.799999"
       id="path4100"
       d="m 27.711378,43.558457 c -0.02302,0.05409 -0.0464,0.108217 -0.06747,0.1632 -0.02704,0.06925 -0.0571,0.137319 -0.08669,0.205518 -0.04034,0.08205 -0.07146,0.168016 -0.105159,0.252899 -0.03891,0.105627 -0.07668,0.211725 -0.110964,0.318953 -0.04529,0.129011 -0.07974,0.261503 -0.116535,0.393104 -0.04289,0.156552 -0.08235,0.313971 -0.12155,0.471472 -0.04227,0.15766 -0.07391,0.318011 -0.122036,0.474038 -0.0387,0.158626 -0.07963,0.316714 -0.116861,0.475705 -0.04069,0.169492 -0.07608,0.340185 -0.113872,0.510336 -0.03346,0.170702 -0.0689,0.340982 -0.104621,0.51122 -0.03716,0.176745 -0.07132,0.35406 -0.104183,0.531649 -0.03386,0.185724 -0.06604,0.371745 -0.09669,0.558027 -0.03308,0.200882 -0.06012,0.402648 -0.08749,0.604361 -0.02794,0.204081 -0.05147,0.408721 -0.07203,0.613667 -0.01869,0.189934 -0.03404,0.380167 -0.04832,0.570473 -0.01397,0.171768 -0.02286,0.343864 -0.03233,0.515914 -0.008,0.162068 -0.0099,0.324215 -0.0073,0.486442 0.0028,0.161547 0.01423,0.322495 0.03326,0.482888 0.01982,0.173768 0.05525,0.344845 0.09321,0.515358 0.04481,0.181415 0.10698,0.357659 0.174021,0.531853 0.05987,0.162954 0.136515,0.318738 0.215615,0.472998 0.07525,0.144767 0.160758,0.283599 0.25324,0.417893 0.09144,0.134287 0.190736,0.262795 0.29908,0.383802 0.106098,0.11734 0.214887,0.232109 0.327059,0.343646 0.11108,0.111337 0.228661,0.215763 0.346851,0.319403 0.116943,0.101602 0.236921,0.199646 0.358835,0.295206 0.122532,0.09889 0.252662,0.187558 0.384159,0.273923 0.125887,0.08207 0.254522,0.159766 0.385022,0.234241 0.125648,0.07177 0.254839,0.136816 0.384585,0.200742 0.1201,0.05687 0.240189,0.113755 0.360627,0.169899 0.118441,0.05474 0.237165,0.108858 0.355571,0.163674 0.135221,0.06099 0.271137,0.120359 0.407541,0.178647 0.143459,0.06243 0.288165,0.12188 0.4348,0.176437 0.140277,0.05349 0.283832,0.09735 0.427498,0.140597 0.136734,0.04178 0.275717,0.07523 0.414861,0.107786 0.147963,0.03686 0.298601,0.06065 0.448707,0.08664 0.154321,0.0259 0.309271,0.04791 0.46432,0.06895 0.133128,0.02705 0.268129,0.04009 0.403386,0.05014 0.105339,0.0042 0.209164,0.02183 0.313391,0.03631 0.01125,0.0024 0.118087,0.01593 0.122087,0.0099 0.02204,-0.03309 0.02495,-0.0755 0.03743,-0.11325 0,0 0.0057,-0.133133 0.0057,-0.133133 v 0 c -0.0123,-0.03881 -0.01524,-0.08197 -0.03691,-0.116429 -0.0037,-0.0058 -0.106413,0.0034 -0.117626,0.0051 -0.0997,0.0087 -0.199959,0.01124 -0.299556,-7.94e-4 -0.130225,-0.0108 -0.260244,-0.02421 -0.390671,-0.03241 -0.151765,-0.01775 -0.303239,-0.03764 -0.453945,-0.06304 -0.144212,-0.02262 -0.288687,-0.04475 -0.430866,-0.0783 -0.133525,-0.03113 -0.267116,-0.06209 -0.398137,-0.102843 -0.137695,-0.04074 -0.274778,-0.08355 -0.409086,-0.134559 -0.142621,-0.05351 -0.283559,-0.111281 -0.423225,-0.172101 -0.134075,-0.05623 -0.26765,-0.113596 -0.400793,-0.172003 -0.118539,-0.05428 -0.237191,-0.108281 -0.35559,-0.162856 -0.118679,-0.05426 -0.235855,-0.111789 -0.353904,-0.167408 -0.124558,-0.06137 -0.249049,-0.122824 -0.369236,-0.192539 -0.125199,-0.0716 -0.248545,-0.146352 -0.369078,-0.225584 -0.124656,-0.08244 -0.248936,-0.165833 -0.365469,-0.259623 -0.117658,-0.09242 -0.233754,-0.186832 -0.3463,-0.285453 -0.113697,-0.100174 -0.227274,-0.200525 -0.334518,-0.307687 -0.108696,-0.107294 -0.212992,-0.218829 -0.316296,-0.331303 -0.100865,-0.111596 -0.199483,-0.225113 -0.282255,-0.351179 -0.08619,-0.124653 -0.168767,-0.25192 -0.240094,-0.385789 -0.07612,-0.144701 -0.147232,-0.291907 -0.207753,-0.443918 -0.06368,-0.16438 -0.122269,-0.330763 -0.171894,-0.499978 -0.04594,-0.157183 -0.08124,-0.317412 -0.100688,-0.480171 -0.01826,-0.151918 -0.03311,-0.304337 -0.03636,-0.457419 -0.0022,-0.157935 -0.0014,-0.316011 0.0034,-0.473888 0.0034,-0.169293 0.01677,-0.338029 0.02912,-0.506865 0.01487,-0.188349 0.03109,-0.376594 0.05027,-0.56456 0.02077,-0.202295 0.04274,-0.404455 0.07084,-0.60589 0.0269,-0.199731 0.05226,-0.39969 0.08432,-0.598689 0.02931,-0.184808 0.06069,-0.369257 0.0945,-0.553302 0.03223,-0.17659 0.06437,-0.353187 0.09607,-0.529873 0.03192,-0.170465 0.06484,-0.340733 0.09966,-0.51063 0.03217,-0.169568 0.06724,-0.338545 0.107404,-0.506423 0.03604,-0.158311 0.07174,-0.316685 0.107995,-0.474948 0.02947,-0.160221 0.07168,-0.31764 0.110557,-0.475776 0.03944,-0.156327 0.07843,-0.312759 0.118882,-0.468824 0.03336,-0.129754 0.0696,-0.258693 0.107659,-0.38714 0.03239,-0.104191 0.06757,-0.207495 0.10369,-0.310441 0.03019,-0.08357 0.06211,-0.166482 0.09182,-0.250225 0.02992,-0.07077 0.05862,-0.14201 0.08324,-0.214828 0.01982,-0.0535 0.04176,-0.106098 0.0638,-0.158666 0,0 -0.149722,-0.06238 -0.149722,-0.06238 z" /><path
       style="opacity:1;fill:#000000;stroke:#000000;stroke-width:0.799999"
       id="path4102"
       d="m 30.456478,44.194573 c -0.04362,0.06141 -0.07929,0.127916 -0.11589,0.193609 -0.05266,0.09228 -0.10201,0.186415 -0.150569,0.280903 -0.06629,0.115774 -0.138216,0.22891 -0.202181,0.346094 -0.08236,0.142546 -0.158176,0.287448 -0.231588,0.434832 -0.07999,0.170891 -0.15848,0.34227 -0.226496,0.518287 -0.06836,0.179834 -0.129776,0.361873 -0.18541,0.546012 -0.05939,0.185915 -0.106042,0.375505 -0.149309,0.565703 -0.04438,0.194212 -0.07608,0.391015 -0.10759,0.587632 -0.03018,0.203179 -0.05477,0.407027 -0.07158,0.611732 -0.02061,0.22048 -0.02355,0.441855 -0.02421,0.663115 -0.0011,0.219882 0.01135,0.439306 0.02646,0.658551 0.01437,0.215413 0.04585,0.429053 0.08212,0.641704 0.03535,0.217213 0.09082,0.430779 0.153011,0.641694 0.05728,0.19798 0.130459,0.390364 0.214361,0.578422 0.0767,0.173183 0.172325,0.336587 0.267938,0.499737 0.08424,0.144028 0.175733,0.283913 0.272378,0.419901 0.09818,0.139624 0.208682,0.269931 0.322709,0.396727 0.11551,0.130927 0.236509,0.256831 0.362718,0.377439 0.150971,0.134911 0.30897,0.262641 0.474149,0.379743 0.1568,0.10877 0.317677,0.211429 0.481912,0.308547 0.139115,0.08716 0.286959,0.160705 0.420656,0.256066 0.144137,0.07988 0.298497,0.139224 0.451945,0.198477 0.146992,0.05429 0.298106,0.09606 0.449331,0.136573 0.157486,0.04461 0.318069,0.07594 0.479277,0.103449 0.178726,0.03058 0.358812,0.05094 0.539131,0.06919 0.197422,0.0186 0.395941,0.0172 0.593966,0.01283 0.185785,-0.004 0.37134,-0.01402 0.55663,-0.02792 0.182669,-0.01529 0.364877,-0.03715 0.546079,-0.06478 0.180943,-0.0226 0.359,-0.06435 0.536541,-0.105262 0.17277,-0.04246 0.346538,-0.08061 0.518046,-0.128003 0.164065,-0.0436 0.324477,-0.09869 0.481531,-0.16288 0.161369,-0.06745 0.315582,-0.149773 0.4659,-0.238792 0.151455,-0.08787 0.294018,-0.189076 0.4353,-0.292142 0.136694,-0.09996 0.275616,-0.200856 0.399492,-0.31654 0.116781,-0.109119 0.228901,-0.222744 0.336235,-0.341135 0.0962,-0.105471 0.188756,-0.214175 0.281159,-0.322969 0.09087,-0.108913 0.18061,-0.218747 0.268857,-0.3298 0.08318,-0.108622 0.168605,-0.21549 0.252619,-0.323467 0.09091,-0.119478 0.179773,-0.240445 0.264993,-0.364045 0.09526,-0.141203 0.179668,-0.289222 0.263496,-0.437364 0.08492,-0.155726 0.164639,-0.314227 0.241731,-0.473951 0.07915,-0.163113 0.15422,-0.328073 0.226269,-0.494427 0.07503,-0.177681 0.146915,-0.356619 0.213627,-0.537588 0.06909,-0.180811 0.123675,-0.366588 0.178176,-0.552162 0.04791,-0.18406 0.08929,-0.369641 0.12918,-0.555567 0.03581,-0.17181 0.07079,-0.343805 0.103045,-0.516321 0.02741,-0.149579 0.05306,-0.299474 0.07937,-0.449249 0.0208,-0.120801 0.04242,-0.241472 0.05784,-0.363101 0.0118,-0.104447 0.02987,-0.207907 0.04083,-0.312462 0.01347,-0.08559 0.01969,-0.171937 0.03027,-0.257898 0.01675,-0.162004 0.05509,-0.09551 -0.199803,-0.154516 0,0 -0.09141,-0.0217 -0.09141,-0.0217 v 0 c -0.267433,0.0021 -0.212686,-0.05717 -0.239192,0.102349 -0.01299,0.08329 -0.03093,0.165499 -0.04314,0.248917 -0.02082,0.102137 -0.03767,0.204986 -0.05753,0.307284 -0.02201,0.116316 -0.0412,0.23317 -0.06399,0.349351 -0.02711,0.147399 -0.05301,0.29501 -0.08048,0.442344 -0.03298,0.167849 -0.06696,0.335494 -0.102825,0.50275 -0.03719,0.171593 -0.07388,0.343638 -0.128598,0.510723 -0.05108,0.172328 -0.103518,0.344466 -0.16818,0.512283 -0.06404,0.1705 -0.13131,0.339728 -0.203004,0.507172 -0.06927,0.15857 -0.139859,0.316571 -0.215252,0.472348 -0.07242,0.148436 -0.146365,0.296127 -0.224425,0.441695 -0.07504,0.133625 -0.149725,0.267674 -0.235521,0.394819 -0.07799,0.115419 -0.158819,0.228809 -0.243393,0.339516 -0.08032,0.106389 -0.16378,0.210328 -0.246105,0.315161 -0.08429,0.105794 -0.167468,0.212445 -0.255899,0.314862 -0.0889,0.104003 -0.177525,0.208235 -0.269833,0.309256 -0.09635,0.106571 -0.191593,0.214627 -0.296505,0.312931 -0.228976,0.215489 0.110958,-0.107818 -0.101926,0.105624 -0.07097,0.07115 -0.156802,0.126457 -0.229245,0.196016 -0.122883,0.09496 -0.250997,0.182798 -0.383622,0.263663 -0.127551,0.0759 -0.257371,0.148537 -0.393962,0.207111 -0.137187,0.05696 -0.276241,0.109325 -0.420574,0.145536 -0.164306,0.0466 -0.329793,0.08841 -0.49607,0.127424 -0.164804,0.04022 -0.331354,0.0723 -0.496459,0.11109 -0.166293,0.02835 -0.332618,0.05737 -0.501208,0.0688 -0.176247,0.01286 -0.35279,0.0226 -0.529519,0.02514 -0.179699,0.0034 -0.359653,0.0068 -0.53916,-0.0048 -0.1677,-0.01252 -0.334827,-0.0321 -0.500978,-0.05817 -0.145314,-0.02402 -0.290549,-0.04982 -0.432464,-0.0899 -0.137662,-0.03773 -0.275452,-0.07521 -0.410585,-0.121404 -0.139388,-0.04733 -0.276622,-0.09987 -0.412758,-0.155887 -0.147511,-0.04203 -0.281832,-0.120846 -0.413944,-0.197456 -0.154738,-0.09196 -0.309427,-0.184158 -0.457472,-0.286703 -0.150609,-0.104939 -0.30557,-0.204692 -0.439798,-0.33111 -0.120545,-0.1109 -0.23232,-0.230592 -0.342707,-0.351533 -0.10404,-0.114504 -0.206174,-0.231444 -0.296307,-0.357346 -0.08929,-0.127556 -0.176736,-0.256363 -0.255453,-0.390816 -0.08827,-0.15194 -0.176199,-0.304539 -0.250798,-0.463762 -0.07873,-0.170614 -0.148117,-0.345252 -0.199382,-0.526291 -0.05763,-0.197543 -0.108834,-0.396835 -0.151847,-0.598109 -0.03568,-0.199668 -0.06401,-0.400828 -0.07825,-0.603255 -0.01479,-0.21041 -0.02522,-0.421034 -0.02466,-0.63205 -6.3e-5,-0.211275 0.0011,-0.42291 0.01815,-0.633616 0.01582,-0.196586 0.0343,-0.39288 0.06424,-0.587912 0.02619,-0.191215 0.05998,-0.381143 0.0956,-0.57081 0.03226,-0.18348 0.06874,-0.365908 0.117668,-0.54579 0.04709,-0.176573 0.098,-0.35255 0.16252,-0.523634 0.06386,-0.168516 0.123002,-0.338757 0.200525,-0.501735 0.06773,-0.145907 0.133462,-0.292301 0.204952,-0.436237 0.06135,-0.119978 0.113395,-0.24542 0.167963,-0.368517 0.04645,-0.09282 0.09466,-0.1847 0.144497,-0.275754 0.03341,-0.06195 0.06675,-0.123944 0.09934,-0.186277 0,0 -0.185663,-0.11815 -0.185663,-0.11815 z" /><path
       style="opacity:1;fill:#000000;stroke:#000000;stroke-width:0.799999"
       id="path4104"
       d="m 43.147845,47.841151 c -0.01638,0.05301 -0.02971,0.106794 -0.04894,0.158908 -0.02606,0.08625 -0.06281,0.168567 -0.09262,0.25359 -0.03579,0.108255 -0.07143,0.216549 -0.107907,0.324573 -0.04224,0.129886 -0.08732,0.258865 -0.133943,0.387239 -0.05392,0.137951 -0.100994,0.278442 -0.150199,0.418115 -0.05218,0.14233 -0.0994,0.286385 -0.149857,0.429321 -0.04551,0.138197 -0.101404,0.272587 -0.154424,0.408046 -0.06036,0.13835 -0.119129,0.277397 -0.175567,0.417491 -0.05343,0.131744 -0.107894,0.263126 -0.158329,0.396058 -0.04649,0.120994 -0.09283,0.242056 -0.138232,0.363468 -0.04131,0.111149 -0.08265,0.222271 -0.123859,0.333457 -0.03963,0.104667 -0.07872,0.209548 -0.11878,0.31405 -0.03738,0.09749 -0.07601,0.194498 -0.116684,0.290663 -0.03954,0.09158 -0.08201,0.181804 -0.125679,0.271466 -0.03947,0.08149 -0.08297,0.160726 -0.129302,0.238469 -0.0492,0.07801 -0.09944,0.155331 -0.151223,0.231648 -0.04959,0.07466 -0.106701,0.143906 -0.163049,0.213481 -0.02682,0.03709 -0.05944,0.07318 -0.08286,0.112573 -0.0089,0.01487 -0.0122,0.03265 -0.02133,0.04736 -0.01418,0.02283 -0.05063,0.05933 -0.0692,0.07888 -0.06706,0.06912 -0.154184,0.114856 -0.226587,0.177689 0.0095,0.03637 0.01894,0.07274 0.02841,0.109112 0,0 0.07436,0.08685 0.07436,0.08685 v 0 c 0.03362,0.01569 0.06723,0.0314 0.100846,0.0471 0.08351,-0.06777 0.14496,-0.15697 0.219845,-0.233376 0.01466,-0.01537 0.0591,-0.06331 0.07659,-0.07638 0.0158,-0.01183 0.0352,-0.01828 0.05086,-0.03027 0.03986,-0.03056 0.07465,-0.07256 0.107591,-0.110035 0.06253,-0.07712 0.12628,-0.153503 0.180575,-0.236823 0.05532,-0.08251 0.109146,-0.166082 0.160602,-0.251045 0.04918,-0.08568 0.0957,-0.172961 0.139052,-0.261747 0.04581,-0.09442 0.09255,-0.188516 0.132368,-0.285689 0.04358,-0.100648 0.08345,-0.202737 0.121849,-0.305469 0.03809,-0.105093 0.07903,-0.209119 0.115887,-0.314661 0.04178,-0.110557 0.08198,-0.2217 0.124246,-0.332074 0.04609,-0.120359 0.09205,-0.240773 0.138464,-0.361008 0.05141,-0.130725 0.103781,-0.261059 0.155245,-0.39176 0.05755,-0.141783 0.11761,-0.282536 0.1677,-0.427191 0.05219,-0.139788 0.09791,-0.281538 0.145638,-0.422871 0.04747,-0.143322 0.09611,-0.286271 0.141816,-0.430162 0.04858,-0.140618 0.09858,-0.280813 0.142021,-0.423129 0.04167,-0.130919 0.08939,-0.259842 0.129323,-0.39134 0.03567,-0.109747 0.0705,-0.219739 0.10437,-0.330052 0.02524,-0.09003 0.04329,-0.181581 0.06919,-0.271373 0.01143,-0.06208 0.02898,-0.122981 0.0363,-0.185727 0,0 -0.224584,-0.03743 -0.224584,-0.03743 z" /><path
       style="opacity:1;fill:#000000;stroke:#000000;stroke-width:0.799999"
       id="path4108"
       d="m 29.194928,46.991782 c -0.128854,0.412306 0.408103,0.704188 0.716663,0.987553 0.508107,0.434828 1.172733,0.621617 1.817861,0.734917 -0.154118,-0.02883 -0.200456,-0.363436 -0.084,-0.289666 -0.531981,0.274191 -1.103532,0.472036 -1.60795,0.799458 -0.29121,0.165455 -0.528482,0.403726 -0.758246,0.642505 -0.133054,0.0643 0.04047,0.17811 0.10499,0.228811 0.138563,0.182019 0.210302,-0.08897 0.338289,-0.151113 0.502832,-0.371015 1.060533,-0.658863 1.634555,-0.902287 0.216109,-0.108469 0.461184,-0.186393 0.631491,-0.363798 0.207966,-0.101838 -0.02128,-0.34778 -0.210294,-0.372949 -0.385264,-0.08338 -0.776362,-0.161952 -1.132847,-0.338138 -0.508092,-0.225522 -0.964738,-0.603395 -1.212871,-1.107104 -0.08795,0.03518 -0.165659,-0.09851 -0.193885,-0.0082 z"
       sodipodi:nodetypes="sccccccccccccss" /><path
       style="opacity:1;fill:#000000;stroke:#000000;stroke-width:0.799999"
       id="path4110"
       d="m 31.706113,53.448867 c 0.372443,-0.201544 0.68934,-0.491239 0.994231,-0.782 0.247013,-0.436596 1.33025,-0.967629 0.774547,-1.145066 -0.01452,0.28856 -0.002,0.499446 0.09042,0.768726 0.237695,0.664557 0.542647,1.32844 1.049208,1.832767 0.03977,0.111021 0.036,0.413498 0.217136,0.207884 0.120292,-0.108671 0.26619,-0.198232 0.351052,-0.33889 -0.15263,-0.08193 -0.315591,-0.113907 -0.383223,-0.307433 -0.338545,-0.475941 -0.60561,-0.999352 -0.801911,-1.549237 -0.174919,-0.534485 -0.364013,-1.314556 -0.851866,-0.633752 -0.286107,0.359427 -0.616113,0.678034 -0.956762,0.985146 -0.238527,0.225502 -0.499555,0.427901 -0.728996,0.660852 0.08202,0.100334 0.164333,0.200671 0.246166,0.301003 z"
       sodipodi:nodetypes="ccccccccccccc" /><path
       style="opacity:1;fill:#000000;stroke:#000000;stroke-width:0.799999"
       id="path4114"
       d="m 33.862944,45.000203 c 0.08061,0.322429 0.25491,0.711942 0.390663,1.062865 0.177804,0.407837 0.355343,0.817363 0.556959,1.2136 0.17074,0.290441 0.525086,0.05058 0.719326,-0.100264 0.639112,-0.443752 1.267338,-0.903492 1.9134,-1.33694 0.183164,-0.05388 0.367013,-0.133148 0.20447,-0.333515 -0.0942,-0.240529 -0.239852,-0.04488 -0.38144,0.02744 -0.614257,0.347313 -1.178831,0.775177 -1.758781,1.175934 -0.121127,0.105104 -0.486401,0.356477 -0.416241,0.334134 -0.02763,-0.05347 -0.190936,-0.379901 -0.255248,-0.53802 -0.242066,-0.516466 -0.436657,-1.055357 -0.691707,-1.565102 -0.06221,-0.06477 -0.138858,-0.107978 -0.257943,0.05136 0.0083,-0.0083 -0.02897,0.01487 -0.02346,0.0085 z"
       sodipodi:nodetypes="scccccccccccss" /><path
       style="opacity:1;fill:#000000;stroke:#000000;stroke-width:0.799999"
       id="path4116"
       d="m 40.572975,48.266442 c -0.368023,0.133976 -0.714257,0.32326 -1.068448,0.490101 -0.55084,0.275773 -1.142011,0.466847 -1.677141,0.773753 -0.207301,0.106948 -0.26696,0.375379 -0.171161,0.578312 0.140835,0.297642 0.385686,0.52941 0.587488,0.785576 0.19506,0.260285 0.452474,0.463064 0.686125,0.686351 0.119426,0.108393 0.195428,0.261008 0.329209,0.08684 0.07901,-0.05899 0.218394,-0.164117 0.07067,-0.227821 -0.143182,-0.18876 -0.297185,-0.36881 -0.481416,-0.520259 -0.296721,-0.26512 -0.542731,-0.58054 -0.782825,-0.896357 -0.191223,-0.158011 0.07253,-0.214302 0.19807,-0.278229 0.572319,-0.231727 1.144487,-0.466812 1.689376,-0.758908 0.242705,-0.119993 0.490008,-0.231159 0.727641,-0.361121 -0.03589,-0.119367 -0.07157,-0.239109 -0.107593,-0.358242 z" /><path
       style="opacity:1;fill:#000000;stroke:#000000;stroke-width:0.799999"
       id="path4946"
       d="m 47.883341,54.629912 c 2.606125,-0.634725 5.322642,-0.553121 7.979713,-0.831957 3.837557,-0.08825 7.88184,-0.878344 11.531033,0.711765 1.716117,0.808208 3.738157,1.589799 4.619892,3.402207 0.846869,1.864374 0.913543,3.951333 1.037529,5.959144 -0.216627,1.452364 -0.344185,2.916078 -0.498035,4.376236 -0.483864,2.861471 -1.052846,5.714038 -1.801587,8.519127 -0.268291,1.18826 -1.17603,2.468992 -1.426302,3.479516 0.878287,-0.355901 1.243292,-2.122125 1.70415,-3.05539 0.678817,-2.131779 0.951074,-4.368308 1.471418,-6.540796 0.278678,-1.620453 0.558134,-3.23755 0.630561,-4.883012 0.23757,-1.247228 0.333431,-2.517852 0.09322,-3.773676 -0.160586,-2.257119 -0.618936,-4.925752 -2.733764,-6.188689 -2.647664,-1.777386 -5.860049,-2.729826 -9.056052,-2.489857 -4.140343,0.180886 -8.288617,0.355895 -12.40667,0.83213 -0.241477,0.135357 -1.409766,0.0746 -1.145111,0.483252 z" /><path
       style="opacity:1;fill:#000000;stroke:#000000;stroke-width:0.799999"
       id="path4948"
       d="m 46.345726,57.757237 c 0.214104,1.642945 0.374277,3.362697 -0.156259,4.966961 -0.199919,0.856635 -0.61236,1.668819 -1.285788,2.249901 -1.096413,1.030196 -2.502909,1.666982 -3.90806,2.15852 -1.321974,0.464263 -2.734279,0.324867 -4.103768,0.268398 -1.052304,-0.0024 -2.132192,0.266429 -2.988808,0.888582 -0.07562,0.536942 0.628101,-0.103187 0.896864,-0.169734 1.098864,-0.435292 2.298247,-0.440767 3.458773,-0.339701 1.574354,0.105239 3.13498,-0.324472 4.527361,-1.040693 1.235595,-0.609094 2.484747,-1.39168 3.204837,-2.6029 0.377988,-0.828008 0.593315,-1.728776 0.73299,-2.625975 0.111503,-1.226094 0.04096,-2.465855 -0.193008,-3.672842 0.06028,-0.165673 -0.116857,-0.06639 -0.185134,-0.08052 z" /><path
       style="opacity:1;fill:#000000;stroke:#000000;stroke-width:0.799999"
       id="path4950"
       d="m 39.032447,67.267944 c -1.475854,-0.603385 -2.57831,-2.039941 -2.420262,-3.678426 -0.0085,-1.764212 1.059367,-3.405562 2.680469,-4.106971 3.641651,-1.892201 7.834124,-2.039076 11.827339,-2.538149 3.415124,-0.386653 6.854815,-0.632037 10.292406,-0.55581 2.370062,0.04863 4.626525,0.92913 6.741359,1.923098 2.328816,1.709578 2.91957,4.869607 2.718523,7.597614 0.07651,3.924816 -1.880477,7.443925 -3.034877,11.089963 -0.423914,1.339647 -1.163052,2.562514 -2.079989,3.62067 0.945428,0.304964 1.629139,-1.91848 2.136377,-2.718243 0.712996,-2.088714 1.489343,-4.146946 2.292422,-6.201165 0.71747,-2.070205 1.160146,-4.228785 1.102383,-6.428105 0.07217,-2.658809 -0.675304,-5.660377 -2.967608,-7.254573 -1.643992,-0.793273 -3.390532,-1.444994 -5.17978,-1.82126 -2.927843,-0.39153 -5.889512,-0.08762 -8.823647,0.06181 -4.295844,0.490384 -8.669668,0.686435 -12.842046,1.89492 -2.080639,0.744793 -4.60215,1.810258 -5.060684,4.246073 -0.516819,1.776398 0.07697,3.976228 1.835286,4.819208 0.307067,0.06037 0.706119,0.627028 0.782329,0.04935 z" /><path
       style="opacity:1;fill:#000000;stroke:#000000;stroke-width:0.799999"
       id="path4952"
       d="m 70.826722,62.21333 c -1.343984,-0.60936 -2.898883,-0.76364 -4.342305,-0.466469 -1.956408,0.462976 -3.514503,1.92932 -4.587016,3.571731 -0.86515,1.550233 -1.621425,3.329379 -1.292831,5.14191 0.218736,1.218011 0.551025,2.458228 1.346496,3.43777 0.499095,0.781052 1.256347,1.351839 2.115151,1.685835 1.251969,0.554783 2.682165,0.738845 4.009484,0.348535 0.341702,-0.02351 1.095011,-0.338609 0.549949,-0.59105 -0.855581,0.345124 -1.816697,0.451768 -2.73425,0.353271 -1.082657,-0.199529 -2.17927,-0.582894 -3.028527,-1.30222 -0.819973,-0.852691 -1.439084,-1.900549 -1.69088,-3.063271 -0.430921,-1.337846 -0.330577,-2.806397 0.225416,-4.092303 0.462411,-1.330076 1.206364,-2.56408 2.256805,-3.512394 1.341752,-1.379204 3.350672,-2.062129 5.251499,-1.725 0.609393,0.09212 1.221119,0.228366 1.778984,0.497687 0.04734,-0.09467 0.0947,-0.189417 0.142025,-0.284032 z" /><path
       style="opacity:1;fill:#000000;stroke:#000000;stroke-width:0.799999"
       id="path4954"
       d="m 52.757916,57.059147 c -0.0024,0.146817 -0.0058,0.293671 -0.0064,0.440515 -1.46e-4,0.196429 -0.0044,0.392438 -0.01574,0.588552 -0.0072,0.239049 -0.0321,0.476758 -0.05735,0.714415 -0.02254,0.275204 -0.07481,0.546545 -0.129783,0.81675 -0.06093,0.295365 -0.153766,0.582901 -0.255366,0.86649 -0.116705,0.326662 -0.230851,0.654219 -0.349646,0.98013 -0.117756,0.350954 -0.260803,0.691928 -0.403281,1.033296 -0.141425,0.344863 -0.30058,0.682059 -0.468619,1.014642 -0.167304,0.334386 -0.348605,0.661866 -0.538957,0.983645 -0.187899,0.310554 -0.376195,0.620921 -0.572971,0.925954 -0.17744,0.278902 -0.362704,0.552921 -0.555529,0.821409 -0.178293,0.247373 -0.371528,0.483532 -0.572045,0.7131 -0.189945,0.2272 -0.41646,0.41706 -0.645573,0.602742 -0.254013,0.189331 -0.530495,0.344443 -0.807606,0.496631 -0.279075,0.153302 -0.576853,0.266629 -0.872348,0.383249 -0.309795,0.122121 -0.630793,0.213336 -0.950891,0.304022 -0.354161,0.09998 -0.711872,0.187322 -1.071544,0.265015 -0.37516,0.09615 -0.755221,0.164946 -1.136385,0.231333 -0.351928,0.05558 -0.70366,0.113387 -1.057466,0.155845 -0.329541,0.05672 -0.661696,0.09512 -0.992216,0.145147 -0.306893,0.04398 -0.612717,0.094 -0.91779,0.149133 -0.291335,0.05895 -0.583498,0.114459 -0.873212,0.18098 -0.265755,0.05785 -0.526124,0.135808 -0.784026,0.221446 -0.240872,0.06969 -0.474975,0.159276 -0.708073,0.251028 -0.221972,0.08148 -0.439791,0.173766 -0.655227,0.271095 -0.05669,0.05415 -0.243891,0.07303 -0.290405,0.128709 -0.03051,0.03652 -0.0341,0.08886 -0.05114,0.133295 0,0 0.05394,0.09767 0.05394,0.09767 v 0 c 0.04109,0.01233 0.08039,0.03839 0.123264,0.03698 0.07228,-0.0024 0.203846,-0.126312 0.282376,-0.132392 0.21144,-0.09332 0.426205,-0.177355 0.643121,-0.257138 0.228621,-0.08398 0.460716,-0.158081 0.693173,-0.23065 0.254564,-0.0704 0.512173,-0.130152 0.768366,-0.194244 0.284255,-0.06625 0.569082,-0.12958 0.856131,-0.182774 0.302054,-0.05408 0.604142,-0.108265 0.908426,-0.148535 0.330393,-0.04956 0.660675,-0.09964 0.991539,-0.146034 0.353248,-0.06307 0.709808,-0.10672 1.062138,-0.17566 0.385024,-0.06701 0.766773,-0.151873 1.149067,-0.232798 0.365863,-0.07966 0.730692,-0.164667 1.09039,-0.269185 0.329737,-0.09328 0.654585,-0.200821 0.975839,-0.320246 0.308232,-0.11747 0.614267,-0.241054 0.90615,-0.395743 0.295175,-0.151775 0.580224,-0.321717 0.852573,-0.511717 0.263503,-0.178829 0.506677,-0.384993 0.716758,-0.62525 0.214297,-0.234321 0.413301,-0.481971 0.59929,-0.739389 0.196334,-0.273778 0.38514,-0.553029 0.566346,-0.837054 0.196297,-0.310134 0.389154,-0.622438 0.578739,-0.936721 0.194307,-0.328779 0.3777,-0.66386 0.545308,-1.007118 0.170741,-0.340534 0.334354,-0.684794 0.477094,-1.038166 0.143693,-0.346652 0.263896,-0.701816 0.390851,-1.054844 0.118859,-0.330001 0.233209,-0.661691 0.340987,-0.995452 0.08571,-0.300228 0.175607,-0.598938 0.235135,-0.90596 0.05629,-0.280278 0.09502,-0.564004 0.11906,-0.848884 0.01778,-0.242205 0.01654,-0.48459 0.02759,-0.727117 0.0073,-0.199814 0.01595,-0.399651 0.0085,-0.599636 -5.29e-4,-0.146844 -0.0041,-0.293698 -0.0064,-0.440515 0,0 -0.216167,0 -0.216167,0 z" /><path
       style="opacity:1;fill:#000000;stroke:#000000;stroke-width:0.799999"
       id="path4956"
       d="m 38.976686,75.034319 c 0.517913,-0.146845 1.038289,-0.322087 1.576611,-0.36887 0.466471,-0.04035 0.760549,0.385499 0.724665,0.815897 0.01442,0.728799 0.01499,1.48619 0.355064,2.152414 0.201183,0.53565 0.627594,1.09332 0.402661,1.689044 -0.224427,0.510161 -0.974832,0.85315 -1.429422,0.416421 -0.445449,-0.517676 -0.228307,-1.370763 -0.817378,-1.801773 -0.549059,-0.394286 -1.242868,-0.567328 -1.706535,-1.084796 -0.540191,-0.481078 -0.721423,-1.243052 -0.62264,-1.939021 0.112581,-0.74702 0.752757,-1.24318 1.272984,-1.72542 0.365715,-0.327843 0.808101,-0.546151 1.230245,-0.788731 0.188072,-0.438633 -0.381721,-0.409798 -0.565535,-0.129574 -0.632867,0.487051 -1.295937,0.95774 -1.808509,1.578449 -0.47551,0.538877 -0.631981,1.292275 -0.480803,1.987212 0.159773,0.929895 0.929364,1.619253 1.764595,1.975006 0.433499,0.203455 0.977776,0.424845 1.060457,0.96228 0.09107,0.506164 0.196976,1.118459 0.724449,1.353474 0.621065,0.306299 1.417674,-0.09633 1.697736,-0.691451 0.282943,-0.713983 -0.204959,-1.393999 -0.456369,-2.036786 -0.309599,-0.624529 -0.27156,-1.330454 -0.300903,-2.006166 -0.0019,-0.433978 -0.239578,-0.887084 -0.689212,-0.991283 -0.694496,-0.157592 -1.386614,0.145199 -2.007052,0.427595 0.02494,0.06868 0.05006,0.13747 0.07489,0.206079 z" /><path
       style="opacity:1;fill:#000000;stroke:#000000;stroke-width:0.799999"
       id="path4958"
       d="m 42.474266,70.217138 c 0.402886,0.463527 0.586553,1.103848 0.439937,1.706068 -0.240426,1.012042 -0.883946,1.863441 -1.498723,2.678732 -0.395044,0.194505 0.187634,0.623522 0.301701,0.193805 0.680501,-0.858927 1.362827,-1.7899 1.579329,-2.887397 0.122576,-0.618818 -0.04325,-1.276067 -0.462573,-1.750007 -0.138602,-0.282511 -0.207564,-0.03042 -0.359671,0.0588 z" /><path
       style="opacity:1;fill:#000000;stroke:#000000;stroke-width:0.799999"
       id="path4960"
       d="m 70.70582,64.314506 c -0.994474,-0.313963 -2.07707,-0.491571 -3.111883,-0.275876 -1.258404,0.299375 -2.416275,0.984218 -3.333787,1.888966 -0.755497,0.763698 -1.216655,1.805976 -1.347531,2.865135 -0.04222,1.06419 0.419442,2.073427 0.925631,2.982883 0.73837,1.07326 2.075085,1.497944 3.303844,1.694351 0.757533,0.136669 1.535477,0.118384 2.285068,-0.05531 0.103983,-0.640837 -0.67074,-0.146425 -1.030217,-0.229304 -1.098676,0.01992 -2.20094,-0.240492 -3.197265,-0.696088 -0.63052,-0.304117 -1.135121,-0.839573 -1.374777,-1.499806 -0.416171,-0.870551 -0.77622,-1.885714 -0.423746,-2.841323 0.250403,-0.914294 0.785141,-1.730058 1.508378,-2.339539 0.935755,-0.82484 2.103157,-1.474529 3.369691,-1.546543 0.784044,5e-5 1.568039,0.11376 2.328353,0.297911 0.03274,-0.08175 0.06553,-0.164028 0.09824,-0.245457 z" /><path
       style="opacity:1;fill:#000000;stroke:#000000;stroke-width:0.799999"
       id="path4962"
       d="m 63.464659,68.968654 c 0.864135,-0.734599 1.696055,-1.511372 2.637848,-2.148987 0.852512,-0.650031 1.744031,-1.249422 2.574931,-1.9266 0.118483,-0.206713 0.77709,-0.380738 0.630166,-0.595391 -0.72018,0.560756 -1.515111,1.01736 -2.251991,1.557432 -0.994168,0.626458 -1.937948,1.330677 -2.829325,2.09556 -0.264615,0.274463 -0.813878,0.587459 -0.865019,0.901652 0.03446,0.03877 0.06898,0.07758 0.10339,0.116334 z" /><path
       style="opacity:1;fill:#000000;stroke:#000000;stroke-width:0.799999"
       id="path4964"
       d="m 63.676037,71.451247 c 0.930382,-0.737832 1.752705,-1.599612 2.648169,-2.378475 1.044064,-1.001079 2.20945,-1.863544 3.27606,-2.839326 0.497079,-0.36244 0.937771,-0.79066 1.418042,-1.170833 0.325969,-0.190972 -0.07134,-0.254164 -0.187475,-0.0251 -1.268106,0.894567 -2.41435,1.950434 -3.60473,2.94598 -1.203754,0.998128 -2.276441,2.144932 -3.519708,3.096453 -0.260686,0.1695 -0.211338,0.184172 -0.03036,0.371299 z" /><path
       style="opacity:1;fill:#000000;stroke:#000000;stroke-width:0.799999"
       id="path4966"
       d="m 65.148859,72.816256 c 0.573599,-0.588718 1.226828,-1.097924 1.842078,-1.643071 1.254738,-1.028126 2.423882,-2.153999 3.561579,-3.308519 0.23312,-0.08676 0.470835,-0.528911 0.09334,-0.442238 -0.371223,0.434303 -0.819673,0.808864 -1.21991,1.221079 -1.048673,1.069001 -2.19052,2.037893 -3.326788,3.011012 -0.380828,0.329478 -0.754981,0.666599 -1.121023,1.012363 0.05691,0.04979 0.113812,0.0996 0.170724,0.149374 z" /><path
       style="opacity:1;fill:#000000;stroke:#000000;stroke-width:0.799999"
       id="path4968"
       d="m 64.987532,65.663711 c 0.803205,0.724838 1.471588,1.588234 2.289595,2.299523 0.873185,0.818801 1.851422,1.514522 2.74699,2.308093 0.107966,0.186717 0.65179,0.529859 0.520739,0.122326 -0.68779,-0.549524 -1.345374,-1.144938 -2.047549,-1.680495 -0.99839,-0.736568 -1.785519,-1.701608 -2.644274,-2.586089 -0.239064,-0.121494 -0.577144,-0.880714 -0.816656,-0.526316 -0.01628,0.02098 -0.03288,0.04214 -0.04885,0.06296 z" /><path
       style="opacity:1;fill:#000000;stroke:#000000;stroke-width:0.799999"
       id="path4970"
       d="m 63.391081,67.857718 c 0.120404,0.09929 0.234362,0.20605 0.347615,0.313346 0.158972,0.157166 0.313692,0.318426 0.465338,0.48264 0.180906,0.204272 0.363575,0.407022 0.542428,0.613098 0.174146,0.2038 0.350131,0.406014 0.527193,0.607282 0.170492,0.193366 0.338111,0.389292 0.50469,0.586039 0.152757,0.187571 0.315338,0.366668 0.481248,0.542605 0.159686,0.164086 0.324247,0.32336 0.488899,0.482441 0.133745,0.133292 0.267484,0.266613 0.398209,0.402878 0.11036,0.108715 0.208232,0.229005 0.309533,0.345951 0.09077,0.09531 0.168405,0.201594 0.247968,0.306171 0.06835,0.09816 0.140496,0.193545 0.212325,0.289163 0.0564,0.08104 0.128188,0.148444 0.186574,0.227663 0.03941,0.05553 0.05683,0.135927 0.122555,0.163134 0.02257,-0.0065 0.04516,-0.01299 0.06773,-0.01947 0,0 0.133977,-0.1064 0.133977,-0.1064 v 0 c 0.01143,-0.02053 0.02286,-0.04104 0.03431,-0.06156 -0.01159,-0.07013 -0.08586,-0.105259 -0.130966,-0.1562 -0.0623,-0.07308 -0.110546,-0.155969 -0.172712,-0.229399 -0.07146,-0.09425 -0.143857,-0.18811 -0.208868,-0.286967 -0.08088,-0.113771 -0.166341,-0.224271 -0.249237,-0.336563 -0.104696,-0.121602 -0.204341,-0.247563 -0.316775,-0.362344 -0.133419,-0.139047 -0.265176,-0.279649 -0.403752,-0.413666 -0.160483,-0.156837 -0.317378,-0.317312 -0.478671,-0.473342 -0.163359,-0.171466 -0.323196,-0.34622 -0.481348,-0.522499 -0.171262,-0.193881 -0.336518,-0.392954 -0.508765,-0.585975 -0.17649,-0.200801 -0.351914,-0.402514 -0.525285,-0.606018 -0.180954,-0.208904 -0.365763,-0.414493 -0.550841,-0.619744 -0.157144,-0.168693 -0.315937,-0.335952 -0.481502,-0.496464 -0.120957,-0.11321 -0.241597,-0.227452 -0.373314,-0.328232 0,0 -0.188558,0.242433 -0.188558,0.242433 z" /><path
       style="opacity:1;fill:#000000;stroke:#000000;stroke-width:0.799999"
       id="path4972"
       d="m 67.031369,64.448496 c 0.602968,0.98327 1.599377,1.616905 2.332202,2.49037 0.46817,0.474244 0.919211,0.971301 1.417838,1.411535 0.362256,-0.07121 -0.326279,-0.500992 -0.40265,-0.672829 -0.747295,-0.818144 -1.464025,-1.667656 -2.311623,-2.386931 -0.326853,-0.269169 -0.579633,-0.699694 -0.841563,-0.971617 -0.06473,0.04316 -0.129474,0.08631 -0.194204,0.129472 z" /><path
       style="opacity:1;fill:#000000;stroke:#000000;stroke-width:0.799999"
       id="path4974"
       d="m 36.618862,63.147439 c 1.259761,-0.64666 2.518354,-1.299467 3.708529,-2.069791 1.683704,-0.964033 3.362165,-1.938697 5.04615,-2.900883 0.193331,-0.133478 1.027606,-0.357719 0.586589,-0.615193 -0.93439,0.685938 -2.028624,1.108744 -3.011146,1.720631 -1.346261,0.767429 -2.691119,1.537414 -4.008438,2.353728 -0.795328,0.464555 -1.623806,0.868178 -2.432947,1.307477 0.03708,0.068 0.07424,0.136056 0.111263,0.204031 z" /><path
       style="opacity:1;fill:#000000;stroke:#000000;stroke-width:0.799999"
       id="path4976"
       d="m 37.019433,65.352641 c 1.574688,-0.717814 3.093342,-1.548864 4.5856,-2.423782 1.389129,-0.762913 2.76404,-1.556459 4.04412,-2.494569 0.39597,-0.309725 0.647613,-0.474056 1.061166,-0.744054 -0.09916,-0.593288 -0.459352,0.146716 -0.750402,0.217836 -1.244724,0.871756 -2.522762,1.695881 -3.857042,2.424675 -1.702781,0.982752 -3.389264,2.012938 -5.20972,2.767318 0.04209,0.08419 0.08422,0.168398 0.126278,0.252576 z"
       sodipodi:nodetypes="cccccccc" /><path
       style="opacity:1;fill:#000000;stroke:#000000;stroke-width:0.799999"
       id="path4978"
       d="m 38.69114,66.818983 c 1.260646,-0.562953 2.45681,-1.257446 3.588689,-2.047246 1.408847,-0.918519 2.848294,-1.792029 4.311597,-2.619382 0.148269,-0.350675 0.01228,-0.666477 -0.159092,-0.255346 -1.097381,0.743175 -2.277763,1.358775 -3.389287,2.082465 -1.397109,0.890885 -2.751892,1.8644 -4.274032,2.538172 -0.258666,0.08231 -0.145953,0.120463 -0.07788,0.301337 z"
       sodipodi:nodetypes="scccccss" /><path
       style="opacity:1;fill:#000000;stroke:#000000;stroke-width:0.799999"
       id="path4980"
       d="m 43.662189,58.016949 c 0.578509,1.017246 1.254906,1.972167 1.982303,2.887688 0.260699,0.368851 0.551328,0.725488 0.784887,1.107582 0.524078,0.03482 -0.07034,-0.53831 -0.179745,-0.74829 -0.677629,-0.979279 -1.457311,-1.88658 -2.055071,-2.920597 -0.19209,-0.227811 -0.226781,-0.651049 -0.532374,-0.326383 z" /><path
       style="opacity:1;fill:#000000;stroke:#000000;stroke-width:0.799999"
       id="path4982"
       d="m 40.92063,59.017233 c 0.114734,0.125309 0.213945,0.264131 0.305731,0.406823 0.138753,0.232037 0.293677,0.453326 0.452456,0.671923 0.18166,0.247234 0.371637,0.488193 0.559163,0.730964 0.183134,0.24973 0.384204,0.485296 0.572984,0.730586 0.188378,0.256955 0.383773,0.508542 0.589119,0.752139 0.187695,0.220652 0.377914,0.439153 0.568184,0.657585 0.160764,0.177342 0.319125,0.356838 0.478587,0.53535 0.126457,0.133273 0.247456,0.271573 0.370519,0.407961 0.09107,0.104174 0.185682,0.205036 0.278472,0.307591 0.07285,0.08435 0.153826,0.160872 0.235302,0.236704 0.09104,0.110212 0.07353,0.09909 0.220376,0.07414 0,0 0.01484,-0.01339 0.01484,-0.01339 v 0 c 0.0417,-0.153977 0.04326,-0.134512 -0.07086,-0.237419 -0.07628,-0.07092 -0.1519,-0.142494 -0.219281,-0.222144 C 45.18416,63.952902 45.100403,63.842299 45.003606,63.74322 44.881424,63.6067 44.757855,63.471305 44.641052,63.330102 44.483194,63.1514 44.326264,62.971864 44.166157,62.795168 43.977702,62.578112 43.791116,62.35946 43.609408,62.136702 c -0.198488,-0.245155 -0.389263,-0.49607 -0.580189,-0.747133 -0.188894,-0.245452 -0.375804,-0.492424 -0.564428,-0.73809 -0.186097,-0.240167 -0.36907,-0.482811 -0.551733,-0.725596 -0.156744,-0.215887 -0.307594,-0.435911 -0.462195,-0.65333 -0.107204,-0.152022 -0.213572,-0.307642 -0.352634,-0.432909 0,0 -0.177604,0.177602 -0.177604,0.177602 z" /><path
       style="opacity:1;fill:#000000;stroke:#000000;stroke-width:0.799999"
       id="path4984"
       d="m 38.801778,59.601967 c 0.09037,0.167053 0.206748,0.318111 0.321601,0.468739 0.187124,0.228364 0.391522,0.441774 0.593426,0.656941 0.226176,0.242422 0.462253,0.475221 0.695425,0.710835 0.220496,0.230881 0.441844,0.461444 0.650822,0.702879 0.202798,0.23317 0.393227,0.476446 0.586931,0.717135 0.186663,0.236924 0.386919,0.462428 0.587473,0.687538 0.173056,0.191373 0.345702,0.383045 0.517654,0.575416 0.144749,0.161832 0.282147,0.330015 0.427067,0.491675 0.111432,0.121047 0.211315,0.252148 0.307901,0.385167 0.08068,0.117742 0.160004,0.236448 0.24212,0.353145 0.07171,0.109577 0.136173,0.223308 0.213355,0.329266 0.198068,0.393086 0.379935,0.225319 0.178533,-0.105278 -0.05521,-0.122566 -0.114937,-0.241716 -0.187322,-0.355322 -0.07358,-0.126394 -0.15045,-0.250764 -0.235352,-0.369946 -0.09773,-0.143994 -0.20764,-0.27853 -0.322885,-0.408869 -0.14112,-0.165216 -0.288668,-0.324826 -0.429299,-0.490495 -0.169135,-0.195559 -0.342895,-0.387096 -0.51553,-0.579567 -0.197633,-0.221927 -0.3952,-0.444079 -0.578919,-0.677833 -0.195977,-0.242697 -0.385813,-0.490318 -0.58415,-0.731065 -0.211698,-0.246335 -0.427889,-0.488141 -0.651214,-0.724144 -0.226779,-0.240146 -0.45507,-0.478737 -0.68313,-0.717653 -0.196162,-0.206705 -0.393287,-0.412967 -0.57722,-0.630751 -0.109228,-0.141332 -0.222576,-0.279767 -0.31169,-0.435181 l -0.245591,0.147354 z"
       sodipodi:nodetypes="sccccccccccccccccccccccccs" /><path
       style="opacity:1;fill:#000000;stroke:#000000;stroke-width:0.799999"
       id="path4986"
       d="m 37.04014,61.391976 c 0.77921,1.031889 1.751347,1.898504 2.571363,2.897 0.840861,0.936976 1.764325,1.794112 2.632956,2.704412 C 42.755077,66.761951 41.803,66.291814 41.664587,65.989046 40.72021,65.05477 39.808455,64.088726 38.938313,63.08475 38.368749,62.476744 37.77365,61.889082 37.256725,61.234459 c -0.0722,0.05251 -0.14439,0.105011 -0.216585,0.157517 z" /><path
       style="opacity:1;fill:#000000;stroke:#000000;stroke-width:0.799999"
       id="path5879"
       d="m 24.173298,41.637325 c -1.530281,1.674406 -2.589344,3.771334 -3.091782,5.981565 -0.336971,1.475932 -0.500724,3.005961 -0.408374,4.518392 0.262314,1.724856 0.999718,3.378251 2.04057,4.774444 1.36157,1.739133 3.236541,2.953469 4.974864,4.276632 0.06173,-0.398181 0.88065,-0.338491 0.574571,-0.831601 -1.868474,-1.424525 -3.925304,-2.733416 -5.252205,-4.720891 -0.719588,-1.20549 -1.340723,-2.535162 -1.461057,-3.949522 -0.04119,-2.927334 0.650966,-5.936377 2.375903,-8.343275 0.105589,-0.483134 1.205911,-0.93044 0.619188,-1.334054 -0.12389,-0.123898 -0.247806,-0.24779 -0.371678,-0.37169 z" /></g></svg>
