<?xml version="1.0" encoding="UTF-8" standalone="no"?>
<!-- Created with Inkscape (http://www.inkscape.org/) -->

<svg
   width="42.409176mm"
   height="43.943752mm"
   viewBox="0 0 42.409176 43.943752"
   version="1.1"
   id="svg1"
   xml:space="preserve"
   inkscape:version="1.4 (e7c3feb1, 2024-10-09)"
   sodipodi:docname="i-u-ti-k'al-tun-ni.svg"
   xmlns:inkscape="http://www.inkscape.org/namespaces/inkscape"
   xmlns:sodipodi="http://sodipodi.sourceforge.net/DTD/sodipodi-0.dtd"
   xmlns="http://www.w3.org/2000/svg"
   xmlns:svg="http://www.w3.org/2000/svg"><sodipodi:namedview
     id="namedview1"
     pagecolor="#ffffff"
     bordercolor="#666666"
     borderopacity="1.0"
     inkscape:showpageshadow="2"
     inkscape:pageopacity="0.0"
     inkscape:pagecheckerboard="0"
     inkscape:deskcolor="#d1d1d1"
     inkscape:document-units="mm"
     inkscape:zoom="4"
     inkscape:cx="105.75"
     inkscape:cy="91.125"
     inkscape:window-width="2560"
     inkscape:window-height="1296"
     inkscape:window-x="1440"
     inkscape:window-y="25"
     inkscape:window-maximized="1"
     inkscape:current-layer="layer1"
     showgrid="false" /><defs
     id="defs1" /><g
     inkscape:label="Layer 1"
     inkscape:groupmode="layer"
     id="layer1"
     transform="translate(-20.510082,-18.543668)"><ellipse
       style="fill:#000000;stroke-width:0.3"
       id="path52-3"
       cx="31.038933"
       cy="27.897005"
       rx="0.54570311"
       ry="0.51263022" /><ellipse
       style="fill:#000000;stroke-width:0.3"
       id="path52-4"
       cx="29.021486"
       cy="27.930079"
       rx="0.54570311"
       ry="0.51263022" /><g
       id="g1"><path
         id="path1"
         style="opacity:1;fill:#000000;stroke-width:0.3"
         d="m 41.919405,19.464988 c -1.095543,0.285397 -2.261631,0.51882 -3.209623,1.167371 -4.075176,3.128072 -3.347141,5.94412 -2.667027,7.596436 1.408376,1.844361 -1.293313,0.675502 0.841815,5.393984 2.275177,3.477818 6.644671,3.006219 10.327756,3.024236 1.881223,-0.127243 3.669392,-0.823733 5.385915,-1.561595 1.29978,-0.612957 2.217786,-1.824677 2.830931,-3.090338 0.288793,-0.898699 0.61335,-1.767559 0.64083,-2.736783 0.04934,-2.225402 0.420246,-5.457562 -0.576954,-7.003355 -0.722055,-1.348212 -2.229044,-2.486156 -3.636737,-2.98363 -1.545267,-0.461117 -6.540491,-0.75459 -9.936906,0.193674 z m 11.529225,1.281309 c 3.191551,2.175958 2.423614,6.630592 1.897197,9.969215 -0.214218,0.780079 -0.481625,1.672826 -1.066164,2.31566 -0.652067,1.033798 -1.724673,1.675459 -2.855128,2.070153 1.492919,-2.281175 0.954523,-4.95301 1.171091,-7.512717 0.06488,-1.143221 0.117758,-2.560122 -0.588931,-3.441949 -0.374161,-0.737853 -1.064083,-1.335755 -1.929722,-1.367541 -1.67299,-0.307471 -3.380724,-0.06376 -5.058089,0.0811 -1.667706,0.180668 -3.31293,0.76789 -4.677751,1.746139 -0.95732,0.650998 -1.675875,1.667117 -1.667588,2.856673 -0.0534,0.735181 -0.749629,1.353588 -0.791052,0.307576 -0.171992,-0.946383 0.130636,-2.019299 0.611202,-2.809752 0.586526,-0.949944 1.418377,-1.789366 2.519228,-2.099619 1.668359,-0.558794 3.395816,-0.970652 5.140702,-1.198993 1.27911,-0.02678 2.578305,-0.14208 3.845313,0.05947 2.742595,0.594296 3.374015,1.561774 3.809962,4.215194 0.314007,2.375733 -0.34482,4.670992 -0.62993,7.013082 -0.09325,0.272003 0.270165,0.815377 0.507964,0.07956 0.0955,-1.465727 0.419497,-2.886873 0.600255,-4.357375 0.02549,-1.045669 -0.02035,-2.100267 -0.120985,-3.141912 -0.404383,-2.055558 -1.046745,-3.229723 -3.086107,-3.863318 -1.44817,-0.600992 -3.034853,-0.369458 -4.557344,-0.373076 -1.730598,0.12716 -3.421854,0.590336 -5.084961,1.06245 -1.164068,0.300914 -2.261663,0.922617 -2.949174,1.934761 -2.352498,2.839836 0.135299,4.552118 -1.338936,4.352162 -0.92579,-0.357932 -0.957502,-1.514801 -1.12656,-2.342491 -0.111136,-1.102909 0.507535,-2.974835 1.359239,-3.767732 1.810164,-2.137226 4.454116,-2.585568 7.090933,-2.906346 3.007118,-0.202916 6.371964,-0.739237 8.975336,1.119626 z m -4.896555,2.248679 c 0.841487,0.06836 1.791553,0.04717 2.504243,0.55449 0.692588,0.713858 1.217835,1.605805 1.1855,2.639645 -0.0045,1.421079 -0.110399,2.840472 -0.07184,4.263823 -0.04876,1.767513 -0.345948,4.20049 -1.56782,4.826581 -0.605651,0.450561 -1.565182,0.597828 -2.341977,0.794283 -1.65418,0.24082 -3.335277,0.08913 -5.001004,0.09856 -2.69779,-0.08102 -5.575802,-0.972388 -6.414843,-3.817612 -0.4004,-1.049484 -0.617414,-2.381389 0.134886,-3.331581 0.988304,0.187328 2.050779,-0.636878 2.138901,-1.645312 -0.04891,-1.1908 0.765964,-2.14041 1.740464,-2.714046 1.62984,-1.036026 3.553584,-1.458182 5.462099,-1.54721 0.741735,-0.06602 1.488259,-0.08561 2.231388,-0.121626 z"
         sodipodi:nodetypes="ccccccccccccccccccccccccccccccccccccccccscccccccccccss" /><path
         style="fill:#000000;stroke-width:0.3"
         id="path7"
         d="m 52.409711,30.732529 c -0.06502,-0.120441 -0.155902,-0.226326 -0.254894,-0.320245 -0.239602,-0.211489 -0.555613,-0.31215 -0.867698,-0.352011 -0.356862,-0.04485 -0.727251,0.102465 -0.962835,0.372955 -0.153247,0.156262 -0.279803,0.354243 -0.290922,0.578445 -0.02738,0.31117 0.132071,0.601394 0.302528,0.849231 0.09502,0.14701 0.244779,0.253639 0.41651,0.289544 0.290196,0.06844 0.592557,0.01498 0.878072,-0.05158 0.713266,-0.186523 1.006018,-0.609648 0.633528,-0.693559 -0.01905,0.141367 -0.163828,0.210252 -0.276031,0.270871 -0.292275,0.144807 -0.618148,0.219251 -0.943241,0.233592 -0.163223,-7.4e-5 -0.357379,-0.0192 -0.458926,-0.165193 -0.149853,-0.203806 -0.293491,-0.443522 -0.276226,-0.705806 0.02941,-0.212814 0.191257,-0.375717 0.344352,-0.512578 0.225008,-0.190223 0.546911,-0.205245 0.818394,-0.120273 0.213808,0.04877 0.416901,0.148451 0.587913,0.285507 0.06371,0.03767 0.12249,0.211892 0.201076,0.147025 0.04946,-0.03531 0.09893,-0.07062 0.148395,-0.105922 z"
         sodipodi:nodetypes="sccccccccccccccccss" /><path
         id="path12"
         style="fill:#000000;stroke-width:0.3"
         d="m 48.192407,22.851835 c -0.441991,0.03183 -0.889839,0.211302 -1.185945,0.549648 -0.238535,0.278071 -0.300979,0.682322 -0.182721,1.025897 0.06883,0.229193 0.228203,0.434791 0.451438,0.530223 0.203975,0.09584 0.434596,0.114301 0.65658,0.129294 0.397424,0.0098 0.820382,-0.09362 1.106185,-0.38561 0.241638,-0.251937 0.40003,-0.608367 0.354005,-0.961462 -0.05745,-0.325989 -0.276563,-0.613525 -0.564353,-0.772582 -0.194727,-0.104326 -0.420716,-0.10507 -0.635189,-0.115408 z m 0.774843,0.666237 c 0.112006,0.146591 0.16402,0.342623 0.106556,0.521864 -0.08343,0.354411 -0.379506,0.653282 -0.74002,0.721743 -0.29473,0.06827 -0.607335,0.04812 -0.896455,-0.03644 -0.154414,-0.05635 -0.280082,-0.178229 -0.335012,-0.333883 -0.08391,-0.190128 -0.10237,-0.415449 -0.0299,-0.611866 0.121706,-0.31063 0.431614,-0.498003 0.732091,-0.606453 0.138134,-0.05857 0.823378,-0.13386 1.16274,0.345035 z"
         sodipodi:nodetypes="ccccccccccccccccc" /><path
         id="path14"
         style="fill:#000000;stroke-width:0.3"
         d="m 46.027681,22.965007 c -0.145833,0.0014 -0.291252,0.01819 -0.433048,0.05271 -0.275848,0.0721 -0.535646,0.232825 -0.68678,0.479558 -0.161433,0.220317 -0.196153,0.516309 -0.112138,0.773596 0.065,0.242281 0.27205,0.411845 0.47594,0.539502 0.253028,0.132436 0.542943,0.212626 0.829924,0.188102 0.249027,-0.02871 0.48848,-0.151858 0.65474,-0.339514 0.150799,-0.178031 0.225974,-0.416567 0.220659,-0.648539 -0.01355,-0.164953 -0.0892,-0.316429 -0.146762,-0.469222 -0.07387,-0.150332 -0.197933,-0.267215 -0.331762,-0.364319 -0.09497,-0.07795 -0.200366,-0.152429 -0.325045,-0.167432 v -0.04082 c -0.04852,-0.0028 -0.09712,-0.0041 -0.145728,-0.0036 z m 0.437822,0.609629 c 0.04704,0.100287 0.176048,0.413862 0.181262,0.526218 -0.002,0.191523 -0.09122,0.38519 -0.257348,0.487826 -0.151262,0.110177 -0.344437,0.152216 -0.528134,0.119889 -0.257202,-0.03236 -0.508671,-0.147612 -0.677994,-0.347782 -0.09598,-0.106262 -0.120115,-0.257919 -0.121957,-0.396358 0.0142,-0.188422 0.127445,-0.358096 0.269234,-0.476974 0.180421,-0.130594 0.886577,-0.349381 1.134937,0.08718 z"
         sodipodi:nodetypes="scccccccccccscccccccc" /><path
         id="path15"
         style="fill:#000000;stroke-width:0.3"
         d="m 43.717228,23.254911 c -0.126792,-3.11e-4 -0.253556,0.01913 -0.374137,0.06046 -0.259803,0.08813 -0.469203,0.287652 -0.607715,0.520381 -0.101076,0.198828 -0.107709,0.43051 -0.06976,0.646473 0.02905,0.281144 0.176226,0.568016 0.4408,0.692464 0.243187,0.127638 0.524838,0.154511 0.7953,0.151928 0.224806,-0.0186 0.448426,-0.08557 0.642855,-0.200504 0.168381,-0.09683 0.314467,-0.247856 0.35605,-0.443384 0.03788,-0.123224 0.03663,-0.251483 0.0067,-0.37362 0.03732,-0.02666 0.07482,-0.05344 0.112138,-0.0801 -0.06086,-0.100312 -0.108492,-0.207584 -0.135909,-0.321944 -0.06364,-0.149362 -0.187512,-0.262105 -0.321944,-0.348299 -0.117341,-0.07784 -0.238103,-0.153725 -0.366903,-0.21084 -0.1513,-0.05964 -0.314472,-0.09262 -0.47749,-0.09302 z m 0.0124,0.346232 c 0.03295,1.66e-4 0.06605,0.0022 0.0987,0.0067 0.198267,0.02128 0.39385,0.07988 0.564306,0.184485 0.07207,0.03682 0.510131,0.602702 0.06976,0.959113 -0.172732,0.139274 -0.396314,0.209447 -0.615983,0.221692 -0.235896,-0.0085 -0.497487,-0.02811 -0.682129,-0.192237 -0.134067,-0.145529 -0.144311,-0.354906 -0.161747,-0.541569 4.9e-5,-0.127029 0.0363,-0.256073 0.127641,-0.348299 0.13772,-0.188368 0.368784,-0.291062 0.599447,-0.289905 z"
         sodipodi:nodetypes="sccccccccccccsscccccccscc" /><path
         id="path16"
         style="fill:#000000;stroke-width:0.3"
         d="m 44.751274,25.058936 c -0.108623,0.01265 -0.244487,-0.01402 -0.332277,0.05579 -0.08735,0.04849 -0.213705,0.06546 -0.308775,0.120783 -0.254323,0.114109 -0.494383,0.308097 -0.573892,0.58564 -0.06663,0.206811 -0.0317,0.430806 0.05671,0.625411 0.09503,0.244651 0.248417,0.487569 0.497738,0.596733 0.410034,0.185706 0.904909,0.189067 1.305604,-0.02424 0.239245,-0.119588 0.458625,-0.308671 0.556779,-0.562941 0.07517,-0.256103 -0.02691,-0.521998 -0.147858,-0.746478 -0.148043,-0.269737 -0.399928,-0.473886 -0.681546,-0.591814 -0.119911,-0.03923 -0.246744,-0.05834 -0.372484,-0.05888 z m 0.50331,0.611708 c 0.188026,0.138383 0.309336,0.357448 0.354494,0.583922 0.02468,0.151569 -0.103208,0.271383 -0.211188,0.35656 -0.251822,0.184241 -0.578139,0.267219 -0.885849,0.20496 -0.178756,-0.03991 -0.381142,-0.09436 -0.477744,-0.266229 -0.08072,-0.12446 -0.138257,-0.264104 -0.181351,-0.405614 -0.04606,-0.201517 0.06556,-0.410404 0.237692,-0.515169 0.448623,-0.308415 0.9968,-0.108397 1.163946,0.04157 z"
         sodipodi:nodetypes="scccccccccsscccccccc" /><path
         id="path17"
         style="fill:#000000;stroke-width:0.3"
         d="m 47.032788,24.754045 c -0.341506,-0.0033 -0.674291,0.143761 -0.932944,0.361109 -0.187166,0.155028 -0.288642,0.397607 -0.307274,0.636315 -0.0067,0.24366 0.08864,0.476075 0.217509,0.678436 0.1003,0.172569 0.222773,0.342486 0.405816,0.434258 0.221395,0.122828 0.482365,0.128153 0.728996,0.138834 0.299637,-0.0066 0.603699,-0.108492 0.82915,-0.309275 0.220674,-0.219168 0.296881,-0.550589 0.254593,-0.85242 -0.02969,-0.325176 -0.197244,-0.65707 -0.496693,-0.810327 -0.05327,-0.03275 -0.116775,-0.03398 -0.101311,-0.09313 -0.176903,-0.117046 -0.387606,-0.172099 -0.597842,-0.183803 z m -0.01085,0.367419 c 0.115607,0.0055 0.609141,0.135354 0.785944,0.611692 0.08072,0.220629 0.09186,0.496839 -0.06456,0.687444 -0.120597,0.118799 -0.290035,0.1795 -0.453634,0.209912 -0.192798,0.0242 -0.389997,0.0018 -0.579067,-0.03873 -0.155088,-0.04015 -0.272727,-0.159976 -0.34665,-0.297815 -0.108508,-0.168698 -0.219147,-0.358558 -0.197094,-0.566983 0.02587,-0.150786 0.103276,-0.295026 0.235369,-0.378072 0.179554,-0.12948 0.395052,-0.226893 0.619699,-0.22745 z"
         sodipodi:nodetypes="scccccccccssscccccccss" /><path
         id="path18"
         style="fill:#000000;stroke-width:0.3"
         d="m 46.374947,26.803532 c -0.08946,0.0481 -0.211344,-0.01944 -0.316717,1.1e-4 -0.237922,8.32e-4 -0.468862,0.0697 -0.682987,0.169663 -0.309875,0.111517 -0.632372,0.298576 -0.755225,0.621884 -0.104231,0.25906 -0.01246,0.547953 0.110743,0.783375 0.181301,0.31599 0.48192,0.587714 0.850337,0.65037 0.256007,0.04765 0.521681,-0.02178 0.753618,-0.130213 0.294537,-0.130276 0.507382,-0.404193 0.592912,-0.711135 0.09298,-0.26364 0.110041,-0.560972 -0.0018,-0.821794 -0.08143,-0.214747 -0.236665,-0.398676 -0.437169,-0.5115 -0.03523,-0.02043 -0.07185,-0.04825 -0.113682,-0.05076 z m -0.209289,0.356051 c 0.07777,-2.6e-4 0.128426,0.06541 0.21288,0.11106 0.152597,0.128653 0.225183,0.335034 0.234279,0.529936 -0.01166,0.234042 -0.08251,0.483187 -0.259583,0.646725 -0.178616,0.144848 -0.411322,0.223116 -0.640593,0.223369 -0.278724,-0.02518 -0.49947,-0.232553 -0.640565,-0.460424 -0.07164,-0.13146 -0.128879,-0.283906 -0.110187,-0.435502 0.05985,-0.219559 0.281932,-0.324115 0.469678,-0.41511 0.202631,-0.115297 0.428423,-0.201135 0.664647,-0.19891 0.02312,-8.48e-4 0.0464,-0.0015 0.06944,-0.0011 z" /><path
         style="fill:#000000;stroke-width:0.3"
         id="path19"
         d="m 46.005441,28.745044 c -0.266649,0.02513 -0.517991,0.13581 -0.75188,0.260593 -0.317722,0.172045 -0.580147,0.495184 -0.587366,0.868367 0.0046,0.374651 0.207369,0.722354 0.484475,0.964647 0.177013,0.173262 0.430925,0.296306 0.499162,0.553564 0.0937,0.243583 0.0257,0.528843 -0.15397,0.714333 -0.06516,0.09497 -0.295684,0.166426 -0.119125,0.269427 0.02596,0.06212 0.04357,0.132356 0.119143,0.151378 0.117158,-0.02229 0.192083,-0.172653 0.284492,-0.25375 0.191756,-0.224592 0.286448,-0.533009 0.224248,-0.824988 -0.0417,-0.275394 -0.209664,-0.51725 -0.432059,-0.679673 -0.256352,-0.194589 -0.512399,-0.439565 -0.569574,-0.771195 -0.05338,-0.238573 0.06715,-0.489459 0.260705,-0.629819 0.189833,-0.141015 0.412997,-0.284901 0.640836,-0.34929 0.09937,-0.0037 0.158513,0.0046 0.120368,-0.09818 -0.0065,-0.05847 -0.01297,-0.116945 -0.01946,-0.175417 z"
         sodipodi:nodetypes="sccccccccccccccss" /><path
         style="fill:#000000;stroke-width:0.3"
         id="path20"
         d="m 43.575735,28.711238 c 0.01807,0.282133 0.01353,0.569551 0.10084,0.842163 0.12943,0.420363 0.270073,0.848448 0.525076,1.21174 0.19077,0.273796 0.482722,0.449237 0.783073,0.580021 0.246337,0.102421 0.499615,0.264256 0.581023,0.533756 0.04136,0.157366 -0.207505,0.2505 -0.234843,0.366283 0.05608,0.0058 0.0788,0.0876 0.120614,0.125901 0.03424,0.04403 0.0717,0.116479 0.122397,0.09434 0.128757,-0.17109 0.356767,-0.310828 0.342974,-0.552137 -0.0417,-0.369687 -0.332618,-0.666401 -0.660475,-0.81511 -0.275868,-0.130433 -0.576547,-0.250601 -0.760929,-0.507992 -0.248665,-0.34334 -0.374098,-0.755179 -0.507618,-1.152409 -0.08638,-0.242901 -0.087,-0.501998 -0.128152,-0.753442 -0.01937,-0.05695 -0.112956,0.0062 -0.165699,0.0032 -0.03943,0.0079 -0.07885,0.01579 -0.118281,0.02368 z" /><path
         style="fill:#000000;stroke-width:0.3"
         id="path22"
         d="m 52.347023,28.290178 c -0.01033,-0.108475 -0.07541,-0.201713 -0.124876,-0.295886 -0.05776,-0.0895 -0.144335,-0.155572 -0.242421,-0.195983 -0.14983,-0.07482 -0.317255,-0.110896 -0.484566,-0.104032 -0.228701,6.3e-4 -0.458106,0.06794 -0.650864,0.190939 -0.173027,0.110848 -0.256657,0.315313 -0.284686,0.511543 -0.0114,0.1807 0.04924,0.372247 0.188206,0.493746 0.17288,0.17625 0.429863,0.236164 0.669558,0.23566 0.267388,-0.0037 0.548363,-0.08929 0.735287,-0.28836 0.103531,-0.110978 0.173093,-0.254041 0.188471,-0.405431 0.0062,-0.07352 -0.0069,-0.146687 -0.03873,-0.213281 -0.248415,-0.09783 -0.243939,0.154912 -0.298399,0.311624 -0.07519,0.148681 -0.230647,0.234882 -0.388071,0.27027 -0.161441,0.03777 -0.339179,0.03869 -0.491823,-0.03184 -0.0811,-0.04424 -0.160543,-0.10318 -0.209198,-0.182835 -0.03139,-0.07436 -0.04237,-0.159496 -0.01135,-0.235852 0.0227,-0.08819 0.07342,-0.173162 0.15934,-0.21137 0.226811,-0.125745 0.506021,-0.158468 0.753556,-0.07735 0.06939,0.02463 0.145882,0.05066 0.193322,0.109444 0.08221,0.21029 0.140354,0.184605 0.337238,0.119 z"
         sodipodi:nodetypes="sccccccccccccccccccss" /><path
         style="fill:#000000;stroke-width:0.3"
         id="path23"
         d="m 50.700214,28.56281 c -0.02937,-0.07148 -0.06801,-0.139457 -0.125099,-0.192676 -0.0347,-0.07688 -0.117215,-0.110803 -0.186892,-0.149136 -0.09823,-0.03952 -0.200766,-0.07094 -0.305202,-0.08885 -0.217501,-0.02682 -0.445723,0.03122 -0.62104,0.163261 -0.136807,0.107075 -0.256234,0.252849 -0.285048,0.428431 -0.02425,0.169459 0.04635,0.357941 0.196273,0.448721 0.172881,0.118778 0.387607,0.145453 0.591741,0.15896 0.206518,0.002 0.425791,-0.0389 0.585746,-0.178376 0.136776,-0.103763 0.198095,-0.281388 0.194503,-0.448459 -0.0075,-0.07699 -0.02849,-0.154145 -0.06426,-0.222733 -0.03094,-0.05926 -0.126535,-0.116734 -0.184605,-0.06818 -0.02343,0.03933 -0.04073,0.08134 -0.04168,0.127499 0.03583,0.125805 0.0036,0.222247 -0.05768,0.303644 -0.03768,0.06873 -0.113683,0.110528 -0.186015,0.134236 -0.177089,0.05024 -0.366548,0.03246 -0.54211,-0.01496 -0.05365,-0.0175 -0.104458,-0.04477 -0.148887,-0.07938 -0.04297,-0.06651 -0.02977,-0.151716 0.01992,-0.210917 0.07099,-0.09754 0.171913,-0.173998 0.289273,-0.205618 0.118974,-0.04012 0.245778,-0.01896 0.365983,0.0025 0.07866,0.009 0.151933,0.04544 0.216496,0.08942 0.04358,0.0233 0.06791,0.12779 0.120769,0.08652 0.05595,-0.02798 0.111891,-0.05596 0.167837,-0.08394 z"
         sodipodi:nodetypes="cccccccccccccccccccccccc" /><path
         id="path26"
         style="fill:#000000;stroke-width:0.3"
         d="m 48.504533,28.912964 c -0.167936,0.0054 -0.341196,0.03362 -0.48433,0.127286 -0.153828,0.08874 -0.27987,0.245635 -0.292557,0.427343 -0.0086,0.184923 0.08939,0.36062 0.23098,0.474446 0.152638,0.137727 0.362281,0.18004 0.558275,0.214897 0.247471,0.03849 0.525563,-0.03745 0.682652,-0.241443 0.09717,-0.121588 0.165713,-0.284022 0.13208,-0.441215 -0.04007,-0.124688 -0.155735,-0.254402 -0.215144,-0.326098 -0.06497,-0.06196 -0.138342,-0.113641 -0.220345,-0.150896 -0.119188,-0.0635 -0.25772,-0.08639 -0.391606,-0.08432 z m 0.0015,0.290421 c 0.116102,-3.85e-4 0.701235,0.165798 0.429991,0.535876 -0.112284,0.122172 -0.295201,0.146177 -0.450923,0.112732 -0.119224,-0.02568 -0.248303,-0.04854 -0.340004,-0.135964 -0.07359,-0.05846 -0.131822,-0.148316 -0.124739,-0.245444 0.03624,-0.123676 0.157891,-0.193151 0.271277,-0.234516 0.06958,-0.01925 0.142579,-0.03003 0.2144,-0.03268 z"
         sodipodi:nodetypes="sccccccccssscccccss" /><path
         id="path27"
         style="fill:#000000;stroke-width:0.3"
         d="m 48.090605,30.060181 c -0.292943,5.75e-4 -0.577248,0.145588 -0.762344,0.370345 -0.109712,0.137848 -0.165497,0.322903 -0.120805,0.496754 0.05498,0.232024 0.213425,0.448126 0.436132,0.542422 0.218196,0.08527 0.468702,0.102338 0.689865,0.01789 0.212075,-0.07029 0.424046,-0.202454 0.508973,-0.418687 0.08133,-0.227685 0.02636,-0.486716 -0.106532,-0.683568 -0.03647,-0.06417 -0.08623,-0.120841 -0.139843,-0.170939 -0.112789,-0.08392 -0.253256,-0.119198 -0.388623,-0.148002 -0.03872,-0.005 -0.07781,-0.0067 -0.116823,-0.0062 z m 0.02687,0.312642 c 0.05269,0.0074 0.295649,0.109605 0.386559,0.300269 0.04497,0.104944 0.06996,0.237905 0.0029,0.338861 -0.102551,0.120789 -0.261507,0.174077 -0.411351,0.20826 -0.123748,0.01083 -0.253802,-0.0057 -0.365217,-0.06244 -0.121156,-0.08109 -0.212158,-0.219826 -0.217303,-0.367594 0.01605,-0.147253 0.145091,-0.244274 0.259866,-0.319773 0.103892,-0.06197 0.223844,-0.09481 0.344505,-0.09758 z"
         sodipodi:nodetypes="cccccccccccsccccccss" /><path
         id="path28"
         style="fill:#000000;stroke-width:0.3"
         d="m 48.082853,31.430123 c -0.09213,0.03564 -0.210896,0.0141 -0.307163,0.06284 -0.194165,0.07143 -0.346592,0.224904 -0.462139,0.392142 -0.10996,0.17651 -0.139864,0.400047 -0.07272,0.597809 0.08954,0.27252 0.315324,0.488698 0.583493,0.584807 0.240524,0.102658 0.531259,0.07707 0.745345,-0.07487 0.208425,-0.144762 0.367824,-0.377562 0.386449,-0.634682 0.0058,-0.128406 -0.02466,-0.256521 -0.06154,-0.378623 -0.04937,-0.124032 -0.127127,-0.236903 -0.217924,-0.334072 -0.150293,-0.122302 -0.342864,-0.175437 -0.529538,-0.212602 -0.02135,-0.0022 -0.04283,-0.0026 -0.06426,-0.0028 z m 0.472323,0.643529 c 0.04469,0.0979 0.07768,0.209759 0.0574,0.317662 -0.05481,0.209574 -0.244833,0.391426 -0.466539,0.401311 -0.145433,-7.24e-4 -0.285787,-0.06439 -0.400071,-0.151241 -0.126528,-0.109603 -0.228519,-0.279743 -0.193849,-0.452545 0.03262,-0.124982 0.111188,-0.235372 0.203715,-0.323567 0.181311,-0.186333 0.704641,0.01425 0.799344,0.20838 z"
         sodipodi:nodetypes="ccccccccccccccccccc" /><path
         id="path29"
         style="fill:#000000;stroke-width:0.3"
         d="m 48.952051,32.744255 c -0.190737,0.01426 -0.366355,0.105527 -0.523839,0.208557 -0.133684,0.09681 -0.253838,0.218188 -0.333731,0.363402 -0.100092,0.181361 -0.05371,0.410149 0.06728,0.569337 0.186828,0.259401 0.535503,0.379665 0.844509,0.305852 0.224839,-0.04845 0.421152,-0.189041 0.57405,-0.356637 0.13862,-0.160538 0.219628,-0.392355 0.147619,-0.599738 -0.07675,-0.340607 -0.369075,-0.393654 -0.419414,-0.411956 -0.112286,-0.04869 -0.233026,-0.08352 -0.356475,-0.07882 z m 0.05168,0.315743 c 0.215183,0.0059 0.289663,0.119466 0.377303,0.25388 0.0509,0.08581 0.02043,0.189575 -0.03622,0.26451 -0.08499,0.113324 -0.2063,0.197547 -0.335085,0.254228 -0.1857,0.07294 -0.418192,0.03005 -0.548678,-0.12599 -0.0551,-0.06421 -0.1051,-0.162183 -0.0526,-0.242393 0.08699,-0.158867 0.242032,-0.269191 0.401914,-0.347669 0.05944,-0.03183 0.126057,-0.05299 0.193368,-0.05657 z"
         sodipodi:nodetypes="scccccccsssccccccss" /><path
         id="path30"
         style="fill:#000000;stroke-width:0.3"
         d="m 50.36075,33.262569 c -0.234318,-0.0034 -0.472259,0.06304 -0.657882,0.209312 -0.163934,0.120201 -0.279117,0.301031 -0.319963,0.500109 -0.05974,0.211621 -0.0215,0.450108 0.116841,0.623533 0.151997,0.200983 0.402251,0.296053 0.645261,0.326364 0.313536,0.0331 0.637898,-0.05926 0.893624,-0.242052 0.143078,-0.11111 0.483542,-0.427694 0.276257,-0.79343 -0.09853,-0.199332 -0.266551,-0.35742 -0.457968,-0.467264 -0.154072,-0.08242 -0.318941,-0.152268 -0.496168,-0.156572 z m 0.0186,0.36742 c 0.126816,0.0057 0.24835,0.05382 0.36384,0.103347 0.404094,0.223025 0.374457,0.357665 0.09356,0.6447 -0.188266,0.141223 -0.433647,0.213125 -0.66807,0.181268 -0.169058,-0.0265 -0.351034,-0.108925 -0.414075,-0.279988 -0.04138,-0.121165 0.0023,-0.25224 0.05217,-0.364122 0.09295,-0.150692 0.264592,-0.237934 0.434041,-0.272157 0.04583,-0.0071 0.09244,-0.0095 0.13853,-0.01305 z"
         sodipodi:nodetypes="scccccccsssccccccss" /><path
         id="path31"
         style="fill:#000000;stroke-width:0.3"
         d="m 60.329134,18.544088 c -0.589832,-0.0084 -1.179414,0.110134 -1.740979,0.283703 -0.697757,0.238005 -1.351045,0.620535 -1.860351,1.158069 -0.331531,0.339362 -0.618514,0.726534 -0.791167,1.171505 -0.183666,0.418193 -0.302404,0.860074 -0.430464,1.297078 0.0714,0.101951 0.142539,0.203974 0.21394,0.305925 0.210376,-0.641123 0.370947,-1.310146 0.719336,-1.894975 0.4772,-0.665958 1.108439,-1.240829 1.872754,-1.555461 0.610797,-0.272448 1.28307,-0.394236 1.948201,-0.422713 0.29649,0.01325 0.648962,0.0062 0.870748,0.235128 0.114395,0.198039 0.0086,0.361924 -0.09302,0.531234 -0.188054,0.02139 -1.715448,0.213014 -2.674772,0.889348 -0.828368,0.606907 -1.092884,1.667107 -1.301213,2.617928 -0.329213,1.75313 -0.381447,3.565998 -0.04393,5.322156 0.114131,0.797947 0.23243,1.671015 -0.132808,2.423108 -0.237354,0.490791 -0.825547,0.708076 -1.33687,0.561206 -0.01381,0.0621 -0.02805,0.123938 -0.04186,0.186035 0.482603,0.156098 1.034243,0.04582 1.376661,-0.343131 0.444331,-0.527163 0.545288,-1.259948 0.536918,-1.927531 -0.06273,-1.150953 -0.358184,-2.282279 -0.29869,-3.441134 0.0077,-1.098448 0.143183,-2.20025 0.388607,-3.270601 0.196797,-0.69429 0.414241,-1.457768 1.038696,-1.892908 0.546628,-0.387301 1.212501,-0.563531 1.853634,-0.728121 0.296718,-0.124542 0.616856,-0.0294 0.928625,-0.171083 0.005,-0.0062 0.01061,-0.01167 0.01499,-0.0186 0.205491,0.101255 0.403436,0.227002 0.54622,0.408244 0.223778,0.313199 0.372029,0.678645 0.448035,1.055233 0.02644,0.174304 0.04973,0.351332 0.04031,0.527616 9.3e-5,0.0012 -6.3e-5,0.0024 0,0.0036 -0.216105,-0.08898 -0.570196,-0.126674 -0.70745,-0.195337 -0.807482,-0.22216 -1.788615,-0.218487 -2.431893,0.394808 -0.713279,0.562859 -0.973715,1.493915 -0.998388,2.367814 -0.07587,1.167612 -0.03443,2.337556 0.06356,3.502628 0.05354,1.069653 0.04165,2.153321 -0.13901,3.210657 -0.1064,0.478962 -0.349906,0.961626 -0.818555,1.173055 -0.541388,0.35685 -1.259978,0.35862 -1.837614,0.09457 -0.307481,-0.296281 -0.219703,-0.116622 -0.411344,-0.07855 0.191378,0.494269 0.820138,0.520285 1.272274,0.556038 0.615361,0.02104 1.216495,-0.29323 1.645894,-0.718819 0.647012,-0.819607 0.579258,-1.927361 0.684196,-2.910417 0.06178,-1.39796 -0.195803,-2.787913 -0.120923,-4.186307 0.01848,-0.863559 -0.0014,-1.835415 0.588078,-2.535246 0.391117,-0.465149 0.973533,-0.761779 1.590084,-0.713652 0.581259,0.02105 1.714386,0.368292 1.725476,0.355532 0.0066,0.0019 0.01309,0.0038 0.01964,0.0057 0.0017,0.01187 0.0038,0.02378 0.0052,0.03566 0.02536,0.175766 0.02692,0.35387 0.04082,0.530717 0.0068,0.138312 0.0043,0.277437 -0.0062,0.415479 -0.01139,0.09633 -0.0283,0.195465 -0.06563,0.285771 -0.215643,-0.12664 -0.618853,-0.145443 -0.823206,-0.232544 -0.536063,-0.0943 -1.218634,-0.24158 -1.627291,0.227376 -0.430549,0.487942 -0.798244,1.117761 -0.714168,1.793172 0.07636,0.967724 -0.0377,1.940336 0.08372,2.906283 0.02315,1.126184 -0.03885,2.267431 -0.336414,3.357934 -0.347869,0.782418 -0.636571,1.709879 -1.455725,2.130103 -0.799603,0.427745 -1.823364,0.547992 -2.657719,0.151412 -0.281946,-0.0881 -0.274813,-0.456998 -0.591695,-0.326079 0.07457,0.490811 0.642708,0.686623 1.062984,0.791683 1.265713,0.261102 2.780561,-0.210269 3.398242,-1.4118 0.385478,-0.69958 0.729771,-1.437842 0.808737,-2.242757 0.189438,-1.130336 0.207495,-2.284975 0.123506,-3.425631 -0.0023,-0.729242 0.01729,-1.458269 -0.03462,-2.186429 -0.0035,-0.470291 0.291434,-0.876668 0.555005,-1.241785 0.323812,-0.437256 0.928678,-0.218691 1.37666,-0.160714 0.191865,-0.01949 0.429094,0.133497 0.632003,0.197404 -0.0021,0.02499 -0.0024,0.04984 -5.17e-4,0.07493 -0.0081,0.120228 0.02671,0.237765 0.05271,0.353984 0.03367,0.137005 0.04832,0.279653 0.04186,0.420646 -0.0083,0.07813 -0.02685,0.155447 -0.0646,0.224792 -0.0031,0.0085 -0.0069,0.01629 -0.01085,0.02429 -0.125419,-0.208645 -0.720618,0.0035 -0.955497,0.05478 -0.628938,0.150294 -1.100613,0.767375 -1.022676,1.421102 -0.01253,1.143852 0.31178,2.284398 0.08992,3.424597 -0.119055,0.73848 -0.148544,1.495533 -0.408244,2.205034 -0.269258,1.005893 -0.898336,1.915759 -1.729094,2.539379 -0.865562,0.626401 -1.985492,0.821411 -3.026172,0.626319 -0.523561,-0.0985 -1.166804,-0.395295 -1.590083,-0.735356 -0.08123,-0.23795 -0.164597,0.132601 -0.323495,0.158161 0.261414,0.547891 0.918644,0.712148 1.456759,0.868164 0.456772,0.11906 0.934182,0.174184 1.408183,0.159164 0.435312,0.0764 2.957868,-0.43278 3.324341,-0.563274 0.71821,-0.290635 1.410429,-0.790213 1.698088,-1.535823 0.233347,-0.513551 0.252603,-1.089218 0.196887,-1.64176 -0.04681,-0.123827 0.0302,-0.345192 0.0041,-0.473357 0.236307,0.0092 0.475054,-0.05019 0.66611,-0.193786 0.168304,-0.117423 0.295144,-0.291319 0.377754,-0.47749 0.0826,-0.207143 0.153023,-0.426051 0.133842,-0.652157 -0.01792,-0.228523 -0.06122,-0.458577 -0.153479,-0.66921 -0.05551,-0.123207 -0.149486,-0.229237 -0.2682,-0.292488 0.195055,-0.159039 0.332723,-0.388649 0.397391,-0.631486 0.07106,-0.24995 0.03159,-0.515052 -0.01912,-0.764812 -0.04206,-0.165345 -0.09083,-0.339968 -0.222725,-0.45837 -0.06911,-0.05504 -0.129622,-0.127924 -0.204122,-0.168465 0.123228,-0.06097 0.233494,-0.144426 0.305924,-0.2651 0.11279,-0.169847 0.148144,-0.37891 0.162781,-0.578776 0.0039,-0.199558 -0.01559,-0.403832 -0.09302,-0.589628 -0.02695,-0.07503 -0.05954,-0.148171 -0.09715,-0.218591 0.08441,-0.09856 0.153313,-0.217112 0.209799,-0.358115 0.07274,-0.153605 0.112245,-0.32447 0.111621,-0.494543 -0.0066,-0.101351 -0.02627,-0.201564 -0.04496,-0.301274 -0.0256,-0.123105 -0.06958,-0.241582 -0.08733,-0.366386 -0.0088,-0.029 -0.01511,-0.05932 -0.0186,-0.08992 0.181353,0.0015 0.17293,-0.05702 0.241825,-0.205643 0.0711,-0.195583 0.0999,-0.404295 0.09819,-0.611849 0.0078,-0.192969 -0.0056,-0.386433 -0.03462,-0.577226 -0.02797,-0.139929 -0.0555,-0.280138 -0.08785,-0.419096 -0.04239,-0.06582 -0.07562,-0.38956 -0.08992,-0.553971 -0.05657,-0.420846 -0.229305,-0.818173 -0.43925,-1.183907 -0.128738,-0.223243 -0.32709,-0.400951 -0.559139,-0.511597 -0.08306,-0.04101 -0.16517,-0.08417 -0.249597,-0.122473 0.07349,-0.143738 0.120858,-0.348619 0.05116,-0.502812 -0.110632,-0.397184 -0.561064,-0.529939 -0.926042,-0.563273 -0.08419,-0.0066 -0.168436,-0.01069 -0.252698,-0.01189 z m 1.574064,6.897253 c 0.12778,0.01207 0.148429,0.25076 0.23151,0.393776 0.06691,0.176905 0.08626,0.370973 0.04702,0.556555 -0.01866,0.130226 -0.0628,0.2777 -0.192753,0.33693 -0.220191,0.113136 -0.489279,0.146458 -0.722953,0.05529 -0.134178,-0.0739 -0.210932,-0.225195 -0.238229,-0.371037 -0.01875,-0.151575 0.01446,-0.305076 0.05891,-0.449585 0.09518,-0.232698 0.320418,-0.382302 0.54622,-0.471806 0.08582,-0.03335 0.178211,-0.05005 0.270267,-0.05013 z m -1.162719,1.288294 c 0.0097,0.01984 0.02006,0.03927 0.03152,0.05839 0.101431,0.189459 0.279006,0.341345 0.49196,0.38654 0.0055,0.0014 0.01105,0.0023 0.01654,0.0036 -0.138836,0.05516 -0.265878,0.138847 -0.367936,0.250631 -0.03878,0.03869 -0.07067,0.08098 -0.09818,0.12609 -0.0266,-0.274029 -0.05727,-0.549543 -0.0739,-0.825272 z m 0.934309,0.732255 c 0.09449,-0.0011 0.189814,0.0081 0.284221,0.0093 0.01566,0.0179 0.04597,-0.02846 0.155545,0.159646 0.09679,0.21512 0.14503,0.456929 0.117305,0.692464 -0.03323,0.254464 -0.192214,0.495223 -0.430981,0.59893 -0.156827,0.07706 -0.343943,0.05146 -0.492476,-0.03256 -0.116229,-0.0718 -0.204336,-0.190157 -0.248047,-0.31936 -0.07884,-0.228466 -0.05833,-0.477632 0.0026,-0.70745 0.04877,-0.196758 0.235082,-0.324976 0.421163,-0.377755 0.06281,-0.01637 0.126543,-0.02249 0.190686,-0.02325 z m -0.775663,1.522908 c 0.0047,0.0053 0.0091,0.0108 0.01395,0.01602 0.06627,0.07988 0.14777,0.145285 0.238228,0.195337 -0.0086,0.0036 -0.01727,0.0066 -0.02584,0.01034 -0.09596,0.0382 -0.182254,0.09508 -0.256832,0.164331 0.01326,-0.128595 0.02355,-0.257161 0.03049,-0.386023 z m 1.168404,0.608237 c 0.05532,0.09913 0.08413,0.210897 0.116272,0.318843 0.04962,0.249515 0.02816,0.515244 -0.0863,0.744658 -0.115785,0.273586 -0.429073,0.428943 -0.718303,0.388606 -0.124726,-0.01434 -0.258092,-0.04059 -0.343131,-0.14211 -0.137569,-0.154839 -0.15209,-0.374175 -0.168982,-0.571541 -0.0097,-0.158344 0.006,-0.32082 0.05168,-0.472839 0.04317,-0.194012 0.209591,-0.341457 0.396875,-0.394292 0.115527,-0.04818 0.660594,-0.09262 0.751889,0.128675 z m -1.411283,1.345132 c 0.09204,0.180612 0.255163,0.324485 0.448551,0.387057 -0.108547,0.606195 0.06072,1.246722 -0.172082,1.835547 -0.167859,0.567076 -0.603831,1.013172 -1.116211,1.288293 -0.456723,0.261031 -0.973329,0.37954 -1.481563,0.502295 0.05382,-0.03487 0.10745,-0.07012 0.15968,-0.108004 0.779104,-0.578111 1.382116,-1.398167 1.735811,-2.299601 0.189985,-0.521935 0.336738,-1.058644 0.425814,-1.605587 z"
         sodipodi:nodetypes="ccccccccccccccccccccccccccccccccccccccccccccccccccccccccccccccccccccccccccccccccccccccccccccccccccccccccccccccccsccccccccscccccccccccccccsccccccccccccccccccccccccccccc" /></g><g
       id="g88"><path
         style="fill:#000000;stroke-width:0.3"
         id="path2"
         d="m 48.277176,42.076168 c 1.23129,-0.446636 2.522368,-0.704688 3.774036,-1.086293 2.008992,-0.708693 4.056088,-1.303519 6.102738,-1.892387 0.762735,-0.157475 1.592072,-0.556016 2.357498,-0.19511 0.436659,0.237821 0.952557,0.54563 1.00293,1.094526 0.08885,0.568544 0.136204,1.265702 -0.3543,1.674264 -0.457077,0.505847 -0.95911,1.026234 -1.639836,1.20706 -0.856775,0.38028 -1.738046,0.713807 -2.668788,0.858155 -1.656079,0.304763 -3.316895,0.657255 -4.891132,1.265834 -0.216758,0.156853 -1.005217,0.269251 -0.679578,0.61183 0.470012,-0.143344 0.921299,-0.445558 1.416596,-0.570041 1.528798,-0.507314 3.111464,-0.816539 4.688898,-1.126381 0.981378,-0.193474 1.8763,-0.656643 2.797778,-1.024226 0.572354,-0.368409 1.057638,-0.871682 1.466617,-1.412404 0.269486,-0.570623 0.214127,-1.259041 0.03555,-1.851277 -0.208656,-0.506283 -0.731818,-0.80847 -1.209467,-1.023408 -0.830238,-0.31353 -1.69619,0.08535 -2.509867,0.260095 -1.66108,0.487166 -3.324968,0.970978 -4.966417,1.521061 -0.95156,0.367022 -1.932766,0.639809 -2.918938,0.894658 -0.635314,0.206693 -1.291138,0.365691 -1.902304,0.63708 0.03266,0.05232 0.06533,0.104643 0.09799,0.156964 z" /><path
         style="fill:#000000;stroke-width:0.3"
         id="path3"
         d="m 60.198261,38.617744 c -0.246237,-0.07648 -0.508757,5.77e-4 -0.752318,0.05304 -0.485386,0.125331 -0.980161,0.365727 -1.245454,0.811126 -0.243635,0.437527 -0.252259,1.003522 -0.01211,1.444254 0.249493,0.371928 0.669806,0.593791 1.096893,0.695751 0.34241,0.09519 0.700797,0.10482 1.051653,0.151125 0.314235,0.03303 0.633049,0.04077 0.946291,-0.0018 0.129809,0.01271 0.115693,-0.08013 0.08537,-0.169382 -0.01649,-0.06327 0.12792,-0.153133 0.10454,-0.214343 -0.163194,0.04312 -0.487382,0.06406 -0.655277,0.07454 -0.412078,-0.0069 -0.821959,-0.05337 -1.230354,-0.104854 -0.334806,-0.05138 -0.680281,-0.137413 -0.94466,-0.361312 -0.166144,-0.124808 -0.28875,-0.305551 -0.31647,-0.514317 -0.08329,-0.384468 0.0096,-0.824728 0.304731,-1.098768 0.337612,-0.333097 0.812797,-0.476812 1.269763,-0.55137 0.09949,-0.02252 0.291438,0.002 0.30846,-0.134216 0.01772,-0.03986 -0.02877,-0.03958 -0.01105,-0.07944 z"
         sodipodi:nodetypes="cccccccccccccccccc" /><path
         style="fill:#000000;stroke-width:0.3"
         id="path4"
         d="m 59.460111,43.216599 c 0.721374,-0.07206 1.457017,-0.312072 2.179373,-0.13778 0.601227,0.272466 0.926857,0.955836 0.985514,1.586139 -0.03078,0.577225 -0.283957,1.131613 -0.60046,1.607878 -0.465313,0.57101 -1.215345,0.780956 -1.88957,1.003556 -1.274862,0.380276 -2.578572,0.675801 -3.803621,1.20691 -1.017731,0.457086 -2.111713,0.685805 -3.189933,0.947286 -0.307764,0.157559 -1.032669,0.172107 -1.055041,0.528847 0.195721,0.353596 0.702047,-0.22355 1.031672,-0.186334 1.098933,-0.277613 2.221698,-0.493482 3.262194,-0.960296 1.013367,-0.433129 2.073159,-0.734366 3.135865,-1.017498 0.880587,-0.276838 1.851455,-0.467771 2.552089,-1.110638 0.461143,-0.502321 0.7335,-1.16604 0.845162,-1.832407 0.026,-0.73494 -0.33266,-1.511469 -0.960909,-1.914914 -0.652332,-0.345958 -1.41059,-0.09055 -2.092915,0.0041 -0.182912,0.06686 -0.543314,-0.01342 -0.39942,0.275143 z" /><path
         style="fill:#000000;stroke-width:0.3"
         id="path5"
         d="m 60.016445,47.701673 c 0.424523,-0.13877 0.912937,-0.34298 1.339483,-0.09297 0.439229,0.179591 0.664158,0.637562 0.715301,1.08683 0.104627,0.507202 0.02157,1.066011 -0.337652,1.457728 -0.48397,0.577307 -1.103242,1.024257 -1.739517,1.418677 -1.432195,0.74933 -3.017565,1.12355 -4.548125,1.61426 -0.468871,0.151047 -0.967659,0.234989 -1.412233,0.444235 0.0095,0.151212 0.138563,0.450054 0.335588,0.275987 1.403013,-0.406959 2.809948,-0.806854 4.189676,-1.288146 0.799079,-0.310434 1.61718,-0.627256 2.280501,-1.186435 0.565878,-0.439773 1.161851,-0.912172 1.465027,-1.579883 0.22857,-0.58607 0.123221,-1.257171 -0.110612,-1.824778 -0.296358,-0.596549 -1.049379,-0.972225 -1.694645,-0.736884 -0.200469,0.09019 -0.722605,0.07485 -0.493531,0.384461 l 0.008,0.02004 z" /><path
         style="fill:#000000;stroke-width:0.3"
         id="path6"
         d="m 61.440673,42.837682 c -0.366292,-0.01559 -0.705023,0.158364 -0.990378,0.372835 -0.616764,0.41778 -1.24256,0.875388 -1.622689,1.532178 -0.144521,0.246593 -0.221176,0.570529 -0.06023,0.828829 0.19661,0.380095 0.608291,0.5606 0.985375,0.711218 0.337074,0.140471 0.699795,0.200789 1.063171,0.215093 0.342764,-0.01669 1.873829,0.109881 1.528124,-0.473272 -0.01764,-0.136967 -0.04499,0.02192 -0.15659,0.01561 -0.543446,0.141913 -1.112095,0.180041 -1.669811,0.112919 -0.41314,-0.04412 -0.810431,-0.196706 -1.171662,-0.39768 -0.217702,-0.133574 -0.444081,-0.392255 -0.344258,-0.664988 0.168506,-0.424999 0.494847,-0.765917 0.828783,-1.067855 0.322828,-0.261284 0.651245,-0.517258 0.992692,-0.753616 0.182681,-0.118192 0.415826,-0.255454 0.633513,-0.255516 l -0.01603,-0.175756 z"
         sodipodi:nodetypes="sccccccccccccccs" /><path
         style="fill:#000000;stroke-width:0.3"
         id="path8"
         d="m 61.42079,47.439153 c -0.428671,-0.07822 -0.868393,0.02387 -1.272761,0.165812 -0.469648,0.175522 -0.922477,0.459085 -1.1823,0.900427 -0.206379,0.349851 -0.32663,0.797165 -0.158924,1.186852 0.166943,0.366995 0.55712,0.553773 0.922144,0.668273 0.39474,0.119186 0.801289,0.19798 1.211169,0.240103 0.24015,0.01251 0.48141,0.019 0.721622,0.01126 0.120382,0.0029 0.160894,-0.02386 0.18467,-0.18876 -0.05561,-0.069 0.0095,-0.162366 -0.11414,-0.11853 -0.241178,0.03366 -0.486611,0.0086 -0.72954,0.006 -0.339849,-0.02374 -0.676134,-0.08786 -1.005906,-0.172148 -0.328962,-0.09161 -0.694217,-0.203212 -0.895467,-0.499873 -0.159616,-0.266018 -0.07534,-0.595744 0.03876,-0.862704 0.16568,-0.387755 0.51263,-0.665854 0.892432,-0.830021 0.423718,-0.194971 0.968826,-0.339319 1.436169,-0.307163 0.0088,-0.07921 -0.0567,-0.120294 -0.04793,-0.199501 z"
         sodipodi:nodetypes="cccccccccccccccsc" /><path
         id="path9"
         style="fill:#000000;stroke-width:0.3"
         d="m 50.606213,35.79058 c -2.022667,0.09584 -3.914025,0.93339 -5.898348,1.273293 -2.757538,0.698047 -6.653885,2.309431 -8.479069,5.982063 -0.510666,1.305593 -0.60697,2.726304 -0.818082,4.10569 -0.211672,3.466219 0.310864,6.611471 1.74914,9.766882 1.796342,2.900373 5.167018,3.604191 8.315818,3.655174 2.516563,-0.232969 4.973499,-0.921989 7.389245,-1.63625 2.354172,-0.925056 4.78124,-1.660501 7.127625,-2.600274 1.621512,-0.594684 2.553963,-2.643542 1.806157,-4.218838 -0.917273,-1.238039 -2.55805,-0.318569 -1.663982,-0.209779 1.228935,-0.454348 1.703976,1.121391 1.479061,2.052077 -0.438869,1.512228 -1.945687,2.17868 -3.306622,2.595927 -3.040272,0.947608 -5.94976,2.307375 -9.088489,2.926218 -4.019137,1.141527 -5.856042,0.943292 -9.472166,-0.530797 -0.937065,-0.54513 -1.845522,-1.290743 -2.337852,-2.268574 -1.536078,-3.220663 -2.206265,-7.227302 -1.494031,-10.773505 0.07257,-1.043205 0.236703,-2.057951 0.716725,-2.99775 2.032025,-3.547292 5.72524,-5.143961 9.603285,-5.887005 1.909996,-0.429424 3.843817,-1.241551 5.830705,-0.767526 1.402024,0.14803 2.749851,1.306789 2.595907,2.817076 -0.459665,1.0083 -1.163606,1.55084 -0.146641,0.830227 1.162362,-1.18424 -0.05746,-3.143351 -1.308049,-3.658995 -0.820457,-0.336422 -1.721652,-0.424389 -2.60034,-0.455334 z"
         sodipodi:nodetypes="scccccccccccccccccccccss" /><path
         style="fill:#000000;stroke-width:0.3"
         id="path13"
         d="m 50.231068,35.89611 c -0.313461,0.199944 -0.623177,0.454285 -0.733943,0.824632 -0.100852,0.280367 -0.117042,0.599205 0.02214,0.870033 0.253157,0.479363 0.803816,0.711244 1.322018,0.757587 0.473568,0.06093 0.962919,0.04696 1.417774,-0.110264 0.507811,-0.154428 0.990917,-0.381233 1.458582,-0.629968 0.200432,-0.111215 0.381354,-0.256205 0.540208,-0.419429 -0.05812,-0.04933 -0.149709,-0.228383 -0.22288,-0.1678 -0.349347,0.369836 -0.844421,0.537813 -1.293375,0.750255 -0.391537,0.153573 -0.79532,0.308852 -1.218771,0.336301 -0.397544,0.01027 -0.806994,9.61e-4 -1.186457,-0.129677 -0.312872,-0.122675 -0.632039,-0.35899 -0.681422,-0.714577 -0.03536,-0.243226 0.05049,-0.493581 0.170528,-0.702679 0.130304,-0.21118 0.352656,-0.333359 0.533991,-0.493284 -0.0428,-0.05704 -0.0856,-0.114087 -0.128393,-0.17113 z" /><path
         style="fill:#000000;stroke-width:0.3"
         id="path21"
         d="m 59.570027,51.979917 c -0.185934,0.05622 -0.345326,0.174931 -0.5141,0.268037 -0.286209,0.180003 -0.507515,0.480118 -0.564697,0.816289 -0.03983,0.301059 0.126673,0.578302 0.281019,0.821866 0.211547,0.305753 0.538071,0.514536 0.891074,0.620418 0.416701,0.143125 0.8621,0.157932 1.298434,0.150406 0.302132,-0.0094 0.537838,-0.04168 0.831136,-0.10764 0.01511,-0.08665 0.04002,-0.169885 0.03441,-0.256469 -0.106212,-0.02306 -0.23496,0.03843 -0.349085,0.03646 -0.464322,0.05491 -0.937664,0.0631 -1.400436,-0.0087 -0.3803,-0.07465 -0.779482,-0.210707 -1.026019,-0.528146 -0.125447,-0.161276 -0.227972,-0.346594 -0.284583,-0.543147 -0.04341,-0.221042 0.07256,-0.43722 0.201406,-0.609128 0.163463,-0.203964 0.400297,-0.330833 0.624835,-0.456123 0.07565,-0.01829 -0.0045,-0.104224 -0.0076,-0.156873 -0.0052,-0.01576 -0.01049,-0.03152 -0.01574,-0.04728 z"
         sodipodi:nodetypes="scccccccccccccccs" /><path
         id="path24"
         style="fill:#000000;stroke-width:0.3"
         d="m 41.177848,46.677771 c -0.660068,0.01024 -1.333339,-0.07252 -1.92653,0.269724 -0.906594,0.412293 -1.654155,1.145198 -2.127012,2.016417 -0.366369,0.796149 -0.350214,2.653732 0.0188,4.290179 0.248148,0.81347 0.557078,1.618013 0.9772,2.359556 0.856934,1.09585 2.015087,1.198593 3.290211,1.242397 0.810666,0.02094 1.586982,-0.310073 2.258776,-0.73799 0.770841,-0.619014 1.425585,-1.411236 1.8195,-2.322356 0.282947,-0.91697 0.25205,-1.983955 0.14839,-2.937797 -0.397979,-1.574799 -1.575375,-3.161358 -1.89297,-3.3419 -0.558165,-0.449506 -1.280308,-0.64428 -1.968963,-0.793532 -0.197646,-0.02891 -0.399029,-0.04262 -0.597402,-0.0447 z m -0.281636,0.30024 c 0.863366,-0.04302 1.72536,0.208935 2.472717,0.63048 0.360977,0.175482 3.830044,4.28813 0.48277,7.82536 -0.475897,0.498926 -1.127167,0.778666 -1.77921,0.96375 -2.726211,0.394649 -3.51582,-0.652128 -4.165526,-2.169206 -0.508787,-1.395295 -0.854412,-3.037035 -0.676014,-4.528013 0.140014,-0.848582 0.779746,-1.507072 1.417643,-2.031587 0.566331,-0.366884 1.198185,-0.754141 1.898959,-0.689224 0.116204,-0.0012 0.232512,-0.0012 0.348661,-0.0016 z"
         sodipodi:nodetypes="sccccccccccssccccccccc" /><path
         id="path33"
         style="fill:#000000;stroke-width:0.3"
         d="m 40.109972,51.094717 c -0.346543,0.164304 -0.443691,0.45531 -0.486422,0.814303 -0.0019,0.214318 0.02601,0.433428 0.107171,0.63307 0.06554,0.15236 0.177164,0.294393 0.339355,0.348493 0.19029,0.06874 0.39645,0.08853 0.597407,0.06703 0.209642,-0.01628 0.407877,-0.121892 0.556807,-0.267482 0.231893,-0.243095 0.426017,-0.553288 0.43415,-0.898395 0.0032,-0.522501 -0.535859,-0.788048 -0.766499,-0.858737 -0.08235,-0.02057 -0.167939,-0.02715 -0.252561,-0.02913 -0.199272,-7.25e-4 -0.356836,0.105688 -0.529408,0.190848 z m 0.538708,0.207061 c 0.255013,-0.0015 0.52222,0.210586 0.59568,0.37782 0.08282,0.321145 -0.26104,0.768256 -0.491261,0.851838 -0.08976,0.03941 -0.191671,0.03389 -0.287681,0.03525 -0.528672,-0.03161 -0.499554,-0.617032 -0.346598,-0.995494 0.06438,-0.07765 0.40982,-0.256178 0.510285,-0.267296 0.0065,-5.95e-4 0.0131,-0.0014 0.01957,-0.0021 z"
         sodipodi:nodetypes="ccccccccsccccccccc" /><path
         id="path34"
         style="fill:#000000;stroke-width:0.3"
         d="m 39.93933,43.705049 c -0.272193,0.179685 -0.520588,0.441462 -0.580464,0.772911 -0.03937,0.289521 -0.01997,0.608686 0.150213,0.856237 0.126617,0.178044 0.343766,0.251537 0.550619,0.285239 0.229076,0.05898 0.466809,0.03684 0.700355,0.03267 0.231365,-0.01696 0.465421,-0.07366 0.656934,-0.21021 0.234301,-0.159506 0.464817,-0.373858 0.51673,-0.665712 0.0244,-0.164128 0.02378,-0.333792 -0.0029,-0.497486 -0.04149,-0.20329 -0.159706,-0.400775 -0.353336,-0.490605 -0.01875,-0.0097 -0.911309,-0.46567 -1.638151,-0.08304 z m 1.348759,0.388802 c 0.120091,0.03645 0.229007,0.119089 0.248409,0.250404 0.02044,0.121679 0.01961,0.248337 0.0025,0.37051 -0.04523,0.18483 -0.21323,0.301593 -0.35965,0.40617 -0.198432,0.135109 -0.447468,0.137895 -0.67852,0.137974 -0.191646,0.01323 -0.383997,-0.02455 -0.565692,-0.08301 -0.145412,-0.05322 -0.175165,-0.226433 -0.189778,-0.360893 -0.01484,-0.16819 -0.0037,-0.348925 0.103254,-0.488116 0.08648,-0.116011 0.196961,-0.217847 0.321147,-0.291955 0.372264,-0.171597 0.735376,-0.02204 1.11833,0.05892 z"
         sodipodi:nodetypes="ccccccccccccccccccccc" /><path
         id="path35"
         style="fill:#000000;stroke-width:0.3"
         d="m 42.855782,43.844352 c -0.295521,0.01308 -0.584449,0.117483 -0.827624,0.283845 -0.170083,0.137601 -0.328954,0.322713 -0.33672,0.552451 -0.03137,0.29918 0.06307,0.597375 0.189563,0.865086 0.115121,0.232876 0.34972,0.381351 0.596051,0.443248 0.256928,0.07231 0.525158,0.09792 0.791125,0.110235 0.258123,-0.0094 0.533933,0.0053 0.763882,-0.134562 0.263494,-0.15549 0.434481,-0.431658 0.530226,-0.715858 0.04095,-0.20684 0.04947,-0.424701 0.0086,-0.632317 -0.05053,-0.246686 -0.236362,-0.457016 -0.476901,-0.53347 -0.407517,-0.178519 -0.791783,-0.235321 -1.238183,-0.238657 z m 0.02946,0.397909 c 0.262237,0.0076 0.85659,0.15869 0.921206,0.17891 0.144599,0.02146 0.313017,0.07771 0.360044,0.233281 0.04841,0.156521 0.03112,0.326033 0.01087,0.48627 -0.07929,0.216361 -0.215309,0.449035 -0.44881,0.523049 -0.162411,0.04057 -0.331994,0.0298 -0.49792,0.03403 -0.26507,-0.01918 -0.537349,-0.03948 -0.785158,-0.142672 -0.141511,-0.05452 -0.222453,-0.18975 -0.26771,-0.327146 -0.06779,-0.188331 -0.125765,-0.396037 -0.0735,-0.595259 0.08749,-0.159543 0.250563,-0.252669 0.415939,-0.313683 0.115728,-0.04888 0.24036,-0.07048 0.365041,-0.07678 z"
         sodipodi:nodetypes="scccccccccssscccccccccss" /><path
         id="path36"
         style="fill:#000000;stroke-width:0.3"
         d="m 45.199825,45.068567 c -0.270735,0.0011 -0.549845,0.02863 -0.799952,0.13854 -0.212067,0.11659 -0.303692,0.367108 -0.328633,0.595749 -0.04733,0.400424 -0.009,0.808672 0.08563,1.199652 0.06071,0.235888 0.173394,0.493223 0.416264,0.587649 0.26945,0.105313 0.565528,0.127117 0.851949,0.108606 0.241304,-0.03626 0.493241,-0.125998 0.643976,-0.329252 0.153571,-0.20576 0.308889,-0.42168 0.37985,-0.671803 0.0396,-0.197353 0.07869,-0.41088 0.01069,-0.606387 -0.120872,-0.248341 -0.203835,-0.525071 -0.404909,-0.724703 -0.188837,-0.177598 -0.440856,-0.279057 -0.699256,-0.290079 -0.05171,-0.0048 -0.103827,-0.007 -0.155608,-0.008 z m -0.08216,0.403076 c 0.217328,-0.0021 0.4568,0.0054 0.628239,0.158267 0.150739,0.122877 0.201921,0.321591 0.288436,0.485613 0.0497,0.09386 0.07871,0.172345 0.05846,0.278107 -0.0059,0.179975 -0.07243,0.351408 -0.176597,0.49705 -0.09679,0.14072 -0.182982,0.321041 -0.363463,0.36596 -0.178576,0.07446 -0.376134,0.04842 -0.563338,0.03173 -0.115842,-0.02832 -0.258012,-0.0297 -0.339847,-0.127928 -0.127752,-0.214079 -0.146835,-0.470102 -0.182503,-0.711741 -0.01506,-0.257833 -0.0354,-0.525362 0.04177,-0.775532 0.03481,-0.137094 0.185462,-0.147017 0.300833,-0.170861 0.101682,-0.01748 0.204836,-0.02904 0.308003,-0.03066 z" /><path
         id="path37"
         style="fill:#000000;stroke-width:0.3"
         d="m 46.414221,47.318559 c -0.244926,0.0036 -0.494701,0.08533 -0.682257,0.245379 -0.172105,0.183136 -0.199658,0.448602 -0.222721,0.687593 -0.01794,0.262056 0.02238,0.522563 0.03706,0.783618 0.03027,0.335676 0.181064,0.658914 0.415641,0.90028 0.149583,0.15864 0.354695,0.264187 0.574098,0.275685 0.254418,0.03178 0.527513,-0.02538 0.719689,-0.203434 0.216508,-0.206703 0.380487,-0.47519 0.434439,-0.772153 0.07824,-0.334915 0.112011,-0.708943 -0.06271,-1.020445 -0.08924,-0.176665 -0.186094,-0.370912 -0.35146,-0.48263 -0.126364,-0.217183 -0.362006,-0.347151 -0.6062,-0.381995 -0.08461,-0.01396 -0.170315,-0.02947 -0.25558,-0.0319 z m -0.0083,0.399975 c 0.179474,0.02405 0.398849,0.03147 0.511606,0.19692 0.125121,0.110808 0.08895,0.104518 0.173864,0.181412 0.09868,0.116288 0.161974,0.258652 0.223553,0.396866 0.08317,0.240358 0.01789,0.500257 -0.03673,0.739569 -0.04625,0.191069 -0.166467,0.359441 -0.308014,0.492406 -0.151824,0.123126 -0.367408,0.106187 -0.544401,0.05832 -0.226188,-0.108519 -0.363279,-0.343533 -0.441245,-0.573019 -0.06086,-0.210085 -0.04701,-0.431368 -0.07527,-0.646507 -0.0094,-0.231196 -0.01079,-0.474204 0.0841,-0.689758 0.07742,-0.09394 0.211403,-0.12539 0.32713,-0.148972 0.02818,-0.0049 0.05679,-0.0077 0.08541,-0.0072 z"
         sodipodi:nodetypes="sccccccccccssccccccccccccc" /><path
         id="path38"
         style="fill:#000000;stroke-width:0.3"
         d="m 47.12994,49.976794 c -0.232614,0.04311 -0.440905,0.171967 -0.631595,0.306544 -0.238755,0.163591 -0.349446,0.444241 -0.414329,0.715086 -0.09937,0.333545 -0.105235,0.685957 -0.09949,1.031237 0.02414,0.306716 0.05091,0.640902 0.257199,0.886992 0.138793,0.187497 0.375612,0.2577 0.599154,0.268345 0.285717,0.03865 0.586561,-0.05512 0.792901,-0.25784 0.16688,-0.190111 0.26951,-0.427905 0.352472,-0.664286 0.128035,-0.433801 0.248713,-0.901647 0.118977,-1.350228 -0.05726,-0.276836 -0.225897,-0.526548 -0.46561,-0.67747 -0.150032,-0.1005 -0.317368,-0.187082 -0.50074,-0.19945 -9.19e-4,0.03315 -0.0075,-0.05715 -0.0089,-0.05893 z m 0.22942,0.552413 c 0.175142,0.09644 0.316565,0.259714 0.352158,0.460481 0.117593,0.383036 -0.003,0.782888 -0.108082,1.153946 -0.06119,0.180267 -0.139952,0.360344 -0.260106,0.509584 -0.127048,0.11389 -0.303069,0.159638 -0.470534,0.133673 -0.147544,-6.53e-4 -0.309636,-0.04768 -0.371796,-0.19615 -0.09833,-0.190593 -0.102627,-0.413099 -0.118647,-0.622948 -9.61e-4,-0.313113 0.0081,-0.631505 0.105217,-0.931998 0.04487,-0.169173 0.111651,-0.347874 0.26769,-0.44493 0.227398,-0.171984 0.381166,-0.182045 0.6041,-0.06166 z"
         sodipodi:nodetypes="scccccccccccscccccccccc" /><path
         id="path39"
         style="fill:#000000;stroke-width:0.3"
         d="m 46.894812,52.928035 c -0.276059,0.0099 -0.528345,0.150037 -0.746824,0.308651 -0.259864,0.201531 -0.448568,0.48914 -0.529467,0.807953 -0.07292,0.251829 -0.07576,0.519835 -0.05285,0.779331 0.04321,0.295389 0.212596,0.570743 0.449536,0.75111 0.19163,0.139637 0.44535,0.133223 0.668857,0.09627 0.305091,-0.0509 0.603598,-0.211564 0.762758,-0.484997 0.218228,-0.380873 0.325685,-0.826967 0.300336,-1.26554 -0.01672,-0.216331 -0.08134,-0.431177 -0.191065,-0.618394 -0.143266,-0.216011 -0.412468,-0.302297 -0.661055,-0.304093 l -2.27e-4,-0.07029 z m -5.17e-4,0.399459 c 0.208441,0.05306 0.301462,-0.0335 0.391294,0.338613 0.09788,0.257445 0.07542,0.543544 0.01545,0.807101 -0.05623,0.216905 -0.127675,0.441527 -0.278096,0.61279 -0.160244,0.154452 -0.394697,0.21037 -0.611764,0.20522 -0.117758,0.01501 -0.210819,-0.06643 -0.279554,-0.151625 -0.114119,-0.141864 -0.189555,-0.320035 -0.177346,-0.504705 -0.0063,-0.210397 0.01348,-0.424812 0.09526,-0.620795 0.10345,-0.286179 0.345183,-0.505267 0.620483,-0.624615 0.149692,-0.07529 0.214498,-0.06447 0.224273,-0.06198 z"
         sodipodi:nodetypes="sccccccccccssccccccccs" /><path
         id="path40"
         style="fill:#000000;stroke-width:0.3"
         d="m 46.071606,55.430725 c -0.36065,0.0016 -0.729538,0.106482 -1.017706,0.327789 -0.285295,0.230247 -0.453192,0.574064 -0.544336,0.922658 -0.06607,0.283574 -0.01546,0.582115 0.09031,0.849203 0.0872,0.205935 0.265212,0.378301 0.48835,0.42478 0.226728,0.04755 0.461319,0.04301 0.691596,0.03567 0.324214,-0.0395 0.584554,-0.2638 0.813103,-0.480216 0.209176,-0.203238 0.332051,-0.479379 0.380384,-0.764236 0.03749,-0.165582 0.01848,-0.337836 0.0062,-0.505331 -0.03831,-0.272285 -0.17857,-0.545373 -0.42373,-0.68523 -0.101615,-0.06088 -0.216139,-0.10296 -0.33487,-0.1116 -0.01615,-0.0303 -0.112601,-0.0035 -0.149306,-0.01349 z m 0.06563,0.399976 c 0.0883,0.01322 0.20223,0.03916 0.274924,0.111869 0.107492,0.09085 0.160291,0.243127 0.175324,0.382401 0.0085,0.146501 0.01747,0.295007 -0.02531,0.43748 -0.04366,0.183714 -0.132419,0.356935 -0.27234,0.48576 -0.155024,0.139324 -0.318667,0.291158 -0.52658,0.34107 -0.178038,0.01485 -0.358774,0.0057 -0.5364,-0.01252 -0.130719,-0.01 -0.229595,-0.109929 -0.272126,-0.228664 -0.07978,-0.225035 -0.110861,-0.47827 -0.01819,-0.704691 0.09493,-0.277116 0.261145,-0.55357 0.538237,-0.678522 0.206988,-0.09421 0.435467,-0.142946 0.662455,-0.134187 z" /></g><path
       id="path41"
       style="fill:#000000;stroke-width:0.3"
       d="m 22.343882,23.536093 c -0.309251,1.490709 -0.373215,2.954222 -0.27183,4.465361 -0.0043,1.718975 0.770155,3.481263 2.248291,4.424775 1.357261,0.986853 3.107592,1.151468 4.733695,1.055146 1.676388,-0.04014 3.367706,-0.298199 4.940247,-0.892665 0.906443,-0.408553 1.878668,-0.930885 2.32854,-1.866556 -0.82414,-1.51164 1.283322,1.461413 -6.322649,2.315119 -1.57729,0.07608 -3.233652,0.195348 -4.70332,-0.499303 -1.320946,-0.619191 -2.39153,-1.818344 -2.667402,-3.273873 -0.906007,-4.321276 0.175523,-7.875644 3.19274,-8.905104 1.769285,-0.697914 3.551021,-0.772461 5.429414,-0.80183 1.295987,-0.01804 3.874661,0.340776 5.542037,3.178942 0.688923,-0.134445 -0.03184,-0.7083 -0.2067,-1.052654 -0.542008,-0.816687 -1.310758,-1.490416 -2.264546,-1.769323 -1.129272,-0.605129 -2.423251,-0.815305 -3.693738,-0.763913 -0.796131,-0.0055 -7.050187,0.08943 -8.284779,4.385878 z"
       sodipodi:nodetypes="cccccccccccccccc" /><path
       style="fill:#000000;stroke-width:0.3"
       id="path44"
       d="m 22.268328,27.041673 c 1.22251,-0.144537 2.460431,-0.04488 3.686646,-0.15242 1.299156,-0.128237 2.603389,-0.19518 3.908638,-0.20178 1.706143,-0.03316 3.401809,-0.241821 5.10004,-0.386993 0.263906,-0.08891 0.844241,0.0014 0.651501,-0.409645 -0.356792,-0.03174 -0.896867,0.179311 -1.335234,0.14996 -1.819665,0.170616 -3.641585,0.354521 -5.471552,0.341689 -1.585074,0.02581 -3.158371,0.270701 -4.745249,0.248714 -0.621025,0.02664 -1.249327,-0.0098 -1.863826,0.09978 0.02301,0.103566 0.04602,0.207132 0.06904,0.310698 z" /><path
       style="fill:#000000;stroke-width:0.3"
       id="path45"
       d="m 24.73811,26.840658 c 0.172404,0.689493 0.587532,1.321457 0.982308,1.908503 0.35602,0.555427 1.037002,0.748735 1.659057,0.788159 1.212037,0.117171 2.433325,-0.03411 3.620405,-0.278167 0.470051,-0.143563 0.925325,-0.351501 1.337637,-0.619384 0.933178,-0.640756 1.469808,-2.230249 1.374013,-2.286517 -0.507442,-0.207778 -0.44182,1.069108 -1.289598,1.802329 -0.38035,0.366669 -0.883117,0.565037 -1.367513,0.753003 -0.599605,0.16461 -1.223666,0.225009 -1.839224,0.304219 -0.823477,0.05892 -1.666972,0.08748 -2.475243,-0.10767 -0.384831,-0.107265 -0.695639,-0.382575 -0.886699,-0.729676 -0.302054,-0.506526 -0.677543,-1.001572 -0.8168,-1.578956 -0.103582,0.02298 -0.194765,0.02117 -0.298343,0.04416 z"
       sodipodi:nodetypes="scccccccccccss" /><path
       style="fill:#000000;stroke-width:0.3"
       id="path46"
       d="m 23.532159,26.980488 c 0.280621,0.654764 0.314459,1.39524 0.6151,2.047658 0.279409,0.764663 0.89621,1.425308 1.706864,1.614717 0.865454,0.211187 1.755369,0.296508 2.644498,0.316925 0.997659,0.02893 2.022743,0.07064 2.978412,-0.27168 0.690588,-0.196258 1.355059,-0.515634 1.86631,-1.02957 0.510665,-0.413345 1.011962,-0.894246 1.19726,-1.546355 0.193656,-0.599796 0.447119,-1.185916 0.51943,-1.817734 -0.342188,-0.133624 -0.367054,-0.01199 -0.387798,0.296778 -0.161252,0.57114 -0.369066,1.269984 -0.599006,1.817118 -0.326908,0.576003 -0.892514,0.953769 -1.3808,1.380926 -0.671457,0.45816 -1.479639,0.677334 -2.271214,0.819263 -0.958494,0.09707 -1.924859,0.02918 -2.884509,-0.01724 -0.648908,-0.07094 -1.311268,-0.143114 -1.92679,-0.370905 -0.681717,-0.275374 -1.059232,-0.953783 -1.287589,-1.614981 -0.224954,-0.557236 -0.295929,-1.158972 -0.488199,-1.725485 -0.100656,0.03352 -0.39337,-0.112699 -0.351578,-0.01519 z"
       sodipodi:nodetypes="scccccccccccccccss" /><path
       style="fill:#000000;stroke-width:0.3"
       id="path47"
       d="m 24.994941,26.696537 c -0.08975,-0.738916 0.128244,-1.466952 0.335581,-2.167662 0.307552,-0.847139 1.004151,-1.539504 1.84244,-1.866229 1.021862,-0.48869 2.189205,-0.540957 3.301095,-0.467565 0.677146,0.06597 1.34455,0.288723 1.896652,0.692514 0.557219,0.332022 0.928379,0.894575 1.182901,1.476885 0.164049,0.457935 0.212525,0.959822 0.15669,1.441031 -0.126011,0.230633 -0.150246,0.390078 0.136625,0.428048 0.17071,-0.09829 0.206855,-0.499768 0.206056,-0.722745 0.01067,-0.673375 -0.150578,-1.355566 -0.54569,-1.909248 -0.364218,-0.644007 -1.006397,-1.056092 -1.649568,-1.382412 -0.748432,-0.321703 -1.572339,-0.406002 -2.379761,-0.366783 -0.905311,0.01324 -1.816197,0.189584 -2.626785,0.603416 -0.978571,0.442464 -1.727707,1.363218 -1.956876,2.41328 -0.153915,0.607085 -0.307088,1.232112 -0.216016,1.862651 0.105552,-0.01173 0.211104,-0.02345 0.316656,-0.03518 z" /><path
       style="fill:#000000;stroke-width:0.3"
       id="path49"
       d="m 29.282424,21.887789 c -0.561914,0.439859 -2.000146,2.433441 -2.249722,3.678791 -0.03763,0.198836 -0.04162,0.403048 -0.07818,0.602654 0.01529,0.101068 -0.07804,0.324274 0.02451,0.350574 0.09186,-0.0067 0.183713,-0.01333 0.275569,-0.02 -0.0036,-0.457344 0.08515,-1.369549 0.720669,-2.338404 0.426189,-0.624007 0.770655,-1.290617 1.298161,-1.837088 0.06101,-0.09523 0.32909,-0.184623 0.1593,-0.286373 -0.0501,-0.05005 -0.100207,-0.100103 -0.15031,-0.150154 z"
       sodipodi:nodetypes="scccccccss" /><path
       style="fill:#000000;stroke-width:0.3"
       id="path50"
       d="m 31.782154,22.368834 c -0.966777,1.033847 -1.603802,2.170452 -1.84847,3.553423 -0.01896,0.143503 -0.03428,0.417029 -0.03719,0.561573 0.106225,0.0021 0.224142,-0.124323 0.330367,-0.122223 -0.0015,-0.222769 0.02191,-0.444488 0.07186,-0.661469 0.03649,-0.790803 0.473479,-1.378134 0.870113,-2.020364 0.194962,-0.282027 0.397478,-0.559415 0.627377,-0.814117 0.04584,-0.104479 0.274317,-0.237406 0.204331,-0.33293 -0.0728,-0.05463 -0.14559,-0.109262 -0.218385,-0.163893 z"
       sodipodi:nodetypes="ccccccccc" /><path
       style="fill:#000000;stroke-width:0.3"
       id="path51"
       d="m 23.828257,26.630709 c -0.25209,-0.750056 -0.230339,-1.593956 0.02273,-2.341309 0.482785,-1.44332 1.492569,-2.053113 2.809811,-2.584248 0.920273,-0.291893 1.87776,-0.464203 2.845053,-0.462706 3.723803,-0.103377 4.724775,2.003253 4.818778,2.22256 0.889907,1.822699 0.07601,2.694815 0.596173,2.62901 0.221484,-0.03023 0.434398,-1.54566 -0.527727,-3.159732 -0.822381,-1.180593 -2.336079,-2.105311 -5.082324,-2.007474 -2.215324,0.03101 -4.192978,0.697033 -5.419148,2.53815 -0.476163,0.769325 -0.640329,1.696823 -0.525972,2.589075 0.05536,0.251271 0.03241,0.847263 0.409265,0.594436 0.01779,-0.0059 0.03557,-0.01184 0.05336,-0.01776 z"
       sodipodi:nodetypes="sccccccccccss" /><ellipse
       style="fill:#000000;stroke-width:0.3"
       id="path52"
       cx="27.070183"
       cy="27.96315"
       rx="0.54570311"
       ry="0.51263022" /><g
       id="g89"><path
         id="path55"
         style="fill:#000000;stroke-width:0.3"
         d="m 33.666162,52.884111 c -1.098905,0.100962 -2.244032,0.162646 -3.239552,0.689136 -0.677893,0.365726 -1.221091,0.993722 -1.517261,1.700898 -0.106572,0.530039 -0.279078,1.070139 -0.23048,1.641272 0.0053,0.869643 0.08583,1.742424 0.33338,2.580719 0.142178,0.68706 0.575232,1.322552 1.23866,1.596809 1.184914,0.586116 2.537384,0.524183 3.823242,0.524003 0.898495,-0.0088 1.800765,0.03923 2.693158,-0.08644 1.381313,-0.0054 2.732017,-0.47382 3.883471,-1.22217 0.254167,-0.190738 0.555365,-0.434037 0.16052,-0.625194 -0.262286,0.08705 -0.589696,0.542655 -0.959946,0.633991 -0.970414,0.526201 -2.061841,0.813664 -3.16648,0.817915 -1.153283,0.150114 -2.319875,0.05564 -3.479618,0.07964 -1.107311,0.0094 -2.303986,-0.08464 -3.226678,-0.758807 -0.591841,-0.525215 -0.640789,-1.377124 -0.8077,-2.100118 -0.0874,-0.709735 -0.118985,-1.430647 -0.06084,-2.143515 0.133842,-0.511374 0.161664,-1.05452 0.571027,-1.469297 0.355761,-0.503888 0.883227,-0.846274 1.461492,-1.04265 0.8329,-0.293608 1.729636,-0.345997 2.603465,-0.417054 0.724709,0.0059 1.451545,-0.01406 2.173511,0.06099 0.07987,-0.303118 0.0555,-0.519149 -0.345194,-0.429948 -0.634828,-0.04104 -1.272754,-0.02676 -1.90818,-0.03018 z" /><path
         id="path57"
         style="fill:#000000;stroke-width:0.3"
         d="m 33.284273,55.782125 c -0.351224,-0.0034 -0.691921,0.192097 -0.876968,0.488867 -0.126998,0.219001 -0.177434,0.482053 -0.150662,0.73328 0.05372,0.406762 0.322114,0.790786 0.708104,0.944401 0.165107,0.06712 0.351011,0.09829 0.523725,0.03959 0.250946,-0.07775 0.476769,-0.230327 0.65907,-0.417959 0.208611,-0.204369 0.281127,-0.513054 0.252771,-0.79661 -0.0314,-0.26158 -0.0666,-0.542685 -0.244608,-0.750681 -0.127677,-0.151128 -0.333037,-0.207541 -0.524174,-0.213992 -0.106221,0.0016 -0.185168,-0.02537 -0.291096,-0.02691 -0.01872,-3.78e-4 -0.03757,-2.7e-4 -0.05616,8e-6 z m 0.04909,0.398942 c 0.09338,0.02424 0.198763,0.0183 0.309888,0.02889 0.101837,0.0017 0.219163,0.03837 0.256098,0.14383 0.07458,0.145149 0.08165,0.312535 0.105648,0.471068 0.01698,0.181578 -0.03095,0.380765 -0.176316,0.501773 -0.140905,0.129035 -0.305642,0.244895 -0.49424,0.288818 -0.100738,0.01964 -0.202052,-0.02814 -0.290725,-0.07074 -0.218595,-0.121007 -0.362337,-0.357677 -0.392466,-0.603343 -0.01171,-0.158926 0.01874,-0.325884 0.09824,-0.464723 0.1225,-0.187756 0.344266,-0.30828 0.569685,-0.295479 l 0.01415,1.2e-5 z" /><path
         style="fill:#000000;stroke-width:0.3"
         id="path58"
         d="m 28.139482,52.565506 c -0.586944,0.185165 -0.975026,0.690177 -1.314642,1.173052 -0.363569,0.447638 -0.631622,0.976798 -0.701561,1.554673 -0.104629,0.806164 -0.142993,1.634505 0.0053,2.437768 0.18008,0.876262 0.308945,1.764137 0.528086,2.631742 0.09061,0.398985 0.254181,0.818269 0.62991,1.030009 0.484133,0.346932 1.132271,0.543424 1.70817,0.317774 0.393813,-0.137385 0.758665,-0.413233 0.95589,-0.78394 0.09754,-0.156027 -0.165206,-0.179086 -0.259115,-0.246597 -0.170645,0.09943 -0.408894,0.528398 -0.703358,0.606478 -0.456042,0.230451 -1.002179,0.104654 -1.405285,-0.176445 -0.304916,-0.147953 -0.45814,-0.464453 -0.521365,-0.782759 -0.226205,-0.866652 -0.350263,-1.756445 -0.53217,-2.633006 -0.148381,-0.767685 -0.109872,-1.561056 -0.01074,-2.332524 0.05992,-0.516211 0.301841,-0.985973 0.627555,-1.383912 0.300471,-0.411166 0.610105,-0.868943 1.119444,-1.034718 -0.04205,-0.125865 -0.0841,-0.25173 -0.126143,-0.377595 z"
         sodipodi:nodetypes="cccccccccccccccccc" /><path
         style="fill:#000000;stroke-width:0.3"
         id="path59"
         d="m 27.220555,53.496733 c -0.379599,-0.350796 -0.885847,-0.517115 -1.350832,-0.723471 -0.5387,-0.221979 -1.151006,-0.243984 -1.695344,-0.02692 -0.597365,0.209464 -1.306097,0.441847 -1.560945,1.083705 -0.377828,0.893623 -0.466694,1.886686 -0.925338,2.750549 -0.248667,0.550682 -0.715827,0.981344 -0.869778,1.578585 -0.179728,0.59389 -0.480853,1.26508 -0.181277,1.870145 0.410444,0.629175 1.129722,0.941519 1.685809,1.419979 0.738125,0.476405 1.533466,0.963659 2.42994,1.038117 0.583114,-0.02461 1.229217,-0.09787 1.674057,-0.519078 0.201363,-0.234602 0.66662,-0.485571 0.689211,-0.735535 -0.152842,-0.219717 -0.184884,-0.386836 -0.348567,-0.103591 -0.358493,0.331279 -0.836122,0.83831 -1.356164,0.883132 -0.599503,0.175917 -1.225271,0.0093 -1.768666,-0.26077 -0.572207,-0.275242 -1.104684,-0.621079 -1.60032,-1.016632 -0.382142,-0.281319 -0.833496,-0.52457 -1.076141,-0.946271 -0.167005,-0.484887 0.08382,-0.982889 0.212855,-1.446895 0.150252,-0.601055 0.626385,-1.029345 0.871877,-1.584566 0.407639,-0.769333 0.544877,-1.635444 0.810347,-2.455075 0.105188,-0.446736 0.424624,-0.808956 0.863401,-0.953475 0.583026,-0.249351 1.247629,-0.500504 1.874631,-0.24223 0.419415,0.15627 0.837097,0.337321 1.218793,0.570158 0.145998,0.236032 0.268852,-0.102271 0.402451,-0.179816 z"
         sodipodi:nodetypes="cccccccccccccccccccccccc" /><path
         style="fill:#000000;stroke-width:0.3"
         id="path60"
         d="m 26.468707,54.298169 c -0.676632,-0.384209 -1.486468,-0.361524 -2.239536,-0.33171 -0.555752,0.03632 -1.195251,0.237226 -1.432376,0.79176 -0.174916,0.44641 -0.128843,0.945329 -0.318657,1.389387 -0.285432,0.960237 -0.854031,1.801649 -1.484848,2.567338 -0.332109,0.259094 -0.242567,0.754001 0.07878,0.984304 0.596065,0.564581 1.503802,0.576608 2.122447,1.110995 0.514876,0.383223 1.014427,0.899435 1.69095,0.950547 0.630205,0.03438 1.207844,-0.283093 1.69809,-0.647157 0.171323,-0.117237 0.50797,-0.326165 0.253155,-0.498703 -0.167833,-0.170522 -0.475417,0.370491 -0.68698,0.405491 -0.494506,0.355454 -1.197472,0.592772 -1.765758,0.261882 -0.63631,-0.357658 -1.120851,-0.955683 -1.825631,-1.195992 -0.497142,-0.216721 -1.102373,-0.323864 -1.423574,-0.805374 -0.105359,-0.355137 0.383121,-0.595475 0.524836,-0.900653 0.633185,-0.833539 1.113203,-1.800236 1.300054,-2.834974 0.02331,-0.401228 0.115428,-0.876678 0.519713,-1.063494 0.626514,-0.288491 1.340432,-0.206928 2.008177,-0.16876 0.286444,-0.02312 0.701822,0.276501 0.917167,0.236686 0.04569,-0.07314 0.0183,-0.178434 0.06399,-0.251573 z"
         sodipodi:nodetypes="cccccccccccccccccccc" /><path
         style="fill:#000000;stroke-width:0.3"
         id="path61"
         d="m 26.235271,55.375508 c -0.470523,-0.142342 -0.967393,-0.173523 -1.456582,-0.176091 -0.481182,-0.0012 -0.968135,0.115353 -1.362668,0.399996 -0.553181,0.347974 -0.777936,0.996368 -1.016523,1.569937 -0.203349,0.497412 -0.395313,1.023112 -0.773314,1.418222 -0.207573,0.199907 -0.558791,0.226827 -0.692506,0.502476 -0.108143,0.230439 0.113367,0.457416 0.332723,0.494152 0.571424,0.115374 1.166347,0.05498 1.732605,0.208584 0.34673,0.06175 0.698164,0.108073 1.04949,0.13042 0.495984,-0.0074 0.996454,-0.08142 1.46679,-0.24133 0.38494,-0.144725 0.743867,-0.354757 1.069799,-0.60454 -0.06696,-0.08261 -0.133917,-0.165223 -0.200876,-0.247835 -0.494423,0.383169 -1.08183,0.655968 -1.708394,0.721173 -0.369807,0.06969 -0.747959,0.06628 -1.118142,0.0025 -0.449532,-0.03934 -0.883035,-0.185166 -1.336259,-0.195037 -0.327214,-0.04306 -0.680096,0.0062 -0.986336,-0.1324 0.09271,-0.147267 0.418187,-0.220468 0.574512,-0.375335 0.310033,-0.281612 0.498522,-0.670237 0.675292,-1.043216 0.248108,-0.564183 0.418768,-1.177237 0.79836,-1.672589 0.361388,-0.402118 0.904622,-0.619634 1.442672,-0.611988 0.39523,-0.0092 0.794024,0.02236 1.182002,0.09661 0.256839,0.0567 0.270874,0.0627 0.287473,-0.123972 0.01329,-0.0399 0.02659,-0.0798 0.03988,-0.119699 z"
         sodipodi:nodetypes="ccccccccccccccccccccccsc" /></g><g
       id="g87"><path
         style="fill:#000000;stroke-width:0.3"
         id="path54"
         d="m 25.500653,49.837395 c 0.111429,0.562732 0.311441,1.108172 0.527614,1.638269 0.417438,0.723623 1.144052,1.287009 1.975478,1.43425 0.843002,0.189987 1.699624,0.322785 2.557864,0.421859 0.970169,0.09213 1.952139,0.05119 2.905483,-0.15714 0.759011,-0.141878 1.47723,-0.454416 2.159418,-0.80725 0.318875,-0.06003 0.135239,-0.238277 0.02875,-0.397577 -0.202019,-0.08701 -0.533883,0.291643 -0.801721,0.328575 -0.650129,0.304951 -1.345618,0.495231 -2.056833,0.587376 -1.414975,0.234745 -2.84737,-0.01247 -4.241676,-0.26447 -0.574738,-0.110699 -1.184668,-0.237692 -1.615491,-0.667382 -0.390327,-0.312754 -0.649044,-0.752528 -0.770641,-1.234266 -0.146257,-0.27202 -0.197514,-0.869362 -0.384284,-1.03255 -0.110245,0.01112 -0.173718,0.13918 -0.283963,0.15031 z"
         sodipodi:nodetypes="sccccccccccccss" /><path
         style="fill:#000000;stroke-width:0.3"
         id="path62"
         d="m 37.921789,34.72044 c -0.362509,0.1976 -0.693244,0.458403 -0.992803,0.742651 -0.222997,0.26966 -0.513622,0.470995 -0.84278,0.590139 -0.73721,0.272262 -1.575777,0.108042 -2.286908,0.477195 -0.501171,0.237415 -1.008873,0.562736 -1.239158,1.090935 -0.262961,0.608168 -0.43802,1.29506 -0.297176,1.955086 0.188266,0.603349 0.760857,1.013472 1.353303,1.169462 0.356376,0.06743 0.693877,0.297204 1.067187,0.215677 0.388994,-0.07915 0.774182,-0.225416 1.175091,-0.216607 0.426931,0.06611 0.80045,0.297586 1.196413,0.451749 0.161037,0.0031 0.554865,0.247954 0.55384,-0.0093 0.09157,-0.216732 -0.0851,-0.231576 -0.269,-0.242212 -0.379276,-0.08553 -0.700952,-0.322349 -1.075505,-0.426475 -0.467671,-0.198061 -0.972056,-0.03218 -1.437638,0.08272 -0.336412,0.151578 -0.663485,-0.04341 -0.98793,-0.122787 -0.520854,-0.119389 -1.054205,-0.423836 -1.254436,-0.944146 -0.139758,-0.575724 0.0277,-1.179682 0.239538,-1.71673 0.2326,-0.580583 0.827809,-0.887982 1.377208,-1.105769 0.734024,-0.2287 1.555046,-0.08721 2.246629,-0.469627 0.457427,-0.179342 0.70549,-0.629518 1.105171,-0.890382 0.10385,-0.170571 0.638439,-0.297571 0.577143,-0.484219 -0.03432,-0.06862 -0.173877,-0.07877 -0.208189,-0.147382 z"
         sodipodi:nodetypes="ccccccccccccccccccccccc" /><path
         style="fill:#000000;stroke-width:0.3"
         id="path63"
         d="m 38.990158,39.871986 c -0.417687,-0.173897 -0.81972,-0.446628 -1.049054,-0.845596 -0.08738,-0.155369 -0.12373,-0.352872 -0.02448,-0.512177 0.229907,-0.435613 0.482531,-0.896199 0.460321,-1.405483 -0.0049,-0.278688 -0.05661,-0.575759 0.08297,-0.833087 0.133176,-0.277481 0.350445,-0.527518 0.370927,-0.847691 0.04557,-0.130919 -0.03114,-0.156348 -0.140015,-0.130771 -0.05303,0.01971 -0.18092,-0.02715 -0.173941,0.04594 -0.0062,0.346585 -0.289448,0.593244 -0.393008,0.908281 -0.179957,0.428359 0.02838,0.90485 -0.134417,1.33707 -0.09579,0.337989 -0.307711,0.626113 -0.42682,0.95394 -0.09782,0.359129 0.103692,0.721359 0.34542,0.976157 0.259298,0.280452 0.586056,0.495768 0.939608,0.638056 0.04749,-0.09488 0.09499,-0.18976 0.142486,-0.28464 z" /><path
         style="fill:#000000;stroke-width:0.3"
         id="path64"
         d="m 38.255769,36.061631 c -0.205773,0.355436 -0.852378,0.770726 -1.175845,1.001827 -0.453148,0.311762 -0.917554,0.611453 -1.420704,0.837034 -0.272989,0.120341 -0.5513,0.230834 -0.839395,0.309637 0.0318,0.101517 0.06359,0.203034 0.09539,0.304551 0.775255,-0.218206 1.496144,-0.599288 2.155576,-1.057292 0.332963,-0.23152 0.69077,-0.435448 0.977792,-0.725759 0.06942,-0.09141 0.216927,-0.221875 0.200854,-0.31653 -0.08754,-0.04377 0.09387,-0.309698 0.0063,-0.353468 z"
         sodipodi:nodetypes="ccccccccc" /><path
         style="fill:#000000;stroke-width:0.3"
         id="path65"
         d="m 37.566719,38.375407 c -0.135962,0.07932 -0.276216,0.151175 -0.418704,0.217605 -0.228171,0.09865 -0.4517,0.207383 -0.67394,0.318596 -0.141533,0.06785 -0.285058,0.13247 -0.436116,0.176317 -0.05529,0.0015 -0.05627,0.03097 -0.03649,0.07183 0.02549,0.08352 0.05098,0.167047 0.07646,0.250571 0.163897,-0.04848 0.324242,-0.108451 0.477634,-0.184078 0.18308,-0.08553 0.361257,-0.181305 0.546651,-0.261994 0.197476,-0.08769 0.395116,-0.176605 0.582015,-0.285457 0.02767,-0.02285 0.09984,-0.04113 0.05134,-0.07825 -0.05628,-0.07505 0.02775,-0.23195 -0.02853,-0.306999 z"
         sodipodi:nodetypes="sccccccccccs" /><path
         style="fill:#000000;stroke-width:0.3"
         id="path66"
         d="m 36.321621,36.192145 c 0.430583,-0.606478 0.209652,-1.394822 -0.207981,-1.940647 -0.362334,-0.615215 -0.935424,-1.179748 -1.688394,-1.215676 -1.75511,-0.115258 -3.580594,-0.258926 -5.269867,0.34634 -1.228387,0.420796 -2.25135,1.263825 -3.251112,2.063453 -0.703183,0.707326 -1.165971,1.607335 -1.67285,2.456189 -0.664469,1.18847 -0.559557,2.648244 -0.116539,3.889818 0.216832,0.784368 1.353732,0.605203 1.523665,-0.1143 -0.06865,-0.173892 0.527624,-0.984209 0.390489,-0.513974 -0.504454,0.549868 -0.382641,1.630717 0.539609,1.555973 0.664611,-0.01101 1.172109,-0.512342 1.498485,-1.044486 0.828371,-0.861982 2.137569,-1.356731 3.30686,-0.969815 0.57154,0.238593 1.15879,0.57468 1.417535,1.168453 0.41247,0.734889 0.47608,1.618886 0.43856,2.443966 -0.127033,0.822101 -0.909715,1.423532 -1.681314,1.605657 -0.518715,0.235506 -1.380765,-0.308019 -1.688087,0.0229 0.0074,0.4133 0.930335,0.247404 1.303111,0.333041 1.002347,-0.0019 1.989829,-0.693969 2.326237,-1.637829 0.170387,-0.772455 0.04212,-1.589679 -0.156419,-2.345455 -0.237645,-0.637626 -0.599466,-1.283085 -1.240293,-1.586956 -1.135272,-0.766576 -2.705338,-0.502627 -3.747947,0.301764 -0.615872,0.334087 -0.794671,1.158477 -1.508816,1.342 -0.606674,0.282334 -1.074553,-0.398729 -0.616375,-0.87096 0.57611,-0.620698 -0.441294,-1.133374 -0.701115,-0.382752 -0.09322,0.419611 -0.47919,1.204502 -0.98657,0.77296 -0.355759,-0.564961 -0.386985,-1.269226 -0.45746,-1.91732 -0.06725,-1.031607 0.418068,-1.975861 0.979179,-2.804626 0.452984,-0.808468 1.02119,-1.568322 1.820759,-2.063101 0.984827,-0.780592 2.092074,-1.448483 3.349467,-1.662342 1.393688,-0.274509 2.830774,-0.152113 4.236814,-0.05814 0.839124,0.07402 1.299112,0.881202 1.659208,1.54439 0.235073,1.293257 -0.355213,1.068582 0.182272,1.269658 z"
         sodipodi:nodetypes="ccccccccccccccccccccccccccccccccc" /><path
         style="fill:#000000;stroke-width:0.3"
         id="path67"
         d="m 27.773691,41.6615 c -0.106717,0.148721 -0.227217,0.289284 -0.309359,0.454087 -0.06311,0.123223 -0.09529,0.259511 -0.125399,0.3938 -0.05593,0.261725 -0.02653,0.534966 0.04826,0.789831 0.02806,0.102532 0.05416,0.205484 0.07577,0.30952 0.0057,0.03238 0.04927,-0.0038 0.07293,-0.0039 0.0792,-0.02336 0.158403,-0.04673 0.237605,-0.07009 -0.03578,-0.184207 -0.09861,-0.362279 -0.13029,-0.547451 -0.02924,-0.190894 -0.01044,-0.386791 0.04856,-0.570252 0.04912,-0.213692 0.148177,-0.404295 0.26874,-0.579746 0.07974,-0.08947 -0.129455,-0.139944 -0.186824,-0.175781 z"
         sodipodi:nodetypes="cccccccccccc" /><path
         style="fill:#000000;stroke-width:0.3"
         id="path68"
         d="m 31.540116,46.012875 c 0.0634,-0.150882 0.07947,-0.31524 0.106628,-0.475073 0.02371,-0.246921 0.03412,-0.506006 -0.06231,-0.740108 -0.07845,-0.203151 -0.220863,-0.377094 -0.396486,-0.504438 -0.131686,-0.102084 -0.300814,-0.163188 -0.46853,-0.134279 -0.162486,0.01485 -0.315172,0.11271 -0.391369,0.257784 -0.06373,0.102311 -0.09827,0.2243 -0.0966,0.344885 l 0.31845,-0.0036 c -3.2e-5,-0.09032 0.03816,-0.183222 0.104401,-0.244539 0.08786,-0.06057 0.212583,-0.05374 0.299365,0.006 0.19933,0.125816 0.349976,0.334989 0.37981,0.571565 0.02049,0.154191 0.0066,0.311045 -0.01235,0.464585 -0.02332,0.119849 -0.04007,0.348472 -0.08875,0.461832 0.100632,0.03354 0.20711,-0.03816 0.307742,-0.0046 z"
         sodipodi:nodetypes="sccccccccccccss" /><path
         id="path69"
         style="fill:#000000;stroke-width:0.3"
         d="m 27.506331,43.370479 c -0.550445,0.106568 -1.144198,0.289881 -1.489375,0.765134 -0.316942,0.467157 -0.283543,1.102691 -0.02294,1.58643 0.12992,0.274473 0.419701,0.439279 0.719129,0.443601 0.262132,0.01935 0.613007,0.01961 0.723988,0.31316 0.188295,0.365122 -0.02749,0.754658 -0.18454,1.085721 -0.148277,0.319655 -0.392869,0.666699 -0.2734,1.034045 0.130578,0.32082 0.531058,0.377364 0.835222,0.343845 0.302381,-0.02568 0.639102,-0.0715 0.842194,-0.324768 0.256603,-0.322163 0.400985,-0.717148 0.624522,-1.06191 0.351222,-0.588706 0.680956,-1.240851 0.649545,-1.945324 -0.06206,-0.660316 -0.459485,-1.242251 -0.939217,-1.678268 -0.265036,-0.222626 -0.569751,-0.411593 -0.917592,-0.463784 -0.133966,0.0062 -0.517379,-0.174547 -0.490268,0.04833 -0.438131,0.439769 0.407291,0.0096 1.068655,0.555786 0.355891,0.264091 0.63409,0.630855 0.821079,1.030655 0.158022,0.347851 0.181886,0.746596 0.0688,1.111224 -0.163685,0.676855 -0.606379,1.233948 -0.90921,1.849724 -0.122235,0.256263 -0.309643,0.531477 -0.626458,0.534409 -0.235656,0.01996 -0.564481,0.107171 -0.729665,-0.11367 -0.0455,-0.275608 0.148189,-0.516724 0.252511,-0.75777 0.188671,-0.386158 0.408124,-0.831918 0.244169,-1.2664 -0.08588,-0.305527 -0.354517,-0.541067 -0.671565,-0.576807 -0.255792,-0.05794 -0.591354,0.02335 -0.767146,-0.220714 -0.216791,-0.319757 -0.288514,-0.750572 -0.167042,-1.119705 0.146392,-0.436316 0.602675,-0.653346 1.016084,-0.768164 0.804638,0.002 0.391218,-0.09451 0.322523,-0.404783 z"
         sodipodi:nodetypes="sccccccccccccccccccccccccccs" /><path
         style="fill:#000000;stroke-width:0.3"
         id="path70"
         d="m 28.895143,47.943936 c 0.364344,0.139656 0.744249,0.262918 1.140238,0.238792 0.506208,0.02874 0.963425,-0.247779 1.314625,-0.588396 0.245024,-0.216858 0.493476,-0.445412 0.814452,-0.541069 0.400099,-0.152837 0.837267,-0.143366 1.258811,-0.164177 0.347381,-0.01801 0.736406,0.102197 0.903466,0.432488 0.200363,0.272626 0.304794,0.615814 0.243231,0.952838 -0.04725,0.256783 -0.0749,0.560358 -0.28792,0.738499 -0.328151,0.231819 -0.750652,0.23554 -1.136348,0.219258 -0.258855,-0.0094 -0.528549,-0.141584 -0.652499,-0.37263 0.163574,-0.155656 0.438096,-0.09148 0.611127,-0.250536 0.215551,-0.158206 0.398493,-0.475265 0.253532,-0.734346 -0.167982,-0.227287 -0.502139,-0.159307 -0.72247,-0.05348 -0.485788,0.246813 -0.911388,0.60244 -1.424745,0.797634 -0.424379,0.174613 -0.857025,0.421379 -1.333499,0.356163 -0.428936,-0.0066 -0.891084,-0.168714 -1.269952,-0.366681 -0.04593,0.09581 -0.211749,0.117197 -0.257674,0.213003 0.543808,0.289611 1.334329,0.521729 1.94612,0.465349 0.467738,-0.0882 0.894023,-0.316196 1.327457,-0.503484 0.440539,-0.199204 0.806993,-0.534056 1.255354,-0.7151 0.257502,-0.123804 0.256506,0.06474 0.104594,0.225967 -0.196768,0.207986 -0.556889,0.102939 -0.727437,0.35432 -0.153546,0.179754 -0.05778,0.438445 0.110385,0.570075 0.303043,0.331335 0.78207,0.36566 1.201615,0.331915 0.405664,-0.01794 0.860403,-0.136914 1.099982,-0.491314 0.194646,-0.383744 0.276424,-0.835252 0.213956,-1.262303 -0.06934,-0.343843 -0.259927,-0.660141 -0.496109,-0.916082 -0.384947,-0.36104 -0.944022,-0.328009 -1.43114,-0.292128 -0.487199,0.01781 -0.98461,0.129119 -1.390675,0.409424 -0.408885,0.29715 -0.739234,0.755537 -1.265524,0.846397 -0.392928,0.05722 -0.797322,1.91e-4 -1.162698,-0.15425 -0.147844,-0.115825 -0.162794,0.0462 -0.20386,0.153899 l -0.03639,0.09996 z"
         sodipodi:nodetypes="sccccccccccccccccccccccccccccccccs" /><circle
         id="path71"
         style="fill:#000000;stroke:#000000;stroke-width:0.264583"
         cx="28.376562"
         cy="48.683334"
         r="0.00039647811" /><path
         style="fill:#000000;stroke-width:0.3"
         id="path72"
         d="m 28.84764,48.955274 c -0.07586,0.226866 -0.15558,0.452387 -0.234595,0.678164 -0.08314,0.212063 -0.260788,0.374292 -0.325005,0.595141 -0.03155,0.06631 -0.0355,0.148263 0.01189,0.208428 0.07531,0.100881 0.220763,0.09233 0.330722,0.06661 0.241732,-0.065 0.453145,-0.21439 0.630092,-0.388015 0.149751,-0.150701 0.290665,-0.309866 0.432584,-0.467878 0.08984,-0.09806 0.181458,-0.267323 0.230488,-0.391314 0.02169,-0.03283 -0.05767,0.02306 -0.0777,0.0054 -0.0725,-0.03479 -0.145007,-0.06958 -0.217511,-0.104368 -0.03852,0.09519 -0.08792,0.186322 -0.159089,0.261275 -0.123722,0.140546 -0.250026,0.278997 -0.379172,0.414541 -0.145817,0.154213 -0.319195,0.293285 -0.524158,0.357714 -0.04302,0.0096 -0.09983,0.0085 -0.03045,0.03748 0.04397,0.02213 0.04759,0.121069 0.04446,0.129425 0.04255,-0.157039 0.156143,-0.278331 0.234253,-0.417493 0.119678,-0.19314 0.167445,-0.418253 0.249151,-0.627932 0.02945,-0.0947 0.07614,-0.198239 0.09023,-0.289157 -0.102064,-0.02268 -0.204127,-0.04537 -0.306191,-0.06805 z"
         sodipodi:nodetypes="scccccccccccccccccss" /><path
         style="fill:#000000;stroke-width:0.3"
         id="path73"
         d="m 30.93136,48.908149 c 0.01384,0.213535 0.0323,0.428407 0.01437,0.642173 -0.0183,0.180186 -0.08917,0.351263 -0.189709,0.500772 -0.02563,0.06211 -0.113727,0.126497 -0.08783,0.191114 0.05302,0.06031 0.08648,0.138979 0.151629,0.187521 0.0915,0.02117 0.157042,-0.07698 0.225971,-0.12301 0.21964,-0.192008 0.438564,-0.387142 0.626341,-0.611158 0.141715,-0.183493 0.248777,-0.392645 0.324754,-0.611195 0.04859,-0.164311 0.05344,-0.427288 0.06077,-0.597673 -0.106143,-0.0045 -0.204018,0.08205 -0.310161,0.07759 -0.0085,0.193699 -0.02182,0.394738 -0.113638,0.569791 -0.0827,0.195388 -0.202216,0.376383 -0.357549,0.521707 -0.150314,0.159449 -0.31661,0.30292 -0.482073,0.446184 -0.034,0.0249 -0.05197,0.0372 2.5e-4,0.02007 0.05532,0.06088 0.11775,0.176596 0.158184,0.212851 0.105803,-0.160346 0.210382,-0.324888 0.262885,-0.511655 0.08651,-0.288237 0.05403,-0.592344 0.03833,-0.887832 0.01541,-0.06805 -0.02759,-0.06542 -0.07619,-0.05463 -0.08211,0.0091 -0.164223,0.01825 -0.246334,0.02738 z"
         sodipodi:nodetypes="scccccccccccccccccss" /><path
         style="fill:#000000;stroke-width:0.3"
         id="path74"
         d="m 25.769925,35.805123 c -0.155136,-0.299315 -0.327051,-0.61832 -0.633535,-0.787096 -0.298653,-0.170169 -0.638334,-0.246643 -0.965859,-0.34117 -0.603045,-0.167636 -1.236234,-0.193447 -1.857354,-0.141221 -0.267944,0.01471 -0.740857,0.03979 -1.009142,0.04465 0.0017,0.10635 0.047,0.194452 0.0487,0.300802 0.468287,-1.58e-4 1.096216,-0.04026 1.564111,-0.04832 0.46687,7.3e-4 0.93087,0.07683 1.37721,0.212282 0.337213,0.107241 0.727847,0.180207 0.945356,0.488268 0.110411,0.104997 0.162709,0.361646 0.278031,0.398073 0.08416,-0.04209 0.168321,-0.08418 0.252481,-0.126272 z"
         sodipodi:nodetypes="scccccccccss" /><path
         style="fill:#000000;stroke-width:0.3"
         id="path75"
         d="m 21.35307,34.883167 c 0.276154,0.325034 0.182986,0.777425 0.24494,1.171945 0.101126,1.565117 0.08538,3.150186 -0.228874,4.692076 -0.110725,0.651649 -0.236868,1.328068 -0.05034,1.978899 0.103091,0.399034 0.47498,0.846127 0.76815,1.132581 0.05826,-0.08142 0.127446,-0.19026 0.142238,-0.270121 -0.412884,-0.39243 -0.689305,-1.022222 -0.688098,-1.584904 0.01968,-0.753611 0.225206,-1.48669 0.316405,-2.23272 0.159442,-1.295528 0.146495,-2.607766 0.04691,-3.907425 -0.04355,-0.416864 -0.03994,-0.888346 -0.353578,-1.20956 z"
         sodipodi:nodetypes="ccccccccccc" /><path
         style="fill:#000000;stroke-width:0.3"
         id="path76"
         d="m 26.615641,43.814256 c 0.05203,-0.453246 -0.116485,-0.928715 -0.395204,-1.282687 -0.406904,-0.384346 -1.026354,-0.376831 -1.544351,-0.295237 -0.660115,0.160485 -1.339765,0.355424 -1.899269,0.754343 -0.369708,0.263762 -0.661879,0.630954 -0.788969,1.070515 -0.213378,0.447875 -0.433555,0.935642 -0.327721,1.444216 0.163413,0.457428 -0.288442,0.765279 -0.45655,1.138852 -0.346247,0.588325 -0.217505,1.302611 -0.01275,1.914007 0.176451,0.457829 0.707848,0.499152 1.11739,0.599752 0.497878,0.148143 0.642355,0.71483 0.82313,1.137423 0.169899,0.431383 0.165615,0.961755 0.507744,1.307219 0.412115,0.329454 0.962072,-0.02145 1.143891,-0.438831 0.189554,-0.361593 0.254511,-0.808623 0.61768,-1.056267 0.496619,-0.336114 0.746105,-0.912705 1.22734,-1.26452 0.134322,-0.194584 0.618613,-0.289596 0.328714,-0.541218 -0.20945,-0.154944 -0.518133,0.370834 -0.741132,0.472821 -0.373371,0.358196 -0.628315,0.827862 -1.061564,1.125881 -0.342817,0.257724 -0.463454,0.675165 -0.62027,1.05147 -0.09328,0.329437 -0.628453,0.703294 -0.803255,0.233263 -0.186171,-0.526677 -0.278793,-1.086533 -0.544182,-1.584866 -0.174314,-0.414464 -0.544033,-0.745867 -0.998739,-0.804775 -0.407722,-0.0027 -0.788718,-0.26259 -0.798249,-0.697697 -0.108573,-0.453872 -0.140416,-0.956337 0.12958,-1.364046 0.190384,-0.353885 0.575886,-0.667915 0.480286,-1.112502 -0.113858,-0.449081 0.007,-0.911247 0.229629,-1.306608 0.125732,-0.357391 0.277229,-0.716791 0.592037,-0.951095 0.52141,-0.441771 1.203638,-0.625075 1.850666,-0.797518 0.433901,-0.0811 0.956854,-0.116621 1.316473,0.18471 0.250974,0.267317 0.29042,0.817092 0.366951,1.100737 l 0.260697,-0.03734 z"
         sodipodi:nodetypes="scccccccccccccccccccccccccccccs" /><path
         style="fill:#000000;stroke-width:0.3"
         id="path78"
         d="m 22.260979,46.047938 c 0.266703,-0.07539 0.525614,-0.193079 0.749904,-0.356883 0.257638,-0.185929 0.427755,-0.457768 0.615284,-0.707671 0.09748,-0.114928 0.127251,-0.191464 0.201198,-0.02043 0.08842,0.209936 0.182207,0.442165 0.398933,0.550704 0.241618,0.135105 0.531786,0.119661 0.799297,0.105155 0.34168,-0.01992 0.676996,-0.146214 0.944136,-0.360386 L 25.81274,44.950888 c -0.254453,0.208483 -0.627522,0.357851 -0.953061,0.356873 -0.206314,0.0019 -0.460858,0.0079 -0.597155,-0.176776 -0.123219,-0.192036 -0.159439,-0.464831 -0.390717,-0.566272 -0.144037,-0.0698 -0.315834,-0.0063 -0.405524,0.119074 -0.227258,0.240684 -0.370974,0.556291 -0.647023,0.751405 -0.189913,0.136721 -0.40771,0.235036 -0.631288,0.302837 -0.163621,0.05583 -0.17545,-0.230494 -0.291168,-0.187602 -0.08327,0.02773 0.08742,0.564992 0.364175,0.497511 z"
         sodipodi:nodetypes="cccccccccccccccc" /><path
         style="fill:#000000;stroke-width:0.3"
         id="path80"
         d="m 22.648721,49.088973 c 0.06654,-0.432972 0.416334,-0.748351 0.749908,-0.997979 0.332685,-0.255551 0.677795,-0.503115 1.07452,-0.649753 0.573799,-0.263605 1.245924,-0.209164 1.821573,0.01948 0.267929,0.10836 0.579456,0.273366 0.804742,0.456736 0.06889,-0.0811 0.09231,-0.199398 0.161205,-0.280494 -0.40504,-0.321608 -0.896013,-0.525069 -1.39788,-0.639483 -0.528039,-0.105188 -1.091142,-0.0609 -1.579331,0.174992 -0.495908,0.196856 -0.920498,0.530819 -1.330239,0.864972 -0.301511,0.263596 -0.571132,0.607308 -0.620816,1.016358 0.105439,0.01173 0.210879,0.02345 0.316318,0.03517 z"
         sodipodi:nodetypes="ccccccccccc" /><path
         style="fill:#000000;stroke-width:0.3"
         id="path81"
         d="m 23.366447,49.855434 c 0.03753,-0.26272 0.122087,-0.48079 0.320972,-0.645679 0.293728,-0.24892 0.63498,-0.438298 0.984041,-0.597614 0.36935,-0.139869 0.750889,-0.248479 1.135131,-0.338776 0.308803,-0.04126 0.620852,0.01053 0.927599,0.04722 0.10177,-0.01753 0.292538,0.137899 0.329167,0.02069 0.02535,-0.08444 0.05069,-0.16888 0.07604,-0.25332 -0.358997,-0.106072 -0.735207,-0.138305 -1.107787,-0.15066 -0.353579,-0.0063 -0.687298,0.131776 -1.024315,0.219705 -0.373066,0.102904 -0.72566,0.26699 -1.054579,0.469871 -0.324674,0.200784 -0.671599,0.43435 -0.811565,0.807015 -0.05983,0.169228 -0.08711,0.354715 -0.04823,0.53186 l 0.256994,0.0054 z"
         sodipodi:nodetypes="sccccccccccccs" /><path
         style="fill:#000000;stroke-width:0.3"
         id="path82"
         d="m 26.962483,34.700847 c -0.149294,0.547175 0.08383,1.107918 0.432119,1.526402 0.246865,0.366468 0.577024,0.68447 0.999382,0.836575 0.654761,0.24295 1.366874,0.263668 2.057551,0.285146 0.800259,-0.03591 1.626142,0.06228 2.395226,-0.220361 0.805575,-0.251747 1.62825,-0.603308 2.172174,-1.277107 0.388283,-0.475635 0.652035,-1.04068 0.879205,-1.607299 0.05552,-0.100068 -0.275686,-0.172871 -0.302915,-0.09955 -0.300797,0.739806 -0.66692,1.503281 -1.332603,1.983414 -0.585483,0.412614 -1.280285,0.647009 -1.970256,0.816965 -0.638625,0.120009 -1.291727,0.05118 -1.937232,0.08416 -0.665837,-0.03983 -1.36522,-0.03892 -1.981878,-0.324968 -0.444698,-0.203854 -0.710929,-0.638633 -0.96888,-1.032949 -0.198942,-0.25978 -0.143895,-0.665304 -0.168553,-0.909766 -0.09111,-0.02022 -0.182227,-0.04044 -0.27334,-0.06067 z" /><path
         id="path83"
         style="fill:#000000;stroke-width:0.3"
         d="m 30.823442,34.851103 c -0.249128,0.0012 -0.521838,0.04338 -0.708368,0.223343 -0.129085,0.121532 -0.169399,0.303574 -0.182463,0.473572 -0.01328,0.315181 0.196439,0.615595 0.482009,0.739237 0.244549,0.108193 0.530221,0.111842 0.783546,0.03194 0.284064,-0.09746 0.534844,-0.332618 0.592674,-0.63513 0.0427,-0.23417 -0.04024,-0.501011 -0.239577,-0.641289 -0.09601,-0.06751 -0.214553,-0.08601 -0.324206,-0.121083 -0.145471,-0.03806 -0.262165,-0.04365 -0.403615,-0.07059 z m -0.0078,0.31936 c 0.14527,0.02991 0.304977,0.05758 0.45948,0.09784 0.110227,0.01289 0.183713,0.114481 0.199939,0.218107 0.04209,0.186611 -0.08428,0.36932 -0.239207,0.461834 -0.170426,0.113117 -0.390276,0.126502 -0.58591,0.08501 -0.190532,-0.0438 -0.359165,-0.196603 -0.393691,-0.393057 -0.01548,-0.09564 0.0068,-0.194806 0.04107,-0.283822 0.07984,-0.132181 0.246797,-0.163091 0.388579,-0.179571 0.04299,-0.0058 0.08668,-0.0055 0.129744,-0.0063 z"
         sodipodi:nodetypes="ccccccccccccccccccc" /><path
         id="path84"
         style="fill:#000000;stroke-width:0.3"
         d="m 27.080518,37.508822 c -0.173486,-2.06e-4 -0.340648,0.06821 -0.489266,0.152784 -0.250665,0.166237 -0.43746,0.440323 -0.474308,0.741503 -0.01471,0.195274 0.04841,0.387674 0.128371,0.56315 0.086,0.19954 0.264613,0.362232 0.482309,0.40016 0.253749,0.05117 0.528045,0.09741 0.777062,7.74e-4 0.253417,-0.112174 0.411636,-0.373639 0.451139,-0.641247 0.04108,-0.257677 0.0045,-0.528248 -0.101543,-0.766611 -0.06975,-0.146984 -0.197023,-0.26162 -0.345892,-0.324959 -0.04045,-0.05503 -0.165921,-0.07776 -0.242347,-0.10336 -0.0612,-0.01121 -0.123361,-0.02031 -0.185525,-0.02219 z m -0.01189,0.318843 c 0.101887,0.0024 0.200887,0.02972 0.291967,0.0749 0.03373,0.05 0.157101,0.07894 0.187963,0.162025 0.09136,0.171968 0.115423,0.373975 0.100023,0.566224 -0.01977,0.168356 -0.09232,0.344176 -0.245889,0.431379 -0.153528,0.07078 -0.328907,0.03686 -0.489879,0.01504 -0.116042,-0.0198 -0.249533,-0.03874 -0.31899,-0.14672 -0.08622,-0.121429 -0.13182,-0.268276 -0.157188,-0.413687 -0.01695,-0.162747 0.06549,-0.319272 0.166335,-0.441379 0.0851,-0.111222 0.208563,-0.185105 0.341995,-0.223436 0.0399,-0.01415 0.08111,-0.0244 0.123663,-0.02435 z" /><path
         style="fill:#000000;stroke-width:0.3"
         id="path85"
         d="m 23.574866,34.805553 c 0.132181,0.256991 0.183737,0.543936 0.255857,0.821178 0.04581,0.19543 0.09638,0.389823 0.122319,0.589223 0.04986,0.266327 0.05166,0.539943 0.117749,0.803609 0.05705,0.248473 0.141969,0.494254 0.280225,0.7098 0.09169,-0.0535 0.183373,-0.107004 0.27506,-0.160506 -0.166866,-0.261336 -0.247374,-0.568721 -0.289417,-0.873241 -0.02756,-0.203134 -0.03976,-0.408254 -0.08186,-0.609326 -0.03504,-0.249422 -0.106777,-0.491679 -0.162606,-0.736886 -0.06095,-0.233818 -0.117609,-0.471649 -0.232712,-0.686162 -0.09487,0.04744 -0.189747,0.09487 -0.28462,0.142311 z" /><path
         style="fill:#000000;stroke-width:0.3"
         id="path86"
         d="m 22.458729,34.787276 c 0.431928,0.387377 0.675512,0.927176 0.83948,1.472906 0.144882,0.437908 0.267332,0.904362 0.16087,1.365912 -0.206187,0.95413 -0.476734,1.906372 -0.480752,2.890413 -0.02141,0.641359 -0.01052,1.319957 0.277318,1.90788 0.07136,0.200041 0.215016,0.430234 0.374692,0.259725 0.206107,-0.108887 -0.21904,-0.464109 -0.19453,-0.652789 -0.218037,-0.768942 -0.15025,-1.582437 -0.0715,-2.366582 0.09901,-0.707973 0.298587,-1.3963 0.428158,-2.097969 0.113469,-0.682584 -0.16696,-1.34368 -0.393255,-1.972607 -0.164682,-0.394858 -0.411959,-0.756622 -0.728872,-1.04495 -0.07054,0.07935 -0.141073,0.158707 -0.21161,0.238061 z"
         sodipodi:nodetypes="sccccccccccss" /><path
         style="fill:#000000;stroke-width:0.3"
         id="path87"
         d="m 21.55706,34.912106 c 0.332503,0.346599 0.407541,0.84123 0.547638,1.28243 0.20817,0.707444 0.176629,1.4497 0.162959,2.178105 -0.01439,0.564883 -0.04882,1.130621 -0.02249,1.695277 -0.01513,0.499879 -0.0133,0.999618 -0.04041,1.498888 0.0376,0.526359 0.1726,1.076287 0.511097,1.493264 0.131073,0.203569 0.159179,-0.06444 0.215698,-0.164937 0.03939,-0.113163 -0.245264,-0.380124 -0.264802,-0.593163 -0.140463,-0.400232 -0.169203,-0.82763 -0.11827,-1.247103 -0.0011,-0.52031 0.02458,-1.0402 0.0072,-1.559987 0.01053,-0.894919 0.09177,-1.793077 2.19e-4,-2.686105 -0.09702,-0.600606 -0.254069,-1.197594 -0.500991,-1.754437 -0.09375,-0.110627 -0.226351,-0.495151 -0.369768,-0.270214 -0.04268,0.04266 -0.08536,0.08532 -0.128046,0.127982 z" /></g></g></svg>
