<?xml version="1.0" encoding="UTF-8" standalone="no"?>
<!-- Created with Inkscape (http://www.inkscape.org/) -->

<svg
   width="27.182964mm"
   height="27.53297mm"
   viewBox="0 0 27.182964 27.53297"
   version="1.1"
   id="svg1"
   xml:space="preserve"
   inkscape:version="1.4 (e7c3feb1, 2024-10-09)"
   sodipodi:docname="jukub.svg"
   inkscape:export-filename="jukub.pdf"
   inkscape:export-xdpi="472.34"
   inkscape:export-ydpi="472.34"
   xmlns:inkscape="http://www.inkscape.org/namespaces/inkscape"
   xmlns:sodipodi="http://sodipodi.sourceforge.net/DTD/sodipodi-0.dtd"
   xmlns="http://www.w3.org/2000/svg"
   xmlns:svg="http://www.w3.org/2000/svg"><sodipodi:namedview
     id="namedview1"
     pagecolor="#ffffff"
     bordercolor="#666666"
     borderopacity="1.0"
     inkscape:showpageshadow="2"
     inkscape:pageopacity="0.0"
     inkscape:pagecheckerboard="0"
     inkscape:deskcolor="#d1d1d1"
     inkscape:document-units="mm"
     inkscape:zoom="5.6568543"
     inkscape:cx="-32.703689"
     inkscape:cy="66.026096"
     inkscape:window-width="2560"
     inkscape:window-height="1296"
     inkscape:window-x="1440"
     inkscape:window-y="25"
     inkscape:window-maximized="0"
     inkscape:current-layer="layer1"
     showgrid="false" /><defs
     id="defs1" /><g
     inkscape:label="Layer 1"
     inkscape:groupmode="layer"
     id="layer1"
     transform="translate(-37.446453,-21.875169)"><ellipse
       style="fill:#000000;stroke-width:0.217307"
       id="path18-3-3"
       cx="55.81826"
       cy="32.456875"
       rx="0.52034366"
       ry="0.44229212" /><ellipse
       style="fill:#000000;stroke-width:0.217307"
       id="path18-3-80"
       cx="55.076542"
       cy="31.021067"
       rx="0.52034366"
       ry="0.44229212" /><ellipse
       style="fill:#000000;stroke-width:0.217307"
       id="path18-3-1"
       cx="55.289093"
       cy="29.546457"
       rx="0.52034366"
       ry="0.44229212" /><ellipse
       style="fill:#000000;stroke-width:0.217307"
       id="path18-3-8"
       cx="56.507938"
       cy="28.171507"
       rx="0.52034366"
       ry="0.44229212" /><ellipse
       style="fill:#000000;stroke-width:0.217307"
       id="path18-3"
       cx="58.138649"
       cy="27.637928"
       rx="0.52034366"
       ry="0.44229212" /><ellipse
       style="fill:#000000;stroke-width:0.3"
       id="path18-9"
       cx="51.502464"
       cy="44.016079"
       rx="0.70246398"
       ry="0.62441242" /><ellipse
       style="fill:#000000;stroke-width:0.3"
       id="path18-0"
       cx="58.117046"
       cy="44.545246"
       rx="0.70246398"
       ry="0.62441242" /><path
       id="path1"
       style="opacity:1;fill:#000000;stroke-width:0.3"
       d="m 56.527299,33.167485 c -1.158696,0.07364 -2.319363,0.07303 -3.47524,0.18135 -1.058132,0.103662 -1.483433,0.307201 -2.333706,0.456907 -1.418885,0.485961 -2.381769,1.774689 -2.843237,3.156914 -0.465999,1.248991 -0.892349,2.55651 -0.742957,3.909057 0.08765,1.532687 0.235877,3.098106 0.933125,4.494564 0.446167,1.248789 1.546279,2.153102 2.797933,2.524302 2.394915,0.856224 4.943579,1.156755 7.472977,1.24035 1.135715,-0.01213 2.203091,-0.543129 3.13518,-1.149752 1.009803,-0.815573 1.486213,-2.085821 1.922922,-3.265988 0.570245,-1.898172 0.496345,-3.900004 0.783175,-5.845174 0.09906,-1.603915 -1.009951,-2.94655 -2.093085,-3.997237 -1.548637,-1.2894 -3.577017,-1.769266 -5.557087,-1.705293 z m -0.01395,0.722436 c 1.5713,2.66e-4 3.199838,0.239301 4.526856,1.142052 0.958293,0.602021 1.678213,1.550503 2.179868,2.551362 0.470547,1.077011 0.01738,2.239025 -0.0059,3.356539 -0.09101,1.732533 -0.290626,3.515862 -1.130081,5.06714 -0.384321,0.926514 -1.145346,1.647304 -2.087461,1.988877 -0.787324,0.434128 -1.689671,0.496906 -2.567552,0.412028 -1.91929,-0.125754 -3.847556,-0.33635 -5.688392,-0.923637 -1.120131,-0.315824 -2.337585,-0.811309 -2.852588,-1.941362 -0.667785,-1.254209 -0.96433,-2.658597 -1.036732,-4.067922 -0.15613,-1.166206 -0.09666,-2.362281 0.319519,-3.47211 0.395179,-1.384003 1.020786,-2.911564 2.426602,-3.535214 0.661047,-0.258355 1.363354,-0.245463 2.028298,-0.399049 1.019513,-0.03302 2.032299,-0.135561 3.053593,-0.129164 0.278168,-0.01236 0.556337,-0.03823 0.83392,-0.04954 z"
       sodipodi:nodetypes="cccccccccccccscccccccccccccss" /><path
       id="path2"
       style="opacity:1;fill:#000000;stroke-width:0.3"
       d="m 55.021965,35.660872 c -0.444347,0.01374 -1.019301,-0.0018 -1.42387,0.07271 -0.696461,0.151028 -1.610495,0.145282 -2.199343,0.579547 -0.680407,0.39775 -1.038349,1.240915 -1.285352,1.967413 -0.473776,1.150009 -0.731656,2.442684 -0.74706,3.708731 -0.101845,0.960859 0.0136,2.020324 0.700346,2.758015 0.710193,0.852548 1.775259,1.311385 2.852301,1.477822 0.935558,0.177799 1.887639,0.26618 2.838361,0.310817 0.741349,0.07709 1.498126,0.150095 2.239061,0.05658 1.045578,-0.250216 1.933334,-1.040817 2.351386,-2.027144 0.35883,-0.846478 0.39524,-1.791803 0.40865,-2.699188 -0.03818,-0.952432 -0.04222,-1.970969 -0.268494,-2.892157 -0.220343,-0.72408 -0.637675,-1.465339 -1.171114,-1.999103 -0.584593,-0.62995 -1.571821,-0.910916 -2.424577,-1.055615 -0.615249,-0.144172 -1.235027,-0.25826 -1.870295,-0.258428 z m -1.369426,0.727605 c 0,-0.04598 0.691136,-0.157673 0.973292,-0.09951 0.922942,-4.5e-5 1.775414,0.260353 2.677447,0.491251 0.867332,0.329648 1.668993,0.744219 2.155644,1.509768 0.411568,0.789936 0.360084,2.001594 0.534901,2.863212 0.144298,0.958556 0.05599,1.946819 -0.162114,2.886675 -0.227266,0.740639 -0.74106,1.381335 -1.445063,1.717237 -0.678994,0.364729 -1.478643,0.171663 -2.210131,0.153067 -0.771376,-0.08913 -1.551993,-0.07756 -2.319216,-0.212613 -1.105844,-0.10832 -2.29899,-0.339031 -3.105878,-1.169233 -0.593165,-0.510777 -0.815043,-1.314794 -0.747631,-2.073635 0.02074,-0.78492 -0.01581,-1.60683 0.268566,-2.344918 0.116107,-0.930785 0.613594,-1.835142 0.944209,-2.613658 0.475552,-0.84931 2.435974,-1.10764 2.435974,-1.10764 z"
       sodipodi:nodetypes="cccccccccccccccsccccccccccccss" /><path
       id="path3"
       style="opacity:1;fill:#000000;stroke-width:0.3"
       d="m 53.395118,40.863645 c -0.284735,0.157188 -0.501021,0.423055 -0.59075,0.736482 -0.09462,0.307299 -0.151488,0.638815 -0.05915,0.95427 0.05312,0.32031 0.135263,0.641811 0.282493,0.932535 0.162781,0.302546 0.439423,0.522765 0.749867,0.660548 0.515542,0.266453 1.110648,0.286987 1.678447,0.308484 0.682487,-0.01094 1.359348,-0.301352 1.812699,-0.816087 0.288412,-0.315833 0.359368,-0.760517 0.410249,-1.169902 0.07108,-0.693815 -0.260295,-1.381156 -0.764836,-1.844664 -0.325356,-0.345034 -0.818562,-0.446341 -1.275152,-0.454185 -0.425595,-0.02347 -1.423645,0.215363 -2.243867,0.692519 z m 2.278503,-0.189512 c 0.31779,0.0071 0.635008,0.206405 0.851216,0.466145 0.387633,0.36653 0.664427,0.912862 0.563955,1.456207 -0.0191,0.318662 -0.121084,0.643744 -0.370195,0.858192 -0.418716,0.416277 -1.040495,0.549789 -1.612901,0.491486 -0.443897,-0.013 -0.902213,-0.07058 -1.286361,-0.310186 -0.312696,-0.16697 -0.463276,-0.511131 -0.532415,-0.842069 -0.05828,-0.271287 -0.158431,-0.554062 -0.07506,-0.831184 0.04537,-0.260408 0.154221,-0.536793 0.405359,-0.661156 0.18071,-0.121957 0.382377,-0.208887 0.577887,-0.304991 0.293175,-0.137512 1.318676,-0.370094 1.478515,-0.322444 z"
       sodipodi:nodetypes="cccccccccccccccccccccc" /><path
       style="opacity:1;fill:#000000;stroke-width:0.3"
       id="path4"
       d="m 59.195247,33.869598 c 0.973865,-0.867339 1.605825,-2.09267 1.695774,-3.397191 0.220609,-1.286859 -0.270463,-2.617077 -1.193443,-3.523547 -1.16542,-1.246882 -3.054718,-1.655513 -4.678467,-1.228461 -1.013451,0.230389 -2.042345,0.681951 -2.747467,1.466641 -0.415618,0.500959 -0.541145,1.325395 -1.240787,1.523068 -1.166595,-0.02993 -2.070244,-1.246337 -1.912531,-2.375095 0.301841,-0.923931 1.250689,-1.380785 2.008694,-1.879817 1.552886,-0.851193 3.34029,-1.081524 5.057476,-1.391017 1.864806,-0.267942 3.934919,-0.148009 5.479693,1.047466 0.974783,0.793118 2.084986,1.688138 2.257092,3.021644 0.22967,1.043778 0.02989,2.124555 -0.42919,3.077376 -0.533827,1.307938 -1.394828,2.444287 -2.233158,3.567479 -0.132693,0.346262 -1.003335,0.652664 -0.444987,0.942368 0.333183,0.51763 0.594694,-0.357799 0.912154,-0.540559 0.965782,-1.255718 1.911438,-2.561335 2.475513,-4.055872 0.580707,-1.30968 0.565295,-2.863223 -0.01622,-4.167924 -0.548264,-1.055841 -1.513994,-1.811518 -2.444189,-2.515242 -1.863657,-1.26897 -4.255253,-1.240049 -6.388448,-0.847808 -1.879118,0.345162 -3.842569,0.708884 -5.396059,1.905021 -0.807224,0.517787 -1.659557,1.390519 -1.429141,2.437494 0.114594,1.23502 1.2011,2.32068 2.449848,2.358677 0.826674,-0.06295 1.214008,-0.875105 1.561833,-1.513599 0.442347,-0.750476 1.319112,-1.098942 2.099085,-1.387721 0.953493,-0.276161 1.979578,-0.403627 2.937426,-0.07106 1.298469,0.380476 2.349987,1.520206 2.677862,2.824714 0.259424,1.525536 -0.183218,3.191276 -1.307342,4.286298 -0.221095,0.132977 0.182937,0.30378 0.248983,0.436669 z" /><path
       style="opacity:1;fill:#000000;stroke-width:0.3"
       id="path5"
       d="m 49.566451,28.142176 c -0.596066,0.481829 -0.897892,1.231628 -1.001283,1.973894 -0.07885,0.480336 -0.128168,0.980931 0.02303,1.453277 0.259182,0.843076 0.557219,1.699362 1.111293,2.399537 0.182972,0.235582 0.268474,0.405361 0.508649,0.584802 0.05877,0.132443 0.164791,-0.05347 0.213706,-0.141969 0.05667,-0.07232 0.223732,-0.0067 0.280407,-0.07897 0.100084,-0.06032 -0.215903,-0.199551 -0.25941,-0.310558 -0.383953,-0.429944 -0.70859,-0.915399 -0.927363,-1.450274 -0.21071,-0.536708 -0.454678,-1.075929 -0.510582,-1.655926 0.03216,-0.736831 0.114111,-1.532587 0.597715,-2.12581 0.04632,-0.136296 0.379294,-0.23304 0.205385,-0.366207 -0.08052,-0.09393 -0.161031,-0.187861 -0.241547,-0.281791 z"
       sodipodi:nodetypes="ccccccccccccc" /><path
       style="opacity:1;fill:#000000;stroke-width:0.3"
       id="path6"
       d="M 60.538928,30.800923 C 60.366999,30.713431 60.186756,30.643106 60.008191,30.570477 59.61621,30.42439 59.185317,30.35054 58.77039,30.428812 c -0.159894,0.04615 -0.32975,0.109704 -0.423893,0.256586 -0.162026,0.209939 -0.170085,0.510301 -0.04687,0.740604 0.06253,0.113026 0.142323,0.215622 0.238834,0.301655 0.111105,0.119109 0.247751,0.208772 0.393101,0.280572 0.185392,0.10197 0.383058,0.189001 0.594521,0.217068 0.08358,0.01361 0.08547,0.04764 0.229582,0.07685 0.163878,0.0045 0.194228,-0.08735 0.199508,-0.173328 0.101984,-0.02417 0.150629,-0.274388 0.09032,-0.323681 -0.07113,0.07968 -0.391817,-0.0089 -0.480856,-0.01203 -0.14639,-0.02523 -0.280881,-0.08919 -0.41357,-0.15269 -0.144172,-0.04067 -0.278201,-0.115631 -0.381623,-0.224818 -0.09816,-0.0952 -0.196708,-0.22823 -0.167561,-0.373141 0.022,-0.10518 0.119906,-0.186442 0.228174,-0.185473 0.163276,-0.01736 0.328955,-0.02975 0.490909,0.0062 0.26893,0.0443 0.526696,0.135305 0.778695,0.236615 0.082,0.0077 0.191968,0.113996 0.251,0.07793 0.06276,-0.125609 0.125516,-0.251217 0.188274,-0.376825 z"
       sodipodi:nodetypes="ccccccccccccccccccccc" /><path
       style="opacity:1;fill:#000000;stroke-width:0.3"
       id="path7"
       d="m 60.804408,29.949097 c -0.454941,-0.365903 -0.841855,-0.841084 -1.40528,-1.047503 -0.603742,-0.218193 -1.275583,-0.305557 -1.906268,-0.156289 -0.420985,0.126769 -0.791779,0.404672 -1.069534,0.742168 -0.286909,0.396324 -0.394472,0.896077 -0.420329,1.376855 0.02534,0.43612 0.207012,0.860518 0.516667,1.170949 0.301821,0.336832 0.639775,0.652983 1.052629,0.847604 0.248978,0.156609 0.547315,0.17828 0.819498,0.27312 0.248157,0.08134 0.520394,0.05001 0.766827,0.102471 0.135915,-0.01547 0.421905,-0.138343 0.379675,-0.236178 -0.08272,-0.09794 0.160343,-0.362678 -0.03887,-0.275381 -0.306686,0.0021 -0.997713,-0.07527 -1.285747,-0.175545 -0.314312,-0.04975 -0.58639,-0.235999 -0.843048,-0.411766 -0.272179,-0.238332 -0.555146,-0.487817 -0.728848,-0.810033 -0.117003,-0.25674 -0.146388,-0.544558 -0.0782,-0.818038 0.06743,-0.367291 0.215189,-0.745931 0.530443,-0.969642 0.22703,-0.192317 0.504688,-0.332794 0.80811,-0.332645 0.518881,-0.03227 1.059897,0.05096 1.519939,0.301488 0.39606,0.234391 0.688299,0.601365 1.074536,0.849436 l 0.307797,-0.431071 z"
       sodipodi:nodetypes="scccccccccccccccccccs" /><path
       style="opacity:1;fill:#000000;stroke-width:0.3"
       id="path8"
       d="m 48.920352,26.40741 c -1.325174,-0.776648 -3.03831,-1.32118 -4.502891,-0.588602 -1.843043,0.797903 -3.098952,2.701694 -3.220787,4.690976 -0.214574,1.650299 -0.429624,3.308122 -0.405831,4.976232 0.08998,1.132771 0.200162,2.264934 0.493606,3.36603 0.275042,1.586697 0.264858,3.238058 0.874025,4.752941 0.225998,0.766816 0.560322,1.511385 1.125676,2.088981 0.527275,0.938854 1.723308,1.173856 2.707771,0.982506 0.856563,-0.05007 1.711264,-0.459817 2.141578,-1.227937 0.319682,-0.173411 -0.166734,-0.774246 -0.259991,-0.511514 0.0097,0.297999 -0.858377,1.159757 -1.340487,1.180344 -0.89047,0.154576 -2.019976,0.33056 -2.67047,-0.46309 -0.492369,-0.576842 -0.955768,-1.185271 -1.156212,-1.932686 -0.511795,-1.253582 -0.674507,-2.600427 -0.79815,-3.937534 -0.14644,-1.165222 -0.51353,-2.292613 -0.572744,-3.470509 -0.25472,-1.691189 0.04078,-3.398224 0.241312,-5.07843 0.13855,-1.057648 0.252933,-2.161184 0.882677,-3.062579 0.680931,-1.124395 1.869173,-1.993312 3.182361,-2.174022 1.061652,-0.03069 2.081845,0.354158 3.004913,0.84648 0.09122,-0.145862 0.182429,-0.291725 0.273644,-0.437587 z"
       sodipodi:nodetypes="cccccccccccccccccccc" /><path
       style="opacity:1;fill:#000000;stroke-width:0.3"
       id="path9"
       d="m 50.869751,24.289122 c -0.452698,-0.615843 -0.907818,-1.283019 -1.619629,-1.622095 -0.852811,-0.452647 -1.801198,-0.75357 -2.769888,-0.791552 -0.685623,-0.0104 -1.377195,0.244694 -1.890246,0.699376 -0.451687,0.443129 -0.531814,1.109118 -0.572089,1.709287 0.01163,0.413894 0.03326,0.832852 0.1728,1.22682 0.09082,0.229738 0.169639,0.586466 0.33624,0.714731 0.130521,-0.0816 0.261042,-0.163191 0.391563,-0.244786 0.06701,0.02249 -0.131723,-0.278714 -0.145725,-0.387659 -0.154951,-0.348644 -0.214685,-0.728547 -0.216613,-1.108219 -0.023,-0.418302 0.03748,-0.85179 0.204169,-1.237478 0.193878,-0.394145 0.624334,-0.58905 1.020275,-0.722918 0.613719,-0.198655 1.270564,-0.057 1.877978,0.09425 0.638516,0.189028 1.275605,0.43689 1.809156,0.842901 0.377643,0.329004 0.685791,0.726594 0.994634,1.118255 0.135792,-0.09697 0.271583,-0.193943 0.407375,-0.290913 z" /><path
       style="opacity:1;fill:#000000;stroke-width:0.3"
       id="path10"
       d="m 44.551591,24.850589 c -0.178616,-0.428019 -0.113224,-0.423814 -0.310673,-0.843954 -0.29794,-0.550313 -0.59874,-1.140626 -1.145595,-1.485633 -0.510511,-0.372654 -1.160174,-0.459054 -1.775122,-0.479502 -0.496205,0.02212 -0.97988,0.216055 -1.385332,0.497302 -0.614624,0.465188 -1.095636,1.160606 -1.157704,1.944347 -0.04398,0.516071 0.06327,1.058215 0.395607,1.468 0.393452,0.537588 0.949,0.923108 1.406609,1.401362 0.435734,0.424949 0.971478,0.717839 1.503715,1.001832 0.09931,0.184885 0.140997,-0.09052 0.206447,-0.160222 0.04119,-0.09539 0.128744,-0.196438 0.142187,-0.288659 -0.28748,-0.07164 -0.532139,-0.285081 -0.801,-0.415247 -0.548823,-0.334256 -0.9698,-0.828545 -1.452417,-1.245391 -0.406936,-0.363659 -0.85039,-0.800055 -0.866963,-1.383251 -0.07507,-0.785476 0.428927,-1.519939 1.064317,-1.935475 0.402873,-0.220525 0.866759,-0.379395 1.329529,-0.277054 0.433009,0.04292 0.877415,0.146237 1.211571,0.442554 0.454065,0.369952 0.684523,0.925771 0.983326,1.413838 0.172447,0.32336 0.324042,0.658961 0.516243,0.971153 0.144476,-0.07225 -0.0092,-0.553752 0.135255,-0.626 z"
       sodipodi:nodetypes="cccccccccccccccccccc" /><path
       style="opacity:1;fill:#000000;stroke-width:0.3"
       id="path11"
       d="m 42.265816,27.783755 c -0.414065,-0.307022 -0.853918,-0.584184 -1.314174,-0.817218 -0.449137,-0.209965 -0.930265,-0.388456 -1.434114,-0.370147 -0.540688,-0.03444 -1.15074,0.149867 -1.431239,0.646821 -0.223324,0.35772 -0.367926,0.756379 -0.449781,1.16911 -0.137586,0.554065 -0.200574,1.12838 -0.188626,1.698624 0.04269,0.552706 0.273236,1.082252 0.644593,1.493493 0.294748,0.346508 0.641851,0.664246 1.051872,0.867504 0.538881,0.261166 1.151101,0.214199 1.732163,0.23088 0.153338,0.104777 0.0739,-0.134739 0.09582,-0.219252 0.0014,-0.09411 0.04665,-0.189675 0.04795,-0.283782 -0.257715,0.06832 -0.580133,-0.0026 -0.846405,-0.0012 -0.40553,-0.01739 -0.824477,-0.109562 -1.140742,-0.378844 -0.486921,-0.372581 -0.931416,-0.874044 -1.03253,-1.498865 -0.08707,-0.338193 -0.0092,-0.689582 0.01706,-1.031451 0.05758,-0.462787 0.157964,-0.922722 0.309508,-1.363446 0.142663,-0.294703 0.287553,-0.660137 0.644412,-0.741161 0.488444,-0.129368 1.015379,-0.06213 1.477132,0.135232 0.55622,0.199835 1.031437,0.560084 1.538121,0.854198 l 0.278942,-0.390461 z"
       sodipodi:nodetypes="ccccccccccccccccccccc" /><path
       style="opacity:1;fill:#000000;stroke-width:0.3"
       id="path12"
       d="m 39.897115,32.19812 c -0.473499,0.05167 -0.939617,0.04967 -1.302021,0.37301 -0.552172,0.456073 -0.70295,1.198576 -0.797772,1.872298 -0.07217,0.611115 -0.126182,1.228264 -0.10668,1.843673 0.02679,0.400597 0.195799,0.780556 0.467232,1.075147 0.31801,0.360282 0.780644,0.568736 1.241317,0.676631 0.34915,0.109076 0.721204,0.166362 1.086237,0.14475 0.275833,-0.01711 0.54635,-0.0711 0.817476,-0.113123 0.13246,-0.08689 -0.0011,-0.236758 -0.06509,-0.325807 -0.0962,-0.09765 0.0035,-0.261845 -0.183982,-0.135389 -0.244676,0.07302 -0.503914,0.08011 -0.756312,0.09589 -0.384164,-0.02325 -0.764638,-0.09605 -1.129081,-0.217775 -0.358892,-0.134292 -0.695333,-0.358775 -0.882075,-0.702855 -0.255981,-0.460243 -0.136507,-1.005433 -0.12955,-1.505281 0.05255,-0.651697 0.0822,-1.328317 0.354723,-1.932997 0.203628,-0.425074 0.624224,-0.722244 1.082768,-0.810941 0.124266,-0.07148 0.431642,0.02266 0.349066,-0.192404 -0.01055,-0.09505 -0.03571,-0.04978 -0.04626,-0.144827 z"
       sodipodi:nodetypes="cccccccccccccccccc" /><path
       style="opacity:1;fill:#000000;stroke-width:0.3"
       id="path13"
       d="m 39.458862,37.674399 c -0.531679,0.437696 -0.943813,0.736699 -1.237754,1.379873 -0.250346,0.478702 -0.417042,0.999844 -0.464493,1.539176 -0.100087,0.596605 -0.0064,1.232557 0.324297,1.746133 0.223762,0.410394 0.512642,0.797131 0.915739,1.045865 0.373906,0.271209 0.839286,0.37959 1.293564,0.414954 0.464427,0.04131 0.941455,0.07758 1.392682,-0.06661 0.160519,-0.05593 0.470152,-0.093 0.527998,-0.199118 -0.07734,-0.162457 -0.141587,-0.33276 -0.22731,-0.490201 -0.210286,0.201953 -0.368511,0.179084 -0.673038,0.257684 -0.391916,0.07291 -0.793213,0.0069 -1.186108,-0.0286 -0.403983,-0.04342 -0.803384,-0.193752 -1.106367,-0.469835 -0.321627,-0.256183 -0.516887,-0.634369 -0.70598,-0.991276 -0.203718,-0.414466 -0.209396,-0.888782 -0.134025,-1.335874 0.03997,-0.516142 0.250769,-0.999058 0.493348,-1.449167 0.286567,-0.486069 0.755709,-0.818474 1.171466,-1.185114 z"
       sodipodi:nodetypes="ccccccccccccccccc" /><path
       style="opacity:1;fill:#000000;stroke-width:0.3"
       id="path15"
       d="m 44.186096,45.992211 c -0.410334,0.385331 -0.797647,0.839996 -0.91438,1.406485 -0.107263,0.450449 -0.214653,0.985305 0.101428,1.378137 0.271568,0.347066 0.731205,0.423977 1.130991,0.537413 0.438029,0.09796 0.893286,0.114684 1.339442,0.07136 0.4635,-0.02238 0.916454,-0.131752 1.352919,-0.284936 0.535542,-0.155091 1.067621,-0.344515 1.531642,-0.660729 0.259113,-0.175231 0.531792,-0.360346 0.698087,-0.631653 0.183216,-0.116318 0.176616,-0.436219 0.29626,-0.594329 0.05988,-0.158411 -0.137176,0.03697 -0.216427,-0.06022 l -0.207126,-0.23748 c -0.282409,1.227053 -1.580806,1.529714 -2.233333,1.749177 -0.344016,0.115205 -0.691276,0.223886 -1.053963,0.261144 -0.495523,0.07347 -1.000699,0.05048 -1.494527,-0.02277 -0.313483,-0.09772 -0.709351,-0.128047 -0.898759,-0.43548 -0.168027,-0.346087 -0.03951,-0.739509 0.04248,-1.092605 0.126608,-0.453579 0.472628,-0.790645 0.782624,-1.126107 -0.08579,-0.0858 -0.171569,-0.171599 -0.257354,-0.257399 z"
       sodipodi:nodetypes="sccccccccccccccccss" /><path
       style="opacity:1;fill:#000000;stroke-width:0.3"
       id="path16"
       d="m 42.183835,43.429335 c -0.47601,0.119446 -0.937532,0.291194 -1.397118,0.462189 -0.479819,0.215819 -0.982544,0.458211 -1.287831,0.906935 -0.253204,0.365253 -0.32118,0.849249 -0.183884,1.271877 0.112212,0.410968 0.337644,0.780703 0.558168,1.141008 0.129663,0.21968 0.293918,0.428269 0.528408,0.541515 0.342077,0.188931 0.745627,0.175213 1.123866,0.21136 0.426565,0.01068 0.839554,-0.118477 1.247313,-0.226012 0.348975,-0.117895 0.727533,-0.246871 0.957865,-0.552191 0.09231,-0.173735 0.165293,-0.359613 0.288138,-0.514431 0.0049,0.139213 0.135717,-0.365586 -0.013,-0.362276 -0.110941,-0.05631 -0.169263,-0.100924 -0.280204,-0.157232 -0.13935,0.319058 -0.25624,0.750165 -0.632174,0.983442 -0.313317,0.171028 -0.668841,0.236137 -1.010468,0.327666 -0.391885,0.09632 -0.801625,0.08181 -1.199131,0.0297 -0.282179,-0.0395 -0.54331,-0.206322 -0.677494,-0.46094 -0.249043,-0.383551 -0.509782,-0.786219 -0.580024,-1.24718 -0.03345,-0.31601 0.05278,-0.66409 0.295608,-0.882361 0.287517,-0.319444 0.690688,-0.497448 1.074911,-0.67201 0.418116,-0.158472 0.836101,-0.319063 1.267609,-0.437858 -0.02685,-0.121066 -0.05371,-0.242131 -0.08056,-0.363197 z"
       sodipodi:nodetypes="scccccccccccccccccccss" /><path
       style="opacity:1;fill:#000000;stroke-width:0.3"
       id="path17"
       d="m 53.845111,25.23222 c 0.877504,-0.304828 1.792554,-0.545259 2.722922,-0.59207 1.020536,0.0034 2.003079,0.335081 2.95109,0.681304 0.81242,0.341655 1.489772,0.973433 1.855029,1.778517 0.462259,0.906058 0.72625,1.932858 0.655671,2.953009 -0.196725,0.941889 -0.709925,1.779884 -1.189845,2.600669 -0.2181,0.352558 -0.549485,0.88045 -0.715326,1.05133 -0.03041,0.03558 -0.363994,0.238265 -0.03635,0.425191 0.126982,0.306414 0.324017,0.04857 0.352011,0.0237 0.221317,-0.240837 0.518253,-0.680358 0.761219,-1.072557 0.559528,-0.931687 1.159873,-1.89235 1.349141,-2.980073 0.02879,-0.635809 -0.03157,-1.291369 -0.222074,-1.900804 -0.377055,-1.173686 -0.973456,-2.404032 -2.104911,-3.015083 -0.796362,-0.471741 -1.717009,-0.672361 -2.605436,-0.89438 -0.789827,-0.152792 -1.598994,-0.100973 -2.377371,0.08806 -0.957601,0.220035 -1.931023,0.484917 -2.774091,1.0051 -0.349892,0.243468 -2.234352,1.743024 -1.815311,2.062128 1.215561,-0.766898 1.363937,-1.334974 3.193632,-2.214041 z"
       sodipodi:nodetypes="cccccccccccccccccc" /><ellipse
       style="opacity:1;fill:#000000;stroke-width:0.3"
       id="path18"
       cx="58.460613"
       cy="39.858326"
       rx="0.70246398"
       ry="0.62441242" /><ellipse
       style="fill:#000000;stroke-width:0.3"
       id="path18-7"
       cx="52.087864"
       cy="39.347122"
       rx="0.70246398"
       ry="0.62441242" /><path
       style="opacity:1;fill:#000000;stroke-width:0.3"
       id="path19"
       d="m 46.338807,25.839972 c -0.344084,0.23056 -0.611708,0.556682 -0.874413,0.872748 -0.477263,0.644828 -0.750702,1.429119 -0.837224,2.223152 -0.04968,0.597423 0.09291,1.222786 0.481017,1.691219 0.298317,0.383737 0.731572,0.652019 1.183437,0.817217 0.557307,0.195634 1.192748,0.268215 1.747873,0.02601 0.239224,-0.09074 0.45758,-0.225394 0.6848,-0.340937 0.247159,0.07997 0.173045,-0.231429 0.02357,-0.303819 -0.08734,-0.07278 -0.270734,-0.245135 -0.167718,-0.277468 -0.181994,0.150295 -0.416624,0.239476 -0.625907,0.354153 -0.317727,0.159045 -0.681525,0.212861 -1.030592,0.141469 -0.602311,-0.100721 -1.211638,-0.384619 -1.548869,-0.915187 -0.345224,-0.505155 -0.304733,-1.165505 -0.159445,-1.733185 0.121451,-0.52912 0.348021,-1.036424 0.66336,-1.478296 0.206601,-0.25628 0.587533,-0.676008 0.854964,-0.871088 l -0.394852,-0.205985 z"
       sodipodi:nodetypes="scccccccccccccccs" /><path
       style="opacity:1;fill:#000000;stroke-width:0.3"
       id="path20"
       d="m 48.182387,26.357302 c -0.31488,0.169932 -0.603948,0.400522 -0.79504,0.706909 -0.262598,0.39197 -0.452972,0.848244 -0.46749,1.324429 0.01192,0.327822 0.143065,0.687331 0.440122,0.858322 0.213317,0.109886 0.46055,0.177406 0.699306,0.116822 0.377357,-0.0648 0.717921,-0.254868 1.028871,-0.470609 0.132446,-0.08504 0.253339,-0.186144 0.370743,-0.290334 0.0977,-0.02303 -0.02027,-0.17461 -0.09294,-0.201639 -0.07657,-0.04976 -0.154341,-0.09782 -0.229046,-0.150296 -0.01364,-0.176634 -0.07624,0.0431 -0.159825,0.06696 -0.214552,0.166228 -0.444178,0.315757 -0.688874,0.434044 -0.160259,0.07128 -0.332496,0.131823 -0.510092,0.124675 -0.134355,-0.02678 -0.292508,-0.07292 -0.339018,-0.219095 -0.09389,-0.179122 -0.07826,-0.387277 -0.03149,-0.577107 0.06547,-0.341511 0.240845,-0.652509 0.445049,-0.929707 0.140246,-0.174471 0.433012,-0.384904 0.62126,-0.502447 l -0.291535,-0.290926 z"
       sodipodi:nodetypes="sccccccccccccccccs" /><path
       style="opacity:1;fill:#000000;stroke-width:0.3"
       id="path21"
       d="m 46.13879,31.171366 c -0.506714,0.471279 -0.798645,1.139533 -0.877303,1.821319 -0.06955,0.471888 -0.0582,0.969861 0.103169,1.422288 0.217958,0.530843 0.623594,0.949449 1.019626,1.352256 0.409765,0.39952 0.878001,0.762529 1.420357,0.95917 0.0945,0.0076 0.401293,0.13722 0.156136,0.0922 0.06268,-0.01094 0.101657,-0.125444 0.154195,-0.178348 0.09003,-0.124188 0.180061,-0.248377 0.270092,-0.372565 -0.177605,-0.125415 -0.485082,-0.02881 -0.679504,-0.21072 -0.657335,-0.350548 -1.181777,-0.900927 -1.639186,-1.479134 -0.188313,-0.255962 -0.301119,-0.561627 -0.311117,-0.880205 -0.04169,-0.515517 0.03283,-1.047739 0.236678,-1.524783 0.118237,-0.249404 0.272385,-0.484491 0.472078,-0.676357 -0.108407,-0.108373 -0.216814,-0.216746 -0.325221,-0.325119 z" /><path
       style="opacity:1;fill:#000000;stroke-width:0.3"
       id="path23"
       d="m 47.408647,45.755901 c -0.236745,-0.100732 -0.419207,-0.290063 -0.582692,-0.482816 -0.234662,-0.300544 -0.426025,-0.642906 -0.520187,-1.014208 -0.03945,-0.184 -0.06655,-0.372393 -0.07206,-0.560346 -0.0037,-0.120188 0.12606,-0.136442 0.233822,-0.171496 0.149614,-0.03044 0.301154,-0.02055 0.451428,-0.0023 0.100443,0.01241 0.211398,0.127325 0.290957,0.210965 0.08658,0.09978 0.182899,0.190725 0.250007,0.30599 0.08187,0.112614 0.225651,0.190927 0.238386,0.343545 -0.01863,0.122841 0.103022,0.03297 0.162267,0.01288 0.08895,-0.04143 0.184158,-0.07264 0.266929,-0.124644 -0.05182,-0.116641 -0.178298,-0.192912 -0.241273,-0.314813 -0.07917,-0.148081 -0.187573,-0.278044 -0.268952,-0.424735 -0.101168,-0.132678 -0.230215,-0.241429 -0.341296,-0.364477 -0.12232,-0.08803 -0.265372,-0.148302 -0.417939,-0.149156 -0.205985,-0.03809 -0.42057,-0.0077 -0.62046,0.04809 -0.214643,0.06585 -0.421685,0.213364 -0.484569,0.439096 -0.07718,0.254821 -0.0164,0.523227 0.02299,0.779069 0.127296,0.620698 0.480289,1.197809 0.98773,1.579834 0.154375,0.111017 0.318233,0.21718 0.505628,0.261433 0.04643,-0.123961 0.09286,-0.247923 0.139288,-0.371884 z" /><path
       style="opacity:1;fill:#000000;stroke-width:0.3"
       id="path24"
       d="m 45.939122,34.869916 c -0.449908,0.109298 -0.729168,0.527384 -0.939435,0.908974 -0.298144,0.591931 -0.326521,1.277658 -0.275548,1.926467 0.09562,0.686062 0.384452,1.335833 0.774335,1.904212 0.252652,0.318653 0.524566,0.656946 0.906417,0.823691 0.02111,0.0082 0.642096,0.19665 0.610988,0.183308 0.125395,0.08978 0.26907,0.104976 0.2566,-0.07638 0.03166,-0.163551 0.07118,-0.325984 0.09798,-0.490227 -0.02403,-0.04314 -0.168098,-0.02466 -0.494554,-0.02599 -0.36912,-0.01693 -0.62715,-0.320703 -0.85,-0.58092 -0.532281,-0.680225 -0.885681,-1.535324 -0.849689,-2.409716 -0.0033,-0.489951 0.121631,-0.989765 0.422443,-1.383709 0.06742,-0.201856 0.363402,-0.279154 0.420124,-0.42095 -0.02656,-0.119586 -0.05311,-0.239173 -0.07967,-0.358759 z"
       sodipodi:nodetypes="cccccccccccccsc" /><path
       style="opacity:1;fill:#000000;stroke-width:0.3"
       id="path25"
       d="m 44.002555,26.073607 c -0.198638,-0.28571 -0.490161,-0.488918 -0.783429,-0.667706 -0.229221,-0.136032 -0.512432,-0.200758 -0.77177,-0.117535 -0.21857,0.06467 -0.395316,0.237565 -0.492624,0.440744 -0.149462,0.279267 -0.163224,0.634872 -0.0084,0.915077 0.09431,0.183645 0.237104,0.340243 0.393898,0.472831 0.110148,0.09086 0.224911,0.175779 0.347166,0.249202 0.06927,0.0232 0.04825,0.124684 0.09686,0.04957 0.10692,-0.09803 0.21384,-0.196057 0.32076,-0.294086 -0.106437,-0.06725 -0.215568,-0.14416 -0.309131,-0.236552 -0.132273,-0.101333 -0.260969,-0.208807 -0.362716,-0.341863 -0.09485,-0.116311 -0.156149,-0.268476 -0.12845,-0.419901 -0.01042,-0.116644 0.06644,-0.211074 0.151925,-0.279243 0.09662,-0.105802 0.260017,-0.11912 0.385521,-0.06059 0.280401,0.131699 0.531494,0.324055 0.741626,0.550945 0.03374,0.04499 0.07316,-0.02583 0.109741,-0.04021 0.103009,-0.07356 0.206019,-0.147123 0.309028,-0.220685 z" /><path
       style="opacity:1;fill:#000000;stroke-width:0.3"
       id="path26"
       d="m 46.547872,25.543382 c -0.02346,-0.12894 -0.196078,-0.259045 -0.210251,-0.396346 -0.03082,-0.114013 0.03497,-0.224282 0.09223,-0.318257 0.07904,-0.119892 0.212656,-0.185166 0.334809,-0.252188 0.09833,-0.05892 0.219174,-0.05186 0.326548,-0.02666 0.137719,0.06929 0.210255,0.225245 0.237032,0.370782 0.02421,0.185213 -0.0039,0.374407 -0.05397,0.553051 -0.04345,0.108689 -0.09987,0.215866 -0.174074,0.305895 -0.07096,0.02025 0.02525,0.0461 0.05282,0.0551 0.03312,0.0092 0.06505,0.02015 0.08129,0.05303 0.03109,0.03956 0.06217,0.07911 0.09326,0.118665 0.06157,0.0052 0.174256,0.09464 0.161704,-0.01825 0.108507,-0.168 0.207288,-0.347844 0.236988,-0.548556 0.04822,-0.235568 0.05581,-0.484626 -0.01202,-0.71711 -0.08236,-0.239713 -0.243759,-0.476886 -0.491865,-0.564496 -0.276275,-0.08187 -0.586219,-0.03381 -0.827483,0.122927 -0.162169,0.09386 -0.301297,0.226759 -0.392546,0.391336 -0.105953,0.180552 -0.151175,0.398893 -0.113007,0.605604 0.04203,0.19591 0.154896,0.368917 0.286324,0.516802 l 0.380486,-0.205855 z"
       sodipodi:nodetypes="scccccccccccccccccccs" /><path
       style="opacity:1;fill:#000000;stroke-width:0.3"
       id="path27"
       d="m 41.684688,29.119647 c -0.209525,-0.196445 -0.458875,-0.361055 -0.745288,-0.415046 -0.355375,-0.08143 -0.73495,0.02754 -1.030369,0.230797 -0.23499,0.17061 -0.405967,0.439868 -0.434083,0.731135 -0.02132,0.282517 0.05831,0.571711 0.228824,0.799075 0.209491,0.297679 0.504877,0.533334 0.840643,0.672857 0.157152,0.05969 0.316415,0.124412 0.487228,0.127619 0.07278,-0.01882 0.239636,0.06812 0.230382,-0.05147 0.0057,-0.1197 0.01583,-0.239298 0.01855,-0.359071 -0.108812,-0.02264 -0.234174,-0.02913 -0.345982,-0.06617 -0.10178,-0.03282 -0.203053,-0.06983 -0.300526,-0.113391 -0.260728,-0.130377 -0.483983,-0.335419 -0.632872,-0.586294 -0.08078,-0.147087 -0.114763,-0.323893 -0.08352,-0.489169 0.08133,-0.212664 0.270807,-0.374303 0.49113,-0.429039 0.218456,-0.08915 0.465663,-0.04875 0.670861,0.05587 0.131216,0.05955 0.246497,0.147377 0.364925,0.228122 0.08003,-0.111943 0.160067,-0.223886 0.2401,-0.335829 z" /><path
       style="opacity:1;fill:#000000;stroke-width:0.3"
       id="path28"
       d="m 41.041261,33.870159 c -0.317794,-0.01304 -0.636347,0.122098 -0.853588,0.353454 -0.178344,0.180164 -0.339521,0.384999 -0.43829,0.620146 -0.105522,0.282211 -0.208563,0.582711 -0.158472,0.888214 0.04077,0.232314 0.141732,0.461303 0.315295,0.625145 0.179867,0.190193 0.45522,0.21409 0.701107,0.231792 0.147945,0.0083 0.299756,0.01948 0.443908,-0.02223 0.07946,0.0015 -5.5e-5,-0.103969 0.0015,-0.152931 -0.02512,-0.09761 -0.0483,-0.196548 -0.07409,-0.293239 -0.09656,0.03901 -0.203354,0.0045 -0.318924,0.0047 -0.135123,-0.01447 -0.283906,-0.005 -0.404922,-0.07456 -0.117047,-0.0957 -0.166486,-0.247322 -0.194275,-0.390706 -0.03412,-0.221161 0.06217,-0.4323 0.128792,-0.637882 0.101273,-0.256159 0.283991,-0.479326 0.507647,-0.63876 0.103781,-0.0593 0.22603,-0.08239 0.344322,-0.08843 -4e-6,-0.141565 -7e-6,-0.283131 -1.1e-5,-0.424696 z" /><path
       style="opacity:1;fill:#000000;stroke-width:0.3"
       id="path29"
       d="m 41.316661,38.955241 c -0.314526,0.156789 -0.63782,0.32316 -0.875786,0.588454 -0.212896,0.256592 -0.350415,0.572841 -0.390028,0.904177 -0.03997,0.246577 -0.05636,0.510441 0.05515,0.742093 0.08397,0.174393 0.197972,0.344712 0.361566,0.453203 0.222428,0.134587 0.490489,0.189249 0.747602,0.148482 0.26429,-0.01825 0.519178,-0.122896 0.724363,-0.289882 0.09294,-0.07636 -0.0643,-0.185262 -0.12075,-0.242149 -0.05633,-0.03413 -0.104084,-0.132922 -0.138982,-0.150875 -0.162053,0.132299 -0.363985,0.213612 -0.573952,0.219279 -0.142629,0.01782 -0.290112,-0.0196 -0.413971,-0.08973 -0.136681,-0.142312 -0.230732,-0.339465 -0.198829,-0.540424 0.02043,-0.276069 0.06466,-0.564131 0.233729,-0.792522 0.08992,-0.128358 0.212227,-0.231176 0.330076,-0.333032 0.138662,-0.09853 0.290693,-0.175739 0.440571,-0.25535 -0.06025,-0.120575 -0.120506,-0.241151 -0.180759,-0.361726 z" /><path
       style="opacity:1;fill:#000000;stroke-width:0.3"
       id="path30"
       d="m 42.889421,44.681505 c -0.263206,0.03533 -0.523499,0.129605 -0.725657,0.305999 -0.152369,0.131115 -0.280221,0.295524 -0.341815,0.488915 -0.05988,0.141546 -0.04996,0.30867 0.03073,0.440256 0.0602,0.117234 0.162133,0.210265 0.285835,0.25616 0.149161,0.0876 0.32527,0.132532 0.498233,0.115679 0.174826,-0.0022 0.343885,-0.05918 0.503646,-0.12559 0.116276,-0.0518 0.226146,-0.117042 0.333167,-0.185386 0.03912,-0.03358 0.01937,-0.02028 0.07331,-0.03963 0.04074,-0.03425 0.04115,-0.08491 -0.0051,-0.111779 -0.08193,-0.08255 -0.163863,-0.165096 -0.245794,-0.247644 0.04761,-0.104225 -0.06204,0.0138 -0.09753,0.03328 -0.03062,0.02529 0.04012,-0.02456 -0.0067,0.0061 -0.139766,0.07572 -0.280305,0.152693 -0.434821,0.194413 -0.07766,0.02117 -0.161051,0.03108 -0.24147,0.02739 -0.08696,-0.0086 -0.163328,-0.053 -0.245188,-0.07647 -0.05092,-0.05929 -0.06478,-0.08251 -0.02953,-0.147503 0.03578,-0.106729 0.103007,-0.201471 0.197241,-0.2644 0.134026,-0.113566 0.300525,-0.180725 0.472551,-0.210227 0.05107,-9.1e-5 0.01612,-0.05814 0.01991,-0.08995 -0.0137,-0.123208 -0.02739,-0.246415 -0.04109,-0.369623 z" /><path
       style="opacity:1;fill:#000000;stroke-width:0.3"
       id="path31"
       d="m 45.660614,46.307991 c -0.235879,0.237114 -0.455712,0.563039 -0.422445,0.912843 0.02791,0.30922 0.327657,0.500365 0.61367,0.533206 0.344224,0.05146 0.688399,-0.065 1.013912,-0.16503 0.289735,-0.09257 0.510451,-0.369423 0.554662,-0.666609 -0.0097,-0.300682 -0.240163,-0.587455 -0.478104,-0.721486 -0.138866,-0.171663 -0.217527,0.0051 -0.263721,0.132341 -0.0449,0.107125 -0.162916,0.256876 0.01858,0.298979 0.130807,0.08313 0.320071,0.251862 0.224991,0.367978 -0.127659,0.287793 -0.516,0.284996 -0.781249,0.356885 -0.220498,0.06756 -0.694755,-0.06627 -0.477827,-0.363395 0.03648,-0.16755 0.33323,-0.310293 0.157692,-0.461479 -0.05339,-0.07474 -0.106772,-0.149489 -0.160158,-0.224233 z" /><path
       style="opacity:1;fill:#000000;stroke-width:0.3"
       id="path32"
       d="m 46.348768,39.793457 c -0.584982,-0.06322 -1.143782,0.217907 -1.583295,0.580691 -0.387875,0.346756 -0.75586,0.760311 -0.865717,1.284725 -0.146563,0.608842 -0.162017,1.249642 -0.01543,1.860214 0.168642,0.83294 0.532825,1.61745 0.981145,2.335334 0.149331,0.207287 0.290543,0.420331 0.424364,0.594269 -0.08611,-0.101993 0.068,0.109815 -0.02707,-0.03774 0.01651,0.07699 0.1413,0.185668 0.06288,0.104305 0.09906,0.06606 0.280659,-0.10755 0.408062,-0.13053 0.194569,0.0071 -0.108427,-0.309714 0.01423,-0.131368 -0.0011,-0.0566 -0.189348,-0.277871 -0.07872,-0.129342 -0.226827,-0.358022 -0.50227,-0.689158 -0.683682,-1.078131 -0.325284,-0.607143 -0.604116,-1.247601 -0.720715,-1.930379 -0.09278,-0.512027 -0.03483,-1.048904 0.119652,-1.543167 0.153775,-0.397369 0.477109,-0.702699 0.801704,-0.965063 0.326687,-0.229561 0.714067,-0.40666 1.122364,-0.368964 0.08406,-0.02195 0.02034,-0.181758 0.0402,-0.26359 1.1e-5,-0.06042 2.1e-5,-0.120842 3.2e-5,-0.181263 z" /></g></svg>
