<?xml version="1.0" encoding="UTF-8" standalone="no"?>
<!-- Created with Inkscape (http://www.inkscape.org/) -->

<svg
   width="15.754744mm"
   height="16.275454mm"
   viewBox="0 0 15.754744 16.275454"
   version="1.1"
   id="svg9701"
   inkscape:version="1.2.2 (b0a84865, 2022-12-01)"
   sodipodi:docname="pa-ka-la.svg"
   xmlns:inkscape="http://www.inkscape.org/namespaces/inkscape"
   xmlns:sodipodi="http://sodipodi.sourceforge.net/DTD/sodipodi-0.dtd"
   xmlns="http://www.w3.org/2000/svg"
   xmlns:svg="http://www.w3.org/2000/svg">
  <sodipodi:namedview
     id="namedview9703"
     pagecolor="#ffffff"
     bordercolor="#666666"
     borderopacity="1.0"
     inkscape:showpageshadow="2"
     inkscape:pageopacity="0.0"
     inkscape:pagecheckerboard="0"
     inkscape:deskcolor="#d1d1d1"
     inkscape:document-units="mm"
     showgrid="false"
     inkscape:zoom="11.313709"
     inkscape:cx="16.130873"
     inkscape:cy="35.001786"
     inkscape:window-width="2560"
     inkscape:window-height="1298"
     inkscape:window-x="0"
     inkscape:window-y="25"
     inkscape:window-maximized="1"
     inkscape:current-layer="layer1" />
  <defs
     id="defs9698" />
  <g
     inkscape:label="Layer 1"
     inkscape:groupmode="layer"
     id="layer1"
     transform="translate(-76.184137,-4.0064738)">
    <path
       id="path10259"
       style="fill:#000000;stroke-width:1.3"
       d="m 79.072176,15.017171 c -0.605089,-0.0064 -1.191129,0.233996 -1.694096,0.555039 -0.650894,0.402723 -1.141309,1.101513 -1.186866,1.87842 -0.06198,0.766053 0.286959,1.541671 0.896377,2.009146 0.782588,0.624492 1.831458,0.937439 2.825915,0.783252 0.959194,-0.17549 1.915187,-0.747918 2.311414,-1.67112 0.202822,-0.446127 0.268503,-0.965917 0.0944,-1.432546 -0.208486,-0.681492 -0.775531,-1.185498 -1.365092,-1.545983 -0.63574,-0.3485 -1.268535,-0.569936 -1.882055,-0.576208 z m 2.457731,1.88151 c 0.283213,0.385923 0.378266,0.913054 0.182537,1.359216 -0.259849,0.716787 -0.971034,1.167984 -1.677305,1.364171 -0.837744,0.219149 -1.753365,-0.02052 -2.453228,-0.507685 -0.449858,-0.305418 -0.784829,-0.795509 -0.81956,-1.347462 -0.03636,-0.430828 0.07151,-0.883078 0.367143,-1.2092 0.362689,-0.454992 0.911848,-0.720558 1.455101,-0.895832 0.108971,-0.02979 0.221034,-0.05032 0.334102,-0.05406 0.83912,0.08628 2.006193,0.526735 2.61121,1.290852 z"
       sodipodi:nodetypes="sccccccccsccccccccc" />
    <path
       id="path10263"
       style="fill:#000000;stroke-width:1.3"
       d="m 88.625598,15.138611 c -0.263903,-0.0118 -0.516807,0.08222 -0.766362,0.1158 -0.834858,0.0779 -1.62757,0.617334 -1.979482,1.382567 -0.310359,0.683752 -0.265858,1.495759 0.06693,2.162437 0.40771,0.892333 1.372584,1.456459 2.341924,1.464467 0.963393,0.0072 1.898474,-0.477301 2.512903,-1.208667 0.43836,-0.537144 0.658207,-1.242678 0.638876,-1.932547 -0.07889,-0.804558 -0.748455,-1.425507 -1.46942,-1.702976 -0.432099,-0.148562 -0.884387,-0.284307 -1.345373,-0.281081 z m 5.16e-4,0.630453 c 0.468653,0.01525 0.936223,0.140103 1.358764,0.342081 0.461486,0.242389 0.910041,0.7066 0.845661,1.267108 -0.03105,0.646045 -0.343107,1.270853 -0.856042,1.668621 -0.483402,0.398037 -1.105882,0.662617 -1.738901,0.642023 -0.804961,-0.03291 -1.630313,-0.531468 -1.864832,-1.331898 -0.183808,-0.557189 -0.134035,-1.210158 0.181989,-1.711469 0.590309,-0.776034 1.350166,-0.739464 2.073361,-0.876466 z"
       sodipodi:nodetypes="scccccccsscccccccc" />
    <path
       id="path10267"
       style="fill:#000000;stroke-width:1.3"
       d="m 83.349951,15.006319 c -0.370557,0.0026 -0.73094,0.141335 -1.032159,0.351898 -0.169145,0.121063 -0.315706,0.285525 -0.368333,0.491222 -0.06735,0.230951 -0.04368,0.479624 0.0092,0.711049 0.07618,0.323001 0.269002,0.645625 0.588868,0.773645 0.233021,0.107779 0.499892,0.06102 0.73322,-0.01966 0.285143,-0.103353 0.546541,-0.294849 0.695786,-0.562852 0.132886,-0.232945 0.155227,-0.515858 0.118746,-0.777435 -0.05244,-0.231304 -0.119643,-0.469984 -0.273324,-0.656305 -0.123289,-0.107005 -0.270175,-0.18202 -0.400178,-0.280031 -0.01903,-0.01356 -0.07231,-0.01277 -0.07183,-0.03153 z m -0.185002,0.502295 c 0.09719,0.0714 0.180571,0.158434 0.242537,0.262806 0.06109,0.106101 0.107468,0.224307 0.129124,0.344529 0.01856,0.165023 0.01,0.346869 -0.100895,0.48065 -0.13308,0.197108 -0.375714,0.283484 -0.603955,0.305434 -0.18702,0.01131 -0.313866,-0.160429 -0.373508,-0.318138 -0.06875,-0.186805 -0.09892,-0.394061 -0.05995,-0.590618 0.0641,-0.189765 0.260057,-0.285458 0.426236,-0.37102 0.108315,-0.05161 0.222405,-0.09194 0.340411,-0.113643 z" />
    <path
       id="path10269"
       style="fill:#000000;stroke-width:1.3"
       d="m 84.737853,15.369949 c -0.229261,0.09804 -0.468374,0.200832 -0.634807,0.394259 -0.128736,0.141351 -0.205811,0.325519 -0.246658,0.510393 -0.04986,0.267986 0.01736,0.569168 0.226339,0.755171 0.207381,0.204559 0.507443,0.267663 0.789551,0.266347 0.430639,0.0104 0.859732,-0.16784 1.168379,-0.466062 0.131018,-0.133256 0.224433,-0.310177 0.222979,-0.500377 0.01355,-0.210846 -0.0539,-0.423362 -0.166417,-0.600039 -0.189863,-0.258838 -0.451868,-0.355108 -0.713681,-0.486967 -0.232776,-0.06617 -0.457119,0.04587 -0.645685,0.127275 z m 0.30295,0.41255 c 0.28975,-0.120674 0.450729,0.208627 0.56512,0.320401 0.05279,0.102181 0.155378,0.250549 0.04059,0.347471 -0.220524,0.224129 -0.539315,0.328269 -0.848238,0.339606 -0.159083,0.004 -0.348924,-0.01739 -0.44425,-0.162049 -0.09398,-0.181643 -0.0097,-0.403502 0.119154,-0.545308 0.139198,-0.119654 0.315118,-0.185541 0.477813,-0.266449 0.02979,-0.01135 0.05797,-0.02873 0.08981,-0.03367 z"
       sodipodi:nodetypes="cccccccccccccccccsc" />
    <path
       id="path10271"
       style="fill:#000000;stroke-width:1.3"
       d="m 84.506986,16.850135 c -0.121889,-9.66e-4 -0.162972,0.171466 -0.244973,0.19733 -0.102222,-0.03856 -0.200582,-0.08933 -0.306007,-0.117823 -0.154093,-0.01078 -0.28335,0.09014 -0.424693,0.134632 -0.333216,0.154723 -0.605652,0.447065 -0.722608,0.796659 -0.112404,0.351668 -0.07455,0.763266 0.145968,1.06559 0.223818,0.286501 0.609242,0.420315 0.964263,0.361165 0.260168,-0.02484 0.490162,-0.162168 0.702468,-0.304732 0.252905,-0.186788 0.443065,-0.458134 0.517225,-0.765018 0.07232,-0.308496 0.02561,-0.651367 -0.148216,-0.918237 -0.110186,-0.143256 -0.228033,-0.283275 -0.36395,-0.402593 -0.03465,-0.02543 -0.07518,-0.04802 -0.119477,-0.04697 z m -0.15697,0.755553 c 0.128441,0.04796 0.15358,0.205793 0.167882,0.326542 0.01871,0.162536 -0.02689,0.332256 -0.139992,0.453289 -0.159755,0.193664 -0.388976,0.344623 -0.642052,0.371587 -0.146346,0.0068 -0.299133,-0.04167 -0.397792,-0.153077 -0.120647,-0.200859 -0.110403,-0.46498 -0.0042,-0.669727 0.114368,-0.212964 0.31856,-0.370142 0.550094,-0.436095 0.155876,-0.04883 0.310319,0.01661 0.46606,0.107481 z"
       sodipodi:nodetypes="sccccccccccsscccccccc" />
    <path
       id="path10283"
       style="fill:#000000;stroke-width:1.3"
       d="m 84.01296,4.0064738 c -0.662283,0.012496 -1.311508,0.1469738 -1.975072,0.1046454 -1.27998,-0.0014 -2.649,0.40232 -3.487095,1.4235411 -1.510643,1.7371317 -2.16399,4.1019628 -2.044096,6.3765167 0.02585,0.98678 0.158457,2.14974 1.04284,2.7584 1.229101,0.84235 2.77585,1.031954 4.231766,1.031884 1.28834,-0.06336 2.639287,-0.07968 3.827189,-0.642263 1.108622,-0.633646 1.665903,-1.899086 1.876094,-3.110056 0.30385,-1.16155 0.384993,-2.3660127 0.307201,-3.5614412 C 87.748148,7.1327952 87.556813,5.7774005 86.708919,4.7935059 86.054143,4.1008142 85.025239,4.0622569 84.135476,4.0075287 Z m -0.0052,0.5741252 c 0.681386,0.02763 1.4198,0.04926 2.021065,0.40566 0.746194,0.5766153 0.972362,1.5717317 1.103557,2.4602964 0.08259,0.9450756 0.125269,1.9041506 0.01703,2.8485856 -0.15029,0.94167 -0.303414,1.898977 -0.653441,2.789848 -0.350335,0.79593 -0.995045,1.527412 -1.891219,1.683251 -1.191033,0.292654 -2.432934,0.339392 -3.65439,0.303743 -1.125346,-0.07692 -2.313473,-0.290618 -3.213713,-1.014461 -0.632364,-0.631613 -0.597297,-1.600341 -0.650028,-2.429593 -0.04213,-2.0240653 0.561722,-4.1274097 1.923041,-5.6585949 0.672965,-0.7892913 1.720266,-1.1391379 2.733577,-1.170839 0.687509,-0.073655 1.37815,-0.1186624 2.061556,-0.2140189 l 0.101468,-0.00359 0.10149,-2.769e-4 z"
       sodipodi:nodetypes="cccccccccccccccccccccccccccccccccccccccccccccccccccccccccccccccccccccccccccccccccccccccccccccccccccccccccccccccccccc" />
    <path
       style="fill:#000000;stroke-width:1.3"
       id="path10285"
       d="m 86.988085,5.3925035 c 0.457974,-0.4777541 1.150526,-0.5815061 1.766895,-0.7227355 0.544842,-0.1307719 1.136088,0.083623 1.459337,0.5440918 0.935455,1.2113308 1.224679,2.795407 1.183148,4.2956023 -0.03685,1.2852609 -0.05298,2.6002529 -0.455717,3.8336059 -0.362857,0.807778 -1.196545,1.242942 -1.949032,1.625497 -0.593238,0.249905 -1.301072,0.241874 -1.891152,-0.012 -0.412755,-0.07498 -0.822009,-0.655738 -0.247194,-0.842996 0.573802,-0.214284 1.234568,-0.200975 1.74616,-0.578202 0.861471,-0.607683 1.430871,-1.558094 1.709401,-2.561628 0.266953,-1.1352792 0.114111,-2.3190769 -0.07067,-3.4548908 -0.125386,-0.6425749 -0.354313,-1.3821903 -1.026564,-1.6438994 -0.566023,-0.2617602 -1.359019,-0.2609645 -1.949629,-0.08086 0.04695,0.296893 -0.08479,0.5410735 0.498124,0.4585622 0.48096,-0.063645 1.153839,0.03446 1.505584,0.3905982 0.373223,0.5855941 0.391936,1.3140346 0.483118,1.9840225 0.131707,1.0853388 0.106319,2.2399743 -0.41434,3.2283673 -0.304014,0.64392 -0.824658,1.210745 -1.471082,1.517266 -0.537092,0.212565 -1.241695,0.19532 -1.604695,0.716171 -0.284101,0.461848 0.05845,1.016252 0.502165,1.214403 0.829091,0.445737 1.892346,0.520944 2.725066,0.0383 0.83584,-0.4181 1.710447,-0.990045 2.021377,-1.919768 0.398269,-1.324784 0.391695,-2.725319 0.425944,-4.0961951 0.03137,-0.825367 -0.100774,-1.6465547 -0.355196,-2.4306748 -0.27215,-0.9146085 -0.698531,-1.8522774 -1.473009,-2.4470119 -0.683014,-0.4806626 -1.551056,-0.258974 -2.282889,-0.032751 -0.435403,0.137963 -0.885184,0.30973 -1.190705,0.6660329 0.118519,0.103697 0.23703,0.2074175 0.355555,0.3110998 z"
       sodipodi:nodetypes="sccccccccccccccccccccccccccss" />
    <path
       style="fill:#000000;stroke-width:1.3"
       id="path10289"
       d="m 89.532321,6.5290911 c -0.395891,0.279974 -0.93964,0.427109 -1.410569,0.4898062 -0.163925,0.026827 -0.193632,0.1802766 -0.175765,0.2993875 0.0117,0.2676934 0.436909,0.1591693 0.607337,0.1380525 0.463209,-0.066124 0.917338,-0.2242407 1.292978,-0.5086012 l -0.313985,-0.418645 z"
       sodipodi:nodetypes="scccccs" />
    <path
       style="fill:#000000;stroke-width:1.3"
       id="path10291"
       d="m 89.87869,8.1636607 c -0.276446,0.064357 -0.547308,0.1580704 -0.832455,0.1832533 -0.214925,0.052471 -0.680123,0.062848 -0.896727,0.083678 -0.260565,0.066172 -0.324116,0.433116 0.117708,0.5161435 0.337929,0.021732 0.811074,-0.01175 1.139807,-0.1011948 C 89.603047,8.77562 90.017474,8.766481 90.055739,8.5618969 89.996712,8.4291688 89.93777,8.296302 89.87869,8.1636607 Z"
       sodipodi:nodetypes="ccccccc" />
    <path
       style="fill:#000000;stroke-width:1.3"
       id="path10293"
       d="m 89.951863,9.901983 c -0.398372,0.025934 -0.808936,-0.00294 -1.19063,-0.1007324 -0.253419,-0.027272 -0.770487,-0.01678 -0.772952,0.1719636 -0.07011,0.2926548 0.721475,0.3756678 0.915881,0.3827268 0.362045,0.03445 0.728209,0.07351 1.089746,0.0086 -0.01401,-0.154185 -0.02804,-0.308402 -0.04205,-0.462566 z"
       sodipodi:nodetypes="sccccss" />
    <path
       style="fill:#000000;stroke-width:1.3"
       id="path10295"
       d="m 89.561904,11.351999 c -0.444173,0.02783 -1.121024,-0.0234 -1.55857,-0.07043 -0.136894,0.0434 -0.134104,0.112172 -0.125809,0.172263 0.01562,0.28956 0.640965,0.282022 0.844618,0.364496 0.286528,0.03852 0.625366,0.08742 0.886828,0.0044 l -0.04707,-0.470731 z"
       sodipodi:nodetypes="scccccs" />
    <path
       style="fill:#000000;stroke-width:1.3"
       id="path10297"
       d="m 88.612066,12.585648 c -0.460394,-0.06271 -0.848277,-0.340653 -1.145594,5.47e-4 0.02779,0.455951 1.111765,0.450784 1.145587,0.444983 5e-6,-0.1485 0.428541,-0.450145 0.280054,-0.448546 z"
       sodipodi:nodetypes="cccsc" />
    <path
       style="fill:#000000;stroke-width:1.3"
       id="path10301"
       d="m 78.800628,13.19905 c -0.04941,-1.048545 -0.113292,-2.108704 0.04179,-3.151323 0.186084,-1.0253572 0.457186,-2.0943386 1.166001,-2.8928934 0.676163,-0.7690312 1.766535,-0.9635507 2.743709,-0.9416283 0.943279,0.033488 1.944478,0.247084 2.650728,0.9154015 0.384895,0.456983 0.483742,1.0786887 0.585697,1.6493105 0.145537,0.9927546 -0.05244,2.0004067 -0.334987,2.9508027 -0.227585,0.690463 -0.353455,0.851432 -0.727998,1.467803 0.183356,0.213729 0.440669,0.06163 0.695818,-0.293451 0.574263,-1.102278 0.566444,-1.140218 0.821523,-2.164123 0.251534,-1.203722 0.133556,-2.5136735 -0.460534,-3.6016044 -0.373562,-0.5728838 -1.025968,-0.8892879 -1.655742,-1.0986299 -1.336874,-0.3550533 -2.86387,-0.3685613 -4.07298,0.3814744 -0.998177,0.694828 -1.491082,1.8903275 -1.712896,3.0475914 -0.291074,1.2174045 -0.210234,2.4812645 -0.136997,3.7185955 0.112312,0.08015 0.271911,0.0329 0.396868,0.01267 z"
       sodipodi:nodetypes="cccccccccccccccc" />
    <path
       style="fill:#000000;stroke-width:1.3"
       id="path10305"
       d="m 78.766592,10.173428 c 0.941316,-1.1091986 1.987018,-2.1451801 2.92034,-3.2666865 0.240623,-0.2796863 0.494746,-0.5735251 0.766169,-0.8093139 -0.252342,-0.3806377 -0.466116,0.3630045 -0.737889,0.4464723 -0.65543,0.6348234 -1.261256,1.3211363 -1.880544,1.9919015 -0.443626,0.4801935 -0.866128,0.9804839 -1.328058,1.4426073 0.08664,0.064998 0.173474,0.1300623 0.259982,0.1950193 z" />
    <path
       style="fill:#000000;stroke-width:1.3"
       id="path10307"
       d="m 78.532579,11.493782 c 0.401118,-0.380032 0.765493,-0.799578 1.169046,-1.179 0.410168,-0.3998448 0.784984,-0.8330063 1.16642,-1.2573723 0.887944,-0.8828913 1.803581,-1.7440222 2.608161,-2.7069043 0.177978,-0.089051 0.335019,-0.3695108 0.06346,-0.3927341 -0.417767,0.4340251 -0.818129,0.8840607 -1.219092,1.333408 -0.519746,0.5542299 -1.084399,1.0649403 -1.590958,1.6308611 -0.518646,0.5084245 -1.025189,1.0313705 -1.547501,1.5381196 -0.240812,0.293979 -0.644297,0.588058 -0.797785,0.864245 0.04942,0.05645 0.09881,0.112996 0.148247,0.169377 z" />
    <path
       style="fill:#000000;stroke-width:1.3"
       id="path10309"
       d="m 78.65176,12.388378 c 0.432165,-0.295105 0.814811,-0.661969 1.217978,-0.99668 1.012045,-0.896547 2.004176,-1.8195524 2.88504,-2.8481 0.595526,-0.6676353 1.167857,-1.3561854 1.771425,-2.016162 0.117269,-0.1899748 -0.248028,-0.2741591 -0.29175,-0.024175 -0.600312,0.6087321 -1.139671,1.2740588 -1.71085,1.9098826 -0.954974,1.1445267 -2.05638,2.1541564 -3.206396,3.0983024 -0.238728,0.25252 -0.679708,0.46465 -0.759857,0.769077 0.03148,0.03594 0.06291,0.07195 0.09441,0.107855 z" />
    <path
       style="fill:#000000;stroke-width:1.3"
       id="path10313"
       d="m 79.255071,13.150802 c 0.606037,-0.52471 1.25349,-1.124483 1.857973,-1.655537 0.227843,-0.259985 0.453246,-0.51815 0.703863,-0.757967 0.482388,-0.502409 0.923369,-1.0423357 1.401651,-1.5479269 0.452621,-0.5741712 0.950139,-1.1084638 1.494529,-1.5963446 0.182524,-0.2455002 0.628488,-0.4969872 0.65646,-0.7459036 -0.264667,-0.384685 -0.469008,0.3122295 -0.743946,0.4080885 -0.551981,0.500347 -1.08639,1.0195928 -1.543821,1.6098976 -0.316875,0.4199426 -0.645884,0.8304121 -1.028902,1.193391 -0.284629,0.33728 -0.567341,0.679464 -0.874794,0.994582 -0.382293,0.335152 -0.694134,0.745517 -1.101284,1.056045 -0.304733,0.28424 -0.707879,0.604411 -0.963097,0.93134 0.04139,0.03677 0.09998,0.07358 0.141368,0.110335 z"
       sodipodi:nodetypes="ccccccccccccc" />
    <path
       style="fill:#000000;stroke-width:1.3"
       id="path10317"
       d="m 81.473575,12.323336 c 0.429481,-0.358465 0.843554,-0.737168 1.179784,-1.186813 0.573581,-0.677233 1.28023,-1.2292089 1.83223,-1.9273332 0.437985,-0.4834188 0.864294,-0.9750568 1.255162,-1.4979141 0.19873,-0.130037 0.275052,-0.1860456 0.046,-0.3215731 -0.187221,-0.2137682 -0.25465,0.3208933 -0.458361,0.4116033 -0.372583,0.4636577 -0.795707,0.8834954 -1.169555,1.3475368 -0.58068,0.7057835 -1.277941,1.3051913 -1.854589,2.0147713 -0.399297,0.471973 -0.868789,0.874837 -1.362793,1.242935 -0.124497,0.228043 -0.757131,0.436381 -0.528013,0.689529 0.28587,0.0228 0.81826,-0.547859 1.060135,-0.772742 z"
       sodipodi:nodetypes="ccccccccccc" />
    <path
       style="fill:#000000;stroke-width:1.3"
       id="path10319"
       d="m 81.920817,13.229044 c 0.264867,-0.213358 0.474667,-0.51332 0.751595,-0.720747 0.414157,-0.424658 0.827521,-0.849555 1.161815,-1.340288 0.717104,-0.810874 1.432984,-1.6232913 2.161992,-2.4238519 0.168294,-0.1823628 0.357049,-0.307392 0.05776,-0.4405161 -0.198408,-0.12319 -0.312238,0.4086583 -0.534054,0.5074066 -0.620377,0.7010085 -1.277432,1.3694884 -1.855645,2.1071964 -0.369933,0.40769 -0.680063,0.862732 -1.086061,1.238274 -0.269886,0.280321 -0.495292,0.600598 -0.767113,0.881894 -0.09686,0.08046 0.07355,0.133501 0.109713,0.190632 z" />
    <path
       style="fill:#000000;stroke-width:1.3"
       id="path10321"
       d="m 83.139316,13.421225 c 0.548764,-0.425953 0.942295,-1.015412 1.427343,-1.509894 0.483012,-0.527645 0.936905,-1.08091 1.381796,-1.640752 0.0958,-0.227072 0.559436,-0.4820804 0.212989,-0.6562002 -0.301019,0.1486262 -0.519058,0.6304662 -0.802253,0.8940122 -0.636399,0.757612 -1.355393,1.440042 -1.994381,2.195863 -0.116625,0.199082 -0.583319,0.488641 -0.273375,0.67383 0.01595,0.01438 0.03204,0.02879 0.04788,0.04314 z" />
    <path
       style="fill:#000000;stroke-width:1.3"
       id="path10323"
       d="m 82.036392,6.1304243 c 0.265157,0.2753046 0.602678,0.4751191 0.880092,0.7403957 0.566411,0.3802188 1.116221,0.7833685 1.63288,1.2296966 0.403747,0.3347206 0.838543,0.6281512 1.263326,0.9347431 0.17909,0.072214 0.436081,0.344439 0.471804,-0.00129 C 85.980614,8.8411685 85.761211,8.5431619 85.448081,8.3475664 84.731184,7.8845152 84.141175,7.2512273 83.407223,6.8108135 83.011687,6.5204543 82.604913,6.24595 82.205747,5.9610819 c -0.05645,0.056444 -0.112896,0.112913 -0.169355,0.1693424 z" />
    <path
       style="fill:#000000;stroke-width:1.3"
       id="path10325"
       d="m 80.663694,6.4484961 c 0.476946,0.4813169 1.079732,0.8172363 1.576846,1.2782768 0.589236,0.4726674 1.171052,0.9532308 1.7722,1.4088244 0.367222,0.281762 0.654876,0.6184809 1.027827,0.8973877 0.29644,0.209807 0.584637,0.486754 0.915761,0.591875 0.127403,0.131972 0.227788,0.349368 0.294347,0.05962 0.114551,-0.174095 -0.362116,-0.03866 -0.313507,-0.215396 C 85.791473,10.172672 85.350426,9.8911642 85.08038,9.614429 84.655588,9.281945 84.212208,8.9838412 83.800314,8.6255452 83.217867,8.0667007 82.548939,7.6018386 81.937469,7.0740152 81.600401,6.7964765 81.215542,6.5583484 80.895416,6.2747235 80.818174,6.3326422 80.740941,6.390604 80.663694,6.4484961 Z" />
    <path
       style="fill:#000000;stroke-width:1.3"
       id="path10327"
       d="m 79.60716,7.243665 c 0.361751,0.377411 0.865485,0.5805698 1.245367,0.9411264 0.722789,0.6357256 1.551563,1.1375341 2.270274,1.7765063 0.327764,0.3231983 0.734143,0.4845873 1.081495,0.7838563 0.439659,0.267158 0.912887,0.505494 1.31758,0.826491 0.209293,0.03287 0.25621,0.428808 0.421601,0.08241 0.265616,-0.232151 -0.228216,-0.249677 -0.288131,-0.485339 C 85.283461,10.912769 84.920728,10.66074 84.523061,10.443176 84.125798,10.245014 83.775819,9.9735877 83.428739,9.6972872 82.871787,9.2840848 82.331296,8.8471819 81.759707,8.4529524 81.194731,8.0130608 80.661081,7.5290322 80.034483,7.1747605 79.847227,6.9320102 79.775955,7.1351298 79.60716,7.243665 Z"
       sodipodi:nodetypes="cccccccccccc" />
    <path
       style="fill:#000000;stroke-width:1.3"
       id="path10329"
       d="m 78.969546,8.2001968 c 0.258548,0.4555033 0.709961,0.7640218 1.104118,1.0970703 0.887722,0.6873522 1.763146,1.3957419 2.720346,1.9869969 0.388767,0.315257 0.836523,0.520405 1.224983,0.836659 0.417624,0.31298 0.890025,0.551172 1.328693,0.838426 0.161116,-0.0063 0.352449,-0.413708 0.0344,-0.427532 -0.362327,-0.216653 -0.743373,-0.40235 -1.06197,-0.681031 C 83.893214,11.592291 83.554225,11.225799 83.121895,10.976181 82.370211,10.427267 81.571331,9.945584 80.833415,9.3767173 80.345296,9.0144188 79.827446,8.6810985 79.395656,8.25063 79.352426,8.0245144 79.140486,8.200446 78.979706,8.198177 l -0.01012,0.00202 z" />
    <path
       style="fill:#000000;stroke-width:1.3"
       id="path10331"
       d="m 78.698012,9.7054312 c 0.739411,0.6707668 1.601739,1.1882018 2.36563,1.8303138 0.711708,0.546295 1.395664,1.135656 2.187178,1.566308 0.235076,0.03859 0.545951,0.504767 0.72227,0.262186 0.125321,-0.26635 -0.432988,-0.399131 -0.592755,-0.57372 -0.815528,-0.521746 -1.56438,-1.138732 -2.330083,-1.729649 -0.628326,-0.572967 -1.35533,-1.018344 -2.045301,-1.5094474 -0.06902,-0.1185649 -0.212199,0.1185749 -0.306939,0.1540086 z" />
    <path
       style="fill:#000000;stroke-width:1.3"
       id="path10333"
       d="m 78.461874,10.97373 c 0.327129,0.388047 0.732784,0.704422 1.119681,1.031792 0.438152,0.288971 0.818521,0.661259 1.289632,0.900494 0.228436,0.07215 0.497343,0.585976 0.607621,0.203947 -0.130899,-0.156313 -0.547244,-0.37217 -0.740184,-0.607928 -0.465516,-0.411744 -0.957067,-0.792165 -1.418196,-1.21025 -0.251271,-0.09324 -0.473338,-0.628213 -0.709857,-0.439711 -0.04957,0.04055 -0.09913,0.08111 -0.148697,0.121656 z" />
    <path
       style="fill:#000000;stroke-width:1.3"
       id="path10335"
       d="m 78.46284,12.253739 c 0.333699,0.394786 0.791221,0.659149 1.236882,0.902727 0.12455,0.0923 0.204023,-0.16557 0.201685,-0.234249 -0.264661,-0.116091 -0.525295,-0.385387 -0.77273,-0.582876 -0.195663,-0.176417 -0.374994,-0.430338 -0.581738,-0.150285 -0.02803,0.02156 -0.05606,0.04313 -0.0841,0.06468 z"
       sodipodi:nodetypes="sccccss" />
    <path
       style="fill:#000000;stroke-width:1.3"
       id="path10399"
       d="m 87.829555,17.589781 c 0.02955,0.116415 0.204363,0.251141 0.235653,0.405322 0.129309,0.241687 0.109062,0.520537 0.103526,0.784961 -0.02429,0.202548 0.0537,0.206074 0.167239,0.303744 0.112852,0.05506 0.33223,-0.106081 0.284867,-0.299844 0.0087,-0.168251 0.04153,-0.330079 0.07543,-0.496176 0.01132,-0.158032 0.0692,-0.323646 0.0967,-0.468367 0.231246,-0.383237 0.39141,-0.208637 0.173479,-0.46145 -0.0358,-0.05502 -0.207944,-0.226949 -0.164339,-0.0899 -0.07747,0.157939 -0.293474,0.226069 -0.383887,0.385157 -0.09692,0.263524 -0.107956,0.587138 -0.158332,0.863025 0.135315,0.765294 0.419962,0.170137 0.372727,-0.266172 -0.072,-0.31403 -0.193926,-0.630076 -0.411514,-0.87268 -0.06941,-0.07111 -0.337228,-0.277729 -0.343234,-0.07986 -0.01594,0.09721 -0.03318,0.195995 -0.04831,0.292238 z"
       sodipodi:nodetypes="scccccccccccccss" />
    <path
       style="fill:#000000;stroke-width:1.3"
       id="path10507"
       d="m 78.290163,17.334059 c 0.568467,0.172709 0.568491,0.599319 0.63038,0.658393 0.06678,0.177028 0.123128,0.752129 0.140818,0.936871 -7.8e-4,0.116503 -0.01241,0.137778 0.04991,0.02183 0.09016,-0.118689 0.380071,0.09426 0.265115,-0.08565 -0.0531,-0.272725 -0.03139,-0.789479 0.03058,-1.055482 0.09276,-0.412117 0.602414,-0.512751 0.504545,-0.620877 -0.04859,-0.09634 -0.0972,-0.192676 -0.151089,-0.286211 -0.131866,0.128588 -0.330897,0.214237 -0.438742,0.382956 -0.13627,0.173766 -0.153222,-0.07134 -0.291419,0.258074 -0.08468,0.263056 -0.04725,0.875788 -0.06774,1.147644 0.02122,0.188937 0.01086,0.419176 0.16975,0.55355 0.237364,0.0919 0.385223,-0.122752 0.350021,-0.344547 0.02847,-0.59657 -0.167695,-1.249131 -0.600648,-1.595785 -0.121267,-0.08236 -0.289273,-0.13944 -0.426588,-0.09973 -0.03377,0.09645 -0.116963,0.09047 -0.126892,0.193266 -0.0029,0.03019 0.01327,-0.239558 -0.038,-0.0643 z"
       sodipodi:nodetypes="cccccccccccccccssc" />
    <path
       style="fill:#000000;stroke-width:1.3"
       id="path10509-3"
       sodipodi:type="arc"
       sodipodi:cx="78.103294"
       sodipodi:cy="18.6492"
       sodipodi:rx="0.22801431"
       sodipodi:ry="0.21047476"
       sodipodi:start="6.2319055"
       sodipodi:end="6.20932"
       sodipodi:open="true"
       sodipodi:arc-type="arc"
       d="m 78.331009,18.638412 a 0.22801431,0.21047476 0 0 1 -0.214742,0.220922 0.22801431,0.21047476 0 0 1 -0.240541,-0.196972 0.22801431,0.21047476 0 0 1 0.212026,-0.223147 0.22801431,0.21047476 0 0 1 0.242935,0.194453" />
    <path
       style="fill:#000000;stroke-width:1.3"
       id="path10509-7"
       sodipodi:type="arc"
       sodipodi:cx="80.289886"
       sodipodi:cy="18.508884"
       sodipodi:rx="0.22801431"
       sodipodi:ry="0.21047476"
       sodipodi:start="6.2319055"
       sodipodi:end="6.20932"
       sodipodi:open="true"
       sodipodi:arc-type="arc"
       d="m 80.517601,18.498096 a 0.22801431,0.21047476 0 0 1 -0.214742,0.220922 0.22801431,0.21047476 0 0 1 -0.240541,-0.196972 0.22801431,0.21047476 0 0 1 0.212026,-0.223147 0.22801431,0.21047476 0 0 1 0.242935,0.194453" />
    <path
       style="fill:#000000;stroke-width:1.3"
       id="path10509-5"
       sodipodi:type="arc"
       sodipodi:cx="87.48111"
       sodipodi:cy="18.543962"
       sodipodi:rx="0.22801431"
       sodipodi:ry="0.21047476"
       sodipodi:start="6.2319055"
       sodipodi:end="6.20932"
       sodipodi:open="true"
       sodipodi:arc-type="arc"
       d="m 87.708824,18.533174 a 0.22801431,0.21047476 0 0 1 -0.214741,0.220922 0.22801431,0.21047476 0 0 1 -0.240541,-0.196972 0.22801431,0.21047476 0 0 1 0.212025,-0.223147 0.22801431,0.21047476 0 0 1 0.242935,0.194453" />
    <path
       style="fill:#000000;stroke-width:1.3"
       id="path10509-0"
       sodipodi:type="arc"
       sodipodi:cx="89.351997"
       sodipodi:cy="18.508884"
       sodipodi:rx="0.22801431"
       sodipodi:ry="0.21047476"
       sodipodi:start="6.2319055"
       sodipodi:end="6.20932"
       sodipodi:open="true"
       sodipodi:arc-type="arc"
       d="m 89.579712,18.498096 a 0.22801431,0.21047476 0 0 1 -0.214742,0.220922 0.22801431,0.21047476 0 0 1 -0.240541,-0.196972 0.22801431,0.21047476 0 0 1 0.212026,-0.223147 0.22801431,0.21047476 0 0 1 0.242935,0.194453" />
    <path
       style="fill:#000000;stroke-width:1.3"
       id="path10509-56"
       sodipodi:type="arc"
       sodipodi:cx="79.267128"
       sodipodi:cy="13.879641"
       sodipodi:rx="0.22801431"
       sodipodi:ry="0.21047476"
       sodipodi:start="6.2319055"
       sodipodi:end="6.20932"
       sodipodi:open="true"
       sodipodi:arc-type="arc"
       d="m 79.494843,13.868852 a 0.22801431,0.21047476 0 0 1 -0.214742,0.220922 0.22801431,0.21047476 0 0 1 -0.240541,-0.196972 0.22801431,0.21047476 0 0 1 0.212025,-0.223147 0.22801431,0.21047476 0 0 1 0.242936,0.194453" />
    <path
       style="fill:#000000;stroke-width:1.3"
       id="path10509-79"
       sodipodi:type="arc"
       sodipodi:cx="81.1614"
       sodipodi:cy="13.961492"
       sodipodi:rx="0.22801431"
       sodipodi:ry="0.21047476"
       sodipodi:start="6.2319055"
       sodipodi:end="6.20932"
       sodipodi:open="true"
       sodipodi:arc-type="arc"
       d="m 81.389114,13.950703 a 0.22801431,0.21047476 0 0 1 -0.214741,0.220922 0.22801431,0.21047476 0 0 1 -0.240541,-0.196972 0.22801431,0.21047476 0 0 1 0.212025,-0.223147 0.22801431,0.21047476 0 0 1 0.242935,0.194453" />
    <path
       style="fill:#000000;stroke-width:1.3"
       id="path10509-4"
       sodipodi:type="arc"
       sodipodi:cx="82.962128"
       sodipodi:cy="13.984879"
       sodipodi:rx="0.22801431"
       sodipodi:ry="0.21047476"
       sodipodi:start="6.2319055"
       sodipodi:end="6.20932"
       sodipodi:open="true"
       sodipodi:arc-type="arc"
       d="m 83.189842,13.97409 a 0.22801431,0.21047476 0 0 1 -0.214741,0.220922 0.22801431,0.21047476 0 0 1 -0.240541,-0.196972 0.22801431,0.21047476 0 0 1 0.212025,-0.223147 0.22801431,0.21047476 0 0 1 0.242935,0.194453" />
    <path
       style="fill:#000000;stroke-width:1.3"
       id="path10509-1"
       sodipodi:type="arc"
       sodipodi:cx="84.739471"
       sodipodi:cy="13.926413"
       sodipodi:rx="0.22801431"
       sodipodi:ry="0.21047476"
       sodipodi:start="6.2319055"
       sodipodi:end="6.20932"
       sodipodi:open="true"
       sodipodi:arc-type="arc"
       d="m 84.967186,13.915624 a 0.22801431,0.21047476 0 0 1 -0.214742,0.220922 0.22801431,0.21047476 0 0 1 -0.240541,-0.196972 0.22801431,0.21047476 0 0 1 0.212026,-0.223147 0.22801431,0.21047476 0 0 1 0.242935,0.194453" />
    <path
       style="fill:#000000;stroke-width:1.3"
       id="path10687"
       d="m 77.380152,15.92313 c -0.0816,0.08662 -0.07982,0.230074 -0.07057,0.346551 0.03154,0.287859 0.151975,0.567523 0.362641,0.76982 0.240033,0.241995 0.560133,0.399256 0.896797,0.446997 0.293616,0.05229 0.594234,-0.0053 0.879226,-0.079 0.192266,-0.05438 0.381101,-0.121861 0.56908,-0.187683 0.205548,-0.09718 0.378322,-0.248667 0.55489,-0.388505 0.199795,-0.186565 0.390003,-0.394644 0.51049,-0.642384 0.120262,-0.149377 -0.08706,-0.176532 -0.184528,-0.230697 -0.114717,-0.03454 -0.263271,-0.184466 -0.323214,-0.0032 -0.162263,0.237415 -0.353828,0.456266 -0.57145,0.643858 -0.140883,0.104739 -0.282665,0.216734 -0.450535,0.273504 -0.216233,0.08395 -0.444681,0.154723 -0.677215,0.164813 -0.354287,-0.0088 -0.722104,-0.154824 -0.936205,-0.44764 -0.119403,-0.131865 -0.159585,-0.311291 -0.162622,-0.484597 -0.0078,-0.08609 -0.02404,-0.174088 -0.128822,-0.155121 -0.08932,-0.0089 -0.17867,-0.01799 -0.267966,-0.02671 z" />
    <path
       style="fill:#000000;stroke-width:1.3"
       id="path10691"
       d="m 86.806319,15.86948 c -0.115877,0.08694 -0.156741,0.239034 -0.163354,0.377646 0.03234,0.329905 0.194836,0.641215 0.415942,0.884322 0.196852,0.214967 0.451276,0.372427 0.732154,0.450805 0.528188,0.148646 1.12278,0.112749 1.598636,-0.175714 0.317239,-0.184219 0.596144,-0.42943 0.850736,-0.691873 0.154746,-0.185267 0.272725,-0.398524 0.369813,-0.618146 0.08755,-0.102862 -0.155783,-0.137409 -0.237782,-0.176845 -0.07763,-0.0248 -0.154352,-0.05258 -0.231638,-0.07851 -0.03218,0.144942 -0.111678,0.289717 -0.215648,0.400359 -0.242391,0.254677 -0.505028,0.496598 -0.805196,0.682552 -0.397868,0.232964 -0.909371,0.274928 -1.33047,0.07905 -0.302325,-0.172662 -0.548626,-0.461144 -0.642485,-0.798411 -0.0062,-0.08038 -0.09884,-0.05574 -0.146364,-0.140917 -0.06479,-0.06476 -0.12954,-0.129581 -0.194344,-0.194312 z" />
  </g>
</svg>
