<?xml version="1.0" encoding="UTF-8" standalone="no"?>
<!-- Created with Inkscape (http://www.inkscape.org/) -->

<svg
   width="83.450844mm"
   height="38.74329mm"
   viewBox="0 0 83.450844 38.74329"
   version="1.1"
   id="svg4701"
   xml:space="preserve"
   inkscape:version="1.2.2 (b0a84865, 2022-12-01)"
   sodipodi:docname="T589-T607.svg"
   xmlns:inkscape="http://www.inkscape.org/namespaces/inkscape"
   xmlns:sodipodi="http://sodipodi.sourceforge.net/DTD/sodipodi-0.dtd"
   xmlns="http://www.w3.org/2000/svg"
   xmlns:svg="http://www.w3.org/2000/svg"><sodipodi:namedview
     id="namedview4703"
     pagecolor="#ffffff"
     bordercolor="#666666"
     borderopacity="1.0"
     inkscape:showpageshadow="2"
     inkscape:pageopacity="0.0"
     inkscape:pagecheckerboard="0"
     inkscape:deskcolor="#d1d1d1"
     inkscape:document-units="mm"
     showgrid="false"
     inkscape:zoom="3.841358"
     inkscape:cx="144.87064"
     inkscape:cy="106.47276"
     inkscape:window-width="2560"
     inkscape:window-height="1298"
     inkscape:window-x="0"
     inkscape:window-y="25"
     inkscape:window-maximized="1"
     inkscape:current-layer="layer1" /><defs
     id="defs4698" /><g
     inkscape:label="Layer 1"
     inkscape:groupmode="layer"
     id="layer1"
     transform="translate(-98.907314,-122.96222)"><g
       id="g6267"
       transform="translate(11.778061,-6.6811225)"><circle
         style="fill:#000000;stroke:#000000;stroke-width:0.799999"
         id="path5999-7"
         cx="108.41326"
         cy="146.84694"
         r="0.68877548" /><circle
         style="fill:#000000;stroke:#000000;stroke-width:0.799999"
         id="path5999-4"
         cx="102.7653"
         cy="147.12245"
         r="0.68877548" /><circle
         style="fill:#000000;stroke:#000000;stroke-width:0.799999"
         id="path5999-1"
         cx="105.5204"
         cy="152.08163"
         r="0.68877548" /><path
         style="fill:#000000;stroke:#000000;stroke-width:0.799999"
         id="path5923"
         d="m 91.136281,166.07295 c 0.391237,0.10837 0.247598,-4.42947 -0.289802,-6.51209 -1.035906,-2.87637 -1.905287,-5.82826 -2.129827,-8.89327 -0.439829,-4.12304 -0.498633,-8.58478 1.505432,-12.33706 2.758197,-4.23851 7.865461,-6.28906 12.722216,-6.86061 4.37956,-0.57344 8.85959,0.65949 12.50545,3.10645 2.33514,1.39713 4.58482,3.32992 5.2513,6.0877 1.09986,3.35156 0.40232,7.04515 -1.38228,10.03007 -2.21596,4.02536 -5.15275,7.99151 -5.23061,12.78069 0.001,1.15974 0.16544,4.044 1.48044,3.80625 0.75654,-0.88464 -0.9958,-2.447 -0.46928,-3.7587 0.0963,-5.06579 3.51906,-9.061 5.6597,-13.40102 2.25875,-4.23134 2.01619,-9.92643 -1.21309,-13.59691 -2.557,-2.4736 -5.75916,-4.30693 -9.14315,-5.38726 -5.92298,-1.66218 -12.584132,-0.4341 -17.592461,3.11108 -2.558134,1.76699 -4.37326,4.53437 -4.836616,7.62246 -0.880838,4.71594 -0.355738,9.5993 0.738479,14.23352 0.765464,2.62925 1.910895,5.18417 2.173538,7.93266 0.04261,0.96399 -0.882042,1.54903 0.250561,2.03604 z"
         sodipodi:nodetypes="ccccccccccccccccccc" /><path
         style="fill:#000000;stroke:#000000;stroke-width:0.799999"
         id="path5925"
         d="m 98.498749,167.16327 c 0.35067,0.25045 2.483611,-4.38895 2.473311,-6.88685 -0.002,-1.97001 -0.3395,-3.92576 -0.65252,-5.8668 -0.431742,-2.51133 -1.205197,-5.07138 -0.741009,-7.63177 0.413385,-2.08875 2.204879,-3.62897 4.103229,-4.38564 2.13883,-0.82277 4.74227,-0.233 6.2072,1.56288 0.97435,1.11913 1.4486,2.60686 1.65669,4.05257 0.0482,2.0705 -1.32289,3.79222 -2.48189,5.37938 -1.5615,2.08544 -2.07655,4.71495 -2.22321,7.26267 -0.14198,1.49051 -0.19742,3.04151 0.40742,4.44818 0.0991,0.51801 1.3489,2.3182 1.16769,1.30571 -0.75709,-1.53998 -1.27514,-3.24485 -1.06316,-4.97604 0.12196,-2.54881 0.44149,-5.21752 1.922,-7.37668 1.21139,-1.71713 2.72525,-3.48471 2.79765,-5.68952 -0.0323,-1.41357 -0.59116,-2.78114 -1.26319,-4.00384 -1.38395,-2.15398 -4.17318,-3.27326 -6.64963,-2.55545 -1.77197,0.47914 -3.37626,1.66345 -4.358041,3.21481 -1.320404,2.26534 -0.791209,4.98583 -0.347324,7.41979 0.485806,2.62632 1.046925,5.26605 1.071915,7.94567 -0.01,1.81695 -0.33676,3.66708 -1.341109,5.21543 -0.280667,0.49923 -1.220749,1.20545 -0.686022,1.5655 z"
         sodipodi:nodetypes="ccccccccccccccccccccc" /><path
         style="fill:#000000;stroke:#000000;stroke-width:0.799999"
         id="path5927"
         d="m 96.460857,165.914 c 1.164506,-1.95217 1.591715,-3.51248 1.666343,-5.77235 0.291189,-3.02471 -0.533837,-5.98006 -0.999454,-8.94139 -0.294987,-1.72315 -0.501491,-3.50372 -0.03056,-5.21783 0.357471,-2.26681 2.208554,-3.89209 4.178034,-4.84495 1.9393,-1.15295 4.25453,-1.76721 6.50681,-1.48194 1.68862,0.47088 3.23955,1.46145 4.47439,2.6937 1.49909,1.48648 1.73113,3.7091 1.98522,5.69815 0.28277,2.18604 -0.59314,4.33945 -1.67507,6.19054 -1.19663,1.72493 -2.75685,3.34834 -3.08241,5.50898 -0.49505,2.2324 -0.53557,4.7079 0.48572,6.80375 0.51964,0.68206 -0.21568,-1.38674 -0.14193,-1.93895 -0.49181,-2.76099 0.0149,-5.86398 1.82907,-8.08788 1.23725,-1.50612 2.29665,-3.17388 2.83346,-5.06469 0.77283,-2.26099 0.22148,-4.69489 -0.37999,-6.92899 -0.64607,-2.41831 -2.93919,-3.87015 -5.05337,-4.90702 -1.91217,-0.8615 -4.12182,-0.43706 -6.03644,0.19467 -2.17041,0.9724 -4.54713,2.08371 -5.73096,4.27119 -1.103962,2.16101 -1.0989,4.68025 -0.676028,7.01737 0.473243,3.12089 1.415539,6.2275 1.023171,9.41613 -0.105382,2.05394 -0.657924,4.08046 -1.641345,5.88792 -0.07091,0.73858 0.359314,-0.5553 0.465339,-0.49641 z"
         sodipodi:nodetypes="cccccccccccccccccccccc" /><path
         style="fill:#000000;stroke:#000000;stroke-width:0.799999"
         id="path5929"
         d="m 92.477644,135.56229 c 1.236055,1.18896 2.512535,2.33767 3.599717,3.67231 0.999905,1.08604 2.002438,2.19837 3.144037,3.1238 0.26661,-0.28108 -1.54802,-1.53856 -2.064194,-2.38397 -1.321742,-1.43485 -2.498237,-3.00589 -4.027579,-4.23683 -0.318242,-0.26112 -0.3273,-0.57823 -0.651981,-0.17531 z"
         sodipodi:nodetypes="cccccc" /><path
         style="fill:#000000;stroke:#000000;stroke-width:0.799999"
         id="path5931"
         d="m 90.883353,138.62149 c 2.61935,1.24187 4.692348,3.35599 6.558142,5.52418 0.452772,-0.66321 -1.235175,-1.49733 -1.610718,-2.2136 -1.401808,-1.4403 -2.962726,-2.79066 -4.804034,-3.63322 -0.04779,0.10755 -0.09561,0.21509 -0.14339,0.32264 z" /><path
         style="fill:#000000;stroke:#000000;stroke-width:0.799999"
         id="path5933"
         d="m 118.59019,136.50047 c -2.17289,1.69108 -4.58042,3.03907 -6.95688,4.41104 0.45274,0.71332 1.71902,-0.7486 2.47628,-0.93146 1.64517,-0.92567 3.23206,-1.95891 4.71693,-3.12551 -0.0788,-0.11793 -0.1573,-0.23653 -0.23633,-0.35407 z" /><path
         style="fill:#000000;stroke:#000000;stroke-width:0.799999"
         id="path5935"
         d="m 120.67586,139.11316 c -2.38804,1.43816 -4.86845,2.83075 -7.47387,3.78551 0.32627,0.92804 1.84416,-0.5098 2.58257,-0.63455 1.72209,-0.88193 3.45654,-1.75301 5.08862,-2.79573 -0.0658,-0.11838 -0.13168,-0.23695 -0.19732,-0.35523 z" /><path
         style="fill:#000000;stroke:#000000;stroke-width:0.799999"
         id="path5937"
         d="m 115.06626,148.97824 c 1.81137,0.0146 3.62535,7.1e-4 5.4291,0.1815 0.75078,-1.3964 -1.31401,-1.01265 -2.17149,-1.14468 -1.0396,0.0652 -2.46621,-0.18868 -3.25764,0.15996 2e-5,0.26764 -4e-5,0.53601 3e-5,0.80322 z" /><path
         style="fill:#000000;stroke:#000000;stroke-width:0.799999"
         id="path5939"
         d="m 88.945774,149.4101 c 2.545472,0.44356 5.141183,0.34565 7.714327,0.41553 0.691116,-1.22898 -0.883355,-1.08081 -1.729188,-1.03493 -1.938685,-0.0448 -3.88871,-0.0419 -5.807438,-0.3579 -0.05923,0.32572 -0.118498,0.65181 -0.177701,0.9773 z" /><path
         style="fill:#000000;stroke:#000000;stroke-width:0.799999"
         id="path5943"
         d="m 99.475958,131.28213 c -0.09352,1.41661 0.556952,2.76655 0.931972,4.1112 0.60521,1.66777 1.27562,3.31418 1.99314,4.93487 1.4544,-0.0804 0.48086,-1.38375 0.13302,-2.23303 -0.90888,-2.18511 -1.87892,-4.388 -2.27342,-6.73453 -0.261489,-0.0262 -0.523607,-0.0523 -0.784712,-0.0785 z" /><path
         style="fill:#000000;stroke:#000000;stroke-width:0.799999"
         id="path5945"
         d="m 110.42616,131.79309 c -0.58005,2.73854 -1.19259,5.24387 -1.83208,7.96646 1.30203,0.96987 1.08787,-0.85474 1.3895,-1.70423 0.55533,-2.00688 1.00529,-4.04368 1.35962,-6.09548 -0.30565,-0.0556 -0.61156,-0.11118 -0.91704,-0.16675 z"
         sodipodi:nodetypes="ccccc" /></g><g
       id="g6279"
       transform="matrix(0.95290902,0,0,0.96578966,6.681585,4.0710353)"><circle
         style="fill:#000000;stroke:#000000;stroke-width:0.799999"
         id="path5999-4-7"
         cx="161.72449"
         cy="144.36734"
         r="0.68877548" /><circle
         style="fill:#000000;stroke:#000000;stroke-width:0.799999"
         id="path5999-4-3"
         cx="163.65306"
         cy="138.99489"
         r="0.68877548" /><circle
         style="fill:#000000;stroke:#000000;stroke-width:0.799999"
         id="path5999-4-1"
         cx="158.28061"
         cy="139.13266"
         r="0.68877548" /><path
         id="path6087"
         style="fill:#000000;stroke:#000000;stroke-width:0.799999"
         d="m 160.82016,123.50461 c -5.04056,-0.08 -10.30575,2.19599 -13.10413,6.48984 -1.11374,1.93674 -0.70994,4.04558 -0.92653,6.23204 -0.41386,2.5491 -0.0734,3.08319 1.23889,3.78616 1.93806,1.35152 4.62195,0.81154 6.45111,2.32827 1.00588,1.41344 1.30041,4.1855 -0.87772,4.68142 -1.95553,0.76135 -4.52694,0.75616 -5.60647,2.88789 -1.80276,3.66443 -0.2199,8.55774 3.21357,10.69055 3.18508,1.90117 7.05687,1.9534 10.65516,2.21198 3.68435,0.0417 7.38687,-0.15345 11.03668,-0.6509 5.21652,-0.85465 9.03695,-5.51372 10.1349,-10.50052 1.09186,-4.29476 0.72037,-8.76328 0.92068,-13.14711 0.0646,-3.90733 -1.54247,-7.84198 -4.58765,-10.34354 -3.09308,-2.95127 -7.51773,-3.67176 -11.58534,-4.25017 -2.31038,-0.26948 -4.63844,-0.37956 -6.96315,-0.41591 z m 0.001,0.69711 c 5.20776,0.13422 10.59226,0.49316 15.4028,2.66087 3.72721,1.98233 6.53364,5.78549 6.816,10.0627 0.18961,3.43705 -0.032,6.88853 -0.15752,10.32573 -0.37303,4.63861 -1.77633,9.70054 -5.83011,12.46513 -3.37991,2.42897 -7.73253,2.2013 -11.68707,2.51132 -4.18401,-0.0169 -8.50555,-0.0359 -12.49845,-1.42751 -3.94619,-1.45962 -6.09063,-6.42553 -4.48149,-10.29712 0.86412,-2.11969 3.35966,-2.13695 5.20019,-2.82827 1.74498,-0.33236 2.69547,-2.13639 2.09883,-3.78252 -0.16617,-1.89528 -1.94375,-2.89987 -3.6668,-3.1193 -1.96454,-0.36908 -4.71894,-1.43812 -5.0474,-2.98924 0.25501,-2.15213 0.54477,-4.27469 0.86844,-6.32707 0.91684,-2.70878 3.49297,-4.47981 5.9231,-5.74832 2.1844,-1.07383 4.63343,-1.54648 7.05948,-1.5064 z"
         sodipodi:nodetypes="cccccccccccccccccccccccccccccc" /><path
         style="fill:#000000;stroke:#000000;stroke-width:0.799999"
         id="path6089"
         d="m 154.37457,147.06441 c 0.36471,1.52679 1.75008,2.64727 3.27864,2.87227 1.74238,0.41189 3.69824,0.42977 5.30699,-0.43694 1.60501,-1.02877 2.62133,-2.77201 3.30226,-4.50933 0.97104,-2.85095 1.27969,-6.06406 0.25547,-8.94276 -0.7888,-1.93425 -2.46484,-3.87106 -4.70221,-3.91883 -1.89718,-7.4e-4 -3.54594,1.14387 -4.85373,2.41782 -0.51897,0.56038 -2.48249,1.91324 -2.29472,0.27704 0.31622,-1.86456 1.97228,-3.11311 3.52411,-3.98193 1.88602,-0.79131 3.98372,-1.17232 6.02545,-0.98942 2.01286,0.281 3.95761,1.4981 4.7134,3.44572 0.83135,1.74276 1.35453,3.70508 0.94012,5.635 -0.28133,2.07543 -0.87709,4.08211 -1.52764,6.06582 -0.66306,2.29409 -1.71482,4.61508 -3.70996,6.0487 -1.58235,1.17679 -3.49531,2.05984 -5.49287,2.0812 -1.51562,-0.29361 -2.7079,-1.37823 -3.86457,-2.33019 -0.90396,0.22975 0.0276,0.90952 0.47218,1.19198 1.31469,1.04953 2.96082,2.14805 4.72574,1.65733 3.28426,-0.67878 6.33854,-2.89362 7.58875,-6.06681 0.70988,-1.63659 1.14221,-3.37478 1.67644,-5.07259 0.44126,-1.96906 0.99562,-3.98418 0.787,-6.01703 -0.31003,-1.78968 -0.96395,-3.57391 -2.06894,-5.02759 -1.63315,-1.86993 -4.29805,-2.51777 -6.68898,-2.12605 -1.91305,0.2261 -3.8601,0.74526 -5.37031,1.99883 -1.27046,0.95672 -2.45447,2.44969 -2.2961,4.12979 0.47732,1.38642 2.19498,0.5059 2.92226,-0.18389 1.14632,-1.01104 2.32579,-2.11311 3.874,-2.44145 1.53946,-0.43098 3.08874,0.46046 3.98452,1.67942 1.7302,2.15522 1.85588,5.12298 1.46946,7.74685 -0.35131,2.44088 -1.34097,4.92822 -3.29484,6.51931 -1.1919,0.97314 -2.85184,1.03485 -4.31636,0.88728 -1.26933,-0.19196 -2.68371,-0.48038 -3.43256,-1.63879 -0.42902,-0.29807 -0.29355,-1.30096 -0.933,-0.97076 z" /><path
         style="fill:#000000;stroke:#000000;stroke-width:0.799999"
         id="path6091"
         d="m 170.74225,137.42926 c 2.50319,-0.15403 5.00466,-0.42582 7.47718,-0.83709 0.81974,-0.002 0.41246,-0.96761 -0.22043,-0.55507 -2.4042,0.5047 -4.87296,0.59702 -7.30259,0.93362 0.0153,0.15283 0.0307,0.30577 0.0458,0.45854 z" /><path
         style="fill:#000000;stroke:#000000;stroke-width:0.799999"
         id="path6093"
         d="m 170.46805,140.05973 c 2.00436,-0.0225 4.00793,0.11262 6.01168,0.16348 2.19889,0.10226 4.39808,0.19948 6.59817,0.27051 0.7107,0.25471 0.53174,-1.0086 -0.16881,-0.57821 -3.55113,-0.11485 -7.10038,-0.26951 -10.65281,-0.3401 -0.51545,0.12447 -1.75472,-0.35413 -1.81247,0.24133 0.008,0.081 0.0163,0.16219 0.0242,0.24299 z" /><path
         style="fill:#000000;stroke:#000000;stroke-width:0.799999"
         id="path6095"
         d="m 169.39303,143.51082 c 3.69227,-0.2276 7.39676,-0.2025 11.09512,-0.23972 0.97775,-0.004 1.95592,-0.0176 2.93339,-0.005 0.38752,-0.8949 -0.99033,-0.42565 -1.46645,-0.5341 -4.01618,0.035 -8.03756,-0.0263 -12.04881,0.20313 -0.55188,-0.0174 -0.66502,0.0753 -0.51325,0.57607 z" /><path
         style="fill:#000000;stroke:#000000;stroke-width:0.799999"
         id="path6097"
         d="m 168.23973,147.2091 c 2.43578,0.22792 4.85669,0.6403 7.307,0.7162 2.43427,0.10396 4.89076,0.16608 7.3161,0.11524 0.26768,-0.95687 -1.25993,-0.3296 -1.78866,-0.52378 -3.73444,-0.0624 -7.48439,-0.0552 -11.1875,-0.60729 -0.51015,0.0927 -1.82116,-0.60314 -1.64702,0.28811 v 0.0115 z" /><path
         style="fill:#000000;stroke:#000000;stroke-width:0.799999"
         id="path6099"
         d="m 166.97164,149.88906 c 2.10125,0.24105 4.12236,0.91712 6.21857,1.19725 2.70225,0.46847 5.44366,0.6402 8.16839,0.92613 0.5006,0.10306 1.45475,0.16289 1.06141,-0.51518 -2.16956,-0.13643 -4.3303,-0.39858 -6.49519,-0.59752 -2.52201,-0.28452 -5.01295,-0.78096 -7.47915,-1.37147 -0.51578,0.006 -1.59701,-0.59915 -1.4658,0.27836 l -0.005,0.0483 -0.003,0.0341 z" /></g></g></svg>
