<?xml version="1.0" encoding="UTF-8" standalone="no"?>
<!-- Created with Inkscape (http://www.inkscape.org/) -->

<svg
   width="109.48005mm"
   height="45.300678mm"
   viewBox="0 0 109.48005 45.300678"
   version="1.1"
   id="svg5"
   xml:space="preserve"
   inkscape:version="1.2.2 (b0a84865, 2022-12-01)"
   sodipodi:docname="T683a-T683b.svg"
   xmlns:inkscape="http://www.inkscape.org/namespaces/inkscape"
   xmlns:sodipodi="http://sodipodi.sourceforge.net/DTD/sodipodi-0.dtd"
   xmlns="http://www.w3.org/2000/svg"
   xmlns:svg="http://www.w3.org/2000/svg"><sodipodi:namedview
     id="namedview7"
     pagecolor="#ffffff"
     bordercolor="#666666"
     borderopacity="1.0"
     inkscape:showpageshadow="2"
     inkscape:pageopacity="0.0"
     inkscape:pagecheckerboard="0"
     inkscape:deskcolor="#d1d1d1"
     inkscape:document-units="mm"
     showgrid="false"
     inkscape:zoom="2.7162503"
     inkscape:cx="161.98802"
     inkscape:cy="143.58029"
     inkscape:window-width="2560"
     inkscape:window-height="1298"
     inkscape:window-x="387"
     inkscape:window-y="76"
     inkscape:window-maximized="0"
     inkscape:current-layer="layer1" /><defs
     id="defs2" /><g
     inkscape:label="Layer 1"
     inkscape:groupmode="layer"
     id="layer1"
     transform="translate(-17.856582,-19.79454)"><g
       id="g6718"><path
         id="path907"
         style="opacity:1;fill:#000000;stroke:#000000;stroke-width:0.799999"
         d="m 34.859371,20.647319 c -4.194197,0.126702 -8.42394,1.569611 -11.682192,4.238418 -3.113655,2.944716 -3.472311,7.491338 -4.114777,11.482603 -0.631282,5.104444 -1.341262,10.384313 -0.196784,15.464193 1.195103,4.772708 4.124334,9.605412 9.087193,11.107311 5.778253,1.793906 11.947868,2.119682 17.935686,1.397903 3.812118,-0.312387 7.847626,-1.154964 10.662568,-3.948138 4.904011,-4.468571 6.581655,-11.277432 7.274081,-17.63655 0.758316,-5.836453 -0.318426,-12.208095 -4.124179,-16.847877 -3.02791,-3.369062 -8.009225,-5.578408 -12.444362,-3.723261 -1.925635,0.777634 -4.311741,2.239828 -4.287509,4.581255 0.85672,2.220797 3.710133,2.01201 5.51913,2.992466 3.28894,1.624452 4.91043,5.5701 4.16322,9.094589 -0.271987,3.119634 -2.912637,5.551209 -5.91995,6.073906 -3.757103,1.108321 -7.76036,0.538988 -11.500558,-0.318332 -3.252891,-1.005287 -6.790505,-3.173297 -7.616583,-6.70531 -0.214898,-2.789825 1.128481,-5.93205 3.812367,-7.09574 2.304824,-1.476237 5.330716,-0.786475 7.561073,-2.355321 1.824636,-1.437964 2.621731,-4.743035 0.441316,-6.227527 -0.502611,-1.113315 -3.079785,-1.591441 -4.56974,-1.574588 z m -0.01602,0.649056 c 2.070691,-0.02676 4.116963,0.530545 4.801258,2.339396 1.112593,2.160677 -0.911894,4.95302 -3.254074,5.065323 -3.464556,0.331378 -7.590186,1.639084 -8.893514,5.241541 -1.235265,2.498463 -0.908112,5.674747 1.158124,7.639032 3.011681,3.422878 7.678151,4.497326 12.049455,4.689407 3.066525,0.280091 6.24273,-0.291248 9.012685,-1.624524 3.632687,-1.985865 4.521607,-6.792252 3.437183,-10.49239 -0.974422,-3.09526 -3.751699,-5.390419 -6.9158,-5.978317 -2.258129,-0.108341 -3.353163,-2.490908 -1.249893,-3.790806 3.082759,-2.599868 7.798166,-2.642909 11.053274,-0.331243 4.621606,2.772555 6.613683,8.351347 6.994197,13.491184 0.157493,4.941755 -0.560058,9.957024 -2.214878,14.622053 -1.741282,5.068703 -5.677315,9.866793 -11.178215,10.852392 -4.016342,0.743867 -8.139168,1.07994 -12.221762,0.878213 -4.405726,-0.455383 -9.18381,-0.784781 -12.859358,-3.519054 -3.405025,-2.795939 -5.069323,-7.245075 -5.530126,-11.523721 -0.323941,-5.874148 0.393328,-11.779235 1.588732,-17.52375 0.533552,-3.197602 2.387142,-6.269789 5.439139,-7.605621 2.675613,-1.492924 5.723205,-2.336589 8.783573,-2.429115 z" /><path
         id="path909"
         style="opacity:1;fill:#000000;stroke:#000000;stroke-width:0.799999"
         d="m 40.403219,31.134017 c -1.377178,0.281471 -2.67441,0.243791 -3.953247,0.810795 -1.194988,0.635725 -1.633994,2.045368 -1.864267,3.292652 -0.273584,1.798223 0.0916,3.708754 1.049229,5.257492 0.840702,1.240072 2.091297,2.22848 3.56693,2.572871 2.160109,0.594777 4.593987,0.644146 6.632179,-0.387685 0.849078,-0.424116 1.578035,-1.090151 1.983119,-1.958139 0.628798,-1.134688 0.391443,-2.483865 0.170085,-3.695844 -0.349009,-1.517326 -0.899041,-3.115947 -2.186354,-4.095443 -1.494618,-1.235116 -3.467147,-1.856404 -5.397674,-1.796699 z m -0.0083,0.850594 c 2.120466,-0.06161 4.348304,0.763939 5.676567,2.464078 0.715718,1.092229 1.053775,2.396102 1.242017,3.676884 0.135548,0.925493 0.104328,1.930153 -0.474036,2.712224 -0.846544,1.288733 -2.447963,1.790602 -3.912656,1.945494 -1.630426,0.137166 -3.318074,-0.09892 -4.806772,-0.790652 -1.42622,-0.787561 -2.459228,-2.219631 -2.794635,-3.811247 -0.422152,-1.679524 -0.323864,-3.581502 0.635582,-5.062087 0.87999,-0.712292 3.461888,-1.085195 4.433933,-1.134699 z"
         sodipodi:nodetypes="ccccccccccsccccccccs" /><path
         style="opacity:1;fill:#000000;stroke:#000000;stroke-width:0.799999"
         id="path911"
         d="m 37.841896,24.763505 c -3.580986,-0.228598 -7.437297,0.651116 -10.16742,3.086704 -2.386173,2.251367 -3.246377,5.705569 -3.147964,8.892755 0.311208,3.084253 0.885562,6.602342 3.516857,8.604702 2.249074,1.510462 4.888226,2.334163 7.484361,3.030887 3.829094,0.799856 7.867595,1.172916 11.698719,0.17601 3.244794,-0.728697 6.692207,-2.166044 8.364292,-5.230673 1.802126,-3.448993 1.32879,-7.610416 0.144389,-11.180667 -1.133735,-3.194632 -3.441487,-6.22735 -6.715558,-7.398317 -0.612398,-0.431864 -1.974492,-0.154943 -1.183331,0.61387 2.862516,0.547303 5.029216,2.913211 6.335419,5.398533 1.558831,3.280526 2.23002,7.13418 1.297401,10.690067 -0.690266,2.557629 -2.797888,4.491788 -5.22416,5.416204 -3.33371,1.367324 -7.003395,1.908284 -10.585499,1.460532 -3.709853,-0.286684 -7.360236,-1.378251 -10.633209,-3.139473 -2.619675,-1.507783 -3.36557,-4.693991 -3.713504,-7.472985 -0.380894,-2.641097 0.15148,-5.440356 1.497684,-7.745524 1.929914,-3.048346 5.697843,-4.258905 9.121797,-4.522597 0.656827,-0.222303 2.231598,0.468458 1.909726,-0.680028 z" /><path
         style="opacity:1;fill:#000000;stroke:#000000;stroke-width:0.799999"
         id="path913"
         d="m 37.199199,48.442305 c -0.394975,1.266883 -0.719668,2.781745 0.08972,3.962998 0.599404,0.895572 1.817453,1.442139 2.844329,0.945739 1.743963,-0.639399 2.672652,-2.511015 2.82919,-4.269674 -0.06131,-0.780274 -1.094064,-0.06318 -0.976284,0.504474 -0.265361,1.016502 -0.464957,2.26513 0.363111,3.088609 0.909233,0.989152 2.590878,1.474783 3.713151,0.546057 1.200441,-0.923005 1.486478,-2.538189 1.610538,-3.955039 0.07624,-0.554699 0.08274,-1.244541 -0.640764,-0.990432 -0.366864,0.583558 0.03246,1.79933 -0.373016,2.569311 -0.208507,0.994815 -0.859519,2.126862 -1.986421,2.190314 -1.054842,-0.0094 -2.338163,-0.759837 -2.291314,-1.939925 -0.05779,-0.617372 0.372115,-1.485011 0.342087,-1.904472 -0.785658,-0.536983 -0.336475,0.864084 -0.757314,1.324843 -0.3996,1.234736 -1.473195,2.341313 -2.818152,2.422588 -1.250962,-0.09417 -1.9743,-1.490555 -1.779904,-2.641901 -0.104247,-0.551807 0.58963,-1.465098 0.119885,-1.74847 -0.09628,-0.035 -0.192555,-0.07004 -0.288838,-0.10502 z" /><path
         style="opacity:1;fill:#000000;stroke:#000000;stroke-width:0.799999"
         id="path917"
         d="m 33.718021,48.015477 c -0.550229,1.871936 -0.983565,3.811772 -0.973387,5.772415 0.0028,1.554309 1.086312,2.868341 2.399063,3.584837 1.817633,1.147822 4.07449,1.195762 6.128359,0.812735 2.238389,-0.402593 4.528036,-0.887514 6.511225,-2.048545 1.518218,-1.053369 2.742408,-2.588889 3.196495,-4.402517 0.408214,-1.590209 0.730897,-3.244677 0.594347,-4.891816 -0.498742,-0.319305 -1.084447,0.0868 -0.828511,0.690242 -0.07729,1.833786 -0.333224,3.709212 -1.091632,5.395222 -0.930201,1.689713 -2.528088,2.975464 -4.361107,3.566931 -1.907015,0.661691 -3.907725,1.062616 -5.917495,1.230834 -1.938498,0.139867 -3.968101,-0.560419 -5.273223,-2.026952 -0.980153,-1.151147 -0.701684,-2.757501 -0.520727,-4.128479 0.179066,-1.125499 0.430736,-2.241909 0.718937,-3.343142 -0.194096,-0.07058 -0.38834,-0.141206 -0.582344,-0.211765 z" /></g><g
       id="g6711"
       transform="translate(12.700002)"><path
         id="path919"
         style="opacity:1;fill:#000000;stroke:#000000;stroke-width:0.799999"
         d="m 101.53747,20.194633 c -2.613306,0.08905 -5.313346,1.200157 -7.114503,3.116197 -1.653794,1.693083 -0.147897,4.045006 1.80083,4.566678 2.95269,1.331923 6.198573,2.908152 7.756303,5.904159 0.8131,2.901563 -1.25753,5.780583 -3.44818,7.485371 -4.113526,3.394146 -9.856364,3.435333 -14.839397,2.457132 -3.567282,-0.651991 -6.599353,-4.116661 -6.018331,-7.827022 0.510888,-3.470922 3.755857,-5.688401 6.957724,-6.443641 2.193637,-0.619791 4.961435,-2.107907 4.813739,-4.736898 -0.394191,-2.025664 -2.464364,-2.964079 -4.166555,-3.71475 -3.712859,-1.226116 -7.617966,0.640752 -10.571595,2.83168 -4.365308,3.695256 -6.919085,9.330479 -7.257086,15.006239 -0.26423,5.070985 0.546098,10.271844 2.614669,14.924659 1.817668,3.311478 4.296937,6.354417 7.371896,8.567374 4.162868,2.68778 9.321979,2.587611 14.040032,1.886469 5.263166,-0.797736 10.644344,-2.566748 14.655394,-6.194026 3.70201,-3.345807 5.79484,-8.194619 5.99533,-13.148428 0.45788,-6.479477 -0.47086,-13.33715 -3.93927,-18.936853 -1.9019,-2.984669 -4.92576,-5.693265 -8.651,-5.74434 z m -0.0346,0.866614 c 4.45205,0.160516 7.5023,4.148086 9.23354,7.853782 2.65991,6.512777 3.32274,13.926892 1.56699,20.759131 -1.58928,5.709325 -6.39386,10.1044 -11.93063,11.959754 -4.679795,1.708265 -9.75299,2.49097 -14.724367,2.064919 -3.613216,-0.481676 -6.995661,-2.326219 -9.222297,-5.235943 -2.5127,-2.737333 -4.406338,-6.04276 -5.15848,-9.701842 -1.587308,-6.484522 -1.592074,-13.799292 2.07016,-19.617812 2.385496,-4.31603 6.917112,-7.701907 11.959349,-7.781303 1.795408,0.217581 3.778051,0.979699 4.508224,2.122937 2.165614,2.080479 -0.840808,4.485905 -2.893449,4.961116 -3.087818,0.798786 -6.287061,2.422481 -7.582586,5.525061 -1.874344,4.003355 0.815301,8.959848 4.901972,10.221988 3.467259,1.072648 7.254874,1.239822 10.818896,0.562243 4.46062,-0.971659 8.937568,-4.143427 9.909388,-8.825877 0.62721,-3.118604 -2.19977,-5.289238 -4.47942,-6.830404 -1.834822,-1.393211 -4.616498,-1.610667 -5.916921,-3.598805 -0.09999,-2.469949 2.857702,-3.387543 4.743865,-4.121654 0.708296,-0.231613 1.450426,-0.343023 2.195766,-0.317291 z" /><path
         id="path921"
         style="opacity:1;fill:#000000;stroke:#000000;stroke-width:0.799999"
         d="m 95.492879,31.793408 c -0.342156,0.35206 -0.607658,0.810893 -0.607198,1.314132 -0.02328,0.515151 0.228215,1.017953 0.594796,1.368392 0.508931,0.438068 1.221557,0.612124 1.879988,0.51418 0.585025,-0.123494 1.095289,-0.514023 1.415418,-1.012341 0.267032,-0.468595 0.342191,-1.053288 0.135392,-1.559078 -0.182444,-0.561166 -0.624176,-1.043455 -1.190108,-1.229899 -0.467402,-0.340816 -0.29716,0.151237 -0.350366,0.310575 -0.07298,0.175387 -0.439807,-0.0057 0.224078,0.3141 0.461979,0.170382 0.626686,0.80208 0.633234,1.280635 -0.01668,0.312211 -0.176876,0.591846 -0.399976,0.803569 -0.267327,0.27915 -0.659045,0.449029 -1.048515,0.38809 -0.447861,-0.03695 -0.948469,-0.211812 -1.150834,-0.648023 -0.236806,-0.413903 -0.119431,-0.956777 0.21239,-1.283643 0.377228,-0.386141 0.872871,-0.661334 1.405599,-0.756026 0.690365,-1.173223 -1.340333,-0.20352 -1.753898,0.195337 z"
         sodipodi:nodetypes="cccccccccccccccc" /><path
         id="path923"
         style="opacity:1;fill:#000000;stroke:#000000;stroke-width:0.799999"
         d="m 92.106523,34.769454 c -0.54058,0.0038 -1.084481,0.177735 -1.518099,0.501723 -0.542237,0.430518 -0.945541,1.118177 -0.847867,1.827813 0.07193,0.721186 0.665006,1.307435 1.337762,1.51427 0.547941,0.137712 1.163952,0.09647 1.658549,-0.190673 0.459955,-0.297466 0.840937,-0.72141 1.095012,-1.205721 0.21945,-0.399076 0.236246,-0.88647 0.07386,-1.30848 -0.140198,-0.437459 -0.483494,-0.783563 -0.884222,-0.993714 -1.048021,-0.422955 -0.480564,0.273087 -0.590984,0.559648 0.088,0.191841 0.395857,0.211245 0.523489,0.404106 0.237749,0.274622 0.33796,0.701914 0.126375,1.021924 -0.222957,0.385779 -0.526201,0.751742 -0.932879,0.95033 -0.408443,0.14973 -0.911418,0.174025 -1.273561,-0.102439 -0.277874,-0.183819 -0.481319,-0.489899 -0.482063,-0.830291 -0.0058,-0.496694 0.342376,-0.929537 0.740014,-1.191446 0.364444,-0.199983 0.782398,-0.311994 1.19941,-0.285256 0.06595,-0.428864 0.219116,-0.645771 -0.224793,-0.671792 z"
         sodipodi:nodetypes="sccccccccccccccccs" /><path
         id="path925"
         style="opacity:1;fill:#000000;stroke:#000000;stroke-width:0.799999"
         d="m 86.907874,37.800793 c -0.452483,-0.0025 -0.913567,0.0882 -1.298582,0.336069 -0.366975,0.240516 -0.661434,0.584711 -0.888564,0.956883 -0.282015,0.471433 -0.425515,1.072558 -0.207563,1.597647 0.159222,0.391904 0.508094,0.719803 0.935816,0.784449 0.735058,0.143139 1.512263,-0.161578 2.013903,-0.704839 0.32932,-0.35092 0.642204,-0.753385 0.720599,-1.241716 0.0951,-0.445307 -0.01741,-0.931661 -0.296782,-1.291453 -0.06965,-0.235911 -0.29295,-0.170558 -0.408447,-0.01912 -0.126577,0.148022 -0.255503,0.294085 -0.376041,0.447146 0.155975,0.160501 0.277715,0.377102 0.276745,0.612225 -0.01884,0.457963 -0.345978,0.822734 -0.662035,1.121885 -0.355011,0.315739 -0.873981,0.467569 -1.334364,0.322146 -0.295063,-0.152595 -0.349791,-0.533673 -0.274366,-0.828954 0.120657,-0.454147 0.432938,-0.839883 0.796168,-1.127492 0.35291,-0.248225 0.798911,-0.290229 1.217989,-0.27706 0.01344,-0.385634 1.052153,-0.652527 -0.214476,-0.68782 z"
         sodipodi:nodetypes="sccccccccccccccccs" /><path
         style="opacity:1;fill:#000000;stroke:#000000;stroke-width:0.799999"
         id="path927"
         d="m 87.77789,24.320775 c -0.557131,-0.51655 -5.550753,2.038256 -7.913081,3.763674 -2.348619,1.999723 -4.728977,4.568552 -4.820316,7.835636 -0.214466,3.816564 2.272913,7.332879 5.452892,9.234301 2.964851,1.812768 6.336714,2.990643 9.825688,3.138251 5.135807,0.340629 10.532907,-0.963224 14.533937,-4.305243 3.12672,-2.678919 3.8304,-7.316921 2.75678,-11.133799 -0.54665,-2.246437 -1.69779,-4.337746 -3.43684,-5.883411 -1.45144,-1.505782 -3.32057,-2.674225 -5.419637,-2.963894 -0.874538,1.358281 1.592157,1.015142 2.261857,1.70776 2.52298,1.499853 4.70325,3.83665 5.49456,6.718099 1.13348,3.416983 0.89562,7.616106 -1.66638,10.345818 -2.30042,2.242622 -5.374347,3.575117 -8.477992,4.272837 -3.895311,0.801229 -8.061256,0.606744 -11.795955,-0.801779 -3.221436,-1.27911 -6.56696,-3.179424 -7.964432,-6.533986 -1.367775,-2.721689 -0.835978,-6.200512 1.235402,-8.424233 1.048775,-2.713568 10.432051,-6.145399 9.933517,-6.970031 z"
         sodipodi:nodetypes="ccccccccccccccccc" /><path
         style="opacity:1;fill:#000000;stroke:#000000;stroke-width:0.799999"
         id="path929"
         d="m 88.518451,47.972194 c -0.268063,0.654436 -0.356088,1.368476 -0.438266,2.066236 -0.07763,1.039436 0.344973,2.23494 1.349761,2.68487 0.973233,0.32457 2.052945,-0.05319 2.834919,-0.658165 1.014253,-0.813062 1.34958,-2.135323 1.685996,-3.331175 0.345778,-0.492687 -0.354759,-0.598125 -0.687092,-0.583725 -0.271967,0.735476 -0.360708,1.553573 -0.227021,2.328363 0.269219,0.951562 1.16497,1.658933 2.120833,1.82873 0.823573,0.114206 1.725249,0.03623 2.403425,-0.490439 0.791296,-0.578859 1.271021,-1.528405 1.40518,-2.488055 0.09963,-0.820046 0.01795,-1.696694 -0.389304,-2.428027 -0.254185,-0.03865 -0.411579,0.198713 -0.62407,0.284825 -0.426021,0.09655 0.194042,0.624106 0.09544,0.926016 0.210218,1.179551 -0.181209,2.574693 -1.254566,3.215004 -0.548138,0.275261 -1.20453,0.253764 -1.791718,0.136319 -0.690431,-0.228756 -1.348181,-0.860335 -1.267539,-1.641416 -0.09037,-0.452793 0.306626,-1.034117 0.117287,-1.381813 -0.314162,-0.09476 -0.691644,-0.376603 -0.684582,0.151478 -0.329333,1.040341 -0.583408,2.228828 -1.505198,2.92063 -0.56035,0.380272 -1.295153,0.676157 -1.971652,0.461281 -0.777495,-0.352727 -0.983699,-1.328355 -0.87507,-2.101023 0.08313,-0.544213 0.144519,-1.098715 0.337775,-1.61788 -0.211491,-0.09401 -0.423157,-0.188046 -0.63454,-0.282034 z" /><path
         style="opacity:1;fill:#000000;stroke:#000000;stroke-width:0.799999"
         id="path931"
         d="m 85.520524,47.022435 c -0.872446,1.863745 -1.403323,4.009662 -0.954559,6.057769 0.490594,1.984127 2.262541,3.441789 4.187473,3.956699 2.133683,0.68291 4.469363,0.57923 6.618944,0.02128 2.442363,-0.771105 4.641838,-2.264739 6.361488,-4.152871 1.49464,-1.687464 2.05164,-4.134697 1.42057,-6.301067 -0.27725,-0.458461 -0.0993,-1.909614 -0.91171,-1.54294 -0.948,0.170769 0.079,1.134559 0.017,1.752331 0.63785,2.173532 -0.0363,4.679482 -1.74983,6.179954 -1.561693,1.485626 -3.420734,2.720156 -5.493735,3.353217 -2.267866,0.584297 -4.755956,0.581615 -6.933542,-0.349828 -1.645936,-0.656858 -2.981988,-2.265006 -2.973438,-4.089399 -0.08605,-1.599854 0.431834,-3.152342 0.980557,-4.632176 -0.189739,-0.08432 -0.379483,-0.168682 -0.569218,-0.252969 z" /></g></g></svg>
