<?xml version="1.0" encoding="UTF-8" standalone="no"?>
<!-- Created with Inkscape (http://www.inkscape.org/) -->

<svg
   width="53.213223mm"
   height="25.401045mm"
   viewBox="0 0 53.213223 25.401045"
   version="1.1"
   id="svg5"
   xml:space="preserve"
   inkscape:version="1.2.2 (b0a84865, 2022-12-01)"
   sodipodi:docname="ta-ix-ajaw-wa.svg"
   xmlns:inkscape="http://www.inkscape.org/namespaces/inkscape"
   xmlns:sodipodi="http://sodipodi.sourceforge.net/DTD/sodipodi-0.dtd"
   xmlns="http://www.w3.org/2000/svg"
   xmlns:svg="http://www.w3.org/2000/svg"><sodipodi:namedview
     id="namedview7"
     pagecolor="#ffffff"
     bordercolor="#666666"
     borderopacity="1.0"
     inkscape:showpageshadow="2"
     inkscape:pageopacity="0.0"
     inkscape:pagecheckerboard="0"
     inkscape:deskcolor="#d1d1d1"
     inkscape:document-units="mm"
     showgrid="false"
     inkscape:zoom="3.841358"
     inkscape:cx="59.744496"
     inkscape:cy="39.56934"
     inkscape:window-width="2560"
     inkscape:window-height="1298"
     inkscape:window-x="0"
     inkscape:window-y="25"
     inkscape:window-maximized="1"
     inkscape:current-layer="layer1" /><defs
     id="defs2" /><g
     inkscape:label="Layer 1"
     inkscape:groupmode="layer"
     id="layer1"
     transform="translate(-73.126509,-35.489111)"><path
       id="path3113"
       style="opacity:1;fill:#000000;fill-opacity:1;stroke:none;stroke-width:1.3;stroke-opacity:1"
       d="m 81.883374,35.709448 c -1.517557,0.0045 -2.974966,0.634231 -4.237839,1.380672 -1.660313,1.283155 -2.420191,3.359663 -3.000633,5.305514 -0.919646,2.724804 -1.168026,5.601715 -1.362838,8.451994 -0.151572,2.464811 -0.49777,5.147943 0.833774,7.370533 0.89052,1.41026 2.633221,1.947652 4.227557,1.851829 1.778336,0.0098 3.462822,-0.974536 4.41326,-2.463156 1.954425,-2.65484 2.793244,-5.984992 2.874392,-9.2452 0.152092,-3.079873 0.27516,-6.165394 0.248727,-9.248288 -0.04766,-1.438836 -0.972461,-2.854929 -2.412715,-3.213987 -0.511378,-0.161826 -1.051097,-0.191014 -1.583685,-0.189911 z m 0.0031,1.013892 c 1.14177,-0.07742 2.494822,0.407546 2.81456,1.618129 0.357303,1.320788 0.08631,2.705015 0.136489,4.053734 -0.09345,2.644146 -0.139013,5.295199 -0.388167,7.930014 -0.366726,2.849484 -1.381157,5.749855 -3.445998,7.815951 -1.316982,1.111839 -3.263754,1.232745 -4.832813,0.644204 -1.110802,-0.431967 -1.656025,-1.579477 -1.890835,-2.676657 -0.371956,-2.056459 -0.02714,-4.153001 0.06391,-6.221538 0.156255,-2.590891 0.545363,-5.17717 1.390011,-7.63955 0.475322,-1.627155 1.187539,-3.168368 2.417673,-4.449422 0.839359,-0.483985 1.855093,-0.900324 2.876306,-0.990639 0.283384,-0.0514 0.571079,-0.07723 0.858861,-0.08423 z"
       sodipodi:nodetypes="cccccccccccsccccccccccss" /><path
       style="opacity:1;fill:#000000;fill-opacity:1;stroke:none;stroke-width:1.3;stroke-opacity:1"
       id="path3115"
       d="m 85.105649,39.60115 c -0.794568,-0.580738 -1.881579,-0.544165 -2.800354,-0.315306 -1.048353,0.212828 -2.036641,0.797579 -2.609064,1.720022 -1.28505,1.827663 -1.899896,4.011572 -2.322123,6.178746 -0.360241,1.744295 -0.637325,3.557527 -0.345662,5.332311 0.319843,1.359245 1.514037,2.458858 2.900682,2.653887 0.832581,0.166025 1.70761,0.07881 2.525229,-0.124168 0.444811,-0.190959 1.339436,-0.288659 1.409597,-0.750105 -0.276173,-0.456845 -0.870571,0.285179 -1.32952,0.261718 -1.083221,0.247446 -2.268954,0.277594 -3.313012,-0.142593 -0.543513,-0.330921 -1.17646,-0.637884 -1.403445,-1.281671 -0.47843,-1.020211 -0.350466,-2.183641 -0.304022,-3.274958 0.156387,-1.671176 0.540935,-3.314316 0.950653,-4.939072 0.483684,-1.510126 1.052944,-3.064911 2.139207,-4.253928 0.78985,-0.772148 1.946882,-1.044929 3.019981,-1.069797 0.475513,-0.142752 1.069259,0.527385 1.377035,0.240753 0.03494,-0.07861 0.06988,-0.157227 0.104818,-0.235839 z" /><path
       style="opacity:1;fill:#000000;fill-opacity:1;stroke:none;stroke-width:1.3;stroke-opacity:1"
       id="path3117"
       d="m 77.849729,46.935903 c 0.523476,-0.171133 1.054035,-0.324676 1.590434,-0.452768 1.297961,-0.353612 2.660138,-0.475269 3.999569,-0.346296 0.428162,0.06503 0.891731,0.110474 1.251452,0.373429 0.122313,0.152434 0.440116,0.07658 0.463899,-0.130172 -0.09766,-0.254386 -0.381271,-0.300997 -0.613828,-0.42375 -0.743864,-0.340855 -1.582003,-0.338679 -2.384016,-0.339609 -1.004443,0.02353 -2.003739,0.178432 -2.969616,0.454515 -0.492274,0.135471 -0.981186,0.289975 -1.448654,0.495561 0.03691,0.122967 0.07389,0.246437 0.11076,0.36909 z" /><path
       style="opacity:1;fill:#000000;fill-opacity:1;stroke:none;stroke-width:1.3;stroke-opacity:1"
       id="path3119"
       d="m 77.227379,50.737632 c 0.431383,0.417629 1.066303,0.464412 1.633089,0.51897 0.992304,0.07241 1.987364,0.01073 2.97732,-0.06696 1.038861,-0.09871 2.040962,-0.435252 2.971405,-0.898754 0.148798,-0.06189 0.413604,-0.09764 0.239175,-0.289962 -0.04809,-0.09079 -0.09618,-0.181591 -0.144262,-0.272386 -0.228232,0.09437 -0.478423,0.226842 -0.731253,0.305665 -0.833078,0.300974 -1.686064,0.580582 -2.574927,0.648499 -0.803604,0.08668 -1.613694,0.122156 -2.421617,0.119701 -0.558956,-0.0259 -1.152708,-0.01697 -1.659646,-0.286101 -0.09221,-0.04799 -0.162906,0.126915 -0.245598,0.177527 -0.01454,0.01461 -0.02928,0.02915 -0.04369,0.0438 z" /><path
       style="opacity:1;fill:#000000;fill-opacity:1;stroke:none;stroke-width:1.3;stroke-opacity:1"
       id="path3121"
       d="m 79.519282,46.375692 c 0.639965,-0.32081 1.195979,-0.803246 1.597382,-1.396757 0.263432,-0.377082 0.442314,-0.80292 0.628607,-1.220917 0.121218,-0.255855 0.202916,-0.52599 0.31524,-0.785407 0.01685,-0.07754 0.178754,-0.304196 0.0418,-0.155257 -0.101174,0.02684 -0.288025,-0.08796 -0.314422,-0.05617 0.0041,0.430628 0.03958,0.862595 0.148456,1.280616 0.111777,0.4761 0.280683,0.939124 0.521738,1.365386 0.103725,0.217469 0.24277,0.416965 0.365557,0.621642 0.07028,0.03341 0.191832,-0.07884 0.278104,-0.120942 0.133186,-0.05969 0.163214,-0.135599 0.04981,-0.233885 -0.330085,-0.531617 -0.601733,-1.104206 -0.746486,-1.715344 -0.125029,-0.410843 -0.172356,-0.839562 -0.184834,-1.267381 0.0226,-0.208348 -0.409067,-0.343752 -0.455357,-0.09644 -0.0788,0.256288 -0.183215,0.504466 -0.303338,0.743893 -0.150888,0.338459 -0.324914,0.666264 -0.525525,0.977886 -0.337603,0.522357 -1.44827,1.629123 -1.585292,1.75 0.05618,0.103026 0.112421,0.206039 0.16856,0.309073 z"
       sodipodi:nodetypes="sccccccccccccccccss" /><path
       style="opacity:1;fill:#000000;fill-opacity:1;stroke:none;stroke-width:1.3;stroke-opacity:1"
       id="path3125"
       d="m 78.938603,51.145392 c 0.175628,0.36276 0.411358,0.694991 0.566088,1.068749 0.140994,0.32094 0.274954,0.645104 0.393286,0.975072 0.06593,0.17932 0.08616,0.373215 0.157206,0.549782 0.104609,0.186758 0.352887,0.104517 0.444822,-0.04772 0.331115,-0.485301 0.679821,-0.958599 1.003062,-1.449439 0.162775,-0.254495 0.344173,-0.495907 0.545763,-0.720916 0.09658,-0.133463 0.218948,-0.243506 0.337312,-0.356193 0.11597,-0.06326 0.05936,-0.176948 -0.01989,-0.241684 -0.118525,-0.0607 -0.240017,0.111889 -0.335395,0.181418 -0.378849,0.292396 -0.646454,0.695634 -0.906799,1.090686 -0.300324,0.453869 -0.629784,0.887613 -0.933556,1.33896 0.05534,-0.0469 0.18515,0.145566 0.118688,0.01428 -0.116138,-0.4339 -0.196148,-0.878333 -0.353434,-1.300468 -0.166202,-0.447508 -0.400504,-0.867554 -0.671043,-1.259961 -0.04133,-0.04759 -0.110187,0.04188 -0.163949,0.0562 -0.06066,0.03373 -0.121794,0.06762 -0.182163,0.101238 z" /><path
       style="fill:#000000;stroke-width:1.3"
       id="path310"
       d="m 94.244307,42.502682 c 0.769876,0.158824 1.488149,0.496348 2.253467,0.673866 0.937961,0.257316 1.907907,0.41029 2.881123,0.423509 0.500971,0.0026 0.999133,-0.06402 1.498313,-0.09461 0.18894,-0.01457 0.16326,-0.200854 0.15059,-0.332519 -0.0607,-0.271032 -0.43698,-0.105228 -0.63212,-0.107981 -0.642785,0.06557 -1.290465,0.08767 -1.934208,0.02257 -0.82175,-0.05379 -1.629306,-0.240418 -2.420543,-0.461039 -0.588909,-0.157912 -1.149746,-0.446212 -1.767015,-0.47913 -0.0099,0.118442 -0.01975,0.236885 -0.02961,0.355327 z" /><path
       style="fill:#000000;stroke-width:1.3"
       id="path312"
       d="m 95.702651,42.631251 c -0.649663,0.108308 -1.257161,0.465477 -1.666718,0.980679 -0.142262,0.180523 -0.250887,0.492333 -0.02467,0.655486 0.27118,0.183234 0.615122,0.228992 0.935643,0.237742 0.576271,-0.01026 1.14622,-0.161217 1.673551,-0.3877 0.334865,-0.177671 0.644695,-0.405698 0.891576,-0.695257 0.259962,-0.09292 -0.127669,-0.265888 -0.218301,-0.363275 -0.09988,0.294992 -0.408934,0.448701 -0.656147,0.607978 -0.482764,0.276666 -1.038053,0.417541 -1.590169,0.462133 -0.287722,0.0081 -0.59494,0.0075 -0.852491,-0.136464 -0.08264,-0.18122 0.192638,-0.382219 0.326985,-0.504888 0.351366,-0.29284 0.808679,-0.403869 1.247009,-0.491863 -0.02209,-0.121524 -0.0442,-0.243045 -0.06627,-0.364571 z" /><path
       style="fill:#000000;stroke-width:1.3"
       id="path316"
       d="m 95.095157,43.013251 c -0.246409,0.07299 -0.501611,0.430297 -0.179878,0.588659 0.362076,0.202277 0.820338,-0.294138 0.586523,-0.636797 -0.07881,-0.04091 -0.123166,-0.160645 -0.124215,-0.140682 -0.103922,0.108989 -0.210507,0.215508 -0.312671,0.326128 0.09959,-0.09596 0.08622,0.133735 0.08456,0.0065 -0.04517,0.0821 -0.102566,0.12842 -0.08001,0.245233 0.100336,-0.06651 0.171933,-0.133996 0.0736,-0.269003 -0.01589,-0.03994 -0.03237,-0.08052 -0.04791,-0.120069 z" /><path
       style="fill:#000000;stroke-width:1.3"
       id="path320"
       d="m 115.96065,46.10537 c -0.82396,-0.770128 -1.93414,-1.177248 -3.02664,-1.390298 -1.48136,-0.236965 -2.97318,0.183209 -4.36042,0.669721 -1.35955,0.549603 -2.52459,1.502833 -3.49191,2.590125 -0.80714,1.046142 -1.59012,2.295695 -1.49151,3.670876 0.11712,1.27597 1.04487,2.378522 2.23286,2.816964 1.93583,0.769545 4.20159,0.806675 6.09139,-0.121805 0.94042,-0.447502 1.808,-1.042905 2.59512,-1.723009 0.34212,-0.187382 0.18456,-0.394673 -0.1031,-0.495807 -0.30508,0.142986 -0.82938,0.768768 -1.30514,0.988197 -1.29904,0.738648 -2.74311,1.333145 -4.26308,1.31551 -1.21591,-9.78e-4 -2.45195,-0.275158 -3.51793,-0.86832 -1.0011,-0.660143 -1.46533,-2.022211 -1.00988,-3.143895 0.51953,-1.460425 1.58392,-2.665752 2.81914,-3.574982 1.46707,-1.102693 3.32762,-1.66924 5.15789,-1.630418 1.19048,0.07098 2.3444,0.556272 3.2697,1.30089 0.1344,-0.134562 0.26961,-0.269288 0.40351,-0.403749 z" /><path
       style="fill:#000000;stroke-width:1.3"
       id="path324"
       d="m 104.50523,52.761636 c 0.63242,-0.76861 1.62182,-1.123424 2.3099,-1.837102 0.49773,-0.452368 0.89646,-0.994803 1.34819,-1.489415 0.39872,-0.441741 1.01049,-0.802705 1.6216,-0.643731 0.41735,0.16933 0.43584,0.766117 0.1309,1.052234 -0.73334,0.806213 -1.64183,1.425569 -2.48055,2.114191 -1.3554,1.013708 -2.58866,2.215536 -4.10244,2.999399 -0.36198,0.155966 -0.89092,0.277991 -1.15649,-0.109614 -0.0224,-0.35482 0.40949,-0.601493 0.62635,-0.869424 0.38828,-0.361595 0.79517,-0.714952 1.27018,-0.955597 0.39786,-0.03938 -0.0654,-0.684924 -0.23675,-0.276958 -0.77867,0.441499 -1.49798,1.013165 -2.01357,1.752296 -0.24595,0.317473 -0.0261,0.73671 0.29221,0.902288 0.45781,0.274786 1.03692,0.127081 1.49252,-0.08136 1.6458,-0.883639 2.98383,-2.211824 4.4656,-3.328539 0.76767,-0.615932 1.59199,-1.18827 2.22192,-1.952889 0.35167,-0.460038 0.2786,-1.197146 -0.22073,-1.522628 -0.61601,-0.340436 -1.37412,-0.03054 -1.85075,0.414388 -0.56948,0.53297 -1.06122,1.143282 -1.62879,1.679223 -0.49713,0.541058 -1.15671,0.879388 -1.71563,1.345264 -0.14148,0.208178 -0.68207,0.429304 -0.53974,0.642408 0.0554,0.05506 0.11039,0.111092 0.16607,0.165566 z" /><path
       style="fill:#000000;stroke-width:1.3"
       id="path332"
       d="m 91.730485,46.59662 c -0.108003,0.28014 -0.147063,0.604037 -0.04877,0.892244 0.136197,0.304574 0.486839,0.434253 0.799141,0.449027 0.301819,0.02063 0.568567,-0.143161 0.843894,-0.237667 0.08256,-0.07195 2.19e-4,-0.17694 -0.05736,-0.23701 -0.05131,-0.0649 -0.112538,-0.159428 -0.209229,-0.12735 -0.07056,0.169089 -0.239271,0.247303 -0.420964,0.226934 -0.222292,0.0097 -0.450225,-0.09304 -0.583779,-0.271025 -0.07328,-0.1747 -0.04526,-0.371263 0.01266,-0.546039 -0.111858,-0.04969 -0.223765,-0.0995 -0.335593,-0.149114 z" /><path
       style="fill:#000000;stroke-width:1.3"
       id="path334"
       d="m 93.822725,48.523376 c -0.07125,0.434561 0.270498,0.858157 0.689079,0.945165 0.270768,0.0678 0.566932,0.056 0.827546,-0.04489 0.130587,-0.07601 0.249677,-0.171101 0.371855,-0.259397 0.136569,-0.136004 -0.102653,-0.280676 -0.228059,-0.305423 -0.159777,-0.03111 -0.115842,0.263742 -0.309517,0.235499 -0.29059,0.04143 -0.639645,0.03737 -0.856284,-0.190672 -0.114224,-0.09645 -0.09954,-0.269162 -0.153513,-0.380319 -0.113699,2.5e-5 -0.227423,-4.9e-5 -0.341107,3.7e-5 z" /><path
       style="fill:#000000;stroke-width:1.3"
       id="path338"
       d="m 113.67184,36.911428 c -0.47773,-0.314624 -1.09323,-0.333963 -1.64883,-0.30726 -0.95053,0.149912 -1.85717,0.503406 -2.75147,0.848155 -1.06997,0.391074 -2.05638,1.006943 -2.84837,1.828998 -0.76407,0.801941 -1.44217,1.755941 -1.67236,2.856997 -0.12975,0.757132 0.22391,1.575085 0.90932,1.943975 0.81286,0.457572 1.79564,0.47046 2.69222,0.317929 0.82251,-0.05941 1.52605,0.450191 2.30577,0.61683 0.21509,-0.02118 0.74786,0.378682 0.74954,0.0053 0.0333,-0.188375 0.11464,-0.400365 -0.17479,-0.376963 -0.69942,-0.150806 -1.35556,-0.441554 -2.03309,-0.662422 -0.60788,-0.19255 -1.23294,0.0305 -1.85191,-0.0221 -0.71574,-0.03341 -1.54894,-0.209821 -1.94834,-0.869758 -0.33016,-0.599787 -0.10058,-1.309192 0.20109,-1.869524 0.52834,-1.048601 1.40387,-1.883765 2.35663,-2.549074 1.11255,-0.683494 2.3933,-1.006941 3.61825,-1.425755 0.4957,-0.16372 1.19411,-0.412328 1.70145,-0.245234 0.26171,0.185128 2.67305,0.873544 0.34864,-0.0066 0.0153,-0.02771 0.0574,-0.177206 0.0463,-0.08351 z"
       sodipodi:nodetypes="cccccccccccccccccccc" /><path
       style="fill:#000000;stroke-width:1.3"
       id="path340"
       d="m 115.55443,43.475679 c -0.1422,0.242702 -0.34623,0.445356 -0.57304,0.609956 -0.25013,0.180481 -0.5318,0.311048 -0.80687,0.448305 -0.19024,0.09038 -0.38356,0.174317 -0.57697,0.257005 -0.0939,0.08594 -0.24,0.105154 -0.33653,0.15507 0.011,0.08668 0.0451,0.169336 0.0664,0.254278 0.0242,0.07062 0.0772,0.160811 0.14855,0.0782 0.12677,-0.04382 0.26372,-0.04471 0.38844,-0.09506 0.41678,-0.16838 0.82243,-0.36582 1.21054,-0.592626 0.28259,-0.172645 0.54343,-0.386648 0.73754,-0.657197 0.0298,-0.06803 0.16251,-0.15507 0.12861,-0.211877 -0.12884,-0.082 -0.25798,-0.164124 -0.38663,-0.246058 z" /><path
       style="fill:#000000;stroke-width:1.3"
       id="path407"
       d="m 102.03834,54.801915 c -0.26611,-0.02379 -0.54436,0.05991 -0.74433,0.239583 -0.15852,0.149283 -0.21801,0.377298 -0.21538,0.589498 0.003,0.218925 0.15096,0.40466 0.32419,0.524109 0.20964,0.14659 0.48155,0.184222 0.73075,0.146841 0.3567,-0.05428 0.67995,-0.283987 0.85541,-0.598359 0.0487,-0.08367 0.11853,-0.162985 0.12863,-0.262373 -0.0286,-0.04964 -0.0957,-0.05481 -0.14692,-0.07125 -0.081,-0.02104 -0.16135,-0.04544 -0.24468,-0.05522 -0.0297,0.06101 -0.0712,0.166759 -0.1309,0.2293 -0.12111,0.17268 -0.30731,0.306142 -0.51913,0.335203 -0.19593,0.03468 -0.41973,-0.0094 -0.55893,-0.159038 -0.0682,-0.06974 -0.0836,-0.170676 -0.0463,-0.260249 0.0509,-0.144101 0.19625,-0.224095 0.33135,-0.274835 0.0592,-0.03568 0.18129,0.01447 0.20271,-0.04207 0.011,-0.113535 0.0236,-0.228499 0.0335,-0.341145 z" /><path
       style="fill:#000000;stroke-width:1.3"
       id="path409"
       d="m 97.243896,36.673041 c -0.647019,-0.44843 -1.433202,-0.648949 -2.197941,-0.788866 -1.219726,-0.177782 -2.481543,-0.04051 -3.628761,0.413202 -1.471487,0.527735 -2.81469,1.533837 -3.535488,2.943738 -0.299532,0.553413 -0.430871,1.278322 -0.04501,1.82562 0.431075,0.648926 1.206912,0.944059 1.92368,1.157878 0.31597,0.188148 0.520405,0.05501 0.514276,-0.284473 0.205963,-0.406833 -0.379599,-0.368728 -0.621238,-0.52097 -0.488425,-0.209317 -1.094322,-0.421878 -1.28335,-0.970751 -0.09946,-0.467712 0.201377,-0.902492 0.4242,-1.288921 0.936892,-1.394501 2.535026,-2.240422 4.166343,-2.511956 1.240194,-0.189153 2.534492,-0.0273 3.675714,0.500952 0.254839,0.167593 0.392506,0.0548 0.467448,-0.195288 0.04669,-0.09331 0.09355,-0.187237 0.140132,-0.280165 z" /><circle
       id="path423"
       style="fill:#000000;stroke:#000000;stroke-width:0.264583"
       cx="120.9315"
       cy="47.583595"
       r="0.0079687061" /><path
       style="fill:#000000;stroke-width:1.3"
       id="path429"
       d="m 115.82526,48.982381 c 0.96341,-0.823172 2.25879,-1.109891 3.48853,-1.248336 1.75362,-0.158517 3.6928,0.210645 4.91465,1.577843 1.08188,1.114767 1.0693,2.7799 0.85158,4.212945 -0.20215,1.608518 -0.69377,3.244881 -1.82636,4.452684 -1.15636,1.463142 -3.11516,2.069922 -4.92688,1.903749 -1.48566,-0.07292 -2.83455,-0.869893 -3.91291,-1.847721 -0.7366,-0.670401 -1.32074,-1.484913 -1.80402,-2.350383 -0.23687,0.156751 -0.47124,0.322493 -0.69816,0.493386 0.15445,0.319786 0.50814,0.993395 0.82579,1.385006 1.18712,1.569282 2.89266,2.833859 4.85035,3.207351 2.25786,0.41898 4.80316,-0.244151 6.30859,-2.047265 1.16395,-1.196753 1.78885,-2.795316 2.06483,-4.418997 0.29365,-1.677127 0.44146,-3.569371 -0.56728,-5.04924 -0.99773,-1.498773 -2.77561,-2.29552 -4.53367,-2.414112 -1.75082,-0.147545 -3.60172,0.172621 -5.08,1.157804 -0.46686,0.254127 -0.68389,0.697239 -0.10336,0.886284 0.0491,0.03286 0.10019,0.06661 0.14832,0.099 z" /><path
       style="fill:#000000;stroke-width:1.3"
       id="path431"
       d="m 115.0147,52.078469 c 0.73376,-0.301 1.56736,-0.281788 2.30812,-0.01284 0.6849,0.164968 1.09222,0.917778 1.0073,1.590481 -0.0537,0.761373 -0.50303,1.510326 -1.22127,1.813191 -0.63929,0.336246 -1.41091,0.328733 -2.07175,0.05791 -0.58319,-0.204747 -1.12508,-0.536086 -1.51561,-1.022322 -0.10781,0.0031 -0.49515,0.278224 -0.46279,0.428668 0.4076,0.492326 0.91578,0.902754 1.51553,1.135692 0.8275,0.37647 1.81367,0.476177 2.65582,0.08618 0.71946,-0.275921 1.30265,-0.858595 1.56801,-1.582936 0.30378,-0.758013 0.30722,-1.687588 -0.19423,-2.364855 -0.27579,-0.440704 -0.75884,-0.688039 -1.25454,-0.795197 -0.72453,-0.186214 -1.51048,-0.22566 -2.21261,0.06919 -0.27709,0.05755 -0.39904,0.200379 -0.20791,0.424888 0.0286,0.05731 0.0574,0.114656 0.0859,0.17195 z" /><path
       style="fill:#000000;stroke-width:1.3"
       id="path433"
       d="m 115.31999,51.119378 c 0.56076,-0.217601 1.15425,-0.402292 1.76361,-0.324138 0.86492,0.06372 1.74314,0.434101 2.25532,1.158587 0.55918,0.817141 0.77781,1.872732 0.50931,2.834659 -0.19956,0.859671 -0.78379,1.681097 -1.65994,1.939002 -1.10049,0.37567 -2.32579,0.460318 -3.44856,0.133336 -0.5201,-0.164766 -0.98125,-0.466165 -1.36704,-0.849531 -0.24445,-0.114646 -0.50946,-0.669984 -0.74994,-0.305293 -0.34274,0.275469 0.26029,0.486771 0.40755,0.703629 0.54265,0.532634 1.20586,0.949425 1.95106,1.12645 1.13107,0.287885 2.33463,0.155779 3.44306,-0.168294 0.98311,-0.306111 1.74837,-1.125927 2.0713,-2.093478 0.3421,-0.989115 0.28579,-2.098477 -0.15625,-3.047468 -0.46248,-1.07936 -1.49661,-1.88557 -2.66095,-2.05563 -0.80855,-0.167767 -1.67037,0.0032 -2.38292,0.408549 -0.30957,0.09192 -0.16869,0.282177 -0.0344,0.451367 0.0195,0.02939 0.0394,0.05902 0.0588,0.08825 z" /><path
       id="path437"
       style="fill:#000000;stroke-width:1.3"
       d="m 122.19823,36.646342 c -1.42677,-0.04914 -2.77182,0.603627 -3.85565,1.487546 -0.94136,0.70053 -1.63905,1.688264 -2.02003,2.795334 -0.47535,1.125005 -0.59279,2.476738 0.0144,3.576495 0.68495,1.252924 1.86834,2.256077 3.28174,2.559848 0.79598,0.235997 1.63865,0.350642 2.46037,0.181776 1.22638,-0.194476 2.56188,-0.571981 3.34156,-1.610165 0.53108,-0.620197 0.52872,-1.623762 -0.0598,-2.20473 -0.35626,-0.373524 -0.88346,-0.593239 -1.40129,-0.547694 -0.50527,-0.172754 0.42776,-0.574063 0.58936,-0.756156 0.75666,-0.549847 1.66966,-1.166441 1.78532,-2.17971 0.0652,-0.849272 -0.45632,-1.648019 -1.08084,-2.17934 -0.791,-0.696469 -1.81954,-1.090893 -2.87215,-1.115692 l -0.0915,-0.0045 -0.0916,-0.003 z m -0.16795,0.888318 c 0.95892,-0.03442 1.928,0.276498 2.64299,0.926564 0.40215,0.37232 0.83126,0.920641 0.71551,1.501711 -0.26857,0.751677 -1.05774,1.112862 -1.62884,1.604554 -0.47734,0.337383 -1.02929,0.882166 -0.82263,1.523938 0.13971,0.35278 0.59801,0.663969 0.92467,0.606124 0.55196,-0.06734 1.20372,0.381654 1.08853,0.98912 -0.29171,0.904338 -1.25835,1.296566 -2.09536,1.538613 -0.95682,0.276787 -1.99015,0.332688 -2.94582,0.02055 -0.91246,-0.196475 -1.74637,-0.71385 -2.29936,-1.46975 -0.46358,-0.557613 -0.80122,-1.245089 -0.77974,-1.985055 0.0133,-0.931029 0.43036,-1.803187 0.84693,-2.616214 0.64457,-1.017957 1.66673,-1.744344 2.72589,-2.283594 0.51528,-0.214058 1.06834,-0.352971 1.62723,-0.356559 z m 1.71876,5.295801 v 0.01344 z" /><path
       id="path634"
       style="fill:#000000;stroke-width:1.3"
       d="m 110.90124,35.498092 c -1.27134,-0.101528 -2.42444,0.685851 -3.57446,0.945696 -3.1915,-0.506864 -6.47735,-1.26475 -9.700973,-0.592324 -2.502329,0.674084 -3.715099,3.20909 -5.704286,4.647867 -1.514067,1.228527 -3.536997,2.185615 -4.048936,4.245691 -0.726114,1.187762 0.772185,2.109006 0.962318,2.78334 -1.061542,0.536919 -2.120706,2.150353 -0.41776,2.641462 1.320315,0.708647 2.26491,2.048311 3.799442,2.362801 0.529141,0.135371 2.325561,0.563946 0.7694,0.672406 -1.549521,0.474408 -3.267558,0.476692 -4.696278,1.286304 -1.146472,0.529422 -1.877965,2.324786 -0.382899,2.96669 1.685969,0.836345 3.606708,0.989334 5.384416,1.565208 3.940249,0.880667 8.004816,0.803568 12.017766,0.93737 1.94208,-0.02173 3.92881,-0.573609 5.53389,-1.676779 1.14168,-0.877145 1.68731,-2.251618 2.59263,-3.334327 1.05529,-1.734163 2.3567,-3.433891 2.59516,-5.513195 0.54168,-2.909023 0.43168,-5.875663 0.65255,-8.813848 0.12394,-1.983836 -1.18949,-3.833726 -3.02784,-4.521255 -0.86247,-0.384312 -1.81384,-0.564922 -2.75414,-0.603107 z m -0.23254,0.843359 c 2.0441,0.02954 4.50202,0.984161 4.9754,3.200312 0.27399,1.744459 -0.1671,3.502941 -0.0934,5.259628 -0.15856,2.762084 -0.23266,5.722686 -1.82431,8.109582 -0.84588,1.459971 -1.81971,2.84469 -2.83135,4.190442 -1.16264,1.210865 -2.89838,1.634262 -4.4944,1.937581 -2.51565,0.159755 -5.03751,-0.121818 -7.554997,-0.154784 -2.583177,-0.117408 -5.146311,-0.529822 -7.620124,-1.28611 -1.123285,-0.357717 -2.729758,-0.323251 -3.379724,-1.422249 0.655469,-1.444711 2.45643,-1.469361 3.795895,-1.839389 0.950511,-0.373152 2.292791,-0.175197 2.933926,-1.063276 -7.43e-4,-1.414619 -2.027767,-1.243019 -2.930568,-1.796787 -1.212454,-0.667269 -2.163258,-1.727974 -3.435453,-2.314066 1.220661,-0.687852 2.292814,-2.269383 0.511597,-3.057178 -0.487247,-1.280074 0.614151,-2.603634 1.629238,-3.30169 1.828779,-1.268137 3.606078,-2.635358 5.003894,-4.386407 1.030874,-1.146702 2.484527,-1.890271 4.044791,-1.838598 2.525525,-0.103058 5.020585,0.358444 7.510115,0.701897 0.8977,0.182871 2.05882,-0.694069 3.06705,-0.871235 0.22692,-0.05291 0.45982,-0.07131 0.69242,-0.06767 z m -16.839285,16.773653 0.02584,0.03721 z" /><path
       style="fill:#000000;stroke-width:1.3"
       id="path636"
       d="m 90.197008,49.123647 c 0.485943,-0.02425 0.925169,0.285556 1.156355,0.69767 0.2765,0.493607 0.672081,0.941766 1.20742,1.157103 0.623019,0.283926 1.304687,0.40152 1.955341,0.606331 0.601973,0.179012 1.251461,0.527943 1.463678,1.160121 0.112397,0.527678 -0.238702,0.997779 -0.537184,1.394013 -0.208599,0.08366 -0.440388,0.500693 -0.05983,0.490943 0.293583,-0.188797 0.547931,-0.457709 0.752013,-0.745142 0.319856,-0.430349 0.469504,-1.041197 0.191516,-1.53065 -0.37407,-0.718964 -1.164014,-1.075932 -1.913602,-1.266805 -0.607119,-0.179893 -1.249448,-0.259317 -1.826504,-0.529228 -0.388088,-0.193042 -0.672947,-0.537374 -0.857985,-0.922782 -0.302809,-0.557329 -0.932598,-0.995304 -1.586362,-0.870004 0.01838,0.119462 0.03678,0.23904 0.05515,0.35843 z" /><path
       style="fill:#000000;stroke-width:1.3"
       id="path638"
       d="m 89.096952,50.159181 c -0.376677,0.209559 -0.814012,0.294317 -1.164862,0.553491 -0.302395,0.207594 -0.57154,0.485457 -0.720953,0.823702 -0.107475,0.256683 -0.05052,0.560476 0.132325,0.76853 0.338682,0.417088 0.861441,0.611564 1.339809,0.819638 0.553632,0.206276 1.116271,0.389678 1.65179,0.641251 0.255803,0.11713 0.506605,0.245649 0.751471,0.384118 0.09028,0.09787 0.118639,-0.145606 0.185497,-0.208613 0.06399,-0.09998 0.133092,-0.172444 -0.03277,-0.201192 -0.542841,-0.305128 -1.11354,-0.557454 -1.680397,-0.813907 -0.55675,-0.204481 -1.117149,-0.423569 -1.61141,-0.756171 -0.134906,-0.106696 -0.364198,-0.242994 -0.285284,-0.447557 0.105346,-0.251442 0.341331,-0.418731 0.5564,-0.572195 0.351588,-0.225731 0.761296,-0.34337 1.109199,-0.575634 -0.07694,-0.138481 -0.153884,-0.277008 -0.230819,-0.415461 z" /></g></svg>
