<?xml version="1.0" encoding="UTF-8" standalone="no"?>
<!-- Created with Inkscape (http://www.inkscape.org/) -->

<svg
   width="45.939808mm"
   height="43.443924mm"
   viewBox="0 0 45.939808 43.443924"
   version="1.1"
   id="svg1"
   sodipodi:docname="u-lakam-tun-ni.svg"
   inkscape:version="1.4 (e7c3feb1, 2024-10-09)"
   xmlns:inkscape="http://www.inkscape.org/namespaces/inkscape"
   xmlns:sodipodi="http://sodipodi.sourceforge.net/DTD/sodipodi-0.dtd"
   xmlns="http://www.w3.org/2000/svg"
   xmlns:svg="http://www.w3.org/2000/svg">
  <sodipodi:namedview
     id="namedview1"
     pagecolor="#ffffff"
     bordercolor="#666666"
     borderopacity="1.0"
     inkscape:showpageshadow="2"
     inkscape:pageopacity="0.0"
     inkscape:pagecheckerboard="0"
     inkscape:deskcolor="#d1d1d1"
     inkscape:document-units="mm"
     inkscape:zoom="4"
     inkscape:cx="81"
     inkscape:cy="109.875"
     inkscape:window-width="2560"
     inkscape:window-height="1296"
     inkscape:window-x="1440"
     inkscape:window-y="25"
     inkscape:window-maximized="0"
     inkscape:current-layer="layer1" />
  <defs
     id="defs1" />
  <g
     inkscape:label="Layer 1"
     inkscape:groupmode="layer"
     id="layer1"
     transform="translate(-57.883822,-66.650092)">
    <path
       style="opacity:1;fill:#000000;stroke-width:0.3"
       id="path1"
       d="m 78.915741,79.947803 c -1.236728,2.57864 -2.784599,5.07627 -3.407747,7.896481 -0.201049,2.06147 -0.490682,4.153334 -0.27619,6.220889 0.517063,2.096777 1.741141,4.341818 3.970235,4.956406 3.433587,1.183621 7.130116,0.864588 10.701518,0.955291 3.014926,-0.05978 6.363039,0.20257 8.887723,-1.77947 2.55928,-1.858335 4.0644,-5.00199 4.15729,-8.141012 0.48383,-4.381463 0.92727,-8.78266 0.87007,-13.196204 -0.16292,-1.979932 -0.1368,-4.284845 -1.64411,-5.793918 -1.21745,-1.530278 -3.050379,-2.399434 -4.966141,-2.649176 -4.725692,-0.798391 -10.230049,0.06827 -14.377744,2.5842 -3.654257,2.034544 -6.341011,4.726937 -4.04655,9.013444 1.203802,1.451586 2.109604,1.476893 3.585218,0.660785 2.040755,-1.341783 4.852676,-2.817487 7.366894,-2.799556 1.815848,-0.01843 3.711336,-0.07532 5.452917,0.500939 1.699689,1.016008 1.938259,3.155682 1.876241,4.953363 0.04292,2.259034 0.117399,4.549186 -0.563508,6.735614 -0.420571,2.178754 -1.55801,4.129546 -2.040828,6.287955 0.922108,0.63214 0.638514,-0.983772 1.035705,-1.667695 1.298111,-3.148267 2.289976,-6.494218 2.089742,-9.935693 -0.05145,-2.138912 0.256168,-4.423182 -1.314089,-6.140142 -1.214928,-1.526083 -3.152941,-1.111711 -4.887389,-1.285336 -2.213421,-0.09911 -4.205537,0.113838 -6.165476,1.225537 -1.66804,0.672736 -4.394258,2.871602 -5.251479,1.842417 -0.987107,-0.933339 -0.884114,-1.52032 -1.269647,-2.713129 -0.443886,-1.564944 1.126738,-4.029701 2.47549,-4.705958 3.765011,-2.412156 8.566037,-4.427962 13.149269,-4.098866 1.92203,0.105363 3.928271,0.36438 5.639438,1.291183 1.381477,0.943888 2.675957,2.306319 2.779427,4.063373 0.62386,3.684952 0.093,7.435102 -0.10816,11.134193 -0.24846,2.302615 -0.41192,4.622362 -0.79616,6.905268 -0.85905,3.271275 -3.491568,6.252277 -6.969151,6.690273 -3.061964,0.324829 -6.155638,0.190157 -9.230511,0.16001 -2.572054,-0.08068 -5.34702,-0.148829 -7.584608,-1.571925 -1.498232,-1.383662 -2.334461,-3.518055 -2.076035,-5.556043 0.15166,-2.223316 0.114124,-4.546258 1.18241,-6.574033 0.680466,-1.771882 1.665272,-3.398524 2.467228,-5.113668 z"
       sodipodi:nodetypes="cccccccccccccccccccccccccccccccccccccc" />
    <path
       style="opacity:1;fill:#000000;stroke-width:0.3"
       id="path2"
       d="m 99.76959,96.644715 c 0.40576,1.579013 0.212693,3.240359 0.33226,4.855035 -0.0304,1.5615 -0.462063,3.09104 -0.812085,4.60423 -0.719387,1.7733 -2.502274,3.15343 -4.461502,3.1151 -3.201823,0.15286 -6.402578,-0.10923 -9.603392,-0.1675 -2.012068,-0.11571 -4.001136,-0.58381 -5.856649,-1.3662 -1.101273,-0.4695 -1.926075,1.03535 -3.022242,0.23447 -1.101432,-0.32804 -2.290699,0.19213 -3.372967,-0.30506 -1.188634,-0.26838 -1.303159,-1.7481 -1.121556,-2.73503 0.21984,-1.44318 0.516956,-3.13477 1.930193,-3.89793 1.753387,-1.153209 3.877676,-1.530425 5.946153,-1.441894 0.626301,-0.150588 1.728174,0.221849 1.418392,-0.757388 -0.630351,-0.350168 -1.957847,0.133283 -2.82581,-0.02151 -2.160155,0.09907 -4.375956,0.844057 -5.954837,2.357302 -1.050704,1.25312 -1.233975,2.97435 -1.393188,4.54094 0.0281,1.0779 0.4525,2.35817 1.614436,2.66586 0.962047,0.40667 2.015724,0.36248 3.030021,0.26594 0.983733,0.25825 2.130697,0.6574 2.975743,-0.17543 0.995899,-0.0159 1.846531,0.70422 2.838528,0.81625 3.02522,0.89261 6.210742,0.63183 9.321525,0.8277 1.833419,0.0272 3.699585,0.12803 5.50752,-0.22238 2.158864,-0.60832 3.863497,-2.58815 4.118597,-4.8218 0.37221,-1.58278 0.66426,-3.19908 0.48411,-4.83096 -0.065,-1.244382 0.0515,-2.527794 -0.32045,-3.732904 -0.2576,0.06439 -0.5152,0.128772 -0.7728,0.193158 z" />
    <path
       style="opacity:1;fill:#000000;stroke-width:0.3"
       id="path3"
       d="m 78.67207,78.386132 c -1.916835,-1.257278 -4.347083,-1.139378 -6.549739,-1.167865 -2.967843,0.06253 -5.925814,0.930199 -8.381857,2.616249 -1.958085,1.167455 -3.135331,3.245445 -4.097946,5.240095 -1.198282,2.776776 -1.648579,5.810627 -1.592598,8.820784 -0.07654,2.806054 -0.290641,5.625759 -0.06706,8.427245 0.441165,1.89087 0.94993,3.92957 2.343714,5.3611 1.421866,1.28921 3.490084,1.10405 5.270299,1.21356 2.105912,0.0443 4.294742,-0.23795 6.181788,-1.21911 -0.262846,-0.72823 -0.693696,-0.67516 -1.295566,-0.28116 -2.609293,0.90697 -5.443895,0.83143 -8.141967,0.43422 -1.973902,-0.35203 -2.642914,-2.48516 -3.192182,-4.13544 -0.739748,-2.06925 -0.365822,-4.294132 -0.420358,-6.439454 0.219658,-3.461384 -0.118044,-7.033903 1.104589,-10.352185 0.662653,-2.103071 1.769091,-4.107892 3.341182,-5.662335 2.102683,-1.675029 4.653302,-2.792755 7.334364,-3.090574 2.296843,-0.201903 4.700598,-0.277936 6.916071,0.462909 1.247483,0.673959 0.771932,0.552136 1.247269,-0.228039 z"
       sodipodi:nodetypes="sccccccccccccccccss" />
    <path
       style="opacity:1;fill:#000000;stroke-width:0.3"
       id="path4"
       d="m 85.691151,69.73916 c -2.900068,-1.344474 -5.957416,-2.302446 -9.119502,-2.799948 -7.806998,-1.484342 -19.582047,2.774756 -16.296932,12.131539 0.453695,0.867157 0.979358,1.781324 1.789954,2.361228 0.155082,-0.04397 0.834777,-0.477241 0.322763,-0.583362 -1.519653,-1.683064 -6.159409,-12.515433 11.394246,-13.299293 2.694111,-0.138485 8.302549,1.325192 10.007994,2.281482 0.573522,0.07919 1.534492,1.069256 1.757562,0.196009 0.04797,-0.09588 0.09594,-0.19177 0.143915,-0.287655 z"
       sodipodi:nodetypes="ccccccccc" />
    <path
       style="opacity:1;fill:#000000;stroke-width:0.3"
       id="path5"
       d="m 78.971872,79.460777 c 1.344725,-1.196315 2.857274,-2.195666 4.504326,-2.926968 1.540711,-0.870263 3.268514,-1.323983 4.963318,-1.78886 1.617672,-0.439262 3.30988,-0.486997 4.973673,-0.597849 1.511512,-0.11609 3.085943,0.125369 4.356744,1.001444 0.997297,0.519751 1.729189,1.417745 2.113725,2.466257 0.563252,1.382497 0.644642,2.902851 0.762652,4.375116 -0.007,1.547602 0.18089,3.129789 -0.29056,4.632489 -0.21906,0.359845 -0.1953,1.150217 0.24063,0.748668 0.26528,-1.098657 0.5571,-2.207194 0.47517,-3.348632 0.0251,-1.984087 -0.0712,-3.993071 -0.57553,-5.919555 -0.39884,-1.235072 -1.063116,-2.454407 -2.227602,-3.117337 -1.30097,-0.917615 -2.904996,-1.376218 -4.493718,-1.24756 -1.566611,0.04956 -3.141,0.162899 -4.684942,0.43578 -1.75303,0.422498 -3.503286,0.905773 -5.149231,1.652878 -1.49198,0.776096 -3.045373,1.473253 -4.331289,2.582848 -0.262152,0.348638 -1.203801,0.607215 -0.637366,1.051281 z" />
    <path
       style="opacity:1;fill:#000000;stroke-width:0.3"
       id="path6"
       d="m 80.716071,80.93404 c -0.177691,0.191424 -0.306691,0.433712 -0.331753,0.696433 -0.03194,0.298524 0.09122,0.600684 0.303603,0.80927 0.188787,0.202748 0.4685,0.290698 0.736299,0.325128 0.260189,0.01739 0.535836,0.0138 0.768936,-0.119218 0.246518,-0.127917 0.405073,-0.384857 0.446749,-0.655286 0.03529,-0.165303 0.03632,-0.334654 0.01766,-0.502046 -0.0282,-0.335862 -0.11756,-0.681694 -0.34119,-0.943108 -0.05819,-0.04342 -0.155842,-0.203438 -0.218831,-0.152185 -0.07047,0.0992 -0.140937,0.198404 -0.211406,0.297606 0.224348,0.153133 0.317227,0.429264 0.356621,0.686443 0.02323,0.180979 0.04482,0.366789 0.0028,0.546998 -0.02321,0.174964 -0.134518,0.341577 -0.306534,0.3989 -0.165098,0.0668 -0.348316,0.05057 -0.521743,0.03838 -0.185193,-0.03276 -0.381368,-0.09778 -0.494889,-0.258327 -0.13615,-0.15236 -0.177724,-0.375255 -0.113521,-0.568204 0.03942,-0.129428 0.120881,-0.241277 0.209141,-0.341876 -0.100656,-0.0863 -0.201313,-0.172603 -0.301969,-0.258904 z" />
    <path
       id="path7"
       style="opacity:1;fill:#000000;stroke-width:0.3"
       d="m 84.049133,79.610126 c -0.252117,0.01061 -0.491598,0.102563 -0.732108,0.170587 -0.145615,0.05955 -0.265864,0.146648 -0.408454,0.210693 -0.278766,0.139703 -0.504376,0.419695 -0.500047,0.74261 -0.0087,0.336402 0.08119,0.671949 0.257228,0.959203 0.15179,0.256286 0.284856,0.551143 0.549435,0.71126 0.324898,0.172642 0.700085,0.226724 1.064005,0.231477 0.322729,-0.0023 0.669318,-0.06417 0.909768,-0.297206 0.261565,-0.251936 0.417891,-0.60927 0.427038,-0.972388 0.02992,-0.378813 -0.01478,-0.783882 -0.245105,-1.099236 -0.175921,-0.243196 -0.371071,-0.502105 -0.670821,-0.595842 -0.208696,-0.07633 -0.433438,-0.05488 -0.650939,-0.06116 z m 0.01292,0.398942 c 0.227776,0.0063 0.483241,-0.02631 0.673333,0.128197 0.151291,0.137135 0.278305,0.303959 0.38035,0.480591 0.142165,0.296826 0.120617,0.64098 0.07137,0.957564 -0.07995,0.28288 -0.275502,0.578495 -0.587012,0.627569 -0.340845,0.06462 -0.698526,0.02778 -1.027358,-0.07771 -0.179022,-0.04108 -0.303499,-0.181948 -0.387487,-0.337061 -0.180626,-0.294845 -0.380256,-0.607868 -0.375348,-0.967027 -0.02358,-0.16306 0.05194,-0.327899 0.190213,-0.417242 0.231631,-0.170439 0.284779,-0.205273 0.577098,-0.284686 0.159449,-0.0425 0.318608,-0.104445 0.484841,-0.110187 z"
       sodipodi:nodetypes="sccccccccccsscccccccccccc" />
    <path
       id="path8"
       style="opacity:1;fill:#000000;stroke-width:0.3"
       d="m 86.947147,78.107892 c -0.359268,0.237947 -0.648632,0.563766 -0.939662,0.877261 -0.337891,0.442152 -0.532659,1.000704 -0.525893,1.558318 0.03826,0.48403 0.196626,0.988512 0.550577,1.33547 0.327679,0.293794 0.795246,0.387179 1.223932,0.357465 0.693269,-0.06459 1.4032,-0.34213 1.84075,-0.905411 0.290168,-0.331643 0.400198,-0.769554 0.545791,-1.174911 0.142852,-0.438659 0.006,-0.932255 -0.30829,-1.262288 -0.423535,-0.489852 -1.068774,-0.7249 -1.701591,-0.770723 -0.215551,-0.01728 -0.438619,-0.02314 -0.648429,0.03659 -0.01239,-0.01726 -0.02479,-0.03451 -0.03718,-0.05177 z m 0.591054,0.407508 c 0.529064,0.03807 1.084438,0.195932 1.453397,0.598893 0.239379,0.225432 0.374219,0.574626 0.275306,0.898252 -0.112038,0.315496 -0.199042,0.647965 -0.378886,0.933396 -0.250594,0.372791 -0.634284,0.644831 -1.064815,0.769815 -0.415348,0.130166 -0.879923,0.193414 -1.291581,0.01523 -0.378408,-0.156787 -0.531536,-0.580284 -0.617178,-0.949488 -0.102011,-0.46745 0.0477,-0.953671 0.277519,-1.360054 0.167265,-0.27909 0.423721,-0.487981 0.647192,-0.719927 0.206987,-0.234 0.403306,-0.192003 0.699046,-0.186117 z"
       sodipodi:nodetypes="scccccccccsscccccccccc" />
    <path
       id="path9"
       style="opacity:1;fill:#000000;stroke-width:0.3"
       d="m 90.892126,77.613349 c -0.317768,-0.0098 -0.637867,0.09707 -0.867007,0.321646 -0.276545,0.255268 -0.4708,0.589521 -0.613455,0.934429 -0.127044,0.414467 -0.06759,0.870364 0.09258,1.267319 0.150972,0.392588 0.378014,0.793573 0.775088,0.97906 0.449402,0.235519 0.985961,0.189953 1.459299,0.05804 0.395587,-0.129302 0.715157,-0.429745 0.946256,-0.768086 0.281105,-0.41861 0.303931,-0.941823 0.28728,-1.429199 -0.0068,-0.326786 -0.132973,-0.654654 -0.384867,-0.87018 -0.314178,-0.298534 -0.745498,-0.527363 -1.190864,-0.454736 -0.07384,-0.01414 -0.245754,0.09521 -0.214845,-0.03725 -0.09647,-0.002 -0.192998,-5.52e-4 -0.289463,-10e-4 z m 0,0.400492 c 0.09337,-0.01168 0.767455,-0.03897 1.035099,0.11216 0.264651,0.142626 0.548784,0.342387 0.61805,0.65371 0.05309,0.320282 0.03567,0.65085 -0.01522,0.970281 -0.08683,0.415514 -0.387983,0.761851 -0.747269,0.972949 -0.270525,0.132644 -0.581528,0.163773 -0.879241,0.1574 -0.338258,-0.01843 -0.671141,-0.196225 -0.839528,-0.496324 -0.186762,-0.333566 -0.33258,-0.704023 -0.32153,-1.092387 -0.0045,-0.296186 0.167244,-0.549593 0.317163,-0.79097 0.167749,-0.235703 0.400914,-0.474183 0.71004,-0.48163 0.04076,-0.0024 0.08169,-0.0057 0.122434,-0.0052 z"
       sodipodi:nodetypes="ccccccccccccccccccccccccc" />
    <path
       id="path10"
       style="opacity:1;fill:#000000;stroke-width:0.3"
       d="m 83.036791,82.27508 c -0.168983,0.0012 -0.335904,0.02951 -0.50338,0.01183 -0.434375,0.0314 -0.8234,0.276749 -1.131512,0.571196 -0.286195,0.277235 -0.512203,0.631004 -0.569763,1.03124 -0.06226,0.296502 -0.064,0.621297 0.09387,0.889839 0.221638,0.437731 0.612765,0.790009 1.08603,0.931162 0.28507,0.08204 0.586284,0.103187 0.881816,0.09956 0.449969,-0.0042 0.884779,-0.228602 1.156635,-0.58617 0.326409,-0.382852 0.435254,-0.902337 0.4291,-1.393804 -0.01931,-0.340272 -0.140209,-0.668322 -0.296508,-0.967975 -0.177375,-0.280031 -0.457126,-0.508352 -0.79246,-0.556411 -0.116716,-0.02044 -0.235658,-0.02799 -0.353833,-0.03046 z m -0.03359,0.399459 c 0.255172,-0.0033 0.541688,0.03144 0.71624,0.2403 0.186929,0.191067 0.255249,0.459824 0.32971,0.708493 0.07022,0.324343 0.0142,0.664948 -0.0891,0.975897 -0.162921,0.408551 -0.529073,0.772858 -0.98634,0.803139 -0.287233,0.02075 -0.581677,-0.0038 -0.859895,-0.07868 -0.359735,-0.113507 -0.65524,-0.382595 -0.825712,-0.716453 -0.162017,-0.256912 -0.08301,-0.574473 -0.01344,-0.847493 0.131071,-0.383335 0.435119,-0.689257 0.775203,-0.897325 0.293414,-0.19041 0.618899,-0.168554 0.953335,-0.187875 z"
       sodipodi:nodetypes="cccccccccccccsccccccccss" />
    <path
       id="path11"
       style="opacity:1;fill:#000000;stroke-width:0.3"
       d="m 85.317361,82.009329 c -0.501662,0.21983 -0.884549,0.684414 -1.005446,1.218743 -0.11457,0.409759 -0.133491,0.852677 0.005,1.259558 0.112351,0.395907 0.33134,0.759753 0.616952,1.054447 0.18511,0.192198 0.44198,0.289981 0.704039,0.31372 0.476558,0.07021 0.973813,0.03275 1.419814,-0.158132 0.554897,-0.198339 0.986471,-0.67602 1.153882,-1.237915 0.144313,-0.418592 0.258209,-0.904865 0.04154,-1.320355 -0.265207,-0.495753 -0.745051,-0.828156 -1.221445,-1.101573 -0.269295,-0.146058 -0.866327,-0.358422 -1.714336,-0.02849 z m 0.433993,0.233195 c 0.0015,-0.0014 0.0012,0.0022 0,0 z m 0.08992,5.16e-4 c 0.375895,0.0048 0.781401,-0.01273 1.10744,0.20782 0.380882,0.241392 0.78683,0.512898 0.977964,0.938271 0.118275,0.329093 -0.0095,0.678677 -0.112339,0.993911 -0.141152,0.45641 -0.514517,0.824943 -0.96955,0.967781 -0.437606,0.176714 -0.928065,0.168751 -1.382235,0.0657 -0.301402,-0.116123 -0.466141,-0.419984 -0.623893,-0.682447 -0.183011,-0.382304 -0.285252,-0.823069 -0.175587,-1.241466 0.05674,-0.338332 0.201512,-0.672574 0.47171,-0.894558 0.196491,-0.184437 0.455382,-0.273255 0.70649,-0.355015 z"
       sodipodi:nodetypes="ccccccccccssccccccccssc" />
    <path
       id="path12"
       style="opacity:1;fill:#000000;stroke-width:0.3"
       d="m 89.077301,81.243095 c -0.354591,0.251515 -0.677463,0.564869 -0.862859,0.964171 -0.233858,0.430905 -0.230729,0.950635 -0.12102,1.417082 0.13487,0.477829 0.375036,0.944028 0.77566,1.251607 0.225112,0.225143 0.538209,0.329737 0.851428,0.341229 0.576485,0.0574 1.161708,-0.155821 1.589407,-0.541854 0.331625,-0.256543 0.517479,-0.649707 0.620375,-1.047127 0.129506,-0.403223 0.186174,-0.84665 0.04505,-1.254923 -0.09419,-0.366842 -0.174226,-0.777222 -0.486283,-1.028447 -0.246834,-0.227119 -0.578691,-0.340357 -0.911677,-0.340914 -0.583489,-0.05351 -1.019697,-0.07994 -1.500081,0.239176 z m 0.680527,0.148318 c 0.365112,0.0088 0.73519,-0.01851 1.096061,0.04743 0.306102,0.08282 0.562279,0.333635 0.630321,0.646661 0.07578,0.326334 0.224741,0.652928 0.160859,0.99459 -0.04644,0.300678 -0.132008,0.598664 -0.258083,0.875442 -0.155464,0.312503 -0.448048,0.533671 -0.74832,0.697018 -0.376547,0.189955 -0.825332,0.221132 -1.228796,0.10565 -0.244572,-0.113694 -0.44414,-0.312116 -0.606517,-0.524795 -0.259335,-0.390762 -0.419369,-0.864723 -0.375284,-1.337291 0.01688,-0.363751 0.217619,-0.693232 0.45018,-0.962222 0.214863,-0.20541 0.445211,-0.406834 0.71468,-0.53435 0.05488,-0.0042 0.109793,-0.01082 0.164899,-0.0081 z"
       sodipodi:nodetypes="cccccccccccccccccccccccc" />
    <path
       id="path13"
       style="opacity:1;fill:#000000;stroke-width:0.3"
       d="m 84.553495,85.359129 c -0.190479,-0.0041 -0.373574,0.05659 -0.563368,0.05013 -0.38529,0.03024 -0.752614,0.17951 -1.087095,0.366518 -0.364345,0.231959 -0.634533,0.618009 -0.709084,1.044851 -0.05375,0.50299 0.144955,1.037798 0.55766,1.343073 0.26527,0.208533 0.591856,0.331586 0.928958,0.349278 0.430651,0.03386 0.869626,-0.0087 1.286048,-0.123795 0.577669,-0.154167 1.063453,-0.636453 1.178842,-1.229115 0.07578,-0.292719 0.02246,-0.607129 -0.130486,-0.866067 -0.209633,-0.379785 -0.524462,-0.729835 -0.948969,-0.864456 -0.163844,-0.05796 -0.340698,-0.06328 -0.512506,-0.07042 z m -0.0217,0.399459 c 0.250744,-0.0093 0.506712,0.04936 0.706894,0.206126 0.233421,0.195145 0.425489,0.453721 0.519881,0.744497 0.0656,0.294537 -0.04669,0.605306 -0.220068,0.843195 -0.233861,0.311483 -0.61309,0.465791 -0.988421,0.520584 -0.414703,0.06187 -0.854728,0.09644 -1.256334,-0.0482 -0.337026,-0.144225 -0.627839,-0.437934 -0.684143,-0.810959 -0.04356,-0.208558 -0.03459,-0.434131 0.07949,-0.620193 0.142426,-0.305921 0.427854,-0.519278 0.740769,-0.629444 0.224447,-0.093 0.463206,-0.166903 0.708744,-0.159093 0.109595,-8.23e-4 0.266833,-0.0517 0.393184,-0.04651 z" />
    <path
       id="path14"
       style="opacity:1;fill:#000000;stroke-width:0.3"
       d="m 88.83127,84.875955 c -0.248207,0.02215 -0.50274,0.01427 -0.74362,0.08588 -0.113302,0.0746 -0.314706,0.115391 -0.455575,0.19167 -0.402139,0.157951 -0.802934,0.351645 -1.098297,0.6765 -0.239414,0.239304 -0.435189,0.53576 -0.480394,0.877746 -0.07476,0.530629 0.03866,1.104364 0.365105,1.536841 0.302431,0.358951 0.791256,0.507283 1.249356,0.476245 0.740728,-0.03458 1.512779,-0.08699 2.175339,-0.454253 0.428168,-0.216375 0.749633,-0.618293 0.872528,-1.081216 0.09544,-0.26149 0.133884,-0.542924 0.0851,-0.818874 -0.03472,-0.463332 -0.245549,-0.924386 -0.608172,-1.22093 -0.400269,-0.259541 -0.900804,-0.265112 -1.36137,-0.269609 z m -0.0031,0.398425 c 0.375846,0.0072 0.777498,-0.0037 1.11622,0.184007 0.29485,0.239959 0.444731,0.62478 0.46454,0.998416 0.05273,0.296184 -0.05684,0.587654 -0.16729,0.857315 -0.163615,0.377184 -0.531221,0.604253 -0.901763,0.7426 -0.562873,0.217339 -1.176871,0.237783 -1.772747,0.263893 -0.377889,0.01459 -0.797931,-0.15178 -0.956669,-0.517486 -0.183377,-0.385289 -0.245333,-0.846638 -0.103989,-1.254899 0.14877,-0.318585 0.417102,-0.574036 0.71106,-0.76067 0.316869,-0.170725 0.651666,-0.310393 0.991502,-0.428917 0.190738,-0.0806 0.409167,-0.0594 0.619136,-0.08426 z" />
    <path
       id="path15"
       style="opacity:1;fill:#000000;stroke-width:0.3"
       d="m 85.777193,87.986876 c -0.284056,0.02151 -0.585116,0.06721 -0.852671,0.19279 -0.329227,0.155915 -0.655086,0.356708 -0.854733,0.670763 -0.223112,0.304379 -0.232661,0.7011 -0.240943,1.063305 0.01836,0.512875 0.241435,1.044246 0.677786,1.337531 0.361079,0.224872 0.816156,0.275747 1.227303,0.182912 0.331484,-0.04601 0.662654,-0.150465 0.922117,-0.36989 0.456033,-0.355936 0.790453,-0.90011 0.799079,-1.488791 -0.0029,-0.252538 -0.05233,-0.501702 -0.08574,-0.751103 -0.0742,-0.303845 -0.297277,-0.55959 -0.58473,-0.68173 -0.314799,-0.149497 -0.665847,-0.15779 -1.007467,-0.155787 z m 0.01499,0.398425 c 0.345667,-0.0027 0.726021,0.004 1.008261,0.232811 0.140407,0.119323 0.198588,0.304278 0.204347,0.483355 0.04542,0.26694 0.08369,0.54546 -0.0024,0.808801 -0.127106,0.424463 -0.444553,0.782461 -0.830835,0.992246 -0.231929,0.11037 -0.492767,0.135988 -0.743719,0.174594 -0.322558,0.01351 -0.680197,-0.06649 -0.89089,-0.33075 -0.209277,-0.250114 -0.308838,-0.585044 -0.30856,-0.908471 0.01627,-0.28988 0.02049,-0.614647 0.230647,-0.840821 0.182795,-0.238152 0.462363,-0.378653 0.732134,-0.495542 0.191698,-0.06409 0.394693,-0.118394 0.598412,-0.093 8.77e-4,-0.0077 0.0018,-0.01548 0.0026,-0.02322 z" />
    <path
       style="opacity:1;fill:#000000;stroke-width:0.3"
       id="path16"
       d="m 90.326788,99.712448 c -0.0091,0.844492 -0.31989,1.655982 -0.703103,2.396702 -0.496227,0.75273 -1.500997,0.70081 -2.296839,0.72128 -1.140505,0.0495 -2.290251,-0.008 -3.396165,-0.31116 -0.993211,-0.21645 -1.946928,-0.65745 -2.983232,-0.61886 -1.551703,-0.0378 -3.102298,0.37955 -4.463338,1.11255 -0.961468,0.58972 -1.150377,1.80071 -1.380951,2.81151 -0.120621,0.75272 -0.127128,1.51583 -0.121069,2.27634 0.534021,0.16133 0.410298,-0.33556 0.401722,-0.72112 0.01098,-1.1959 0.196088,-2.43423 0.768805,-3.49677 0.510382,-0.75327 1.478053,-0.93524 2.276425,-1.23839 1.235938,-0.35743 2.578481,-0.47842 3.838091,-0.1743 1.531399,0.48899 3.126677,0.86849 4.746084,0.76857 0.970581,-0.0294 2.145549,0.0691 2.834149,-0.75809 0.438086,-0.65765 0.701552,-1.43651 0.836573,-2.2123 0.05424,-0.433282 0.146208,-0.638452 -0.357152,-0.555962 z" />
    <path
       style="opacity:1;fill:#000000;stroke-width:0.3"
       id="path17"
       d="m 95.406381,99.471156 c 0.156988,1.039384 -0.28751,2.033704 -0.382628,3.057324 -0.296452,1.35284 -1.236809,2.56201 -2.520639,3.10931 -1.088701,0.54876 -2.359616,0.47072 -3.538666,0.37504 -1.879212,-0.16282 -3.594941,-1.1527 -5.499719,-1.1569 -1.154693,-0.0371 -2.346192,-0.39649 -3.483872,-0.0573 -0.792131,0.24505 -1.656178,0.84134 -1.639201,1.76319 0.0678,0.35356 -0.05795,1.36321 0.411026,1.26921 0.426732,-0.12241 -0.163357,-0.79406 -0.01716,-1.15661 -0.06772,-0.79949 0.705303,-1.29433 1.375629,-1.4987 1.183885,-0.31276 2.40071,0.0936 3.599119,0.0896 1.920273,0.10547 3.657166,1.11447 5.585121,1.18118 1.26691,0.0813 2.624932,0.0653 3.73648,-0.634 1.482493,-0.75971 2.387467,-2.37987 2.514944,-4.01095 0.154995,-0.78068 0.392611,-1.57122 0.254765,-2.37444 -0.131734,0.0147 -0.263469,0.0294 -0.395203,0.0441 z" />
    <path
       style="opacity:1;fill:#000000;stroke-width:0.3"
       id="path18"
       d="m 73.302391,80.364064 c -1.578896,-0.243762 -3.23076,-0.475262 -4.77533,0.0828 -1.924972,0.54661 -3.732065,1.61846 -4.971986,3.209132 -0.898917,1.472652 -1.419423,3.155789 -1.61938,4.864968 -0.475549,2.821671 -1.048948,5.788477 -0.944397,8.668731 -0.101598,3.043605 0.0075,6.090415 0.01211,9.134455 0.172374,0.37726 -0.07956,1.65863 0.600354,1.2864 -0.06879,-0.57526 -0.266347,-1.28773 -0.213485,-1.92761 0.0047,-3.33625 -0.123908,-6.676661 0.04627,-10.009862 0.118223,-2.973568 0.701643,-5.850082 1.192233,-8.780901 0.460053,-1.531209 1.019664,-3.171825 2.368738,-4.154435 1.455092,-1.254993 3.319346,-1.971011 5.208329,-2.230002 1.000774,-0.1042 2.101199,0.220482 3.015148,0.183524 0.02713,-0.109066 0.05426,-0.218133 0.0814,-0.3272 z"
       sodipodi:nodetypes="sccccccccccccss" />
    <path
       style="opacity:1;fill:#000000;stroke-width:0.3"
       id="path19"
       d="m 73.603267,82.658235 c -1.78255,-0.275984 -3.681979,-0.102296 -5.314952,0.7059 -1.678069,0.69126 -2.6664,2.391422 -3.089451,4.082725 -0.628945,1.897502 -1.035098,3.868799 -1.120043,5.868248 -0.306599,1.873666 -0.494273,3.766396 -0.45381,5.667547 0.03121,2.639815 -0.09048,5.287575 0.103036,7.921675 0.01062,0.4233 0.316356,1.98625 0.671846,1.23696 -0.534503,-1.86393 -0.321058,-3.82402 -0.376551,-5.73702 0.02224,-2.909359 -0.125827,-5.843574 0.415876,-8.719026 0.127903,-1.581262 0.273103,-3.168287 0.72856,-4.696716 0.471569,-1.632465 0.840444,-3.455306 2.215885,-4.598158 1.261562,-0.981536 2.897302,-1.435789 4.485679,-1.440658 0.543529,-0.243122 1.659231,0.480806 1.731524,-0.281942 z" />
    <path
       style="opacity:1;fill:#000000;stroke-width:0.3"
       id="path20"
       d="m 69.419736,83.039751 c -0.183817,0.53838 -0.391589,1.080937 -0.39709,1.658321 -0.02595,0.535517 -0.01609,1.106028 0.236359,1.591724 0.298677,0.503763 0.89197,0.745311 1.451031,0.811989 1.128055,0.170815 2.274465,-0.05838 3.35156,-0.392335 0.14817,-0.08047 0.632912,-0.146554 0.421199,-0.358828 -0.08537,-0.135924 -0.156435,-0.289034 -0.311166,-0.111409 -0.63183,0.247039 -1.30389,0.386434 -1.974527,0.478501 -0.684627,0.06553 -1.404458,0.07859 -2.054369,-0.175879 -0.321715,-0.146385 -0.601983,-0.413829 -0.657662,-0.776789 -0.11102,-0.56669 -0.09635,-1.161584 0.03154,-1.724614 0.07264,-0.308895 0.205678,-0.598734 0.289225,-0.904325 -0.1287,-0.03212 -0.257399,-0.06424 -0.386099,-0.09636 z" />
    <path
       style="opacity:1;fill:#000000;stroke-width:0.3"
       id="path21"
       d="m 67.727316,83.754329 c -0.212306,0.570584 -0.186815,1.191697 -0.18073,1.790224 0.03989,0.547865 0.23342,1.075552 0.473941,1.564911 0.33552,0.591402 0.920089,1.036884 1.594117,1.158602 0.663584,0.130866 1.345794,0.10227 2.018767,0.119397 0.891495,-0.03043 1.806949,-0.08387 2.631172,-0.458277 0.169547,-0.08202 0.48768,-0.118549 0.286773,-0.33834 -0.04601,-0.250277 -0.219586,-0.14089 -0.390571,-0.04979 -0.719778,0.329274 -1.517062,0.410887 -2.299538,0.43222 -0.649879,0.02691 -1.303299,0.0032 -1.950908,-0.05604 -0.554086,-0.06967 -1.092758,-0.33928 -1.411412,-0.808951 -0.274246,-0.381595 -0.407452,-0.845449 -0.518483,-1.296527 -0.07306,-0.495118 -0.04177,-1.001459 0.0092,-1.497427 -0.01984,-0.186365 0.269988,-0.510372 -0.04914,-0.50672 -0.07107,-0.01776 -0.142142,-0.03552 -0.213213,-0.05328 z" />
    <path
       id="path22"
       style="opacity:1;fill:#000000;stroke-width:0.3"
       d="m 67.688891,90.576382 c -0.08273,0.0032 -0.182336,0.04536 -0.268718,0.114721 0.03981,0.521888 -0.556509,0.827931 -0.901753,1.132748 -0.529674,0.415769 -1.201782,0.937403 -1.119829,1.69292 0.111485,1.014945 1.036526,1.766491 1.99316,1.956986 0.606865,0.102942 1.275234,-0.08143 1.838131,0.213941 0.41549,0.425543 0.307302,1.108449 0.402043,1.655713 0.07837,1.275205 -0.16617,2.60107 -0.861446,3.686599 -0.345566,0.59159 -1.066257,0.83735 -1.720309,0.72295 -0.831738,-0.0748 -1.61881,-0.45194 -2.277897,-0.95085 -0.308959,-0.14508 -0.613742,-0.84461 -0.913122,-0.63303 -0.05662,0.0566 -0.113391,0.1129 -0.170016,0.1695 0.562308,0.54131 1.126884,1.10977 1.870687,1.39681 0.777572,0.37949 1.712442,0.57963 2.555916,0.31781 0.949014,-0.33275 1.343773,-1.36488 1.644861,-2.237072 0.381051,-1.261115 0.35915,-2.626977 0.0739,-3.904671 -0.133588,-0.594236 -0.777914,-0.806774 -1.319816,-0.791167 -0.614135,-0.02024 -1.281781,0.04637 -1.807125,-0.343131 -0.551744,-0.326703 -1.018644,-0.949675 -0.886767,-1.618506 0.180722,-0.404974 0.511858,-0.684969 0.857312,-0.95188 -0.01178,0.01167 -0.02552,0.02279 -0.03669,0.03462 -0.531678,0.366486 -0.67643,1.268777 -0.05788,1.627808 0.865851,0.500999 1.899694,0.455076 2.860291,0.577226 0.941193,0.151984 1.514071,1.092662 1.567346,1.987475 0.02626,0.935961 0.05704,1.881395 -0.05633,2.812749 -0.138813,0.64048 -0.22289,1.299659 -0.440283,1.919779 -0.287762,0.65568 -0.774147,1.19443 -1.204577,1.75752 -0.448794,0.45828 -1.012423,0.84026 -1.669666,0.88935 -0.682956,0.0652 -1.39217,0.0869 -2.062406,-0.0827 -0.686351,-0.22019 -1.150613,-0.79869 -1.596802,-1.32964 -0.100734,0.0865 -0.201573,0.17291 -0.302307,0.25942 0.574036,0.72665 1.291109,1.47117 2.269112,1.55546 0.968424,0.0663 2.03329,0.13691 2.891296,-0.39688 0.74548,-0.4412 1.207023,-1.18987 1.706356,-1.87017 0.536714,-0.7498 0.586095,-1.69452 0.7922,-2.562633 0.137657,-0.959543 0.09287,-1.935936 0.07803,-2.902148 -0.04118,-1.037164 -0.670095,-2.131571 -1.72961,-2.389519 -0.848807,-0.18068 -1.74715,-0.08874 -2.570902,-0.40721 -0.479695,-0.06534 -0.745505,-0.659015 -0.356568,-1.004073 0.532739,-0.472847 1.710857,-1.396839 0.930176,-2.106848 z"
       sodipodi:nodetypes="sccccccccccccccccccccccccccccccccccccccss" />
    <path
       style="opacity:1;fill:#000000;stroke-width:0.3"
       id="path24"
       d="m 66.65696,94.932086 c -0.711897,0.536867 -1.119549,1.360562 -1.349345,2.204048 -0.448525,1.254558 -0.466994,2.619585 -0.30701,3.928356 -0.06426,0.37574 0.695869,0.14786 0.375257,-0.17722 -0.138199,-1.305074 -0.08422,-2.656127 0.399095,-3.89114 0.194178,-0.685646 0.569845,-1.324864 1.141175,-1.761874 -0.08639,-0.100723 -0.172781,-0.201447 -0.259172,-0.30217 z" />
    <path
       style="opacity:1;fill:#000000;stroke-width:0.3"
       id="path25"
       d="m 82.858294,71.08735 c -1.12763,-0.507884 -2.371139,-0.675631 -3.514553,-1.14614 -1.249792,-0.436535 -2.568552,-0.655341 -3.880406,-0.795273 -2.241532,-0.01254 -4.508129,-0.165822 -6.727792,0.22024 -1.275087,0.380015 -2.46975,0.964061 -3.683133,1.498055 -1.228859,0.628568 -2.983614,2.980962 -2.989583,4.73848 -0.03937,1.343258 0.09643,2.724261 0.63136,3.967744 0.229167,0.306415 0.609972,1.154022 0.948493,0.541163 -0.854806,-0.687489 -0.938838,-1.847432 -1.13615,-2.845032 -0.09113,-1.276943 -0.161311,-2.694247 0.66269,-3.770079 0.583938,-0.844059 1.099104,-1.808092 2.063964,-2.275306 3.226854,-1.881616 6.720662,-1.729642 10.330008,-1.668015 1.524368,0.170772 3.038216,0.487249 4.468924,1.052604 0.872793,0.311042 1.805202,0.441049 2.648047,0.837296 0.05938,-0.118579 0.118754,-0.237158 0.178131,-0.355737 z"
       sodipodi:nodetypes="ccccccccccccccc" />
    <path
       style="opacity:1;fill:#000000;stroke-width:0.3"
       id="path26"
       d="m 80.704718,72.569072 c -0.89043,-0.626099 -1.934218,-0.991508 -3.013276,-1.106357 -1.411574,-0.186984 -2.822273,-0.433765 -4.252577,-0.389023 -1.451118,0.01144 -2.905466,-0.05069 -4.354144,0.03528 -1.12714,0.09331 -2.06663,0.783084 -3.087867,1.200456 -0.70409,0.279255 -1.275003,0.81237 -1.595593,1.498222 -0.450079,0.828271 -0.534268,1.779549 -0.53977,2.704502 0.01951,0.733919 -0.07986,1.517652 0.23306,2.203807 0.213212,0.321804 0.470075,1.01997 0.842383,0.510937 -0.513723,-0.508202 -0.722806,-1.209852 -0.66914,-1.920791 -0.01527,-0.75001 -0.02017,-1.512648 0.11212,-2.252186 0.212255,-0.945309 0.70909,-1.943601 1.662743,-2.319631 0.94207,-0.387283 1.806365,-0.994465 2.816479,-1.191541 1.298304,-0.146937 2.61013,-0.03498 3.913971,-0.06841 1.306046,-0.02027 2.613166,0.03587 3.901974,0.259531 1.208828,0.152453 2.477491,0.277431 3.513164,0.986082 0.344377,0.298396 0.314192,0.097 0.516473,-0.150878 z" />
    <path
       id="path27"
       style="opacity:1;fill:#000000;stroke-width:0.3"
       d="m 67.984997,71.862795 c -0.369276,0.01289 -0.738104,0.06257 -1.083418,0.195394 -0.666376,0.142682 -1.345661,0.55372 -1.710857,1.126451 -0.450886,0.630252 -0.82468,1.320668 -0.881015,2.117983 -0.063,0.576088 0.110794,1.170021 0.425047,1.651481 0.348643,0.504701 0.909386,0.805879 1.453361,1.056443 0.697124,0.311579 1.484346,0.241267 2.218557,0.126335 0.796024,-0.187429 1.574207,-0.529543 2.192631,-1.07228 0.454119,-0.382566 0.690324,-0.946098 0.855765,-1.5012 0.1107,-0.524788 -0.01107,-1.068014 -0.144608,-1.577129 -0.23274,-0.694967 -0.6359,-1.379921 -1.271091,-1.774691 -0.364697,-0.210364 -0.778944,-0.33275 -1.202038,-0.308688 -0.282983,-0.03236 -0.567922,-0.03802 -0.852334,-0.0401 z m -0.0036,0.398942 c 0.429289,0.0025 0.859304,0.03117 1.285704,0.06724 0.545789,0.117048 1.000983,0.490974 1.280014,0.967382 0.39439,0.601308 0.57076,1.334872 0.544703,2.04897 -0.128379,0.526028 -0.343508,1.067017 -0.766358,1.427303 -0.562205,0.490504 -1.269299,0.79602 -1.989543,0.971003 -0.548171,0.08422 -1.123066,0.150154 -1.666577,0.01211 -0.505634,-0.153847 -0.984034,-0.418062 -1.381935,-0.765853 -0.409058,-0.400438 -0.608468,-0.996209 -0.587923,-1.56183 0.03069,-0.744582 0.465453,-1.378109 0.885512,-1.96305 0.3085,-0.493429 0.793784,-0.876721 1.366003,-1.007413 0.218052,-0.02297 0.452257,-0.181708 0.710128,-0.172954 0.106932,-0.0039 0.214146,-0.01381 0.320272,-0.02291 z"
       sodipodi:nodetypes="scccccccccccssscccccccccccss" />
    <path
       style="opacity:1;fill:#000000;stroke-width:0.3"
       id="path28"
       d="m 80.3771,73.17724 c -0.414178,-0.481672 -0.838158,-1.011399 -1.46382,-1.219113 -0.477972,-0.17049 -1.003289,-0.211548 -1.494576,-0.07254 -0.565692,0.112549 -1.150018,0.321027 -1.521132,0.78764 -0.455005,0.475373 -0.765177,1.078696 -0.887085,1.725444 -0.07892,0.374059 -0.107053,0.764048 -0.07772,1.145298 0.08398,0.536745 0.302378,1.060518 0.639681,1.487649 0.292585,0.29132 0.585148,0.583934 0.844385,0.906447 0.103419,-0.0834 0.206837,-0.16679 0.310256,-0.250185 -0.27325,-0.344422 -0.58984,-0.650553 -0.892384,-0.967238 -0.282478,-0.408247 -0.492231,-0.890331 -0.517706,-1.391217 0.0066,-0.646741 0.130638,-1.311348 0.475599,-1.866969 0.282147,-0.412016 0.608925,-0.848839 1.102414,-1.013131 0.40135,-0.133617 0.821134,-0.259293 1.24809,-0.247811 0.542105,0.03916 1.078457,0.263318 1.434911,0.683042 0.17642,0.14791 0.329728,0.418088 0.502121,0.50499 0.09899,-0.07077 0.19798,-0.141535 0.29697,-0.212302 z" />
    <path
       style="opacity:1;fill:#000000;stroke-width:0.3"
       id="path29"
       d="m 67.706877,72.145683 c 0.77299,-0.03254 1.5885,0.07222 2.236726,0.52816 0.666968,0.371552 0.891027,1.143222 1.147519,1.807831 0.256107,0.836211 0.602873,1.642539 0.96786,2.435434 0.306229,0.625456 1.206954,0.960989 1.779772,0.486192 0.528502,-0.42285 0.730096,-1.099403 1.032843,-1.679171 0.31715,-0.664998 0.462986,-1.387647 0.63565,-2.098344 0.19839,-0.798143 0.959291,-1.308421 1.700237,-1.550444 0.206813,-0.150359 0.720021,0.104151 0.692143,-0.227606 0.133159,-0.364776 -0.315346,-0.216026 -0.538108,-0.208948 -0.802571,0.148634 -1.559679,0.6306 -2.00777,1.316692 -0.385444,0.709611 -0.373673,1.555044 -0.715053,2.284023 -0.232777,0.551068 -0.474659,1.107199 -0.804372,1.607533 -0.22342,0.348523 -0.708547,0.512156 -1.063198,0.2578 -0.482578,-0.294921 -0.550395,-0.913108 -0.79625,-1.377493 -0.435426,-0.939386 -0.597883,-2.007106 -1.208967,-2.86042 -0.616561,-0.72384 -1.57537,-1.08855 -2.510753,-1.120429 -0.231004,0.02968 -0.650869,-0.125799 -0.548285,0.238209 2e-6,0.05366 4e-6,0.107321 6e-6,0.160981 z" />
    <path
       style="opacity:1;fill:#000000;stroke-width:0.3"
       id="path30"
       d="m 72.921859,71.477337 c 0.09065,0.504781 0.05149,1.021722 0.06512,1.532027 0.0036,1.191929 -0.0035,2.384051 0.0042,3.57587 0.01521,0.309435 0.06617,0.616144 0.06664,0.926479 0.132811,-0.0032 0.265622,-0.0065 0.398433,-0.0097 -0.0063,-0.449941 -0.09045,-0.895558 -0.06903,-1.346471 -0.0048,-1.391365 0.01267,-2.783008 -0.01325,-4.174176 -0.01601,-0.194514 -0.0051,-0.433685 -0.07838,-0.597558 -0.124571,0.03118 -0.249141,0.06235 -0.373712,0.09353 z" />
  </g>
</svg>
