<?xml version="1.0" encoding="UTF-8" standalone="no"?>
<!-- Created with Inkscape (http://www.inkscape.org/) -->

<svg
   width="60.358006mm"
   height="42.115868mm"
   viewBox="0 0 60.358006 42.115868"
   version="1.1"
   id="svg1"
   xml:space="preserve"
   sodipodi:docname="u-lakam-tun-ni-li.svg"
   inkscape:version="1.4 (e7c3feb1, 2024-10-09)"
   xmlns:inkscape="http://www.inkscape.org/namespaces/inkscape"
   xmlns:sodipodi="http://sodipodi.sourceforge.net/DTD/sodipodi-0.dtd"
   xmlns="http://www.w3.org/2000/svg"
   xmlns:svg="http://www.w3.org/2000/svg"><sodipodi:namedview
     id="namedview1"
     pagecolor="#ffffff"
     bordercolor="#666666"
     borderopacity="1.0"
     inkscape:showpageshadow="2"
     inkscape:pageopacity="0.0"
     inkscape:pagecheckerboard="0"
     inkscape:deskcolor="#d1d1d1"
     inkscape:document-units="mm"
     inkscape:zoom="1.2436308"
     inkscape:cx="299.92825"
     inkscape:cy="287.46475"
     inkscape:window-width="2560"
     inkscape:window-height="1296"
     inkscape:window-x="1440"
     inkscape:window-y="25"
     inkscape:window-maximized="1"
     inkscape:current-layer="layer1" /><defs
     id="defs1" /><g
     inkscape:label="Layer 1"
     inkscape:groupmode="layer"
     id="layer1"
     transform="translate(-19.347455,-17.381888)"><ellipse
       style="fill:#000000;stroke-width:0.3"
       id="path30-5"
       cx="57.865894"
       cy="43.824173"
       rx="0.45131242"
       ry="0.43250772" /><ellipse
       style="fill:#000000;stroke-width:0.3"
       id="path30-39"
       cx="49.324013"
       cy="45.789085"
       rx="0.45131242"
       ry="0.43250772" /><ellipse
       style="fill:#000000;stroke-width:0.3"
       id="path30-18"
       cx="48.076313"
       cy="46.999172"
       rx="0.45131242"
       ry="0.43250772" /><ellipse
       style="fill:#000000;stroke-width:0.3"
       id="path30-3"
       cx="46.905151"
       cy="48.511456"
       rx="0.45131242"
       ry="0.43250772" /><ellipse
       style="fill:#000000;stroke-width:0.3"
       id="path30-4"
       cx="46.14769"
       cy="49.834373"
       rx="0.45131242"
       ry="0.43250772" /><ellipse
       style="fill:#000000;stroke-width:0.3"
       id="path30-7"
       cx="45.695061"
       cy="51.232506"
       rx="0.45131242"
       ry="0.43250772" /><ellipse
       style="fill:#000000;stroke-width:0.3"
       id="path30-9"
       cx="54.463921"
       cy="43.974609"
       rx="0.45131242"
       ry="0.43250772" /><ellipse
       style="fill:#000000;stroke-width:0.3"
       id="path30-1"
       cx="52.611839"
       cy="44.392269"
       rx="0.45131242"
       ry="0.43250772" /><ellipse
       style="fill:#000000;stroke-width:0.3"
       id="path30-6"
       cx="56.278397"
       cy="43.824173"
       rx="0.45131242"
       ry="0.43250772" /><path
       id="path1"
       style="opacity:1;fill:#000000;stroke-width:0.3"
       d="m 27.939897,19.857186 c -1.657448,-0.04126 -3.334195,0.302527 -4.693254,1.297565 -4.528657,2.095056 -4.076598,13.018488 -3.631173,31.384648 0.20379,1.145545 1.246465,2.05654 2.048459,2.913468 1.883506,1.819249 4.771968,1.745872 7.175789,1.311491 1.605837,-0.351729 3.150308,-1.58949 3.255102,-3.328478 0.194462,-1.476627 -1.273956,-2.764085 -2.718713,-2.391539 -1.169858,0.164137 -2.492799,0.116136 -3.341398,-0.831926 -1.151401,-0.882754 -0.841219,-2.423443 -0.884147,-3.675228 0.270295,-3.661864 0.09773,-7.340584 0.14627,-11.011214 0.03248,-2.422288 -0.200319,-4.845253 0.09201,-7.259505 -0.0586,-1.412829 0.192191,-3.372164 1.945359,-3.542881 1.256178,-0.261992 2.713079,0.466388 3.818121,-0.655327 1.237241,-1.210356 0.177652,-3.253731 -1.194231,-3.843176 C 29.339875,19.901049 28.62109,19.886306 27.9399,19.857186 Z m -0.02429,0.799434 c 1.413047,-0.182495 3.207519,0.842969 2.950776,2.441204 -0.524656,1.114518 -1.931582,0.830941 -2.79878,0.725499 -1.424803,0.0159 -3.083493,0.778886 -3.277322,2.347667 -0.24699,1.734117 -0.309581,3.493441 -0.36338,5.244125 0.132439,4.384832 0.06305,8.779508 0.05271,13.166121 -0.123989,1.588073 -0.266011,3.204162 0.0258,4.760946 0.646947,1.764119 2.640225,2.903228 4.494296,2.517177 1.002605,-0.277401 2.363845,0.137938 2.305289,1.371993 -0.0099,1.694705 -1.72602,2.713112 -3.241627,2.870112 -2.162893,0.270744 -4.788561,0.219583 -6.257499,-1.657196 -2.585351,-2.916439 -0.931681,-3.344364 -1.60419,-12.803873 0.01658,-0.163198 -0.0042,-11.78199 0.361814,-13.478247 0.487067,-3.430949 1.608689,-5.794116 4.867918,-7.236772 0.808952,-0.217697 1.652148,-0.240373 2.484198,-0.268756 z"
       sodipodi:nodetypes="scccccccccccccssscccccccccccccss" /><path
       id="path4"
       style="opacity:1;fill:#000000;stroke-width:0.3"
       d="m 74.656425,17.382918 c -0.309283,-0.01217 -0.627795,0.08361 -0.865064,0.280603 0,0 -0.550085,0.539562 -0.85111,0.798398 -1.009199,0.974843 -2.398985,1.447682 -3.795634,1.295528 -6.154065,-0.07311 -12.311563,-0.08209 -18.466573,-0.01912 -1.613801,0.09754 -3.220506,0.334946 -4.824512,0.510563 -1.8568,0.5064 -3.877946,0.901951 -5.246192,2.380733 -1.616313,1.484471 -2.532068,3.540834 -2.974495,5.659087 -0.671691,1.951767 -0.960685,4.025725 -1.133264,6.072497 -0.01985,0.960628 0.2025,0.763948 0.901754,0.580326 -0.291292,-1.430244 0.277265,-2.877912 0.414961,-4.302579 0.381896,-1.587855 0.838429,-3.161875 1.383895,-4.701005 1.023027,-2.172166 2.924616,-4.076902 5.365047,-4.502051 1.68111,-0.606125 3.47633,-0.560233 5.222937,-0.836125 4.559869,-0.198454 9.129956,-0.04175 13.693738,-0.09457 2.552149,-0.09505 5.127763,0.257305 7.663098,-0.09819 1.326192,-0.349929 3.338163,-2.198855 3.331063,-2.218986 0.320966,-0.09964 0.54341,0.189758 0.476457,0.58291 -0.08219,0.813906 0.872384,1.444213 0.449068,2.260327 -0.200167,0.759419 -0.970623,1.164244 -1.207678,1.894458 -0.256024,0.92114 0.587569,1.679526 0.451135,2.596741 0.0049,1.126637 0.03963,2.254685 -0.12609,3.372404 -0.04603,1.1041 0.01845,2.433959 1.013891,3.135726 0.514175,0.39775 1.045973,1.101357 0.771013,1.768884 -1.055799,0.693363 -2.536181,0.567276 -3.563607,-0.134358 -0.768517,-0.392852 -1.000563,-1.311674 -0.913639,-2.109949 0.05471,-1.067828 -0.09527,-2.393469 -1.12603,-2.972945 -0.700506,-0.296841 -1.373915,0.319943 -1.831929,0.785998 -0.668259,0.714454 -1.216857,1.536083 -1.531173,2.468067 -0.424644,1.414821 -1.568226,2.444079 -2.745052,3.256132 0.197235,0.158442 0.377195,0.530475 0.585494,0.549837 1.332162,-0.88154 2.498176,-2.117596 2.969328,-3.674711 0.341181,-0.949212 0.965959,-1.785947 1.725992,-2.440161 0.694891,-0.744176 1.123069,0.630248 1.150318,1.19941 0.02932,0.963085 -0.146993,2.01883 0.460954,2.854606 1.034239,1.315051 2.961771,1.803219 4.528405,1.25367 0.786414,-0.143428 1.366312,-0.916822 1.130164,-1.711007 -0.0988,-0.856273 -0.791678,-1.456671 -1.402498,-1.986442 -0.542816,-0.742156 -0.449495,-1.753174 -0.378789,-2.620512 0.150321,-1.16685 0.07305,-2.34867 0.06976,-3.521748 0.03357,-0.730134 -0.818367,-1.446839 -0.313159,-2.134237 0.709359,-0.736124 1.411754,-1.774975 1.107943,-2.843754 -0.388741,-0.630495 -0.491278,-1.327342 -0.61495,-2.038635 -0.174782,-0.386023 -0.557331,-0.580183 -0.95498,-0.59583 z"
       sodipodi:nodetypes="sccccccccccccccccccccccccccccccccccccccccccss" /><path
       id="path5"
       style="opacity:1;fill:#000000;stroke-width:0.3"
       d="m 50.163863,32.416109 c -2.766025,0.07174 -10.219076,0.438293 -12.86846,2.309475 -4.79587,2.144176 -5.62812,7.635519 -5.760882,9.975613 -0.115858,1.860143 -0.0556,3.967422 1.371465,5.362464 0.949277,1.308869 2.414876,2.187599 4.039547,2.302182 1.90191,0.256403 3.813565,0.3694 5.734016,0.321487 3.05388,0.03094 6.112551,-0.01176 9.167656,-0.01402 5.16537,-0.504129 14.250523,-1.465793 14.546154,-8.177982 0.242321,-2.378583 0.700775,-4.825733 0.0554,-7.186641 C 64.737598,31.85664 54.093772,32.476865 50.163863,32.416109 Z m -2.298568,0.800985 c 4.295187,0.217836 11.969824,-0.450036 15.695166,1.948641 1.312723,0.647817 2.288695,1.785116 2.318202,3.303158 0.331154,2.266614 -0.22521,4.508142 -0.335314,6.763411 -1.255982,6.838116 -14.868271,6.680389 -16.179355,6.649261 -3.508386,-0.03723 -7.024425,0.133647 -10.525456,-0.104821 -1.626869,-0.230444 -3.566377,-0.164422 -4.719608,-1.558061 -1.04652,-0.980092 -1.857818,-2.286507 -1.805578,-3.767729 -0.05246,-1.705665 0.05358,-9.315674 5.973737,-11.278386 3.096229,-1.175432 6.298491,-1.778389 9.578206,-1.95547 z"
       sodipodi:nodetypes="ccccccccccsccccccccss" /><circle
       id="path6"
       style="fill:#000000;stroke:#000000;stroke-width:0.264583"
       cx="66.165474"
       cy="36.859062"
       r="0.0015940347" /><path
       style="opacity:1;fill:#000000;stroke-width:0.3"
       id="path7"
       d="m 66.163684,36.890904 c 1.026564,-1.097062 2.523864,-1.608493 3.999828,-1.651666 1.694174,-0.06369 3.477189,-0.171906 5.080145,0.468462 0.932384,0.500523 1.650869,1.344099 2.297728,2.165502 0.670685,1.188014 0.929441,2.536012 1.078911,3.875558 0.389802,1.613404 0.29577,3.292926 0.239716,4.938083 -0.02819,1.710748 -0.0165,3.452197 -0.573584,5.095312 -0.434256,1.405395 -0.2789,3.195851 -1.548481,4.193201 -1.25598,0.861451 -2.665349,1.700257 -4.250907,1.585149 -2.266415,-0.05606 -4.670906,0.319898 -6.793007,-0.682747 -0.997554,-0.514211 -1.790792,-1.48448 -1.808079,-2.647141 -0.225173,-1.539343 -0.434485,-3.090206 -0.33418,-4.649085 -0.516778,-0.09162 -1.064278,-0.173588 -0.808263,0.585877 -0.0558,1.688457 0.213039,3.36724 0.504631,5.023842 0.510147,1.830943 2.438047,2.829504 4.210221,3.041587 1.780852,0.269175 3.592009,0.09943 5.386435,0.125863 1.736911,0.01086 3.280442,-0.946473 4.624837,-1.946925 1.325667,-1.250091 1.181397,-3.22722 1.709102,-4.839358 0.579526,-1.916794 0.408659,-3.933218 0.523696,-5.903659 0.0055,-1.429643 0.03675,-2.872899 -0.328488,-4.267457 -0.192911,-1.877051 -0.718943,-3.880585 -2.198662,-5.164698 -0.815355,-0.97862 -1.994469,-1.605529 -3.267316,-1.705356 -1.744443,-0.228935 -3.538188,-0.198833 -5.270797,0.09877 -1.12525,0.259232 -2.20212,0.817589 -2.983277,1.65018 0.16993,0.203569 0.339861,0.407137 0.509791,0.610706 z" /><path
       style="opacity:1;fill:#000000;stroke-width:0.3"
       id="path8"
       d="m 40.656324,23.393824 c -0.309833,-1.52469 -1.681207,-2.643463 -3.167428,-2.943624 -1.122644,-0.268316 -2.319228,-0.280984 -3.447432,-0.03025 -1.330856,0.308895 -2.195284,1.735027 -2.147197,3.052009 0.08605,0.798278 0.691049,1.51836 0.46711,2.351434 -0.289806,1.600392 -0.610156,3.194966 -0.98341,4.777696 -0.179909,1.61053 -0.09746,3.390573 0.931442,4.725286 0.626083,0.771178 1.492641,1.304048 2.379045,1.727463 0.111344,-0.241091 0.222687,-0.482182 0.334031,-0.723273 -1.077661,-0.507221 -2.169096,-1.233441 -2.589616,-2.404785 -0.397686,-1.065331 -0.383051,-2.244757 -0.236412,-3.357642 0.396814,-1.614923 0.71279,-3.249185 0.99315,-4.887793 0.12627,-0.802723 -0.334707,-1.516925 -0.4995,-2.269728 -0.0129,-1.015526 0.688035,-2.141631 1.764533,-2.257823 1.277292,-0.205759 2.64738,-0.146039 3.828638,0.425016 0.76705,0.375623 1.367395,1.086863 1.583441,1.914624 0.263202,-0.03287 0.526403,-0.06574 0.789605,-0.09861 z" /><path
       id="path9"
       style="opacity:1;fill:#000000;stroke-width:0.3"
       d="m 28.243237,25.086841 c -0.125082,0.0082 -0.987949,0.09258 -1.765333,0.888745 -0.461162,0.444829 -0.714842,1.114163 -0.594421,1.751674 0.05296,0.478405 0.195742,0.968494 0.540572,1.320828 0.342054,0.343816 0.824154,0.51624 1.301657,0.552304 0.506254,0.06352 1.003592,-0.111125 1.445979,-0.343085 0.47899,-0.244153 0.861873,-0.651509 1.137264,-1.107886 0.228301,-0.437609 0.299744,-0.960256 0.152384,-1.436066 -0.07892,-0.349786 -0.279742,-0.659142 -0.554696,-0.887098 -0.36033,-0.336804 -0.820544,-0.543426 -1.281885,-0.700597 -0.123999,-0.03997 -0.253565,-0.03412 -0.381521,-0.03882 z m 1.23215,1.432835 c 0.204192,0.191624 0.252814,0.493013 0.266007,0.76045 -0.01581,0.344909 -0.204245,0.650989 -0.446033,0.886869 -0.26401,0.308017 -0.64915,0.474969 -1.024859,0.601148 -0.309915,0.08263 -0.645509,0.04346 -0.942986,-0.06688 -0.305275,-0.107599 -0.520342,-0.388172 -0.582889,-0.7009 -0.06758,-0.336607 -0.160251,-0.7065 0.0037,-1.031013 0.136151,-0.323286 0.414691,-0.561379 0.688643,-0.76829 0.574946,-0.425112 1.250807,-0.413233 2.038417,0.318616 z"
       sodipodi:nodetypes="ccccccccccccccccccccc" /><path
       id="path10"
       style="opacity:1;fill:#000000;stroke-width:0.3"
       d="m 28.495935,29.334127 c -0.689587,0.02386 -1.354667,0.350654 -1.825728,0.849041 -0.373947,0.413311 -0.503542,0.978314 -0.590096,1.51343 -0.08929,0.633185 0.166345,1.280648 0.596882,1.740528 0.415876,0.441615 1.070962,0.556422 1.64974,0.462805 0.39269,-0.05091 0.764507,-0.211535 1.111446,-0.396153 0.548126,-0.280946 0.938834,-0.835554 1.018874,-1.446219 0.106766,-0.549234 0.04258,-1.139379 -0.212873,-1.639702 -0.246754,-0.434477 -0.653824,-0.765054 -1.100737,-0.977405 -0.204162,-0.08025 -0.430609,-0.110793 -0.647501,-0.07325 l -7e-6,-0.03308 z m 0.783189,1.144099 c 0.192678,0.17128 0.336642,0.395994 0.378363,0.653324 0.09035,0.379288 0.05324,0.786827 -0.08973,1.148177 -0.187451,0.41164 -0.625666,0.602785 -1.025438,0.748213 -0.272425,0.09991 -0.57782,0.130276 -0.863702,0.07571 -0.337515,-0.04821 -0.567633,-0.334923 -0.694267,-0.63043 -0.228928,-0.441522 -0.07845,-0.948548 0.06839,-1.389865 0.154722,-0.45407 0.605304,-0.724037 1.034054,-0.877876 0.469057,-0.193866 0.807448,-0.03097 1.19233,0.272747 z"
       sodipodi:nodetypes="sccccccccccsccccccccc" /><path
       id="path11"
       style="opacity:1;fill:#000000;stroke-width:0.3"
       d="m 28.334705,33.854781 c -0.581625,0.02743 -1.157014,0.207985 -1.658541,0.502142 -0.340048,0.212683 -0.631412,0.506236 -0.857048,0.836766 -0.372591,0.593864 -0.352045,1.366321 -0.06199,1.9893 0.235195,0.523619 0.675514,0.98737 1.24601,1.129143 0.52233,0.16259 1.088504,0.154933 1.611129,-0.0028 0.440161,-0.105527 0.879537,-0.266435 1.216958,-0.579522 0.441753,-0.358515 0.65228,-0.937008 0.636402,-1.496047 0.004,-0.483478 -0.08609,-0.977583 -0.347292,-1.392096 -0.247859,-0.477817 -0.729435,-0.803359 -1.252533,-0.905066 -0.149529,-0.06439 -0.48056,-0.01405 -0.533092,-0.08179 z m -0.03979,0.799951 c 0.163146,0.05063 0.413292,0.02984 0.596092,0.115828 0.248664,0.0849 0.447416,0.271928 0.558536,0.50895 0.233942,0.389052 0.250009,0.869265 0.18705,1.307252 -0.102801,0.457351 -0.53334,0.762394 -0.965781,0.875247 -0.412126,0.129472 -0.852306,0.233355 -1.282289,0.125742 -0.25365,-0.0482 -0.503137,-0.153211 -0.665554,-0.361913 -0.340307,-0.399748 -0.500172,-0.993535 -0.289434,-1.49097 0.129477,-0.264802 0.357823,-0.467957 0.584979,-0.64854 0.381347,-0.244511 0.827725,-0.384443 1.276401,-0.431596 z" /><path
       id="path12"
       style="opacity:1;fill:#000000;stroke-width:0.3"
       d="m 28.563114,38.248828 c 0,0.07801 -0.210102,0.07102 -0.33279,0.09813 -0.60462,-0.01484 -1.177965,0.257296 -1.653743,0.610398 -0.43333,0.328401 -0.56723,0.894305 -0.601416,1.409116 -0.02066,0.684391 0.248989,1.400202 0.807283,1.819414 0.505341,0.385357 1.130855,0.600526 1.760521,0.659702 0.732735,0.0695 1.501418,-0.289985 1.870221,-0.936293 0.307978,-0.513115 0.442772,-1.131667 0.37916,-1.726224 -0.07208,-0.486327 -0.26239,-0.976256 -0.646174,-1.301225 -0.438971,-0.371187 -1.012303,-0.590012 -1.583062,-0.63302 z m 1.107568,1.284185 c 0.234346,0.231372 0.314805,0.575216 0.339868,0.892926 -0.0071,0.483008 -0.141865,1.001309 -0.503241,1.341245 -0.382221,0.34418 -0.947734,0.336385 -1.410423,0.183229 -0.483692,-0.135219 -0.999399,-0.393806 -1.201359,-0.884201 -0.17125,-0.424599 -0.162334,-0.924444 0.0434,-1.334802 0.182442,-0.247795 0.485817,-0.367689 0.757582,-0.490929 0.969106,-0.335622 1.559607,-0.09603 1.974173,0.292532 z"
       sodipodi:nodetypes="sccccccccsscccccccc" /><path
       id="path13"
       style="opacity:1;fill:#000000;stroke-width:0.3"
       d="m 28.711426,42.614453 c -0.503422,-0.02645 -0.998435,0.12391 -1.435819,0.36587 -0.511482,0.24601 -0.949468,0.642006 -1.253694,1.119928 -0.29221,0.551057 -0.190731,1.233902 0.09473,1.766368 0.241449,0.435348 0.555439,0.883569 1.04847,1.050266 0.439417,0.174129 0.923211,0.216056 1.391917,0.191621 0.602284,-0.06924 1.203718,-0.313974 1.632239,-0.751279 0.377812,-0.398298 0.557197,-0.94429 0.587483,-1.484502 0.01669,-0.370467 0.0069,-0.754064 -0.112098,-1.10841 -0.196199,-0.525417 -0.712596,-0.867366 -1.229641,-1.025158 -0.239027,-0.05761 -0.464753,-0.0738 -0.671811,-0.122253 l -0.05174,-0.0025 z m 0.535206,0.900637 c 0.31003,0.111344 0.669133,0.317692 0.706774,0.681241 0.0641,0.535767 0.05322,1.147804 -0.317734,1.578357 -0.295176,0.322554 -0.734813,0.483858 -1.160496,0.538756 -0.399292,0.0089 -0.8256,-0.01695 -1.179567,-0.218728 -0.239976,-0.168539 -0.380983,-0.440305 -0.517703,-0.692163 -0.130851,-0.295209 -0.209215,-0.674697 -0.02612,-0.964795 0.251428,-0.340649 0.584094,-0.618449 0.97257,-0.789688 0.29821,-0.156394 1.347073,-0.204626 1.522276,-0.13298 z"
       sodipodi:nodetypes="cccccccccccccccccccccc" /><path
       id="path14"
       style="opacity:1;fill:#000000;stroke-width:0.3"
       d="m 28.532625,46.825566 c -0.08259,0.09335 -0.334245,-0.01212 -0.47994,0.0376 -0.638177,0.06332 -1.272872,0.40782 -1.595329,0.974707 -0.139949,0.29505 -0.193365,0.622077 -0.255971,0.939906 -0.07908,0.536195 0.09854,1.090434 0.408113,1.527135 0.244099,0.352654 0.566166,0.671772 0.96382,0.84417 0.567119,0.198471 1.229189,0.172177 1.752062,-0.139557 0.439533,-0.220016 0.775211,-0.619161 0.933657,-1.082789 0.188963,-0.555406 0.207548,-1.181664 -0.0016,-1.734224 -0.163586,-0.358372 -0.453816,-0.638265 -0.724347,-0.916974 -0.218346,-0.21675 -0.518117,-0.327675 -0.806723,-0.415132 -0.06371,-0.01588 -0.128928,-0.02573 -0.1937,-0.03484 z m -0.278019,0.826306 c 0.215555,0.0238 0.382554,-0.02078 0.564253,0.09245 0.204684,0.09311 0.330918,0.294674 0.48471,0.451196 0.158234,0.159711 0.269078,0.362335 0.288284,0.58887 0.05245,0.471958 -0.02798,1.010153 -0.390004,1.348489 -0.273239,0.23158 -0.631903,0.380709 -0.994681,0.338482 -0.218318,-0.0048 -0.43307,-0.07579 -0.591534,-0.229824 -0.362592,-0.309599 -0.63985,-0.759316 -0.637926,-1.247606 0.03655,-0.269961 0.09727,-0.53905 0.18964,-0.795304 0.23599,-0.352262 0.671376,-0.542245 1.087258,-0.546757 z" /><path
       style="opacity:1;fill:#000000;stroke-width:0.3"
       id="path15"
       d="m 34.508244,51.108593 c -1.03411,0.678738 -1.247913,2.013955 -1.723916,3.074493 -0.611426,1.287564 -0.493666,3.049716 0.737818,3.934875 1.776076,1.290973 4.097721,1.282129 6.202728,1.349095 3.427461,0.01858 6.85784,0.07657 10.283541,-0.04133 2.526663,-0.250289 5.071855,-0.196173 7.601963,-0.34261 1.372288,-0.187423 3.068444,-0.360345 3.758645,-1.765309 0.940948,-1.362704 1.282817,-3.036588 1.145188,-4.669698 -0.02061,-0.817978 -0.09682,-1.649855 -0.31306,-2.439996 -0.411523,0.150759 -0.95838,0.183827 -0.643321,0.741388 0.23672,1.805489 0.403348,3.776733 -0.556536,5.41725 -0.370904,0.881629 -1.090905,1.582156 -2.07132,1.691892 -1.873781,0.427248 -3.803304,0.246862 -5.706419,0.373045 -2.354956,0.06836 -4.702938,0.33407 -7.062522,0.245323 -2.983194,-0.04073 -5.975743,0.09549 -8.951644,-0.156236 -1.394298,-0.193967 -3.122898,-0.450646 -3.839662,-1.835349 -0.474995,-1.36307 0.38139,-2.680857 0.8484,-3.920527 0.137392,-0.634525 1.006616,-0.924346 0.372405,-1.512187 -0.02743,-0.04804 -0.05486,-0.09608 -0.08229,-0.144122 z" /><path
       style="opacity:1;fill:#000000;stroke-width:0.3"
       id="path17"
       d="m 36.553129,51.541243 c -1.188073,-1.348109 -1.285818,-3.211199 -1.512063,-4.906822 -0.134024,-1.590112 0.444517,-3.159813 1.160614,-4.551091 1.116335,-1.547783 2.937868,-2.364884 4.639522,-3.102754 2.465553,-0.693339 14.043375,-3.197819 19.77246,0.03343 1.26371,0.952848 1.299387,2.637315 1.269064,4.071814 0.05766,2.613492 -0.530057,5.273524 -1.838803,7.547996 0.537933,0.576272 0.621351,-0.603094 0.913841,-0.900089 1.252558,-2.723576 1.546392,-5.81032 1.218985,-8.766363 -1.373873,-5.971146 -14.447131,-3.913109 -18.48058,-3.147004 -2.591417,0.428414 -5.118686,1.471112 -7.118003,3.191926 -1.171647,1.138232 -1.601536,2.795901 -1.917498,4.345461 -0.217875,2.083751 0.76657,6.797282 1.827543,6.237522 l 0.04822,-0.04013 z"
       sodipodi:nodetypes="ccccccccccccccc" /><path
       style="opacity:1;fill:#000000;stroke-width:0.3"
       id="path18"
       d="m 41.611661,51.987007 c -0.872056,-0.488023 -1.751027,-1.067822 -2.189643,-2.004074 -0.807413,-1.192414 -1.187498,-2.716864 -0.745251,-4.118982 0.153886,-1.091245 0.531744,-2.174579 1.332713,-2.963847 1.091604,-1.162965 2.552434,-1.89144 4.081721,-2.289255 2.189872,-0.656751 4.500885,-0.49441 6.753511,-0.691271 1.243856,0.01261 2.489006,0.06806 3.733041,0.09578 1.139793,0.137932 2.393635,0.176147 3.27193,1.027732 1.088777,0.817246 1.508504,2.29433 1.287985,3.603108 -0.04182,1.917915 -0.845596,3.747344 -2.062304,5.20963 -0.328815,0.555563 -1.057145,1.204329 -1.142121,1.725339 0.501972,0.414951 0.720093,-0.765778 1.108287,-1.011132 1.118964,-1.388397 2.130464,-2.957496 2.376654,-4.760902 0.155887,-1.25053 0.373764,-2.594616 -0.259404,-3.758406 -0.642734,-1.356203 -2.105701,-2.245931 -3.591598,-2.319063 -1.444711,-0.224286 -2.910892,-0.116915 -4.365038,-0.226244 -1.542249,0.09209 -3.088847,0.125033 -4.628993,0.246745 -1.890968,0.173045 -3.798458,0.668647 -5.4216,1.677304 -1.346083,0.892652 -2.547169,2.201905 -2.769397,3.861891 -0.249698,1.052502 -0.467544,2.16401 -0.09163,3.217922 0.323573,1.019324 0.87261,1.990846 1.595013,2.779371 0.470507,0.247461 1.261309,1.286558 1.653024,0.826223 0.02437,-0.04262 0.04873,-0.08524 0.0731,-0.127865 z" /><path
       style="opacity:1;fill:#000000;stroke-width:0.3"
       id="path19"
       d="m 40.553759,41.956357 c -0.132877,0.200276 -0.153822,0.491654 0.01466,0.678493 0.153248,0.16577 0.376018,0.259798 0.597235,0.289224 0.310512,0.02798 0.622568,-0.02639 0.921684,-0.107377 0.318283,-0.09925 0.641854,-0.239099 0.865303,-0.495841 0.196392,-0.209686 0.314931,-0.484186 0.343131,-0.769325 0.04675,-0.307228 -0.02885,-0.66381 -0.28655,-0.860932 -0.04235,-0.03146 -0.06487,0.06385 -0.0981,0.0907 l -0.156471,0.216952 c 0.158334,0.119131 0.171904,0.345309 0.141915,0.525948 -0.02972,0.3227 -0.247418,0.611859 -0.535153,0.753038 -0.248218,0.131569 -0.523955,0.204856 -0.801482,0.239658 -0.190109,0.01809 -0.394645,0.04039 -0.568148,-0.059 -0.144465,-0.03781 -0.145695,-0.289139 -0.05017,-0.40291 -0.11518,-0.06578 -0.27267,-0.03284 -0.38785,-0.09863 z"
       sodipodi:nodetypes="scccccccccccccss" /><path
       style="opacity:1;fill:#000000;stroke-width:0.3"
       id="path20"
       d="m 43.261634,40.56481 c -0.103845,0.150073 -0.217876,0.305076 -0.23534,0.493162 -0.02747,0.21299 0.03628,0.425472 0.100419,0.626496 0.06792,0.175623 0.181818,0.338526 0.349271,0.431556 0.205694,0.1412 0.461915,0.211816 0.710062,0.168197 0.277716,-0.03684 0.558242,-0.14881 0.738846,-0.371399 0.225778,-0.262968 0.364457,-0.60105 0.393095,-0.945994 0.02781,-0.258145 -0.07352,-0.512304 -0.214763,-0.723504 -0.03933,-0.03334 -0.09053,-0.172509 -0.141322,-0.107758 -0.08304,0.08682 -0.166075,0.173641 -0.249112,0.260461 0.115327,0.120813 0.188311,0.283781 0.210552,0.448632 -9.59e-4,0.284249 -0.10576,0.568106 -0.284538,0.788757 -0.09662,0.128498 -0.245511,0.202413 -0.400095,0.234617 -0.161986,0.04442 -0.344776,0.04265 -0.489193,-0.0532 -0.104815,-0.05239 -0.196969,-0.130744 -0.237615,-0.24386 -0.05094,-0.136748 -0.08894,-0.281742 -0.0941,-0.428108 0.0048,-0.15057 0.120759,-0.256854 0.189597,-0.380631 -0.115256,-0.06581 -0.230511,-0.131613 -0.345767,-0.197419 z" /><path
       style="opacity:1;fill:#000000;stroke-width:0.3"
       id="path21"
       d="m 44.871153,41.692382 c 0.165157,0.186259 0.337911,0.385398 0.581888,0.46644 0.29057,0.111855 0.609775,0.113001 0.915747,0.08882 0.31729,-0.05292 0.621115,-0.220697 0.801129,-0.492517 0.223679,-0.297088 0.260951,-0.680368 0.284595,-1.039339 0.02471,-0.297614 -0.02199,-0.623298 -0.216975,-0.860229 -0.04534,-0.07434 -0.09354,-0.08101 -0.140256,-0.0091 -0.07247,0.07146 -0.144931,0.142929 -0.217396,0.214393 0.153956,0.129374 0.183276,0.348327 0.180762,0.537818 -0.01715,0.271643 -0.02586,0.555442 -0.142596,0.806257 -0.102277,0.199258 -0.277056,0.365848 -0.498784,0.419793 -0.151512,0.04846 -0.313961,0.03523 -0.470879,0.03185 -0.227335,-0.0126 -0.471956,-0.07534 -0.622053,-0.259286 -0.06959,-0.04033 -0.126423,-0.22114 -0.204541,-0.11384 -0.08355,0.06965 -0.167094,0.139295 -0.250641,0.208942 z" /><path
       style="opacity:1;fill:#000000;stroke-width:0.3"
       id="path22"
       d="m 43.557981,41.954206 c -0.277681,0.170031 -0.531601,0.404508 -0.653545,0.712993 -0.134781,0.32208 -0.210326,0.688136 -0.117689,1.031913 0.08396,0.34626 0.398947,0.600313 0.741869,0.663731 0.253877,0.05331 0.530905,0.07294 0.769606,-0.04804 0.31215,-0.159708 0.506843,-0.484569 0.576182,-0.820381 0.06399,-0.310721 0.02947,-0.631922 -0.03396,-0.939624 -0.03668,-0.188246 -0.08911,-0.381606 -0.21586,-0.531225 -0.04311,-0.07229 -0.09549,-0.1417 -0.150694,-0.04887 -0.0748,0.07262 -0.149598,0.145244 -0.224397,0.217866 0.09733,0.102789 0.165361,0.231885 0.18297,0.373314 0.0472,0.191065 0.07522,0.387877 0.07666,0.584887 -4.66e-4,0.27693 -0.08445,0.577796 -0.309739,0.755629 -0.146986,0.121406 -0.347013,0.109287 -0.522932,0.07857 -0.215063,-0.02491 -0.440966,-0.152463 -0.499595,-0.373598 -0.0641,-0.21812 -0.0232,-0.453178 0.04801,-0.664358 0.06004,-0.187673 0.161997,-0.364313 0.3178,-0.488356 0.08156,-0.07106 0.188583,-0.139535 0.255308,-0.211055 -0.08,-0.0978 -0.159991,-0.195603 -0.239986,-0.293404 z" /><path
       style="opacity:1;fill:#000000;stroke-width:0.3"
       id="path23"
       d="m 45.383579,41.830164 c -0.168626,0.07364 -0.30262,0.20954 -0.419478,0.348248 -0.122951,0.162224 -0.222865,0.344913 -0.258504,0.547409 -0.05296,0.266722 -0.06253,0.5404 -0.0646,0.81159 0.01509,0.3129 0.136138,0.643196 0.400319,0.829185 0.252999,0.170523 0.587566,0.141507 0.855468,0.02275 0.188127,-0.07692 0.352915,-0.203782 0.497544,-0.344691 0.103703,-0.118477 0.185709,-0.255962 0.224315,-0.409562 0.08287,-0.23053 0.05432,-0.478677 0.06378,-0.718687 0.01266,-0.273105 -0.02646,-0.558086 -0.174932,-0.79317 -0.05613,-0.05485 -0.111533,-0.247865 -0.188356,-0.204322 -0.08453,0.08737 -0.169068,0.174739 -0.253602,0.262109 0.109825,0.139469 0.196737,0.301714 0.21184,0.48143 0.01472,0.218976 0.0015,0.439283 -0.0013,0.658701 -0.0039,0.114191 -0.04553,0.223863 -0.08659,0.329116 -0.08185,0.147031 -0.223118,0.245449 -0.363095,0.331944 -0.165526,0.08237 -0.372459,0.154896 -0.548386,0.06269 -0.172843,-0.118605 -0.22943,-0.343298 -0.23895,-0.541782 0.0118,-0.280176 0.0068,-0.568724 0.09767,-0.83744 0.07813,-0.182789 0.208225,-0.345185 0.374308,-0.455443 0.05809,-0.0163 -0.01017,-0.07924 -0.01566,-0.119086 -0.03725,-0.087 -0.07451,-0.173997 -0.111759,-0.260996 z" /><path
       style="opacity:1;fill:#000000;stroke-width:0.3"
       id="path24"
       d="m 41.988462,42.464153 c -0.111483,0.09713 -0.211754,0.211527 -0.281284,0.342757 -0.128878,0.271537 -0.101505,0.59622 0.01765,0.866151 0.10061,0.209382 0.248954,0.412191 0.462971,0.515285 0.166798,0.08176 0.353789,0.127438 0.540044,0.107182 0.141891,-0.0082 0.282442,-0.05268 0.403766,-0.12644 L 42.912161,43.8367 c -0.163557,0.08763 -0.368663,0.08376 -0.533133,1.04e-4 -0.127683,-0.05318 -0.20732,-0.176814 -0.273155,-0.292566 -0.0812,-0.162943 -0.114378,-0.361342 -0.05129,-0.535775 0.0396,-0.09083 0.130493,-0.201198 0.200094,-0.269979 0.0095,-0.02187 -0.05352,-0.01068 -0.0662,-0.03443 -0.06667,-0.07997 -0.133351,-0.159932 -0.200026,-0.239898 z"
       sodipodi:nodetypes="scccccccccccss" /><path
       style="opacity:1;fill:#000000;stroke-width:0.3"
       id="path25"
       d="m 43.412071,44.175309 c -0.09794,0.156557 -0.196828,0.325603 -0.198309,0.5162 -0.0065,0.277253 0.110175,0.554608 0.30511,0.750504 0.125617,0.110023 0.275068,0.196421 0.43447,0.246815 0.182739,0.04691 0.372997,0.07887 0.562059,0.06843 0.215999,-0.03226 0.426059,-0.101455 0.626873,-0.18623 0.273839,-0.116238 0.493396,-0.36305 0.550669,-0.65807 0.03091,-0.113078 0.02577,-0.230724 0.0011,-0.344298 -0.01761,-0.11479 -0.05795,-0.224697 -0.09734,-0.333477 -0.123413,0.04903 -0.246827,0.09805 -0.37024,0.147082 0.0451,0.122356 0.08739,0.249714 0.08884,0.380764 -0.01568,0.179994 -0.12916,0.343482 -0.291781,0.421854 -0.171277,0.08271 -0.355826,0.138411 -0.542135,0.174979 -0.151672,0.003 -0.304751,-0.02204 -0.450259,-0.06466 -0.135086,-0.05821 -0.271333,-0.13902 -0.33709,-0.27695 -0.07968,-0.14842 -0.12215,-0.339577 -0.02691,-0.491422 0.01074,-0.0555 0.141448,-0.146944 0.04929,-0.1776 -0.101447,-0.05798 -0.202893,-0.115952 -0.30434,-0.173928 z" /><path
       style="opacity:1;fill:#000000;stroke-width:0.3"
       id="path26"
       d="m 44.395461,45.435292 c -0.07879,0.08034 -0.172701,0.143418 -0.272738,0.194294 -0.168151,0.09038 -0.330742,0.196091 -0.467931,0.329755 -0.131267,0.127369 -0.232263,0.300518 -0.223019,0.48888 0.0037,0.163275 0.08118,0.31713 0.188248,0.437401 0.07157,0.08962 0.134418,0.187549 0.177861,0.293986 0.120667,-0.05555 0.241333,-0.111093 0.362,-0.16664 -0.0667,-0.160854 -0.167254,-0.305455 -0.278977,-0.438116 -0.04875,-0.06791 -0.07333,-0.165296 -0.02147,-0.238753 0.08943,-0.133658 0.229618,-0.221478 0.363121,-0.305722 0.150819,-0.08299 0.307707,-0.163006 0.427664,-0.289439 -0.08492,-0.101882 -0.169836,-0.203764 -0.254754,-0.305646 z" /><path
       style="opacity:1;fill:#000000;stroke-width:0.3"
       id="path27"
       d="m 59.137703,45.083153 c -1.070614,-0.191917 -2.17132,-0.207129 -3.254095,-0.123047 -1.352735,0.130759 -2.712516,0.416734 -3.945054,1.003432 -0.95162,0.560441 -1.872349,1.225345 -2.534753,2.122615 -0.578318,0.670922 -1.15024,1.367842 -1.467783,2.206149 -0.196878,0.517578 -0.465275,1.070481 -0.596439,1.610578 0.24871,0.07036 0.399006,0.267495 0.498859,-0.27943 0.379444,-0.976496 0.728994,-2.003546 1.461347,-2.78317 0.521896,-0.622355 1.004367,-1.29468 1.685886,-1.756994 0.640631,-0.500919 1.340398,-0.936242 2.128758,-1.160438 3.520133,-1.127545 5.976553,-0.21908 6.097321,-0.540987 0.01078,-0.08626 -0.08483,-0.212412 -0.07405,-0.298672 z"
       sodipodi:nodetypes="cccccccccccsc" /><path
       style="opacity:1;fill:#000000;stroke-width:0.3"
       id="path28"
       d="m 59.204994,46.176353 c 0.25076,-0.334346 -0.2769,-0.299532 -1.879794,-0.36088 -1.669198,0.05374 -3.358714,0.29077 -4.909891,0.933083 -1.946964,0.900918 -3.217829,3.63363 -3.499632,4.288866 -0.08493,0.322118 -0.297787,0.79171 -0.215765,1.053876 0.118856,-0.03586 0.387016,0.11149 0.366641,-0.08834 0.130756,-0.806921 0.539708,-1.524097 0.929191,-2.229732 0.455427,-0.806743 1.082265,-1.501192 1.769057,-2.116746 1.876853,-1.74193 7.33664,-1.331673 7.35849,-1.382073 0.02723,-0.03269 0.05447,-0.06537 0.0817,-0.09805 z"
       sodipodi:nodetypes="sccccccccss" /><path
       style="opacity:1;fill:#000000;stroke-width:0.3"
       id="path29"
       d="m 58.816403,47.126411 c -0.582893,-0.240895 -1.230171,-0.148584 -1.844486,-0.187182 -1.354308,-0.04038 -2.73652,0.253639 -3.906548,0.950054 -0.992062,0.653862 -2.461155,2.562158 -2.725502,3.6995 -0.07385,0.214804 -0.179174,0.474929 0.136397,0.44347 0.294426,0.113999 0.182566,-0.392921 0.314238,-0.555839 0.02593,-0.07838 1.332823,-4.372894 6.23909,-4.12962 0.51348,0.03069 1.043045,-0.03415 1.542788,0.110573 0.150364,0.09212 0.147176,-0.185645 0.221112,-0.277502 0.0076,-0.01782 0.01527,-0.03564 0.02291,-0.05345 z"
       sodipodi:nodetypes="sccccccccss" /><ellipse
       style="opacity:1;fill:#000000;stroke-width:0.3"
       id="path30"
       cx="50.885475"
       cy="44.924389"
       rx="0.45131242"
       ry="0.43250772" /><path
       style="opacity:1;fill:#000000;stroke-width:0.3"
       id="path31"
       d="m 50.285596,52.507326 c -0.216085,0.666079 -0.52642,1.307353 -0.997241,1.832272 -0.600655,0.768169 -1.136598,1.641001 -1.989291,2.157774 -1.043599,0.519849 -2.208065,0.699755 -3.350022,0.864901 -0.736134,0.07996 -1.470324,0.176733 -2.210927,0.204223 -0.601086,0.03837 -1.275035,0.250302 -1.543092,0.842639 -0.128244,0.233406 -0.281352,0.615744 0.114682,0.550101 0.278822,0.04334 0.158464,-0.534006 0.44191,-0.647665 0.510719,-0.426273 1.226865,-0.330763 1.846031,-0.395941 1.277262,-0.132939 2.565813,-0.267202 3.801806,-0.631504 0.633621,-0.216943 1.295874,-0.442282 1.764355,-0.947088 0.704589,-0.675556 1.234116,-1.504532 1.836443,-2.266813 0.290868,-0.430579 0.48482,-0.916438 0.651014,-1.40614 -0.121889,-0.05225 -0.243779,-0.104506 -0.365668,-0.156759 z" /><path
       style="opacity:1;fill:#000000;stroke-width:0.3"
       id="path32"
       d="m 48.809761,52.425716 c -0.142304,0.865609 -0.54284,1.680955 -1.09707,2.357972 -0.471385,0.657685 -1.191024,1.24128 -2.035968,1.25068 -0.897057,0.09015 -1.800759,0.0524 -2.700447,0.09598 -0.927997,0.01505 -1.865719,-0.02398 -2.784247,0.126743 -0.548538,0.104913 -1.027198,0.484964 -1.232845,1.007209 -0.203626,0.443604 -0.354436,0.932049 -0.316784,1.425207 0.120799,-0.04494 0.423928,0.0798 0.395205,-0.104334 0.0017,-0.555979 0.204303,-1.118156 0.538191,-1.560093 0.489201,-0.511916 1.252163,-0.421969 1.895931,-0.475113 0.935648,-0.01549 1.87175,-0.02098 2.807072,-0.0523 0.720206,-0.01873 1.459324,0.0027 2.15795,-0.193081 0.750229,-0.279503 1.331295,-0.863913 1.773089,-1.5146 0.503766,-0.6601 0.845565,-1.45046 0.98601,-2.26754 -0.128696,-0.03225 -0.257391,-0.06449 -0.386087,-0.09674 z" /><path
       style="opacity:1;fill:#000000;stroke-width:0.3"
       id="path33"
       d="m 47.414515,52.43636 c -0.04987,0.77855 -0.629582,1.383338 -1.137037,1.92061 -0.640386,0.672424 -1.621519,0.677632 -2.481824,0.762015 -0.980967,0.0349 -1.967439,0.05237 -2.934907,0.237867 -1.047146,0.152975 -2.130182,0.386736 -3.011931,1.000833 -0.57746,0.54568 -0.595444,1.401842 -0.587907,2.142869 -0.100683,0.289854 0.217133,0.191014 0.390934,0.226123 0.02818,-0.66236 -0.06022,-1.432738 0.385462,-1.997531 0.488843,-0.408727 1.129705,-0.584289 1.731737,-0.75793 1.229773,-0.276718 2.488023,-0.431621 3.749281,-0.43533 0.897419,-0.0729 1.865096,-0.07295 2.651747,-0.569729 0.603373,-0.451025 1.094012,-1.055485 1.44511,-1.71962 0.05209,-0.214057 0.427713,-0.87734 0.0011,-0.810228 -0.06725,1.7e-5 -0.134494,3.4e-5 -0.201741,5.1e-5 z" /><path
       style="opacity:1;fill:#000000;stroke-width:0.3"
       id="path34"
       d="m 46.44037,52.463324 c -0.07639,0.456452 -0.359613,0.834431 -0.730887,1.099725 -0.539759,0.45986 -1.190914,0.824673 -1.916705,0.841792 -0.951979,0.07505 -1.901597,0.234517 -2.859839,0.16288 -1.083402,-0.0026 -2.238816,-0.114325 -3.222469,0.439553 -0.484783,0.270417 -0.977064,0.5523 -1.385636,0.930376 -0.551092,0.525894 -0.711784,1.312716 -0.75775,2.042416 -0.04107,0.293818 0.0091,0.50599 0.327823,0.403948 0.221615,-0.111694 -0.03438,-0.653024 0.135422,-0.908882 0.06744,-0.66735 0.450009,-1.292802 1.046593,-1.612629 0.70524,-0.511564 1.533194,-0.901697 2.420844,-0.895589 1.151551,-0.03766 2.308874,0.09152 3.454281,-0.08021 0.798566,-0.09634 1.662357,-0.06091 2.353154,-0.54312 0.599453,-0.404693 1.295609,-0.851786 1.473067,-1.604537 0.171902,-0.273245 -0.185301,-0.196984 -0.337898,-0.275725 z" /><path
       style="opacity:1;fill:#000000;stroke-width:0.3"
       id="path35"
       d="m 44.954054,52.336541 c -0.254951,0.506481 -0.577689,1.04753 -1.153333,1.22774 -0.534227,0.25332 -1.133253,0.271003 -1.710247,0.204336 -0.816093,-0.04062 -1.633438,-0.0339 -2.44977,-0.06925 -1.452116,-0.05825 -2.976121,0.373625 -4.02092,1.422723 -0.581706,0.538661 -1.060832,1.249924 -1.08869,2.065901 0.03017,0.239382 -0.215294,0.843054 0.07807,0.862126 0.303664,0.05518 0.30912,-0.148766 0.279731,-0.408196 0.03172,-0.547649 0.09722,-1.120907 0.4346,-1.575239 0.692559,-0.970818 1.76335,-1.666454 2.944695,-1.859503 1.043036,-0.222111 2.112774,-0.04028 3.167937,-0.0662 0.751674,0.0048 1.531298,0.183022 2.255856,-0.10497 0.597221,-0.168924 1.119025,-0.567643 1.403025,-1.124951 0.163383,-0.226284 0.276415,-0.436688 -0.05054,-0.52283 -0.03014,-0.01723 -0.06027,-0.03445 -0.09041,-0.05168 z" /><path
       style="opacity:1;fill:#000000;stroke-width:0.3"
       id="path36"
       d="m 42.792263,52.538542 c -0.102987,0.336775 -0.432298,0.53992 -0.774581,0.545702 -0.904315,0.1358 -1.80867,-0.07626 -2.712665,-0.08991 -0.958024,0.04293 -1.881854,0.340879 -2.779941,0.655661 -0.549983,0.270339 -1.07203,0.600874 -1.574737,0.9512 -0.641076,0.430203 -1.000011,1.163157 -1.176263,1.894633 -0.0073,0.291971 -0.24708,0.855352 -0.02965,1.013975 0.180477,0.0072 0.410815,0.07031 0.322944,-0.213252 0.04018,-0.751606 0.271965,-1.527585 0.785449,-2.092473 0.503583,-0.461058 1.112885,-0.783228 1.697656,-1.127411 0.560888,-0.236529 1.155015,-0.389404 1.74352,-0.541257 0.611123,-0.138993 1.242672,-0.187024 1.863089,-0.07936 0.795831,0.06138 1.624143,0.165138 2.397812,-0.08839 0.237882,-0.103118 0.761437,-0.58827 0.519159,-0.758955 -0.09393,-0.02339 -0.187864,-0.04677 -0.281796,-0.07016 z" /><path
       style="opacity:1;fill:#000000;stroke-width:0.3"
       id="path37"
       d="m 39.569085,52.306378 c -0.81903,0.145543 -1.655004,0.06805 -2.481064,0.11956 -0.661916,0.06632 -1.264949,0.375741 -1.854496,0.661339 -0.726143,0.389482 -1.362552,0.964931 -1.774289,1.682377 -0.211879,0.428192 -0.331129,0.89505 -0.509714,1.337254 -0.116191,0.184177 -0.06992,0.288339 0.131455,0.313466 0.220158,0.15503 0.215678,-0.129462 0.282205,-0.287556 0.223549,-0.534268 0.32963,-1.136367 0.724761,-1.581827 0.501608,-0.656838 1.2199,-1.110852 1.981067,-1.411068 0.47009,-0.221464 0.984512,-0.355057 1.507036,-0.328261 0.681186,-0.01648 1.582325,-0.142073 2.255141,-0.269972 z"
       sodipodi:nodetypes="cccccccccccc" /><path
       style="opacity:1;fill:#000000;stroke-width:0.3"
       id="path38"
       d="m 51.141542,52.576153 c -0.181399,0.701202 -0.411084,1.390751 -0.73115,2.041892 -0.287667,0.642125 -0.749571,1.181273 -1.106415,1.783345 -0.533342,0.842982 -1.288615,1.503542 -1.961473,2.228872 -0.179981,0.11967 -0.236357,0.233383 -0.04873,0.356493 0.108013,0.208232 0.228209,0.04127 0.338471,-0.08183 0.690399,-0.739338 1.458348,-1.418599 2.003939,-2.280132 0.409198,-0.679164 0.932563,-1.29299 1.22794,-2.036667 0.294225,-0.610895 0.493331,-1.26087 0.66347,-1.915454 -0.128683,-0.03217 -0.257366,-0.06434 -0.386049,-0.09652 z" /><path
       style="opacity:1;fill:#000000;stroke-width:0.3"
       id="path39"
       d="m 52.040467,52.47397 c -0.01697,0.490093 0.04735,0.988337 -0.07614,1.469203 -0.163007,0.768917 -0.413371,1.51908 -0.721159,2.24158 -0.284481,0.571317 -0.672311,1.0849 -1.061479,1.5883 -0.236536,0.306354 -0.491294,0.59841 -0.71842,0.91201 0.108926,0.07639 0.217853,0.15277 0.326779,0.229155 0.496979,-0.654046 1.044845,-1.271163 1.480326,-1.97051 0.447557,-0.657977 0.667211,-1.433376 0.906244,-2.183479 0.144545,-0.541098 0.295681,-1.093199 0.262927,-1.658629 -0.03852,-0.189435 0.07579,-0.532115 -0.05768,-0.627641 -0.113799,4e-6 -0.227599,7e-6 -0.341398,1.1e-5 z" /><path
       style="opacity:1;fill:#000000;stroke-width:0.3"
       id="path40"
       d="m 53.139289,52.334178 c 0.09836,0.629934 0.0031,1.279548 -0.21928,1.874207 -0.407052,1.098782 -0.709785,2.249798 -1.32706,3.257678 -0.247374,0.414967 -0.538397,0.801757 -0.833563,1.183453 0.105659,0.08085 0.211319,0.161691 0.316978,0.242536 0.629247,-0.785378 1.175014,-1.645879 1.525169,-2.593402 0.262905,-0.681733 0.482638,-1.37856 0.733281,-2.064803 0.220168,-0.625454 0.302976,-1.306055 0.198763,-1.962597 -0.04074,-0.0661 -0.178613,0.02789 -0.260425,0.02948 -0.04462,0.01115 -0.08924,0.0223 -0.133863,0.03345 z" /><path
       style="opacity:1;fill:#000000;stroke-width:0.3"
       id="path41"
       d="m 54.222231,52.03559 c -0.17577,0.879228 -0.223566,1.779466 -0.41769,2.654986 -0.268577,0.923939 -0.648506,1.811417 -1.034745,2.691141 -0.191432,0.383142 -0.365795,0.77507 -0.574395,1.149495 0.118126,0.06161 0.236251,0.123225 0.354377,0.184838 0.585836,-1.09138 1.072071,-2.234867 1.482184,-3.403199 0.278751,-0.756835 0.329829,-1.568464 0.446399,-2.359879 0.0401,-0.290275 0.09094,-0.578974 0.138697,-0.868035 -0.131609,-0.01645 -0.263218,-0.0329 -0.394827,-0.04935 z" /><path
       style="opacity:1;fill:#000000;stroke-width:0.3"
       id="path42"
       d="m 55.500949,51.997982 c -0.09007,0.534889 -0.09112,1.086493 -0.260227,1.607127 -0.230405,0.739204 -0.570158,1.438478 -0.829723,2.1675 -0.232659,0.610082 -0.432431,1.232974 -0.705208,1.827373 -0.120126,0.279777 -0.233066,0.562835 -0.366642,0.836491 0.1184,0.06038 0.236801,0.120752 0.355201,0.181128 0.276743,-0.598485 0.534817,-1.206583 0.77117,-1.822285 0.306353,-0.91016 0.684928,-1.793273 1.031147,-2.688419 0.242015,-0.607634 0.313637,-1.261139 0.372822,-1.906969 0.08565,-0.164771 -0.04265,-0.170969 -0.170877,-0.177236 -0.06589,-0.0082 -0.131775,-0.01647 -0.197663,-0.02471 z" /><path
       style="opacity:1;fill:#000000;stroke-width:0.3"
       id="path43"
       d="m 56.967294,51.759392 c -0.0182,0.588676 -0.0289,1.183486 -0.18591,1.755732 -0.228226,0.850808 -0.531899,1.682347 -0.895164,2.484631 -0.288198,0.605131 -0.625828,1.184654 -0.928345,1.782271 -0.114697,0.251938 -0.238473,0.499747 -0.350481,0.752882 0.122458,0.05216 0.244916,0.104325 0.367374,0.156488 0.252713,-0.56676 0.5302,-1.12181 0.836915,-1.661456 0.335378,-0.632807 0.649784,-1.277703 0.888699,-1.954027 0.343785,-0.930165 0.660253,-1.894309 0.650497,-2.897432 -0.03417,-0.132794 0.126382,-0.469166 -0.105009,-0.419084 -0.09286,-2e-6 -0.185717,-3e-6 -0.278576,-5e-6 z" /><path
       style="opacity:1;fill:#000000;stroke-width:0.3"
       id="path44"
       d="m 58.32123,51.496126 c -0.02468,0.700141 -0.07177,1.403261 -0.238367,2.086242 -0.178231,0.87033 -0.501308,1.701387 -0.810981,2.531265 -0.293906,0.73664 -0.54767,1.491002 -0.891399,2.20655 -0.07173,0.09916 0.13007,0.119227 0.19065,0.180313 0.179945,0.176972 0.211289,-0.144878 0.292583,-0.26841 0.346674,-0.809873 0.651273,-1.637539 0.967497,-2.459744 0.273641,-0.748482 0.538696,-1.503455 0.684278,-2.289181 0.144641,-0.652069 0.187741,-1.320947 0.203702,-1.987034 -0.132654,0 -0.265309,-1e-6 -0.397963,-1e-6 z" /><path
       style="opacity:1;fill:#000000;stroke-width:0.3"
       id="path45"
       d="m 59.715042,51.105514 c 0.01145,0.473932 0.0013,0.949716 -0.01182,1.423962 -0.06795,1.182198 -0.526093,2.292078 -0.996263,3.363631 -0.33331,0.728373 -0.631187,1.478821 -1.057457,2.159661 -0.04907,0.158572 -0.403687,0.368796 -0.145454,0.46788 0.10458,0.05362 0.231762,0.237915 0.290255,0.02977 0.515836,-0.71231 0.840691,-1.536341 1.20625,-2.330168 0.491891,-1.116437 0.98509,-2.264229 1.091849,-3.492868 0.03713,-0.530989 0.0253,-1.064769 0.02558,-1.59638 0.0041,-0.134017 -0.189011,-0.02353 -0.280326,-0.03911 -0.04087,0.0045 -0.08174,0.0091 -0.122618,0.01362 z" /><path
       style="opacity:1;fill:#000000;stroke-width:0.3"
       id="path46"
       d="m 60.766261,50.79448 c -0.137865,0.774207 -0.0796,1.567449 -0.212635,2.342549 -0.07959,0.626638 -0.159656,1.256645 -0.353475,1.860431 -0.273684,0.921606 -0.724599,1.776406 -1.126605,2.645773 -0.04422,0.209351 -0.348254,0.500803 -0.256752,0.65953 0.09906,0.0512 0.198125,0.102404 0.297187,0.153606 0.430809,-0.849815 0.839385,-1.712274 1.207278,-2.591369 0.292215,-0.730014 0.486967,-1.49817 0.576372,-2.279387 0.106275,-0.675879 0.161524,-1.357766 0.183303,-2.041385 -0.02419,-0.223555 0.122441,-0.553255 0.03232,-0.706374 -0.115666,-0.01446 -0.231331,-0.02892 -0.346996,-0.04337 z" /><path
       style="opacity:1;fill:#000000;stroke-width:0.3"
       id="path47"
       d="m 78.030416,37.997722 c -1.302549,-0.474629 -2.704438,-0.753673 -4.092707,-0.565845 -1.186574,0.02621 -2.456214,0.326646 -3.261236,1.264373 -0.785209,0.882822 -1.433277,1.904819 -1.695672,3.068946 -0.653797,2.522 -1.480222,5.050679 -1.498427,7.680723 -0.0077,1.457474 0.05213,3.018564 0.940186,4.248661 0.519794,0.872279 1.3477,1.56748 2.358792,1.77625 1.394621,0.438609 2.876271,0.269472 4.315399,0.305821 1.009279,-0.10304 2.021694,-0.388906 2.863569,-0.971458 -0.199978,-0.671989 -0.706154,0.0947 -1.136147,0.156196 -0.990028,0.423913 -2.075065,0.456105 -3.134121,0.414964 -1.34051,0.01399 -2.766454,-0.04709 -3.935324,-0.78084 -1.131986,-0.90245 -1.788632,-2.339017 -1.832911,-3.778775 -0.125236,-1.681962 0.04022,-3.371071 0.433213,-5.009107 0.405986,-1.634311 0.772417,-3.285402 1.323067,-4.878116 0.354715,-0.857451 0.946605,-1.612755 1.600741,-2.261795 1.009469,-0.879972 2.419697,-0.800104 3.669116,-0.891806 1.007979,4.4e-4 1.994953,0.275577 2.942616,0.594359 0.04662,-0.124184 0.09323,-0.248367 0.139846,-0.372551 z" /><path
       style="opacity:1;fill:#000000;stroke-width:0.3"
       id="path48"
       d="m 78.91183,40.403168 c -0.966796,-0.583617 -2.015133,-1.215485 -3.191463,-1.120272 -1.159156,0.01526 -2.470573,0.03916 -3.38846,0.84863 -0.788899,0.70102 -1.128346,1.743348 -1.509253,2.69368 -0.592838,1.738638 -0.777287,3.581607 -0.963551,5.398929 -0.04361,1.049458 -0.05944,2.119959 0.153961,3.153387 0.246344,1.162111 1.401429,1.821084 2.442506,2.175471 1.421017,0.475155 2.951937,0.594866 4.437947,0.460019 0.394727,-0.144478 1.498365,-0.249601 1.233346,-0.798385 -0.600873,0.08087 -1.199417,0.526356 -1.872533,0.456833 -1.694788,-0.01235 -3.507186,-0.147295 -4.947379,-1.134109 -0.640432,-0.374066 -0.965417,-1.090438 -1.001125,-1.808947 -0.167443,-1.573933 -0.02882,-3.157278 0.215494,-4.715143 0.223183,-1.745871 0.668824,-3.496039 1.585012,-5.013336 0.440886,-0.703788 1.213919,-1.142965 2.037027,-1.207616 0.98214,-0.130514 2.030525,-0.229726 2.97986,0.114715 0.56155,0.21763 1.069387,0.545901 1.591225,0.841561 0.06579,-0.115141 0.131593,-0.230287 0.197386,-0.345417 z" /><path
       style="opacity:1;fill:#000000;stroke-width:0.3"
       id="path49"
       d="m 70.40895,44.838342 c 1.131861,0.691307 2.376659,1.17535 3.562122,1.766456 0.944165,0.413509 1.880464,0.844984 2.814294,1.279262 0.70309,0.261375 1.430942,0.474633 2.176448,0.567821 0.223072,-0.456115 -0.174975,-0.443165 -0.544331,-0.495793 -0.944604,-0.190952 -1.832816,-0.566678 -2.68497,-1.007047 -1.647421,-0.727912 -3.28838,-1.476394 -4.887809,-2.304855 -0.231537,-0.253749 -0.275176,0.06447 -0.435754,0.194156 z" /><path
       style="opacity:1;fill:#000000;stroke-width:0.3"
       id="path50"
       d="m 70.20947,46.709007 c 1.086039,0.690693 2.27624,1.211198 3.470034,1.68704 1.540915,0.555876 3.124287,0.981924 4.695852,1.439493 0.346223,0.183408 0.520819,0.0682 0.537675,-0.288322 -1.326243,-0.310392 -2.620414,-0.744779 -3.926341,-1.130031 -1.56193,-0.488895 -3.073342,-1.154428 -4.481484,-1.987276 -0.116845,-0.110938 -0.205418,0.214278 -0.295736,0.279096 z" /><path
       style="opacity:1;fill:#000000;stroke-width:0.3"
       id="path51"
       d="m 69.98083,48.481969 c 1.495782,0.718551 3.055467,1.292355 4.556265,1.999264 1.25247,0.532576 2.605226,0.756277 3.942639,0.955454 0.174069,-0.450326 0.326585,-0.380391 -0.557772,-0.490569 -1.433351,-0.208825 -2.853344,-0.574944 -4.141274,-1.252945 -1.217807,-0.517907 -2.445947,-1.012284 -3.64314,-1.576918 z"
       sodipodi:nodetypes="ccccccc" /><path
       style="opacity:1;fill:#000000;stroke-width:0.3"
       id="path52"
       d="m 33.917815,23.332479 c 0.690195,-0.140434 1.347586,0.209528 1.896054,0.590439 0.466274,0.340044 0.723425,0.955915 0.610818,1.526028 -0.164405,1.044947 -0.623709,2.013097 -0.859276,3.041257 -0.204056,0.724152 -0.395699,1.461947 -0.377679,2.221001 1.64e-4,0.559029 -0.03735,1.140676 0.142187,1.678328 0.233695,0.590249 0.70825,1.120745 1.333698,1.294614 0.01248,-0.124519 0.196633,-0.331562 0.07881,-0.393436 -0.672613,-0.218109 -1.136399,-0.919368 -1.140285,-1.618073 -0.03691,-0.811843 -0.04481,-1.6407 0.176727,-2.429776 0.216688,-0.890883 0.489511,-1.765741 0.780353,-2.634652 0.185812,-0.692038 0.460121,-1.456996 0.1428,-2.152512 -0.261495,-0.733483 -0.992549,-1.127575 -1.669893,-1.407605 -0.368222,-0.152148 -0.773438,-0.172089 -1.163769,-0.110391 0.01649,0.131593 0.03297,0.263185 0.04946,0.394778 z" /><path
       style="opacity:1;fill:#000000;stroke-width:0.3"
       id="path53"
       d="m 29.337878,24.151296 c 0.530978,-1.216042 -0.721628,-2.589699 -1.983744,-2.400875 -1.32427,-0.109211 -2.502899,0.653449 -3.246075,1.699418 -1.55131,1.847619 -1.246401,4.386568 -1.539876,6.62224 -0.302794,3.165076 -0.08069,6.350868 -0.209932,9.523883 -0.0996,2.953409 -0.0019,5.913237 -0.136402,8.862954 -0.09015,2.146552 0.778688,4.599832 2.823835,5.578277 1.239241,0.463071 2.673535,0.497836 3.93544,0.09864 0.971076,-0.331555 1.929965,-1.165606 1.892567,-2.27391 -0.721454,-0.214106 -0.289446,0.943766 -0.898545,1.193135 -1.116013,1.114209 -2.868702,1.066964 -4.305193,0.780256 -1.989755,-0.583876 -2.994109,-2.822947 -3.032114,-4.757405 -0.03085,-1.710696 0.117236,-3.419617 0.06265,-5.133266 0.03804,-3.802247 0.126559,-7.603371 0.120147,-11.406207 0.06265,-2.071839 0.312466,-4.133898 0.481303,-6.198519 0.239961,-1.627933 1.207182,-3.236777 2.702448,-3.978562 0.928982,-0.28073 2.376014,-0.491491 2.876624,0.589483 0.504006,0.418495 -0.262885,1.144551 0.45687,1.200455 z" /><path
       style="opacity:1;fill:#000000;stroke-width:0.3"
       id="path54"
       d="m 63.957289,34.694288 c 1.033045,-0.561016 1.582125,-1.659935 2.169053,-2.625053 0.57321,-0.972227 0.956785,-2.066076 1.737368,-2.904971 0.453466,-0.496092 0.971936,-0.956644 1.576779,-1.257731 0.605055,-0.144898 1.240217,-0.120277 1.85904,-0.124545 0.477516,0.04056 1.090764,0.115968 1.284335,0.632578 0.457672,1.008023 0.125703,2.166144 0.537396,3.187841 0.171454,0.616221 0.668995,1.086193 1.263721,1.294458 0.262893,0.284435 0.38334,0.0791 0.502879,-0.172003 -0.442259,-0.279628 -1.037729,-0.416215 -1.258919,-0.948391 -0.380797,-0.739042 -0.331422,-1.584522 -0.395114,-2.387854 -0.08002,-0.627643 -0.211874,-1.388423 -0.805695,-1.740503 -0.849333,-0.409806 -1.823538,-0.266417 -2.729604,-0.20935 -0.677304,0.08197 -1.18998,0.589078 -1.691419,1.00492 -0.799211,0.718043 -1.340982,1.658544 -1.792903,2.620585 -0.532923,0.971674 -1.04513,1.982774 -1.8093,2.796743 -0.08553,0.286662 -0.841945,0.375368 -0.599643,0.650888 0.05068,0.0608 0.101351,0.121592 0.152026,0.182388 z" /><path
       style="opacity:1;fill:#000000;stroke-width:0.3"
       id="path55"
       d="m 74.938426,18.734426 c -0.78056,1.191215 -1.683319,2.374782 -3.044007,2.929153 -2.779941,1.375945 -5.981904,1.006847 -8.979846,1.108825 -3.689736,0.08655 -7.379701,-0.233475 -11.066877,-0.05414 -2.124861,0.269448 -4.453562,0.446495 -6.166403,1.877416 -2.305896,1.449398 -3.580376,4.024214 -4.241807,6.583631 -0.137656,0.712437 -0.113709,1.440354 -0.117878,2.162164 0.780222,0.172679 0.226112,-0.973923 0.423869,-1.415446 0.248173,-1.977162 1.168708,-3.836996 2.346751,-5.425462 1.020184,-1.041926 2.196045,-2.053796 3.572539,-2.571801 3.259764,-1.093266 6.74329,-0.878386 10.12472,-0.797871 3.493959,0.07207 6.998199,0.116419 10.488644,-0.08837 2.349477,-0.226808 4.888961,-1.049013 6.276411,-3.08271 0.138639,-0.389326 1.104434,-0.979628 0.383884,-1.225389 z" /><path
       style="opacity:1;fill:#000000;stroke-width:0.3"
       id="path56"
       d="m 74.374284,22.796237 c -0.798426,1.107298 -2.26939,1.348266 -3.499602,1.709745 -2.569236,0.539657 -5.216709,0.341675 -7.824305,0.406245 -2.823913,0.04934 -5.653486,-0.08281 -8.473579,0.0914 -1.533267,0.206324 -3.060017,0.552783 -4.519999,1.062705 -1.416671,0.646035 -2.82298,1.383821 -3.881688,2.554767 -1.018902,1.029689 -1.656186,2.813261 -1.846197,4.230433 0.237069,0.915038 0.654878,-0.649613 0.632518,-1.08905 0.324967,-1.356475 1.042232,-2.611387 2.150813,-3.475927 1.02167,-0.91388 2.300947,-1.49406 3.554552,-2.017986 2.008143,-0.573171 4.071388,-1.030988 6.173421,-0.941708 4.1326,-0.03342 8.271669,0.09309 12.399052,-0.147179 1.732554,-0.20759 3.542058,-0.5854 4.990309,-1.602611 0.293558,-0.318901 0.697237,-0.543464 0.144705,-0.780832 z"
       sodipodi:nodetypes="sccccccccccccss" /><path
       style="opacity:1;fill:#000000;stroke-width:0.3"
       id="path57"
       d="m 75.497776,20.637064 c -1.318852,-0.09374 -2.230152,1.110066 -3.220997,1.797876 -1.533341,1.173841 -3.572393,1.064103 -5.398949,1.247068 -4.999669,0.267002 -10.010716,0.122381 -15.012113,0.274705 -2.253264,0.352517 -4.363951,1.475089 -6.051055,2.995613 -1.310365,0.923633 -2.182908,2.316812 -2.626507,3.839564 -0.265802,0.804915 -0.709124,1.580579 -0.69082,2.452082 0.802239,0.14872 0.767185,-3.911384 3.150199,-5.61848 1.631674,-1.546708 3.632716,-2.70751 5.831189,-3.215784 2.583939,-0.208125 5.185242,-0.04998 7.776371,-0.121009 3.739231,-0.08595 7.517435,0.06101 11.214595,-0.594546 1.79229,-0.259319 2.855396,-1.90083 4.416586,-2.627182 0.411894,-0.09915 0.643129,0.11079 0.611501,-0.429907 z"
       sodipodi:nodetypes="ccccccccccccc" /><path
       style="opacity:1;fill:#000000;stroke-width:0.3"
       id="path58"
       d="m 53.58245,20.31796 c -0.05503,0.523105 -0.115405,1.047789 -0.206403,1.566133 -0.0077,0.273527 -0.29635,0.674822 -0.155877,0.855159 0.107676,0.0022 0.307206,0.184568 0.330276,0.02045 0.198792,-0.592772 0.308394,-1.208934 0.36354,-1.830796 -0.01925,-0.193919 0.235301,-0.684111 -0.10893,-0.610946 -0.0742,-1e-6 -0.148404,-3e-6 -0.222606,-4e-6 z" /><path
       style="opacity:1;fill:#000000;stroke-width:0.3"
       id="path59"
       d="m 37.493987,30.546241 c 0.879176,0.118064 1.771754,0.07673 2.656506,0.121559 0.520859,-0.0033 1.041729,-0.005 1.5626,-0.0049 -2.6e-5,-0.132925 -5.1e-5,-0.26585 -7.7e-5,-0.398775 -0.94473,0.0078 -1.888736,-0.0014 -2.832808,-0.03579 -0.427326,-0.01511 -0.85599,-0.02141 -1.281414,-0.06661 -0.03494,0.12816 -0.06987,0.256319 -0.104807,0.384479 z" /><path
       style="opacity:1;fill:#000000;stroke-width:0.3"
       id="path60"
       d="m 45.35098,30.098113 c 0.255161,0.33411 0.487677,0.685759 0.767455,1.000673 0.266012,0.305385 0.509857,0.636846 0.840159,0.878041 0.291041,0.216565 0.62015,0.374919 0.907531,0.597203 0.11276,0.04555 0.262733,0.245171 0.358699,0.19538 0.06325,-0.102044 0.126489,-0.204089 0.189733,-0.306133 -0.331254,-0.215583 -0.64376,-0.459669 -0.99039,-0.651315 -0.30768,-0.188304 -0.568297,-0.442032 -0.789601,-0.725412 -0.28566,-0.325274 -0.559108,-0.661298 -0.80541,-1.017604 -0.07393,-0.07587 -0.13375,-0.274207 -0.240582,-0.140571 -0.0792,0.05658 -0.158396,0.113159 -0.237594,0.169738 z" /><path
       style="opacity:1;fill:#000000;stroke-width:0.3"
       id="path61"
       d="m 44.856013,31.753167 c 0.396835,0.03034 0.794309,0.05618 1.191885,0.073 0.266787,0.01766 0.531318,0.05914 0.798771,0.06768 0.0052,-0.132849 0.01044,-0.265698 0.01566,-0.398547 -0.374776,-0.01675 -0.746017,-0.08091 -1.121743,-0.08383 -0.280602,-0.01208 -0.559929,-0.04341 -0.840606,-0.05392 -0.01466,0.131872 -0.02931,0.263745 -0.04397,0.395617 z" /><path
       style="opacity:1;fill:#000000;stroke-width:0.3"
       id="path63"
       d="m 44.688831,32.467782 c 0.465564,0.0061 0.931432,-0.0092 1.396375,0.02197 0.388494,0.0095 0.776147,0.04216 1.164625,0.05081 0.198785,0.01058 0.393755,0.06465 0.593329,0.05912 -0.0079,-0.132627 -0.01579,-0.265254 -0.02368,-0.397881 -0.258683,-0.016 -0.514559,-0.07462 -0.775348,-0.06927 -0.380029,-0.01478 -0.759315,-0.04176 -1.139561,-0.0515 -0.404763,-0.02232 -0.810539,-0.01053 -1.215723,-0.01072 -6e-6,0.13249 -1.1e-5,0.264979 -1.7e-5,0.397469 z" /><path
       style="opacity:1;fill:#000000;stroke-width:0.3"
       id="path64"
       d="m 45.731494,30.528902 c 0.01203,0.384786 -0.100432,0.892082 -0.182686,1.264586 -0.09067,0.301587 -0.185848,0.601891 -0.250575,0.910408 0.129202,0.03129 0.258405,0.06259 0.387607,0.09388 0.06232,-0.301306 0.158704,-0.593247 0.245571,-0.88797 0.08424,-0.363475 0.177873,-0.730052 0.189502,-1.104689 0.03346,-0.127119 -0.02137,-0.165928 -0.135682,-0.144579 z"
       sodipodi:nodetypes="cccccccc" /><path
       style="opacity:1;fill:#000000;stroke-width:0.3"
       id="path65"
       d="m 46.4747,31.425657 c -0.05624,0.469715 -0.253006,0.903742 -0.41077,1.345004 0.123135,0.04987 0.246271,0.09974 0.369406,0.149616 0.171134,-0.473034 0.381728,-0.939861 0.43623,-1.445268 -0.131622,-0.01645 -0.263244,-0.0329 -0.394866,-0.04935 z" /><path
       style="opacity:1;fill:#000000;stroke-width:0.3"
       id="path66"
       d="m 38.660686,26.484193 c 1.117617,0.16212 2.243972,0.267801 3.371094,0.339465 0.527345,0.01897 1.056905,0.06049 1.583887,0.01911 -0.008,-0.132756 -0.01591,-0.265512 -0.02387,-0.398268 -0.955602,0.04731 -1.912479,-0.04857 -2.864791,-0.124633 -0.656837,-0.07166 -1.314781,-0.134494 -1.969813,-0.221737 -0.03217,0.128689 -0.06434,0.257379 -0.09651,0.386068 z" /><path
       style="opacity:1;fill:#000000;stroke-width:0.3"
       id="path67"
       d="m 38.033086,28.782129 c 0.794382,0.101226 1.589082,0.211018 2.390726,0.240033 0.628669,0.03146 1.257964,0.05118 1.88739,0.0579 0.0015,-0.133128 0.0029,-0.266255 0.0044,-0.399383 -1.366668,-0.02445 -2.736781,-0.07787 -4.089679,-0.284913 -0.264484,-0.114483 -0.181713,0.14982 -0.192845,0.306195 2e-6,0.02672 5e-6,0.05344 8e-6,0.08016 z" /><path
       style="opacity:1;fill:#000000;stroke-width:0.3"
       id="path68"
       d="m 37.431337,31.866096 c 1.209892,0.02033 2.419637,-0.02299 3.629038,-0.04149 0.275007,0.03548 0.453066,-0.02889 0.363795,-0.310224 0.0583,-0.172719 -0.311302,-0.06291 -0.562478,-0.08212 -1.143566,0.0083 -2.286685,0.04139 -3.430354,0.03564 l -10e-7,0.398191 z"
       sodipodi:nodetypes="scccccs" /><path
       style="opacity:1;fill:#000000;stroke-width:0.3"
       id="path69"
       d="m 37.102385,33.512696 c 0.597075,-0.09862 1.209979,-0.05512 1.812669,-0.111325 0.878932,-0.08064 1.762276,-0.120372 2.635196,-0.255795 -0.01885,-0.131666 -0.03769,-0.263331 -0.05654,-0.394997 -0.997886,0.144925 -2.006372,0.196774 -3.011187,0.273663 -0.491741,0.02911 -0.993932,-0.0046 -1.476651,0.102487 0.03217,0.128656 0.06434,0.257311 0.09651,0.385967 z" /><path
       style="opacity:1;fill:#000000;stroke-width:0.3"
       id="path70"
       d="m 40.385264,26.354781 c -0.617946,0.642381 -1.20055,1.440178 -1.731467,2.154004 0.107892,0.07803 0.272197,0.08085 0.380089,0.158877 0.52348,-0.704118 1.048051,-1.411518 1.651069,-2.050639 -0.0999,-0.08741 -0.199794,-0.174828 -0.299691,-0.262242 z"
       sodipodi:nodetypes="ccccc" /><path
       style="opacity:1;fill:#000000;stroke-width:0.3"
       id="path71"
       d="m 41.067828,26.604076 c -0.207873,0.412827 -0.448969,0.811588 -0.691464,1.205923 -0.141867,0.258479 -0.413333,0.54484 -0.486868,0.777361 0.09331,0.07526 0.186609,0.150517 0.279914,0.225775 0.47332,-0.623157 0.870567,-1.301406 1.241154,-1.988772 0.07785,-0.145213 -0.194689,-0.131209 -0.286334,-0.199136 -0.0188,-0.007 -0.0376,-0.0141 -0.0564,-0.02115 z" /><path
       style="opacity:1;fill:#000000;stroke-width:0.3"
       id="path72"
       d="m 42.190513,26.738516 c -0.187836,0.725367 -0.794645,1.210373 -1.16032,1.837605 -0.190492,0.155363 0.08694,0.202854 0.190623,0.290059 0.223646,0.03685 0.314471,-0.469285 0.516116,-0.605074 0.35313,-0.426111 0.70268,-0.878358 0.839631,-1.426084 -0.128683,-0.03217 -0.257367,-0.06434 -0.38605,-0.09651 z" /><path
       style="opacity:1;fill:#000000;stroke-width:0.3"
       id="path73"
       d="m 38.52841,27.07568 c 0.591473,0.519417 1.02232,1.194356 1.618627,1.709312 0.08963,-0.09833 0.17925,-0.196657 0.268875,-0.294986 -0.588637,-0.513539 -1.014849,-1.185078 -1.606097,-1.695721 -0.0938,0.0938 -0.187603,0.187597 -0.281405,0.281395 z" /><path
       style="opacity:1;fill:#000000;stroke-width:0.3"
       id="path74"
       d="m 39.494361,26.546615 c 0.491162,0.24782 0.830155,0.868001 1.188085,1.263248 0.299806,0.355325 0.592026,0.716886 0.88172,1.08043 0.101357,-0.08599 0.315543,-0.09676 0.4169,-0.182747 -0.516209,-0.640099 -1.143736,-1.357606 -1.680865,-1.980201 -0.147989,-0.115026 -0.482848,-0.560736 -0.615347,-0.317273 -0.04156,0.08312 -0.148936,0.05342 -0.190493,0.136543 z"
       sodipodi:nodetypes="ccccccc" /><path
       style="opacity:1;fill:#000000;stroke-width:0.3"
       id="path75"
       d="m 41.128949,26.729401 c 0.468525,0.326919 0.85372,0.762859 1.229101,1.190588 0.122831,0.219157 0.253162,0.331549 0.425127,0.114377 0.301427,-0.166852 -1.126799,-1.443159 -1.456831,-1.650428 -0.0658,0.115154 -0.131598,0.230309 -0.197397,0.345463 z"
       sodipodi:nodetypes="ccccc" /><path
       style="opacity:1;fill:#000000;stroke-width:0.3"
       id="path76"
       d="m 38.181459,33.254532 c 0.432423,-0.472503 0.901258,-0.912495 1.296814,-1.418685 l -0.306869,-0.254606 c -0.385306,0.48577 -0.898328,1.018936 -1.32063,1.470913 -0.07643,0.109045 0.232484,0.08217 0.299752,0.176602 0.01031,0.0086 0.02062,0.01718 0.03093,0.02578 z"
       sodipodi:nodetypes="sccccss" /><path
       style="opacity:1;fill:#000000;stroke-width:0.3"
       id="path77"
       d="m 39.42257,33.254532 c 0.400244,-0.501917 0.934423,-0.999241 1.385485,-1.453161 -0.02815,-0.09007 -0.195499,-0.101359 -0.262822,-0.193681 -0.222902,0.0489 -0.439353,0.418043 -0.661097,0.579441 -0.270645,0.256518 -0.541853,0.514161 -0.767227,0.812689 0.101887,0.0849 0.203774,0.169808 0.305661,0.254712 z"
       sodipodi:nodetypes="cccccc" /><path
       style="opacity:1;fill:#000000;stroke-width:0.3"
       id="path79"
       d="m 37.341225,32.376065 c 0.5997,0.248224 1.175229,0.550126 1.729967,0.886218 0.0646,-0.116168 0.129211,-0.232336 0.193816,-0.348504 -0.560269,-0.337732 -1.136833,-0.651933 -1.745787,-0.893733 -0.05933,0.118673 -0.118664,0.237346 -0.177996,0.356019 z" /><path
       style="opacity:1;fill:#000000;stroke-width:0.3"
       id="path80"
       d="m 38.657553,31.849533 c 0.742604,0.370737 1.430909,0.839291 2.133152,1.278781 0.06925,-0.113299 0.232514,-0.160782 0.30176,-0.274081 -0.711679,-0.445296 -1.499675,-0.993814 -2.256925,-1.360687 -0.05933,0.118662 -0.118658,0.237325 -0.177987,0.355987 z"
       sodipodi:nodetypes="ccccc" /><path
       style="opacity:1;fill:#000000;stroke-width:0.3"
       id="path81"
       d="m 49.257309,20.46951 c 4.68e-4,0.805213 -0.116136,1.608147 -0.265413,2.397693 -0.07934,0.201478 -0.113131,0.366311 0.142983,0.377964 0.271208,0.16374 0.203433,-0.298297 0.283973,-0.454916 0.129973,-0.766078 0.247331,-1.541647 0.236457,-2.320739 -0.132667,-1e-6 -0.265333,-1e-6 -0.398,-2e-6 z" /><path
       style="opacity:1;fill:#000000;stroke-width:0.3"
       id="path82"
       d="m 52.45459,20.481331 c -0.09787,0.572815 -0.311513,1.122278 -0.38485,1.701578 0.0025,0.204357 -0.237767,0.582549 0.100981,0.548413 0.258639,0.126855 0.236165,-0.152177 0.267932,-0.341823 0.08143,-0.594611 0.289393,-1.245688 0.419144,-1.829186 0.06687,-0.186866 -0.224481,-0.0259 -0.336781,-0.07068 -0.02214,-0.0028 -0.04428,-0.0055 -0.06643,-0.0083 z"
       sodipodi:nodetypes="scccccss" /><path
       style="opacity:1;fill:#000000;stroke-width:0.3"
       id="path83"
       d="m 49.429638,22.068151 c 0.767759,-0.356383 1.549018,-0.681664 2.327265,-1.014265 0.252122,-0.149734 0.675183,-0.238598 0.828173,-0.435757 -0.05983,-0.104174 -0.119654,-0.208349 -0.179481,-0.312523 -0.966875,0.487129 -1.99292,0.844167 -2.965369,1.320066 -0.253328,0.02339 -0.108145,0.20234 -0.05227,0.345207 0.01389,0.03242 0.02779,0.06485 0.04169,0.09727 z" /><path
       style="opacity:1;fill:#000000;stroke-width:0.3"
       id="path84"
       d="m 49.34704,23.011859 c 0.818186,-0.288778 1.604671,-0.655955 2.38795,-1.026856 0.175557,-0.15255 0.655878,-0.153993 0.642663,-0.378877 -0.05026,-0.143307 -0.04317,-0.408944 -0.261145,-0.227044 -0.831193,0.349751 -1.626948,0.779704 -2.474086,1.092942 -0.148434,0.102745 -0.551987,0.08441 -0.373597,0.33128 0.02607,0.06952 0.05214,0.139037 0.07822,0.208555 z" /><path
       style="opacity:1;fill:#000000;stroke-width:0.3"
       id="path85"
       d="m 50.794936,20.526528 c 0.261845,0.384276 0.454408,0.903982 0.68585,1.306253 0.169761,0.301591 0.329945,0.665826 0.465947,0.950793 0.120093,-0.039 0.240187,-0.07801 0.36028,-0.11701 -0.224761,-0.652634 -0.628758,-1.227678 -0.856515,-1.880853 -0.09366,-0.170167 -0.195904,-0.577608 -0.405502,-0.320938 -0.05515,0.03939 -0.194914,0.02237 -0.25006,0.06175 z"
       sodipodi:nodetypes="ccccccc" /><path
       style="opacity:1;fill:#000000;stroke-width:0.3"
       id="path86"
       d="m 49.664127,20.64121 c 0.318795,0.570182 0.588186,1.167517 0.79437,1.787667 0.131343,0.148157 0.123225,0.682573 0.368296,0.573222 0.140312,-0.06294 0.361563,-0.09318 0.182509,-0.281008 -0.26622,-0.615298 -0.444039,-1.268015 -0.77624,-1.854671 -0.09989,-0.185951 -0.20269,-0.641414 -0.435958,-0.402826 -0.05319,0.03039 -0.132977,0.0209 -0.132977,0.17762 z"
       sodipodi:nodetypes="scccccss" /><path
       style="opacity:1;fill:#000000;stroke-width:0.3"
       id="path87"
       d="m 49.212814,21.769491 c 0.260039,0.443516 0.447433,0.925082 0.69317,1.376457 0.115707,-0.0653 0.231413,-0.130599 0.34712,-0.195899 -0.244495,-0.452775 -0.429834,-0.936345 -0.69484,-1.377967 -0.11515,0.0658 -0.2303,0.131606 -0.34545,0.197409 z" /><path
       style="opacity:1;fill:#000000;stroke-width:0.3"
       id="path88"
       d="m 54.748278,20.319073 c 0.03148,2.257365 -0.496267,2.384197 -0.149235,2.496231 0.146233,0.02988 0.376246,0.01424 0.332115,-0.241971 0.106227,-0.652552 0.253432,-1.305735 0.216134,-1.971513 0.06811,-0.246624 -0.03517,-0.323419 -0.253968,-0.282745 l -0.14505,-2e-6 z"
       sodipodi:nodetypes="scccccs" /><path
       style="opacity:1;fill:#000000;stroke-width:0.3"
       id="path89"
       d="m 57.684518,20.342637 c 0.02204,0.38566 -0.03089,0.772378 -0.04725,1.157949 -0.03423,0.397535 -0.106183,0.790697 -0.135241,1.188589 0.131659,0.01907 0.263319,0.03813 0.394978,0.0572 0.05688,-0.607427 0.167277,-1.210351 0.17457,-1.822142 -0.03199,-0.173092 0.165334,-0.682957 -0.127343,-0.61405 -0.08657,0.01082 -0.173143,0.02164 -0.259715,0.03245 z" /><path
       style="opacity:1;fill:#000000;stroke-width:0.3"
       id="path90"
       d="m 55.030457,21.746064 c 0.233763,-0.296015 0.477006,-0.582943 0.76801,-0.825461 0.147633,-0.202405 0.594802,-0.408544 0.543147,-0.627408 -0.110797,-0.06878 -0.225788,-0.341628 -0.330509,-0.119156 -0.425518,0.415656 -0.903073,0.782876 -1.2491,1.272697 -0.06453,0.102532 0.166384,0.178238 0.232002,0.268952 0.01215,0.01012 0.0243,0.02025 0.03645,0.03038 z" /><path
       style="opacity:1;fill:#000000;stroke-width:0.3"
       id="path91"
       d="m 54.88002,22.648689 c 0.541945,-0.481389 1.183244,-0.833306 1.733643,-1.305205 0.339563,-0.262914 0.666466,-0.541881 0.97233,-0.843484 -0.09159,-0.09664 -0.183176,-0.193281 -0.274764,-0.289922 -0.713364,0.697058 -1.53376,1.269831 -2.345392,1.84432 -0.09639,0.13298 -0.547424,0.296577 -0.271828,0.439283 0.062,0.05167 0.124007,0.103339 0.186011,0.155008 z" /><path
       style="opacity:1;fill:#000000;stroke-width:0.3"
       id="path92"
       d="m 55.648738,23.010929 c 0.657629,-0.522202 1.355681,-0.990362 2.023107,-1.499072 0.197722,-0.08686 0.294941,-0.194225 0.116661,-0.357328 -0.08752,-0.272648 -0.296925,0.03547 -0.450291,0.100942 -0.637115,0.501018 -1.321895,0.938335 -1.948532,1.453221 0.08635,0.100746 0.172703,0.201491 0.259055,0.302237 z" /><path
       style="opacity:1;fill:#000000;stroke-width:0.3"
       id="path93"
       d="m 55.644017,20.490773 c 0.358679,0.72891 0.948516,1.296318 1.494062,1.883424 0.157229,0.120893 0.348604,0.654692 0.544218,0.394668 0.299359,-0.113524 -0.08572,-0.450609 -0.200998,-0.609639 -0.517247,-0.576324 -1.103595,-1.108573 -1.458751,-1.808974 -0.07183,-0.111989 -0.22753,0.08788 -0.337298,0.11696 -0.01375,0.0079 -0.02749,0.01571 -0.04123,0.02356 z"
       sodipodi:nodetypes="scccccss" /><path
       style="opacity:1;fill:#000000;stroke-width:0.3"
       id="path94"
       d="m 54.864219,21.106806 c 0.487682,0.462816 0.786095,1.079642 1.1677,1.625373 0.05973,0.197762 0.317384,0.08177 0.429271,0.04425 0.153848,-0.161728 -0.371085,-0.560375 -0.422099,-0.76394 -0.27631,-0.424017 -0.53298,-0.87673 -0.920199,-1.211334 z"
       sodipodi:nodetypes="scccccs" /><path
       style="opacity:1;fill:#000000;stroke-width:0.3"
       id="path95"
       d="m 68.295437,28.373871 c -0.352489,-0.36303 -0.654072,-0.860745 -1.196022,-0.950334 -0.478316,-0.107412 -0.983724,-0.156589 -1.469008,-0.07449 -0.504899,0.109409 -0.957385,0.377064 -1.333727,0.72562 -0.320489,0.23118 -0.666662,0.46571 -1.076458,0.4762 -1.014599,0.09258 -2.022923,-0.151346 -2.983513,-0.455488 -0.489813,-0.175185 -1.052422,-0.463064 -1.185674,-1.011952 -0.05098,-0.380306 0.153163,-0.789241 0.522855,-0.924383 1.076758,-0.417414 2.304746,-0.347538 3.374835,0.05713 0.547439,0.222293 0.938394,0.697899 1.476832,0.94013 0.462971,0.223042 0.943326,0.411099 1.430746,0.57309 0.0519,-0.122235 0.103791,-0.24447 0.155686,-0.366705 -0.784414,-0.273066 -1.590481,-0.559646 -2.228478,-1.112147 -0.644074,-0.514837 -1.486235,-0.690942 -2.289494,-0.758174 -0.709919,-0.05053 -1.444536,0.03529 -2.103646,0.310861 -0.708776,0.275163 -0.987096,1.278965 -0.49832,1.867697 0.521274,0.686822 1.414339,0.887087 2.208306,1.085615 0.862006,0.197786 1.779579,0.327596 2.648291,0.09854 0.466937,-0.176032 0.843226,-0.514693 1.233659,-0.813809 0.40795,-0.252081 0.890501,-0.385386 1.370105,-0.31984 0.416312,0.02911 0.896816,0.06156 1.184839,0.407398 0.197183,0.109384 0.364043,0.675086 0.594339,0.381552 0.05462,-0.0455 0.109231,-0.09101 0.163847,-0.136512 z" /><path
       style="opacity:1;fill:#000000;stroke-width:0.3"
       id="path96"
       d="m 63.201586,31.14689 c -0.24313,-0.488608 -0.702343,-0.818115 -1.219539,-0.96684 -1.252309,-0.423051 -2.596842,-0.33272 -3.898988,-0.364295 -1.201215,0.04252 -2.387535,-0.177567 -3.562771,-0.396579 -0.728948,-0.156355 -1.552534,-0.372419 -1.942703,-1.075318 -0.283952,-0.429354 -0.287685,-1.078378 0.1573,-1.403161 0.356142,-0.314174 0.833736,-0.449945 1.288763,-0.550499 0.655033,-0.128221 1.348518,-0.05913 1.941429,0.258021 0.80034,0.446991 1.560017,1.15812 1.706923,2.10443 0.124181,0.473864 0.313106,0.936566 0.6094,1.329747 0.119533,-0.129812 0.549579,-0.07489 0.302223,-0.261931 -0.371781,-0.5288 -0.506804,-1.338419 -0.764641,-1.914196 -0.460975,-0.832851 -1.243926,-1.49328 -2.140761,-1.812154 -0.85504,-0.300868 -1.811883,-0.16925 -2.630697,0.182544 -0.624535,0.239107 -1.167082,0.861951 -1.063477,1.566421 0.125171,0.899868 0.897445,1.576555 1.74934,1.791845 0.918218,0.271284 1.872207,0.398766 2.818888,0.526541 1.642031,0.166938 3.318821,-0.08451 4.940325,0.290268 0.493913,0.139264 1.041257,0.310956 1.30457,0.792835 0.05542,0.213583 0.279767,-0.07001 0.404416,-0.09768 z"
       sodipodi:nodetypes="cccccccccccccccccccc" /><path
       style="opacity:1;fill:#000000;stroke-width:0.3"
       id="path97"
       d="m 58.710972,32.324511 c -0.162299,-0.602518 -0.613015,-1.118952 -1.196348,-1.347851 -0.566739,-0.257471 -1.349366,-0.439469 -1.967054,-0.509615 -1.166241,-0.03462 -2.04259,0.584968 -3.136658,0.889744 -0.78908,0.204728 -1.624431,0.172362 -2.426824,0.07339 -0.74931,-0.142682 -1.520266,-0.273987 -2.20981,-0.613186 -0.539678,-0.294846 -0.868607,-0.949211 -0.822691,-1.556046 0.05761,-0.593974 0.658766,-0.891122 1.170285,-1.028441 0.564891,-0.207545 1.182521,-0.200999 1.750235,-0.0094 0.824601,0.166486 1.350738,0.873476 2.066035,1.253403 0.877094,0.49511 1.80842,0.89991 2.766389,1.209829 0.291173,0.02908 0.760991,0.26801 0.962118,0.128471 0.139675,-0.262406 0.01227,-0.381805 -0.310089,-0.365574 -0.970028,-0.15778 -1.812758,-0.626914 -2.696823,-1.035756 -0.649006,-0.303809 -1.207496,-0.754162 -1.773875,-1.184519 -0.60212,-0.366213 -1.321162,-0.559599 -2.024979,-0.553494 -0.620879,0.07151 -1.262545,0.233797 -1.773355,0.605797 -0.593464,0.433766 -0.678953,1.284027 -0.362947,1.910609 0.230152,0.617723 0.791345,1.034484 1.408177,1.215775 1.311765,0.413938 2.716638,0.650659 4.08462,0.407065 1.152724,-0.233872 2.199834,-0.914827 3.39982,-0.927353 0.670596,0.05652 1.338634,0.252278 1.936514,0.561449 0.422893,0.153787 0.621644,0.68734 0.821938,0.959473 0.111774,-0.02793 0.223548,-0.05587 0.335322,-0.0838 z"
       sodipodi:nodetypes="ccccccccccccccccccccccccc" /><path
       style="opacity:1;fill:#000000;stroke-width:0.3"
       id="path98"
       d="m 59.34452,27.776908 c 0.427218,-0.395511 0.863877,-0.780482 1.276403,-1.191708 0.253666,-0.237263 0.485047,-0.497239 0.744422,-0.72842 -0.09046,-0.09737 -0.180915,-0.194747 -0.271372,-0.29212 -0.379004,0.352637 -0.735812,0.728476 -1.113226,1.083004 -0.300322,0.288498 -0.619784,0.556501 -0.917624,0.84785 0.0938,0.0938 0.187598,0.187596 0.281397,0.281394 z" /><path
       style="opacity:1;fill:#000000;stroke-width:0.3"
       id="path99"
       d="m 60.258158,28.402923 c 0.275549,-0.340427 0.5668,-0.672957 0.92501,-0.929552 0.531538,-0.413052 1.180644,-0.821355 1.612624,-1.347211 l -0.355288,-0.207137 c -0.611194,0.728007 -1.527865,1.110627 -2.151612,1.826879 -0.06801,0.141296 -0.352665,0.303874 -0.296343,0.435679 0.08854,0.07378 0.177073,0.147561 0.265609,0.221342 z"
       sodipodi:nodetypes="ccccccc" /><path
       style="opacity:1;fill:#000000;stroke-width:0.3"
       id="path100"
       d="m 61.696409,28.841424 c 0.396162,-0.43715 0.825426,-0.841589 1.264016,-1.235532 0.296474,-0.264595 0.584102,-0.539528 0.848758,-0.836242 -0.09708,-0.09084 -0.194161,-0.181677 -0.291242,-0.272516 -0.603506,0.675412 -1.33988,1.215764 -1.943668,1.891336 -0.107376,0.105772 -0.285906,0.235226 -0.07447,0.312514 0.06554,0.04681 0.131071,0.09363 0.196606,0.14044 z" /><path
       style="opacity:1;fill:#000000;stroke-width:0.3"
       id="path101"
       d="m 60.142029,26.023811 c 0.374878,0.196379 0.723399,0.441569 1.100471,0.635576 0.828027,0.433193 1.686097,0.815551 2.462021,1.341636 0.166718,0.09742 0.387811,0.273794 0.529025,0.311679 0.09238,-0.08904 0.184759,-0.178071 0.277139,-0.267107 -0.289925,-0.199875 -0.597819,-0.376637 -0.890186,-0.57476 -0.996453,-0.626675 -2.103578,-1.052308 -3.0944,-1.688742 -0.120304,-0.09198 -0.262113,-0.17848 -0.288937,0.01974 l -0.164939,0.18541 z"
       sodipodi:nodetypes="sccccccccs" /><path
       style="opacity:1;fill:#000000;stroke-width:0.3"
       id="path102"
       d="m 58.880573,26.729401 c 0.452823,0.3003 0.962716,0.49826 1.424232,0.784108 0.484539,0.285249 0.943985,0.61106 1.414145,0.919092 0.19845,0.13674 0.40297,0.264988 0.60058,0.402546 l 0.38689,-0.240482 c -0.610688,-0.418388 -1.362076,-0.893417 -1.981844,-1.298696 -0.437237,-0.273531 -0.901526,-0.499094 -1.35786,-0.737466 -0.12016,-0.03293 -0.290241,-0.279058 -0.346875,-0.0727 -0.04642,0.0812 -0.09284,0.162401 -0.139268,0.243601 z"
       sodipodi:nodetypes="scccccccss" /><path
       style="opacity:1;fill:#000000;stroke-width:0.3"
       id="path104"
       d="m 52.561489,28.316679 c 0.604855,-0.491172 1.281851,-0.880915 1.942756,-1.289522 0.301647,-0.193526 0.582816,-0.416896 0.884711,-0.60988 -0.06665,-0.115125 -0.133308,-0.23025 -0.199962,-0.345375 -0.409256,0.260637 -0.786279,0.570397 -1.210917,0.807538 -0.574709,0.349547 -1.152953,0.70049 -1.671299,1.131554 0.0849,0.101895 0.169807,0.20379 0.254711,0.305685 z" /><path
       style="opacity:1;fill:#000000;stroke-width:0.3"
       id="path105"
       d="m 53.088021,29.219302 c 0.672485,-0.455979 1.324506,-0.941696 2.010602,-1.377557 0.451202,-0.287229 0.872238,-0.617169 1.287004,-0.953785 -0.08392,-0.10306 -0.167845,-0.206121 -0.251767,-0.309181 -0.452844,0.372605 -0.924378,0.721747 -1.42077,1.034664 -0.63869,0.41571 -1.253525,0.866438 -1.879786,1.300227 0.08491,0.101877 0.169811,0.203755 0.254717,0.305632 z" /><path
       style="opacity:1;fill:#000000;stroke-width:0.3"
       id="path106"
       d="m 54.329131,29.670615 c 0.642954,-0.442534 1.267484,-0.911654 1.921625,-1.338131 0.332898,-0.237564 0.667859,-0.472336 0.994422,-0.718542 -0.08053,-0.105844 -0.161055,-0.211688 -0.241583,-0.317532 -0.610406,0.463203 -1.251108,0.883796 -1.880606,1.320029 -0.347522,0.2523 -0.698855,0.499303 -1.048578,0.748501 0.08491,0.101892 0.169813,0.203783 0.25472,0.305675 z" /><path
       style="opacity:1;fill:#000000;stroke-width:0.3"
       id="path107"
       d="m 55.822921,29.980585 c 0.432516,-0.306594 0.886502,-0.581817 1.30935,-0.902469 0.23502,-0.172653 0.455552,-0.36374 0.687625,-0.540222 -0.08056,-0.106033 -0.161124,-0.212067 -0.241686,-0.3181 -0.5325,0.429603 -1.077749,0.844939 -1.660353,1.205005 -0.08558,0.108358 -0.434287,0.177227 -0.253736,0.333468 0.05293,0.07411 0.105867,0.148212 0.1588,0.222318 z" /><path
       style="opacity:1;fill:#000000;stroke-width:0.3"
       id="path108"
       d="m 53.784573,26.422979 c 0.443683,0.606635 1.058062,1.048759 1.611144,1.546546 0.444828,0.435445 0.912949,0.845994 1.354166,1.285028 0.300622,0.302529 0.65949,0.538637 0.956209,0.84499 0.09486,-0.09314 0.189723,-0.186271 0.284585,-0.279406 -0.328399,-0.336977 -0.722219,-0.600429 -1.052231,-0.936215 -0.443987,-0.445514 -0.916802,-0.860838 -1.367675,-1.299313 -0.506409,-0.44365 -1.05648,-0.850345 -1.461351,-1.395681 -0.06575,-0.0255 -0.141168,0.101624 -0.210908,0.139105 -0.03798,0.03165 -0.07596,0.0633 -0.113939,0.09495 z" /><path
       style="opacity:1;fill:#000000;stroke-width:0.3"
       id="path109"
       d="m 52.281981,27.05818 c 0.521465,0.354363 0.971889,0.800615 1.478198,1.175278 0.444743,0.395514 0.814141,0.865177 1.228968,1.290348 0.10884,0.08833 0.207989,0.383825 0.335348,0.17974 0.06341,-0.05895 0.279737,-0.0049 0.343148,-0.06382 -0.321009,-0.383258 -0.825268,-0.852637 -1.156515,-1.226913 -0.264113,-0.296066 -0.563713,-0.555389 -0.881136,-0.792335 -0.372619,-0.294781 -0.715085,-0.629364 -1.116695,-0.886148 -0.07711,0.10795 -0.154211,0.215899 -0.231316,0.323849 z"
       sodipodi:nodetypes="ccccccccc" /><path
       style="opacity:1;fill:#000000;stroke-width:0.3"
       id="path110"
       d="m 47.022329,30.394288 c 1.008481,-0.667189 1.990002,-1.378764 2.900613,-2.175725 -0.13331,-0.103623 -0.248831,-0.442464 -0.40738,-0.176259 -0.859948,0.738737 -1.791102,1.38715 -2.72455,2.028127 0.07711,0.107952 0.154211,0.215905 0.231317,0.323857 z" /><path
       style="opacity:1;fill:#000000;stroke-width:0.3"
       id="path111"
       d="m 47.812436,31.13201 c 0.963963,-0.37435 1.791347,-1.010046 2.550167,-1.699459 0.133617,-0.248243 0.932597,-0.506579 0.651856,-0.791144 -0.195798,-0.38425 -0.360653,0.007 -0.764881,0.361902 -0.761009,0.674981 -1.629514,1.401932 -2.587338,1.78019 -0.171757,0.05126 0.136979,0.223978 0.150199,0.348511 z"
       sodipodi:nodetypes="sccccss" /><path
       style="opacity:1;fill:#000000;stroke-width:0.3"
       id="path112"
       d="m 49.340428,31.650672 c 0.59485,-0.581766 1.190893,-1.171132 1.901279,-1.61386 0.14816,-0.201373 0.873572,-0.462885 0.552768,-0.7176 -0.208606,-0.354923 -0.40476,0.210604 -0.639504,0.285409 -0.683675,0.445843 -1.31274,0.968845 -1.880276,1.555308 -0.34487,0.157856 -0.114174,0.324014 0.0615,0.486509 z" /><path
       style="opacity:1;fill:#000000;stroke-width:0.3"
       id="path113"
       d="m 50.783264,31.861053 c 0.684735,-0.522346 1.359367,-1.269984 2.042998,-1.794733 0.325848,-0.148668 -0.0048,-0.207499 -0.171723,-0.362684 -0.50039,0.436454 -1.042853,0.871298 -1.525376,1.344866 -0.149195,0.249551 -0.787115,0.402317 -0.425327,0.701354 0.02648,0.03707 0.05295,0.07413 0.07943,0.111197 z"
       sodipodi:nodetypes="sccccss" /><path
       style="opacity:1;fill:#000000;stroke-width:0.3"
       id="path114"
       d="m 48.003606,28.252167 c 0.897793,0.602712 1.98148,1.203842 2.856703,1.841694 0.688876,0.450851 1.352098,0.971688 2.055299,1.380566 0.0064,-0.115836 0.446038,-0.191812 0.231638,-0.323718 -0.838391,-0.506037 -1.618738,-1.102375 -2.432069,-1.647937 -0.764138,-0.536288 -1.575352,-0.998913 -2.350289,-1.517583 -0.129703,-0.07301 -0.286123,0.178184 -0.361282,0.266978 z"
       sodipodi:nodetypes="ccccccc" /><path
       style="opacity:1;fill:#000000;stroke-width:0.3"
       id="path115"
       d="m 46.715222,29.070353 c 0.560194,0.165237 1.085608,0.427849 1.554324,0.777573 0.809136,0.508685 1.516001,1.179974 2.399974,1.56685 0.240023,0.09249 0.776706,0.603488 0.89645,0.209213 0.169149,-0.26589 -0.708044,-0.469212 -0.869481,-0.641767 -0.87887,-0.421646 -1.587876,-1.108981 -2.417155,-1.611759 -0.425923,-0.299872 -0.901845,-0.521399 -1.402434,-0.663907 -0.05389,0.121266 -0.107785,0.242532 -0.161678,0.363797 z"
       sodipodi:nodetypes="cccccccc" /><path
       style="opacity:1;fill:#000000;stroke-width:0.3"
       id="path116"
       d="m 71.061143,44.900625 c 1.008174,-1.249938 2.252999,-2.279631 3.308964,-3.486381 0.588884,-0.624673 1.208039,-1.219717 1.802908,-1.838243 -0.240384,-0.508393 -0.504435,-0.07709 -0.760422,0.212137 -1.071744,1.019361 -2.025419,2.153793 -3.104059,3.165821 -0.530148,0.565322 -1.100642,1.097411 -1.571243,1.715357 0.107951,0.0771 0.215901,0.154206 0.323852,0.231309 z" /><path
       style="opacity:1;fill:#000000;stroke-width:0.3"
       id="path117"
       d="m 72.526357,45.693097 c 0.895161,-1.149007 2.011713,-2.100849 2.896705,-3.257793 0.687382,-0.792633 1.425899,-1.539778 2.098952,-2.344875 -0.292367,-0.464151 -0.516029,-0.03415 -0.760361,0.268029 -0.837251,0.903718 -1.66318,1.817835 -2.445352,2.769438 -0.729171,0.750697 -1.4615,1.502115 -2.108473,2.326333 0.106176,0.07962 0.212353,0.159245 0.318529,0.238868 z" /><path
       style="opacity:1;fill:#000000;stroke-width:0.3"
       id="path118"
       d="m 73.684703,46.267372 c 1.047949,-1.173613 2.198401,-2.253001 3.230712,-3.441356 0.630962,-0.652765 1.347512,-1.222953 1.900768,-1.949238 -0.313542,-0.47142 -0.51938,0.01712 -0.786016,0.294085 -0.668971,0.712346 -1.438918,1.325752 -2.051102,2.093374 -0.851545,0.929874 -1.776206,1.793473 -2.600029,2.74844 0.101889,0.0849 0.203778,0.169797 0.305667,0.254695 z" /><path
       style="opacity:1;fill:#000000;stroke-width:0.3"
       id="path119"
       d="m 74.675798,46.70766 c 0.615708,-0.686226 1.313289,-1.286992 2.008977,-1.88986 0.850206,-0.760215 1.703911,-1.523918 2.449323,-2.389292 -0.276598,-0.404451 -0.481554,-0.107281 -0.714929,0.195141 -1.099697,1.178214 -2.397044,2.148018 -3.534198,3.285601 -0.261002,0.328116 -0.653361,0.453102 -0.209173,0.79841 z" /><path
       style="opacity:1;fill:#000000;stroke-width:0.3"
       id="path120"
       d="m 75.83753,47.194797 c 0.981521,-0.967007 1.943,-1.955808 2.986405,-2.857982 0.273035,-0.239043 0.648805,-0.534648 0.164678,-0.740959 -0.732245,0.777807 -1.623378,1.465136 -2.372183,2.255982 -0.300705,0.393736 -0.926186,0.772931 -1.045533,1.152507 0.08888,0.06348 0.177755,0.126968 0.266633,0.190452 z" /><path
       style="opacity:1;fill:#000000;stroke-width:0.3"
       id="path121"
       d="m 76.8815,47.658919 c 0.731553,-0.897284 1.6856,-1.581092 2.430603,-2.466414 -0.283146,-0.417535 -0.498425,-0.0772 -0.739288,0.217443 -0.662115,0.667933 -1.406331,1.258319 -1.996949,1.994254 0.101878,0.08491 0.203756,0.169811 0.305634,0.254717 z" /><path
       style="opacity:1;fill:#000000;stroke-width:0.3"
       id="path122"
       d="m 71.240093,42.995357 c 0.790124,-0.800496 1.697611,-1.473804 2.483717,-2.279926 0.189812,-0.340243 1.037328,-0.735323 0.798513,-1.080423 -0.349792,-0.371332 -0.638739,0.576386 -0.98386,0.701003 -0.730136,0.731891 -1.533169,1.383825 -2.291165,2.084612 -0.351969,0.265546 -0.339488,0.358448 -0.0072,0.574734 z" /><path
       style="opacity:1;fill:#000000;stroke-width:0.3"
       id="path123"
       d="m 71.154175,42.555742 c 0.204683,0.980796 0.495857,1.938562 0.83699,2.8798 0.522179,-0.0064 0.321987,-0.390438 0.17241,-0.746299 -0.282152,-0.720548 -0.440802,-1.480298 -0.623367,-2.230016 -0.128678,0.03217 -0.257355,0.06434 -0.386033,0.09652 z" /><path
       style="opacity:1;fill:#000000;stroke-width:0.3"
       id="path124"
       d="m 71.641985,41.046918 c 0.145297,0.844995 0.22344,1.7206 0.65663,2.481955 0.359383,0.72901 0.501959,1.527721 0.64362,2.320118 0.0966,0.222129 0.633555,-0.01468 0.341565,-0.32136 -0.107237,-0.902489 -0.407549,-1.764853 -0.80785,-2.576907 -0.289423,-0.630439 -0.291124,-1.33484 -0.44796,-2.000312 -0.128668,0.03217 -0.257337,0.06434 -0.386005,0.09651 z" /><path
       style="opacity:1;fill:#000000;stroke-width:0.3"
       id="path125"
       d="m 74.996486,39.676982 c 0.358219,1.426366 0.895856,2.803443 1.18992,4.247717 0.316586,1.319473 0.588541,2.653163 0.98447,3.951127 0.30129,-0.04065 0.500152,-0.141846 0.275569,-0.460418 -0.607981,-2.23023 -0.985987,-4.523533 -1.743929,-6.713057 -0.257633,-0.278238 -0.06144,-1.36571 -0.596768,-1.066299 -0.03642,0.01364 -0.07284,0.02729 -0.109262,0.04093 z" /><path
       style="opacity:1;fill:#000000;stroke-width:0.3"
       id="path126"
       d="m 76.087157,39.676982 c 0.48454,1.24319 0.995506,2.491922 1.174492,3.824021 0.281557,1.238368 0.859258,2.38928 1.101938,3.639902 0.180401,0.255691 0.04712,1.150539 0.508752,0.908765 0.338414,-0.175069 -0.200286,-0.82237 -0.160866,-1.176204 -0.285771,-1.41579 -1.008908,-2.707871 -1.18007,-4.151136 -0.221398,-1.102744 -0.65964,-2.143685 -1.071564,-3.185119 -0.124227,0.04659 -0.248455,0.09318 -0.372682,0.139771 z" /><path
       style="opacity:1;fill:#000000;stroke-width:0.3"
       id="path127"
       d="m 77.393304,39.851261 c 0.293796,1.094422 0.650584,2.174554 0.970609,3.262973 0.220171,0.609576 0.380753,1.238746 0.590181,1.851135 0.391687,-0.06292 0.404469,-0.276201 0.225126,-0.61231 -0.471249,-1.486079 -0.918305,-2.980485 -1.37156,-4.471741 0.0095,-0.203378 -0.295664,-0.01209 -0.414356,-0.03006 z" /><path
       style="opacity:1;fill:#000000;stroke-width:0.3"
       id="path128"
       d="m 74.03018,39.692979 c 0.350332,1.439857 0.956352,2.814313 1.14327,4.294241 0.133384,0.737882 0.240957,1.481526 0.4085,2.21214 0.177903,0.280796 0.08515,0.972052 0.360758,1.044158 0.409208,0.0098 0.224599,-0.329826 0.171474,-0.590303 -0.255593,-0.89756 -0.383354,-1.822053 -0.54621,-2.739204 -0.192614,-1.486884 -0.783735,-2.873891 -1.15188,-4.317492 -0.128637,0.03215 -0.257275,0.06431 -0.385912,0.09646 z" /><path
       style="opacity:1;fill:#000000;stroke-width:0.3"
       id="path129"
       d="m 73.221579,39.787004 c 0.229502,1.029996 0.687619,2.00125 0.819231,3.056471 0.204835,1.20689 0.437169,2.409024 0.716209,3.600772 -0.08417,0.346997 0.260625,0.311226 0.438133,0.22044 -0.200897,-1.158752 -0.514407,-2.297054 -0.67706,-3.463954 -0.156465,-1.054505 -0.4509,-2.079366 -0.80625,-3.08234 -0.03467,-0.433375 -0.128159,-0.468875 -0.490263,-0.331389 z" /><path
       style="opacity:1;fill:#000000;stroke-width:0.3"
       id="path130"
       d="m 72.276395,40.289956 c 0.21193,1.141758 0.824281,2.167263 1.03006,3.314088 0.2332,0.966191 0.593774,1.901611 0.76913,2.879844 0.219514,-0.05895 0.504491,-0.06542 0.333462,-0.367276 -0.236927,-1.054707 -0.608797,-2.078682 -0.84234,-3.136462 -0.23624,-0.933215 -0.711794,-1.792567 -0.89516,-2.739567 -0.131717,0.01646 -0.263435,0.03291 -0.395152,0.04937 z" /><path
       style="opacity:1;fill:#000000;stroke-width:0.3"
       id="path131"
       d="m 70.038121,50.275899 c 1.55777,0.649321 3.261272,0.884932 4.79608,1.603582 0.923093,0.347995 1.876364,0.608569 2.788137,0.988971 0.66122,0.316982 0.582318,0.151861 0.567119,-0.215085 -0.986472,-0.393645 -1.990349,-0.737563 -2.997557,-1.07274 -1.487728,-0.678149 -3.087091,-1.037084 -4.639069,-1.530165 -0.725411,-0.350877 -0.353806,-0.07491 -0.51471,0.225437 z"
       sodipodi:nodetypes="ccccccc" /><path
       style="opacity:1;fill:#000000;stroke-width:0.3"
       id="path132"
       d="m 72.593988,49.498379 c 0.0075,1.341417 0.01801,2.691149 0.283357,4.011812 0.356619,-0.0074 0.415933,0.05917 0.318865,-0.52373 -0.196416,-1.152609 -0.1639,-2.324426 -0.20442,-3.488069 z"
       sodipodi:nodetypes="ccccc" /><path
       style="opacity:1;fill:#000000;stroke-width:0.3"
       id="path133"
       d="m 74.511939,50.326898 c -0.01693,1.120787 -0.05686,2.241325 -0.05648,3.362375 0.486461,0.140424 0.432694,-0.260422 0.406293,-0.641574 0.01533,-0.906922 0.0613,-1.813712 0.0484,-2.72088 -0.132737,2.6e-5 -0.265474,5.3e-5 -0.398211,7.9e-5 z" /><path
       style="opacity:1;fill:#000000;stroke-width:0.3"
       id="path134"
       d="m 76.545058,51.02743 c 0.02059,0.931565 0.0117,1.863496 0.01648,2.79523 0.06325,-0.226042 0.507488,0.418874 0.398967,-0.135072 -0.0054,-0.903042 0.0197,-1.807233 -0.02045,-2.709495 -0.131665,0.01645 -0.26333,0.03289 -0.394995,0.04934 z" /><path
       style="opacity:1;fill:#000000;stroke-width:0.3"
       id="path135"
       d="m 70.807478,48.727944 c 0.04033,0.997788 0.154693,1.993037 0.16364,2.992785 0.136446,0.27236 -0.140271,1.021318 0.254137,1.002181 0.463715,0.09482 0.08906,-0.575625 0.159021,-0.823565 -0.03517,-0.998901 -0.08424,-1.99777 -0.174883,-2.993709 0.08292,-0.301488 -0.233973,-0.135448 -0.401915,-0.177692 z" /><path
       style="opacity:1;fill:#000000;stroke-width:0.3"
       id="path136"
       d="m 71.860541,49.179257 c -0.114428,1.315359 -0.09686,2.642984 -0.05821,3.959573 0.22614,-0.08904 0.392785,0.117896 0.382041,-0.398596 -0.0064,-1.187558 -0.01872,-2.376617 0.07348,-3.560808 l -0.397309,-1.69e-4 z"
       sodipodi:nodetypes="sccccs" /><path
       style="opacity:1;fill:#000000;stroke-width:0.3"
       id="path137"
       d="m 73.684595,49.987858 c -0.0353,1.144362 0.03731,2.288376 0.01543,3.431736 -0.01046,0.26615 0.522609,0.520905 0.411135,-0.20716 -0.0093,-1.074576 -0.03646,-2.149306 -0.02846,-3.224572 l -0.398107,-4e-6 z"
       sodipodi:nodetypes="sccccs" /><path
       style="opacity:1;fill:#000000;stroke-width:0.3"
       id="path138"
       d="m 75.696695,50.740045 c -0.04011,0.887222 -0.179973,1.768464 -0.18199,2.658475 -0.129763,0.369047 -0.08215,0.592467 0.319369,0.584853 0.157118,-0.870787 0.08861,-1.763277 0.23543,-2.637078 0.03086,-0.446839 0.158609,-0.697923 -0.372809,-0.60625 z" /><path
       style="opacity:1;fill:#000000;stroke-width:0.3"
       id="path139"
       d="m 70.173547,51.545005 c 1.585284,0.559595 3.187714,1.07041 4.754539,1.682378 0.693047,0.240818 1.364913,0.540327 2.071667,0.741364 0.177651,-0.336626 0.0478,-0.499719 -0.338536,-0.527966 -1.844292,-0.686974 -3.675748,-1.414993 -5.554255,-2.007247 -0.340773,-0.06883 -0.878466,-0.500015 -0.917376,0.06736 l -0.01201,0.03303 z" /><path
       style="opacity:1;fill:#000000;stroke-width:0.359291"
       id="path140"
       d="m 77.426726,51.19136 c 0.0015,0.766688 -0.02385,1.533052 -0.02051,2.299714 0.461868,0.200989 0.446959,-0.164869 0.402841,-0.554911 -0.04095,-0.557843 0.125936,-1.308203 -0.0544,-1.744802 -0.10931,0 -0.218619,-10e-7 -0.327929,-10e-7 z" /><path
       style="opacity:1;fill:#000000;stroke-width:0.3"
       id="path141"
       d="m 42.762606,42.47624 c -0.01419,-0.004 0.01836,0.0092 0.02347,0.01194 0.04724,0.02214 0.09731,0.04117 0.138302,0.07409 0.01599,0.0067 0.02363,0.04744 0.04189,0.02637 0.10603,-0.07172 0.212061,-0.14344 0.318092,-0.21516 -0.01323,-0.02043 -0.0317,-0.04182 -0.04017,-0.05194 -0.07048,-0.08837 -0.172546,-0.14324 -0.274139,-0.188111 -0.01668,-0.0015 -0.04181,-0.02826 -0.05302,-0.01761 -0.05147,0.12014 -0.102949,0.240281 -0.154423,0.360421 z" /></g></svg>
