<?xml version="1.0" encoding="UTF-8" standalone="no"?>
<!-- Created with Inkscape (http://www.inkscape.org/) -->

<svg
   width="51.012081mm"
   height="39.639069mm"
   viewBox="0 0 51.012081 39.639069"
   version="1.1"
   id="svg1"
   xml:space="preserve"
   sodipodi:docname="u-tz'a-pa-wa-tun-ni.svg"
   inkscape:version="1.4 (e7c3feb1, 2024-10-09)"
   xmlns:inkscape="http://www.inkscape.org/namespaces/inkscape"
   xmlns:sodipodi="http://sodipodi.sourceforge.net/DTD/sodipodi-0.dtd"
   xmlns="http://www.w3.org/2000/svg"
   xmlns:svg="http://www.w3.org/2000/svg"><sodipodi:namedview
     id="namedview1"
     pagecolor="#ffffff"
     bordercolor="#666666"
     borderopacity="1.0"
     inkscape:showpageshadow="2"
     inkscape:pageopacity="0.0"
     inkscape:pagecheckerboard="0"
     inkscape:deskcolor="#d1d1d1"
     inkscape:document-units="mm"
     inkscape:zoom="1.4142136"
     inkscape:cx="22.98097"
     inkscape:cy="-20.85965"
     inkscape:window-width="2560"
     inkscape:window-height="1296"
     inkscape:window-x="1440"
     inkscape:window-y="25"
     inkscape:window-maximized="1"
     inkscape:current-layer="layer1" /><defs
     id="defs1" /><g
     inkscape:label="Layer 1"
     inkscape:groupmode="layer"
     id="layer1"
     transform="translate(-45.773508,-42.236605)"><path
       id="path1"
       style="opacity:1;fill:#000000;stroke-width:0.3"
       d="m 87.466496,44.213839 c -2.742217,-0.0017 -5.519449,-0.08263 -8.189823,0.655586 -1.661673,0.264618 -3.120387,1.155295 -4.424394,2.174185 -1.424753,0.892336 -2.612959,2.139652 -3.625068,3.467304 -0.763446,1.440871 -1.237765,3.0479 -1.496605,4.654681 -0.14095,1.689161 0.231292,3.3692 0.21754,5.058606 0.516559,1.56596 0.74297,3.191144 0.63254,4.851383 -0.11887,1.702846 0.153253,3.762708 1.786969,4.693254 1.746101,1.040057 3.851471,1.125394 5.7335,1.818493 2.111957,0.523569 4.319951,0.350271 6.475057,0.333796 1.979052,-0.193025 3.94027,-0.651127 5.831713,-1.2616 1.894137,-0.636258 3.162513,-2.263181 4.271029,-3.831606 0.578905,-1.123397 0.819574,-2.454147 0.930637,-3.651957 0.112544,-1.316796 0.309109,-2.63027 0.49189,-3.940328 0.426269,-1.359289 0.467569,-2.778517 0.481114,-4.189925 0.137698,-1.653443 0.454809,-3.425873 -0.17305,-5.054992 -0.309001,-1.993802 -1.814385,-3.54398 -3.518115,-4.490165 -1.372095,-0.841326 -2.941062,-1.453309 -4.576724,-1.2868 -0.282715,1.22e-4 -0.565685,4.2e-5 -0.84821,8.5e-5 z m 0.333313,0.532267 c 1.325217,-0.06075 2.691529,2.64e-4 3.86643,0.70021 1.858804,0.887111 3.793011,2.295127 4.170806,4.456575 0.522846,1.368668 0.474833,2.833369 0.289963,4.258655 -0.176187,1.542801 0.01327,3.169097 -0.47707,4.688119 -0.281192,1.345875 -0.375093,2.72576 -0.56595,4.085539 -0.08597,1.296765 -0.318828,2.717988 -1.026244,3.865946 -1.067421,1.441403 -2.284967,2.942797 -4.09174,3.446304 0.328769,-1.060116 0.980782,-1.98999 1.29345,-3.062866 0.829181,-1.83941 1.724883,-3.656245 2.230215,-5.621238 0.821128,-2.171622 0.694403,-4.624427 -0.01731,-6.805552 -0.869316,-2.601276 -3.354313,-4.310562 -5.908808,-5.010906 -2.143316,-0.789538 -4.466273,-0.235444 -6.658936,0.01967 -2.223731,0.431837 -4.514003,1.282762 -6.030211,3.040095 -1.118472,1.21109 -0.609421,2.924481 -0.737453,4.398698 -0.05839,1.411339 0.05852,3.275931 -1.377709,4.071074 -0.523316,0.537075 -1.711916,0.545572 -1.98852,-0.02171 -0.555536,-1.473467 -0.260967,-3.098823 -0.52716,-4.634342 -0.166387,-1.887622 0.528795,-3.710219 1.215422,-5.431193 0.67298,-1.212775 1.759231,-2.145776 2.774623,-3.069874 0.899716,-0.542365 1.638167,-1.255067 2.60149,-1.775857 1.507283,-0.951754 3.351732,-1.084285 5.060448,-1.436163 1.955858,-0.231216 3.938744,-0.132829 5.904266,-0.16119 z m -2.384868,5.129403 c 1.479141,0.04398 2.896052,0.65349 4.217831,1.271237 1.631899,0.946605 3.033458,2.398638 3.494892,4.27479 0.509732,2.028906 0.586989,4.227778 -0.219069,6.193822 -0.592077,2.38914 -1.885325,4.503307 -2.711472,6.805786 -0.656547,0.669392 -0.40001,2.120889 -1.465991,2.197742 -2.055591,0.486833 -4.139021,0.943773 -6.266878,0.803728 -1.81979,0.0184 -3.672634,-0.03043 -5.392436,-0.697331 -1.801629,-0.579327 -4.022469,-0.607725 -5.298384,-2.198836 -1.095324,-1.722874 -0.490442,-3.832706 -0.697062,-5.742802 -0.481943,-1.277815 1.457038,-0.07832 1.978184,-1.064523 1.674178,-0.940958 1.581734,-3.097347 1.619461,-4.761466 0.129833,-1.277721 -0.362235,-2.776173 0.62215,-3.824056 1.44171,-1.644831 3.608461,-2.433821 5.705026,-2.83811 1.460891,-0.229562 2.933239,-0.405736 4.413748,-0.419981 z" /><path
       style="opacity:1;fill:#000000;stroke-width:0.3"
       id="path5"
       d="m 77.03327,51.197404 c -0.285008,0.239857 -0.381464,0.639765 -0.359762,0.99828 0.03113,0.408893 0.233873,0.826939 0.605357,1.027533 0.197212,0.117152 0.421364,0.192151 0.647856,0.22573 0.437464,0.0422 0.880227,-0.0044 1.301963,-0.12628 0.381679,-0.112259 0.787207,-0.246741 1.05844,-0.553885 0.234051,-0.273496 0.304871,-0.641446 0.352505,-0.987976 0.03324,-0.274656 0.0019,-0.552144 -0.0018,-0.827645 -0.02242,-0.267872 -0.117482,-0.55693 -0.361839,-0.701212 -0.09786,-0.110053 -0.162379,-0.06463 -0.193649,0.05308 -0.0551,0.116426 -0.244662,0.104229 -0.299758,0.220655 0.147495,0.05058 0.31384,0.339906 0.325714,0.477326 0.0049,0.318779 0.04279,0.642408 -0.03612,0.95606 -0.0463,0.222832 -0.12246,0.468114 -0.334768,0.587026 -0.321781,0.189547 -0.690793,0.289037 -1.056558,0.351696 -0.259172,0.04146 -0.527587,0.04877 -0.7863,0.0053 -0.238888,-0.06503 -0.505606,-0.174534 -0.604824,-0.421576 -0.302101,-0.63332 0.342472,-1.177985 0.0089,-1.0188 -0.08848,-0.08844 -0.176958,-0.176882 -0.265437,-0.265323 z"
       sodipodi:nodetypes="cccccccccccccccccccc" /><path
       style="opacity:1;fill:#000000;stroke-width:0.3"
       id="path6"
       d="m 80.818804,49.807068 c -0.35873,0.288239 -0.54465,0.76124 -0.520568,1.216618 -0.0086,0.23122 0.02746,0.46079 0.0384,0.691315 0.08834,0.515792 0.428289,1.008121 0.931153,1.191389 0.266419,0.108047 0.563064,0.141641 0.848551,0.116567 0.537408,-0.06626 1.058816,-0.349386 1.356144,-0.810104 0.207142,-0.280886 0.316616,-0.624686 0.363869,-0.967277 0.03145,-0.444846 0.08829,-0.912652 -0.08414,-1.33754 -0.04869,-0.08387 -0.07626,-0.306128 -0.196097,-0.184508 -0.124623,0.07271 -0.249247,0.14542 -0.37387,0.21813 0.162205,0.268366 0.170334,0.590816 0.149561,0.894491 -0.0043,0.331998 -0.05599,0.672103 -0.223021,0.963818 -0.146534,0.245683 -0.351851,0.461655 -0.620437,0.572037 -0.242256,0.111205 -0.515849,0.157783 -0.779722,0.107952 -0.296168,-0.03981 -0.576016,-0.214956 -0.715575,-0.483402 -0.105636,-0.178529 -0.145736,-0.38409 -0.144632,-0.589646 -0.02349,-0.216634 -0.03217,-0.438207 -0.0021,-0.654233 0.03872,-0.194726 0.134363,-0.378781 0.280977,-0.513961 -0.102829,-0.143882 -0.205657,-0.287764 -0.308486,-0.431646 z" /><path
       id="path7"
       style="opacity:1;fill:#000000;stroke-width:0.3"
       d="m 81.130965,52.551314 c -0.303412,-0.0033 -0.602147,0.06544 -0.889868,0.15656 -0.345018,0.0061 -0.676456,0.148982 -0.932537,0.377416 -0.321464,0.263446 -0.524284,0.664577 -0.532468,1.081449 -0.01691,0.385014 -0.02216,0.7925 0.151315,1.146871 0.199745,0.406225 0.623552,0.66188 1.064264,0.720283 0.462585,0.068 0.96095,0.09576 1.392283,-0.118919 0.443996,-0.201121 0.913525,-0.467197 1.115979,-0.935653 0.134545,-0.300364 0.177403,-0.63561 0.132354,-0.96102 -0.03188,-0.347416 -0.125948,-0.704394 -0.366613,-0.968342 -0.250411,-0.302534 -0.633245,-0.47452 -1.022576,-0.493384 -0.03724,-0.0034 -0.07509,-0.0053 -0.112133,-0.0053 z m 5.17e-4,0.531751 c 0.272879,0.0011 0.557206,0.09349 0.731269,0.314001 0.222064,0.246606 0.24125,0.598787 0.254028,0.913607 -0.0046,0.326006 -0.155427,0.657252 -0.436827,0.835041 -0.263394,0.170976 -0.546677,0.331431 -0.857992,0.391353 -0.323716,0.03005 -0.657891,0.0087 -0.970492,-0.0836 -0.300635,-0.09179 -0.5145,-0.378479 -0.534847,-0.689872 -0.01587,-0.308043 -0.05278,-0.634481 0.06976,-0.926041 0.113463,-0.248622 0.337954,-0.443868 0.588726,-0.546227 0.392745,-0.04748 0.75768,-0.187086 1.156375,-0.208263 z"
       sodipodi:nodetypes="cccccccccccccsccccccccss" /><path
       style="opacity:1;fill:#000000;stroke-width:0.3"
       id="path8"
       d="m 92.836695,63.18932 c -0.235338,-0.364076 -0.498575,-0.741121 -0.904828,-0.928692 -0.45962,-0.238293 -0.989635,-0.273418 -1.49693,-0.310287 -0.482641,-0.0036 -0.977663,0.03146 -1.434085,0.199118 -0.429761,0.201653 -0.748263,0.594256 -0.933498,1.023333 -0.223959,0.511911 -0.199202,1.175052 0.19915,1.595999 0.326404,0.354013 0.840051,0.521865 1.31172,0.41588 0.486094,-0.06528 0.94613,-0.294983 1.283241,-0.652266 0.140437,-0.147451 0.293549,-0.285773 0.491975,-0.34914 0.296194,-0.149893 0.627127,-0.25089 0.961932,-0.212018 0.156237,0.06191 0.111686,-0.09114 0.121954,-0.185245 0.0041,-0.113848 0.0082,-0.227695 0.01229,-0.341543 -0.366313,-0.03189 -0.742279,2.28e-4 -1.081482,0.151438 -0.292991,0.123633 -0.603183,0.243049 -0.812807,0.495103 -0.25722,0.276541 -0.589446,0.491418 -0.96745,0.552021 -0.267833,0.06835 -0.571666,0.05714 -0.797283,-0.120317 -0.33913,-0.211752 -0.395325,-0.670853 -0.278223,-1.024191 0.118535,-0.350611 0.354987,-0.676387 0.685353,-0.853632 0.430764,-0.147878 0.896282,-0.173352 1.34854,-0.154272 0.488423,0.04991 1.027447,0.08347 1.412648,0.426158 0.16839,0.163382 0.29632,0.361144 0.427665,0.553921 0.150039,-0.09379 0.300079,-0.187579 0.450118,-0.281368 z" /><path
       id="path9"
       style="opacity:1;fill:#000000;stroke-width:0.3"
       d="m 91.870361,57.634208 c -0.298012,-10e-4 -0.598225,0.07039 -0.818038,0.28112 -0.306031,0.271289 -0.473384,0.660638 -0.572058,1.049548 -0.07936,0.358516 0.02742,0.751626 0.287838,1.012342 0.191135,0.204082 0.460844,0.320543 0.737939,0.342098 0.24352,0.03444 0.489442,0.03731 0.734323,0.01809 0.312051,-0.01818 0.63151,-0.09963 0.889351,-0.28267 0.254641,-0.181996 0.393617,-0.488912 0.420129,-0.7953 0.01116,-0.116882 0.02343,-0.234782 0.02687,-0.352433 0.07065,-0.03535 0.141226,-0.07059 0.211873,-0.105937 -0.173925,-0.307638 -0.340983,-0.641783 -0.649572,-0.837158 -0.297348,-0.171841 -0.639304,-0.248383 -0.974618,-0.306958 -0.09578,-0.01408 -0.194701,-0.0224 -0.294039,-0.02274 z m 0.02015,0.534851 c 0.275755,0.0044 0.548646,0.08714 0.808736,0.17415 0.496998,0.14737 0.407238,0.69679 0.268201,1.091406 -0.08883,0.212222 -0.321505,0.300392 -0.531234,0.342098 -0.173323,0.04127 -0.353034,0.03112 -0.529683,0.04393 -0.203981,-0.02166 -0.42193,-0.01059 -0.611332,-0.100252 -0.212336,-0.115667 -0.347444,-0.365729 -0.299724,-0.607198 0.04742,-0.219515 0.130057,-0.435654 0.254765,-0.623735 0.109124,-0.14924 0.253813,-0.296135 0.449068,-0.310058 0.06384,-0.0082 0.127567,-0.01136 0.191203,-0.01034 z"
       sodipodi:nodetypes="scccccccccccssccccccccs" /><path
       id="path10"
       style="opacity:1;fill:#000000;stroke-width:0.3"
       d="m 89.286023,57.539124 c -0.456523,0.0085 -0.935136,0.17271 -1.235448,0.529545 -0.237795,0.307443 -0.305642,0.742779 -0.151972,1.102253 0.137374,0.26905 0.339219,0.519064 0.608168,0.664217 0.230789,0.104585 0.489864,0.13431 0.740928,0.132696 0.325835,-0.02159 0.651673,-0.08382 0.953623,-0.211029 0.284209,-0.123198 0.545322,-0.348537 0.626612,-0.657319 0.03931,-0.190449 0.01281,-0.389817 -0.03294,-0.576884 0.06373,-0.02377 0.127469,-0.04754 0.191203,-0.07131 -0.07637,-0.263687 -0.243511,-0.501069 -0.463784,-0.664105 -0.307095,-0.196833 -0.68204,-0.215105 -1.034904,-0.244299 -0.06712,-0.0022 -0.13449,-0.0028 -0.20149,-0.0038 z m 0.01137,0.5333 c 0.249604,0.0042 0.501564,0.02375 0.745101,0.08043 0.328131,0.01343 0.490327,0.744622 0.145529,0.995464 -0.19996,0.156992 -0.457164,0.217508 -0.703012,0.258564 -0.184981,0.03458 -0.373811,0.04175 -0.559128,0.004 -0.150521,-0.01347 -0.28247,-0.09818 -0.373969,-0.215642 -0.113623,-0.125527 -0.219677,-0.27984 -0.203456,-0.457627 0.0023,-0.203318 0.123693,-0.394727 0.302286,-0.49077 0.193889,-0.116574 0.421385,-0.171807 0.646645,-0.174449 z"
       sodipodi:nodetypes="ccccccccccccccccccccccc" /><path
       id="path11"
       style="opacity:1;fill:#000000;stroke-width:0.3"
       d="m 86.976603,58.408838 c -0.594907,0.02048 -1.191933,0.27962 -1.57899,0.73767 -0.189531,0.250835 -0.302791,0.56748 -0.273537,0.884115 0.0058,0.359498 0.161692,0.723923 0.460533,0.93536 0.284497,0.252752 0.663958,0.365776 1.037403,0.393432 0.376788,0.02254 0.763567,-0.01665 1.119111,-0.147696 0.323045,-0.123068 0.612514,-0.354206 0.75909,-0.672283 0.15491,-0.327044 0.08549,-0.717254 -0.07097,-1.03041 -0.0262,-0.128063 -0.209308,-0.290864 -0.165866,-0.385325 0.133643,-0.02328 0.03928,-0.120097 -0.0073,-0.193449 -0.177864,-0.268905 -0.476945,-0.438598 -0.792728,-0.486231 -0.160244,-0.02856 -0.324311,-0.03473 -0.486793,-0.03518 z m 0.0057,0.533817 c 0.951804,-0.177701 1.009823,0.849261 1.073767,1.196252 -0.0024,0.225001 -0.178705,0.409977 -0.36772,0.51021 -0.291043,0.157765 -0.631655,0.18432 -0.956956,0.184922 -0.287688,-0.01792 -0.591516,-0.07695 -0.80968,-0.279668 -0.211596,-0.133895 -0.279271,-0.396658 -0.267528,-0.632968 4.49e-4,-0.254773 0.157378,-0.489032 0.361398,-0.632987 0.278284,-0.210706 0.617703,-0.33254 0.966719,-0.345761 z"
       sodipodi:nodetypes="ccccccccccccccccccccc" /><path
       id="path12"
       style="opacity:1;fill:#000000;stroke-width:0.3"
       d="m 86.106372,60.955452 c -0.639111,-0.0067 -1.255224,0.274472 -1.729093,0.692465 -0.291407,0.240651 -0.50928,0.592157 -0.511526,0.97869 0.0058,0.358919 0.105506,0.753053 0.40207,0.98287 0.252149,0.204171 0.577298,0.274466 0.87908,0.37183 0.280863,0.05859 0.570727,0.0864 0.857307,0.07003 0.461257,-0.04447 0.861204,-0.37331 1.059756,-0.781868 0.118769,-0.250399 0.160941,-0.53276 0.121006,-0.806991 -0.04579,-0.401059 -0.155686,-0.813103 -0.428486,-1.122602 -0.04058,-0.11545 -0.248697,-0.162849 -0.199971,-0.290718 -0.02038,-0.09197 -0.230482,-0.05347 -0.32379,-0.08514 -0.04196,-0.0048 -0.08415,-0.0084 -0.126353,-0.0086 z m -0.02429,0.532268 c 0.309818,-0.004 0.426261,0.408455 0.515503,0.697188 0.05336,0.262648 0.120057,0.547668 0.0072,0.804703 -0.123774,0.309793 -0.441029,0.567493 -0.787355,0.534707 -0.289305,-0.0066 -0.579057,-0.04713 -0.848544,-0.1569 -0.210485,-0.06196 -0.458731,-0.162839 -0.515927,-0.399424 -0.0916,-0.249319 -0.07363,-0.549905 0.109706,-0.754629 0.233717,-0.255824 0.527393,-0.460814 0.848894,-0.590411 0.214501,-0.0799 0.440127,-0.138285 0.670523,-0.135231 z"
       sodipodi:nodetypes="cccccccccccccscccccccss" /><path
       id="path13"
       style="opacity:1;fill:#000000;stroke-width:0.3"
       d="m 85.53328,63.759416 c -0.656255,0.0047 -1.313273,0.322382 -1.703078,0.853926 -0.248288,0.350444 -0.291949,0.813196 -0.195477,1.223193 0.07522,0.32566 0.283846,0.610631 0.555787,0.800738 0.297253,0.194077 0.661905,0.256852 1.011428,0.258599 0.436516,0.0054 0.894896,-0.148531 1.181987,-0.49007 0.262042,-0.289505 0.35794,-0.692564 0.359928,-1.07423 -0.02429,-0.431977 -0.1646,-0.87012 -0.454503,-1.197792 -0.132774,-0.125344 -0.290101,-0.232052 -0.469233,-0.276656 0.04979,-0.137363 -0.15097,-0.06982 -0.230143,-0.09663 -0.01888,-2.99e-4 -0.0378,-0.0015 -0.0567,-0.0011 z m 5.17e-4,0.532267 c 0.196629,0.02691 0.421954,0.204083 0.54834,0.499008 0.09029,0.21281 0.142978,0.449679 0.12449,0.681264 -0.02572,0.241901 -0.100553,0.493754 -0.294178,0.655408 -0.245449,0.22415 -0.603511,0.262102 -0.920987,0.224919 -0.235711,-0.02803 -0.48795,-0.09141 -0.644859,-0.283229 -0.229061,-0.232596 -0.265821,-0.595138 -0.195086,-0.900507 0.0898,-0.33425 0.388594,-0.559354 0.683318,-0.709385 0.216339,-0.108156 0.457625,-0.163883 0.698962,-0.167478 z"
       sodipodi:nodetypes="ccccccccccccccccccccc" /><path
       style="opacity:1;fill:#000000;stroke-width:0.3"
       id="path14"
       d="m 80.947592,71.501301 c -0.771891,0.699916 -1.961697,0.658444 -2.945593,0.785625 -1.666885,0.112118 -3.352683,-0.04167 -5.008404,0.185729 -1.977273,0.534872 -4.118751,1.518755 -5.017075,3.480086 -0.324971,1.069253 -0.327435,2.25313 -0.07651,3.337398 0.150508,1.02193 1.17183,1.513644 2.119051,1.41864 1.519546,0.0063 3.048762,0.08758 4.562664,-0.03179 1.259196,-0.275198 2.141643,-1.291225 3.250075,-1.857982 1.477253,-0.455952 3.05958,-0.313711 4.587163,-0.379482 1.533022,-0.0045 3.124805,0.113075 4.552307,-0.564698 1.517189,-0.498519 2.968987,-1.288322 3.97933,-2.555811 1.246376,-1.300429 2.13777,-2.91254 2.807521,-4.571931 0.35108,-0.97879 0.392823,-2.233349 0.369219,-3.263999 -0.614863,-0.192615 -0.551361,0.479425 -0.513217,0.947757 0.01827,2.117936 -1.151435,3.997654 -2.318569,5.677765 -1.002938,1.260083 -2.190555,2.469904 -3.765765,2.970927 -1.228205,0.544266 -2.544142,0.94978 -3.904297,0.821614 -1.876932,0.04498 -3.788632,-0.09237 -5.635305,0.298393 -1.391261,0.414189 -2.293982,1.847732 -3.799657,1.992544 -1.693425,-0.02431 -3.404044,0.09814 -5.085083,-0.115531 -0.830645,-0.387005 -0.815862,-1.498445 -0.840278,-2.279663 -0.107834,-1.211944 0.38178,-2.426935 1.388284,-3.135761 1.133284,-0.924447 2.549744,-1.51528 3.988311,-1.742286 2.30149,-0.133623 4.678876,0.177162 6.908481,-0.535193 0.519253,-0.22744 1.202944,-0.512712 0.397346,-0.882353 z"
       sodipodi:nodetypes="scccccccccccccccccccccccss" /><path
       style="opacity:1;fill:#000000;stroke-width:0.3"
       id="path15"
       d="m 83.77993,71.469884 c -0.270411,0.567421 -0.363316,1.289942 -0.980104,1.608878 -0.922333,0.673318 -2.075043,0.946465 -3.193918,1.057972 -1.835259,0.130729 -3.681464,0.04219 -5.513108,0.218467 -1.291648,0.196114 -2.720119,0.371098 -3.684114,1.348997 -0.839533,0.746851 -0.981542,1.937042 -1.074786,2.992371 -0.0016,0.544213 0.07858,1.225848 0.326514,1.648416 0.220252,-0.1565 0.720969,0.04713 0.455139,-0.283901 -0.291891,-1.002843 -0.197537,-2.326239 0.154133,-3.285668 0.512642,-1.040378 1.680206,-1.538905 2.773524,-1.699843 1.172023,-0.263064 2.373563,-0.278128 3.568444,-0.300161 1.682612,-0.06852 3.417432,0.05647 5.032311,-0.516693 0.751241,-0.243533 1.476132,-0.650126 2.014611,-1.232659 0.20793,-0.392442 0.629067,-1.067982 0.520448,-1.406527 -0.133031,-0.04988 -0.266063,-0.09977 -0.399094,-0.149649 z"
       sodipodi:nodetypes="ccccccccccccccc" /><path
       style="opacity:1;fill:#000000;stroke-width:0.3"
       id="path16"
       d="m 86.181143,71.515382 c 0.401085,0.924185 0.216231,1.975271 -0.0517,2.907739 -0.498072,0.794479 -1.444734,1.205398 -2.340695,1.368365 -1.368091,0.217882 -2.769647,0.01751 -4.129954,0.311149 -1.365234,0.232822 -2.751415,0.296585 -4.121634,0.483865 -0.791758,0.223236 -1.631193,0.493583 -2.231051,1.083716 -0.552426,0.679695 -1.013845,1.484565 -1.101566,2.370509 -0.115845,0.484245 0.275638,0.240105 0.527496,0.165911 0.0057,-0.543259 0.254988,-1.099247 0.534513,-1.571682 0.280515,-0.473151 0.646763,-0.910217 1.185072,-1.095713 0.747359,-0.376907 1.573309,-0.528607 2.403894,-0.560973 1.326133,-0.09708 2.636742,-0.32557 3.953923,-0.492803 1.534571,-0.10101 3.198729,0.115132 4.585883,-0.698664 0.654488,-0.36072 1.304521,-0.920208 1.383895,-1.712466 0.188177,-0.902912 0.287583,-1.879304 -0.101353,-2.745501 -0.165574,0.06218 -0.331149,0.124365 -0.496723,0.186548 z" /><path
       style="opacity:1;fill:#000000;stroke-width:0.3"
       id="path17"
       d="m 88.527108,70.858511 c 0.18862,0.584975 0.148058,1.211468 0.143709,1.817298 -0.0411,0.659012 -0.255349,1.292584 -0.44747,1.919751 -0.182315,0.585446 -0.550661,1.08899 -0.98704,1.511777 -0.686877,0.733755 -1.712456,1.398407 -2.625,1.808182 -0.243874,0.05268 0.136103,0.07868 0.205173,0.188914 0.09215,0.16179 0.19978,0.244804 0.366621,0.09229 0.919955,-0.433775 1.780246,-1.010403 2.474109,-1.759045 0.510187,-0.491469 0.906459,-1.10064 1.108285,-1.782418 0.244883,-0.78777 0.485222,-1.597431 0.447217,-2.431869 -0.0098,-0.52043 -0.0075,-1.055523 -0.188778,-1.55115 l -0.496821,0.186269 z"
       sodipodi:nodetypes="scccccccccccs" /><path
       style="opacity:1;fill:#000000;stroke-width:0.3"
       id="path18"
       d="m 89.876137,70.683564 c 0.172316,0.254041 0.287439,0.542621 0.383868,0.832677 0.07122,0.222897 0.126444,0.452468 0.113875,0.68841 0.0043,0.379624 0.07636,0.759111 0.02822,1.138581 -0.01193,0.350882 -0.02098,0.702378 -0.07597,1.049722 -0.02968,0.287613 -0.210914,0.868729 -0.313304,1.137807 l 0.599589,-0.142321 c 0.136624,-0.34327 0.225666,-0.704574 0.259232,-1.072683 0.06203,-0.404134 0.04258,-0.814326 0.08089,-1.22051 -0.0025,-0.370356 -0.05213,-0.737955 -0.05213,-1.108269 -0.01819,-0.316089 -0.123643,-0.620482 -0.232927,-0.915124 -0.100576,-0.241561 -0.202155,-0.485179 -0.359503,-0.696619 l -0.431835,0.308329 z"
       sodipodi:nodetypes="sccccccccccccs" /><path
       style="opacity:1;fill:#000000;stroke-width:0.3"
       id="path19"
       d="m 91.035226,70.396832 c 0.24466,0.09422 0.510646,0.170981 0.701631,0.360767 0.166495,0.142711 0.307612,0.318078 0.398598,0.518043 0.04518,0.134718 0.10371,0.264476 0.140142,0.40198 0.07747,0.249864 0.06432,0.515786 0.07313,0.774429 -0.02468,0.07815 0.03425,0.07103 0.09033,0.0669 0.147341,-0.0014 0.294681,-0.0029 0.442022,-0.0043 -0.0091,-0.356027 0.0033,-0.722943 -0.119415,-1.062899 -0.0405,-0.13984 -0.100217,-0.273077 -0.148055,-0.410489 -0.126365,-0.266905 -0.313924,-0.502331 -0.537561,-0.694502 -0.238233,-0.224452 -0.55159,-0.339457 -0.854633,-0.446617 -0.06206,0.165572 -0.124124,0.331144 -0.186186,0.496716 z" /><path
       id="path20"
       style="opacity:1;fill:#000000;stroke-width:0.3"
       d="m 47.431213,44.709431 c -1.040254,1.180364 -1.518836,2.789222 -1.381242,4.348571 0.03174,1.207144 0.08529,2.788981 1.314659,3.415811 0.906374,0.349777 1.961836,-0.48951 2.159029,-1.355992 -0.124097,-0.52484 -0.218668,-1.202954 -0.237777,-1.82831 -0.13438,-0.896566 0.260011,-1.849748 0.90384,-2.462386 1.090409,-1.000225 2.645599,-0.926243 4.025078,-1.02423 1.807977,-0.06204 3.593161,-0.461472 5.408972,-0.34407 1.610601,0.0022 3.153725,0.540815 4.719092,0.85362 1.028571,0.383423 2.171788,0.737265 2.937801,1.56063 0.546246,0.888172 0.01583,1.882775 -0.17726,2.784319 -0.105447,1.112341 1.407331,1.393771 2.254679,1.251121 1.36055,-0.208702 2.76833,-1.215402 2.915573,-2.66238 -0.03385,-1.096518 -0.705105,-2.052469 -1.300703,-2.929537 -1.027443,-1.085546 -2.108183,-2.261833 -3.614168,-2.64502 -6.780025,-2.420865 -17.461455,-1.579543 -19.927573,1.037853 z m 20.087048,-0.413809 c 1.304884,0.415167 2.217786,1.512419 3.131177,2.467938 0.480415,0.832037 1.224136,1.718866 1.057833,2.741944 -0.454842,1.286919 -1.951039,2.099976 -3.274713,1.85259 -0.83944,-0.01617 -0.977518,-0.75054 -0.603614,-1.360109 0.456049,-1.089253 0.251891,-2.591411 -0.926081,-3.131077 -1.255432,-0.754256 -2.659224,-1.20225 -4.095571,-1.452364 -1.37518,-0.373375 -2.789674,-0.563397 -4.216066,-0.496914 -1.783565,0.03085 -3.543704,0.38951 -5.330256,0.402299 -1.199997,0.06508 -2.471118,0.243679 -3.39531,1.085381 -0.853457,0.771905 -1.310906,2.020637 -1.077303,3.163625 -0.158717,0.635498 0.435038,1.360831 0.0021,1.890342 -0.398894,0.527516 -1.243107,0.860292 -1.664505,0.158067 -0.689711,-1.126336 -0.535762,-2.53086 -0.52463,-3.798221 0.193993,-1.472063 1.004272,-2.939453 2.383309,-3.597713 1.08581,-0.4823 2.261313,-0.783544 3.428364,-1.007356 5.551775,-0.632021 11.002812,-0.609283 15.105266,1.081568 z"
       sodipodi:nodetypes="ccccccccccccccccccccccccccccccccc" /><path
       style="opacity:1;fill:#000000;stroke-width:0.3"
       id="path21"
       d="m 56.452362,45.566816 c 0.328509,0.305396 0.495703,0.735326 0.65342,1.14471 0.137467,0.45781 0.164443,0.936629 0.193681,1.410535 0.02929,0.356652 0.05814,0.718168 0.190191,1.054681 0.119443,0.369284 0.334644,0.772835 0.743613,0.871167 0.499199,0.138977 1.071448,-0.06813 1.39277,-0.468798 0.357773,-0.479082 0.337774,-1.103592 0.359259,-1.672124 -0.0078,-0.433506 0.07732,-0.860029 0.123778,-1.289088 0.01876,-0.298568 0.09172,-0.593678 0.188936,-0.875378 0.02617,-0.148389 0.290349,-0.22117 0.121673,-0.349834 -0.08001,-0.107681 -0.160029,-0.215362 -0.240043,-0.323043 -0.312012,0.213559 -0.44101,0.587296 -0.511284,0.941888 -0.09349,0.332675 -0.08353,0.681092 -0.14961,1.01858 -0.09222,0.559024 -0.04286,1.128827 -0.11585,1.689369 -0.04088,0.29388 -0.166267,0.611667 -0.455482,0.739981 -0.239644,0.120599 -0.603565,0.177178 -0.78046,-0.07462 -0.213212,-0.359213 -0.309636,-0.778488 -0.324583,-1.193492 -0.04698,-0.487888 -0.04729,-0.984676 -0.181537,-1.460443 -0.0964,-0.396999 -0.279918,-0.768732 -0.483209,-1.121119 -0.112375,-0.102995 -0.246363,-0.45594 -0.395851,-0.37254 -0.109804,0.109857 -0.219608,0.219713 -0.329412,0.32957 z" /><path
       style="opacity:1;fill:#000000;stroke-width:0.3"
       id="path22"
       d="m 54.24616,45.788725 c 0.284535,0.104246 0.597161,0.08291 0.877198,0.193516 0.40208,0.213887 0.625369,0.662704 0.670885,1.103965 0.102779,0.585384 -0.118737,1.176417 -0.435076,1.660298 -0.243671,0.311622 -0.548461,0.569918 -0.836769,0.838553 -0.527667,0.409934 -1.213027,0.563826 -1.871305,0.571987 -0.500006,0.0019 -1.011894,-0.03871 -1.470578,-0.255802 -0.609812,-0.225246 -1.276115,-0.485953 -1.624009,-1.074183 -0.126445,-0.09496 -0.182165,-0.651109 -0.344552,-0.407524 -0.09329,0.113213 -0.18658,0.226426 -0.27987,0.339639 0.248853,0.656496 0.826363,1.132282 1.460604,1.40047 0.554427,0.218236 1.107127,0.492303 1.714649,0.509206 0.909735,0.08149 1.876155,-0.05697 2.641758,-0.583883 0.323054,-0.259924 0.617338,-0.555544 0.9043,-0.854265 0.37446,-0.443009 0.602265,-1.006193 0.686573,-1.577444 0.04274,-0.604044 -0.06424,-1.258962 -0.469825,-1.731426 -0.27047,-0.371085 -0.723634,-0.554687 -1.172785,-0.566435 -0.17761,-0.0762 -0.218464,0.14315 -0.315309,0.24169 -0.0453,0.06388 -0.09059,0.127759 -0.135889,0.191638 z" /><path
       id="path23"
       style="opacity:1;fill:#000000;stroke-width:0.3"
       d="m 52.958525,47.157845 c -0.315599,0.01884 -0.643839,0.145976 -0.834058,0.409275 -0.155894,0.226792 -0.207531,0.526497 -0.113263,0.787973 0.09117,0.264036 0.275711,0.50762 0.537912,0.618468 0.311239,0.131536 0.677124,0.115749 0.977148,-0.03857 0.256668,-0.111105 0.476608,-0.324661 0.553035,-0.598664 0.06454,-0.179296 0.04316,-0.373966 0.0071,-0.556623 -0.118037,-0.481699 -0.473342,-0.470323 -0.863761,-0.586247 -0.08534,-0.02539 -0.175172,-0.03707 -0.264096,-0.03561 z m 0.0072,0.531751 c 0.208145,0.02959 0.405311,0.06157 0.572082,0.14254 0.0496,0.08136 0.04827,0.180956 0.05195,0.273016 -0.01646,0.142879 -0.111834,0.267069 -0.242281,0.325646 -0.152859,0.0846 -0.335286,0.12987 -0.507213,0.08006 -0.184118,-0.031 -0.296563,-0.207971 -0.33977,-0.376575 -0.0268,-0.140449 0.04607,-0.292984 0.172921,-0.359804 0.08947,-0.04784 0.192029,-0.07385 0.292306,-0.08487 z"
       sodipodi:nodetypes="scccccccsssccccccss" /><path
       id="path24"
       style="opacity:1;fill:#000000;stroke-width:0.3"
       d="m 63.979557,47.212105 c -0.269746,-0.0095 -0.53825,0.105623 -0.718304,0.306465 -0.131201,0.146335 -0.205366,0.340767 -0.220204,0.535557 -0.0057,0.260893 0.128053,0.517684 0.330551,0.678642 0.244787,0.181827 0.568793,0.212053 0.862623,0.169677 0.284621,-0.04303 0.583502,-0.156497 0.753781,-0.401556 0.13607,-0.192037 0.16312,-0.448478 0.09065,-0.670158 -0.07228,-0.211668 -0.246375,-0.379789 -0.44411,-0.477546 -0.161397,-0.06627 -0.309609,-0.09493 -0.478893,-0.12179 -0.05778,-0.01311 -0.117161,-0.01913 -0.176094,-0.01928 z m -0.04237,0.531234 c 0.04324,-0.0047 0.365477,0.04605 0.484766,0.09712 0.06647,0.0431 0.14429,0.09992 0.15711,0.177933 0.03248,0.103554 -0.02631,0.215575 -0.121644,0.261964 -0.171392,0.0928 -0.374328,0.119929 -0.566719,0.100662 -0.106442,-0.01532 -0.220409,-0.05552 -0.271418,-0.158397 -0.04486,-0.07039 -0.06313,-0.156601 -0.02639,-0.234322 0.04186,-0.146217 0.197608,-0.240415 0.344291,-0.244957 z"
       sodipodi:nodetypes="sscccccccsssccccccss" /><path
       style="opacity:1;fill:#000000;stroke-width:0.3"
       id="path25"
       d="m 63.733187,45.668945 c -0.788376,-0.08658 -1.638929,0.08765 -2.258718,0.603201 -0.389764,0.335322 -0.570382,0.843364 -0.616649,1.343271 -0.09775,0.507827 0.03736,1.046896 0.330803,1.468768 0.247262,0.418409 0.554916,0.831133 1.016084,1.027562 0.528805,0.230121 1.10712,0.323303 1.675409,0.399386 0.412312,0.0077 0.827912,-0.01063 1.236759,-0.06553 0.642892,-0.09399 1.231625,-0.466232 1.632048,-0.972307 0.355197,-0.41774 0.507876,-0.96289 0.552981,-1.49964 -0.02146,-0.170667 0.19174,-0.59538 -0.08128,-0.563383 -0.133566,-0.0044 -0.267133,-0.0088 -0.400699,-0.01324 -0.01586,0.349194 -0.05789,0.699462 -0.132707,1.040516 -0.159203,0.645941 -0.685807,1.155198 -1.293044,1.395871 -0.469987,0.149161 -0.970136,0.136647 -1.457393,0.14807 -0.515821,-0.07175 -1.043299,-0.150418 -1.523254,-0.360536 -0.465919,-0.209989 -0.696385,-0.697364 -0.942451,-1.114023 -0.124487,-0.301861 -0.139037,-0.637102 -0.06602,-0.953543 0.03916,-0.414231 0.252836,-0.822672 0.625521,-1.028179 0.474097,-0.292656 1.048565,-0.365733 1.595556,-0.343323 0.202957,0.03103 0.289248,-0.01337 0.194966,-0.197239 -0.02931,-0.105237 -0.05861,-0.210473 -0.08792,-0.315709 z" /><path
       id="path26"
       style="opacity:1;fill:#000000;stroke-width:0.3"
       d="m 52.410238,50.394857 c -0.740593,0.04406 -1.445361,0.306996 -2.151761,0.514095 -0.8333,0.295802 -1.687895,0.629783 -2.340472,1.245517 -0.474616,0.641225 -0.569058,1.464055 -0.652679,2.234489 -0.126879,0.790743 -0.117136,1.603249 0.0038,2.39392 0.188865,0.881774 1.1348,1.48643 2.013746,1.404237 0.695406,-1.25e-4 1.446594,-0.360224 1.67844,-1.055243 0.23158,-0.447806 0.08825,-0.934963 -0.0016,-1.393711 0.03974,-0.374308 0.598811,-0.3771 0.49351,0.05427 0.09083,0.440272 0.03504,1.008645 0.471812,1.281053 0.46534,0.188165 0.98154,0.01835 1.4559,-0.05377 0.577211,-0.140494 1.259076,-0.162055 1.669491,-0.656245 0.355091,-0.424084 0.374177,-1.012812 0.45475,-1.535307 0.05488,-0.861026 -0.0131,-1.728596 -0.171627,-2.575347 -0.166097,-0.622586 -0.545145,-1.259972 -1.184907,-1.479909 -0.548059,-0.239592 -1.134864,-0.408022 -1.738466,-0.378047 z m 0.03204,0.532267 c 0.64077,-0.01879 1.273138,0.194731 1.824178,0.50799 0.455589,0.402774 0.614357,1.029102 0.645944,1.615925 0.114216,0.926418 0.145266,1.894595 -0.150893,2.790528 -0.224658,0.482995 -0.813769,0.500811 -1.263493,0.61082 -0.428204,0.08555 -0.866376,0.199153 -1.305345,0.16124 -0.186944,-0.193436 -0.137809,-0.634433 -0.21857,-0.925014 5e-5,-0.417766 -0.315992,-0.842377 -0.77183,-0.763503 -0.502286,0.04019 -0.890113,0.562746 -0.749569,1.054462 0.134481,0.371477 0.152009,0.790138 -0.06924,1.134293 -0.298525,0.505347 -0.966513,0.589691 -1.498431,0.528018 -0.583297,-0.108368 -1.13417,-0.599961 -1.132943,-1.225063 -0.0671,-0.68379 -0.0609,-1.374121 0.05026,-2.052784 0.07752,-0.636444 0.143923,-1.30998 0.511976,-1.855502 0.659073,-0.582975 1.506368,-0.889544 2.329478,-1.163327 0.591146,-0.165718 1.181239,-0.384746 1.798474,-0.418083 z" /><path
       style="opacity:1;fill:#000000;stroke-width:0.3"
       id="path27"
       d="m 56.227091,51.113256 c 0.405537,-0.338489 0.886131,-0.574704 1.350755,-0.82059 0.563689,-0.238673 1.195045,-0.292624 1.80095,-0.252471 0.565108,0.05403 1.223195,0.216742 1.508957,0.760447 0.24175,0.517151 0.272269,1.100988 0.380684,1.654694 0.08322,0.639977 0.04716,1.287501 0.100359,1.929853 -0.0086,0.403842 0.06769,0.82235 -0.04919,1.215231 -0.2997,0.308868 -0.774085,0.250244 -1.168799,0.282438 -0.387647,0.05542 -0.873826,-0.154498 -0.906057,-0.591196 -0.04099,-0.473101 0.01054,-0.980823 -0.242402,-1.408299 -0.174976,-0.382461 -0.695825,-0.643208 -1.066848,-0.366308 -0.331374,0.214623 -0.45767,0.634967 -0.493382,1.007834 0.02784,0.33778 0.09899,0.715078 -0.166374,0.985129 -0.25671,0.248707 -0.61524,0.395075 -0.966481,0.446485 -0.313338,0.08155 -0.687204,-0.02706 -0.923347,-0.124595 -0.137547,0.07624 -0.275094,0.152483 -0.412641,0.228725 0.24813,0.421432 0.79838,0.478274 1.240849,0.437126 0.492778,-0.0223 0.975512,-0.223647 1.357432,-0.531417 0.325061,-0.303851 0.508587,-0.767241 0.420969,-1.211589 -0.04685,-0.282369 0.02062,-0.734681 0.32892,-0.817437 0.366353,0.191154 0.359462,0.689886 0.373055,1.050581 -0.03622,0.496687 0.171058,1.049724 0.646925,1.266755 0.466626,0.257604 1.018878,0.148051 1.523782,0.112153 0.445674,-0.05193 0.960974,-0.306576 1.016114,-0.803485 0.09045,-0.802822 -0.0301,-1.610718 -0.02632,-2.415657 -0.01876,-0.72979 -0.156349,-1.452354 -0.325531,-2.160305 -0.140266,-0.609348 -0.620803,-1.097186 -1.209371,-1.290407 -0.887116,-0.299993 -1.871305,-0.25411 -2.757544,0.02493 -0.546219,0.232155 -1.064149,0.535821 -1.550116,0.875186 -0.497281,0.397714 -1.007225,0.920714 -1.007675,1.601187 -0.0776,0.241004 0.201011,0.124344 0.336429,0.151224 0.06499,-2e-5 0.5165,-0.93021 0.885898,-1.236222 z"
       sodipodi:nodetypes="cccccccccccccccccccccccccccccccc" /><path
       style="opacity:1;fill:#000000;stroke-width:0.3"
       id="path28"
       d="m 61.675059,51.679342 c 0.526732,-0.371161 1.151631,-0.579298 1.758987,-0.77951 0.643766,-0.112227 1.305247,-0.101896 1.956504,-0.08044 0.620589,0.03484 1.21576,0.255575 1.718133,0.61878 0.599066,0.416248 1.312148,0.723323 1.721525,1.357763 0.402909,0.601345 0.801602,1.263886 0.839777,2.004505 -0.06258,0.726324 -0.300743,1.458406 -0.73771,2.047199 -0.409942,0.474121 -0.962323,0.9146 -1.622797,0.89622 -0.551499,0.0081 -1.204925,-0.08321 -1.545661,-0.56435 -0.13218,-0.434166 0.250197,-0.811146 0.2757,-1.237503 0.170364,-0.745756 -0.371431,-1.566437 -1.137966,-1.659111 -0.550339,-0.08402 -1.001141,0.389729 -1.129267,0.886767 -0.07567,0.361034 -0.236294,0.79811 -0.671723,0.815411 -0.454563,0.07088 -1.028597,0.08996 -1.326349,-0.33219 l -0.421614,0.322623 c 0.426564,0.604101 1.251995,0.656576 1.917091,0.518261 0.50077,-0.07352 0.864523,-0.502043 0.955099,-0.984533 0.05987,-0.355657 0.338175,-0.858954 0.768381,-0.658317 0.442956,0.161238 0.634774,0.685749 0.501059,1.118287 -0.142326,0.461036 -0.450778,0.95557 -0.208936,1.441272 0.674052,0.352841 1.170364,0.480175 1.864627,0.866802 0.713648,0.05056 1.409096,-0.27228 1.895977,-0.78429 0.692657,-0.624074 0.997254,-1.563428 1.140984,-2.459437 0.08262,-0.911979 -0.399871,-1.750679 -0.880049,-2.488602 -0.33357,-0.536523 -0.85674,-0.900406 -1.38817,-1.218807 -0.655725,-0.425318 -1.316478,-0.911557 -2.120966,-0.991723 -0.76072,-0.108575 -1.537326,-0.06764 -2.299067,0.0095 -0.653687,0.142911 -1.276108,0.417123 -1.869129,0.722218 -0.347169,0.09448 -0.22043,0.285988 -0.0546,0.473026 0.03339,0.04674 0.06677,0.09349 0.100156,0.140229 z"
       sodipodi:nodetypes="ccccccccccccccccccccccccccccccc" /><path
       id="path29"
       style="opacity:1;fill:#000000;stroke-width:0.3"
       d="m 47.632757,63.906895 c -0.516111,2.247974 -0.457165,4.577996 -0.375534,6.866066 0.09163,1.163145 0.740455,2.202435 1.6648,2.892821 1.331073,1.368593 3.211035,1.9097 4.968689,2.491837 2.29326,0.657872 4.689856,0.17364 7.022516,0.06053 2.291903,-0.160924 4.714299,-0.593097 6.566319,-2.046946 1.348946,-1.397334 2.088345,-3.278702 2.562368,-5.134628 0.390937,-1.613651 0.268087,-3.300548 0.07938,-4.93039 -0.30278,-1.259682 -1.302749,-2.270243 -2.52957,-2.656686 -2.683978,-1.08926 -5.557176,-1.811817 -8.471834,-1.699637 -1.308531,-0.0092 -11.11035,0.05891 -11.487134,4.157033 z m 16.580378,-3.022207 c 1.445175,0.413916 2.914878,0.842542 4.2323,1.578706 0.907779,0.694628 1.329237,1.842871 1.267877,2.964684 0.191307,1.88614 -0.09058,3.807389 -0.860663,5.543169 -0.583999,1.338865 -1.295277,2.792749 -2.69296,3.437336 -2.634218,1.38005 -5.684613,1.24719 -8.564754,1.51343 -1.578606,0.119277 -3.186209,-0.01897 -4.65708,-0.641881 -1.356093,-0.468772 -2.733297,-1.0147 -3.737084,-2.087188 -1.049935,-0.730803 -1.51679,-2.025619 -1.450671,-3.271659 -0.032,-2.377052 -0.02326,-4.803926 0.707951,-7.090006 1.960906,-1.873064 10.294397,-3.57983 15.755084,-1.946591 z"
       sodipodi:nodetypes="cccccccccccccccccccccc" /><path
       style="opacity:1;fill:#000000;stroke-width:0.3"
       id="path31"
       d="m 51.912506,75.307316 c -0.185076,0.44771 0.06504,1.204913 -0.45815,1.427368 -0.845802,-0.294627 -1.554853,-0.875722 -2.351607,-1.272803 -0.793384,-0.353195 -1.80278,-0.226283 -2.409972,0.421838 -0.844275,0.756503 -0.976501,1.968505 -0.901014,3.03608 0.0311,0.572633 0.347741,1.08733 0.825598,1.398889 1.203658,0.912484 2.719078,1.234694 4.188003,1.416115 1.309757,0.124095 2.632098,0.18576 3.946209,0.103288 1.270409,-0.117763 2.618947,-0.415746 3.552549,-1.350617 0.682053,-0.527155 1.200265,-1.296681 1.266188,-2.173828 0.171983,-0.699723 -0.064,-1.398054 -0.04107,-2.10173 -0.158485,0.04157 -0.479416,-0.0743 -0.530321,0.07153 -0.01862,0.683813 0.212672,1.364056 0.02957,2.04262 -0.05891,0.744394 -0.552798,1.350744 -1.118187,1.796277 -0.976908,0.954906 -2.408574,1.135247 -3.709045,1.211476 -1.830741,0.0121 -3.687325,-0.05073 -5.461212,-0.545148 -0.813537,-0.282674 -1.6498,-0.642752 -2.229538,-1.302679 -0.314822,-0.628606 -0.205743,-1.370378 -0.103252,-2.039768 0.166186,-0.835089 0.878172,-1.676133 1.786581,-1.639707 0.824848,-0.0034 1.42143,0.651158 2.128769,0.977406 0.469832,0.227605 1.040422,0.710778 1.565182,0.348209 0.536991,-0.401958 0.397095,-1.134978 0.542999,-1.709775 -0.172761,-0.03835 -0.345523,-0.07669 -0.518284,-0.115041 z" /><path
       style="opacity:1;fill:#000000;stroke-width:0.3"
       id="path32"
       d="m 59.372153,76.191784 c 0.05269,0.735946 0.0017,1.48037 0.14906,2.208466 0.100607,0.648936 0.27996,1.304626 0.629799,1.865455 0.499947,0.608621 1.285769,0.960822 2.072486,0.947849 1.15099,0.0274 2.359436,0.137781 3.446836,-0.325782 0.619831,-0.273942 1.31597,-0.478973 1.779103,-1.002392 0.53273,-0.670257 0.566894,-1.595386 0.433994,-2.406862 -0.168418,-0.678632 -0.414201,-1.357818 -0.830569,-1.925397 -0.301421,-0.353673 -0.747211,-0.522111 -1.157158,-0.713236 -0.0783,0.158888 -0.279386,0.247617 -0.35769,0.406505 0.440061,0.203533 1.08176,0.454404 1.292476,0.9336 0.398353,0.761328 0.692294,1.62146 0.55545,2.49056 -0.0524,0.524885 -0.347049,1.040234 -0.85017,1.247691 -0.57377,0.279882 -1.161223,0.560871 -1.789285,0.694929 -0.846747,0.152872 -1.714471,0.08503 -2.569442,0.06275 -0.63024,0.0048 -1.272398,-0.289991 -1.646676,-0.800963 -0.534544,-1.043243 -0.602887,-2.243852 -0.604647,-3.394667 0.03438,-0.260766 -0.03752,-0.412433 -0.302889,-0.316376 -0.08356,0.0093 -0.167119,0.01858 -0.250678,0.02787 z"
       sodipodi:nodetypes="ccccccccccccccccccc" /><path
       style="opacity:1;fill:#000000;stroke-width:0.3"
       id="path33"
       d="m 50.978858,70.740894 c -0.317271,-1.073733 -0.608932,-2.199767 -0.493028,-3.327716 0.247571,-0.877791 0.55546,-1.758884 1.022272,-2.544918 0.84358,-0.859868 2.104417,-1.079635 3.244795,-1.283905 1.856826,-0.261967 3.731353,-0.363238 5.591637,-0.594243 1.328811,-0.086 2.716778,-0.283413 3.985206,0.244928 0.706207,0.234352 1.397014,0.670561 1.801195,1.303655 0.599714,1.240729 0.90902,2.620959 0.834778,4.000591 0.01365,0.724766 0.0075,1.46204 -0.223879,2.157746 0.464272,0.255709 0.678579,0.03521 0.672554,-0.505146 0.144275,-0.979229 0.09756,-1.978863 0.05062,-2.964133 -0.137304,-1.125312 -0.454387,-2.255997 -1.041334,-3.229999 -1.105665,-1.264474 -2.884754,-1.741636 -4.516615,-1.647751 -1.852997,0.06358 -3.685736,0.364736 -5.533789,0.495341 -1.675942,0.184269 -3.470129,0.323483 -4.893641,1.319419 -0.743514,0.551681 -0.921674,1.522651 -1.279732,2.322903 -0.486626,1.115981 -0.24237,2.356052 0.0041,3.49728 0.135111,0.390453 0.124694,1.040824 0.674878,0.772607 0.03333,-0.0056 0.06666,-0.01111 0.09999,-0.01666 z" /><path
       style="opacity:1;fill:#000000;stroke-width:0.3"
       id="path34"
       d="m 54.736896,63.399767 c -0.259275,0.700359 -0.564113,1.383516 -0.873269,2.063131 -0.354006,0.770421 -0.783488,1.501484 -1.232651,2.219477 -0.589512,0.947341 -1.042142,1.971318 -1.624475,2.922777 0.150208,0.09401 0.300417,0.188015 0.450625,0.282022 0.63456,-1.040836 1.134292,-2.15807 1.795817,-3.183317 0.663137,-1.038406 1.197885,-2.152262 1.662484,-3.291779 0.08354,-0.263384 0.328516,-0.621856 0.269855,-0.844173 -0.149462,-0.05605 -0.298924,-0.112092 -0.448386,-0.168138 z" /><path
       style="opacity:1;fill:#000000;stroke-width:0.3"
       id="path35"
       d="m 57.730495,63.155221 c -0.18095,0.789078 -0.597292,1.493352 -0.960631,2.208172 -0.838321,1.497333 -1.963823,2.825174 -2.673066,4.396399 -0.214982,0.438216 -0.429002,0.876978 -0.643257,1.315601 0.160719,0.07608 0.321439,0.152165 0.482158,0.228248 0.486706,-0.963282 0.906995,-1.964116 1.502864,-2.86812 0.754279,-1.180773 1.605009,-2.308171 2.19733,-3.584788 0.258585,-0.503408 0.556103,-1.1516 0.670996,-1.709042 -0.172643,-0.03836 -0.403751,0.05189 -0.576394,0.01353 z"
       sodipodi:nodetypes="ccccccccc" /><path
       style="opacity:1;fill:#000000;stroke-width:0.3"
       id="path36"
       d="m 61.903019,62.714282 c -0.08803,0.818516 -0.664137,1.448829 -1.080005,2.121317 -0.754381,1.10545 -1.511797,2.230097 -1.963812,3.499625 -0.37152,0.956633 -0.826734,1.879323 -1.356226,2.758088 -0.119868,0.146115 0.168166,0.163709 0.256507,0.243972 0.21009,0.200947 0.263021,-0.115363 0.366488,-0.265361 0.627983,-1.023864 1.07656,-2.142336 1.523446,-3.25319 0.636946,-1.38556 1.605638,-2.575541 2.392961,-3.872629 0.198742,-0.363167 0.346962,-0.758985 0.387947,-1.173231 -0.175769,-0.01953 -0.351537,-0.03906 -0.527306,-0.05859 z" /><path
       style="opacity:1;fill:#000000;stroke-width:0.3"
       id="path37"
       d="m 64.764713,63.187754 c -0.155011,0.745712 -0.510201,1.430172 -0.83668,2.112453 -0.492856,0.942419 -1.047151,1.853491 -1.484113,2.824882 -0.370059,0.805615 -0.711904,1.623904 -1.050623,2.442955 -0.0066,0.219995 -0.387285,0.632003 -0.146571,0.744375 0.132053,0.04786 0.264105,0.09573 0.396158,0.143595 0.294101,-0.902106 0.70437,-1.759551 1.071522,-2.632932 0.469214,-1.082719 1.058911,-2.105929 1.624627,-3.139459 0.370498,-0.7468 0.756699,-1.502021 0.935677,-2.321666 0.09,-0.197163 -0.181692,-0.113718 -0.294956,-0.152698 -0.07168,-0.0072 -0.143361,-0.01434 -0.215041,-0.02151 z" /><path
       style="opacity:1;fill:#000000;stroke-width:0.3"
       id="path38"
       d="m 66.547721,65.982394 c -0.120663,0.349933 -0.190984,0.713407 -0.300962,1.064389 -0.354037,1.054084 -0.825802,2.068191 -1.415879,3.011068 -0.25856,0.43574 -0.544053,0.854523 -0.815144,1.282196 L 64.46,71.631888 c 0.661701,-1.017037 1.332192,-2.0384 1.8135,-3.156733 0.299115,-0.692051 0.561071,-1.402692 0.756758,-2.131155 7.13e-4,-0.112792 0.147887,-0.403437 -0.05469,-0.361603 l -0.31092,-0.339101 z"
       sodipodi:nodetypes="sccccccccs" /><path
       style="opacity:1;fill:#000000;stroke-width:0.3"
       id="path39"
       d="m 54.378695,63.63659 c 0.999395,0.421712 1.918053,1.013034 2.927663,1.414875 1.154851,0.588241 2.393176,0.992313 3.537898,1.600744 0.928464,0.39115 1.98864,0.444765 2.83177,1.039114 0.682032,0.357262 1.374485,0.695328 2.032838,1.097051 0.45994,0.238754 0.904232,0.522617 1.410707,0.654404 0.04306,-0.171756 0.08613,-0.343513 0.129188,-0.515269 C 66.264853,68.602046 65.4339,67.94601 64.49667,67.516104 63.844881,67.201287 63.243761,66.768878 62.527523,66.6035 c -0.716655,-0.183264 -1.444387,-0.362542 -2.085115,-0.747746 -1.030201,-0.47088 -2.092155,-0.870662 -3.105423,-1.379557 -0.942744,-0.379232 -1.796176,-0.945158 -2.738564,-1.323028 -0.07324,0.16114 -0.146484,0.322281 -0.219726,0.483421 z" /><path
       style="opacity:1;fill:#000000;stroke-width:0.3"
       id="path40"
       d="m 51.093671,64.902783 c 1.434785,0.728437 2.817936,1.553669 4.225526,2.332558 1.120122,0.647073 2.22111,1.328915 3.342743,1.971668 0.991603,0.433903 2.06593,0.650478 3.035337,1.141829 0.766478,0.391654 1.506949,0.835893 2.289106,1.198154 0.03199,-0.168781 0.330099,-0.429456 0.14257,-0.522433 -1.091433,-0.511837 -2.097083,-1.199421 -3.241838,-1.596647 -0.938061,-0.341058 -1.944352,-0.552157 -2.762531,-1.156366 -1.768896,-1.071835 -3.563775,-2.099085 -5.373844,-3.099581 -0.469524,-0.24547 -0.990833,-0.589873 -1.453685,-0.726785 -0.0678,0.152535 -0.135589,0.305069 -0.203384,0.457603 z" /><path
       style="opacity:1;fill:#000000;stroke-width:0.3"
       id="path41"
       d="m 49.980852,67.769353 c 0.667968,0.242096 1.14553,0.793323 1.720471,1.184996 0.632607,0.479727 1.329378,0.864193 1.976179,1.323545 0.583487,0.395684 1.257391,0.643346 1.809036,1.088803 0.142108,0.04415 0.390978,0.364043 0.481212,0.179881 0.06559,-0.13157 0.13119,-0.26314 0.196785,-0.39471 -0.422804,-0.213122 -0.769373,-0.548793 -1.198563,-0.75252 -0.466745,-0.241937 -0.926176,-0.498678 -1.351401,-0.80953 -0.607027,-0.407305 -1.240567,-0.775679 -1.814333,-1.231216 -0.520236,-0.394297 -1.001541,-0.871503 -1.633141,-1.085908 -0.06208,0.165553 -0.124163,0.331106 -0.186245,0.496659 z" /><path
       style="opacity:1;fill:#000000;stroke-width:0.3"
       id="path42"
       d="m 48.51024,62.539377 c -0.779695,-0.600086 -1.36585,-1.652765 -0.936466,-2.631255 0.302222,-0.9176 1.268125,-1.292321 2.066446,-1.667853 1.240787,-0.445678 2.518431,-0.758375 3.806513,-1.02893 1.361293,-0.385638 2.755388,-0.628924 4.169799,-0.69334 1.633563,-0.06326 3.276167,-0.06507 4.90688,0.03551 1.015941,0.1654 2.013047,0.442968 2.905572,0.96875 1.343393,0.737022 2.915667,1.094585 4.074251,2.1389 0.255365,0.394008 0.449834,0.908966 0.356179,1.37115 -0.225349,0.575267 -0.94239,0.832552 -1.344739,1.098944 0.06451,0.660627 0.596511,0.320758 0.968484,0.06058 0.752057,-0.405997 1.163506,-1.294531 0.813821,-2.10286 -0.256176,-1.023131 -1.305002,-1.471206 -2.149388,-1.92443 -1.242509,-0.503504 -2.440093,-1.102437 -3.649457,-1.67641 -1.192669,-0.423344 -2.457293,-0.578664 -3.718515,-0.53213 -2.423509,-0.05551 -4.890068,-0.01872 -7.232656,0.677354 -1.230974,0.294299 -2.478,0.524777 -3.669746,0.96439 -0.804254,0.27426 -1.615537,0.645964 -2.241942,1.22973 -0.786876,0.794783 -0.992258,2.127206 -0.376459,3.083108 0.25345,0.31409 0.733059,1.343699 1.119342,0.760987 0.04403,-0.04407 0.08805,-0.08813 0.132081,-0.132197 z" /></g></svg>
